<!DOCTYPE svg PUBLIC "-//W3C//DTD SVG 20010904//EN"
"http://www.w3.org/TR/2001/REC-SVG-20010904/DTD/svg10.dtd"
[
 <!ATTLIST svg
  xmlns:xlink CDATA #FIXED "http://www.w3.org/1999/xlink">
]><svg xmlns="http://www.w3.org/2000/svg" width="280mm" height="140mm"><path font-size="12" fill="#ee5d00" fill-rule="evenodd" d="M0 0h992.126v496.063h-992.126z"/><g fill-rule="evenodd"><path d="M702.598 135.617c6.343 6.254 12.685 12.508 12.685 25.016s-25.37 50.031-38.055 50.031c-12.685 0-38.055-37.524-38.055-50.031 0-12.508 6.342-18.762 12.685-25.016 6.342-6.254 44.397-6.254 50.74 0zm-109.949 25.669c8.894-.992 17.787-1.984 27.673 5.811s23.74 50.74 15.839 60.52c-7.902 9.78-53.362 5.953-63.248-1.843-9.886-7.795-10.878-16.583-11.87-25.37-.992-8.787 22.712-38.126 31.606-39.118zm-45.228 102.592c4.783-7.476 9.567-14.953 21.933-17.716 12.366-2.764 55.063 13.323 57.862 25.512 2.799 12.189-28.701 44.858-41.067 47.622-12.366 2.764-19.949-1.949-27.531-6.661-7.583-4.712-15.98-41.279-11.197-48.756zm50.858 100.037c-2.941-8.327-5.882-16.654-.354-27.886s44.929-34.087 56.338-28.665c11.409 5.421 17.646 49.961 12.118 61.193-5.528 11.232-13.996 14.138-22.465 17.043-8.468 2.906-42.697-13.358-45.638-21.685zm111.122 21.243c-8.451-2.941-16.902-5.882-22.394-17.15-5.492-11.268.85-55.842 12.26-61.228 11.409-5.386 50.705 17.646 56.197 28.913 5.492 11.268 2.534 19.595-.425 27.921-2.958 8.327-37.187 24.484-45.638 21.543zm87.214-70.988c-7.583 4.695-15.165 9.39-27.496 6.591-12.331-2.799-43.653-35.575-40.819-47.764 2.835-12.189 45.496-28.169 57.827-25.37 12.331 2.799 17.079 10.293 21.827 17.787 4.748 7.494-3.756 44.061-11.339 48.756zm-1.789-111.488c-1.027 8.77-2.055 17.539-11.976 25.299-9.921 7.76-55.417 11.48-63.283 1.701-7.866-9.78 6.165-52.618 16.087-60.378 9.921-7.76 18.815-6.75 27.709-5.74 8.894 1.01 32.492 30.348 31.465 39.118z" fill="#fff"/><path d="M709.188 197.444s-4.624 26.93 3.241 36.875l34.859 10.701s-25.296 14.935-27.762 26.282c-2.466 11.347 12.335 33.748 12.335 33.748s-26.742-9.629-37.574-5.704c-10.832 3.925-15.872 30.339-16.3 30.327-.428-.012-10.826-26.435-21.81-32.24-10.985-5.804-36.648 7.007-35.78 6.608.869-.399 14.896-26.22 13.482-36.83-1.414-10.61-25.477-23.968-25.048-23.956.428.012 25.768-1.392 35.483-11.268 9.715-9.875 2.746-36.285 2.746-36.285s20.407 21.289 31.56 21.179c11.153-.11 30.986-19.004 30.569-19.439z"/></g><path font-size="12" fill-rule="evenodd" d="M0 0h348.043v496.063h-348.043z"/><path d="M141.002 129.334l19.812-11.081-13.333-18.894 20.65 9.265 5.833-22.664 5.938 22.634 20.607-9.368-13.245 18.96 19.863 10.982-22.455 1.008 4.162 23.062-14.755-17.703-14.674 17.777 4.055-23.084-22.459-.895zm90.663 85.45l19.093-11.081-12.849-18.894 19.901 9.265 5.621-22.664 5.722 22.634 19.859-9.368-12.764 18.96 19.142 10.982-21.64 1.008 4.011 23.062-14.219-17.703-14.141 17.777 3.908-23.084-21.643-.895zm-97.865 193.43l19.093-10.686-12.849-18.22 19.901 8.935 5.621-21.856 5.722 21.828 19.859-9.034-12.764 18.284 19.142 10.591-21.64.972 4.011 22.241-14.219-17.072-14.141 17.144 3.908-22.261-21.643-.863zm-89.257-167.957l19.093-10.291-12.849-17.547 19.901 8.605 5.621-21.049 5.722 21.021 19.859-8.7-12.764 17.609 19.142 10.199-21.64.936 4.011 21.419-14.219-16.441-14.141 16.51 3.908-21.438-21.643-.831zm149.892 66.172l5.791-14.752-11.82-10.556 15.819.949 6.388-14.503 3.985 15.338 15.768 1.593-13.356 8.53 3.357 15.488-12.24-10.066-13.692 7.979z" font-size="12" fill="#fff" fill-rule="evenodd"/></svg>