<svg width="1000" height="500" xmlns="http://www.w3.org/2000/svg" xmlns:xlink="http://www.w3.org/1999/xlink"><defs><linearGradient id="a"><stop offset="0"/><stop offset="1" stop-color="#fff"/></linearGradient><linearGradient xlink:href="#a"/><linearGradient xlink:href="#a"/><linearGradient xlink:href="#a"/><linearGradient xlink:href="#a"/><linearGradient xlink:href="#a"/><linearGradient xlink:href="#a"/><linearGradient xlink:href="#a"/><linearGradient xlink:href="#a"/><linearGradient xlink:href="#a"/><linearGradient xlink:href="#a"/><linearGradient xlink:href="#a"/><linearGradient xlink:href="#a"/><linearGradient xlink:href="#a"/><linearGradient xlink:href="#a"/><linearGradient xlink:href="#a"/><linearGradient xlink:href="#a"/><linearGradient xlink:href="#a"/><linearGradient xlink:href="#a"/><linearGradient xlink:href="#a"/><linearGradient xlink:href="#a"/><linearGradient xlink:href="#a"/><linearGradient xlink:href="#a"/><linearGradient xlink:href="#a"/><linearGradient xlink:href="#a"/><linearGradient xlink:href="#a"/><linearGradient xlink:href="#a"/><linearGradient xlink:href="#a"/><linearGradient xlink:href="#a"/><linearGradient xlink:href="#a"/><linearGradient xlink:href="#a"/><linearGradient xlink:href="#a"/><linearGradient xlink:href="#a"/><linearGradient xlink:href="#a"/><linearGradient xlink:href="#a"/><linearGradient xlink:href="#a"/><linearGradient xlink:href="#a"/><linearGradient xlink:href="#a"/><linearGradient xlink:href="#a"/><linearGradient xlink:href="#a"/><linearGradient xlink:href="#a"/><linearGradient xlink:href="#a"/><linearGradient xlink:href="#a"/><linearGradient xlink:href="#a"/><linearGradient xlink:href="#a"/><linearGradient xlink:href="#a"/><linearGradient xlink:href="#a"/><linearGradient xlink:href="#a"/><linearGradient xlink:href="#a"/><linearGradient xlink:href="#a"/><linearGradient xlink:href="#a"/><linearGradient xlink:href="#a"/><linearGradient xlink:href="#a"/><linearGradient xlink:href="#a"/><linearGradient xlink:href="#a"/><linearGradient xlink:href="#a"/><linearGradient xlink:href="#a"/><linearGradient xlink:href="#a"/><linearGradient xlink:href="#a"/><linearGradient xlink:href="#a"/><linearGradient xlink:href="#a"/><linearGradient xlink:href="#a"/><linearGradient xlink:href="#a"/></defs><path font-size="12" fill="#006" d="M0 0h1000v500h-1000z"/><g font-size="12"><path d="M0 0v27.951l444.098 222.049h55.902v-27.951l-444.098-222.049h-55.902zm500 0v27.95l-444.098 222.05h-55.902v-27.952l444.098-222.048h55.902zm-291.667 0v250h83.333v-250h-83.333zm-208.333 83.333v83.333h500v-83.333h-500z" fill="#fff"/><path d="M0 100v50h500v-50h-500zm225-100v250h50v-250h-50zm-225 250l166.667-83.333h37.267l-166.666 83.333h-37.268zm0-250l166.667 83.333h-37.267l-129.399-64.699v-18.634zm296.066 83.333l166.667-83.333h37.267l-166.667 83.333h-37.267zm203.934 166.667l-166.667-83.333h37.267l129.399 64.699v18.634z" fill="#c00"/></g><g fill-rule="evenodd"><rect width="248.031" height="248.032" x="637.795" y="127.953" ry="124.016" rx="124.016" font-size="12" fill="#fff"/><rect width="35.433" height="248.031" x="744.094" y="127.953" ry="1.195" rx="17.717" font-size="12" fill="#c00"/><rect width="35.433" height="248.031" x="-269.685" y="637.795" ry="1.195" rx="17.717" transform="rotate(-90)" font-size="12" fill="#c00"/><path font-size="12" fill="#ffec00" stroke-width="1pt" stroke="#000" d="M760.925 192.507l-2.473-11.089-9.812 5.728 6.092-9.589-10.987-2.888 11.088-2.472-5.728-9.812 9.589 6.092 2.888-10.988 2.472 11.089 9.812-5.728-6.092 9.589 10.988 2.887-11.088 2.473 5.727 9.811-9.589-6.092-2.887 10.988zm-102.939 72.109l6.116-9.575-10.981-2.914 11.095-2.446-5.703-9.825 9.573 6.116 2.914-10.981 2.446 11.095 9.826-5.704-6.117 9.574 10.981 2.914-11.095 2.446 5.705 9.825-9.574-6.115-2.915 10.98-2.446-11.095-9.825 5.705zm104.049 89.769l-2.779-11.016-9.649 5.998 5.824-9.755-11.063-2.582 11.015-2.778-5.998-9.649 9.755 5.824 2.582-11.064 2.778 11.016 9.649-5.998-5.824 9.755 11.064 2.581-11.015 2.779 5.997 9.649-9.755-5.824-2.581 11.064zm86.391-84.378l-2.473-11.089-9.812 5.728 6.092-9.589-10.987-2.888 11.088-2.472-5.728-9.812 9.589 6.092 2.888-10.988 2.472 11.089 9.812-5.728-6.092 9.589 10.988 2.887-11.088 2.473 5.727 9.811-9.589-6.092-2.887 10.988z"/><g transform="matrix(.42 0 0 .234 470.174 280.218)"><path d="M584.683-158.559c-1.056-14.775 16.886-7.388 20.052 4.221 10.554 6.332 59.101 29.551 59.101 29.551l-6.332 8.443s-48.548-30.606-51.714-28.496c-3.166 2.111-11.609-5.276-11.609-5.276l-1.055-7.388s-1.056 6.333-2.111 6.333c-1.055 0-1.055-7.388-1.055-7.388l-4.222 5.277-1.055-5.277zm85.486 28.495c15.83-.528 90.235-.528 90.235-.528s13.72-.527 14.248-8.443c.527-7.915-12.137-8.443-12.137-8.443l-66.49-.528s-8.97-1.055-10.026-14.775c-1.055-13.72 9.499-14.775 9.499-14.775l36.41-1.056s0-6.86.528-6.86l2.111 3.694s4.222-5.277 4.222-4.749c0 .528 1.583 4.221 1.583 4.221l3.166-2.638s1.055 3.166 1.583 3.166l4.221-2.638 2.639 3.694 5.277 3.166h-6.333l-1.055 2.638-2.638-2.638-3.167 4.221-2.11-2.638s-2.111 2.111-2.111 2.638c0 .528-2.111-3.166-2.639-3.166-.527 0-3.166 2.639-3.166 2.639s-1.583-2.111-2.111-2.111c-.527 0-36.41 1.055-36.41 1.055s-5.805.528-6.333 12.137c-.527 11.609 7.388 11.609 7.388 11.609s68.072.528 68.6.528c.528 0 13.192 1.583 12.665 11.082-.528 9.498-6.86 11.081-6.86 11.081s6.86 3.694 10.026 11.082c3.166 7.387 1.055 9.498 4.221 13.72 3.167 4.221 15.831 13.192 15.831 21.635 0 8.443-2.111 7.915-2.638 7.915-.528 0-2.639-2.111-2.639-2.111s1.583 3.166-3.694 7.915c-5.277 4.749-16.886 7.915-16.886 7.915l-2.638-2.638-1.056 3.166s-.527-2.639-1.055-2.639c-.528 0-2.638 2.111-2.638 2.111s-1.056-2.638-1.584-2.638c-.527 0-2.638 3.166-2.638 3.166s-.528-3.694 1.583-5.805c2.111-2.111 6.86-1.055 7.388-1.055.527 0 14.247-1.055 13.192-14.775-1.055-13.72-11.081-13.72-11.081-13.72s-12.665-5.277-30.079-5.805c-17.414-.528-39.049 6.86-67.017 10.554-27.967 3.694-64.906 17.942-64.906 17.942l-1.055 3.166s-1.583-4.222-2.111-3.694c-.528.528-1.055 4.222-1.583 4.222l-3.166-4.749s-4.749 6.332-4.749 5.805c0-.528.527-4.749.527-4.749s-3.166-8.443 7.388-11.609c10.554-3.166 11.081-.528 23.746-5.277 12.665-4.749 4.749-17.941 16.886-29.023 12.137-11.081 22.163-11.081 21.636-11.609z" fill="#ffc700" stroke="#000" stroke-width="1pt"/><rect width="7.915" height="6.86" x="651.699" y="-130.592" ry="3.43" rx="3.958" font-size="12" fill="#ffc700" stroke-width="1pt" stroke="#000"/><rect width="7.915" height="6.86" x="647.478" y="-133.23" ry="3.43" rx="3.958" font-size="12" fill="#ffc700" stroke-width="1pt" stroke="#000"/><rect width="7.915" height="6.86" x="647.214" y="-126.37" ry="3.43" rx="3.958" font-size="12" fill="#ffc700" stroke-width="1pt" stroke="#000"/><rect width="7.915" height="6.86" x="643.256" y="-129.272" ry="3.43" rx="3.958" font-size="12" fill="#ffc700" stroke-width="1pt" stroke="#000"/><rect width="7.915" height="6.86" x="639.562" y="-124.523" ry="3.43" rx="3.958" font-size="12" fill="#ffc700" stroke-width="1pt" stroke="#000"/><rect width="7.915" height="6.86" x="642.993" y="-121.357" ry="3.43" rx="3.958" font-size="12" fill="#ffc700" stroke-width="1pt" stroke="#000"/><rect width="7.915" height="6.86" x="635.605" y="-121.621" ry="3.43" rx="3.958" font-size="12" fill="#ffc700" stroke-width="1pt" stroke="#000"/><rect width="7.915" height="6.86" x="638.507" y="-118.983" ry="3.43" rx="3.958" font-size="12" fill="#ffc700" stroke-width="1pt" stroke="#000"/><rect width="7.915" height="6.86" x="650.116" y="-138.243" ry="3.43" rx="3.958" font-size="12" fill="#ffc700" stroke-width="1pt" stroke="#000"/><rect width="7.915" height="6.86" x="654.866" y="-134.022" ry="3.43" rx="3.958" font-size="12" fill="#ffc700" stroke-width="1pt" stroke="#000"/><rect width="7.915" height="6.86" x="653.019" y="-142.465" ry="3.43" rx="3.958" font-size="12" fill="#ffc700" stroke-width="1pt" stroke="#000"/><rect width="7.915" height="6.86" x="657.504" y="-137.979" ry="3.43" rx="3.958" font-size="12" fill="#ffc700" stroke-width="1pt" stroke="#000"/><rect width="7.915" height="6.86" x="660.934" y="-134.022" ry="3.43" rx="3.958" font-size="12" fill="#ffc700" stroke-width="1pt" stroke="#000"/><rect width="7.915" height="6.86" x="657.768" y="-129.273" ry="3.43" rx="3.958" font-size="12" fill="#ffc700" stroke-width="1pt" stroke="#000"/><rect width="7.915" height="6.86" x="654.602" y="-125.842" ry="3.43" rx="3.958" font-size="12" fill="#ffc700" stroke-width="1pt" stroke="#000"/><rect width="7.915" height="6.86" x="650.116" y="-122.149" ry="3.43" rx="3.958" font-size="12" fill="#ffc700" stroke-width="1pt" stroke="#000"/><rect width="7.915" height="6.86" x="646.422" y="-118.719" ry="3.43" rx="3.958" font-size="12" fill="#ffc700" stroke-width="1pt" stroke="#000"/><rect width="7.915" height="6.86" x="642.993" y="-114.761" ry="3.43" rx="3.958" font-size="12" fill="#ffc700" stroke-width="1pt" stroke="#000"/><rect width="7.915" height="6.86" x="630.064" y="-107.109" ry="3.43" rx="3.958" font-size="12" fill="#ffc700" stroke-width="1pt" stroke="#000"/><rect width="7.915" height="6.86" x="625.842" y="-109.748" ry="3.43" rx="3.958" font-size="12" fill="#ffc700" stroke-width="1pt" stroke="#000"/><rect width="7.915" height="6.86" x="622.676" y="-121.093" ry="3.43" rx="3.958" font-size="12" fill="#ffc700" stroke-width="1pt" stroke="#000"/><rect width="7.915" height="6.86" x="628.481" y="-114.761" ry="3.43" rx="3.958" font-size="12" fill="#ffc700" stroke-width="1pt" stroke="#000"/><rect width="7.915" height="6.86" x="633.23" y="-110.539" ry="3.43" rx="3.958" font-size="12" fill="#ffc700" stroke-width="1pt" stroke="#000"/><rect width="7.915" height="6.86" x="631.383" y="-118.982" ry="3.43" rx="3.958" font-size="12" fill="#ffc700" stroke-width="1pt" stroke="#000"/><rect width="7.915" height="6.86" x="635.869" y="-114.497" ry="3.43" rx="3.958" font-size="12" fill="#ffc700" stroke-width="1pt" stroke="#000"/><rect width="7.915" height="6.86" x="639.299" y="-110.539" ry="3.43" rx="3.958" font-size="12" fill="#ffc700" stroke-width="1pt" stroke="#000"/><rect width="7.915" height="6.86" x="636.133" y="-105.79" ry="3.43" rx="3.958" font-size="12" fill="#ffc700" stroke-width="1pt" stroke="#000"/><rect width="7.915" height="6.86" x="630.064" y="-120.566" ry="3.43" rx="3.958" font-size="12" fill="#ffc700" stroke-width="1pt" stroke="#000"/><rect width="7.915" height="6.86" x="625.579" y="-116.872" ry="3.43" rx="3.958" font-size="12" fill="#ffc700" stroke-width="1pt" stroke="#000"/><rect width="7.915" height="6.86" x="658.823" y="-121.357" ry="3.43" rx="3.958" font-size="12" fill="#ffc700" stroke-width="1pt" stroke="#000"/><rect width="7.915" height="6.86" x="654.602" y="-123.996" ry="3.43" rx="3.958" font-size="12" fill="#ffc700" stroke-width="1pt" stroke="#000"/><rect width="7.915" height="6.86" x="654.338" y="-117.136" ry="3.43" rx="3.958" font-size="12" fill="#ffc700" stroke-width="1pt" stroke="#000"/><rect width="7.915" height="6.86" x="650.38" y="-120.038" ry="3.43" rx="3.958" font-size="12" fill="#ffc700" stroke-width="1pt" stroke="#000"/><rect width="7.915" height="6.86" x="646.686" y="-115.289" ry="3.43" rx="3.958" font-size="12" fill="#ffc700" stroke-width="1pt" stroke="#000"/><rect width="7.915" height="6.86" x="329.861" y="-578.961" ry="3.43" rx="3.958" transform="rotate(46.297)" font-size="12" fill="#ffc700" stroke-width="1pt" stroke="#000"/><rect width="7.915" height="6.86" x="325.903" y="-581.863" ry="3.43" rx="3.958" transform="rotate(46.297)" font-size="12" fill="#ffc700" stroke-width="1pt" stroke="#000"/><rect width="7.915" height="6.86" x="322.209" y="-577.114" ry="3.43" rx="3.958" transform="rotate(46.297)" font-size="12" fill="#ffc700" stroke-width="1pt" stroke="#000"/><rect width="7.915" height="6.86" x="325.855" y="-572.646" ry="3.43" rx="3.958" transform="rotate(46.297)" font-size="12" fill="#ffc700" stroke-width="1pt" stroke="#000"/><rect width="7.915" height="6.86" x="321.154" y="-571.573" ry="3.43" rx="3.958" transform="rotate(46.297)" font-size="12" fill="#ffc700" stroke-width="1pt" stroke="#000"/><rect width="7.915" height="6.86" x="327.917" y="-575.923" ry="3.43" rx="3.958" transform="rotate(46.297)" font-size="12" fill="#ffc700" stroke-width="1pt" stroke="#000"/><rect width="7.915" height="6.86" x="650.116" y="-112.123" ry="3.43" rx="3.958" font-size="12" fill="#ffc700" stroke-width="1pt" stroke="#000"/><rect width="7.915" height="6.86" x="642.729" y="-112.386" ry="3.43" rx="3.958" font-size="12" fill="#ffc700" stroke-width="1pt" stroke="#000"/><rect width="7.915" height="6.86" x="645.631" y="-109.748" ry="3.43" rx="3.958" font-size="12" fill="#ffc700" stroke-width="1pt" stroke="#000"/><rect width="7.915" height="6.86" x="657.24" y="-129.009" ry="3.43" rx="3.958" font-size="12" fill="#ffc700" stroke-width="1pt" stroke="#000"/><path d="M653.81-142.728c.528-4.222 7.388-3.166 6.861-8.971-1.584-5.805-16.887.528-22.692-.527-7.388-2.639-13.192-11.61-17.413-8.444-4.222 3.166 3.694 4.222 1.055 7.916-2.638 3.693-8.971 26.385 4.749 34.827 13.193 4.749 26.913-20.58 27.44-24.801z" fill="#ffc700" stroke="#000" stroke-width="1pt"/><rect width="7.915" height="6.86" x="661.989" y="-124.787" ry="3.43" rx="3.958" font-size="12" fill="#ffc700" stroke-width="1pt" stroke="#000"/><rect width="7.915" height="6.86" x="660.142" y="-133.23" ry="3.43" rx="3.958" font-size="12" fill="#ffc700" stroke-width="1pt" stroke="#000"/><rect width="7.915" height="6.86" x="664.628" y="-128.745" ry="3.43" rx="3.958" font-size="12" fill="#ffc700" stroke-width="1pt" stroke="#000"/><rect width="7.915" height="6.86" x="635.605" y="-107.637" ry="3.43" rx="3.958" font-size="12" fill="#ffc700" stroke-width="1pt" stroke="#000"/><rect width="7.915" height="6.86" x="638.507" y="-111.859" ry="3.43" rx="3.958" font-size="12" fill="#ffc700" stroke-width="1pt" stroke="#000"/><rect width="7.915" height="6.86" x="642.993" y="-107.373" ry="3.43" rx="3.958" font-size="12" fill="#ffc700" stroke-width="1pt" stroke="#000"/><rect width="7.915" height="6.86" x="665.947" y="-135.341" ry="3.43" rx="3.958" font-size="12" fill="#ffc700" stroke-width="1pt" stroke="#000"/><rect width="7.915" height="6.86" x="658.296" y="-149.853" ry="3.43" rx="3.958" font-size="12" fill="#ffc700" stroke-width="1pt" stroke="#000"/><rect width="7.915" height="6.86" x="661.726" y="-146.686" ry="3.43" rx="3.958" font-size="12" fill="#ffc700" stroke-width="1pt" stroke="#000"/><rect width="7.915" height="6.86" x="654.338" y="-146.95" ry="3.43" rx="3.958" font-size="12" fill="#ffc700" stroke-width="1pt" stroke="#000"/><rect width="7.915" height="6.86" x="657.24" y="-144.312" ry="3.43" rx="3.958" font-size="12" fill="#ffc700" stroke-width="1pt" stroke="#000"/><rect width="7.915" height="6.86" x="665.156" y="-144.048" ry="3.43" rx="3.958" font-size="12" fill="#ffc700" stroke-width="1pt" stroke="#000"/><rect width="7.915" height="6.86" x="661.726" y="-140.09" ry="3.43" rx="3.958" font-size="12" fill="#ffc700" stroke-width="1pt" stroke="#000"/><rect width="7.915" height="6.86" x="330.125" y="-585.821" ry="3.43" rx="3.958" transform="rotate(46.297)" font-size="12" fill="#ffc700" stroke-width="1pt" stroke="#000"/><rect width="7.915" height="6.86" x="337.512" y="-586.612" ry="3.43" rx="3.958" transform="rotate(46.297)" font-size="12" fill="#ffc700" stroke-width="1pt" stroke="#000"/><rect width="7.915" height="6.86" x="334.346" y="-583.182" ry="3.43" rx="3.958" transform="rotate(46.297)" font-size="12" fill="#ffc700" stroke-width="1pt" stroke="#000"/><rect width="7.915" height="6.86" x="343.581" y="-586.612" ry="3.43" rx="3.958" transform="rotate(46.297)" font-size="12" fill="#ffc700" stroke-width="1pt" stroke="#000"/><path d="M585.738-110.54a15.831 8.971 0 1 0-31.661 0 15.831 8.971 0 1 0 31.661 0h-15.831z" transform="matrix(.581 .151 -.089 .342 290.713 -175.852)"/><path d="M585.738-110.54a15.831 8.971 0 1 0-31.661 0 15.831 8.971 0 1 0 31.661 0h-15.831z" transform="matrix(.235 .12 -.076 .134 488.407 -197.202)"/><path d="M585.738-110.54a15.831 8.971 0 1 0-31.661 0 15.831 8.971 0 1 0 31.661 0h-15.831z" transform="matrix(.235 .12 -.076 .134 498.961 -192.981)"/><path d="M585.738-110.54a15.831 8.971 0 1 0-31.661 0 15.831 8.971 0 1 0 31.661 0h-15.831z" transform="matrix(.235 .12 -.076 .134 492.629 -189.815)"/><path d="M585.738-110.54a15.831 8.971 0 1 0-31.661 0 15.831 8.971 0 1 0 31.661 0h-15.831z" transform="matrix(-.132 .229 -.131 -.082 693.64 -272.392)"/></g></g></svg>