<svg width="280mm" height="140mm" xmlns="http://www.w3.org/2000/svg" xmlns:xlink="http://www.w3.org/1999/xlink"><defs><linearGradient id="a"><stop offset="0"/><stop offset="1" stop-color="#fff"/></linearGradient><linearGradient xlink:href="#a"/><linearGradient xlink:href="#a"/><linearGradient xlink:href="#a"/><linearGradient xlink:href="#a"/><linearGradient xlink:href="#a"/><linearGradient xlink:href="#a"/><linearGradient xlink:href="#a"/><linearGradient xlink:href="#a"/><linearGradient xlink:href="#a"/><linearGradient xlink:href="#a"/><linearGradient xlink:href="#a"/><linearGradient xlink:href="#a"/><linearGradient xlink:href="#a"/><linearGradient xlink:href="#a"/><linearGradient xlink:href="#a"/><linearGradient xlink:href="#a"/><linearGradient xlink:href="#a"/><linearGradient xlink:href="#a"/><linearGradient xlink:href="#a"/><linearGradient xlink:href="#a"/><linearGradient xlink:href="#a"/><linearGradient xlink:href="#a"/><linearGradient xlink:href="#a"/><linearGradient xlink:href="#a"/><linearGradient xlink:href="#a"/><linearGradient xlink:href="#a"/><linearGradient xlink:href="#a"/><linearGradient xlink:href="#a"/><linearGradient xlink:href="#a"/><linearGradient xlink:href="#a"/><linearGradient xlink:href="#a"/><linearGradient xlink:href="#a"/><linearGradient xlink:href="#a"/><linearGradient xlink:href="#a"/><linearGradient xlink:href="#a"/><linearGradient xlink:href="#a"/><linearGradient xlink:href="#a"/><linearGradient xlink:href="#a"/><linearGradient xlink:href="#a"/><linearGradient xlink:href="#a"/><linearGradient xlink:href="#a"/><linearGradient xlink:href="#a"/><linearGradient xlink:href="#a"/><linearGradient xlink:href="#a"/><linearGradient xlink:href="#a"/><linearGradient xlink:href="#a"/><linearGradient xlink:href="#a"/><linearGradient xlink:href="#a"/><linearGradient xlink:href="#a"/><linearGradient xlink:href="#a"/><linearGradient xlink:href="#a"/><linearGradient xlink:href="#a"/><linearGradient xlink:href="#a"/><linearGradient xlink:href="#a"/><linearGradient xlink:href="#a"/><linearGradient xlink:href="#a"/><linearGradient xlink:href="#a"/><linearGradient xlink:href="#a"/><linearGradient xlink:href="#a"/><linearGradient xlink:href="#a"/><linearGradient xlink:href="#a"/><linearGradient xlink:href="#a"/></defs><path font-size="12" fill="#006" d="M0 3.937h992.126v496.063h-992.126z"/><g font-size="12"><path d="M0 3.937v27.731l440.602 220.301h55.461v-27.731l-440.602-220.301h-55.461zm496.063 0v27.73l-440.602 220.301h-55.461v-27.732l440.602-220.3h55.461zm-289.37 0v248.032h82.677v-248.032h-82.677zm-206.693 82.677v82.677h496.063v-82.677h-496.063z" fill="#fff"/><path d="M0 103.15v49.606h496.063v-49.606h-496.063zm223.228-99.213v248.032h49.606v-248.032h-49.606zm-223.228 248.032l165.354-82.677h36.974l-165.354 82.677h-36.974zm0-248.032l165.354 82.677h-36.974l-128.38-64.19v-18.487zm293.735 82.677l165.354-82.677h36.974l-165.354 82.677h-36.974zm202.328 165.354l-165.354-82.677h36.974l128.38 64.19v18.487z" fill="#c00"/></g><g fill-rule="evenodd"><rect width="248.031" height="248.032" x="637.795" y="127.953" ry="124.016" rx="124.016" transform="matrix(.992 0 0 .992 0 3.937)" font-size="12" fill="#ffe300"/><path d="M673.261 202.547c5.414-8.702 9.27-7.757 9.779-8.23.509-.473 9.328-.984 14.669-5.009 5.341-4.025 4.89-7.872 4.89-7.872s10.987 4.102 10.595 16.817c-.393 12.715-49.465 35.576-49.304 81.938.16 46.361 49.843 53.121 73.753 51.882 23.91-1.24 25.86-4.498 34.635-5.009 8.775-.511 5.123 8.23 14.261 8.945 9.139.716 10.42.895 9.779 0-.64-.895-6.927-4.128-4.89-4.651 2.037-.524 35.043-8.881 48.897-21.826s13.854-17.226 14.669-17.175c-.815-.051-5.705 4.651-5.705 4.651l13.853-17.89s-8.148 6.108-8.556 5.367c-.408-.741 14.304-23.654 14.26-22.9-.041.754-11.943 10.254-22.48 11.685-10.536 1.431-21.439 1.912-26.314 1.912l13.345-20.753-8.557 3.578s13.811-16.562 14.261-16.817c.451-.255-9.372 4.294-9.372 4.294s4.832-14.082 4.89-13.596c.058.486-9.692 4.766-9.692 4.766s1.95-4.281 1.95-6.198l-9.256 1.917 7.306-6.568c-4.875.498-12.035 2.159-11.497 2.287.538.128 3.667-6.939 3.667-6.939l-9.227 2.658s4.614-8.192 5.152-6.952c.538 1.24-18.511 5.009-17.929 4.651.582-.358 8.149-12.881 8.149-12.881l-11.409 8.587 4.075-12.881-10.187 10.019-.815-8.587s-17.405 13.469-22.819 20.037c-5.414 6.569-4.38 13.507-7.335 16.459-2.954 2.952-19.239 6.121-32.205 20.076-12.967 13.954-20.359 35.384-20.359 35.384s-15.484-6.798-13.447-26.478c2.037-19.679 37.124-54.323 40.34-74.424 3.216-20.101-16.378-29.409-26.078-28.982-4.838.213-14.601.303-24.332 8.881-5.171 4.558-.539 9.022-4.875 12.843-4.337 3.821-.946 13.341-.538 12.983z"/><path d="M690.945 180.391a4.151 3.226 0 1 0-8.302 0 4.151 3.226 0 1 0 8.302 0h-4.151z" transform="matrix(.734 -.679 .334 .35 118.465 582.739)" fill="#fff"/><path d="M690.945 180.391a4.151 3.226 0 1 0-8.302 0 4.151 3.226 0 1 0 8.302 0h-4.151z" transform="matrix(-.152 -.303 .174 -.067 755.827 400.058)"/></g></svg>