<svg width="280mm" height="140mm" xmlns="http://www.w3.org/2000/svg" xmlns:xlink="http://www.w3.org/1999/xlink"><defs><linearGradient id="a"><stop offset="0"/><stop offset="1" stop-color="#fff"/></linearGradient><linearGradient xlink:href="#a"/><linearGradient xlink:href="#a"/><linearGradient xlink:href="#a"/><linearGradient xlink:href="#a"/><linearGradient xlink:href="#a"/><linearGradient xlink:href="#a"/><linearGradient xlink:href="#a"/><linearGradient xlink:href="#a"/><linearGradient xlink:href="#a"/><linearGradient xlink:href="#a"/><linearGradient xlink:href="#a"/><linearGradient xlink:href="#a"/><linearGradient xlink:href="#a"/><linearGradient xlink:href="#a"/><linearGradient xlink:href="#a"/><linearGradient xlink:href="#a"/><linearGradient xlink:href="#a"/><linearGradient xlink:href="#a"/><linearGradient xlink:href="#a"/><linearGradient xlink:href="#a"/><linearGradient xlink:href="#a"/><linearGradient xlink:href="#a"/><linearGradient xlink:href="#a"/><linearGradient xlink:href="#a"/><linearGradient xlink:href="#a"/><linearGradient xlink:href="#a"/><linearGradient xlink:href="#a"/><linearGradient xlink:href="#a"/><linearGradient xlink:href="#a"/><linearGradient xlink:href="#a"/><linearGradient xlink:href="#a"/><linearGradient xlink:href="#a"/><linearGradient xlink:href="#a"/><linearGradient xlink:href="#a"/><linearGradient xlink:href="#a"/><linearGradient xlink:href="#a"/><linearGradient xlink:href="#a"/><linearGradient xlink:href="#a"/><linearGradient xlink:href="#a"/><linearGradient xlink:href="#a"/><linearGradient xlink:href="#a"/><linearGradient xlink:href="#a"/><linearGradient xlink:href="#a"/><linearGradient xlink:href="#a"/><linearGradient xlink:href="#a"/><linearGradient xlink:href="#a"/><linearGradient xlink:href="#a"/><linearGradient xlink:href="#a"/><linearGradient xlink:href="#a"/><linearGradient xlink:href="#a"/><linearGradient xlink:href="#a"/><linearGradient xlink:href="#a"/><linearGradient xlink:href="#a"/><linearGradient xlink:href="#a"/><linearGradient xlink:href="#a"/><linearGradient xlink:href="#a"/><linearGradient xlink:href="#a"/><linearGradient xlink:href="#a"/><linearGradient xlink:href="#a"/><linearGradient xlink:href="#a"/><linearGradient xlink:href="#a"/><linearGradient xlink:href="#a"/></defs><path font-size="12" fill="#006" d="M0 3.937h992.126v496.063h-992.126z"/><g font-size="12"><path d="M0 3.937v27.731l440.602 220.301h55.461v-27.731l-440.602-220.301h-55.461zm496.063 0v27.73l-440.602 220.301h-55.461v-27.732l440.602-220.3h55.461zm-289.37 0v248.032h82.677v-248.032h-82.677zm-206.693 82.677v82.677h496.063v-82.677h-496.063z" fill="#fff"/><path d="M0 103.15v49.606h496.063v-49.606h-496.063zm223.228-99.213v248.032h49.606v-248.032h-49.606zm-223.228 248.032l165.354-82.677h36.974l-165.354 82.677h-36.974zm0-248.032l165.354 82.677h-36.974l-128.38-64.19v-18.487zm293.735 82.677l165.354-82.677h36.974l-165.354 82.677h-36.974zm202.328 165.354l-165.354-82.677h36.974l128.38 64.19v18.487z" fill="#c00"/></g><g fill-rule="evenodd"><rect width="248.031" height="248.032" x="637.795" y="127.953" ry="124.016" rx="124.016" transform="matrix(.992 0 0 .992 0 3.937)" font-size="12" fill="#fff"/><path d="M646.616 219.492l16.948 38.403-16.948 38.403 110.165-38.403-110.165-38.403zm219.866 0l-16.948 38.403 16.948 38.403-110.165-38.403 110.165-38.403zm-71.512-71.696l-38.409 16.937-38.409-16.937 38.409 110.09 38.409-110.09zm0 220.198l-38.409-16.937-38.409 16.937 38.409-110.09 38.409 110.09z" fill="#3d7de1"/><path d="M541.459 1173.31l-1.698-229.143-61.104-106.934c-15.277-52.618-7.754-78.079 16.973-79.776 24.728-1.698 49.224 13.579 84.868 15.276 35.645 1.697 28.856-59.408 81.474-57.71 52.618 1.697 144.276 32.25 222.355 37.342 78.078 5.092 118.813-27.158 208.773-30.553 89.97-3.395 113.73 42.435 118.82 42.435 5.09 0 30.55-18.672 56.01-22.066 25.46-3.395 33.95 10.184 33.95 10.184s-1.7 57.71-13.58 91.657c-11.88 33.948-54.32 89.961-56.01 89.961-1.7 0-15.28 249.517-15.28 251.207 0 1.7-675.551-6.79-675.551-11.88z" fill="#c00" stroke="#000" stroke-width="1pt" transform="matrix(.093 0 0 .099 674.558 167.749)"/><g stroke="#000" stroke-width="1pt"><path d="M790.698 260.659s6.322-5.158 6.493-17.539c.098-7.121-3.197-12.277-11.436-12.277-11.533 0-28.01 5.262-28.01 5.262v1.754s13.181-5.262 28.01-5.262c6.591 0 9.886 5.157 9.886 10.418 0 8.77-6.591 17.645-6.591 17.645v14.031h1.648v-14.031z" fill="#fff100"/><path d="M478.346 549.213a17.717 17.717 0 1 0-35.433 0 17.716 17.717 0 1 0 35.433 0h-17.716z" transform="matrix(-.093 0 0 .099 837.832 202.66)" fill="#fff"/><path d="M478.346 549.213a17.717 17.717 0 1 0-35.433 0 17.716 17.717 0 1 0 35.433 0h-17.716z" transform="matrix(-.093 0 0 .099 839.48 198.648)" fill="#fff"/><path d="M478.346 549.213a17.717 17.717 0 1 0-35.433 0 17.716 17.717 0 1 0 35.433 0h-17.716z" transform="matrix(-.093 0 0 .099 840.338 194.562)" fill="#fff"/><path d="M478.346 549.213a17.717 17.717 0 1 0-35.433 0 17.716 17.717 0 1 0 35.433 0h-17.716z" transform="matrix(-.093 0 0 .099 840.97 190.193)" fill="#fff"/><path d="M478.346 549.213a17.717 17.717 0 1 0-35.433 0 17.716 17.717 0 1 0 35.433 0h-17.716z" transform="matrix(-.093 0 0 .099 840.812 185.457)" fill="#fff"/><path d="M478.346 549.213a17.717 17.717 0 1 0-35.433 0 17.716 17.717 0 1 0 35.433 0h-17.716z" transform="matrix(-.093 0 0 .099 835.464 206.189)" fill="#fff"/><path d="M478.346 549.213a17.717 17.717 0 1 0-35.433 0 17.716 17.717 0 1 0 35.433 0h-17.716z" transform="matrix(-.093 0 0 .099 839.411 180.983)" fill="#fff"/><path d="M478.346 549.213a17.717 17.717 0 1 0-35.433 0 17.716 17.717 0 1 0 35.433 0h-17.716z" transform="matrix(-.093 0 0 .099 836.412 177.454)" fill="#fff"/><path d="M478.346 549.213a17.717 17.717 0 1 0-35.433 0 17.716 17.717 0 1 0 35.433 0h-17.716z" transform="matrix(-.093 0 0 .099 832.307 175.102)" fill="#fff"/><path d="M478.346 549.213a17.717 17.717 0 1 0-35.433 0 17.716 17.717 0 1 0 35.433 0h-17.716z" transform="matrix(-.093 0 0 .099 828.203 174.765)" fill="#fff"/><path d="M478.346 549.213a17.717 17.717 0 1 0-35.433 0 17.716 17.717 0 1 0 35.433 0h-17.716z" transform="matrix(-.093 0 0 .099 823.783 174.934)" fill="#fff"/><path d="M478.346 549.213a17.717 17.717 0 1 0-35.433 0 17.716 17.717 0 1 0 35.433 0h-17.716z" transform="matrix(-.093 0 0 .099 819.363 175.606)" fill="#fff"/><path d="M478.346 549.213a17.717 17.717 0 1 0-35.433 0 17.716 17.717 0 1 0 35.433 0h-17.716z" transform="matrix(-.093 0 0 .099 814.943 176.278)" fill="#fff"/><path d="M478.346 549.213a17.717 17.717 0 1 0-35.433 0 17.716 17.717 0 1 0 35.433 0h-17.716z" transform="matrix(-.093 0 0 .099 810.208 177.118)" fill="#fff"/><path d="M478.346 549.213a17.717 17.717 0 1 0-35.433 0 17.716 17.717 0 1 0 35.433 0h-17.716z" transform="matrix(-.093 0 0 .099 806.103 178.294)" fill="#fff"/></g><path d="M478.346 549.213a17.717 17.717 0 1 0-35.433 0 17.716 17.717 0 1 0 35.433 0h-17.716z" transform="matrix(.093 0 0 .099 676.048 202.66)" font-size="12" fill="#fff" stroke="#000" stroke-width="1pt"/><path d="M478.346 549.213a17.717 17.717 0 1 0-35.433 0 17.716 17.717 0 1 0 35.433 0h-17.716z" transform="matrix(.093 0 0 .099 674.4 198.648)" font-size="12" fill="#fff" stroke="#000" stroke-width="1pt"/><path d="M478.346 549.213a17.717 17.717 0 1 0-35.433 0 17.716 17.717 0 1 0 35.433 0h-17.716z" transform="matrix(.093 0 0 .099 673.542 194.562)" font-size="12" fill="#fff" stroke="#000" stroke-width="1pt"/><path d="M478.346 549.213a17.717 17.717 0 1 0-35.433 0 17.716 17.717 0 1 0 35.433 0h-17.716z" transform="matrix(.093 0 0 .099 672.91 190.193)" font-size="12" fill="#fff" stroke="#000" stroke-width="1pt"/><path d="M478.346 549.213a17.717 17.717 0 1 0-35.433 0 17.716 17.717 0 1 0 35.433 0h-17.716z" transform="matrix(.093 0 0 .099 673.068 185.456)" font-size="12" fill="#fff" stroke="#000" stroke-width="1pt"/><path d="M478.346 549.213a17.717 17.717 0 1 0-35.433 0 17.716 17.717 0 1 0 35.433 0h-17.716z" transform="matrix(.093 0 0 .099 674.469 180.983)" font-size="12" fill="#fff" stroke="#000" stroke-width="1pt"/><path d="M478.346 549.213a17.717 17.717 0 1 0-35.433 0 17.716 17.717 0 1 0 35.433 0h-17.716z" transform="matrix(.093 0 0 .099 677.468 177.454)" font-size="12" fill="#fff" stroke="#000" stroke-width="1pt"/><path d="M478.346 549.213a17.717 17.717 0 1 0-35.433 0 17.716 17.717 0 1 0 35.433 0h-17.716z" transform="matrix(.093 0 0 .099 681.573 175.101)" font-size="12" fill="#fff" stroke="#000" stroke-width="1pt"/><path d="M478.346 549.213a17.717 17.717 0 1 0-35.433 0 17.716 17.717 0 1 0 35.433 0h-17.716z" transform="matrix(.093 0 0 .099 685.677 174.765)" font-size="12" fill="#fff" stroke="#000" stroke-width="1pt"/><path d="M478.346 549.213a17.717 17.717 0 1 0-35.433 0 17.716 17.717 0 1 0 35.433 0h-17.716z" transform="matrix(.093 0 0 .099 690.097 174.933)" font-size="12" fill="#fff" stroke="#000" stroke-width="1pt"/><path d="M478.346 549.213a17.717 17.717 0 1 0-35.433 0 17.716 17.717 0 1 0 35.433 0h-17.716z" transform="matrix(.093 0 0 .099 694.517 175.605)" font-size="12" fill="#fff" stroke="#000" stroke-width="1pt"/><path d="M478.346 549.213a17.717 17.717 0 1 0-35.433 0 17.716 17.717 0 1 0 35.433 0h-17.716z" transform="matrix(.093 0 0 .099 698.937 176.278)" font-size="12" fill="#fff" stroke="#000" stroke-width="1pt"/><path d="M478.346 549.213a17.717 17.717 0 1 0-35.433 0 17.716 17.717 0 1 0 35.433 0h-17.716z" transform="matrix(.093 0 0 .099 703.672 177.118)" font-size="12" fill="#fff" stroke="#000" stroke-width="1pt"/><path d="M478.346 549.213a17.717 17.717 0 1 0-35.433 0 17.716 17.717 0 1 0 35.433 0h-17.716z" transform="matrix(.093 0 0 .099 707.776 178.294)" font-size="12" fill="#fff" stroke="#000" stroke-width="1pt"/><path d="M478.346 549.213a17.717 17.717 0 1 0-35.433 0 17.716 17.717 0 1 0 35.433 0h-17.716z" transform="matrix(.093 0 0 .099 678.416 206.189)" font-size="12" fill="#fff" stroke="#000" stroke-width="1pt"/><path d="M531.496 584.646s-67.982-52.097-69.813-177.166c-1.053-71.929 34.38-124.015 122.963-124.015 124.015 0 301.181 53.149 301.181 53.149v17.717s-141.732-53.15-301.181-53.15c-70.866 0-106.3 52.087-106.3 105.236 0 88.583 70.867 178.229 70.867 178.229v141.732h-17.717v-141.732z" transform="matrix(.093 0 0 .099 674.558 202.828)" font-size="12" fill="#fff100" stroke="#000" stroke-width="1pt"/><path d="M1240.16 531.496s15.35-35.433 70.86-35.433c37.79 0 70.87 35.433 70.87 70.866v70.866h35.43v-70.866c0-35.47 35.44-70.866 70.87-70.866 53.15 0 70.87 35.433 70.87 35.433s0-106.299-70.87-106.299c-53.15 0-70.87 35.433-70.87 35.433s17.72-53.15 17.72-106.299c0-53.15-35.43-88.583-35.43-88.583 0 6.79-35.44 35.433-35.44 88.583 0 53.149 17.72 106.299 17.72 106.299s-17.72-35.433-70.87-35.433c-70.86 0-70.86 106.299-70.86 106.299z" transform="matrix(.031 0 0 .038 697.076 247.177)" fill="#fff100" stroke="#000" stroke-width="2.991"/><path d="M1240.16 531.496s15.35-35.433 70.86-35.433c37.79 0 70.87 35.433 70.87 70.866v70.866h35.43v-70.866c0-35.47 35.44-70.866 70.87-70.866 53.15 0 70.87 35.433 70.87 35.433s0-106.299-70.87-106.299c-53.15 0-70.87 35.433-70.87 35.433s17.72-53.15 17.72-106.299c0-53.15-35.43-88.583-35.43-88.583 0 6.79-35.44 35.433-35.44 88.583 0 53.149 17.72 106.299 17.72 106.299s-17.72-35.433-70.87-35.433c-70.86 0-70.86 106.299-70.86 106.299z" transform="matrix(.031 0 0 .038 730.029 247.177)" fill="#fff100" stroke="#000" stroke-width="2.991"/><path d="M531.496 832.677v-159.449s35.433 53.15 88.583 53.15c43.489 0 88.582-70.866 88.582-70.866s41.515 53.149 88.583 53.149c42.021 0 88.516-68.572 88.516-68.572s43.207 68.572 88.649 68.572c45.441 0 88.581-53.149 88.581-53.149s46.29 70.866 106.3 70.866c53.15 0 70.87-53.15 70.87-53.15v159.449h-708.664z" transform="matrix(.093 0 0 .099 674.558 202.828)" fill="#fff100" stroke="#000" stroke-width="1pt"/><path d="M708.661 832.677v-124.016s106.3 35.433 106.3 124.016h-106.3z" transform="matrix(.093 0 0 .099 658.082 202.828)" fill="#fff100" stroke="#000" stroke-width="1pt"/><path d="M708.661 832.677v-124.016s106.3 35.433 106.3 124.016h-106.3z" transform="matrix(-.093 0 0 .099 855.798 202.828)" fill="#fff100" stroke="#000" stroke-width="1pt"/><path d="M602.362 832.677c0-88.583 106.366-144.599 106.366-144.599s106.233 56.016 106.233 144.599h-212.599z" transform="matrix(.093 0 0 .099 674.558 202.828)" fill="#fff100" stroke="#000" stroke-width="1pt"/><path d="M602.362 832.677c0-88.583 106.366-144.599 106.366-144.599s106.233 56.016 106.233 144.599h-212.599z" transform="matrix(.093 0 0 .099 707.511 202.828)" fill="#fff100" stroke="#000" stroke-width="1pt"/><path d="M584.646 847.527c0-88.583 124.082-159.449 124.082-159.449s123.949 70.866 123.949 159.449h-248.031z" transform="matrix(.093 0 0 .099 691.034 201.358)" fill="#fff100" stroke="#000" stroke-width="1pt"/><path d="M1275.59 655.512c-35.43-17.716-166.02-35.433-376.275-35.433-210.26 0-350.101 17.717-385.534 35.433-35.434 17.717-35.434 53.149-.001 70.866 35.433 17.716 175.275 35.433 385.535 35.433 210.255 0 340.845-17.716 376.275-35.433 35.43-17.716 35.43-53.149 0-70.866z" transform="matrix(.092 0 0 .099 674.243 220.367)" font-size="12" fill="#fff" stroke-width="1pt" stroke="#000"/><path d="M790.742 292.162c0 3.508-27.613 3.508-33.198 3.508-6.035 0-33.198.951-33.198-3.508 0-3.508 27.388-3.508 33.198-3.508 5.81 0 33.198.713 33.198 3.508z" font-size="12" fill="#808080"/><path d="M566.929 776.277a17.717 20.967 0 1 0-35.433 0 17.717 20.967 0 1 0 35.433 0h-17.716z" transform="matrix(.093 0 0 .099 674.558 202.828)" fill="#c00"/><path d="M566.929 776.277a17.717 20.967 0 1 0-35.433 0 17.717 20.967 0 1 0 35.433 0h-17.716z" transform="matrix(.093 0 0 .099 737.168 202.828)" fill="#c00"/><path d="M566.929 776.277a17.717 20.967 0 1 0-35.433 0 17.717 20.967 0 1 0 35.433 0h-17.716z" transform="matrix(.186 0 0 .099 654.786 201.717)"/><path d="M566.929 776.277a17.717 20.967 0 1 0-35.433 0 17.717 20.967 0 1 0 35.433 0h-17.716z" transform="matrix(.14 0 0 .099 696.955 201.717)" fill="#006300"/><path d="M566.929 776.277a17.717 20.967 0 1 0-35.433 0 17.717 20.967 0 1 0 35.433 0h-17.716z" transform="matrix(.14 0 0 .099 663.024 201.717)" fill="#006300"/><path d="M1257.87 496.063s35.44-53.15 70.87-53.15h35.43v35.433c0 53.15-53.15 70.867-53.15 70.867h141.74s-53.15-17.717-53.15-70.867v-35.433h35.43c35.43 0 70.87 53.15 70.87 53.15v-141.732s-35.44 53.15-70.87 53.15h-35.43v-35.433c0-53.15 53.15-70.867 53.15-70.867h-141.74s53.15 17.717 53.15 70.867v35.433h-35.43c-35.43 0-70.87-53.15-70.87-53.15v141.732z" transform="matrix(.053 0 0 .057 683.505 238.408)" font-size="12" fill="#fff100" stroke="#000" stroke-width="2.188"/><path d="M1381.89 549.212l70.87.001s-53.15-17.717-53.15-70.867v-35.433h35.43c35.43 0 70.87 53.15 70.87 53.15v-141.732s-35.44 53.15-70.87 53.15h-35.43v-35.433c0-53.15 53.15-70.867 53.15-70.867h-70.87v248.031z" transform="matrix(.027 0 0 .05 687.269 245.799)" font-size="12" fill="#fff100" stroke="#000" stroke-width="3.307"/><path d="M1381.89 549.212l70.87.001s-53.15-17.717-53.15-70.867v-35.433h35.43c35.43 0 70.87 53.15 70.87 53.15v-141.732s-35.44 53.15-70.87 53.15h-35.43v-35.433c0-53.15 53.15-70.867 53.15-70.867h-70.87v248.031z" transform="matrix(-.027 0 0 .05 826.61 245.799)" font-size="12" fill="#fff100" stroke="#000" stroke-width="3.307"/><path d="M903.543 602.362a17.717 17.717 0 1 0-35.433 0 17.717 17.716 0 1 0 35.433 0h-17.716z" transform="matrix(.093 0 0 .099 674.558 202.828)" stroke="#000" fill="#fff" stroke-width="1pt"/><path d="M1257.87 496.063s35.44-53.15 70.87-53.15h35.43v35.433c0 53.15-53.15 70.867-53.15 70.867h141.74s-53.15-17.717-53.15-70.867v-35.433h35.43c35.43 0 70.87 53.15 70.87 53.15v-141.732s-35.44 53.15-70.87 53.15h-35.43v-35.433c0-53.15 53.15-70.867 53.15-70.867h-141.74s53.15 17.717 53.15 70.867v35.433h-35.43c-35.43 0-70.87-53.15-70.87-53.15v141.732z" transform="matrix(.053 0 0 .057 683.505 201.575)" font-size="12" fill="#fff100" stroke="#000" stroke-width="2.188"/><path d="M903.543 602.362a17.717 17.717 0 1 0-35.433 0 17.717 17.716 0 1 0 35.433 0h-17.716z" transform="matrix(.093 0 0 .099 674.716 166.289)" stroke="#000" fill="#fff" stroke-width="1pt"/><path font-size="12" fill="#fff100" stroke-width="1pt" stroke="#000" d="M850.393 655.512h70.866v53.15h-70.866zm.001 27.785h70.866v202.53h-70.866z" transform="matrix(.093 0 0 .099 674.558 167.749)"/><path d="M478.346 549.213a17.717 17.717 0 1 0-35.433 0 17.716 17.717 0 1 0 35.433 0h-17.716z" transform="matrix(.093 0 0 .099 714.101 197.566)" font-size="12" fill="#fff" stroke="#000" stroke-width="1pt"/><path d="M478.346 549.213a17.717 17.717 0 1 0-35.433 0 17.716 17.717 0 1 0 35.433 0h-17.716z" transform="matrix(.093 0 0 .099 714.101 193.029)" font-size="12" fill="#fff" stroke="#000" stroke-width="1pt"/><path d="M478.346 549.213a17.717 17.717 0 1 0-35.433 0 17.716 17.717 0 1 0 35.433 0h-17.716z" transform="matrix(.093 0 0 .099 714.101 188.796)" font-size="12" fill="#fff" stroke="#000" stroke-width="1pt"/><path d="M478.346 549.213a17.717 17.717 0 1 0-35.433 0 17.716 17.717 0 1 0 35.433 0h-17.716z" transform="matrix(.093 0 0 .099 714.101 184.427)" font-size="12" fill="#fff" stroke="#000" stroke-width="1pt"/><path d="M614.511 1201.791a36.007 14.403 0 1 0-72.013 0 36.007 14.403 0 1 0 72.013-.001l-36.006.001z" transform="matrix(.093 0 0 .099 703.291 166.323)"/><path d="M614.511 1201.791a36.007 14.403 0 1 0-72.013 0 36.007 14.403 0 1 0 72.013-.001l-36.006.001z" transform="matrix(.092 .024 -.023 .068 762.328 192.247)"/><path d="M614.511 1201.791a36.007 14.403 0 1 0-72.013 0 36.007 14.403 0 1 0 72.013-.001l-36.006.001z" transform="matrix(.095 .008 -.009 .087 730.943 176.779)"/><path d="M614.511 1201.791a36.007 14.403 0 1 0-72.013 0 36.007 14.403 0 1 0 72.013-.001l-36.006.001z" transform="matrix(-.092 .024 .023 .068 750.817 192.247)"/><path d="M614.511 1201.791a36.007 14.403 0 1 0-72.013 0 36.007 14.403 0 1 0 72.013-.001l-36.006.001z" transform="matrix(-.095 .008 .009 .087 782.834 176.443)"/></g></svg>