<svg width="1000" height="500" xmlns="http://www.w3.org/2000/svg"><path font-size="12" fill="#fff" fill-rule="evenodd" d="M0 0h1000v500h-1000z"/><path font-size="12" stroke-width="1.25" stroke="#000" d="M0 0h1000v500h-1000z" fill="none"/><path d="M30 50v170h310l-310-170zm370 140v-160h-290l290 160zm-370 90v170l310-170h-310zm370 30v160h-290l290-160z" fill="#21219c" fill-rule="evenodd" stroke="#21219c"/><g fill-rule="evenodd"><path d="M460 30v170l510-170h-510z" fill="#c00" stroke="#c00"/><path d="M480 50v125l370-125h-370z" fill="#fff" stroke="#fff"/><path d="M460 300v170h510l-510-170z" fill="#c00" stroke="#d62929"/><path d="M480 330v120h370l-370-120z" fill="#fff" stroke="#fff"/><path d="M460 220h490l25 30-25 30h-490l30-30-30-30z" fill="#c00" stroke="#c00"/><path d="M490 230h450l20 20-20 20h-450l20-20-20-20z" fill="#ff0" stroke="#ff0"/></g></svg>