<svg width="210mm" height="140mm" xmlns="http://www.w3.org/2000/svg"><path font-size="12" fill="#006" fill-rule="evenodd" d="M0 0h744v218h-744z"/><path font-size="12" fill="#fff" fill-rule="evenodd" d="M0 218h744v273.467h-744z"/><path d="M744.094 0v24.506l-658.263 193.251-85.831 1.434v-23.594l657.865-195.597h86.229zm-744.094 0v24.506l659.05 194.611 85.044.074v-24.506l-658.216-194.684h-85.879zm325.059 0l-4.086 219.191h86.005l.681-219.191h-82.599zm-325.059 73.064v73.064h744.094v-73.064h-744.094z" font-size="12" fill="#fff"/><path d="M338.486 0v219.191h53.742l2.044-219.191h-55.786zm-338.486 87.676v43.838h744.094v-43.838h-744.094zm-1.448 131.232l251.857-73.064 52.13 1.36-247.399 71.306-56.588.397zm1.82-218.909l245.54 73.743-51.741-.961-194.172-60.768.372-12.014zm439.728 73.064l245.896-73.064h58.558l-249.955 75.103-54.499-2.039zm304.93 146.881l-241.894-72.74 46.787-1.36 194.171 57.969.935 16.13z" font-size="12" fill="#c00"/><path d="M322.219 109.945l-9.517-19.034 19.373 14.956 7.138-20.394 16.315 17.335 10.537-19.714 12.916 19.714 14.955-16.995s6.118 19.374 6.118 19.034c0-.34 19.374-15.295 19.374-15.295l-7.478 20.733-4.758 12.916c-25.605 7.138-54.61 7.274-78.855 0l-6.118-13.255z" fill="#ffd600" fill-rule="evenodd" stroke="#000" stroke-width="1.24" stroke-linejoin="round" stroke-linecap="round"/><path d="M322.558 110.284c29.004-9.29 61.067-9.403 89.052-.339l-5.098 12.236c-23.339-5.983-57.215-5.983-78.175 1.019l-5.779-12.916z" stroke="#000" stroke-width="1pt" stroke-linejoin="round" stroke-linecap="round" fill="none"/><path d="M352.129 111.984a6.798 4.758 0 1 0-13.596 0 6.798 4.758 0 1 0 13.596 0h-6.798z" transform="matrix(.838 0 0 .754 57.004 26.824)" stroke="#000" stroke-width="1.24" fill="none"/><path d="M372.047 110.454a5.71 3.909 0 1 0-11.421 0 5.71 3.909 0 1 0 11.421 0h-5.71z" transform="matrix(1 0 0 .894 .689 11.827)" stroke="#000" stroke-width="1.24" fill="none"/><path d="M393.596 111.814a5.608 4.589 0 1 0-11.216 0 5.608 4.589 0 1 0 11.216 0h-5.608z" transform="matrix(.852 0 0 .82 56.41 19.747)" stroke="#000" stroke-width="1.24" fill="none"/><path d="M406.398 123.778a5.438 6.356 0 1 1 3.194-12.147l-1.721 6.029z" transform="matrix(1.025 0 0 .703 -10.024 33.255)" font-size="12" stroke="#000" stroke-width="1.232" fill="none"/><path d="M412.99 115.511a5.438 6.356 0 0 1-10.176 4.484l5.058-2.335z" transform="matrix(0 -.844 .892 0 220.757 461.025)" font-size="12" stroke-width="1.318" stroke="#000" fill="none"/><path d="M744.094 254.761c-5.701 4.356-23.244 8.357-33.647 7.691-29.685-1.838-55.996-21.325-83.639-21.15-22.989.145-45.292 22.111-68.256 22.111-27.988 0-55.453-22.111-84.6-22.111-15.382 0-48.113 21.147-63.45 22.111-13.395 1.682-66.335-22.111-85.562-21.15-22.164 1.167-42.037 20.048-63.449 20.189-27.297.18-58.197-19.401-85.562-19.227-22.947.146-42.465 20.331-65.372 20.188-28.365-.177-59.032-20.257-85.562-21.15-7.827.02-18.982 4.819-24.995 8.653v34.609c3.291 4.081 17.525-7.718 25.957-6.73 27.139 3.178 58.454 21.981 85.561 22.112 29.933-.818 40.262-21.436 62.489-21.151 27.764.356 56.012 23.261 83.638 21.15 26.129-1.923 45.973-21.15 69.218-21.15 27.707 0 56.005 21.15 83.639 21.15 21.716 0 42.705-21.15 64.411-21.15 27.323 0 55.37 22.206 82.677 21.15 34.522-1.26 42.372-21.656 66.334-22.111 26.67-.506 49.016 20.08 85.561 19.227 10.627.031 26.803-4.526 34.609-8.652v-34.609zm0 73.063c-5.701 4.356-22.283 10.28-32.686 9.614-29.685-1.838-55.996-21.325-83.639-21.15-22.989.145-45.292 22.111-68.256 22.111-27.988 0-55.453-22.111-84.6-22.111-15.382 0-48.113 21.147-63.45 22.111-13.395 1.682-66.335-22.111-85.562-21.15-22.164 1.167-42.037 20.048-63.449 20.189-27.297.18-58.197-19.401-85.562-19.227-22.947.146-42.465 20.331-65.372 20.188-28.365-.177-59.032-20.257-85.562-21.15-7.827.02-19.944 3.857-25.957 7.691v36.532c3.291 4.081 18.486-8.679 26.918-7.691 27.139 3.178 58.454 21.981 85.561 22.112 29.933-.818 40.262-21.436 62.489-21.151 27.764.356 56.012 23.261 83.638 21.15 26.129-1.923 45.973-21.15 69.218-21.15 27.707 0 56.005 21.15 83.639 21.15 21.716 0 42.705-21.15 64.411-21.15 27.323 0 55.37 22.206 82.677 21.15 34.522-1.26 42.372-21.656 66.334-22.111 26.67-.506 49.016 20.08 85.561 19.227 10.627.031 25.842-5.487 33.648-9.613-.411-10.179 0-21.922 0-35.571zm0 73.064c-5.701 4.356-25.167 11.241-35.57 10.575-29.685-1.838-55.996-21.325-83.639-21.15-22.989.145-45.292 22.111-68.256 22.111-27.988 0-55.453-22.111-84.6-22.111-15.382 0-48.113 21.147-63.45 22.111-13.395 1.682-66.335-22.111-85.562-21.15-22.164 1.167-42.037 20.048-63.449 20.189-27.297.18-58.197-19.401-85.562-19.227-22.947.146-42.465 20.331-65.372 20.188-28.365-.177-59.032-20.257-85.562-21.15-7.827.02-17.06 2.896-23.073 6.73v36.532c3.291 4.081 15.602-7.718 24.034-6.73 27.139 3.178 58.454 21.981 85.561 22.112 29.933-.818 40.262-21.436 62.489-21.151 27.764.356 56.012 23.261 83.638 21.15 26.129-1.923 45.973-21.15 69.218-21.15 27.707 0 56.005 21.15 83.639 21.15 21.716 0 42.705-21.15 64.411-21.15 27.323 0 55.37 22.206 82.677 21.15 34.522-1.26 42.372-21.656 66.334-22.111 26.67-.506 49.016 20.08 85.561 19.227 10.627.031 28.726-5.487 36.532-9.613v-36.532zm0 74.025c-5.701 4.356-22.283 11.241-32.686 10.575-29.685-1.838-55.996-21.325-83.639-21.15-22.989.145-45.292 22.111-68.256 22.111-27.988 0-55.453-22.111-84.6-22.111-15.382 0-48.113 21.147-63.45 22.111-13.395 1.682-66.335-22.111-85.562-21.15-22.164 1.167-42.037 20.048-63.449 20.189-27.297.18-58.197-19.401-85.562-19.227-22.947.146-42.465 20.331-65.372 20.188-28.365-.177-59.032-20.257-85.562-21.15-7.827.02-19.944 6.741-25.957 10.575v20.189h744.094v-21.15z" fill="#006" fill-rule="evenodd"/><path d="M56.72 496.063c-18.725-10.065-23.918-30.14-57.682-58.643 19.664 3.187 37.992 6.725 44.223 15.382 14.599 11.532 13.976 22.65 21.15 32.686 5.324 4.384 13.981 1.092 21.15 2.884 8.213 2.053 15.848 5.644 24.034 7.691 5.625 0 16.643 0 11.441.93-13.48-17.607-38.217-40.495-58.547-61.496-8.831-9.122-32.611-30.891-25.957-27.879 23.789 10.768 98.933 62.421 117.286 69.218 7.604 2.816-26.277-26.918-39.416-40.377 0 0-.961-5.769-.961-6.73 0-.961-9.614-7.691-9.614-7.691-12.498-17.304-35.324-43.018-37.493-51.913 10.501-2.321 20.851 5.739 27.879 12.497 22.133 15.994 14.93 27.286 22.112 35.571 10.764 10.301 47.47 28.169 60.566 40.377-2.521-17.015-75.888-113.641-72.103-118.248 3.586-4.365 70.392 71.839 94.214 91.33 4.378 3.582-5.5-15.314-9.614-22.112-3.256-5.38-10.147-8.618-12.497-14.42-17.518-25.282-8.454-43.199-18.266-61.527-7.172-13.396-27.399-21.632-32.687-33.648 32.206 5.287 51.17 59.928 55.759 73.064 20.086 13.462 35.998 42.518 48.069 46.145 1.068-17.727-47.269-121.931-43.262-125.938 3.683-3.684 54.834 90.168 69.218 104.788.357-27.438-9.163-30.642-10.575-45.184-1.793-18.465.31-37.459-1.922-55.759-9.625-13.746.528-21.495-21.15-33.648 12.385-3.549 31.479 20.344 29.802 34.61 4.561 10.089 7.586 26.915 1.923 35.57 5.983 16.02 18.933 29.67 26.918 45.184 3.231 6.277 5.917 22.277 6.729 20.188 1.431-3.68.513-25.018 0-37.493-.449-10.918-1.923-21.791-2.884-32.686 0 0-8.652-33.647-4.807-46.145-2.884-7.691-5.768-24.035-5.768-24.035 10.575 10.896 35.076 105.882 49.03 130.746 8.478-10.764 7.85-24.973 3.845-36.532-10.495-28.478-3.626-43.594.962-68.257 1.602-10.466.12-21.508-1.923-31.725-1.161-5.806-10.468-16.507-7.691-16.343 12.399 1.75 19.794 28.217 23.073 43.261 2.169 9.951-8.414 21.408-6.73 31.725 3.443 21.087 14.499 49.103 22.111 62.489 1.682 2.957 5.318-9.172 5.769-13.459.19-1.802-4.066-2.831-3.846-4.807 2.023-18.213 6.57-37.022 10.575-55.759-1.12-14.911-.75-48.379.962-48.068 1.813.33 7.655 33.184 9.613 49.991 1.887 16.2 2.245 34.027 1.923 49.029 1.604 9.994 7.338 30.459 10.575 28.841 4.454-2.227 5.853-32.574 12.498-42.3-1.197-13.988 4.948-24.217 9.613-37.493.783-12.681-5.052-25.986-4.807-38.454 1.999-11.566 5.893-21.563 15.382-24.996-1.157 6.958-3.549 16.7-10.575 24.996 6.947 19.191 11.262 37.242 11.537 55.759 1.224 18.657-7.512 22.645-9.614 38.454-1.332 8.8 2.203 28.562 4.806 23.073 12.138-25.595 28.245-90.258 39.417-116.325 2.287-5.337 4.535 10.613 0 25.957 9.662 23.431-6.817 47.754-7.691 71.14-.408 10.902 1.751 22.915 3.845 31.725 4.636-15.54 17.305-25.269 24.996-38.454 5.768-9.888 12.177-19.899 15.381-30.764 4.167-14.13 2.507-30.381 6.73-44.222 1.546-5.066 9.784-15.311 10.575-12.498 2.093 7.441-1.282 28.841-1.923 43.261-5.768 18.266-21.15 53.837-21.15 54.798 0 .961-4.807 36.532-4.807 36.532 23.714-35.57 66.713-109.557 71.141-106.711 4.545 2.922-36.141 88.132-43.261 120.17 8.402-5.12 12.704-2.796 18.266-7.691 10.461-9.205 21.469-19.023 28.841-30.764 9.932-15.818 13.297-36.227 23.072-51.913 4.004-6.426 19.015-17.887 18.266-14.421-1.814 8.39-19.674 32.659-25.957 49.991-3.01 8.304 2.156 19.551-1.922 26.918-5.856 10.579-21.385 16.486-27.88 26.918-4.08 6.552-8.406 27.387-3.845 24.035 22.037-16.196 58.804-62.411 83.638-82.678 3.045-2.485 1.978 10.267 0 14.421-4.431 9.305-12.818 17.305-19.227 25.957 0 0-29.802 49.99-29.802 49.029 0-.961-14.421 11.536-14.421 11.536 3.525 1.602 7.275 6.261 10.575 4.807 11.761-15.53 29.931-23.436 46.146-29.802 11.665-10.618 18.424-26.371 28.841-38.455 5.606-6.503 18.266-18.105 19.227-17.304.962.801 3.07 15.085-13.459 22.111-11.351 25.019-19.564 39.972-38.455 50.953-2.58 4.08-.228 10.547-2.884 14.42-5.035 7.343-25.395 22.094-20.188 19.227 23.314-12.836 70.499-44.223 105.749-66.334 0 0-3.845 14.421-22.111 28.841-15.382 12.497-60.566 52.875-60.566 52.875 8.011-.641 16.256 0 24.996 0 11.769-2.701 22.232-3.694 32.686-9.614 15.183-15.872 27.239-28.199 45.184-33.647 0 0 24.034-11.537 24.034-10.575-8.652 5.768-48.068 35.571-47.107 39.416-4.166 5.768-5.479 14.241-12.497 14.42h-626.809z" fill="#ffd600" fill-rule="evenodd"/></svg>