<svg xmlns="http://www.w3.org/2000/svg" version="1" width="744.094" height="496.063"><path font-size="12" fill="#fff" fill-rule="evenodd" d="M0 0h744.094v496.063h-744.094z"/><path d="M0 496.063v-53.15l655.512-442.913h88.583v53.15l-655.512 442.913h-88.583zm744.095 0v-53.15l-655.512-442.913h-88.583v53.15l655.512 442.913h88.583z" font-size="12" fill="#357dda" fill-rule="evenodd"/><g transform="matrix(1 0 0 .976 0 2.543)" font-size="12" stroke="#000"><path d="M253.708 106.718v162.511c0 91.739 121.377 117.056 121.377 117.056s121.375-25.317 121.375-117.056v-162.511h-242.752z" fill="#fedf00" fill-rule="evenodd"/><path d="M371.35 365.783l-1.867 7.455 3.735-3.728 1.867 3.728 1.867-3.728 3.735 3.728-1.867-7.455h-7.469zm100.005-234.008s-.14-9.878 0-13.254c0-6.627-3.32-6.627-6.639 0 0-6.627 3.32-9.94 6.639-9.94s3.32 9.94 3.32 13.254c3.32-3.313 14.731-11.39 18.051-11.39 0 3.313-8.092 14.703-11.412 18.017 3.32 0 13.279 0 13.279 3.313s-3.32 6.627-9.959 6.627c6.639-3.313 6.639-6.627 0-6.627h-13.279zm-192.541 0s.14-9.878 0-13.254c0-6.627 3.32-6.627 6.639 0 0-6.627-3.32-9.94-6.639-9.94s-3.32 9.94-3.32 13.254c-3.32-3.313-14.731-11.39-18.051-11.39 0 3.313 8.092 14.703 11.412 18.017-3.32 0-13.279 0-13.279 3.313s3.32 6.627 9.959 6.627c-6.639-3.313-6.639-6.627 0-6.627h13.279zm170.914 189.11s7.972-.258 10.699-.194c5.349-.097 5.3-2.784-.099-5.373 5.349-.097 8.074 2.541 8.123 5.227.05 2.686-7.975 2.832-10.649 2.88 2.724 2.638 9.414 11.754 9.463 14.44-2.675.048-11.989-6.333-14.713-8.97.05 2.686.198 10.746-2.476 10.794-2.675.048-5.399-2.589-5.498-7.962 2.774 5.324 5.448 5.276 5.349-.097l-.198-10.746zm-177.297-95.829l-7.519 1.653 3.838-3.621-3.681-1.968 3.785-1.758-3.628-3.831 7.414 2.073-.21 7.452zm28.258 96.077s-7.972-.258-10.699-.194c-5.349-.097-5.3-2.784.099-5.373-5.349-.097-8.074 2.541-8.123 5.227-.05 2.686 7.975 2.832 10.649 2.88-2.724 2.638-9.414 11.754-9.463 14.44 2.675.048 11.989-6.333 14.713-8.97-.05 2.686-.198 10.746 2.476 10.794 2.675.048 5.399-2.589 5.498-7.962-2.774 5.324-5.448 5.276-5.349-.097l.198-10.746zm-28.307-195.777v140.843c0 79.507 102.703 101.449 102.703 101.449s102.702-21.942 102.702-101.449v-140.843h-205.406zm5.602 5.591v134.342c0 75.837 97.101 96.767 97.101 96.767s97.1-20.929 97.1-96.767v-134.342h-194.202zm96.338 7.118s6.927 7.056 9.159 9.596c4.579 4.798 6.983 2.513 4.807-4.57 4.579 4.798 4.465 9.483 2.062 11.768-2.404 2.285-9.273-4.912-11.562-7.311-.114 4.685-2.796 18.388-5.2 20.673-2.29-2.399-4.301-16.217-4.187-20.901-2.404 2.285-9.615 9.141-11.904 6.742-2.29-2.399-2.175-7.084 2.632-11.654-2.518 6.97-.228 9.369 4.579 4.798l9.615-9.141zm-4.541-12.203l-1.757-7.482 3.679 3.782 1.922-3.7 1.812 3.755 3.789-3.672-1.977 7.427-7.469-.11zm107.956 99.194l7.519 1.653-3.838-3.621 3.681-1.968-3.785-1.758 3.628-3.831-7.414 2.073.21 7.452zm-102.132 127.68s-5.795-5.469-7.669-7.448c-3.834-3.724-5.712-1.797-3.753 3.852-3.834-3.724-3.876-7.512-1.999-9.438 1.877-1.926 7.629 3.659 9.546 5.521-.041-3.788 1.737-14.948 3.614-16.874 1.917 1.862 3.934 12.957 3.975 16.745 1.877-1.926 7.507-7.705 9.424-5.843 1.917 1.862 1.958 5.65-1.795 9.503 1.836-5.714-.081-7.576-3.834-3.724l-7.507 7.705zm-90.152-131.395s6.766 7.21 9.214 9.544c4.607 4.772 2.217 7.071-4.781 4.598 4.607 4.772 9.301 4.859 11.691 2.56 2.39-2.299-4.52-9.457-6.824-11.843 4.694.087 18.526-2.001 20.916-4.3-2.304-2.386-16.048-4.983-20.742-5.07 2.39-2.299 9.562-9.197 7.258-11.583-2.304-2.386-6.998-2.473-11.778 2.126 7.084-2.212 9.388.174 4.607 4.772l-9.562 9.197zm177.772.252s-6.766 7.21-9.214 9.544c-4.607 4.772-2.217 7.071 4.781 4.598-4.607 4.772-9.301 4.859-11.691 2.56-2.39-2.299 4.52-9.457 6.824-11.843-4.694.087-18.526-2.001-20.916-4.3 2.304-2.386 16.048-4.983 20.742-5.07-2.39-2.299-9.562-9.197-7.258-11.583 2.304-2.386 6.998-2.473 11.778 2.126-7.084-2.212-9.388.174-4.607 4.772l9.562 9.197zm-18.414 89.155l-4.154-6.47.156 5.269-3.998-1.201 1.437 3.913-5.279.156 6.716 3.758 5.123-5.425zm-140.685 0l4.154-6.47-.156 5.269 3.998-1.201-1.437 3.913 5.279.156-6.716 3.758-5.123-5.425zm-18.673-166.925l4.15 6.472-.153-5.269 3.998 1.203-1.434-3.914 5.279-.153-6.713-3.761-5.127 5.421zm179.899-.711l-4.15 6.472.153-5.269-3.998 1.203 1.434-3.914-5.279-.153 6.713-3.761 5.127 5.421zm-181.766-6.574v127.842c0 72.168 91.499 92.084 91.499 92.084s91.498-19.916 91.498-92.084v-127.842h-182.998zm4.991 5.075v121.942c0 68.837 86.509 87.834 86.509 87.834s86.507-18.998 86.507-87.834v-121.942h-173.016z" fill="#cf0000" fill-rule="evenodd"/><path d="M390.673 328.643c.063-.271-1.712-.028-1.682-2.922.03-2.894.588-3.286.685-3.41.097-.124.691.345.963.27.271-.075-.661.913-.464 2.895.196 1.983.787 3.247.498 3.166zm-83.645-44.339c.264.065.034-1.754 2.859-1.712 2.825.041 3.207.614 3.327.715.12.1-.339.706-.267.985.072.278-.889-.68-2.825-.486-1.937.193-3.173.794-3.093.499zm13.968-12.481c-.146.255 3.183.4 2.807 3.269-.376 2.869-1.458 3.137-1.653 3.238-.195.102-1.247-.493-1.761-.478-.513.015 1.329-.763 1.184-2.776-.146-2.013-1.105-3.397-.577-3.254zm-11.846 5.63c.194.219 1.323-2.991 3.884-1.767 2.561 1.224 2.488 2.361 2.525 2.582.036.221-.832 1.072-.971 1.578s-.314-1.528-2.234-1.986c-1.919-.459-3.496.066-3.205-.408zm12.252-58.025c.31-.253-3.851-2.212-1.977-5.736 1.875-3.524 3.38-3.297 3.677-3.325.298-.028 1.346 1.304 2.006 1.557.661.253-2.062.284-2.856 2.973-.795 2.69-.248 4.997-.85 4.53zm1.901-36.881c-.187.358 4.391.471 4.031 4.467-.361 3.996-1.831 4.397-2.093 4.543-.262.146-1.74-.652-2.444-.617-.704.035 1.784-1.095 1.475-3.888-.309-2.792-1.702-4.69-.969-4.505zm-18.857 10.836c.321.239 1.064-4.389 4.878-3.47s3.998 2.466 4.103 2.753c.105.287-.871 1.674-.935 2.393-.064.719-.812-1.962-3.556-2.034-2.743-.073-4.772 1.077-4.491.358zm.811 13.698c.394.049-1.159-4.364 2.609-5.465 3.768-1.1 4.665.158 4.893.356.228.197.036 1.897.322 2.557.286.66-1.643-1.308-4.072-.002-2.43 1.305-3.654 3.321-3.751 2.554zm8.118 65.087c.025.295 2.82-1.562 4.137 1 1.316 2.561.586 3.421.485 3.62-.101.199-1.296.338-1.706.655-.41.317.653-1.411-.605-2.965-1.257-1.554-2.822-2.113-2.311-2.31zm19.129-6.354c-.049-.404-3.853 2.21-5.809-1.267-1.957-3.476-.982-4.673-.85-4.948.132-.274 1.788-.495 2.344-.94.556-.445-.84 1.949.986 4.047s4.033 2.825 3.329 3.107zm45.93 48.571c.25.149.379-3.261 3.181-2.887 2.803.374 3.068 1.481 3.168 1.68.1.2-.477 1.279-.46 1.805.017.526-.75-1.359-2.715-1.202-1.965.157-3.313 1.145-3.175.603zm5.542 12.11c.213-.2-2.926-1.344-1.74-3.971 1.185-2.627 2.296-2.557 2.511-2.595.216-.038 1.05.848 1.545.988s-1.491.327-1.93 2.295c-.44 1.967.078 3.58-.386 3.284z" fill="#00a494" fill-rule="evenodd"/><path d="M370.701 270.081c-8.103-9.683-17.406-6.366-17.406-6.366s-1.734.372-3.355-3.069c-1.082-2.297-.502-4 1.741-5.108-3.325-1.189-5.048.966-5.066 3.92-1.663-.595-1.662-.595-2.745-2.892-.58 1.703-.58 1.703.502 4-2.243 1.109-2.243 1.109-3.325-1.189-2.066 1.533-1.16 3.406.502 4 1.662.595 3.905-.514 3.999-.706 2.651 3.084 2.475 3.661 2.475 3.661s-5.051.982-5.953 6.03c-.902 5.048 1.918 9.087 1.918 9.087s-2.249-.552-5.58 1.077-3.068 4.723-3.268 4.075c-.199-.648-1.982-2.838-7.101-4.026-5.119-1.187-8.686.099-7.78-.613.906-.713 2.863-4.323 2.863-4.323l-1.812-1.226s-1.145 2.07-1.456 2.485c-.311.415-1.407-3.794-1.407-3.794l-1.585 1.392 1.019 3.33-1.924-2.535s-2.363 1.54-2.022 1.574c.341.034 3.186 2.634 3.186 2.634l-1.812 1.59-2.507-.414s-.833 1.867-.76 1.673c.073-.193 3.559.497 3.559.497l3.914 1.392s-.41 6.362-.663 6.013c-.253-.349 3.349-5.152 3.349-5.152l-.259 6.262 3.073-4.307.598 6.113 2.977-3.015s1.602 4.636.938 4.406c-.664-.23 3.607-2.965 3.607-2.965l-.291 3.877 2.96-2.8.096 4.34 3.478-4.058.258 5.003 2.637-4.124.954 4.191 1.569-3.992.922 4.622.841-5.566s1.655 4.348 1.569 4.456c-.086.108 1.814-1.553 1.877-2.452l3.71-2.419-.135 1.798 7.796-4.331s-7.559-8.985-3.641-14.032c3.918-5.046 10.82 2.115 17.168 11.66l-4.201-19.682z" fill="#cf0000" fill-rule="evenodd"/><path d="M378.799 322.189c.288-.027-1.536-2.883.96-4.24s3.339-.613 3.533-.51c.194.103.335 1.326.646 1.744.311.419-1.38-.663-2.893.631-1.513 1.293-2.053 2.899-2.247 2.376zm-76.021-77.285c.201.351 2.685-3.59 5.824-1.19 3.14 2.4 2.707 3.895 2.691 4.2-.015.305-1.451 1.179-1.79 1.813-.339.634.019-2.131-2.468-3.318-2.487-1.187-4.795-.962-4.258-1.505z" fill="#00a494" fill-rule="evenodd"/><path d="M359.053 219.403c-4.28-1.704-33.069-19.536-32.902-22.555l.373-6.746-3.476-1.274-2.552 10.627-9.049-8.691-1.025 2.559 8.271 8.145-8.85.582.899 3.441 10.957-1.989 3.248 2.279-3.765 4.202 3.248 2.279 2.226-3.327 1.52.631 2.555 5.644.546-3.312 1.891 5.138 1.57-3.646.867 5.473s1.501-3.737 1.139-2.661c-.361 1.076 1.318 4.97 1.318 4.97l1.631-2.199s2.214 6.195 2.178 6.692c-.036.496-1.023-5.606 1.371-4.904l1.023 5.606 1.864-2.251c.341.43 5.036 8.518 4.835 7.664l8.089-12.377z" fill="#cf0000" fill-rule="evenodd"/><path d="M301.013 266.43c.393-.057-2.219-3.91 1.145-5.969 3.363-2.058 4.547-1.079 4.817-.948.27.131.512 1.823.955 2.385s-1.916-.83-3.935 1.073-2.695 4.174-2.981 3.459zm33.386-77.602c0 3.607-.283 7.107 11.856 7.207 12.139.1 13.916-.97 14.457-1.154.542-.184-1.281-1.371-.903-1.899.379-.527-3.984 1.242-12.249.749-8.266-.493-9.64-1.297-13.163-4.904zm-22.231 84.69c.337-.215-3.576-2.652-1.318-5.931 2.259-3.279 3.728-2.875 4.027-2.868.299.007 1.19 1.454 1.817 1.784.628.33-2.08.038-3.172 2.616-1.092 2.578-.81 4.935-1.355 4.4z" fill="#00a494" fill-rule="evenodd"/><path d="M424.21 286.22c17.61 0 22.893-9.018 22.893-32.464 0-25.249-40.504-39.678-40.504-59.332 0-29.042 12.868-26.225 15.227-24.365 2.359 1.859-8.207 12.68-1.163 23.502 1.761-9.017 4.959-12.702 4.959-12.702s-4.533 8.995 2.109 18.899c3.876 5.781 1.785 4.394 8.805 5.411-1.737-4.624-1.761-5.411-2.057-9.623.271-7.396 2.953-9.071 2.953-9.071s-.145 7.374 2.109 9.935c2.254 2.561 6.804.106 7.171.432.366 2.13-4.289-1.449-5.483-7.775-1.194-6.327-.018-2.464 3.796-2.592 3.814-.128 6.749-4.752 6.749-4.752s-8.217 6.428-16.028-5.616c-4.516-7.796-2.109-7.775-2.109-7.775s3.799 2.202 4.218-4.32c.419-6.522-3.796-6.912-3.796-6.912s2.681 1.748 1.687 6.48-6.555-1.049-14.341-.864c-7.786.185-20.089 4.082-20.088 31.709 0 19.654 40.552 39.432 40.528 56.596-.024 17.164-.843 5.616-.843 5.616s-8.71-19.925-16.791-21.174c-8.081-1.249-4.639-11.663-4.639-11.663s-4.995-.047-4.218 5.184c.777 5.23 4.211 6.79 3.374 6.912-.836.122-4.7-.274-7.171 1.728-2.471 2.001-3.286.969-4.639-3.024-1.353-3.993-.408-6.375 0-5.184.408 1.192-6.313 4.402-2.953 8.208 3.36 3.805 5.483 2.16 5.483 2.16s-4.552.569-4.218 5.616c.334 5.047 5.483 6.912 5.483 6.912s-1.673-3.017-2.531-6.048c-.858-3.031 2.953-4.32 2.953-4.32s-2.39 1.789.422 6.048c2.812 4.259 6.749 2.16 6.749 2.16s-1.895.083-3.796-4.32c-1.902-4.402-1.768-5.025 1.687-5.616 3.455-.59 11.942 1.542 15.058 6.328 7.044 10.821 5.951 16.141 5.951 16.141s5.75 17.356-12.995 16.322c-10.542-.582-20.698-7.264-22.858-24.962-1.797-12.913-18.126-22.421-26.451-30.948-8.805-7.214.569-10.821-8.805-10.821-8.516 0-10.566-1.803-15.849 5.411-4.284 5.85-13.134 22.582-16.382 25.347-3.531 3.006-15.114 8.829-17.61 7.214l-5.578-3.607-2.774 2.495 7.835 7.441-11.81 3.888 1.687 2.16 10.966-3.456-3.796 8.208 3.374.864 3.617-10.778 3.522-1.803 1.761 5.411 3.522-1.803-1.761-3.607 1.276-1.055 6.058.45-2.563-2.095 5.304.799-2.352-3.175 5.093 1.879s-2.463-3.157-1.719-2.311c.744.846 4.883 1.231 4.883 1.231l-1.086-2.527s6.364 1.023 6.77 1.296c.406.273-5.283-1.803-3.522-3.607l5.283 1.803-1.017-2.761c.533-.098 9.716-.378 8.889-.612-.828-.234-2.99 5.094 3.374 11.447 6.365 6.354 8.125 6.354 11.648 8.157-8.805 9.017-5.283 16.232-3.522 19.839-1.761 1.803-3.522 0-3.522 7.214 0-1.803 1.761-1.803 1.761-1.803 0 1.803-1.761 3.607 1.761 5.411-1.761-1.803 0-3.607 0-3.607 1.761 3.607 1.761 3.607 3.522 3.607-1.761-1.803-3.522-5.411-3.185-6.922-.337-.292 1.276-.292 1.276-.292s1.343 5.082 6.327 5.616c4.983.534 8.699-2.656 8.699-2.656s-.365 2.339 1.476 5.616c1.841 3.277 4.833 2.77 4.218 3.024-.616.253-2.611 2.241-3.375 7.56-.763 5.319.763 8.861 0 7.992-.763-.87-4.429-2.592-4.429-2.592l-1.055 1.944s2.103 1.01 2.531 1.296c.428.286-3.585 1.728-3.585 1.728l1.476 1.512 3.163-1.296-2.32 2.16s1.681 2.295 1.687 1.944c.006-.351 2.32-3.456 2.32-3.456l1.687 1.728-.211 2.592s1.881.708 1.687.648c-.194-.06.211-3.672.211-3.672l1.055-4.104s6.225-.07 5.905.216c-.32.286-5.272-3.024-5.272-3.024l6.116-.216-4.429-2.808 5.905-1.08-3.163-2.808s4.39-1.992 4.218-1.296c-.172.696-3.163-3.456-3.163-3.456h3.796l-2.953-2.808 4.218-.432-4.218-3.24 4.851-.648-4.218-2.376 4.007-1.296-4.007-1.296 4.429-1.296-5.483-.432s4.106-2.024 4.218-1.944c.112.08-1.652-1.732-2.531-1.728l-2.64-3.603h1.761l-4.815-7.629s-8.168 8.408-13.381 4.795c-5.214-3.613 3.522-12.625 12.327-19.839 1.761 9.017 12.327 28.857 29.937 28.857zm-76.381-70.954c-1.761 1.803-1.012 3.192-3.148 3.4-2.135.207-9.179 2.011-9.179 2.011s6.032.374 9.179-.715c3.148-1.089 5.061-1.296 5.061-1.296s-3.274.862-6.116 3.24c-2.842 2.378-3.785 1.3-2.842 4.181.817-2.881 3.522-1.803 5.283-3.607 1.761-1.803 4.94-2.086 4.94-2.086s-2.652 1.65-3.796 3.672c-1.144 2.022.227 4.382.422 4.104.195-.278.922-1.654 2.32-3.672 1.398-2.017 2.953-3.24 2.953-3.24s-.976.711-1.265 3.672c-.29 2.961 1.06 3.95 1.265 3.456.206-.495 2.251-1.871 2.109-3.888-.142-2.017-1.055-3.456-1.055-3.456s2.81 1.866 2.741 3.456c-.068 1.59.211 3.888.211 3.888s2.81-3.523 1.265-5.616c-1.544-2.093-2.32-1.944-2.32-1.944s4.139 1.65 4.218 3.456c.08 1.806-1.055 3.672-1.055 3.672s2.166-1.438 2.531-3.456c.364-2.017-1.265-3.456-1.265-3.456s3.358 1.002 3.375 3.024c.016 2.022-1.687 3.672-1.687 3.672s4.128-.283 3.796-3.672c-.331-3.389-2.32-3.888-2.32-3.888s4.687.495 4.218 4.104c-.469 3.609-1.055 3.888-1.055 3.888s3.558-2.086 2.953-3.888c-.606-1.801-1.476-4.968-1.476-4.968s1.091 2.298 2.741 4.536c1.651 2.238 2.953 1.728 2.953 1.728s-.312-.358-1.687-1.728c-1.375-1.369-1.687-6.264-1.687-6.264s1.228 3.669 2.531 5.184c1.303 1.514 3.375 1.296 3.375 1.296s-1.651.009-2.742-2.592c-1.091-2.6-2.531-7.56-2.531-7.56s1.365 2.741 3.163 4.752c1.799 2.011 2.741.216 2.741.216s-4.319-5.79-5.272-11.015c-.954-5.225 0-5.616 0-5.616s1.502 7.795 3.796 9.504l2.953.216s-1.303.258-2.741-4.536c-1.439-4.793-3.374-11.663-3.374-11.663s.869 6.089 3.163 6.48c2.294.39 2.741-.864 2.741-.864s-1.514-.747-2.741-.648c-1.228.099-3.338-10.93-3.163-15.335.174-4.405.943-2.151 2.32-2.376 1.377-.225 1.265-3.672 1.265-3.672s-1.651 1.813-2.531 1.728c-.88-.085-2.221.983-3.743-1.272-1.523-2.256-3.037-1.816-3.037-1.816l-.211-2.808c-2.035 1.017-2.4 2.115-3.796 2.16-1.397.044-11.305.395-11.305 2.464 0 1.803-1.761 1.803-5.283 1.803-1.761 0-3.522-1.803-3.522-1.803 0 1.803.133-1.818.106 1.488-.026 3.306.263 7.461.447 7.387.184-.074 1.946 1.73 1.598 1.73l.348 1.803 1.761-1.588c.658.4 7.044-1.803 8.805-1.803 3.522 0 3.228 2.96 3.228 4.764 0 1.803-.268 4.354-1.761 5.411-2.029.747-3.887.031-7.408.031-1.119 0-3.522 1.803-5.283-1.803 0 1.803-1.761.902-1.761 1.803v5.411c.258 3.069-.77 4.6-.77 4.6s3.39-1.698 4.851-2.16c1.461-.463 8.246-.637 11.768-.637 0 5.411-8.805 7.214-10.566 9.018z" fill="#cf0000" fill-rule="evenodd"/><ellipse cx="-474.803" cy="201.969" rx="7.087" ry="3.543" transform="matrix(.373 0 0 .254 531.642 131.115)" fill-rule="evenodd"/><path d="M371.964 274.55s-1.773 2.353-.298 6.109c1.475 3.756 4.175 3.971 4.175 3.971m13.72-3.359l5.07-3.055-.895 7.026" fill="none"/><path d="M357.292 244.738l4.532.489m11.333 19.244l-2.386-7.637" fill="#fff" fill-rule="evenodd"/></g></svg>