<svg width="550pt" height="400pt" xmlns="http://www.w3.org/2000/svg" xmlns:xlink="http://www.w3.org/1999/xlink"><defs><linearGradient id="a"><stop offset="0"/><stop offset="1" stop-color="#fff"/></linearGradient><linearGradient xlink:href="#a"/></defs><g transform="matrix(.955 0 0 .947 -5.698 -43.445)" font-size="12" fill-rule="evenodd"><rect width="628.077" height="140.315" x="40.09" y="261.1" ry="0" transform="matrix(1 0 0 .713 -18.375 -123.907)" fill="#00007f"/><path d="M663.813 74.359a663.813 74.359" transform="matrix(1 0 0 .713 -18.375 -123.907)" fill="#00007f" stroke="#000" stroke-width="1pt"/><path fill="#00007f" d="M580.62 113.629l69.548-51.25 71.854 49.605-69.548 51.25z"/><g transform="matrix(1 0 0 .713 -18.375 -23.98)" fill="#68903c"><rect width="628.077" height="140.315" x="40.09" y="261.1" ry="0"/><path d="M663.813 74.359a663.813 74.359" stroke="#000" stroke-width="1pt"/><path d="M598.995 333.037l69.548-71.854 71.854 69.548-69.548 71.854z"/></g><g transform="matrix(1 0 0 .713 -18.375 75.948)" fill="#994033"><rect width="628.077" height="140.315" x="40.09" y="261.1" ry="0"/><path d="M663.813 74.359a663.813 74.359" stroke="#000" stroke-width="1pt"/><path d="M598.995 333.037l69.548-71.854 71.854 69.548-69.548 71.854z"/></g><g transform="matrix(1 0 0 .713 -18.375 175.876)" fill="#68903c"><rect width="628.077" height="140.315" x="40.09" y="261.1" ry="0"/><path d="M663.813 74.359a663.813 74.359" stroke="#000" stroke-width="1pt"/><path d="M598.995 333.037l69.548-71.854 71.854 69.548-69.548 71.854z"/></g><g transform="matrix(1 0 0 .713 -18.375 275.803)" fill="#00007f"><rect width="628.077" height="140.315" x="40.09" y="261.1" ry="0"/><path d="M663.813 74.359a663.813 74.359" stroke="#000" stroke-width="1pt"/><path d="M598.995 333.037l69.548-71.854 71.854 69.548-69.548 71.854z"/></g><path fill="#994033" d="M220.495 162.03h100v300h-100z"/></g></svg>