<svg xmlns="http://www.w3.org/2000/svg" width="210mm" height="140mm"><path font-size="12" fill="#00267f" fill-rule="evenodd" d="M0 0h744.094v496.063h-744.094z"/><path font-size="12" fill="#fff" fill-rule="evenodd" d="M0 214.003h316.089v-214.003h-316.089zm0-214.003h310.584v207.057h-310.584z"/><path font-size="12" fill="#00267f" fill-rule="evenodd" d="M0 0h103.528v207.057h-103.528z"/><path font-size="12" fill="#f31830" fill-rule="evenodd" d="M207.056 0h103.528v207.057h-103.528z"/><path d="M440.875 237.577l153.464-.3-18.019 26.73h-45.951v14.414l36.94.3-15.617 23.126h-21.923l.6 52.257 34.838-54.659 46.551 72.076s-27.331.3-27.631 0c-.3-.301-5.705-8.108-5.705-8.108l-25.527-.3-36.339 55.559-34.838-55.259-25.228.3-5.706 7.808h-27.328s46.549-72.677 46.549-72.376c0 .3 34.537 54.659 34.537 54.659l.3-90.098h-46.551c-.3 0-17.717-25.829-17.416-26.129z" fill="#fff" fill-rule="evenodd"/><path d="M561.615 345.694h7.807l-4.204-8.709-3.603 8.709zm-95.548 0h7.808l-4.204-8.709-3.604 8.709z" fill="#00267f" fill-rule="evenodd"/><path font-size="12" fill="#fff" fill-rule="evenodd" d="M485.588 418.049l-15.578-11.182-15.491 11.301 5.82-18.271-15.534-11.241 19.174-.11 5.892-18.248 6.029 18.203 19.176-.037-15.449 11.359 5.961 18.227zm95.259.023l-15.578-11.182-15.491 11.301 5.82-18.271-15.534-11.241 19.174-.11 5.892-18.248 6.029 18.203 19.176-.037-15.449 11.359 5.961 18.227zm-48.641 49.854l-15.578-11.182-15.491 11.301 5.82-18.271-15.534-11.241 19.174-.11 5.892-18.248 6.029 18.203 19.176-.037-15.449 11.359 5.961 18.227z"/></svg>