<svg version="1" width="210mm" height="140mm" xmlns="http://www.w3.org/2000/svg"><g font-size="12" fill-rule="evenodd"><path fill="#ffe600" d="M0 330.709h744.094v165.354h-744.094z"/><path d="M0 0h744.094v165.354h-744.094z"/><path fill="#f00" d="M0 165.354h744.094v165.354h-744.094z"/></g><path d="M205.006 71.704l292.441-.36.451 203.124c.15 55.055-71.075 134.906-147.356 137.036-67.032 1.873-142.307-55.714-145.757-137.622l.222-202.178z" font-size="12" fill="#f00" fill-rule="evenodd" stroke="#000" stroke-width="9.387"/><g font-size="12" stroke="#000" stroke-width="1.25" stroke-linecap="round" stroke-linejoin="round"><path d="M307.732 243.319s45.463 15.011 63.478 7.72c.641 7.432 4.288 9.864 4.288 9.864l9.865.43s4.718 4.288 9.006 6.863c4.29 2.573 11.267 2.529 11.58 2.573 3.432 4.718 1.715 6.863 6.863 9.007 7.406 3.234 13.254.075 15.441 3.002 4.288 4.718 15.011 18.013 15.441 30.88.428 12.868-12.01 21.016-12.868 24.876-.858 3.86-.428 4.29-.428 4.29l-4.718 6.861s-1.134 2.067 0 3.432c3.86 2.145 15.011 1.287 21.874-4.718 2.265-5.46-.43-11.58-.43-11.58l6.005-13.296c2.196.117 6.262 1.012 6.589.35.958-3.447-3.537-7.516-7.876-19.221l-3.002-21.446c-.379-1.793-7.148-5.147-10.721-7.72-1.002-.476-1.576-5.783-4.048-8.285-2.474-2.501-5.987-5.237-8.275-7.738 1.012-2.026 4.173-10.568 2.457-21.719-1.715-11.152-9.436-21.016-9.436-21.016s6.863 3.431 10.293-.43c3.431-3.86 5.304-8.033 6.005-8.578.858-.545 5.146-.858 6.863.43 1.715 1.286-3.863 13.724-3.86 19.299.781 8.148 8.148 17.585 6.861 21.875-1.286 4.288-8.148 5.146-8.148 5.146s12.477 3.701 14.153-6.863c1.287-7.291-6.98-14.623-7.056-17.896-.129-2.711 2.768-7.408 2.768-7.408s-2.613 3.378-2.692 7.333c0 3.938 10.84 13.254 9.125 20.546-1.715 7.291-3.002 9.006-3.002 9.006s7.255-4.132 7.566-8.5c.155-4.371-7.487-18.665-7.606-22.339-.039-3.659 2.613-5.617 2.613-5.617s-2.692 1.092-2.651 5.577c-.041 4.737 10.801 21.874 10.371 22.731-.428.858 1.912-2.418 1.951-5.147.042-2.876-4.387-9.697-4.954-15.675-.545-5.681 2.038-5.738 2.145-8.344-.038-3.034-2.145-3.431-2.145-3.431s2.223 1.715 2.223 3.431c0 1.715-2.342 2.535-2.223 8.15.171 4.306 8.381 15.206 7.953 19.999-.23 2.175-.233 10.023-11.813 14.313-11.579 4.288 15.792 1.131 17.937-11.307.664-8.7-8.555-17.425-7.605-23.744.972-5.937.82-12.986-2.612-15.131 3.346 2.218 3.938 5.616 2.653 15.052-1.287 9.436 6.738 12.022 8.928 11.969 4.643-.041 6.433-9.436 6.433-9.436s-5.413 6.613-7.291 5.575c-4.404-2.648-2.573-22.303-4.288-24.018-1.717-1.715 4.288 5.575 3.86 5.147-.43-.43.858-16.727-4.719-16.298 3.539-6.738 8.187-19.688-15.402-26.551-20.785-9.745-30.061-1.298-30.491 4.677-1.286 15.011 11.112 25.074 5.147 29.594-4.718 2.573-15.011-4.718-15.011-4.718s-2.145-6.005-14.153-7.72c-12.01-1.716-27.451.429-34.741-1.287-7.291-1.716-17.585-8.578-17.585-8.578l3.432-3.86c2.351.154 2.209-2.73 2.145-5.147 3.259-.535 1.454-5.043.428-8.149 6.388-3.719 2.648-11.099 0-16.298 2.609-3.989 2.025-6.81-1.287-9.865 1.829-3.872.544-7.277-3.859-8.578 3.259-1.287 1.61-2.729.428-3.86 1.558-1.754-.158-3.352-2.573-3.86.027-1.788-.035-3.265-1.045-4.11-1.35-1.308-8.256-1.875-10.921-6.908.25.922 4.691 5.808 4.748-.784-.292-3.745-9.253-2.054-10.368-3.638 4.459-.587 6.005-1.287 5.576-1.287-.351-2.104-8.386-4.327-12.009-3.431 1.207-3.857-3.002-10.294-3.002-10.294v-8.149c-3.131 3.574-5.561 6.214-5.42 11.425-2.571-1.391-2.182-3.796-1.871-6.278l-3.86.858-.429-5.147c-4.83 1.87-3.002 8.578-3.431 7.72-.429-.858-10.293-3.697-9.436 3.002.935 1.636 3.431 2.145 3.002 2.145-.429 0-1.287 3.002-1.287 3.002l-4.289 3.86s-2.573-.429-4.289.429c-1.716.858-2.144 4.718-2.144 4.718l-10.294 7.291s-1.716-.858-6.433 3.002c-4.718 3.86-1.287 8.578-1.287 8.578s-3.002 5.576-.858 8.578c2.145 3.002 6.327 1.668 7.613 3.813 1.287 2.145 3.345 1.022 4.981.32 6.302 2.775 9.331-6.759 13.997-10.138 0 0 0 6.434 5.147 4.718 5.147-1.716 7.72-1.287 7.72-1.287s-3.002 18.872-14.582 29.594c-1.609 1.452-2.145 9.865-2.145 9.865s-3.86 0-5.147 3.431c-1.287 3.431-1.716 11.58-1.716 11.58l-2.144 19.729s-15.44-.858-15.869-1.286c-.429-.43-6.005-3.86-12.438 0-6.434 3.86-4.289 9.006-4.289 9.006s1.716 14.153.858 17.156c-.858 3.002-2.654 4.835-3.86 10.295 1.287 6.003 3.002 6.433 3.002 6.433s-2.145 1.715-1.287 5.575c.858 3.86 4.718 6.005 4.718 6.005s3.434 10.528 14.035 10.178c2.266-3.935.976-13.18.976-13.18l-2.573-1.287s.858-5.146-.858-5.575c-1.716-.43-7.291.43-8.149-1.715-.858-2.145.234-5.069.234-5.069s5.342-3.081 4.055-5.654-2.535-3.704-2.535-4.134c0-.428-.038-13.88-.038-13.88s0-4.29 3.002-6.005c3.002-1.715 11.151 2.145 12.009 4.718.858 2.574 10.294 12.868 14.582 13.725 15.273 3.273 14.035 6.942 17.156 7.291 3.432.039 7.72-3.86 7.291-3.431z" fill="#fff" fill-rule="evenodd"/><path d="M436.318 181.833c0-.168 1.511-2.688 9.239 1.344m-6.215-6.048s4.2-1.008 6.383 1.512m7.391 2.688s7.056 2.016 7.896 5.208m-9.407-1.849s5.711.336 7.391 4.368m-9.24-1.68s5.88.504 7.896 3.696m-24.862 18.311s-2.52-5.039 11.591-5.711m-30.238 15.287s6.383 6.718 5.88 16.462m5.544 28.896s5.544 4.2 5.039 5.712m-63.333-23.52s7.728-3.695 18.816 14.784m-13.944-6.048l9.743.336m37.967-15.624s4.704 11.927-2.855 17.808m6.551-4.2s-1.344 6.72-3.36 7.728m-7.559-32.087s0 10.248-2.017 11.088m5.04-6.216s-2.184 10.247-4.872 11.423m6.216-5.376s-3.192 10.08-5.88 10.583m7.56-4.87s-1.679 5.712-5.544 9.072m-23.015 1.007s10.248 8.399 19.823.84m-7.56 6.215s5.376 1.008 9.072-1.847m36.118 79.627l-12.599.336s0-2.352-4.368-1.679m12.599-19.823s-.335 2.52 2.689 3.192m-4.032-39.982s2.519 10.247 3.695 10.415m-6.047-6.384s2.184 1.679 4.2.671l5.207-.503m-131.033-61.989s8.232-5.376 9.576-12.096m-12.432 7.729s10.583-6.215 12.263-13.775m-10.919 9.238c0-.168 10.919-11.087 11.255-16.799m22.008-3.863l-.168 6.216m-2.521-8.064l-.168 6.888m-4.704-8.232s1.848.168 1.512 2.184c-.336 2.016-.168 6.888-.168 6.888m-6.047-10.752s2.016 1.848 1.68 4.704c-.336 2.856.84 3.36.84 3.36" fill="none"/><path d="M408.43 276.747s7.561 24.528 7.225 27.551c-.336 3.024-5.207 16.8-11.424 16.8-1.847 3.192-.671 6.047-.671 6.047s-7.391 7.56-4.704 10.583c2.689 3.024 13.943-2.016 21.168-6.383.84-6.552-.505-10.415-.505-10.415s6.217-5.376 3.865-12.769c3.528 2.689 7.56.841 7.56.841s-6.049-6.72-6.552-10.416c-.505-3.695.503-16.63.503-16.63s-10.92.167-16.463-5.209z" fill="#fff" fill-rule="evenodd"/><path d="M409.44 324.29s8.736-1.344 10.583 2.016m-4.032-21c.167.168 3.358 2.857 2.687 4.2m-1.679-28.559s3.695 3.36 3.358 6.049m-163.286-29.567s-2.52 2.689-2.352 4.536c.168 1.847.504 8.567.504 8.567m-11.256-16.463l9.743-5.711m-.167-33.935s-4.2 3.695-3.528 5.039c.672 1.344 2.856-2.184 4.872-2.184m25.367 12.601s6.048 5.207 10.248 5.711c4.2.505 6.048 5.376 9.575 4.872 3.528-.505 9.072-8.904 9.072-8.904m-1.849 11.088l8.063-11.256m2.689.505s-2.352 8.231-.504 9.912m3.696-7.897v9.407m4.871-9.239s-3.024 5.039-1.008 9.239m3.36-8.231s0 8.399 1.344 8.231m1.848-5.375s1.848 2.184 1.512 3.865c-.336 1.679-.168 3.192-.168 3.192m-31.246-66.526s-2.688.504-5.04 3.528-.168 3.528-2.352 5.376c-2.184 1.848-3.864.672-5.712 4.368-1.848 3.696-2.016 14.111-2.016 14.111s-3.024 5.879-2.352 7.56c.672 1.679-6.72.671-6.72.671m6.552.168s6.384 2.52 6.552 5.544m-12.095-5.376s6.048 2.184 7.224 6.383m4.703-19.318s4.704-6.888 7.391-7.728m-5.039 1.008s2.016-5.376 7.224-7.392m1.848-16.463s-7.728 2.016-9.576 9.576m7.896-12.6s-5.88 1.848-6.72 4.536m-7.056 6.888s-5.712 7.728-1.176 13.943" fill="none"/><path d="M279.246 195.44c-.168-.168-6.048-2.352-7.896-3.36-1.848-1.008-8.232-9.24-9.24-9.072-1.008.168-10.583-2.184-12.263 0-1.68 2.184-12.599 15.623-12.599 15.623s-1.176 2.52-3.528 3.696c-2.352 1.176-10.248 4.871-10.751 7.56-.504 2.689 0 17.471 1.848 19.992 1.848 2.519 10.079 7.726 10.079 7.726s4.032-9.407 3.696-19.319c-.168-1.176-3.528 0-3.696-.168-.168-.167-1.68-7.726-.672-8.399 1.008-.671 6.72 1.513 8.232-.503 1.512-2.017 6.72-15.456 12.935-15.288 6.216.168 16.967 20.159 16.967 20.159l5.208-.168 1.68-18.479z" fill="#fff" fill-rule="evenodd"/><path d="M224.984 230.382s6.552-2.855 10.079-12.431m-10.583-10.079s.504 6.047 4.536 5.207m22.007-18.479s-7.56 4.032-8.735 6.552m6.383-10.08c.168-.168 2.352-6.888 10.751-1.848m15.12 4.704c-1.008 1.176-3.528 4.536-6.048 4.536m9.408-.84c-.336 0-7.896 1.848-8.064 3.528m8.232-1.176c-.168 0-6.048 1.848-6.216 3.528m5.712-3.192l-1.008 7.223m5.208-69.212c1.008 2.184-5.04 8.232-5.04 8.232s-3.696 1.68-4.536 0c-6.216-1.68 8.567-10.415 9.575-8.232zm.672-17.135l-6.384 6.552s-.504 4.872-3.192 6.048m-.984-3.865c-3.403-.176-.398-2.973.747-1.168.672 1.68-1.611 5.2-4.299 4.864m51.099-26.534c-.137.137-.549 6.309-4.663 7.132m3.017-2.606s28.115 22.629 19.475 59.521m-15.909-56.093s.412 9.463-.411 10.012m3.703-6.583s-.96 10.012-2.331 10.972m4.662-7.955s2.606 7.955-3.017 13.44m6.857-7.954s-2.331 10.149-4.114 10.423m6.72-4.937s-4.937 12.069-6.309 11.932m8.366-7.681s-4.251 10.972-7.269 13.44m8.778-8.228s-5.074 11.932-6.857 13.029m5.074-1.646s-1.234 7.817-6.034 9.326m-25.235-22.766s6.72 1.783 10.286-2.743 1.646-8.503 3.977-11.52m-21.532 1.371s2.469 2.194 2.057 6.034c-.411 3.84-6.172 6.446-7.406 6.583m15.086-29.212c0 .137-.411 4.8-2.194 5.623m2.331-3.154s2.606 4.937-2.057 6.994m-13.44-7.131s6.034-5.623 9.052-.137" fill="none"/><path d="M295.395 113.206s-6.295.683-4.854 4.323c1.441 3.64 7.356 1.593 7.735.986.379-.607 3.109-.076 3.109-.076s-3.261-4.854-5.991-5.233z" fill="#fff" fill-rule="evenodd"/><path d="M296.305 113.812s-3.261 2.199-2.427 3.337c.834 1.137 3.868-1.289 3.944-2.124.076-.834-1.213-1.213-1.517-1.213z" fill-rule="evenodd"/><path d="M310.487 127.008s-.076 7.963-2.73 8.039m5.915-7.735c0 .152.303 6.674-3.337 8.266m-15.699-32.838c-.076-.076-.379-2.048 1.744-2.503 2.124-.455 1.744 2.806 3.944 3.413 2.199.607 5.157 1.744 5.764 1.441m-4.702-6.826s2.199 2.882 2.882 2.654m-9.935 3.868s2.048 1.137 5.005-1.289m7.963-.379s2.199 1.593 1.82 5.081m4.627-9.783c-.455 3.413-.683 6.143-2.124 7.584-.986 2.427.834 4.171 2.124 4.171 1.289 0 2.351-1.517 2.124-3.716-.834-1.896-1.593-5.081-2.124-8.039zm-4.02 41.635s-2.578 3.109-4.247 2.654m7.129-3.336s-3.64 6.219-7.129 6.598m6.75-1.972s-6.522 5.612-6.598 5.688m4.854-1.138l-4.55 4.702m32.686 21.084s4.55 6.522 4.095 9.025c-.455 2.503-2.578 4.55-2.578 4.55m1.592-17.292s.758 6.522 2.654 7.963c1.896 1.441 2.731 5.385 2.351 6.067m-3.336-17.442s2.2 6.598 3.413 7.432c1.214.834 2.881 4.247 2.881 4.247m-6.067-17.216s.076 4.55 3.034 6.067c2.957 1.517 4.246 3.034 4.246 3.034m-7.204-16.836s-.607 4.55 2.578 6.37c3.186 1.82 3.641 8.722 3.641 8.722m-3.564-11.983s3.564.91 3.033 6.143m-7.053-14.788s4.095 5.612 7.963 5.839m-8.418-11.831s7.129 4.93 6.219 10.542m-5.84-14.864c0 .076 2.124 3.868 3.867 4.171 1.745.303 3.186.076 3.186.076m-10.162-8.646l6.522 2.275m-8.722-7.28s6.067 3.337 8.646 3.564m-9.707-7.963c0 .076 2.958 2.124 4.474 2.048 1.517-.076 2.579 1.517 2.579 1.517" fill="none"/></g></svg>