<svg xmlns="http://www.w3.org/2000/svg" width="210mm" height="140mm"><path font-size="12" fill="#006531" fill-rule="evenodd" d="M0 248.031h744.094v248.031h-744.094z"/><path font-size="12" fill="#fff" fill-rule="evenodd" d="M0 0h744.094v248.031h-744.094z"/><path d="M67.485 27.964h246.214v179.257c-1.933 56.062-53.947 116.355-118.625 117.044-67.304.717-123.019-51.844-127.062-115.99l-.527-180.311z" fill="#ff0" fill-rule="evenodd" stroke="#000" stroke-width="1pt" transform="matrix(.657 0 0 .679 246.715 127.009)"/><path font-size="12" fill-rule="evenodd" d="M291.398 146.405h161.305v21.105h-161.305zm0 40.664h161.305v21.105h-161.305zm0 40.369h161.305v21.105h-161.305zm-.001 39.779c0 7.035 1.825 14.07 3.39 20.566l154.134.405c2.434-6.855 3.824-13.71 3.781-20.97h-161.305zm12.386 40.933c4.693 8.517 13.689 14.878 17.861 20.431l100.291.674c6.866-5.822 15.689-15.957 17.47-21.105h-135.622z"/><path d="M67.621 95.747l201.181 199.105c7.101-5.82 13.124-12.554 18.814-19.702-.581-.83-4.023-10.901 1.216-16.34 6.482-4.691 9.397-8.128 5.667-12.965-7.713-5.834-11.242.839-12.297 5.584-1.054 4.745-12.79 5.878-17.535.079-4.745-5.8-2.109-17.399 3.69-16.872 1.651 2.271 5.707 3.955 11.072 0 7.772-7.937-5.272-14.235-5.272-14.235s16.598-2.523 8.602-12.873c-9.823-9.27-16.008 2.114-13.874 6.991-3.178-2.509-6.098-9.91-14.235-4.662-10.296 5.746.674 12.214 2.636 13.708-.528 0-14.235 10.544-20.035 1.581-5.799-8.962-2.109-17.398.527-17.398 2.637 0 12.658-4.911 5.805-12.819-5.775-6.332-12.546 3.642-12.131 5.965-1.245.498-7.772 7.493-16.735.639-8.299-8.347.918-16.456.918-16.456s9.49 5.8 13.181-.527c5.765-8.401-4.218-13.181-4.218-13.181s14.762-4.745 7.381-13.18c-9.124-9.598-14.294 3.715-13.708 6.327-1.405-1.455-6.013-9.051-13.708-4.218-10.017 6.326 2.109 12.126 2.109 12.126s-13.376 10.657-20.562 2.636c-6.854-8.436 0-17.926 0-17.926s13.518-4.662 6.664-12.57c-4.945-5.336-12.654 2.397-11.409 5.716-.498.498-7.747 8.748-17.925 1.582-8.436-9.49 1.054-17.925 1.054-17.925s3.691 7.381 12.654.527c8.962-6.854-3.691-13.708-3.691-13.708s14.235-2.636 8.436-13.181c-7.211-8.719-16.701.893-14.763 6.327-.634-.541-8.211-11.189-14.762-4.745-7.381 8.436 1.582 13.181 1.582 13.181s-11.599 8.435-18.453 1.581c-6.854-6.854 1.581-17.398 1.581-17.398s10.545-4.745 5.8-10.545c-4.745-5.799-13.708.527-13.181 4.745-3.372 2.807-13.6 4.745-17.925 0-3.164-4.745-1.055-14.235 2.109-17.925 2.665 2.035 4.745 8.436 13.18 1.054 8.436-7.381-3.807-14.176-4.471-14.259 1.908-.332 15.016-4.721 8.689-12.629-7.406-9.568-16.871 1.582-15.817 6.327-1.103-1.894-5.35-12.463-14.762-4.745-4.516 6.224-.185 10.3 1.582 12.653-1.055.527-11.048 7.689-17.902.835-6.854-6.854 2.085-17.706 2.085-17.706s9.49-3.163 4.218-9.49-11.907 1.865-12.156 3.998c0 1.054-7.405 5.189-11.096 3.608l.19 43.305z" fill="#006531" fill-rule="evenodd" stroke="#000" stroke-width="1pt" transform="matrix(.657 0 0 .679 246.715 127.009)"/><path d="M67.482 59.926l217.792 217.293m-218.242-209.195l214.892 213.092m-214.442-192.397l204.696 203.795" stroke="#000" stroke-width="1pt" transform="matrix(.657 0 0 .679 246.715 127.009)" fill="none"/></svg>