<svg width="210mm" height="140mm" xmlns="http://www.w3.org/2000/svg"><path fill="#fff" fill-rule="evenodd" d="M0 0h744.094v496.063h-744.094z"/><path d="M168.105 303.629l441.191 1.234.678-6.097c-.87-1.396-4.65-.637-5.859-.637-1.727-2.073-2.971-5.367-5.181-6.218-2.28-.878-5.049-.584-7.812-.238-.864-2.419-1.338-5.072-3.069-5.979-1.896-.993-4.889.558-7.651 1.076-1.209-1.899-1.74-4.038-4.265-5.22-1.789-.725-4.489-.93-6.735-.758-.744-2.245-1.673-5.118-4.146-5.46-4.947-.707-4.835 2.418-7.252 3.627-.916-2.684-2.739-4.701-4.664-5.181-2.22-.555-5.181 1.381-7.771 2.073l-40.572-.838s-7.691-3.346-10.362-4.145c-2.079-.496-7.014-3.906-7.014-3.906-3.441.626-3.564 2.805-4.743 2.51-1.584-.396-1.446-3.633-4.823-3.943-3.006-.595-5.155 3.144-7.771 3.546-1.873.289-2.122-3.047-5.698-3.387-1.824-.092-4.089 3.054-6.338 3.149l-48.502 2.032c-.798-1.116-.716-2.988-3.627-3.627-4.185-.797-47.586 2.392-47.586 2.392-2.59-2.591-4.972-6.159-8.73-6.018-5.263.192-5.259 4.462-5.778 4.462-.517 0-2.827-2.31-5.698-1.035-2.252 1.185-2.073 1.382-3.11 2.072-1.899-1.209-3.681-3.465-5.699-3.627-2.301-.185-4.836 1.726-7.254 2.59l-67.355 11.399-4.662 1.556s-9.315-5.747-13.87-3.866c-3.618 1.367-6.854 6.974-6.854 6.974-2.935-.864-6.262-3.447-8.808-2.59-6.747 2.325-5.181 4.489-7.772 6.735-3.454-.864-10.815-4.347-13.87-3.069-5.605 2.211-4.437 4.969-8.409 7.215-2.139-.678-3.624-2.591-6.574-1.875-3.707 1.299-2.604 2.605-3.985 3.987-3.416.318-9.231-2.086-11.519 2.391l-.48 6.696z" fill="#7e965a" fill-rule="evenodd"/><path fill="#ff0101" fill-rule="evenodd" d="M93.507 101.18l-31.157-18.353-32.782 15.261 7.827-35.303-24.645-26.461 35.994-3.465 17.551-31.616 14.418 33.161 35.492 6.922-27.083 23.96 4.384 35.893zm-93.507 293.604h744.094v101.25h-744.094z"/><path d="M212.678 296.971l11.661.14c1.11-.278.555-7.775-5.553-7.913-6.108-.14-6.386 7.633-6.108 7.773zm24.156-2.636l11.661.139c1.11-.278.555-7.774-5.553-7.913-6.108-.139-6.386 7.633-6.108 7.773zm24.422 4.33l9.801.112c.933-.224.466-6.274-4.668-6.386-5.133-.112-5.367 6.16-5.133 6.273zm36.685-4.194l15.778.142c1.502-.283.75-7.911-7.513-8.052-8.265-.142-8.64 7.767-8.265 7.909zm26.804-12.633l17.904.142c1.704-.283.851-7.911-8.526-8.052-9.378-.142-9.802 7.767-9.378 7.909zm22.768 12.078l17.904.142c1.704-.283.851-7.911-8.526-8.052-9.378-.142-9.802 7.767-9.378 7.909zm36.789-4.581l17.904.143c1.704-.284.851-7.911-8.526-8.052-9.378-.142-9.802 7.767-9.378 7.909zm37.064 4.337l17.904.108c1.704-.215.851-6.002-8.526-6.108-9.378-.108-9.803 5.892-9.378 6zm30.53-1.007l15.912.145c1.515-.289.756-8.047-7.576-8.191-8.336-.146-8.712 7.9-8.336 8.046zm33.041-6.108l15.912.145c1.515-.289.756-8.047-7.576-8.191-8.336-.146-8.712 7.9-8.336 8.046zm51.088 8.073l15.912.123c1.515-.245.756-6.82-7.577-6.942-8.335-.123-8.712 6.696-8.335 6.819z" fill="#70582d" fill-rule="evenodd"/><path d="M564.606 298.944l13.124.114c1.249-.225.622-6.276-6.249-6.387-6.875-.114-7.185 6.16-6.875 6.273z" fill="#775c2a" fill-rule="evenodd"/><path fill="#e6dcb6" d="M429.928 247.352v18.675h1.245z"/><path fill="#a18e61" d="M285.508 259.802l-2.49 7.47h1.245z"/><path fill="#cbbe8c" d="M280.113 268.932l.829.416-.829-.416z"/><path fill="#d8c8a5" d="M266.418 271.422l.829.416-.829-.416z"/><path fill="#938759" d="M265.588 272.252v1.245l7.47-1.245z"/><path fill="#e7d3b3" d="M261.853 272.252v1.245h3.735z"/><path d="M102.315 342.267c-.263-3.307-.945-5.407-2.573-7.56-2.94-3.885-7.665-6.038-13.388-6.038-10.815 0-17.535 7.718-17.535 20.108 0 12.285 6.668 20.003 17.325 20.003 9.502 0 15.855-5.513 16.327-14.28h-7.665c-.473 4.882-3.57 7.665-8.453 7.665-6.09 0-9.66-4.935-9.66-13.283 0-8.452 3.727-13.493 9.923-13.493 2.73 0 4.987.945 6.457 2.783.84 1.05 1.26 2.047 1.733 4.095h7.508zm24.008 17.587l2.52 7.718h8.085l-13.23-38.273h-8.715l-13.597 38.273h8.033l2.573-7.718h14.332zm-2.153-6.563h-9.975l4.988-14.962 4.987 14.962zm26.65-23.992h-7.875v38.273h20.865l-.058-6.621-12.932.059v-31.71zm25.853 0h-7.875v38.273h7.875v-38.273zm18.747 21.788h12.88v-6.504l-12.88-.059v-8.663l15.314-.058-.059-6.563-23.13.058v38.273h7.875v-16.485zm36.105-22.418c-5.355 0-9.765 1.785-13.02 5.302-3.412 3.675-5.355 9.03-5.355 14.753 0 5.722 1.943 11.13 5.355 14.753 3.308 3.57 7.613 5.302 13.073 5.302s9.765-1.733 13.073-5.302c3.308-3.517 5.355-9.083 5.355-14.49 0-5.985-1.942-11.34-5.355-15.015-3.36-3.622-7.612-5.302-13.125-5.302zm.052 6.72c6.458 0 10.552 5.25 10.552 13.545 0 7.823-4.252 13.125-10.552 13.125-6.352 0-10.552-5.302-10.552-13.335 0-8.033 4.2-13.335 10.552-13.335zm32.724 17.01h7.799c2.946 0 4.215 1.365 4.215 4.568 0 .315 0 .84-.045 1.522-.045.997-.045 1.943-.045 2.52 0 3.57.18 4.725 1.042 6.563h7.298v-1.417c-1.043-.683-1.451-1.47-1.451-3.15-.18-11.287-.363-11.813-4.578-13.912 3.718-1.68 5.577-4.778 5.577-9.45 0-3.045-.907-5.827-2.494-7.718-1.496-1.785-3.581-2.625-6.393-2.625h-17.726v38.273h6.801v-15.173zm0-6.563v-9.975h8.205c1.95 0 2.766.21 3.584.998.816.788 1.224 2.1 1.224 3.885 0 1.837-.454 3.307-1.224 4.095-.726.735-1.633.997-3.584.997h-8.205zm48.631 21.736h7.06v-38.273h-7.06v26.04l-13.602-26.04h-7.248v38.273h7.06v-26.46l13.79 26.46zm25.252-38.273h-7.875v38.273h7.875v-38.273zm30.36 30.555l2.52 7.718h8.085l-13.23-38.273h-8.715l-13.597 38.273h8.032l2.573-7.718h14.333zm-2.153-6.563h-9.975l4.988-14.962 4.987 14.962zm59.114-.892h8.151c3.081 0 4.409 1.365 4.409 4.568 0 .315 0 .84-.048 1.522-.047.997-.047 1.943-.047 2.52 0 3.57.189 4.725 1.09 6.563h7.63v-1.417c-1.09-.683-1.516-1.47-1.516-3.15-.191-11.287-.38-11.813-4.788-13.912 3.887-1.68 5.831-4.778 5.831-9.45 0-3.045-.948-5.827-2.607-7.718-1.565-1.785-3.744-2.625-6.682-2.625h-18.533v38.273h7.11v-15.173zm0-6.563v-9.975h8.578c2.037 0 2.89.21 3.744.998.854.788 1.28 2.1 1.28 3.885 0 1.837-.474 3.307-1.28 4.095-.759.735-1.707.997-3.744.997h-8.578zm36.625 5.251l10.413.059v-6.563l-10.413-.059v-8.663h13.875v-6.563h-21.75v38.273l21.405.058-.059-6.504-13.471-.117v-9.923zm30.007 2.835h8.441c6.048 0 9.93-4.988 9.93-12.757 0-7.665-3.747-11.865-10.608-11.865h-14.534v38.273h6.771v-13.65zm0-6.563v-11.498h6.318c3.612 0 5.282 1.838 5.282 5.775 0 3.885-1.669 5.722-5.282 5.722h-6.318zm44.424-18.06v25.935c0 4.62-2.194 6.825-6.777 6.825s-6.775-2.205-6.775-6.825v-25.935h-7.313v25.935c0 4.305 1.072 7.35 3.46 9.66 2.585 2.52 6.338 3.885 10.628 3.885s8.044-1.365 10.627-3.885c2.39-2.31 3.462-5.355 3.462-9.66v-25.935h-7.313zm18.292 38.273h14.654c3.752 0 6.253-.84 8.22-2.782 1.965-1.943 3.216-5.198 3.216-8.243 0-3.78-1.742-6.773-5.406-9.293 3.218-2.415 4.469-4.62 4.469-7.875 0-2.625-1.118-5.407-2.949-7.297-1.922-1.943-4.2-2.783-7.684-2.783h-14.519v38.273zm6.701-31.71h7.282c3.083 0 4.735 1.523 4.735 4.358 0 2.783-1.653 4.305-4.735 4.305h-7.282v-8.663zm0 15.225h7.998c3.261 0 4.957 1.733 4.957 4.988 0 3.202-1.696 4.935-4.957 4.935h-7.998v-9.923zm35.926-21.788h-7.875v38.273l21.919-.117-.117-6.445h-13.928v-31.71zm26.909 0h-7.875v38.273h7.875v-38.273zm41.326 12.968c-.263-3.307-.945-5.407-2.572-7.56-2.94-3.885-7.665-6.038-13.388-6.038-10.815 0-17.535 7.718-17.535 20.108 0 12.285 6.667 20.003 17.325 20.003 9.503 0 15.855-5.513 16.328-14.28h-7.665c-.472 4.882-3.57 7.665-8.452 7.665-6.09 0-9.66-4.935-9.66-13.283 0-8.452 3.727-13.493 9.923-13.493 2.73 0 4.987.945 6.457 2.783.84 1.05 1.26 2.047 1.733 4.095h7.507z" fill="#775c2a"/><path fill="#bb872a" d="M274.407 142.693c-3.501-1.397-9.435-4.4-10.602-4.435-1.066.011-7.71 11.622-9.643 12.867-1.118.146-8.525-7.961-9.772-7.45-.84.359-3.117 2.44-4.152 5.993-1.035 3.552-.828 8.577-1.372 9.959-2.88 7.072-5.759 5.273-8.864 15.436-1.355 4.433 1.992 9.829.208 13.695-2.257 4.89-16.089 17.298-15.902 18.958 2.588 15.353 19.606 5.837 31.623 1.005 1.086 5.513-.481 7.614-5.588 18.558 13.371-3.877 13.217-6.823 27.632-2.417 6.454-1.475 36.757-31.283 40.838-22.558 3.347 7.155-8.017 30.798-3.903 36.669 5.278 8.396 33.365 6.572 34.86 5.188 5.005-4.634 12.185-14.867 15.198-15.707 2.709-.736 32.964 4.879 42.349-2.497 5.652-5.82 21.946-4.634 32.868-.701.011 1.435 1.482 15.429 2.644 20.467.376 8.259 21.095 18.943 28.329 13.763l24.278-27.775s29.99-27.477 33.517-29.94c12.893-9.544 2.236-40.552-5.603-56.38-9.194-13.097-31.674-26.092-36.421-28.22-24.663-11.056-51.916.696-76.775 3.113-4.895.476-14.717-1.43-20.193-3.122-16.211-13.846-40.899-8.377-56.997-1.443l-48.555 26.975z"/><path fill="#775c2a" d="M503.487 172.573c3.405 3.561 9.079 1.137 3.735 6.225 4.704 2.161 8.95-2.974 9.13-2.905 9.399 3.614 5.856 17.029 1.661 20.543-3.559 2.979-6.62.365-8.3 6.017-.291-.496-1.808-4.365-3.113-3.113-2.663 2.557 2.036 4.374 1.868 6.225-1.001 11.016-21.759 7.184-18.752 21.788-1.713-.124-4.889-3.481-5.603-2.905-.74.599 1.795 6.051 1.245 6.432-1.048.94-7.834 7.608-11.75 11.413-2.596-8.566-10.59 11.776-12.45 14.94-.489-18.603-16.185 1.998-16.185-17.43-3.09 3.039-7.348 8.567-9.269 9.116-.984.281.976-5.725.554-6.626-.223-.477-1.66 1.66-2.49 2.49l-2.49-28.635c-.161-1.849 1.909-5.174 2.49-4.98.664.222-.202 5.26 1.245 6.225 2.288 1.525 8.116 1.553 9.96 1.245.646-.108-2.685-1.902-2.49-2.49.219-.657 3.856-.103 3.735-1.245-.71-6.743-5.593-15.135-6.225-22.41-.198-2.271 4.178-4.897 3.735-6.225-.387-1.162-5.495-1.732-6.225-1.245-.515.344 2.883 3.145 2.49 3.735-.437.655-4.367-.818-4.98 0-.632.843 2.229 4.559 1.245 4.98l-9.96-1.245c-.984.421 1.808 3.667 1.245 4.98-.682 1.592-4.15 2.075-4.98 3.735-.83 1.66 1.313 5.204 0 6.225-2.422 1.884-8.654.403-11.205 2.49-2.014 1.648-1.538 7.128-2.49 8.715-.293.488-.604-2.618-1.245-2.49-1.434.286-3.795 3.439-4.98 3.735-.474.118.787-2.227 0-2.49-3.735-1.246-9.824-4.656-11.205-3.735-1.109.74 5.266 7.541 3.735 8.715-2.618 2.007-10.988 1.474-16.185.83-2.618-.325-5.9-3.826-7.262-3.735-.713.047 1.941 4.292 1.037 4.15-2.939-.459-13.903-6.26-13.903-10.583 0-7.257 1.802-16.715-7.47-21.165-4.11-1.973-3.347 4.986-3.527 6.848-.74 7.606-.517 12.706 4.98 18.675-9.052-4.288-1.323 2.913-8.715 3.735l6.225 2.49c-5.215 6.953-5.381 14.111-10.583 19.505-1.313 1.362-4.084-4.956-6.64-4.357-6.927 1.621-8.416 7.079-5.188-5.188-3.269 2.055-18.818 13.869-22.825 5.188-1.386-3.002 5.462-9.564 5.873-11.018 1.863-6.591.991-16.089 1.487-24.134l-2.962 2.715c-1.858 10.563-6.841 31.931-13.32 40.944-2.459 3.42-6.513 5.18-8.715 8.715-2.976 4.775-2.128 10.091-8.093 13.073-4.731 2.366-12.832 1.665-17.222 4.98-2.774 2.094.919 10.647 3.527 11.62 6.346 2.367 22.132 1.961 28.635-.207 17.142-5.715 35.837-25.658 48.347-38.388 2.55-2.593 9.914-17.222 12.658-17.222 2.314 0 4.066 4.328 5.395 5.81 3.652 4.071 21.334 18.745 19.92 24.07-1.331 5.014-11.874 4.039-15.147 7.885-3.07 3.607 6.042 4.687 4.357 6.433-4.609 4.773-7.921-4.018-10.79-3.943-5.107.134.649 6.708 3.735 7.055 17.155 1.933 45.7-5.535 43.575-27.39-.594-6.113-9.421-19.129-6.64-24.692 1.692-3.385 24.814-.769 27.597.623 3.386 1.693 1.312 14.457 1.453 17.845.361 8.678 5.548 22.496-6.225 25.937-4.294 1.256-9.308-.472-13.695.208-3.137.486-5.908 2.786-4.357 6.225 3.455 7.664 16.236 6.225 23.033 6.225 6.48 0 16.906 1.267 22.41-2.905 10.006-7.586 16.415-23.172 26.145-31.955 2.931-2.646 9.421-9.755 13.695-9.545 2.636.129 9.107 13.933 12.865 16.393 6.561 4.294 16.887 1.957 22.826 6.848 2.527 2.082 2.372 5.446 2.052 6.77-.296 1.23-13.348-1.548-19.996 7.403 5.727 12.556 38.863 6.621 43.051-4.421 4.936-13.011-7.806-23.346-10.789-34.652-2.271-8.605-.194-17.535-1.868-26.145-1.955-10.051-7.538-22.356-7.678-32.37-.092-6.595 2.001-10.595-1.037-17.43-3.602-8.104-11.105-12.281-16.601-18.675-4.511-5.249-20.777-22.017-28.842-19.712-2.925.835 9.272 11.678 10.997 12.657 2.727 1.548 5.248-.364 8.715 3.32 2.241 2.382 2.783 7.755 5.188 9.338 1.591 1.047 2.802-3.657 3.527-.83.751 2.927-3.475 4.526-3.32 7.47.143 2.707 3.979 1.856 4.773 4.151 1.432 4.136-6.138 14.626-10.168 14.732zm-249.195-18.938c3.99-.108 3.934-3.383 6.225-3.735 4.047-.623 6.322 11.195 12.035 6.848 6.927-5.271-7.952-10.473-8.3-13.695-.09-.829 2.546-.832 2.075-1.868-3.689-8.114-10.977 10.863-12.035 12.45zm-11.483-6.827c-3.675 2.128-4.37 13.193 1.868 9.96 7.331-3.801 5.385-14.159-1.868-9.96zm3.586 37.593c-2.197 1.701 2.041 4.396 3.735 2.49 1.377-1.549-2.471-3.469-3.735-2.49zm57.892 7.262c-1.856.67-2.339 4.447-3.527 4.565-1.79.179-9.567-4.889-10.998 1.245-.565 2.423 2.639 4.9 1.661 7.055-.249.548-6.499.815-7.886 2.49-4.91 5.926-10.204 8.924-15.147 13.487-1.275 1.177-2.038-7.678-4.98-7.678-1.322 0-6.668 6.518-8.093 7.678-6.229 5.478-14.147 5.686-16.801 6.941-1.474-.767-6.581-1.514-5.744-.716 10.558 5.011 14.94.543 22.96-2.905 4.706.261 9.089 5.774 13.695 4.357 9.756-3.002 18.913-15.965 28.635-20.75 4.912-2.418 10.295.327 13.073-.83 4.227-1.76 2.717-18.389-6.848-14.94z"/><path fill="#bb872a" d="M520.917 206.188c4.776 6.209-4.481 2.931-5.395 10.375-.422 3.439 4.374 6.75 2.905 10.79-.487 1.34-3.355.222-4.357 1.453-4.796 5.891 5.149 15.389 10.583 15.977-4.68-10.921 14.758-1.694 4.98-13.695 8.09 3.279 6.529-9.765 4.357-14.525-2.834-6.211-4.228.623-7.262-2.074-6.699-5.955 10.08-10.019-5.81-8.3zm-10.168 5.603c-1.149-.098-9.338 4.214-9.338 4.565 0 2.038 3.361 2.881 3.32 4.357-.007.253-7.77 5.855-3.527 6.225 5.541.482 13.567-14.806 9.544-15.148zm12.658 64.117c2.047-1.169 5.015-1.957 6.848-3.32 9.295-6.917-14.522-5.274-17.43-2.282-5.697 5.86 9.197 8.185 11.828 8.093 3.901-.137-.108-2.145-1.245-2.49z"/><path fill="#b6a47e" d="M517.182 269.683zm-156.662-1.868c-4.419 3.681 6.547 11.124 10.375 6.225.128-.164-7.433-8.678-10.375-6.225m150.229 3.735c-5.964-.609.992 7.678 3.735 7.678 2.662 0-1.835-7.484-3.735-7.678zm-212.687 10.583zm-38.387-8.093c-4.272 3.05.876 13.429 4.15 8.715.766-1.103-3.029-9.516-4.15-8.715m147.325-1.245c-2.885 2.885 4.452 9.605 7.47 6.225 1.211-1.357-6.536-7.159-7.47-6.225"/><path fill="#775c2a" d="M378.987 116.548c-9.943 5.848 5.297 5.748 6.017 3.527 1.087-3.35-6.545-6.38-8.507-7.47-10.904-6.057-23.702-7.223-36.105-6.017-15.86 1.542-30.107 15.654-44.82 21.58-7.323 2.949-13.837 8.38-19.92 13.28-1.138.916-8.502 3.613-4.772 5.603 5.378 2.868 14.829-6.865 18.259-10.168 7.322-7.049 18.023-6.068 25.938-12.242 3.379-2.636 4.793-7.163 9.13-8.923 9.608-3.899 25.684-7.836 36.105-5.81 6.495 1.263 12.44 5.927 18.675 6.64z"/><path fill="#d0cca0" d="M229.658 216.613l-4.231.966 5.879 2.944.285-2.952 9.887-5.4 1.239-2.145-13.059 6.586z"/><path fill="#773f15" d="M235.382 222.53l4.814 2.637 5.777-11.528c-3.793-.99-9.58 4.753-10.591 8.89z"/><path fill="#8a633b" d="M235.601 222.573c-1.074-.249-3.04.399-3.574 1.128-.468.639.436 1.944.568 2.975l6.696.644.817-2.549-4.507-2.198z"/><path fill="#d0cca0" d="M239.935 225.226l-8.608-4.129.744 3.469 6.617 1.796 1.247-1.136z"/><path fill="#775c2a" d="M214.636 206.843l-1.85 2.314c2.295 9.4 13.394 9.549 17.665 7.909 4.97-1.961 13.721-7.792 14.457-7.324.608.422.878 4.054.482 4.681-1.077 1.708-6.701 12.211-8.323 13.409l2.988.421c1.371-2.114 5.368-11.165 6.74-13.278 1.025-1.576.439-5.601-.574-6.595-.559-.488-1.468-.237-2.364-.132-2.268.264-11.189 7.393-21.252 6.857-2.185-.117-5.878-3.751-7.969-8.263z"/><path fill="#4f3208" d="M212.845 209.099c.524.704 2.777 2.484 3.835 1.7 1.346-.945.838-4.765-.348-6.21l-3.487 4.51z"/><path d="M168.516 123.978a2.109 1.797 0 1 0-4.219 0 2.109 1.797 0 1 0 4.219 0h-2.11z" transform="matrix(1.3 0 0 1.033 30.261 57.984)" fill="#fff" fill-rule="evenodd"/><path d="M167.734 123.724a1.406 1.426 0 1 0-2.813 0 1.406 1.426 0 1 0 2.812 0h-1.406z" transform="matrix(1.597 0 0 1.304 -18.157 24.794)" fill="#775c2a" fill-rule="evenodd"/></svg>