<svg width="233mm" height="140mm" xmlns="http://www.w3.org/2000/svg"><g fill-rule="evenodd"><g font-size="12"><path fill="#e72121" d="M.039.057h825.537v496.011h-825.537z"/><path fill="#003c7c" d="M768.167.057h57.409v496.011h-57.409z"/><path fill="#fff" d="M761.123.056h11.626v496.01h-11.626z"/></g><path d="M315.01 382.967a105.163 105.163 0 1 0-210.327 0 105.163 105.163 0 1 0 210.327 0h-105.164z" transform="matrix(1.259 0 0 1.259 116.781 -233.707)" fill="#fff"/><path d="M315.01 382.967a105.163 105.163 0 1 0-210.327 0 105.163 105.163 0 1 0 210.327 0h-105.164z" transform="matrix(1.175 0 0 1.175 134.393 -201.565)" fill="#003c7c"/><path d="M376.25 242.435l-34.917-20.598-31.448 25.584 8.8-39.573-34.049-22.003 40.355-3.859 10.404-39.181 16.141 37.187 40.479-2.213-30.379 26.843 14.612 37.814zm59.097 49.7l-7.888-39.782-40.044-6.428 35.398-19.795-6.261-40.071 29.765 27.548 36.175-18.337-17.002 36.821 28.618 28.738-40.272-4.791-18.488 36.097zm-59.386 70.397l-23.556-33.021-39.149 10.614 24.126-32.608-22.192-33.954 38.467 12.869 25.434-31.598-.351 40.56 37.911 14.425-38.684 12.2-2.004 40.512z" font-size="12" fill="#fff"/></g></svg>