<!DOCTYPE svg PUBLIC "-//W3C//DTD SVG 20010904//EN"
"http://www.w3.org/TR/2001/REC-SVG-20010904/DTD/svg10.dtd"
[
 <!ATTLIST svg
  xmlns:xlink CDATA #FIXED "http://www.w3.org/1999/xlink">
]><svg xmlns="http://www.w3.org/2000/svg" version="1" width="1080" height="720"><path font-size="12" fill="#fff" fill-rule="evenodd" d="M.001.381h1079.999v359.81h-1079.999z"/><path font-size="12" fill="#d30036" fill-rule="evenodd" d="M0 360.19h1079.999v359.81h-1079.999z"/><path font-size="12" fill="#0000ad" fill-rule="evenodd" d="M.001 0h356.4v720h-356.4z"/><path font-size="12" fill="#fff" fill-rule="evenodd" d="M254.524 473.667l-77.613-59.733-78.306 58.736 30.294-95.717-77.568-59.798 96.335.578 30.366-95.694 29.244 96.075 96.337.657-78.262 58.799 29.172 96.098z"/><text x="-77.206" y="770.052" font-size="12" font-family="Arial"><tspan x="-77.206" y="770.052">The texas flag is the property of the State of Texas.</tspan><tspan x="-77.206" y="782.052">This graphic is Copyright (c) 2003 Paul B. Joiner</tspan><tspan x="-77.206" y="794.052">and is distributed under the General Public License.</tspan><tspan x="-77.206" y="818.052">This graphic is free software; you can redistribute it</tspan><tspan x="-77.206" y="830.052">and/or modify it under the terms of the GNU</tspan><tspan x="-77.206" y="842.052">General Public License as published by the Free</tspan><tspan x="-77.206" y="854.052">Software Foundation; either version 2 of the License,</tspan><tspan x="-77.206" y="866.052">or (at your option) any later version.</tspan><tspan x="-77.206" y="890.052">This graphic is distributed in the hope that it will be</tspan><tspan x="-77.206" y="902.052">useful, but WITHOUT ANY WARRANTY; without</tspan><tspan x="-77.206" y="914.052">even the implied warranty of MERCHANTABILITY</tspan><tspan x="-77.206" y="926.052">or FITNESS FOR A PARTICULAR PURPOSE. See the</tspan><tspan x="-77.206" y="938.052">GNU General Public License for more details.</tspan><tspan x="-77.206" y="962.052">You should have received a copy of the GNU General</tspan><tspan x="-77.206" y="974.052">Public License along with this program; if not, write</tspan><tspan x="-77.206" y="986.052">to the Free Software Foundation, Inc., 59 Temple</tspan><tspan x="-77.206" y="998.052">Place, Suite 330, Boston, MA 02111-1307 USA</tspan></text></svg>