<svg xmlns="http://www.w3.org/2000/svg" width="800pt" height="400pt"><g font-size="12"><path fill="#fff" fill-rule="evenodd" d="M0 0h1000v500h-1000z"/><g fill-rule="evenodd"><path fill="#c33" d="M0 62.499h999.996v62.499h-999.996z"/><path fill="#006" d="M0 125h999.996v62.499h-999.996z"/><path fill="#c33" d="M0 249.999h999.996v62.499h-999.996z"/><path fill="#006" d="M0 312.498h999.996v62.499h-999.996z"/><path fill="#c33" d="M0 437.498h999.996v62.499h-999.996z"/></g><path fill="#006" d="M0 0h437.587v250.2h-437.587z"/><path d="M0 0v27.973l388.664 222.227h48.924v-27.973l-388.664-222.227h-48.924zm437.587 0v27.973l-388.664 222.227h-48.924v-27.974l388.664-222.226h48.924zm-255.259 0v250.2h72.931v-250.2h-72.931zm-182.328 83.4v83.4h437.587v-83.4h-437.587z" fill="#fff"/><path d="M0 100.08v50.04h437.587v-50.04h-437.587zm196.914-100.08v250.2h43.759v-250.2h-43.759zm-196.914 250.2l145.863-83.4h32.616l-145.862 83.4h-32.616zm0-250.2l145.863 83.4h-32.616l-113.247-64.751v-18.649zm259.109 83.4l145.863-83.4h32.616l-145.863 83.4h-32.616zm178.478 166.8l-145.863-83.4h32.616l113.247 64.751v18.649z" fill="#c00"/></g></svg>