<svg width="210mm" height="140mm" xmlns="http://www.w3.org/2000/svg"><path font-size="12" fill="#036" fill-rule="evenodd" d="M.049-.02h744.13v496.093h-744.13z"/><path d="M41.985 92.126c-21.066 71.005 63.637 128.378 121.334 76.898 60.508-64.237-7.017-150.997-77.14-123.302 51.179-8.897 81.685 50.891 47.271 88.197-33.241 34.332-93.86 11.771-91.465-41.793z" transform="matrix(.997 0 0 .986 -.624 1.256)" fill="#fff" fill-rule="evenodd" stroke="#000" stroke-width=".625"/><path d="M380.377 141.23c-.278-.555-3.054-8.052-3.054-8.33 0-.277-9.996-18.602-9.996-18.602l-.833 10.551-18.047-33.596s.833 13.05 1.111 13.05l8.607 19.435-18.047-31.929-1.944 2.221s.278 5.553.278 6.108c0 .555 12.216 23.045 12.216 22.767 0-.278-18.047-31.652-18.324-31.652-.278 0-3.332 2.221-3.332 2.221v5.831c0 .278 13.327 23.045 13.327 23.045l-19.991-31.652-3.887-1.944s-.555 4.72-.555 4.998c0 .278 21.657 33.318 21.657 33.318l-11.939-16.937-3.332-.833-.278 4.998 17.492 26.099 5.275 11.106 9.718 9.995s-11.939-11.661-11.939-12.216c0-.556-3.887-6.942-3.887-7.219 0-.278-9.717-9.44-9.717-9.44s-2.499 0-2.499.277l.833 6.942c0 .277 4.997 5.275 4.997 5.275s-4.997-.833-6.386-1.388c-1.388-.556-6.941-2.499-6.941-2.499s-1.11 2.499-.833 2.776l3.61 2.777c.277.277-2.499.555-2.777.277-.277-.277-15.826-8.607-15.826-8.607l-17.769-8.884-6.386-1.944-.278 2.499s6.942 5.553 7.219 5.553c.278 0 19.158 9.995 19.158 9.995l-39.704-12.772h-2.776l1.943 4.443 31.374 10.55.556 2.499s-1.388-1.11-2.499-1.943c-1.111-.833-7.774-1.944-9.162-1.944-1.389 0-17.77.833-17.77.833s.555 2.499.833 2.499c.278 0 4.442 1.943 4.72 2.221.278.278 22.767-.555 22.767-.555s-5.83 1.388-5.83 1.666c0 .277-.278 2.776 0 3.054.277.277 5.553 1.388 5.83 1.388.278 0 4.72-1.666 4.998-1.944.277-.277 3.054-2.498 3.332-2.498.277 0-6.109 4.72-6.109 4.997 0 .278-.277 2.777 0 3.054.278.278 6.109.556 6.664.278.555-.278 5.275-3.609 5.275-3.332l1.666 4.72c0 .278 6.941 1.389 7.497 1.666.555.278 15.825 1.944 15.825 1.944l14.716 6.663s-13.883-4.72-14.16-4.997c-.278-.278-9.163-1.111-9.163-1.111l-34.706 2.776s-28.597 4.72-28.875 4.72c-.277 0-6.941 2.499-6.941 2.499s2.776 1.666 3.609 1.944c.833.277 32.763-2.221 32.763-2.221l-29.708 3.054s-5.276 3.332-5.831 3.609c-.555.278-2.499 3.054-2.499 3.332s.555 3.054 1.388 3.054c.833 0 8.607-1.666 9.163-1.666.555 0 14.993-2.776 14.993-2.776s14.715-4.165 14.993-4.165c.277 0-23.878 7.219-23.878 7.219l-7.219 1.666s0 3.332.555 3.332c.556 0 6.386.555 8.885.277 2.499-.277 8.885-2.776 9.995-3.054 1.111-.278 17.215-5.553 17.215-5.553s-14.993 6.941-15.549 6.941c-.555 0-12.216 5.553-12.216 5.553s-2.221 3.61-1.666 3.61c.555 0 4.72.555 4.998.555l8.329-3.887c.278 0 13.605-6.664 13.605-6.664l-8.607 6.664-8.052 4.998s-1.111 2.498-.833 2.498l4.165 1.111s5.553-2.221 6.663-3.054c1.111-.833 11.384-7.219 11.384-7.219s11.106-6.941 11.939-7.496c.833-.556 11.383-4.721 11.383-4.721l-14.16 9.441s-8.329 8.884-8.607 9.162c-.278.278-9.718 7.774-9.995 8.329l-12.494 12.494c-.278.556-3.332 8.885-3.332 8.885s-.278 13.605-.278 14.993 1.944 6.664 2.221 6.664c.278 0 2.222-9.163 2.222-9.163s3.054 10.551 3.331 9.718c.278-.833 3.61-9.995 3.887-9.995l3.054 2.498c.278 0 3.61-2.498 3.888-3.609.277-1.111 4.997-21.379 4.997-21.379l2.499 11.384s3.054-1.111 3.332-2.777c.277-1.666 2.221-14.437 2.499-14.16.277.278 3.331 4.443 3.887 4.165.555-.278 4.164-3.332 4.164-3.609 0-.278 2.777-13.883 2.777-13.883l3.054 5.275s4.442-1.11 4.442-1.665c0-.556 11.106-12.772 11.384-12.772l8.885-4.998c.277 0 .833 2.221-.278 3.61-1.111 1.388-5.831 7.496-7.219 8.607-1.388 1.11-12.494 12.771-12.494 13.049v3.054l5.275 2.221s-8.051 3.887-8.051 4.165l-8.885 6.941s-1.111 4.443-.555 4.443c.555 0 7.774.277 7.774.555s-3.054 1.943-3.887 2.499c-.833.555-11.662 5.83-11.662 6.108l-3.331 4.165c0 .277 3.054 1.388 3.331 1.11.278-.277 8.052-3.332 8.052-3.332s-13.049 12.217-13.049 12.495c0 .277-.278 3.609 0 3.609.277 0 3.609-1.944 4.164-2.221.556-.278 12.217-10.828 12.495-11.106.277-.278.277 1.943.277 1.943l-11.661 14.716s-2.776 3.054-2.776 3.332c0 .277 1.11 4.164 1.388 3.887.277-.278 2.776-2.777 3.609-3.887.833-1.111 7.774-9.44 8.33-9.718.555-.278 6.941-5.553 6.941-5.553v2.499l-3.887 6.108c0 .278-4.165 7.774-4.443 8.329-.277.556-.277 6.109-.277 6.109s3.054.277 3.054-.278 5.83-10.273 6.386-11.106c.555-.833 5.553-11.661 5.83-12.772.278-1.11 3.887-10.273 3.887-10.828 0-.555 1.389-1.666 1.389-1.666s.555 5.831.555 7.219 2.221 6.108 2.221 5.275c0-.833 3.887-8.607 3.887-8.607s4.72-9.44 5.275-10.273c.556-.833 3.055-6.108 3.055-6.663 0-.555 3.609-9.163 3.609-9.163v9.44s-3.609 10.829-3.609 11.106c0 .278-3.888 9.163-4.443 9.718-.555.555-3.887 6.386-3.887 6.664 0 .277-3.054 4.997-3.054 4.997l3.609-1.943s3.888-2.222 4.72-3.054c.833-.833 4.998-6.109 4.998-5.276 0 .833-2.499 6.386-2.499 6.664l-2.776 9.44-2.221 6.386c0 .277-.278 4.997.277 4.997.556 0 4.998-4.442 5.553-5.275.556-.833 4.443-8.607 4.443-8.607s2.221 1.943 2.221 2.221l3.887-1.666s-1.111-7.774-1.111-8.052c0-.277 1.666-5.83 1.944-7.218.277-1.389 1.666-8.052 1.943-8.885.278-.833 1.389-13.049 1.389-12.772v11.384s6.385-1.944 6.108-1.944c-.278 0-6.303 3.887-6.303 3.887l-.231 8.052 7.758-4.712-7.774 7.219-.08 5.626 5.519-1.708-5.509 3.332c-.278.277-.326 6.069-.326 6.347 0 .277-4.993 128.828-4.993 128.828s-4.165 14.715-4.72 14.993l-22.767.277c-.278.278-7.497 4.165-7.497 4.443 0 .277-3.331 3.054-3.331 3.054s2.221 3.332 2.498 3.609c.278.278 9.44 1.389 9.718 1.111.278-.278-1.666 2.776-1.666 2.776s-6.386 3.61-6.386 3.887c0 .278-.555 3.888 0 4.443.556.555 2.777 2.499 3.332 2.221.555-.278 4.998-2.776 4.998-2.776l1.943 1.943s-.555 3.609-.277 3.887c.277.278 3.054 1.944 4.164 1.111 1.111-.833 4.443-3.61 5.831-4.443 1.388-.833 4.72-4.442 4.998-4.442.277 0 1.388 2.221 1.665 2.499.278.277 3.61 1.943 4.165 1.943.555 0 4.442-.277 6.108-.277 1.666 0 5.553-.833 6.386-1.111.833-.278 3.61-3.332 3.887-3.609.278-.278 4.443.833 4.72 1.11.278.278 2.222 3.61 3.61 4.165 1.388.555 4.72 1.111 4.72 1.111s1.11-1.111 1.11-2.777c0-1.666-.555-4.998-.277-4.998.277 0 3.331.556 3.887.833.555.278 4.442 1.944 4.997 2.499.556.556 3.61 1.944 3.888 1.111l.277-4.998c.278 0 2.777 1.388 3.332 1.944.555.555 3.609 2.221 3.887 2.499.278.277 5.553 2.498 5.553 1.943v-4.72c0-.278 1.943-.278 2.221 0s3.054 1.944 3.61 1.944c.555 0 .277-3.61.277-3.887 0-.278-.555-4.72-.555-4.443 0 .278 4.997 1.944 6.108 2.221 1.111.278 6.386 1.666 6.386 1.111 0-.555-2.221-3.332-3.054-4.165-.833-.833-6.941-5.275-8.33-6.108-1.388-.833-7.774-2.499-7.774-2.499s-14.437-.833-16.103-.833c-1.666 0-4.72-4.442-4.998-5.275-.278-.833-1.666-8.607-1.943-8.607-.278 0-1.666-13.327-1.666-13.327l-.833-83.572-2.499-62.471-3.332-8.329s10.273 22.767 10.273 23.045l1.944 8.329c0 .278.555 5.831.555 5.831l3.887-.556 1.388-5.275-13.327-34.983-2.776-5.831s16.103 40.814 16.936 40.814c.833 0 4.165-4.442 4.165-4.442l-11.106-29.986-8.329-6.108s9.44 5.553 9.44 4.72c0-.833 3.054-4.165 3.609-4.165.555 0-3.332 5.275-3.332 5.275s10.701 36.475 10.701 36.671c0 .197 2.356 1.571 2.552.786.196-.786 2.16-7.461 2.16-7.657 0-.196-2.356-9.424-2.749-10.405-.393-.982-7.853-24.345-7.853-24.345s12.368 32.59 12.172 33.376c-.196.785-.196 6.478-.196 6.675 0 .196 4.515 0 4.515-.197 0-.196.197-6.478.197-7.46 0-.982-1.375-5.693-1.767-6.282-.393-.589-8.442-25.719-8.442-25.719s12.761 34.75 12.761 34.946c0 .196 1.178 4.515 1.374 4.515.196 0 4.712 2.16 4.712 2.16s1.178 4.908 1.571 5.105c.392.196 3.337 1.766 3.337 1.57l.589-18.847c0-.197-1.57-7.264-1.57-7.264s4.711 12.761 4.711 13.35c0 .589.786 7.657.982 8.049.196.393 4.515 2.16 4.515 1.964 0-.197.982-4.909.982-4.909l3.73 2.945s3.338-.785 3.338-1.178c0-.392-1.178-7.067-1.374-7.46-.197-.393-4.32-10.994-4.32-10.994s7.853 11.19 8.05 11.779c.196.589 3.141 2.749 3.141 2.356 0-.393.196-5.104-.196-5.301-.393-.196-3.534-6.086-4.123-7.46-.589-1.374-5.301-12.172-5.301-12.172l2.16 1.374s14.331 19.24 14.528 19.24c.196 0 3.141.982 3.337.785.197-.196.393-2.945.197-2.945-.197 0-4.32-8.049-4.516-8.442-.196-.392-12.957-20.025-12.957-20.025l14.92 18.455s3.927 1.767 4.123 1.57c.197-.196.786-2.356.589-2.748-.196-.393-3.141-5.694-3.534-6.086-.392-.393-13.546-20.418-13.939-20.811-.393-.393-9.816-16.295-9.816-16.295s12.368 7.46 13.154 8.246c.785.785 19.829 17.669 20.418 18.062.589.392 7.46 5.104 7.46 5.301 0 .196 3.73 1.374 3.534 1.374-.196 0-2.749-5.301-2.749-5.301s5.497 1.767 6.086 2.356c.589.589 5.301 2.159 5.89 2.552.589.393 4.123.196 4.123.196s-1.767-3.73-2.16-3.926c-.392-.196-5.104-4.123-5.104-4.123l6.282 3.141c.393.197 5.498 1.178 5.498 1.178s2.552-.785 2.748-.981c.196-.197 0-3.142-.392-3.142-.393 0-22.971-12.368-22.971-12.368s8.05 2.748 8.246 2.748c.196 0 6.479-.785 6.479-.785l-1.374-2.748-30.431-10.995s-11.583-7.656-11.387-7.46c.196.196 11.191 2.748 11.583 2.748.393 0 15.51.982 15.51.786 0-.197-8.638-3.927-8.638-3.927s11.779-.589 12.172-.589c.393 0 17.669-.589 17.669-.589s2.749-2.748 3.142-2.748c.392 0 3.533-2.945 3.533-2.945l-.785-9.62-2.16-3.534s-8.834-1.767-8.834-1.963c0-.197-4.712-1.571-4.712-1.571s-25.326-.393-24.737-.589c.589-.196 0-1.374.393-1.374.392 0 7.656-1.178 7.656-1.178s-.196-2.552-.196-2.356c0 .196-24.345.589-24.345.589s7.265-3.73 7.461-3.73c.196 0 9.62-5.497 10.405-5.694.785-.196 4.908-3.73 4.908-3.926 0-.197-4.123-1.767-4.319-1.571-.196.196-10.012 1.767-9.62 1.571.393-.197 3.141-2.945 5.694-3.927 2.552-.981 12.172-7.068 12.368-7.068.196 0 5.105-2.748 5.105-2.944 0-.197-.982-1.964-1.571-1.767-.589.196-11.387 4.319-11.583 4.319-.197 0-5.105.589-5.105.392 0-.196 7.853-5.3 7.853-5.3s10.406-7.264 10.602-7.264c.196 0 1.963-3.927 1.767-3.927-.196 0-5.89 1.571-6.086 1.963-.197.393-8.442 5.497-8.639 5.497-.196 0 8.443-7.46 8.639-7.46.196 0 2.356-5.104 2.356-5.104s-2.16-1.375-2.16-1.178c0 .196-7.657 3.141-7.657 3.141l-10.601 10.994s12.368-13.546 12.368-14.332c0-.785.393-4.515.393-4.515l-7.264 3.141s-7.657 1.374-7.657 1.571c0 .196-17.866 17.276-18.258 17.669-.393.393-12.369 8.442-12.369 8.442s-8.245 5.301-8.442 5.497c-.196.197-7.264 1.571-7.264 1.571s-.589-1.964 0-2.16c.589-.196 5.89-9.031 6.086-9.227.197-.196 6.675-15.117 6.675-15.117l.393-10.013-.785-1.767s-7.853 14.332-7.853 14.528c0 .197-.393-1.374-.197-1.57.197-.197 8.639-16.688 8.639-16.688l.196-6.282s-1.374-1.767-1.767-1.178c-.393.589-12.957 22.184-12.957 22.184s-2.16 2.553-2.16 2.356c0-.196 14.332-26.111 14.528-26.111.196 0 1.767-3.927 1.963-4.712.197-.785.393-8.638.393-8.638l-2.16-1.963s-4.908 5.89-4.908 6.282c0 .393-10.601 22.774-10.601 22.774s.981-2.552 1.767-4.516c.785-1.963 8.245-21.399 8.245-21.399s-1.178-2.749-1.178-2.356c0 .393-5.104 6.871-5.104 7.46 0 .589-7.461 15.117-7.461 15.117s6.479-17.276 6.676-17.276c.196 0 1.178-6.479 1.178-6.675 0-.196-2.945-.393-3.142.393-.196.785-3.926 4.516-4.515 6.871-.589 2.356-7.068 20.417-7.068 21.006 0 .589-5.497 14.332-5.301 14.136.197-.196 4.908-16.491 4.908-16.884 0-.393-.981-10.405-.981-10.405s-1.571-.982-1.571-.589l-2.159 4.711s-4.909 10.21-4.909 10.798c0 .589-3.141 12.762-3.141 12.762l-1.963 11.779-1.178 4.123v-.196" fill="#fff" fill-rule="evenodd" stroke="#666" stroke-width="1.25"/><path d="M356.725 188.027l1.374 5.497s3.534-2.356 3.73-2.552c.197-.197 1.767-3.534 1.767-3.534m-2.944 4.712s.785 5.693.785 5.89c0 .196 1.963-3.731 1.963-3.731l.982-2.945s1.767 2.16 1.963 2.16c.196 0 2.356 0 2.552.196.197.197 1.964 5.105 1.964 5.105l2.355-4.908s1.964-3.73 1.964-3.534l-.589 9.031c0 .196.392 4.908.392 5.497 0 .589-.589 10.798-.589 10.994 0 .197 4.123-1.374 4.123-1.374l2.552-5.104s1.178-8.443 1.178-8.05c0 .393.982 6.872 1.178 6.872.197 0 2.749-1.964 2.553-2.945-.197-.982-1.178-3.338-1.178-3.338m-.982-10.405v5.89c0 .392.982 4.122 1.374 4.319.393.196 1.964.785 2.356.589.393-.197 1.963-4.319 2.16-4.319.196 0 2.945-3.534 3.337-4.123.393-.589 1.178-4.516 1.178-4.516m3.927-6.086l1.767 6.086s3.534 2.945 3.534 3.141l.981 6.087c0 .196-3.926 5.104-3.926 5.104l-2.356 3.927 5.104 2.355s-.785 2.553-1.374 2.749c-.589.196-4.908 3.73-4.908 3.73s4.712 0 4.908.393c.196.393.785 3.534.982 4.515.196.982 2.945 1.767 2.945 1.767l3.926-2.356m-3.926-10.209c-.197.589-1.964 2.945-1.964 3.142 0 .196 3.142 1.767 3.142 1.767l1.374 2.748s2.945 1.374 2.945 1.571c0 .196-.393 4.712-.197 4.712.197 0 3.142-.197 3.142.589 0 .785.589 5.3.785 5.497.196.196 3.926 3.141 3.926 3.534 0 .392.982 4.319.982 4.319l1.571 3.337 4.712-2.356m4.122 4.123c-.196-.196-2.748-3.337-2.748-3.337s-1.571-6.283-1.571-6.675c0-.393-3.73-9.424-4.123-10.209-.392-.786-8.442-15.706-8.442-16.099 0-.393-1.963-3.927-1.963-3.927m-10.209-17.865s4.516-.393 4.712-.393l3.337 2.945c.197 0 5.105 4.123 5.105 4.712 0 .589 3.141 6.675 3.534 7.656.392.982 5.104 5.89 5.301 6.676.196.785.392 7.067.589 7.46l7.46 12.369c.196.392 1.963 4.319 1.963 4.515l-.589 5.694c0 .196 2.553 4.711 2.749 5.3.196.589 1.963 6.872 2.356 7.068.392.196 3.73 5.694 3.73 6.283v4.515m-13.35-24.344c0 .196 3.337.392 3.337.392l3.927-4.712 2.748-.589 2.356-4.515 5.694-1.374m-27.486-35.732c.196.197 4.319 6.675 4.712 7.461.393.785 5.693 12.172 5.693 12.368 0 .197 7.461 13.154 7.461 13.35 0 .197 0 10.602.392 11.387.393.786 4.123 5.694 4.32 6.086.196.393 1.767 5.89 1.767 5.89m.981-13.35c.197-1.571.393-9.816.393-10.013 0-.196-3.927-7.067-3.927-8.442 0-1.374-2.945-9.816-3.337-10.209l-5.301-10.209c-.393-.392-2.552-4.908-3.141-5.497-.589-.589-3.338-7.656-3.338-7.656m-12.368 8.245c.589-.392 2.356-4.712 2.356-5.693 0-.982-1.767-6.086-1.964-6.283-.196-.196-4.908-3.141-4.908-3.141l-5.497-1.963m2.945-.982l4.319 1.767s3.338-.196 3.534-.196c.196 0 3.926-2.945 3.534-2.945-.393 0-6.086-3.338-6.086-3.338s-5.694-2.159-5.89-2.159c-.196 0-5.694.392-5.694.392s6.676-7.656 7.265-8.442l4.711-6.282m15.314 1.767c-.196 0-4.516 4.123-4.908 4.319-.393.196-6.872 2.16-7.068 2.945-.196.785.589 2.749.589 2.749l6.675-3.534s3.141 2.945 3.927 3.534c.785.589 1.766 4.319 1.766 4.319m16.688-7.461c-.785 0-4.515 1.375-4.712 1.571-.196.196-4.908 3.534-4.908 3.73l-2.748 2.16m32.786 23.952c0 .392 12.761 1.177 12.761 1.177m-10.798-5.497h11.584c.196 0 3.926-1.767 4.123-1.374.196.393 1.963 1.963 2.944 2.356.982.393 8.05 0 8.442 0 .393 0 5.694.393 7.068.196 1.374-.196 5.105-1.178 5.105-1.178m-30.431-8.245c.393 0 9.031 1.178 10.405 1.178 1.375 0 9.62.196 10.406.196.785 0 9.423.196 9.423.196m-41.621-5.104c.197.196 4.712.392 6.479.392 1.767 0 5.104-1.767 6.675-1.57 1.571.196 7.46-.393 9.424-.196 1.963.196 15.313.785 15.313.981m-61.843-.785l7.657-1.571c.785 0 10.209-.392 11.583-.785 1.375-.393 6.479-2.16 6.479-2.16m-26.504-.392c.785-.589 5.497-2.749 6.479-2.945.981-.197 5.104-1.178 5.104-.982m15.117-47.904c-.981 1.375-6.871 6.676-7.264 7.265-.392.589-6.675 3.926-7.067 4.319-.393.392-2.16 1.963-2.16 1.963m-81.279 139.588c.393-.196 5.89-4.712 5.104-3.534-.785 1.178-5.693 9.227-5.693 9.227m-.196 3.534c.392.197 3.926 1.767 3.926 1.767l-5.104 4.712m.785 7.264c.589 0 6.282-1.178 5.89-.392-.393.785-6.283 7.067-6.283 7.067m-.392 7.264c.196.197 6.086.589 5.497 1.767-.589 1.178-5.694 3.731-5.694 3.927m-.392 2.945c.196 1.178 5.497 5.301 5.301 5.301m-5.105 10.798c.196 0 6.675 2.748 6.675 2.748m-7.068 9.031c.197.982 4.123 2.945 4.123 2.945m-4.908 8.442l6.283 4.319m-6.479 7.264c.392.786 5.497 5.89 5.497 5.89m-6.675 9.816c.196.197 7.264 4.909 7.264 4.909m-8.835 9.227c.393.393 6.675 3.337 6.675 3.337m-10.601 9.817c0 .981 1.767 3.926 1.767 4.515 0 .589 1.963 2.356 2.552 2.749.589.392 4.712 3.141 5.497 3.141.785 0 5.104-1.571 6.086-1.767.982-.196 7.461-1.178 8.442-1.178.982 0 9.424-1.178 10.013-1.178.589 0 3.73-3.141 3.73-2.945m-5.497-18.062c-.589.393-5.497 2.749-5.497 2.945 0 .197-3.534 1.963-3.534 1.963m7.46-17.473c-.196.393-2.748 2.16-3.337 2.553-.589.392-4.908 2.748-4.908 2.748m8.442-19.436c-.589.393-4.123 3.73-4.32 3.926l-4.711 1.571m8.834-18.062c-.196.393-3.141 2.945-3.337 3.141-.197.197-4.123 2.552-4.123 2.552m7.264-19.24c-.589.982-4.123 4.516-4.516 4.712-.392.197-7.067 2.749-7.067 2.749m11.387-20.222c-.393.786-4.909 4.516-5.301 5.105-.393.589-6.675 6.479-6.675 6.479m11.387-21.596c-.786.981-7.068 5.889-7.068 5.889l6.675-3.141m0-15.706l-8.442 4.516s6.675 1.767 6.675 1.178l2.552-2.553m-.589-16.491c-.981.589-4.123 4.712-4.319 4.712-.196 0-4.712 2.748-4.712 2.748s6.479-.392 6.872-.392m1.57-20.026c-.785.786-5.3 5.105-5.3 5.301 0 .196-3.338 1.767-2.749 1.963.589.197 8.049-1.57 8.049-1.57m-1.178-16.099c0 .196-3.534 3.73-3.534 3.73s-4.319 2.945-3.533 2.945c.785 0 7.067-2.748 7.264-2.748m-.589-15.903c-.197.589-3.338 2.749-3.534 2.945-.196.196-3.141 2.749-3.141 2.749l5.693-1.767m.589-15.706c.196.589-3.534 4.711-3.534 4.711s-1.374 2.356-.981 2.16c.392-.196 5.104-3.73 5.104-3.73" stroke="#666" stroke-width="1.25" fill="none"/></svg>