<svg width="210mm" height="140mm" xmlns="http://www.w3.org/2000/svg"><path font-size="12" fill="#c03" fill-rule="evenodd" d="M0 0h744.094v496.063h-744.094z"/><path d="M18.518 245.908l352.387 236.703 355.314-237.164-355.314-231.892-352.387 232.353z" fill="#009" fill-rule="evenodd" stroke="#000" stroke-width="3.126"/><path d="M106.577 246.366l264.98 177.991 267.181-178.337-267.181-174.373-264.98 174.72z" fill="#fff" fill-rule="evenodd" stroke="#000" stroke-width="2.487"/><path font-size="12" fill="#fff" fill-rule="evenodd" stroke="#000" stroke-width="1.081" stroke-dashoffset="5" d="M385.583 68.099l-13.363-9.663-13.311 9.709 5.065-15.683-13.363-9.674 16.492-.029 5.065-15.688 5.117 15.665 16.492-.022-13.311 9.711 5.117 15.674zm-42.675 18.198l-16.469-.846-5.894 15.385-4.275-15.917-16.475-.854 13.826-8.991-4.278-15.921 12.811 10.366 13.83-8.984-5.893 15.387 12.816 10.374zm-49.063 31.563l-16.469-.846-5.894 15.385-4.275-15.917-16.475-.854 13.826-8.991-4.278-15.921 12.811 10.366 13.83-8.984-5.893 15.387 12.816 10.374zm-46.563 31.562l-16.469-.846-5.894 15.385-4.275-15.917-16.475-.854 13.826-8.991-4.278-15.921 12.811 10.366 13.83-8.984-5.893 15.387 12.816 10.374zm-46.875 30.938l-16.469-.846-5.894 15.385-4.275-15.917-16.475-.854 13.826-8.991-4.278-15.921 12.811 10.366 13.83-8.984-5.893 15.387 12.816 10.374zm-48.438 30.625l-16.469-.846-5.894 15.385-4.275-15.917-16.475-.854 13.826-8.991-4.278-15.921 12.811 10.366 13.83-8.984-5.893 15.387 12.816 10.374zm253.874-122.037l16.469-.846 5.894 15.385 4.275-15.917 16.475-.854-13.826-8.991 4.278-15.921-12.811 10.366-13.83-8.984 5.893 15.387-12.816 10.374zm49.063 31.563l16.469-.846 5.894 15.385 4.275-15.917 16.475-.854-13.826-8.991 4.278-15.921-12.811 10.366-13.83-8.984 5.893 15.387-12.816 10.374zm46.563 31.562l16.469-.846 5.894 15.385 4.275-15.917 16.475-.854-13.826-8.991 4.278-15.921-12.811 10.366-13.83-8.984 5.893 15.387-12.816 10.374zm46.875 30.938l16.469-.846 5.894 15.385 4.275-15.917 16.475-.854-13.826-8.991 4.278-15.921-12.811 10.366-13.83-8.984 5.893 15.387-12.816 10.374zm48.438 30.625l16.469-.846 5.894 15.385 4.275-15.917 16.475-.854-13.826-8.991 4.278-15.921-12.811 10.366-13.83-8.984 5.893 15.387-12.816 10.374zm-468.424 77.708l-15.476-5.694-10.193 12.944.64-16.468-15.479-5.704 15.871-4.483.639-16.473 9.158 13.7 15.873-4.476-10.193 12.946 9.161 13.709zm46.203 28.357l-15.897-4.385-9.079 13.748-.734-16.464-15.901-4.394 15.442-5.79-.736-16.469 10.268 12.889 15.444-5.783-9.079 13.75 10.271 12.898zm174.77 121.02l-15.476-5.694-10.193 12.944.64-16.468-15.479-5.704 15.871-4.483.639-16.473 9.158 13.7 15.873-4.476-10.193 12.946 9.161 13.709zm-130.821-91.646l-16.107-3.537-8.339 14.21-1.605-16.402-16.111-3.546 15.114-6.6-1.607-16.407 10.936 12.328 15.117-6.593-8.338 14.211 10.94 12.336zm42.689 31.145l-15.903-4.363-9.06 13.761-.757-16.463-15.907-4.373 15.434-5.812-.759-16.468 10.286 12.875 15.437-5.805-9.06 13.762 10.289 12.884zm42.53 27.228l-15.939-4.232-8.947 13.835-.893-16.457-15.942-4.241 15.385-5.938-.894-16.461 10.392 12.79 15.388-5.932-8.946 13.837 10.395 12.799zm305.768-110.801l15.476-5.694 10.193 12.944-.64-16.468 15.479-5.704-15.871-4.483-.639-16.473-9.158 13.7-15.873-4.476 10.193 12.946-9.161 13.709zm-46.202 28.358l15.897-4.385 9.079 13.748.734-16.464 15.901-4.394-15.442-5.79.736-16.469-10.268 12.889-15.444-5.783 9.079 13.75-10.271 12.898zm-176.097 119.694l15.476-5.694 10.193 12.944-.64-16.468 15.479-5.704-15.871-4.483-.639-16.473-9.158 13.7-15.873-4.476 10.193 12.946-9.161 13.709zm130.822-90.32l16.107-3.537 8.339 14.21 1.605-16.402 16.111-3.546-15.114-6.6 1.607-16.407-10.936 12.328-15.117-6.593 8.338 14.211-10.94 12.336zm-42.69 30.26l15.903-4.363 9.06 13.761.757-16.463 15.907-4.373-15.434-5.812.759-16.468-10.286 12.875-15.437-5.805 9.06 13.762-10.289 12.884zm-42.529 27.229l15.939-4.232 8.947 13.835.893-16.457 15.942-4.241-15.385-5.938.894-16.461-10.392 12.79-15.388-5.932 8.946 13.837-10.395 12.799zm-347.86-149.046l-13.343-9.69-13.331 9.682 5.097-15.673-13.343-9.701 16.492.004 5.097-15.677 5.085 15.675 16.492.012-13.331 9.684 5.085 15.685zm598.754 0l-13.343-9.69-13.331 9.682 5.097-15.673-13.343-9.701 16.492.004 5.097-15.677 5.085 15.675 16.492.012-13.331 9.684 5.085 15.685z"/><path transform="matrix(2.468 .005 -.005 2.413 -2281.724 211.171)" font-size="12" fill="#009" fill-rule="evenodd" stroke="#000" stroke-width=".625" stroke-dashoffset="5" d="M1124.75 46.827l-7.73-5.59-7.7 5.616 2.93-9.072-7.73-5.596 9.54-.017 2.93-9.075 2.96 9.062 9.54-.013-7.7 5.617 2.96 9.067z"/><path transform="matrix(2.468 .005 -.005 2.413 -2494.85 203.671)" font-size="12" fill="#009" fill-rule="evenodd" stroke="#000" stroke-width=".625" stroke-dashoffset="5" d="M1124.75 46.827l-7.73-5.59-7.7 5.616 2.93-9.072-7.73-5.596 9.54-.017 2.93-9.075 2.96 9.062 9.54-.013-7.7 5.617 2.96 9.067z"/><path transform="matrix(2.468 .005 -.005 2.413 -2387.349 46.17)" font-size="12" fill="#009" fill-rule="evenodd" stroke="#000" stroke-width=".625" stroke-dashoffset="5" d="M1124.75 46.827l-7.73-5.59-7.7 5.616 2.93-9.072-7.73-5.596 9.54-.017 2.93-9.075 2.96 9.062 9.54-.013-7.7 5.617 2.96 9.067z"/><path transform="matrix(-.739 -2.355 2.302 -.722 1109.45 3003.858)" font-size="12" fill="#009" fill-rule="evenodd" stroke="#000" stroke-width=".625" stroke-dashoffset="5" d="M1124.75 46.827l-7.73-5.59-7.7 5.616 2.93-9.072-7.73-5.596 9.54-.017 2.93-9.075 2.96 9.062 9.54-.013-7.7 5.617 2.96 9.067z"/><path transform="scale(1 1.037)" d="M521.309 208.684c0-3.551-.795-5.883-2.703-8.003-2.597-2.862-6.89-4.399-12.455-4.399-9.275 0-14.628 4.346-14.628 11.872 0 5.989 3.021 8.904 10.865 10.388l5.406 1.06c5.3 1.007 7.261 2.491 7.261 5.618 0 3.233-2.968 5.194-7.791 5.194-5.406 0-8.427-2.279-8.692-6.413h-7.738c.477 8.268 6.148 12.773 16.006 12.773 9.964 0 15.847-4.664 15.847-12.508 0-6.095-3.074-9.275-10.229-10.653l-6.042-1.166c-5.671-1.113-7.314-2.226-7.314-5.035 0-2.915 2.597-4.77 6.678-4.77 5.035 0 7.844 2.12 8.109 6.042h7.42zm-43.884 19.08l2.544 7.791h8.162l-13.356-38.637h-8.798l-13.727 38.637h8.109l2.597-7.791h14.469zm-2.173-6.625h-10.07l5.035-15.105 5.035 15.105zm-27.56-12.455c0-3.551-.795-5.883-2.703-8.003-2.597-2.862-6.89-4.399-12.455-4.399-9.275 0-14.628 4.346-14.628 11.872 0 5.989 3.021 8.904 10.865 10.388l5.406 1.06c5.3 1.007 7.261 2.491 7.261 5.618 0 3.233-2.968 5.194-7.791 5.194-5.406 0-8.427-2.279-8.692-6.413h-7.738c.477 8.268 6.148 12.773 16.006 12.773 9.964 0 15.847-4.664 15.847-12.508 0-6.095-3.074-9.275-10.229-10.653l-6.042-1.166c-5.671-1.113-7.314-2.226-7.314-5.035 0-2.915 2.597-4.77 6.678-4.77 5.035 0 7.844 2.12 8.109 6.042h7.42zm-43.354 26.871h7.95v-38.637h-7.95v26.288l-15.317-26.288h-8.162v38.637h7.95v-26.712l15.529 26.712zm-38.796-7.791l2.544 7.791h8.162l-13.356-38.637h-8.798l-13.727 38.637h8.109l2.597-7.791h14.469zm-2.173-6.625h-10.07l5.035-15.105 5.035 15.105zm-50.774 1.484l3.975-4.134 12.667 17.066h9.487l-17.066-21.995 15.423-16.642h-9.381l-15.105 16.96v-16.96h-7.95v38.637h7.95v-12.932zm-37.948-2.385h9.116c3.445 0 4.929 1.378 4.929 4.611 0 .318 0 .848-.053 1.537-.053 1.007-.053 1.961-.053 2.544 0 3.604.212 4.77 1.219 6.625h8.533v-1.431c-1.219-.689-1.696-1.484-1.696-3.18-.212-11.395-.424-11.925-5.353-14.045 4.346-1.696 6.519-4.823 6.519-9.54 0-3.074-1.06-5.883-2.915-7.791-1.749-1.802-4.187-2.65-7.473-2.65h-20.723v38.637h7.95v-15.317zm0-6.625v-10.07h9.593c2.279 0 3.233.212 4.187 1.007.954.795 1.431 2.12 1.431 3.922 0 1.855-.53 3.339-1.431 4.134-.848.742-1.908 1.007-4.187 1.007h-9.593zm-23.903 14.151l2.544 7.791h8.162l-13.356-38.637h-8.798l-13.727 38.637h8.109l2.597-7.791h14.469zm-2.173-6.625h-10.07l5.035-15.105 5.035 15.105z" font-size="53" font-weight="bold" stroke="#000" stroke-width=".859" font-family="Nimbus Sans L"/></svg>