<!DOCTYPE svg PUBLIC "-//W3C//DTD SVG 20010904//EN"
"http://www.w3.org/TR/2001/REC-SVG-20010904/DTD/svg10.dtd"
[
 <!ATTLIST svg
  xmlns:xlink CDATA #FIXED "http://www.w3.org/1999/xlink">
]><svg xmlns="http://www.w3.org/2000/svg" width="200mm" height="140mm"><path font-size="12" fill="#000080" fill-rule="evenodd" d="M0 0h708.661v496.063h-708.661z"/><path font-size="12" fill="#ff0" fill-rule="evenodd" d="M627.334 142.535l-30.132-22.295-30.42 21.901 11.893-35.547-30.229-22.163 37.482.326 11.737-35.599 11.273 35.748 37.483.162-30.515 21.768 11.429 35.699zm-491.462 73.174l-12.406-9.179-12.524 9.017 4.896-14.635-12.446-9.125 15.432.134 4.832-14.656 4.641 14.718 15.432.067-12.563 8.962 4.705 14.698zm79.942 29.684l-12.406-9.179-12.524 9.017 4.896-14.635-12.446-9.125 15.432.134 4.832-14.656 4.641 14.718 15.432.067-12.563 8.962 4.705 14.698zm45.562 43.523l-12.406-9.179-12.524 9.017 4.896-14.635-12.446-9.125 15.432.134 4.832-14.656 4.641 14.718 15.432.067-12.563 8.962 4.705 14.698zm48.158 45.68l-12.406-9.179-12.524 9.017 4.896-14.635-12.446-9.125 15.432.134 4.832-14.656 4.641 14.718 15.432.067-12.563 8.962 4.705 14.698zm-11.294 73.356l-12.406-9.179-12.524 9.017 4.896-14.635-12.446-9.125 15.432.134 4.832-14.656 4.641 14.718 15.432.067-12.563 8.962 4.705 14.698zm134.644-25.47l-12.406-9.179-12.524 9.017 4.896-14.635-12.446-9.125 15.432.134 4.832-14.656 4.641 14.718 15.432.067-12.563 8.962 4.705 14.698zm-38.892 59.475l-12.406-9.179-12.524 9.017 4.896-14.635-12.446-9.125 15.432.134 4.832-14.656 4.641 14.718 15.432.067-12.563 8.962 4.705 14.698z"/></svg>