<svg xmlns="http://www.w3.org/2000/svg" width="512" height="512" viewBox="0 0 512 512"><path d="M368.977 277.344c-27.522 37.334-68.321 74.172-114.297 68.157-12.456 17.36-26.325 41.579-41.753 69.719l-35.644 11.168c30.163-58.765 70.46-123.763 113.683-173.144-18.718 12.167-49.475 38.344-76.228 65.941-24.137-50.326 1.303-96.938 38.188-132.535-1.057 16.764 6.403 32.063 11.981 39.931-.944-14.027.685-39.07 10.919-60.789 20.545-17.301 38.71-29.749 59.47-40.647-3.37 12.266-.499 26.963 3.451 36.136 1.789-12.706 9.361-36.709 18.106-46.662 25.899-16.69 64.229-30.024 105.147-29.342-4.525 25.161-17.746 66.027-35.63 91.383-14.43 9.256-33.51 14.683-48.71 17.282 12.593 3.529 26.706 4.563 38.955 3.654-8.909 18.694-17.97 35.839-31.664 56.85-18.876 10.525-42.996 15.162-59.501 16.039 11.535 6.03 32.562 9.556 43.527 6.859zm-223.089 118.935h-95.888v30.469h95.888v-30.469z"/></svg>