<?xml version="1.0" encoding="UTF-8" standalone="no"?>
<svg
   xmlns:dc="http://purl.org/dc/elements/1.1/"
   xmlns:cc="http://creativecommons.org/ns#"
   xmlns:rdf="http://www.w3.org/1999/02/22-rdf-syntax-ns#"
   xmlns:svg="http://www.w3.org/2000/svg"
   xmlns="http://www.w3.org/2000/svg"
   xmlns:sodipodi="http://sodipodi.sourceforge.net/DTD/sodipodi-0.dtd"
   xmlns:inkscape="http://www.inkscape.org/namespaces/inkscape"
   width="512"
   height="512"
   viewBox="0 0 512 512"
   id="svg4261"
   version="1.1"
   inkscape:version="0.91 r13725"
   sodipodi:docname="locale.svg">
  <metadata
     id="metadata4269">
    <rdf:RDF>
      <cc:Work
         rdf:about="">
        <dc:format>image/svg+xml</dc:format>
        <dc:type
           rdf:resource="http://purl.org/dc/dcmitype/StillImage" />
        <dc:title></dc:title>
      </cc:Work>
    </rdf:RDF>
  </metadata>
  <defs
     id="defs4267" />
  <sodipodi:namedview
     pagecolor="#ffffff"
     bordercolor="#666666"
     borderopacity="1"
     objecttolerance="10"
     gridtolerance="10"
     guidetolerance="10"
     inkscape:pageopacity="0"
     inkscape:pageshadow="2"
     inkscape:window-width="703"
     inkscape:window-height="480"
     id="namedview4265"
     showgrid="false"
     inkscape:zoom="0.4609375"
     inkscape:cx="256"
     inkscape:cy="256"
     inkscape:window-x="0"
     inkscape:window-y="27"
     inkscape:window-maximized="0"
     inkscape:current-layer="svg4261" />
  <path
     d="m 274.934,192.799 c 6.77199,-7.10056 7.10625,8.17986 0,0 z m -35.523,-50.707 c 5.13435,35.55296 14.80487,-17.80906 0,0 z M 462,255.999 C 465.27807,368.18491 360.69094,470.03057 248.31905,462.12273 156.0561,459.12642 69.540323,388.39712 53.88488,296.3961 36.719091,212.91505 76.051897,120.52166 151.08684,78.61949 222.95331,35.431456 321.08582,41.026298 385.42567,95.772355 432.85661,134.33978 463.32226,194.41847 462,255.999 Z M 316.954,167.344 c -26.45514,9.20319 28.66979,22.75096 13.66961,-0.0495 -8.97617,-4.84854 -2.92196,-8.51443 -11.84883,2.08949 L 316.954,167.344 Z m 103.931,88.655 c 5.33119,-24.68184 -7.90795,-58.59965 -37.76613,-45.18801 -24.2835,-8.7606 -13.9488,6.38755 2.60927,8.21923 20.75965,31.92638 -35.22222,51.89097 -39.79275,11.87698 -11.87259,-18.24593 -17.4294,-11.31828 -4.78641,4.39073 2.7881,29.83767 61.25412,22.51781 31.47763,54.60259 -26.57622,18.65823 -7.96198,54.03541 -33.221,73.45026 -12.65625,23.9753 -47.62019,47.22141 -62.30024,11.06785 -5.78063,-23.52952 -0.97496,-49.31697 -16.5624,-71.09642 -19.48054,-17.3596 -69.4389,5.05419 -72.87493,-35.94288 -7.54172,-32.69221 19.0887,-59.62773 46.40007,-71.63719 29.624,-10.45158 47.77327,22.57313 77.53939,13.56675 26.01075,1.68685 22.8639,-24.64746 -1.32738,-19.25086 -9.82782,-6.37701 -20.63139,-6.26136 -31.5561,-16.93757 -0.24838,4.32298 11.98319,23.20401 -3.72627,4.68203 -16.02425,-15.50477 -55.73622,36.96868 -50.24131,-0.63544 20.37386,-3.34394 16.43963,-24.54925 40.03652,-29.57378 9.82386,3.78098 41.29375,-10.6394 19.2217,-23.43655 0.21358,25.22886 -28.18393,14.20043 -15.95381,-3.37522 12.06005,-27.745509 46.69832,13.31722 44.13677,-18.44942 -23.17068,-20.782032 -60.0871,-4.126559 -85.50606,7.82434 -14.00467,8.2024 -41.47576,5.34331 -14.79218,-7.447 1.60236,-19.026596 -38.69521,16.32368 -48.19399,26.56553 -40.95899,12.24159 -60.86678,56.21018 -69.52526,94.96249 10.51767,25.59699 17.6542,55.50342 41.33966,72.37181 27.43541,23.61777 -9.51084,55.01464 5.98082,79.02888 61.25623,60.2649 170.11179,60.21353 230.18034,-1.95888 C 402.7429,343.01154 421.45389,299.80077 420.885,255.999 Z M 231.627,150.917 c 15.09446,-2.82089 -3.78557,-11.07198 0,0 z"
     id="path4263"
     inkscape:connector-curvature="0" />
</svg>
