<?xml version="1.0" encoding="UTF-8" standalone="no"?>
<svg
   xmlns:dc="http://purl.org/dc/elements/1.1/"
   xmlns:cc="http://creativecommons.org/ns#"
   xmlns:rdf="http://www.w3.org/1999/02/22-rdf-syntax-ns#"
   xmlns:svg="http://www.w3.org/2000/svg"
   xmlns="http://www.w3.org/2000/svg"
   viewBox="0 0 414.43713 79.139832"
   height="79.139832"
   width="414.43713"
   xml:space="preserve"
   version="1.1"
   id="svg2"><metadata
     id="metadata8"><rdf:RDF><cc:Work
         rdf:about=""><dc:format>image/svg+xml</dc:format><dc:type
           rdf:resource="http://purl.org/dc/dcmitype/StillImage" /><dc:title></dc:title></cc:Work></rdf:RDF></metadata><defs
     id="defs6" /><g
     transform="matrix(1.25,0,0,-1.25,-104.83797,532.67577)"
     id="g10"><path
       d="m 85.62155,364.89133 328.52706,-0.7911 -0.48565,60.27519 -328.521105,0.49372 z"
       style="fill:#000000;fill-opacity:1;stroke:#ffffff;stroke-width:2.54295301;stroke-linecap:butt;stroke-linejoin:round;stroke-miterlimit:4;stroke-dasharray:none;stroke-opacity:0.93785311"
       id="path224" /><g
       id="flowRoot3388"
       style="font-style:normal;font-variant:normal;font-weight:normal;font-stretch:normal;font-size:10px;line-height:15.0000006%;font-family:'Myriad Pro';-inkscape-font-specification:'Myriad Pro';letter-spacing:0px;word-spacing:0px;fill:#ffffff;fill-opacity:1;stroke:none;stroke-width:1px;stroke-linecap:butt;stroke-linejoin:miter;stroke-opacity:1"
       transform="matrix(0.79999989,4.1167198e-4,4.1167198e-4,-0.79999989,52.2034,442.40325)"><path
         id="path3899"
         style="font-style:normal;font-variant:normal;font-weight:normal;font-stretch:normal;font-size:60px;font-family:'Myriad Pro';-inkscape-font-specification:'Myriad Pro';fill:#ffffff"
         d="m 114.19023,79.742188 14.46,-40.44 -5.58,0 -6.84,19.98 c -1.86,5.28 -3.48,10.38 -4.62,15.06 l -0.12,0 c -1.14,-4.68 -2.64,-9.66 -4.32,-15.12 l -6.3,-19.92 -5.699996,0 13.259996,40.44 5.76,0 z" /><path
         id="path3901"
         style="font-style:normal;font-variant:normal;font-weight:normal;font-stretch:normal;font-size:60px;font-family:'Myriad Pro';-inkscape-font-specification:'Myriad Pro';fill:#ffffff"
         d="m 154.23367,66.182188 c 0.12,-0.6 0.18,-1.38 0.18,-2.46 0,-5.34 -2.46,-13.68 -11.94,-13.68 -8.46,0 -13.68,6.9 -13.68,15.66 0,8.7 5.4,14.64 14.28,14.64 4.62,0 7.86,-1.02 9.72,-1.86 l -0.96,-3.78 c -1.92,0.84 -4.26,1.5 -8.04,1.5 -5.28,0 -9.78,-2.94 -9.9,-10.02 l 20.34,0 z m -20.28,-3.78 c 0.42,-3.66 2.7,-8.58 8.1,-8.58 5.88,0 7.32,5.22 7.26,8.58 l -15.36,0 z" /><path
         id="path3903"
         style="font-style:normal;font-variant:normal;font-weight:normal;font-stretch:normal;font-size:60px;font-family:'Myriad Pro';-inkscape-font-specification:'Myriad Pro';fill:#ffffff"
         d="m 161.01086,79.742188 5.28,0 0,-15.54 c 0,-0.84 0.06,-1.68 0.18,-2.46 0.72,-3.9 3.36,-6.72 7.08,-6.72 0.72,0 1.26,0.06 1.8,0.12 l 0,-4.98 c -0.48,-0.06 -0.9,-0.12 -1.44,-0.12 -3.54,0 -6.78,2.46 -8.1,6.36 l -0.18,0 -0.24,-5.7 -4.62,0 c 0.18,2.7 0.24,5.64 0.24,9.06 l 0,19.98 z" /><path
         id="path3905"
         style="font-style:normal;font-variant:normal;font-weight:normal;font-stretch:normal;font-size:60px;font-family:'Myriad Pro';-inkscape-font-specification:'Myriad Pro';fill:#ffffff"
         d="m 178.60117,78.302188 c 2.04,1.2 4.98,2.04 8.16,2.04 6.78,0 10.8,-3.6 10.8,-8.76 0,-4.32 -2.64,-6.84 -7.62,-8.7 -3.78,-1.5 -5.46,-2.58 -5.46,-4.98 0,-2.16 1.68,-3.96 4.8,-3.96 2.7,0 4.8,1.02 5.94,1.68 l 1.26,-3.78 c -1.56,-1.02 -4.14,-1.8 -7.08,-1.8 -6.18,0 -10.02,3.84 -10.02,8.52 0,3.42 2.46,6.3 7.74,8.22 3.84,1.44 5.34,2.76 5.34,5.28 0,2.46 -1.8,4.32 -5.58,4.32 -2.64,0 -5.4,-1.08 -7.02,-2.04 l -1.26,3.96 z" /><path
         id="path3907"
         style="font-style:normal;font-variant:normal;font-weight:normal;font-stretch:normal;font-size:60px;font-family:'Myriad Pro';-inkscape-font-specification:'Myriad Pro';fill:#ffffff"
         d="m 209.65023,79.742188 0,-29.04 -5.28,0 0,29.04 5.28,0 z m -2.7,-33.96 c 2.04,0 3.3,-1.5 3.3,-3.24 0,-1.86 -1.32,-3.3 -3.24,-3.3 -1.98,0 -3.3,1.44 -3.3,3.3 0,1.74 1.26,3.24 3.18,3.24 l 0.06,0 z" /><path
         id="path3909"
         style="font-style:normal;font-variant:normal;font-weight:normal;font-stretch:normal;font-size:60px;font-family:'Myriad Pro';-inkscape-font-specification:'Myriad Pro';fill:#ffffff"
         d="m 230.31273,80.402188 c 6.9,0 14.4,-4.68 14.4,-15.48 0,-8.82 -5.64,-14.88 -13.98,-14.88 -7.98,0 -14.4,5.7 -14.4,15.42 0,9.18 6.12,14.94 13.92,14.94 l 0.06,0 z m 0.12,-3.96 c -5.1,0 -8.7,-4.8 -8.7,-11.16 0,-5.52 2.7,-11.28 8.88,-11.28 6.24,0 8.7,6.18 8.7,11.1 0,6.6 -3.78,11.34 -8.82,11.34 l -0.06,0 z" /><path
         id="path3911"
         style="font-style:normal;font-variant:normal;font-weight:normal;font-stretch:normal;font-size:60px;font-family:'Myriad Pro';-inkscape-font-specification:'Myriad Pro';fill:#ffffff"
         d="m 251.36242,79.742188 5.28,0 0,-17.52 c 0,-0.84 0.12,-1.8 0.36,-2.46 0.96,-2.94 3.66,-5.4 7.08,-5.4 4.98,0 6.72,3.96 6.72,8.64 l 0,16.74 5.28,0 0,-17.34 c 0,-9.96 -6.24,-12.36 -10.26,-12.36 -4.8,0 -8.16,2.7 -9.6,5.4 l -0.12,0 -0.3,-4.74 -4.68,0 c 0.18,2.4 0.24,4.8 0.24,7.86 l 0,21.18 z" /><path
         id="path3913"
         style="font-style:normal;font-variant:normal;font-weight:normal;font-stretch:normal;font-size:60px;font-family:'Myriad Pro';-inkscape-font-specification:'Myriad Pro';fill:#ffffff"
         d="m 307.19711,79.742188 5.1,0 0,-39 -4.5,0 -8.52,4.56 1.02,4.02 6.78,-3.66 0.12,0 0,34.08 z" /><path
         id="path3915"
         style="font-style:normal;font-variant:normal;font-weight:normal;font-stretch:normal;font-size:60px;font-family:'Myriad Pro';-inkscape-font-specification:'Myriad Pro';fill:#ffffff"
         d="m 330.51742,80.402188 c 2.16,0 3.6,-1.62 3.6,-3.78 0,-2.22 -1.44,-3.78 -3.54,-3.78 -2.1,0 -3.6,1.62 -3.6,3.78 0,2.16 1.44,3.78 3.48,3.78 l 0.06,0 z" /><path
         id="path3917"
         style="font-style:normal;font-variant:normal;font-weight:normal;font-stretch:normal;font-size:60px;font-family:'Myriad Pro';-inkscape-font-specification:'Myriad Pro';fill:#ffffff"
         d="m 351.4593,80.402188 c 8.52,0 13.5,-7.32 13.5,-20.58 0,-12.42 -4.74,-19.74 -12.9,-19.74 -7.92,0 -13.62,7.14 -13.62,20.28 0.12,12.9 5.34,20.04 12.96,20.04 l 0.06,0 z m 0.18,-4.08 c -4.86,0 -7.98,-6.12 -7.86,-16.26 0,-9.78 3.12,-15.9 7.92,-15.9 5.52,0 7.92,6.3 7.92,15.9 0,9.96 -2.58,16.26 -7.92,16.26 l -0.06,0 z" /><path
         id="path3919"
         style="font-style:normal;font-variant:normal;font-weight:normal;font-stretch:normal;font-size:60px;font-family:'Myriad Pro';-inkscape-font-specification:'Myriad Pro';fill:#ffffff"
         d="m 382.27961,80.402188 c 8.52,0 13.5,-7.32 13.5,-20.58 0,-12.42 -4.74,-19.74 -12.9,-19.74 -7.92,0 -13.62,7.14 -13.62,20.28 0.12,12.9 5.34,20.04 12.96,20.04 l 0.06,0 z m 0.18,-4.08 c -4.86,0 -7.98,-6.12 -7.86,-16.26 0,-9.78 3.12,-15.9 7.92,-15.9 5.52,0 7.92,6.3 7.92,15.9 0,9.96 -2.58,16.26 -7.92,16.26 l -0.06,0 z" /></g><text
       transform="scale(1,-1)"
       id="text4975"
       y="-389.36404"
       x="271.85751"
       style="font-style:normal;font-variant:normal;font-weight:normal;font-stretch:normal;font-size:8px;line-height:1000%;font-family:'Myriad Pro';-inkscape-font-specification:'Myriad Pro';letter-spacing:0px;word-spacing:0px;fill:#000000;fill-opacity:1;stroke:none;stroke-width:1px;stroke-linecap:butt;stroke-linejoin:miter;stroke-opacity:1"
       xml:space="preserve"><tspan
         y="-389.36404"
         x="271.85751"
         id="tspan4977" /></text>
</g></svg>