<?xml version="1.0" encoding="UTF-8" standalone="no"?>
<svg
   xmlns:dc="http://purl.org/dc/elements/1.1/"
   xmlns:cc="http://creativecommons.org/ns#"
   xmlns:rdf="http://www.w3.org/1999/02/22-rdf-syntax-ns#"
   xmlns:svg="http://www.w3.org/2000/svg"
   xmlns="http://www.w3.org/2000/svg"
   xmlns:xlink="http://www.w3.org/1999/xlink"
   xmlns:sodipodi="http://sodipodi.sourceforge.net/DTD/sodipodi-0.dtd"
   xmlns:inkscape="http://www.inkscape.org/namespaces/inkscape"
   viewBox="0 0 515.34595 206.7005"
   height="206.7005"
   width="515.34595"
   xml:space="preserve"
   version="1.1"
   id="svg2"
   inkscape:version="0.91 r13725"
   sodipodi:docname="version.svg"><sodipodi:namedview
     pagecolor="#ffffff"
     bordercolor="#666666"
     borderopacity="1"
     objecttolerance="10"
     gridtolerance="10"
     guidetolerance="10"
     inkscape:pageopacity="0"
     inkscape:pageshadow="2"
     inkscape:window-width="906"
     inkscape:window-height="551"
     id="namedview19"
     showgrid="false"
     inkscape:zoom="0.68303632"
     inkscape:cx="293.46993"
     inkscape:cy="11.815393"
     inkscape:window-x="0"
     inkscape:window-y="27"
     inkscape:window-maximized="0"
     inkscape:current-layer="g10" /><metadata
     id="metadata8"><rdf:RDF><cc:Work
         rdf:about=""><dc:format>image/svg+xml</dc:format><dc:type
           rdf:resource="http://purl.org/dc/dcmitype/StillImage" /><dc:title /></cc:Work></rdf:RDF></metadata><defs
     id="defs6"><linearGradient
       id="linearGradient4393"><stop
         id="stop4395"
         offset="0"
         style="stop-color:#ffffff;stop-opacity:1;" /><stop
         id="stop4397"
         offset="1"
         style="stop-color:#ffffff;stop-opacity:0;" /></linearGradient><linearGradient
       id="linearGradient4391"><stop
         id="stop4371"
         offset="0"
         style="stop-color:#000000;stop-opacity:1;" /><stop
         id="stop4373"
         offset="1"
         style="stop-color:#89a08d;stop-opacity:0" /></linearGradient><linearGradient
       gradientUnits="userSpaceOnUse"
       y2="-908.45941"
       x2="258.72241"
       y1="-297.76407"
       x1="261.4053"
       id="linearGradient4375"
       xlink:href="#linearGradient4391" /><linearGradient
       gradientUnits="userSpaceOnUse"
       y2="727.53418"
       x2="300.34143"
       y1="28.951206"
       x1="300.75177"
       id="linearGradient4399"
       xlink:href="#linearGradient4393" /></defs><g
     transform="matrix(1.25,0,0,-1.25,-54.684033,594.95409)"
     id="g10"><path
       id="rect4214"
       d="m 86.888714,-449.10648 325.993796,0 c 9.02172,0 16.28469,9.62465 16.28469,21.57992 l 0,68.48697 c 0,11.95527 -7.26297,21.57991 -16.28469,21.57991 l -325.993796,0 c -9.021717,0 -16.284687,-9.62464 -16.284687,-21.57991 l 0,-68.48697 c 0,-11.95527 7.26297,-21.57992 16.284687,-21.57992 z"
       style="fill:#000000;fill-opacity:1;stroke:url(#linearGradient4375);stroke-width:53.71360016;stroke-linecap:round;stroke-linejoin:round;stroke-miterlimit:4;stroke-dasharray:none;stroke-opacity:0.11299432"
       transform="scale(1,-1)" /><text
       id="text4975"
       y="-389.36404"
       x="271.85751"
       style="font-style:normal;font-variant:normal;font-weight:normal;font-stretch:normal;font-size:8px;line-height:1000%;font-family:'Myriad Pro';-inkscape-font-specification:'Myriad Pro';letter-spacing:0px;word-spacing:0px;fill:#000000;fill-opacity:1;stroke:none;stroke-width:1px;stroke-linecap:butt;stroke-linejoin:miter;stroke-opacity:1"
       xml:space="preserve"
       transform="scale(1,-1)"><tspan
         y="-389.36404"
         x="271.85751"
         id="tspan4977" /></text>
<g
       transform="scale(1,-1)"
       style="font-style:normal;font-variant:normal;font-weight:normal;font-stretch:normal;font-size:8px;line-height:1000%;font-family:'Myriad Pro';-inkscape-font-specification:'Myriad Pro';letter-spacing:0px;word-spacing:0px;fill:#000000;fill-opacity:1;stroke:none;stroke-width:1px;stroke-linecap:butt;stroke-linejoin:miter;stroke-opacity:1"
       id="text4179"><path
         d="m 109.77911,-375.34625 -13.359379,-34.99219 4.945309,0 11.08594,29.46094 11.10938,-29.46094 4.92187,0 -13.33594,34.99219 -5.36718,0 z"
         style="font-style:normal;font-variant:normal;font-weight:normal;font-stretch:normal;font-size:48px;font-family:'Noto Sans Lisu';-inkscape-font-specification:'Noto Sans Lisu';fill:#ffffff"
         id="path4227" /><path
         d="m 152.08379,-389.54938 0,2.10938 -19.82812,0 q 0.28125,4.45312 2.67187,6.79687 2.41407,2.32032 6.70313,2.32032 2.48437,0 4.80469,-0.60938 2.34375,-0.60937 4.64062,-1.82812 l 0,4.07812 q -2.32031,0.98438 -4.75781,1.5 -2.4375,0.51563 -4.94531,0.51563 -6.28125,0 -9.96094,-3.65625 -3.65625,-3.65625 -3.65625,-9.89063 0,-6.44531 3.46875,-10.21875 3.49219,-3.79687 9.39844,-3.79687 5.29687,0 8.36718,3.42187 3.09375,3.39844 3.09375,9.25781 z m -4.3125,-1.26562 q -0.0469,-3.53906 -1.99218,-5.64844 -1.92188,-2.10937 -5.10938,-2.10937 -3.60937,0 -5.78906,2.03906 -2.15625,2.03906 -2.48438,5.74219 l 15.375,-0.0234 z"
         style="font-style:normal;font-variant:normal;font-weight:normal;font-stretch:normal;font-size:48px;font-family:'Noto Sans Lisu';-inkscape-font-specification:'Noto Sans Lisu';fill:#ffffff"
         id="path4229" /><path
         d="m 174.37286,-397.565 q -0.72657,-0.42188 -1.59375,-0.60938 -0.84375,-0.21093 -1.875,-0.21093 -3.65625,0 -5.625,2.39062 -1.94532,2.36719 -1.94532,6.82031 l 0,13.82813 -4.33593,0 0,-26.25 4.33593,0 0,4.07812 q 1.35938,-2.39062 3.53907,-3.53906 2.17968,-1.17187 5.29687,-1.17187 0.44531,0 0.98438,0.0703 0.53906,0.0469 1.19531,0.16406 l 0.0234,4.42969 z"
         style="font-style:normal;font-variant:normal;font-weight:normal;font-stretch:normal;font-size:48px;font-family:'Noto Sans Lisu';-inkscape-font-specification:'Noto Sans Lisu';fill:#ffffff"
         id="path4231" /><path
         d="m 195.67754,-400.82281 0,4.07812 q -1.82812,-0.9375 -3.79687,-1.40625 -1.96875,-0.46875 -4.07813,-0.46875 -3.21093,0 -4.82812,0.98438 -1.59375,0.98437 -1.59375,2.95312 0,1.5 1.14844,2.36719 1.14843,0.84375 4.61718,1.61719 l 1.47657,0.32812 q 4.59375,0.98438 6.51562,2.78906 1.94531,1.78125 1.94531,4.99219 0,3.65625 -2.90625,5.78906 -2.88281,2.13282 -7.94531,2.13282 -2.10937,0 -4.40625,-0.42188 -2.27344,-0.39844 -4.80469,-1.21875 l 0,-4.45312 q 2.39063,1.24218 4.71094,1.875 2.32031,0.60937 4.59375,0.60937 3.04688,0 4.6875,-1.03125 1.64063,-1.05469 1.64063,-2.95312 0,-1.75782 -1.19532,-2.69532 -1.17187,-0.9375 -5.17968,-1.80468 l -1.5,-0.35157 q -4.00782,-0.84375 -5.78907,-2.57812 -1.78125,-1.75781 -1.78125,-4.80469 0,-3.70312 2.625,-5.71875 2.625,-2.01562 7.45313,-2.01562 2.39062,0 4.5,0.35156 2.10937,0.35156 3.89062,1.05469 z"
         style="font-style:normal;font-variant:normal;font-weight:normal;font-stretch:normal;font-size:48px;font-family:'Noto Sans Lisu';-inkscape-font-specification:'Noto Sans Lisu';fill:#ffffff"
         id="path4233" /><path
         d="m 203.97442,-401.59625 4.3125,0 0,26.25 -4.3125,0 0,-26.25 z m 0,-10.21875 4.3125,0 0,5.46094 -4.3125,0 0,-5.46094 z"
         style="font-style:normal;font-variant:normal;font-weight:normal;font-stretch:normal;font-size:48px;font-family:'Noto Sans Lisu';-inkscape-font-specification:'Noto Sans Lisu';fill:#ffffff"
         id="path4235" /><path
         d="m 227.45879,-398.57281 q -3.46875,0 -5.48437,2.71875 -2.01563,2.69531 -2.01563,7.40625 0,4.71093 1.99219,7.42968 2.01563,2.69532 5.50781,2.69532 3.44532,0 5.46094,-2.71875 2.01563,-2.71875 2.01563,-7.40625 0,-4.66407 -2.01563,-7.38282 -2.01562,-2.74218 -5.46094,-2.74218 z m 0,-3.65625 q 5.625,0 8.83594,3.65625 3.21094,3.65625 3.21094,10.125 0,6.44531 -3.21094,10.125 -3.21094,3.65625 -8.83594,3.65625 -5.64843,0 -8.85937,-3.65625 -3.1875,-3.67969 -3.1875,-10.125 0,-6.46875 3.1875,-10.125 3.21094,-3.65625 8.85937,-3.65625 z"
         style="font-style:normal;font-variant:normal;font-weight:normal;font-stretch:normal;font-size:48px;font-family:'Noto Sans Lisu';-inkscape-font-specification:'Noto Sans Lisu';fill:#ffffff"
         id="path4237" /><path
         d="m 268.45098,-391.19 0,15.84375 -4.3125,0 0,-15.70313 q 0,-3.72656 -1.45312,-5.57812 -1.45313,-1.85156 -4.35938,-1.85156 -3.49219,0 -5.50781,2.22656 -2.01563,2.22656 -2.01563,6.07031 l 0,14.83594 -4.33593,0 0,-26.25 4.33593,0 0,4.07812 q 1.54688,-2.36718 3.63282,-3.53906 2.10937,-1.17187 4.85156,-1.17187 4.52344,0 6.84375,2.8125 2.32031,2.78906 2.32031,8.22656 z"
         style="font-style:normal;font-variant:normal;font-weight:normal;font-stretch:normal;font-size:48px;font-family:'Noto Sans Lisu';-inkscape-font-specification:'Noto Sans Lisu';fill:#ffffff"
         id="path4239" /><path
         d="m 293.81036,-379.33063 7.73437,0 0,-26.69531 -8.41406,1.6875 0,-4.3125 8.36719,-1.6875 4.73437,0 0,31.00781 7.73438,0 0,3.98438 -20.15625,0 0,-3.98438 z"
         style="font-style:normal;font-variant:normal;font-weight:normal;font-stretch:normal;font-size:48px;font-family:'Noto Sans Lisu';-inkscape-font-specification:'Noto Sans Lisu';fill:#ffffff"
         id="path4241" /><path
         d="m 323.55254,-381.29938 4.94532,0 0,5.95313 -4.94532,0 0,-5.95313 z"
         style="font-style:normal;font-variant:normal;font-weight:normal;font-stretch:normal;font-size:48px;font-family:'Noto Sans Lisu';-inkscape-font-specification:'Noto Sans Lisu';fill:#ffffff"
         id="path4243" /><path
         d="m 351.84161,-406.21344 -11.95313,18.67969 11.95313,0 0,-18.67969 z m -1.24219,-4.125 5.95312,0 0,22.80469 4.99219,0 0,3.9375 -4.99219,0 0,8.25 -4.71093,0 0,-8.25 -15.79688,0 0,-4.57031 14.55469,-22.17188 z"
         style="font-style:normal;font-variant:normal;font-weight:normal;font-stretch:normal;font-size:48px;font-family:'Noto Sans Lisu';-inkscape-font-specification:'Noto Sans Lisu';fill:#ffffff"
         id="path4245" /><path
         d="m 379.52129,-407.22125 q -3.65625,0 -5.50781,3.60937 -1.82812,3.58594 -1.82812,10.80469 0,7.19531 1.82812,10.80469 1.85156,3.58594 5.50781,3.58594 3.67969,0 5.50782,-3.58594 1.85156,-3.60938 1.85156,-10.80469 0,-7.21875 -1.85156,-10.80469 -1.82813,-3.60937 -5.50782,-3.60937 z m 0,-3.75 q 5.88282,0 8.97657,4.66406 3.11718,4.64063 3.11718,13.5 0,8.83594 -3.11718,13.5 -3.09375,4.64063 -8.97657,4.64063 -5.88281,0 -9,-4.64063 -3.09375,-4.66406 -3.09375,-13.5 0,-8.85937 3.09375,-13.5 3.11719,-4.66406 9,-4.66406 z"
         style="font-style:normal;font-variant:normal;font-weight:normal;font-stretch:normal;font-size:48px;font-family:'Noto Sans Lisu';-inkscape-font-specification:'Noto Sans Lisu';fill:#ffffff"
         id="path4247" /></g></g></svg>