<?xml version="1.0" encoding="UTF-8" standalone="no"?>
<svg
   xmlns:dc="http://purl.org/dc/elements/1.1/"
   xmlns:cc="http://creativecommons.org/ns#"
   xmlns:rdf="http://www.w3.org/1999/02/22-rdf-syntax-ns#"
   xmlns:svg="http://www.w3.org/2000/svg"
   xmlns="http://www.w3.org/2000/svg"
   xmlns:xlink="http://www.w3.org/1999/xlink"
   xmlns:sodipodi="http://sodipodi.sourceforge.net/DTD/sodipodi-0.dtd"
   xmlns:inkscape="http://www.inkscape.org/namespaces/inkscape"
   viewBox="0 0 515.34595 206.7005"
   height="206.7005"
   width="515.34595"
   xml:space="preserve"
   version="1.1"
   id="svg2"
   inkscape:version="0.91 r13725"
   sodipodi:docname="version.svg"><sodipodi:namedview
     pagecolor="#ffffff"
     bordercolor="#666666"
     borderopacity="1"
     objecttolerance="10"
     gridtolerance="10"
     guidetolerance="10"
     inkscape:pageopacity="0"
     inkscape:pageshadow="2"
     inkscape:window-width="1920"
     inkscape:window-height="1016"
     id="namedview4183"
     showgrid="false"
     inkscape:zoom="0.68303632"
     inkscape:cx="257.67297"
     inkscape:cy="214.82447"
     inkscape:window-x="0"
     inkscape:window-y="27"
     inkscape:window-maximized="1"
     inkscape:current-layer="svg2" /><metadata
     id="metadata8"><rdf:RDF><cc:Work
         rdf:about=""><dc:format>image/svg+xml</dc:format><dc:type
           rdf:resource="http://purl.org/dc/dcmitype/StillImage" /><dc:title /></cc:Work></rdf:RDF></metadata><defs
     id="defs6"><linearGradient
       id="linearGradient4393"><stop
         id="stop4395"
         offset="0"
         style="stop-color:#ffffff;stop-opacity:1;" /><stop
         id="stop4397"
         offset="1"
         style="stop-color:#ffffff;stop-opacity:0;" /></linearGradient><linearGradient
       id="linearGradient4391"><stop
         id="stop4371"
         offset="0"
         style="stop-color:#000000;stop-opacity:1;" /><stop
         id="stop4373"
         offset="1"
         style="stop-color:#89a08d;stop-opacity:0" /></linearGradient><linearGradient
       gradientUnits="userSpaceOnUse"
       y2="-907.65967"
       x2="268.90701"
       y1="-297.76407"
       x1="261.4053"
       id="linearGradient4375"
       xlink:href="#linearGradient4391" /><linearGradient
       gradientUnits="userSpaceOnUse"
       y2="727.53418"
       x2="300.34143"
       y1="28.951206"
       x1="300.75177"
       id="linearGradient4399"
       xlink:href="#linearGradient4393" /></defs><g
     transform="matrix(1.25,0,0,-1.25,-54.684033,594.95409)"
     id="g10"><path
       id="rect4214"
       d="m 86.888714,-449.10648 325.993796,0 c 9.02172,0 16.28469,9.62465 16.28469,21.57992 l 0,68.48697 c 0,11.95527 -7.26297,21.57991 -16.28469,21.57991 l -325.993796,0 c -9.021717,0 -16.284687,-9.62464 -16.284687,-21.57991 l 0,-68.48697 c 0,-11.95527 7.26297,-21.57992 16.284687,-21.57992 z"
       style="fill:#000000;fill-opacity:1;stroke:url(#linearGradient4375);stroke-width:53.71360016;stroke-linecap:round;stroke-linejoin:round;stroke-miterlimit:4;stroke-dasharray:none;stroke-opacity:0.11299432"
       transform="scale(1,-1)" /><g
       id="flowRoot3388"
       style="font-style:normal;font-variant:normal;font-weight:normal;font-stretch:normal;font-size:10px;line-height:15.0000006%;font-family:'Myriad Pro';-inkscape-font-specification:'Myriad Pro';letter-spacing:0px;word-spacing:0px;fill:url(#linearGradient4399);fill-opacity:1;stroke:none;stroke-width:1px;stroke-linecap:butt;stroke-linejoin:miter;stroke-opacity:1"
       transform="matrix(0.79999989,4.1167198e-4,4.1167198e-4,-0.79999989,25.0034,436.00325)"><path
         id="path4440"
         style="font-style:normal;font-variant:normal;font-weight:normal;font-stretch:normal;font-size:75px;font-family:'Myriad Pro';-inkscape-font-specification:'Myriad Pro';fill:url(#linearGradient4399);fill-opacity:1"
         d="m 118.99023,81.148438 18.075,-50.55 -6.975,0 -8.55,24.975 c -2.325,6.6 -4.35,12.975 -5.775,18.825 l -0.15,0 c -1.425,-5.85 -3.3,-12.075 -5.4,-18.9 l -7.875,-24.9 -7.124996,0 16.574996,50.55 7.2,0 z" /><path
         id="path4442"
         style="font-style:normal;font-variant:normal;font-weight:normal;font-stretch:normal;font-size:75px;font-family:'Myriad Pro';-inkscape-font-specification:'Myriad Pro';fill:url(#linearGradient4399);fill-opacity:1"
         d="m 169.04453,64.198438 c 0.15,-0.75 0.225,-1.725 0.225,-3.075 0,-6.675 -3.075,-17.1 -14.925,-17.1 -10.575,0 -17.1,8.625 -17.1,19.575 0,10.875 6.75,18.3 17.85,18.3 5.775,0 9.825,-1.275 12.15,-2.325 l -1.2,-4.725 c -2.4,1.05 -5.325,1.875 -10.05,1.875 -6.6,0 -12.225,-3.675 -12.375,-12.525 l 25.425,0 z m -25.35,-4.725 c 0.525,-4.575 3.375,-10.725 10.125,-10.725 7.35,0 9.15,6.525 9.075,10.725 l -19.2,0 z" /><path
         id="path4444"
         style="font-style:normal;font-variant:normal;font-weight:normal;font-stretch:normal;font-size:75px;font-family:'Myriad Pro';-inkscape-font-specification:'Myriad Pro';fill:url(#linearGradient4399);fill-opacity:1"
         d="m 177.51602,81.148438 6.6,0 0,-19.425 c 0,-1.05 0.075,-2.1 0.225,-3.075 0.9,-4.875 4.2,-8.4 8.85,-8.4 0.9,0 1.575,0.075 2.25,0.15 l 0,-6.225 c -0.6,-0.075 -1.125,-0.15 -1.8,-0.15 -4.425,0 -8.475,3.075 -10.125,7.95 l -0.225,0 -0.3,-7.125 -5.775,0 c 0.225,3.375 0.3,7.05 0.3,11.325 l 0,24.975 z" /><path
         id="path4446"
         style="font-style:normal;font-variant:normal;font-weight:normal;font-stretch:normal;font-size:75px;font-family:'Myriad Pro';-inkscape-font-specification:'Myriad Pro';fill:url(#linearGradient4399);fill-opacity:1"
         d="m 199.50391,79.348438 c 2.55,1.5 6.225,2.55 10.2,2.55 8.475,0 13.5,-4.5 13.5,-10.95 0,-5.4 -3.3,-8.55 -9.525,-10.875 -4.725,-1.875 -6.825,-3.225 -6.825,-6.225 0,-2.7 2.1,-4.95 6,-4.95 3.375,0 6,1.275 7.425,2.1 l 1.575,-4.725 c -1.95,-1.275 -5.175,-2.25 -8.85,-2.25 -7.725,0 -12.525,4.8 -12.525,10.65 0,4.275 3.075,7.875 9.675,10.275 4.8,1.8 6.675,3.45 6.675,6.6 0,3.075 -2.25,5.4 -6.975,5.4 -3.3,0 -6.75,-1.35 -8.775,-2.55 l -1.575,4.95 z" /><path
         id="path4448"
         style="font-style:normal;font-variant:normal;font-weight:normal;font-stretch:normal;font-size:75px;font-family:'Myriad Pro';-inkscape-font-specification:'Myriad Pro';fill:url(#linearGradient4399);fill-opacity:1"
         d="m 238.31523,81.148438 0,-36.3 -6.6,0 0,36.3 6.6,0 z m -3.375,-42.45 c 2.55,0 4.125,-1.875 4.125,-4.05 0,-2.325 -1.65,-4.125 -4.05,-4.125 -2.475,0 -4.125,1.8 -4.125,4.125 0,2.175 1.575,4.05 3.975,4.05 l 0.075,0 z" /><path
         id="path4450"
         style="font-style:normal;font-variant:normal;font-weight:normal;font-stretch:normal;font-size:75px;font-family:'Myriad Pro';-inkscape-font-specification:'Myriad Pro';fill:url(#linearGradient4399);fill-opacity:1"
         d="m 264.14336,81.973438 c 8.625,0 18,-5.85 18,-19.35 0,-11.025 -7.05,-18.6 -17.475,-18.6 -9.975,0 -18,7.125 -18,19.275 0,11.475 7.65,18.675 17.4,18.675 l 0.075,0 z m 0.15,-4.95 c -6.375,0 -10.875,-6 -10.875,-13.95 0,-6.9 3.375,-14.1 11.1,-14.1 7.8,0 10.875,7.725 10.875,13.875 0,8.25 -4.725,14.175 -11.025,14.175 l -0.075,0 z" /><path
         id="path4452"
         style="font-style:normal;font-variant:normal;font-weight:normal;font-stretch:normal;font-size:75px;font-family:'Myriad Pro';-inkscape-font-specification:'Myriad Pro';fill:url(#linearGradient4399);fill-opacity:1"
         d="m 290.45547,81.148438 6.6,0 0,-21.9 c 0,-1.05 0.15,-2.25 0.45,-3.075 1.2,-3.675 4.575,-6.75 8.85,-6.75 6.225,0 8.4,4.95 8.4,10.8 l 0,20.925 6.6,0 0,-21.675 c 0,-12.45 -7.8,-15.45 -12.825,-15.45 -6,0 -10.2,3.375 -12,6.75 l -0.15,0 -0.375,-5.925 -5.85,0 c 0.225,3 0.3,6 0.3,9.825 l 0,26.475 z" /><path
         id="path4454"
         style="font-style:normal;font-variant:normal;font-weight:normal;font-stretch:normal;font-size:75px;font-family:'Myriad Pro';-inkscape-font-specification:'Myriad Pro';fill:url(#linearGradient4399);fill-opacity:1"
         d="m 360.24883,81.148438 6.375,0 0,-48.75 -5.625,0 -10.65,5.7 1.275,5.025 8.475,-4.575 0.15,0 0,42.6 z" /><path
         id="path4456"
         style="font-style:normal;font-variant:normal;font-weight:normal;font-stretch:normal;font-size:75px;font-family:'Myriad Pro';-inkscape-font-specification:'Myriad Pro';fill:url(#linearGradient4399);fill-opacity:1"
         d="m 389.39922,81.973438 c 2.7,0 4.5,-2.025 4.5,-4.725 0,-2.775 -1.8,-4.725 -4.425,-4.725 -2.625,0 -4.5,2.025 -4.5,4.725 0,2.7 1.8,4.725 4.35,4.725 l 0.075,0 z" /><path
         id="path4458"
         style="font-style:normal;font-variant:normal;font-weight:normal;font-stretch:normal;font-size:75px;font-family:'Myriad Pro';-inkscape-font-specification:'Myriad Pro';fill:url(#linearGradient4399);fill-opacity:1"
         d="m 415.57656,81.973438 c 10.65,0 16.875,-9.15 16.875,-25.725 0,-15.525 -5.925,-24.675 -16.125,-24.675 -9.9,0 -17.025,8.925 -17.025,25.35 0.15,16.125 6.675,25.05 16.2,25.05 l 0.075,0 z m 0.225,-5.1 c -6.075,0 -9.975,-7.65 -9.825,-20.325 0,-12.225 3.9,-19.875 9.9,-19.875 6.9,0 9.9,7.875 9.9,19.875 0,12.45 -3.225,20.325 -9.9,20.325 l -0.075,0 z" /><path
         id="path4460"
         style="font-style:normal;font-variant:normal;font-weight:normal;font-stretch:normal;font-size:75px;font-family:'Myriad Pro';-inkscape-font-specification:'Myriad Pro';fill:url(#linearGradient4399);fill-opacity:1"
         d="m 454.10195,81.973438 c 10.65,0 16.875,-9.15 16.875,-25.725 0,-15.525 -5.925,-24.675 -16.125,-24.675 -9.9,0 -17.025,8.925 -17.025,25.35 0.15,16.125 6.675,25.05 16.2,25.05 l 0.075,0 z m 0.225,-5.1 c -6.075,0 -9.975,-7.65 -9.825,-20.325 0,-12.225 3.9,-19.875 9.9,-19.875 6.9,0 9.9,7.875 9.9,19.875 0,12.45 -3.225,20.325 -9.9,20.325 l -0.075,0 z" /></g><text
       transform="scale(1,-1)"
       id="text4975"
       y="-389.36404"
       x="271.85751"
       style="font-style:normal;font-variant:normal;font-weight:normal;font-stretch:normal;font-size:8px;line-height:1000%;font-family:'Myriad Pro';-inkscape-font-specification:'Myriad Pro';letter-spacing:0px;word-spacing:0px;fill:#000000;fill-opacity:1;stroke:none;stroke-width:1px;stroke-linecap:butt;stroke-linejoin:miter;stroke-opacity:1"
       xml:space="preserve"><tspan
         y="-389.36404"
         x="271.85751"
         id="tspan4977" /></text>
</g></svg>