<!DOCTYPE svg PUBLIC "-//W3C//DTD SVG 20010904//EN"
"http://www.w3.org/TR/2001/REC-SVG-20010904/DTD/svg10.dtd"
[
 <!ATTLIST svg
  xmlns:xlink CDATA #FIXED "http://www.w3.org/1999/xlink">
]><svg xmlns="http://www.w3.org/2000/svg" xmlns:xlink="http://www.w3.org/1999/xlink" width="280mm" height="140mm"><defs><linearGradient id="a"><stop offset="0"/><stop offset="1" stop-color="#fff"/></linearGradient><linearGradient xlink:href="#a"/><linearGradient xlink:href="#a"/></defs><path font-size="12" fill="#eea400" fill-rule="evenodd" d="M-.6 0h992.126v496.063h-992.126z"/><path font-size="12" fill="#00005b" fill-rule="evenodd" d="M0 0h348.043v496.063h-348.043z"/><path d="M141.002 129.334l19.812-11.081-13.333-18.894 20.65 9.265 5.833-22.664 5.938 22.634 20.607-9.368-13.245 18.96 19.863 10.982-22.455 1.008 4.162 23.062-14.755-17.703-14.674 17.777 4.055-23.084-22.459-.895zm90.663 85.45l19.093-11.081-12.849-18.894 19.901 9.265 5.621-22.664 5.722 22.634 19.859-9.368-12.764 18.96 19.142 10.982-21.64 1.008 4.011 23.062-14.219-17.703-14.141 17.777 3.908-23.084-21.643-.895zm-97.865 193.43l19.093-10.686-12.849-18.22 19.901 8.935 5.621-21.856 5.722 21.828 19.859-9.034-12.764 18.284 19.142 10.591-21.64.972 4.011 22.241-14.219-17.072-14.141 17.144 3.908-22.261-21.643-.863zm-89.257-167.957l19.093-10.291-12.849-17.547 19.901 8.605 5.621-21.049 5.722 21.021 19.859-8.7-12.764 17.609 19.142 10.199-21.64.936 4.011 21.419-14.219-16.441-14.141 16.51 3.908-21.438-21.643-.831zm149.892 66.172l5.791-14.752-11.82-10.556 15.819.949 6.388-14.503 3.985 15.338 15.768 1.593-13.356 8.53 3.357 15.488-12.24-10.066-13.692 7.979z" font-size="12" fill="#fff" fill-rule="evenodd"/><g fill-rule="evenodd"><path d="M611.58 186.892v95.669c0 47.834 61.54 71.752 73.374 71.752 11.835 0 68.641-23.918 68.641-71.752v-95.669h-142.015z" fill="#00005b"/><path font-size="12" fill="#fff" d="M662.469 311.262h41.421v.957h-41.421zm0-2.87h41.421v.957h-41.421zm0-2.87h41.421v.957h-41.421zm0-2.87h41.421v.957h-41.421zm1.184-11.481h41.421v.957h-41.421zm-1.184 8.61h41.421v.957h-41.421zm0-2.869h41.421v.957h-41.421zm1.184-8.611h41.421v.957h-41.421zm-1.184 5.741h41.421v.957h-41.421zm1.184-8.611h41.421v.957h-41.421zm18.935-.957h1.183v28.7h-1.183zm3.551.001h1.183v28.7h-1.183zm-7.101 0h1.183v28.7h-1.183zm-3.551 0h1.183v28.7h-1.183zm-3.55 0h1.183v28.7h-1.183zm-3.55 0h1.183v28.7h-1.183zm-3.551 0h1.183v28.7h-1.183zm28.403 0h1.183v28.7h-1.183zm-3.55 0h1.183v28.7h-1.183zm7.101 0h1.183v28.7h-1.183zm3.55 0h1.183v28.7h-1.183z"/><path font-size="12" fill="#fff" stroke="#00005b" stroke-width="1.134pt" d="M641.339-411.024h63.78v88.583h-63.78z" transform="matrix(.334 0 0 .269 457.777 364.071)"/><path font-size="12" fill="#00005b" d="M650.682 276.275h65.091v1.165h-65.091z"/><path d="M627.165-187.795c0-60.236 35.036-82.106 46.063-81.496 10.233-.61 46.063 21.26 46.906 81.827 9.787-.331 34.59-.331 34.59-.331v-102.756h-166.535v102.756h38.976z" transform="matrix(.419 0 0 .343 400.517 377.937)" fill="#fff" stroke="#00005b" stroke-width="1pt"/><path d="M600.821-464.173v-7.087h-7.702v-7.087h-3.082v7.087h-9.243v-7.087h-3.081v7.087h-10.784v-7.087h-3.081v7.087h-10.784v-7.087h-3.081v7.087h-9.244v-7.087h-3.081v7.087h-7.703v7.087h70.866z" transform="matrix(1.019 0 0 -.329 107.268 124.831)" font-size="12" fill="#fff" stroke-width="1pt" stroke="#00005b"/><path d="M599.28-481.89l1.541-7.086h-6.162v-7.087h-6.162v7.087h-6.162v-7.087h-6.163v7.087h-7.702v-7.087h-6.163v7.087h-7.703v-7.087h-6.162v7.087h-6.162v-7.087h-6.162v7.087h-6.163l-1.541 7.086h70.866z" transform="matrix(1.013 0 0 .329 110.471 434.709)" font-size="12" fill="#fff" stroke-width="1pt" stroke="#00005b"/><path font-size="12" fill="#fff" stroke-width="1pt" stroke="#00005b" d="M496.063-230.315h106.299v53.15h-106.299zm251.575 0h106.299v53.15h-106.299z" transform="matrix(.334 0 0 .269 457.777 364.071)"/><path d="M744.094-265.748l-17.716 35.433h106.299l-17.716-35.433h-70.867z" transform="matrix(.334 0 0 .269 464.878 364.071)" font-size="12" fill="#fff" stroke-width="1pt" stroke="#00005b"/><path d="M744.094-265.748l-17.716 35.433h106.299l-17.716-35.433h-70.867z" transform="matrix(.334 0 0 .269 380.852 364.071)" font-size="12" fill="#fff" stroke-width="1pt" stroke="#00005b"/><path d="M744.094-265.748l10.63-177.165h49.606l10.631 177.165h-70.867z" transform="matrix(.334 0 0 .188 380.852 342.625)" font-size="12" fill="#fff" stroke-width="1pt" stroke="#00005b"/><path d="M744.094-265.748l10.631-177.165h49.606l10.63 177.165h-70.867z" transform="matrix(.334 0 0 .188 464.878 342.625)" font-size="12" fill="#fff" stroke-width="1pt" stroke="#00005b"/><path d="M744.094-460.63l10.631 17.717h49.606l10.63-17.717h-70.867z" transform="matrix(.334 0 0 .269 464.878 378.368)" font-size="12" fill="#fff" stroke-width="1pt" stroke="#00005b"/><path d="M744.094-460.63l10.63 17.716h49.606l10.631-17.716h-70.867z" transform="matrix(.334 0 0 .269 380.852 378.368)" font-size="12" fill="#fff" stroke-width="1pt" stroke="#00005b"/><path d="M531.496-496.063v35.433h70.866v-35.433h-3.543v7.087h-7.087v-7.087h-7.086v7.087h-14.174v-7.087h-7.086v7.087h-14.173v-7.087h-7.087v7.087h-7.087v-7.087h-3.543z" transform="matrix(.334 0 0 .161 451.86 328.805)" font-size="12" fill="#fff" stroke-width="1pt" stroke="#00005b"/><path d="M531.496-496.063v35.433h70.866v-35.433h-3.543v7.087h-7.087v-7.087h-7.086v7.087h-14.174v-7.087h-7.086v7.087h-14.173v-7.087h-7.087v7.087h-7.087v-7.087h-3.543z" transform="matrix(.334 0 0 .161 535.886 328.804)" font-size="12" fill="#fff" stroke-width="1pt" stroke="#00005b"/><path d="M746.928-460.63l5.67 17.716h51.024l5.669-17.716h-62.363z" transform="matrix(.418 0 0 .269 357.779 372.649)" font-size="12" fill="#fff" stroke-width="1pt" stroke="#00005b"/><path d="M531.496-496.063v35.433h70.866v-35.433h-3.543v7.087h-7.087v-7.087h-7.086v7.087h-14.174v-7.087h-7.086v7.087h-14.173v-7.087h-7.087v7.087h-7.087v-7.087h-3.543z" transform="matrix(.367 0 0 .161 474.344 323.086)" font-size="12" fill="#fff" stroke-width="1pt" stroke="#00005b"/><path d="M635.249 265.34h1.184v2.87h2.367v.957h-2.367v3.827h-1.184v-3.827h-2.367v-.957h2.367v-2.87zm10.651 15.307h1.184v2.87h2.367v.957h-2.367v3.827h-1.184v-3.827h-2.367v-.957h2.367v-2.87zm85.211-15.307h-1.184v2.87h-2.367v.957h2.367v3.827h1.184v-3.827h2.367v-.957h-2.367v-2.87zm-10.651 15.307h-1.184v2.87h-2.367v.957h2.367v3.827h1.184v-3.827h2.367v-.957h-2.367v-2.87zm-36.688-20.09h-1.184v2.87h-2.367v.957h2.367v3.827h1.184v-3.827h2.367v-.957h-2.367v-2.87z" fill="#00005b"/><path d="M35.433-17.716l35.433 17.717c17.717 0 17.717 17.717 0 17.717l-35.433-17.717c-17.69-1.568-17.717-17.717 0-17.717z" transform="matrix(.047 .091 -.115 .041 639.168 228.161)" fill="#00005b" stroke="#fff"/><path d="M35.433-17.716l35.433 17.716c17.717 0 17.717 17.717 0 17.717l-35.433-17.717c-17.69-1.568-17.717-17.716 0-17.716z" transform="matrix(.047 .091 -.115 .041 641.206 227.435)" fill="#00005b" stroke="#fff"/><path d="M35.433-17.716l35.433 17.717c17.717 0 17.717 17.717 0 17.717l-35.433-17.717c-17.69-1.568-17.717-17.717 0-17.717z" transform="matrix(.047 .091 -.115 .041 637.131 228.888)" fill="#00005b" stroke="#fff"/><path d="M35.433-17.716l35.433 17.717c17.717 0 17.717 17.717 0 17.717l-35.433-17.717c-17.69-1.568-17.717-17.717 0-17.717z" transform="matrix(.047 .091 -.115 .041 635.093 229.614)" fill="#00005b" stroke="#fff"/><path d="M35.433-17.716l35.433 17.717c17.717 0 17.717 17.717 0 17.717l-35.433-17.717c-17.69-1.568-17.717-17.717 0-17.717z" transform="matrix(.047 .091 -.115 .041 633.056 230.341)" fill="#00005b" stroke="#fff"/><path d="M35.433-17.716l35.433 17.717c17.717 0 17.717 17.717 0 17.717l-35.433-17.717c-17.69-1.568-17.717-17.717 0-17.717z" transform="matrix(.047 .091 -.115 .041 628.981 231.793)" fill="#00005b" stroke="#fff"/><path d="M35.433-17.716l35.433 17.716c17.717 0 17.717 17.717 0 17.717l-35.433-17.717c-17.69-1.568-17.717-17.716 0-17.716z" transform="matrix(.047 .091 -.115 .041 631.019 231.067)" fill="#00005b" stroke="#fff"/><path d="M35.433-17.716l35.433 17.717c17.717 0 17.717 17.717 0 17.717l-35.433-17.717c-17.69-1.568-17.717-17.717 0-17.717z" transform="matrix(.047 .091 -.115 .041 626.944 232.52)" fill="#00005b" stroke="#fff"/><path d="M35.433-17.716l35.433 17.717c17.717 0 17.717 17.717 0 17.717l-35.433-17.717c-17.69-1.568-17.717-17.717 0-17.717z" transform="matrix(.047 .091 -.115 .041 624.906 233.246)" fill="#00005b" stroke="#fff"/><path d="M35.433-17.716l35.433 17.717c17.717 0 17.717 17.717 0 17.717l-35.433-17.717c-17.69-1.568-17.717-17.717 0-17.717zm0 17.716l35.433 17.716h-35.433c-17.69-1.568-17.717-17.716 0-17.716z" transform="matrix(.047 .091 -.115 .041 622.869 233.972)" fill="#00005b" stroke="#fff"/><path d="M35.433-53.15l7.087-602.362 10.63-53.149 14.173 53.149 3.543 602.362h-35.433z" transform="matrix(.047 .091 -.143 .051 637.681 228.691)" fill="#fffffe" stroke="#00005b"/><path d="M-17.716-124.016h141.733l35.433-35.433 17.716 17.717-53.149 53.149h-141.733l-53.15-53.149 17.717-21.26 35.433 38.976z" transform="matrix(.047 .091 -.115 .041 631.019 231.067)" fill="#fffffe" stroke="#00005b"/><path d="M17.716-17.716h70.866c17.716 0 17.716 35.433 0 35.433h-70.866c-17.69-1.568-17.717-35.433 0-35.433z" transform="matrix(.047 .091 -.115 .041 618.794 235.425)" fill="#fffffe" stroke="#00005b"/><g fill="#fff" stroke-width="3.75" stroke="#000042"><path font-size="12" d="M648.402 201.547l84.827 35.681-2.693 4.642-84.827-35.681zm58.04 24.414l2.232.939-2.693 4.642-2.232-.939zm11.161 4.695l2.232.939-2.693 4.642-2.232-.939zm-33.484-14.085l2.232.939-2.693 4.642-2.232-.939zm11.161 4.695l2.232.939-2.693 4.642-2.232-.939zm-35.716-15.024l2.232.939-2.693 4.642-2.232-.939zm13.393 5.634l2.232.939-2.693 4.642-2.232-.939zm-24.555-10.329l2.232.939-2.693 4.642-2.232-.939z"/><path d="M648.268 201.578l-3.87-7.489-12.968 3.207-4.465-1.878 18.779-3.65 2.523 9.81zm-2.559 4.611l-9.39 1.825-4.89-10.719-4.465-1.878 8.008 14.917 10.736-4.146zm-19.63-14.031l-3.579 1.382.886 3.26 10.276 1.435-7.583-6.077z"/></g><g fill="#fff" stroke="#00005b" stroke-width="5"><path d="M667.173 327.546l4.429-6.732h8.858l2.215 6.732 2.215-6.732h8.858l4.429 6.732-8.858 3.366 8.858-1.683 2.215 6.732-4.429 5.049-8.858-5.173 6.644 6.856-8.894 3.634-8.822-3.634 4.472-6.4-10.652 11.402-2.4-1.482 11.102-10.262-6.95 5.059-6.852-3.577 2.423-8.205 8.858 1.683-8.858-3.366z"/><path d="M17.717-212.598a53.15 53.15 0 1 0-106.299 0 53.15 53.15 0 1 0 106.299 0h-53.15z" transform="matrix(.125 0 0 .095 687.151 353.024)"/></g><path d="M17.716-354.331l35.433 53.15h230.315l35.433-53.15-141.733-88.582-10.058-17.717-7.658 17.717-141.733 88.582zm35.433 0h230.315l-115.432-70.866-114.883 70.866zm-1.54 17.433l16.803 26.405 37.886-1.2-10.281-24.921-44.409-.284zm231.854.284l-16.803 26.405h-36.347l8.742-26.405h44.408zm-168.242 0c8.794-.917 44.227 0 44.227 0v24.921h-35.433l-8.794-24.921zm106.17.407c-8.794-.917-44.227 0-44.227 0v24.921h35.433l8.794-24.921z" transform="matrix(.157 0 0 .15 656.181 275.64)" font-size="12" fill="#fff" stroke="#00005b" stroke-width="3.75"/></g><path d="M698.525 275.223c4.801-4.8-36.006-19.203-19.203-45.608 16.803-26.405 55.21-7.201 64.811 31.206 9.602 38.407-16.803 88.816-14.402 134.424 2.4 45.609-7.202 40.807 4.801 79.214-9.602-4.8-26.405-33.605-28.805-74.413-2.401-40.807 9.601-88.816 4.8-93.617" transform="matrix(.819 -.311 .261 .563 161.259 252.195)" fill="#fff" fill-rule="evenodd" stroke="#00005b" stroke-width="2.18"/><path d="M700.926 354.438c9.601 4.8 55.21 48.008 67.212 74.413 4.801 19.203 12.001 40.807-14.403 38.406-16.803-2.4-7.201-24.003-16.803-31.205-9.601-7.201-45.608-33.606-45.608-36.006 0-2.401 7.201-38.407 9.602-45.608z" transform="matrix(.675 0 0 .611 361.081 33.881)" fill="#fff" fill-rule="evenodd" stroke="#00005b" stroke-width="2.5"/><path d="M691.324 467.258l-2.4 62.411s-26.405-2.4-43.208 7.201c-16.803 9.602-28.805 16.803-26.405 16.803 2.401 0 28.805-14.402 40.807-14.402 12.003 0 19.204 14.402 21.604 12.002 2.401-2.401 14.403-16.803 31.206-16.803 16.803 0 40.807 9.602 38.407 7.201-2.401-2.4-36.007-16.803-40.808-21.604l-4.8-48.008c-4.801 0-9.602 0-14.403-4.801z" transform="matrix(.418 0 0 .476 534.489 91.469)" fill="#fff" fill-rule="evenodd" stroke="#00005b" stroke-width="3.601"/><path d="M713.669 479.885l-24.745 49.784s-26.405-2.4-43.208 7.201c-16.803 9.602-28.805 16.803-26.405 16.803 2.401 0 28.805-14.402 40.807-14.402 12.003 0 19.204 14.402 21.604 12.002 2.401-2.401 14.403-16.803 31.206-16.803 16.803 0 40.807 9.602 38.407 7.201-2.401-2.4-36.007-16.803-40.808-21.604-4.8-4.801 22.345-35.381 17.545-35.381-4.801 0-9.602 0-14.403-4.801z" transform="matrix(-.07 .374 -.517 -.08 1079.38 58.845)" fill="#fff" fill-rule="evenodd" stroke="#00005b" stroke-width="3.601"/><path d="M648.116 407.247c-7.201 0-45.608-4.801-50.409 9.602-4.801 14.402 57.611 24.004 57.611 21.604 0-2.401-4.801-26.405-7.202-31.206zm-36.006-211.238c20.055-22.61 48.189-38.554 60.011-24.004 19.384 23.856-62.412 69.612-69.613 112.82-7.201 43.208 26.405 74.413 31.206 103.219 4.8 28.805 4.801 48.008 19.203 55.21 14.403 7.201 28.805 2.4 28.805 2.4s-4.8 28.805 14.403 26.405c12.002 0-2.401-117.621 2.4-165.63 4.801-48.008-36.006-60.01-36.006-60.01s50.956-48.27 38.407-74.414c-16.256-33.867-40.808-24.004-57.611-19.203-16.802 4.8-32.169 9.149-49.415 25.846-16.657 16.948-31.787 67.77-24.998 66.073l43.208-48.712z" transform="matrix(.675 0 0 .611 361.081 33.881)" fill="#fff" fill-rule="evenodd" stroke="#00005b" stroke-width="2.5"/><path d="M655.318 371.241s0 31.205 2.4 28.805c2.4-2.401 12.002-21.604 12.002-21.604s7.201 33.606 7.201 31.205c0-2.4 7.202-24.004 7.202-24.004s2.4 36.007 4.801 36.007c2.4 0 9.601-21.604 9.601-21.604s7.202 45.608 7.202 40.807c0-4.801 7.201-26.405 7.201-24.004 0 2.4 12.002 52.809 12.002 50.409 0-2.401-2.4-172.831-2.4-172.831l-40.808 4.801" transform="matrix(.675 0 0 .611 362.7 30.948)" fill="#fff" fill-rule="evenodd" stroke="#00005b" stroke-width="2.5"/><path d="M662.519 280.024c2.4 0 31.205 0 36.006-4.801 4.801-4.8-36.006-19.203-19.203-45.608 16.803-26.405 55.21-7.201 64.811 31.206 9.602 38.407-16.803 88.816-14.402 134.424 2.4 45.609-7.202 40.807 4.801 79.214-9.602-4.8-26.405-33.605-28.805-74.413-2.401-40.807 9.601-88.816 4.8-93.617-4.8-4.801-26.404 0-26.404 0" transform="matrix(.887 0 0 .611 208.827 35.349)" fill="#fff" fill-rule="evenodd" stroke="#00005b" stroke-width="2.18"/><path d="M762.418 164.382s4.2-3.714 4.64-4.63c-1.179-.183-3.301-.945-4.876-2.316-3.257-3.211-4.715-10.004-4.715-9.486 0 .519-6.251 10.607-6.251 10.607l11.203 5.825z" fill="#01015c" fill-rule="evenodd"/><path d="M600.108 184.907c3.001-3.001 9.902-9.602 9.902-9.602" transform="matrix(.859 0 0 .803 249.889 -.329)" stroke="#01015c" stroke-width="1.934" fill="none"/><path d="M612.41 181.906a3.151 7.801 0 1 0-6.301 0 3.151 7.801 0 1 0 6.301 0h-3.15z" transform="matrix(.349 .263 -.295 .311 611.176 -71.617)" stroke="#01015c" stroke-width="2.5" fill="none"/><g font-size="12"><path d="M698.525 275.223c4.801-4.8-36.006-19.203-19.203-45.608 16.803-26.405 55.21-7.201 64.811 31.206 9.602 38.407-16.803 88.816-14.402 134.424 2.4 45.609-7.202 40.807 4.801 79.214-9.602-4.8-26.405-33.605-28.805-74.413-2.401-40.807 9.601-88.816 4.8-93.617" transform="matrix(-.819 -.311 -.261 .563 1203.144 252.197)" fill="#00005b" fill-rule="evenodd" stroke="#eea400" stroke-width="2.18"/><path d="M700.926 354.438c9.601 4.8 55.21 48.008 67.212 74.413 4.801 19.203 12.001 40.807-14.403 38.406-16.803-2.4-7.201-24.003-16.803-31.205-9.601-7.201-45.608-33.606-45.608-36.006 0-2.401 7.201-38.407 9.602-45.608z" transform="matrix(-.675 0 0 .611 1003.322 33.884)" fill="#00005b" fill-rule="evenodd" stroke="#eea400" stroke-width="2.5"/><path d="M691.324 467.258l-2.4 62.411s-26.405-2.4-43.208 7.201c-16.803 9.602-28.805 16.803-26.405 16.803 2.401 0 28.805-14.402 40.807-14.402 12.003 0 19.204 14.402 21.604 12.002 2.401-2.401 14.403-16.803 31.206-16.803 16.803 0 40.807 9.602 38.407 7.201-2.401-2.4-36.007-16.803-40.808-21.604l-4.8-48.008c-4.801 0-9.602 0-14.403-4.801z" transform="matrix(-.418 0 0 .476 829.914 91.471)" fill="#fff" fill-rule="evenodd" stroke="#00005b" stroke-width="3.601"/><path d="M713.669 479.885l-24.745 49.784s-26.405-2.4-43.208 7.201c-16.803 9.602-28.805 16.803-26.405 16.803 2.401 0 28.805-14.402 40.807-14.402 12.003 0 19.204 14.402 21.604 12.002 2.401-2.401 14.403-16.803 31.206-16.803 16.803 0 40.807 9.602 38.407 7.201-2.401-2.4-36.007-16.803-40.808-21.604-4.8-4.801 22.345-35.381 17.545-35.381-4.801 0-9.602 0-14.403-4.801z" transform="matrix(.07 .374 .517 -.08 287.161 61.06)" fill="#fff" fill-rule="evenodd" stroke="#00005b" stroke-width="3.601"/><path d="M648.116 407.247c-7.201 0-45.608-4.801-50.409 9.602-4.801 14.402 57.611 24.004 57.611 21.604 0-2.401-4.801-26.405-7.202-31.206zm-36.006-211.238c20.055-22.61 48.189-38.554 60.011-24.004 19.384 23.856-62.412 69.612-69.613 112.82-7.201 43.208 26.405 74.413 31.206 103.219 4.8 28.805 4.801 48.008 19.203 55.21 14.403 7.201 28.805 2.4 28.805 2.4s-4.8 28.805 14.403 26.405c12.002 0-2.401-117.621 2.4-165.63 4.801-48.008-36.006-60.01-36.006-60.01s50.956-48.27 38.407-74.414c-16.256-33.867-40.808-24.004-57.611-19.203-16.802 4.8-32.169 9.149-49.415 25.846-16.657 16.948-31.787 67.77-24.998 66.073l43.208-48.712z" transform="matrix(-.675 0 0 .611 1003.322 33.884)" fill="#00005b" fill-rule="evenodd" stroke="#eea400" stroke-width="2.5"/><path d="M655.318 371.241s0 31.205 2.4 28.805c2.4-2.401 12.002-21.604 12.002-21.604s7.201 33.606 7.201 31.205c0-2.4 7.202-24.004 7.202-24.004s2.4 36.007 4.801 36.007c2.4 0 9.601-21.604 9.601-21.604s7.202 45.608 7.202 40.807c0-4.801 7.201-26.405 7.201-24.004 0 2.4 12.002 52.809 12.002 50.409 0-2.401-2.4-172.831-2.4-172.831l-40.808 4.801" transform="matrix(-.675 0 0 .611 1001.703 30.95)" fill="#00005b" fill-rule="evenodd" stroke="#eea400" stroke-width="2.5"/><path d="M662.519 280.024c2.4 0 31.205 0 36.006-4.801 4.801-4.8-36.006-19.203-19.203-45.608 16.803-26.405 55.21-7.201 64.811 31.206 9.602 38.407-16.803 88.816-14.402 134.424 2.4 45.609-7.202 40.807 4.801 79.214-9.602-4.8-26.405-33.605-28.805-74.413-2.401-40.807 9.601-88.816 4.8-93.617-4.8-4.801-26.404 0-26.404 0" transform="matrix(-.887 0 0 .611 1155.576 35.351)" fill="#00005b" fill-rule="evenodd" stroke="#eea400" stroke-width="2.18"/><path d="M602.022 164.383s-4.2-3.714-4.64-4.63c1.179-.183 3.301-.945 4.876-2.316 3.257-3.211 4.715-10.004 4.715-9.486 0 .519 6.251 10.607 6.251 10.607l-11.203 5.825z" fill="#fff" fill-rule="evenodd"/><path d="M600.108 184.907c3.001-3.001 9.902-9.602 9.902-9.602" transform="matrix(-.859 0 0 .803 1114.514 -.327)" stroke="#fff" stroke-width="1.934" fill="none"/><path d="M612.41 181.906a3.151 7.801 0 1 0-6.301 0 3.151 7.801 0 1 0 6.301 0h-3.15z" transform="matrix(-.349 .263 .295 .311 753.227 -71.615)" stroke="#fff" stroke-width="2.5" fill="none"/></g></svg>