<svg version="1" width="6.04in" height="4.03in" viewBox="0 0 543.861 362.571" xmlns="http://www.w3.org/2000/svg"><path font-size="12" fill="#fff" fill-rule="evenodd" d="M0 .001h543.861v362.571h-543.861z"/><path d="M430.557 249.268c2.463 2.749 4.607 5.316 6.326 8.158 4.791 7.936 6.404 16.552 3.723 23.521-5.324 14.746-7.369 18.488-7.369 30.232h3.785c.238-12.916 5.107-21.564 12.344-24.158 3.186-1.229 7.318-.62 11.105 3.277 4.688 4.824 6.053 18.113-7.709 20.67 1.457-2.166 1.334-6.908-1.58-8.583-2.229-1.114-4.744-.678-5.92.28-1.893 1.145-3.715 4.805-3.715 8.514l6.535-.008v7.297l-13.564-.008c.176 3.754 2.225 6.76 6.033 8.436-.492 1.58-2.789 4.805-5.943 4.586-.621 3.412-1.215 5.328-4.051 8.428-2.836-3.1-3.428-5.016-4.051-8.428-3.156.219-5.453-3.006-5.943-4.586 3.809-1.676 5.857-4.682 6.033-8.436l-13.563.008-.002-7.297 6.535.008c0-3.709-1.822-7.369-3.717-8.514-1.176-.958-3.691-1.395-5.918-.28-2.914 1.675-3.037 6.417-1.582 8.583-13.762-2.557-12.396-15.846-7.709-20.67 3.789-3.897 7.92-4.506 11.105-3.277 7.238 2.594 12.107 11.242 12.344 24.158h3.785c0-11.744-2.043-15.486-7.367-30.232-2.682-6.97-1.07-15.586 3.723-23.521 1.717-2.842 3.862-5.409 6.327-8.158zm-113.307-22.66h226.611v135.963h-226.611v-135.963zm113.307-203.947c2.463 2.75 4.607 5.316 6.326 8.16 4.791 7.935 6.404 16.551 3.723 23.521-5.324 14.747-7.369 18.49-7.369 30.232h3.785c.238-12.917 5.107-21.563 12.344-24.159 3.186-1.229 7.318-.62 11.105 3.278 4.688 4.824 6.053 18.114-7.709 20.67 1.457-2.166 1.334-6.909-1.58-8.583-2.229-1.114-4.744-.678-5.92.28-1.893 1.145-3.715 4.806-3.715 8.514l6.535-.009v7.298l-13.564-.008c.176 3.754 2.225 6.761 6.033 8.435-.492 1.582-2.789 4.806-5.943 4.587-.621 3.412-1.215 5.328-4.051 8.427-2.836-3.1-3.428-5.016-4.051-8.427-3.156.218-5.453-3.005-5.943-4.587 3.809-1.674 5.857-4.681 6.033-8.435l-13.563.008-.002-7.298 6.535.009c0-3.708-1.822-7.369-3.717-8.514-1.176-.958-3.691-1.394-5.918-.28-2.914 1.674-3.037 6.417-1.582 8.583-13.762-2.556-12.396-15.846-7.709-20.67 3.789-3.897 7.92-4.507 11.105-3.278 7.238 2.595 12.107 11.242 12.344 24.159h3.785c0-11.742-2.043-15.486-7.367-30.232-2.682-6.97-1.07-15.586 3.723-23.521 1.717-2.844 3.862-5.411 6.327-8.16zm-113.307-22.661h226.611v135.964h-226.611v-135.964zm-203.943 249.268c2.463 2.749 4.607 5.316 6.324 8.158 4.793 7.936 6.404 16.552 3.725 23.521-5.326 14.746-7.369 18.488-7.369 30.232h3.785c.236-12.916 5.107-21.564 12.344-24.158 3.186-1.229 7.318-.62 11.105 3.277 4.688 4.824 6.053 18.113-7.709 20.67 1.457-2.166 1.332-6.908-1.58-8.583-2.229-1.114-4.744-.678-5.92.28-1.893 1.145-3.715 4.805-3.715 8.514l6.535-.008-.002 7.297-13.564-.008c.178 3.754 2.225 6.76 6.033 8.436-.49 1.58-2.787 4.805-5.941 4.586-.623 3.412-1.215 5.328-4.051 8.428-2.838-3.1-3.43-5.016-4.053-8.428-3.154.219-5.451-3.006-5.941-4.586 3.809-1.676 5.855-4.682 6.033-8.436l-13.564.008v-7.297l6.533.008c0-3.709-1.82-7.369-3.715-8.514-1.176-.958-3.691-1.395-5.918-.28-2.914 1.675-3.039 6.417-1.582 8.583-13.762-2.557-12.396-15.846-7.709-20.67 3.789-3.897 7.92-4.506 11.105-3.277 7.238 2.594 12.107 11.242 12.344 24.158h3.785c0-11.744-2.043-15.486-7.367-30.232-2.682-6.97-1.07-15.586 3.723-23.521 1.716-2.842 3.861-5.409 6.326-8.158zm-113.307-22.66h226.611v135.963h-226.611v-135.963zm113.307-203.947c2.463 2.75 4.607 5.316 6.324 8.16 4.793 7.935 6.404 16.551 3.725 23.521-5.326 14.747-7.369 18.49-7.369 30.232h3.785c.236-12.917 5.107-21.563 12.344-24.159 3.186-1.229 7.318-.62 11.105 3.278 4.688 4.824 6.053 18.114-7.709 20.67 1.457-2.166 1.332-6.909-1.58-8.583-2.229-1.114-4.744-.678-5.92.28-1.893 1.145-3.715 4.806-3.715 8.514l6.535-.009-.002 7.298-13.564-.008c.178 3.754 2.225 6.761 6.033 8.435-.49 1.582-2.787 4.806-5.941 4.587-.623 3.412-1.215 5.328-4.051 8.427-2.838-3.1-3.43-5.016-4.053-8.427-3.154.218-5.451-3.005-5.941-4.587 3.809-1.674 5.855-4.681 6.033-8.435l-13.564.008v-7.298l6.533.009c0-3.708-1.82-7.369-3.715-8.514-1.176-.958-3.691-1.394-5.918-.28-2.914 1.674-3.039 6.417-1.582 8.583-13.762-2.556-12.396-15.846-7.709-20.67 3.789-3.897 7.92-4.507 11.105-3.278 7.238 2.595 12.107 11.242 12.344 24.159h3.785c0-11.742-2.043-15.486-7.367-30.232-2.682-6.97-1.07-15.586 3.723-23.521 1.716-2.844 3.861-5.411 6.326-8.16zm-113.307-22.661h226.611v135.964h-226.611v-135.964z" font-size="12" fill="#0d2b88" fill-rule="evenodd"/></svg>