<svg xmlns="http://www.w3.org/2000/svg" width="210mm" height="140mm"><path font-size="12" fill="#199d00" fill-rule="evenodd" d="M0 0h744.094v496.063h-744.094z"/><path d="M370.795 277.772l-35.527 23.419c-14.615 1.034-28.788 1.181-43.846.443 0 0-31.445-5.314-39.417-19.044-.443-1.329 10.186-6.201 10.186-6.201 16.092 11.368 33.955 21.407 67.32 19.931-41.189-3.691-69.091-26.426-77.506-47.39 22.292-15.649 59.2-15.354 89.464 6.2-9.448-11.81-41.041-24.949-64.662-21.258-3.396-3.544-6.348-7.973-9.744-11.516 27.164-6.053 64.958 11.368 78.835 25.688-14.615-23.473-25.245-50.047-7.972-82.378l10.629 9.744c-12.991 23.768-8.267 51.523 2.215 70.862-18.159-37.498-3.544-74.553 20.372-92.564 27.902 16.83 35.875 61.562 19.488 93.451 9.3-5.315 16.83-45.176 3.986-71.749l8.858-10.629c19.34 26.13 7.677 68.205-8.415 84.149 12.253-10.63 43.993-31.445 81.049-26.573l-10.63 10.186c-30.412-1.181-55.065 11.81-65.99 23.03 26.721-17.715 63.628-26.574 90.792-6.643-12.548 33.512-48.128 43.551-77.506 46.503 24.949 1.919 48.128-5.462 66.877-18.601l10.629 5.758c-7.972 7.529-19.487 15.058-35.874 17.272-15.796 2.067-30.707 1.477-46.503 1.772-12.253-7.972-24.855-15.891-37.108-23.862z" font-size="12" fill="#feffff" fill-rule="evenodd"/><path d="M370.795 285.612l-30.378 22.861-81.424-.313c1 3.281 4.113 7.474 5.95 9.395l80.798.314 25.054-19.417 24.114 19.103h81.738c2.349-2.505 4.854-5.95 7.046-8.925l-82.834.157-30.064-23.175zm-46.663 78.522c23.384 11.542 73.074 10.595 95.518-.283l-95.518.283zm-53.773-38.749c.94 0 200.808-.157 200.808-.157-3.497 3.967-7.621 8.247-11.901 11.9l-178.627-.782c-3.353-2.325-7.813-7.75-10.28-10.961zm13.794 14.405l172.45.471c-3.236 2.505-5.845 5.48-9.551 7.359l-153.298-.13c-3.539-1.902-7.169-5.133-9.601-7.7zm15.709 12.834l140.927-.344c-3.758 2.413-7.986 4.983-12.683 7.24h-115.561c-3.915-1.359-8.456-4.284-12.683-6.896z" font-size="12" fill="#fff" fill-rule="evenodd"/><path font-size="12" fill="#feb700" fill-rule="evenodd" d="M445.547 153.272l-5.081-7.461-8.762 2.172 5.526-7.137-4.773-7.662 8.496 3.049 5.812-6.907-.275 9.023 8.365 3.393-8.666 2.526-.643 9.004zm-63.712-10.627l-10.07-6.886-9.956 7.049 3.437-11.704-9.781-7.29 12.194-.349 3.911-11.555 4.1 11.49 12.198.149-9.66 7.449 3.627 11.647zm105.953 60.069l-8.314-3.515-6.185 6.575.774-8.993-8.164-3.85 8.792-2.044 1.139-8.955 4.661 7.731 8.868-1.684-5.912 6.821 4.341 7.914zm-191.48-49.581l5.081-7.461 8.762 2.172-5.526-7.137 4.773-7.662-8.496 3.049-5.812-6.907.275 9.023-8.365 3.393 8.666 2.526.643 9.004zm-44.217 49.259l8.314-3.515 6.185 6.575-.774-8.993 8.164-3.85-8.792-2.044-1.139-8.955-4.661 7.731-8.868-1.684 5.912 6.821-4.341 7.914z"/></svg>