<svg xmlns="http://www.w3.org/2000/svg" width="210mm" height="140mm"><g font-size="12" fill-rule="evenodd"><path fill="#ff0" d="M0 248.031h744.094v248.031h-744.094z"/><path d="M0 0h744.094v248.031h-744.094z"/></g><g font-size="12"><path d="M249.53 88.575l23.89 255.963c14.79 49.675 58.588 83.994 104.661 85.889 49.485-2.464 94.99-45.314 102.384-92.147l10.807-253.687c-9.765-3.365-68.998-15.292-83.249-14.638l.134-7.901c-34.301-3.709-43.634-5.522-82.051 2.488l.311 5.99c-15.111 4.557-67.17 15.388-76.887 18.042z" fill="#ff0" fill-rule="evenodd" stroke="#ff0" stroke-width="4.403"/><path d="M252.395 92.275l23.324 249.896c14.439 48.498 57.199 82.003 102.18 83.853 48.312-2.406 92.738-44.24 99.957-89.963l10.551-247.674c-9.533-3.286-67.363-14.929-81.276-14.291l.131-7.713c-33.488-3.621-42.6-5.392-80.106 2.429l.304 5.848c-14.754 4.449-65.578 15.023-75.065 17.614z" fill="#ff0" fill-rule="evenodd" stroke="#000" stroke-width="4.3"/><path d="M277.669 196.886l12.585.787 29.105 18.878-13.373 10.226s-20.45-6.801-19.665 8.93l26.467.464 41.179-9.394v-4.719s11.012-.787 13.373-.787c2.359 0 38.542-17.305 38.542-17.305l3.147.787-3.147 22.024-11.798-.786c-3.24 1.511-4.258 4.966-4.72 7.865h28.317s.786-8.653 3.147-12.585c2.359-3.933 9.439-12.585 9.439-12.585s7.865 11.012 25.956 16.518c-13.005.507-10.224 8.653-10.224 8.653l22.024.786s1.573-17.304.786-17.304c-.786 0-2.497-5.321-11.012-2.36.093-5.369-2.406-23.736-9.439-24.384 4.074-3.98 9.301-6.756 7.865-18.091-3.933-14.945-22.024-11.799-22.024-11.799l-44.835 12.585s-17.305 4.72-19.665 0c-2.359-4.72 3.933-13.372 3.933-13.372s-17.305 4.719-14.159 15.732c3.147 11.012 25.171 6.293 25.171 6.293l45.623-13.372s20.45-3.146 18.877 8.653c-1.572 11.799-6.292 7.866-6.292 7.866s-3.933-3.933-11.799-3.147c-7.865.787-71.579 13.372-77.085 7.079 1.157-9.902-11.012-22.811-11.012-22.811l4.72-6.293-11.799 3.146s-12.585-5.506-31.464 6.293c-1.107 5.69 0 7.866 0 7.866s9.44-4.719 9.44 3.146c0 7.866-6.294 2.36-6.294 2.36v7.866s11.799-1.573 11.799-3.146l-1.85 6.94-16.241-.647s-18.093-15.732-23.599 3.146z" fill-rule="evenodd"/><path d="M173.908 66.641a1.453.565 0 1 0-2.907 0 1.453.565 0 1 0 2.907 0h-1.453z" transform="matrix(1.72 0 0 1.72 23.603 52.513)" fill="#fff" fill-rule="evenodd"/><path d="M280.723 275.984l12.238.793 28.304 19.003-13.005 10.295s-19.886-6.845-19.121 8.986l25.736.468 40.045-9.454v-4.753s10.709-.791 13.005-.791c2.294 0 37.477-17.419 37.477-17.419l3.061.791-3.061 22.172-11.471-.793c-3.15 1.522-4.141 4.999-4.591 7.917h27.538s.763-8.709 3.059-12.668c2.296-3.958 9.179-12.668 9.179-12.668s7.648 11.084 25.241 16.626c-12.647.511-9.942 8.709-9.942 8.709l21.415.793s1.53-17.419.765-17.419-2.428-5.358-10.709-2.376c.089-5.405-2.339-23.893-9.177-24.545 3.96-4.007 9.045-6.801 7.648-18.21-3.826-15.044-21.419-11.877-21.419-11.877l-43.599 12.668s-16.827 4.751-19.121 0c-2.294-4.751 3.823-13.459 3.823-13.459s-16.827 4.749-13.767 15.833c3.061 11.086 24.476 6.335 24.476 6.335l44.366-13.461s19.886-3.166 18.356 8.709c-.973 4.935-12.166 1.181-17.591 4.751-7.648.791-69.607 13.459-74.961 7.126 1.125-9.968-10.709-22.963-10.709-22.963l4.589-6.331-11.473 3.166s-12.238-5.542-30.597 6.335c-1.076 5.728 0 7.917 0 7.917s9.181-4.749 9.181 3.167c0 7.917-6.12 2.375-6.12 2.375v7.918s11.474-1.584 11.474-3.167c0-1.584-1.8 6.986-1.8 6.986l-15.792-.65s-17.594-15.837-22.949 3.164zm11.107 73.278l9.537.715 29.549 21.589-8.744 5.68s-15.496-6.175-14.9 8.108l20.053.423 41.198-8.807v-4.29s8.899-2.38 10.687-2.38c1.788 0 19.205-7.666 19.205-7.666l-.555 14.613-8.938-.717c-3.843.818-5.169 5.067-4.132 7.979h21.458c0-3.054 2.261-7.581 4.048-11.155 1.79-3.571 9.373-11.985 9.373-11.985s2.627 9.445 16.336 14.448c-9.853.461-13.856 1.75-12.468 8.415l21.408.16s1.193-15.72.595-15.72c-.595 0 1.162-4.555-5.289-1.867.071-4.875-1.823-21.558-7.15-22.144 3.083-3.616 10.935-5.305 9.846-15.6-2.98-13.574-18.077-9.884-22.798-10.161l-33.693 12.541c-1.943 1.111-14.222 3.455-16.009-.834-1.788-4.287 2.7-11.033 3.253-13.254-2.498 1.389-12.277 4.84-9.891 14.843 2.662 11.392 17.405 6.548 19.348 6.825l33.734-12.977c3.332-.279 20.495-3.965 19.302 6.747-1.314 7.231-13.089 3.009-19.259 3.731-5.96.715-54.236 14.367-58.407 8.653.875-8.995-9.177-18.499-9.177-18.499l2.466-7.379-7.829 4.524s-11.48-9.724-25.786.992c-.837 5.169 0 7.143 0 7.143s7.153-4.285 7.153 2.861c0 7.141-4.768 2.141-4.768 2.141v7.146s11.717-1.152 11.717-2.581c0-1.431-1.401 6.304-1.401 6.304l-21.192-1.419c-1.945-5.554-19.261-9.848-17.88 2.854z" fill-rule="evenodd"/><path d="M313.203 178.073c-.279 0-11.662.278-11.662.278s-4.999-12.217-12.494-10.273c5.831 5.276 4.997 8.607 4.997 8.607s-.832 5.553 4.999 5.831c5.831.278 14.993-1.388 14.993-1.388l-.832-3.054zm1.667 77.744s-1.945 2.222-7.22 2.222c-5.276 0-7.497-1.666-7.497-1.666s-1.665-5.831-1.665-7.497c0-1.666-6.11 8.608-.834 12.773 5.276 4.165 17.771-.279 17.771-.279l-.555-5.552zm-6.387 72.193s-1.389 5.831 5.276 5.552c6.663-.277 10.273-1.666 10.273-1.666l1.111 3.611s-8.885 3.886-12.773 3.886c-3.886 0-13.05-4.997-3.886-11.383z" fill="#f00" fill-rule="evenodd" stroke="#000" stroke-width="1.075"/><path d="M175.361 113.55a1.211.646 0 1 0-2.422 0 1.211.646 0 1 0 2.422 0h-1.211zm4.199 45.939a1.13.565 0 1 0-2.261 0 1.13.565 0 1 0 2.261 0h-1.131z" transform="matrix(1.72 0 0 1.72 23.603 52.513)" fill="#fff" fill-rule="evenodd"/><path d="M257.949 162.245s119.948-37.206 228.237-2.221" stroke="#000" stroke-width="4.3" fill="none"/><path d="M257.394 153.36s122.17-37.762 230.457-1.666m-231.568-3.887s109.399-38.317 231.568-2.221" stroke="#000" stroke-width="2.365" fill="none"/><path d="M330.696 85.055s27.21 44.426 27.765 43.871c.555-.555 9.44-11.662 9.44-11.662l-1.109-8.33-24.99-41.094-12.773 1.111 1.666 16.104z" fill="#f00" fill-rule="evenodd" stroke="#000" stroke-width="2.365"/><path d="M289.603 81.724l3.331 41.649s9.44 11.662 20.547 11.107c11.106-.555 17.771-15.549 17.771-15.549l-2.222-43.315-39.427 6.109zm-38.318 12.772l38.318-11.106 3.331 42.204s-6.108 14.994-14.993 15.549c-9.997 4.998-22.768-10.551-22.768-10.551l-3.888-36.096z" fill="#fff" fill-rule="evenodd" stroke="#000" stroke-width="2.365"/><path d="M488.407 87.277l-.555 32.209s-10.551 24.434-24.433 19.436c-13.884-4.998-16.105-20.547-16.105-20.547l2.222-38.873 38.872 7.774z" fill="#f00" fill-rule="evenodd" stroke="#000" stroke-width="2.365"/><path d="M407.331 74.504l43.315 6.109s-2.777 38.873-3.332 38.873c-.555 0-9.996 15.549-23.324 12.217-13.326-3.332-17.214-17.925-17.214-17.925l.555-39.274z" fill-rule="evenodd" stroke="#000" stroke-width="2.365"/><path d="M367.346 66.175l39.984 1.111-1.111 47.202s-9.44 18.326-19.991 15.549c-10.551-2.777-17.771-15.549-17.771-15.549l-1.111-48.313zm-36.65 53.311s13.884 12.217 18.881 11.662c13.328-.555 18.325-15.549 18.325-15.549" stroke="#000" stroke-width="2.365" fill="none"/><path d="M308.483 80.058l3.673 53.239s-9.346.024-17.933-10.561l-1.135-13.482 36.131-5.423-1.348-26.738-19.388 2.966z" fill-rule="evenodd"/><path d="M256.577 130.534l4.148-22.155 7.776 16.104 2.775-19.436 7.776 17.215 1.665-19.436 10.529 18.113-2.753-35.873-35.955 10.551 4.041 34.917z" fill="#f00" fill-rule="evenodd"/><path d="M377.555 109.22c-2.975-.85-6.056 3.932-3.401 6.695 2.657 2.763 6.801-.425 5.845-2.975-.956-2.55 18.808-1.275 21.252.85-1.381-2.55-2.232-2.657-3.826-3.188-1.594-.531-1.592-4.25 1.169-7.757-2.655 0-3.613-.956-6.056 4.357-1.806 1.807-.849-6.376.638-6.269 1.487.106-5.207-.638-5.738 6.269-1.912 2.338-1.381-5.419-.851-6.588-2.655 1.275-4.144 2.975-4.144 7.013-1.701 1.7-2.443-4.675-1.486-5.207.956-.531-4.039.425-3.401 6.801zm-.265-14.903c-3.154-.795-6.422 3.677-3.606 6.26 2.817 2.583 7.212-.397 6.197-2.782-1.013-2.385 19.947-1.192 22.538.795-1.465-2.385-2.368-2.484-4.058-2.981-1.69-.497-1.689-3.974 1.24-7.253-2.815 0-3.831-.894-6.422 4.074-1.914 1.689-.901-5.962.677-5.862 1.577.099-5.521-.596-6.085 5.862-2.027 2.186-1.465-5.067-.903-6.16-2.817 1.192-4.395 2.782-4.395 6.558-1.804 1.59-2.591-4.372-1.575-4.869 1.013-.497-4.283.397-3.608 6.359zm-.495-15.408c-3.322-.795-6.765 3.677-3.798 6.26 2.968 2.583 7.599-.397 6.529-2.782-1.066-2.385 17.931-1.618 20.98-.693-.588-1.322-.581-.996-1.511-1.493-1.143-1.984-1.78-3.974 1.305-7.253-2.964 0-4.036-.894-6.765 4.074-2.017 1.689-.949-5.962.714-5.862 1.661.099-5.817-.596-6.412 5.862-2.136 2.186-1.542-5.067-.951-6.16-2.966 1.192-4.629 2.782-4.629 6.558-1.9 1.59-2.731-4.372-1.659-4.869 1.066-.497-4.514.397-3.802 6.359z" fill-rule="evenodd"/><path d="M448.961 97.107s36.236 5.632 39.106 9.563l-.318 12.857-1.916 3.401c-4.356-1.275-22.208-8.713-38.253-9.457l1.381-16.364z" fill="#fff" fill-rule="evenodd" stroke="#000" stroke-width="NaN"/><path d="M487.109 129.516s-3.4 7.757-8.924 9.67c4.887.956 8.713.638 8.713.638l.212-10.307zm-46.541 1.7c1.063-.638 4.144-2.869 5.738-4.994 1.168 2.55 1.274 3.932 2.762 6.163-1.806-.638-6.801-.956-8.5-1.169z" fill-rule="evenodd" stroke="#000" stroke-width="NaN"/><path d="M443.542 93.069s1.487-.425 1.276-2.975c-.213-2.55-2.125-2.444-3.081-2.125-.958.319-3.401 1.806-2.977 4.25.425 2.444 4.039 12.645 3.826 14.345-.213 1.7-3.295 5.844-3.933 5.632" stroke="#ff0" stroke-width="2.15" stroke-linecap="round" fill="none"/><path d="M435.361 119.209s3.613-2.338 3.4-7.013c-.212-4.676-5.845-7.332-5.845-7.332s-2.443-1.275-2.55-3.188c-.105-1.913 3.613-4.463 4.251-7.651.638-3.188-.638-6.376-3.719-7.438-3.081-1.063-7.119-2.019-8.393-1.275-1.276.744 1.806 2.125 2.124 2.125.32 0 .958.425.32.956-.638.531-3.613.319-3.401 1.275.213.956 3.401 1.913 5.207 1.488 1.807-.425-4.356 3.613-4.78 3.719-.426.106-3.719-4.782-4.039-4.782-.318 0 .851-5.526-3.081-5.313-3.931.213-2.232 3.188-2.232 3.188s-.743 1.488.638 3.082c1.383 1.594 2.445 6.376 5.1 6.907 2.657.531-4.675 7.544-4.78 7.544-.107 0-2.763-3.188-2.657-1.806.107 1.381-1.169 3.082-.638 3.719.531.638-2.125 2.763 1.487 3.507 3.613.744 4.464-1.913 4.251-2.338-.213-.425 4.251-.531 5.1-1.488.851-.956 4.357-4.25 4.357-4.25s-2.977 3.825-1.594 5.1c1.381 1.275 3.824 2.125 3.824 2.125s-7.437-.319-7.757 1.063c-.318 1.381 1.489 4.994-.531 4.569-2.019-.425-3.293-2.444-4.569-2.231-1.274.213-2.762 3.506-2.125 4.782.638 1.275.956 4.251 2.339 4.569 1.381.319 5.631-.213 5.525-1.381-.107-1.169 3.826.213 4.569-2.019.745-2.232 3.826-6.057 3.401-7.544-.425-1.488-1.063 4.782.425 6.269 1.487 1.488 2.339 3.294 1.594 4.038-.745.744-2.019 2.656-3.081 2.55-1.063-.106-5.1-1.913-4.357-.637.745 1.275-2.975 2.975-.212 3.294 2.762.319 1.594 2.657 3.188 2.338 1.592-.319 9.031-3.4 9.776-4.782.743-1.381-1.383-4.356-.531-5.738z" fill="#ff0" fill-rule="evenodd"/><path d="M427.284 84.249c.107-1.063-1.912-4.038-1.912-4.038s13.177.106 13.813 4.25c-3.293 3.4-2.975 2.232-4.569 3.932-1.169-1.7-3.4-3.294-7.332-4.144z" fill="#8a0000" fill-rule="evenodd" stroke="#8a0000" stroke-width="NaN"/><path d="M401.522 127.172c.891-.68 3.43-2.99 4.634-5.042 1.348 2.122 1.601 3.33 3.2 5.135-1.707-.364-6.269-.093-7.834-.093zm-37.083-.156c.861-.659 3.302-2.878 4.416-4.809 1.438 1.895 1.742 2.994 3.415 4.589-1.721-.267-6.268.159-7.831.22zm-36.685 3.292c.782-.752 2.958-3.23 3.85-5.273 1.64 1.723 2.065 2.78 3.907 4.178-1.74-.073-6.211.859-7.757 1.095zm-36.47 5.148c.729-.804 2.731-3.425 3.48-5.524 1.754 1.606 2.251 2.632 4.184 3.901-1.74.047-6.137 1.283-7.664 1.624zm-34.088 2.383s1.685 3.632 4.424 4.528c-2.423.448-4.319.299-4.319.299l-.105-4.826z" fill-rule="evenodd" stroke="#000" stroke-width="NaN"/><path d="M252.395 92.275l23.324 249.896c14.439 48.498 57.199 82.003 102.18 83.853 48.312-2.406 92.738-44.24 99.957-89.963l10.551-247.674c-9.533-3.286-67.363-14.929-81.276-14.291l.131-7.713c-33.488-3.621-42.6-5.392-80.106 2.429l.304 5.848c-14.754 4.449-65.578 15.023-75.065 17.614z" stroke="#000" stroke-width="4.3" fill="none"/></g></svg>