<svg width="793.7pt" height="396.85pt" xmlns="http://www.w3.org/2000/svg"><path font-size="12" fill="#fff" fill-rule="evenodd" d="M0 0h992.125v496.062h-992.125z"/><path d="M640.612 170.018zm-69.828-60.974l-12.374 63.103 86.399-.883-9.28-62.213" font-size="12" fill="#a11011"/><path font-size="12" fill="#a11011" fill-rule="evenodd" d="M515.304 75.334h26.517v6.629h-26.517zm-31.819 0h25.633v6.629h-25.633zm-32.704-.442h25.633v6.187h-25.633z"/><path d="M540.253 96.672zm-89.238-15.915v16.263h90.824v-15.915l-90.824-.348" font-size="12" fill="#a11011"/><path d="M462.07 103.744l-10.61 67.078 91.699.445-12.374-67.078m2.876 64.504z" font-size="12" fill="#a11011"/><path font-size="12" fill="#d61517" fill-rule="evenodd" d="M-1.412 373.388h994.48v123.763h-994.48z"/><path font-size="12" fill="#a11011" fill-rule="evenodd" d="M327.44 170.116h337.79v25.592h-337.79z"/><path d="M340.293 192.892l-7.147 127.816-36.725.442v20.544h401.493v-20.544l-36.725.442-7.144-128.091-313.752-.61z" fill="#a11011"/><path d="M445.789 227.505v21.124h5.184v-21.124h-5.184m7.775 0v21.124h41.469v-21.124h-41.469m44.061 0v21.124h38.877v-21.124h-38.877m41.469 0v21.124h7.775v-21.124h-7.775zm64.397 21.081zm-37.205-21.105v21.566h37.866v-21.105l-37.866-.461" font-size="12" fill="#d61517"/><path d="M554.645 297.308v22.865h28.51v-22.865h-28.51m31.102 0v14.291h5.184v-14.291h-5.184m36.285 0v14.291h5.184v-14.291h-5.184m7.775 0v22.865h28.51v-22.865h-28.51zm-72.571-23.268v20.682h5.184v-20.682h-5.184m7.775 0v20.682h18.143v-20.682h-18.143zm64.796 0v20.682h18.58v-20.682h-18.58m21.234 0v20.682h5.309v-20.682h-5.309zm-95.19-78v5.613h99.934v-5.613h-99.934zm-210.075 78.442v20.682h17.518v-20.682h-17.518zm63.728-.442v21.566h18.143v-21.566h-18.143m20.734 0v21.566h5.184v-21.566h-5.184zm14.243-77.558v5.171h103.027v-5.171h-103.027zm-104.74.442v5.171h94.189v-5.171h-94.189z" font-size="12" fill="#d61517"/><path d="M551.168 194.714c-9.89.732 1.309 93.253 1.327 122.105 0 0 11.829-116.043-1.327-122.105z" font-size="12" fill="#fff"/><path d="M329.158 179.269v14.186h334.342v-14.186h-334.342z" font-size="12" fill="#d61517"/><path d="M438.03 195.156c-9.89.745 1.309 94.941 1.327 124.315 0 0 11.829-118.143-1.327-124.315z" font-size="12" fill="#fff"/><path d="M335.428 274.482v20.682h7.978v-20.682h-7.978zm-.202 22.384v23.334h28.51l-.156-23.305-28.354-.029m28.012 22.835zm325.441 20.001zm-391.461-17.645v18.031h398.415v-17.645l-398.415-.385m112.254-24.75v22.553h27.626v-22.53l-27.626-.023m27.144 22.071zm6.444-22.513v22.865h28.51l-.156-22.837-28.354-.029m28.012 22.376zm47.56-21.933v22.865h31.603l-.155-22.837-31.448-.029m31.052 22.376zm-167.086-70.674zm-37.1-21.97v22.45h37.759v-21.97l-37.759-.48m-3.483 21.98zm-3.695-21.538v22.008h3.761v-21.538l-3.761-.47m87.031 21.97zm-39.302-21.97v22.45h40v-21.97l-40-.48m46.548 21.98zm-4.564-21.538v22.008h4.645v-21.538l-4.645-.47m155.323 43.663zm-26.275-20.24v20.682h26.742v-20.24l-26.742-.442m98.746 19.817zm-26.709-19.375v19.798h27.184v-19.375l-27.184-.423m-3.116 19.808zm-38.762-19.808v20.24h39.451v-19.808l-39.451-.433" font-size="12" fill="#d61517"/><path d="M553.247 178.582zm-4.564-8.995v9.192h4.645v-8.995l-4.645-.196" font-size="12" fill="#fff"/><path d="M562.962 248.154zm-4.998-20.673v21.124h5.087v-20.673l-5.087-.452m85.841 21.116zm-35.977-20.673v21.124h36.616v-20.673l-36.616-.452m47.02 20.674zm-7.169-20.673v21.124h7.297v-20.673l-7.297-.452m-67.355-2.758zm-22.801-21.105v21.566h23.206v-21.105l-23.206-.461m67.561 21.114zm-40.679-20.673v21.124h41.402v-20.673l-41.402-.452m68.367 20.665zm-24.538-21.105v21.566h24.974v-21.105l-24.974-.461m-185.175 68.942v21.124h11.716v-20.984l-11.716-.14m11.511 20.673zm2.631-20.231v21.124h14.497v-20.984l-14.497-.14m14.244 20.673zm47.186-20.231v21.124h18.787v-21.143l-18.787.018m18.459 20.673zm12.095.001zm-9.34-20.673v21.124h9.506v-20.673l-9.506-.452m-202.755-78.286v4.287h99.934v-4.287h-99.934zm102.53 0v4.287h110.54v-4.287h-110.54zm113.061-.442v4.287h105.755v-4.287h-105.755zm-189.854 76.863zm-26.275-20.673v21.124h26.742v-20.673l-26.742-.452m97.466 20.674zm-24.104-20.673v21.124h24.532v-20.673l-24.532-.452m-43.386.443v21.124h40.96l.156-20.984-41.116-.14m40.245 20.673zm38.054-21.999v21.124h27.184l.156-20.984-27.34-.14m26.709 20.673zm44.367 0zm-41.907-20.673v21.124h42.652l-.155-20.828-42.497-.296m45.078.442v21.124h27.626l.156-21.143-27.782.018m27.144 20.673zm-73.371-47.287zm-27.578-20.673v21.124h28.068v-20.673l-28.068-.452m71.6 21.107zm-41.548-21.105v21.566h42.286v-21.105l-42.286-.461m69.617 21.105zm-24.538-21.105v21.566h24.974v-21.105l-24.974-.461" font-size="12" fill="#d61517"/><path d="M428.479 177.089zm-71.592-60.974l-10.61 63.103 86.399-.883-9.723-63.541" font-size="12" fill="#a11011"/><path d="M461.387 120.249l-2.639 10.341h36.948v-10.341h-34.309m36.948 0v10.341h34.309v-10.341h-34.309zm-39.587 12.926v10.341h13.111v-10.341h-13.111m15.734 0v10.341h41.956v-10.341h-41.956m44.579 0v10.341h15.734v-10.341h-15.734zm-55.078-25.852l-2.643 10.341h10.571v-10.341h-7.928m10.571 0v10.341h42.285v-10.341h-42.285m44.927 0v10.341h10.571v-10.341h-10.571zm-68.508-23.268v5.171h44.502v-5.171h-44.502m47.12 0v5.171h41.885v-5.171h-41.885zm-47.12 7.756v5.171h20.734v-5.171h-20.734m23.326 0v5.171h41.469v-5.171h-41.469m44.061 0v5.171h20.734v-5.171h-20.734zm-33.694-15.512v5.171h23.326v-5.171h-23.326zm-155.508 95.656v5.171h20.734v-5.171h-20.734zm313.608 0v5.171h20.734v-5.171h-20.734zm-271.869 5.405zm-19.762-4.238v4.33h20.113v-4.238l-20.113-.093m64.003 4.695zm-17.156-3.626v3.705h17.461v-3.626l-17.461-.079" font-size="12" fill="#d61517"/><path d="M444.522 178.996zm-4.998-10.293v10.518h5.087v-10.293l-5.087-.225" font-size="12" fill="#fff"/><path d="M367.85 170.988zm-17.156-12.709v12.986h17.461v-12.709l-17.461-.278m27.467 12.719zm-8.906-12.276v12.544h9.064v-12.276l-9.064-.268m59.614 13.555zm-15.42-14.439v14.754h15.693v-14.439l-15.693-.315m-3.005 13.229zm-12.02-12.604v12.879h12.234v-12.604l-12.234-.275" font-size="12" fill="#d61517"/><path d="M434.545 176.429zm-19.328-6.4v6.54h19.671v-6.4l-19.671-.14m118.445-1.336zm-72.035-64.504l-11.053-7.169h90.821l-10.166 8.052" font-size="12" fill="#a11011"/><path d="M451.962 76.299v5.171h23.326v-5.171h-23.326zm64.082.442v5.171h24.652v-5.171h-24.652zm10.968 28.216zm-64.924-1.644v1.68h66.077v-1.644l-66.077-.036m68.36.76zm-71.873-1.644v1.68h73.15v-1.644l-73.15-.036m74.848.318zm-75.343-1.644v1.68h76.681v-1.644l-76.681-.036m75.343 1.644zm-75.343-1.644v1.68h76.681v-1.644l-76.681-.036m77.466-.123zm-78.38-1.644v1.68h79.772v-1.644l-79.772-.036m26.062 78.043zm-15.42-3.373v3.447h15.693v-3.373l-15.693-.074m54.349 3.373zm-13.248-3.373v3.447h13.484v-3.373l-13.484-.074m-147.758 51.148zm-21.065-21.538v22.008h21.439v-21.538l-21.439-.47m142.895-31.315zm-29.315-13.32v13.611h29.836v-13.32l-29.836-.291m87.288 13.32zm-24.867-13.32v13.611h25.309v-13.32l-25.309-.291m-3.545 13.32zm-7.169-13.32v13.611h7.297v-13.32l-7.297-.291" font-size="12" fill="#d61517"/><path d="M467.302 176.862zm-16.288-6.833v6.982h16.577v-6.833l-16.577-.149" font-size="12" fill="#a11011"/><path d="M417.279 171.955v5.613h20.734v-5.613h-20.734m28.51 0v5.613h20.734v-5.613h-20.734z" font-size="12" fill="#d61517"/><path d="M542.371 176.871zm-19.762-6.4v6.54h20.113v-6.4l-20.113-.14" font-size="12" fill="#a11011"/><path d="M407.602 225.164zm-43.285-21.105v21.566h44.054v-21.105l-44.054-.461m68.406 21.105zm-22.367-21.105v21.566h22.765v-21.105l-22.765-.461m84.388-47.189zm-38.868-11.59v11.843h39.558v-11.59l-39.558-.253m80.852 12.032zm-38.868-11.59v11.843h39.558v-11.59l-39.558-.253" font-size="12" fill="#d61517"/><path font-size="12" fill="#a11011" fill-rule="evenodd" d="M411.006 86.383h22.981v6.629h-22.981zm-33.588-.442h25.633v7.513h-25.633zm-28.284.442h20.329v6.629h-20.329z"/><path d="M431.233 106.068zm-74.394 10.488l-7.91-11.14 85.076.442-10.193 9.298" font-size="12" fill="#a11011"/><path d="M349.893 99.567v5.171h18.143v-5.171h-18.143m20.734 0v5.171h41.469v-5.171h-41.469m44.061 0v5.171h18.143v-5.171h-18.143zm-64.795-12.043v4.546h18.143v-4.546h-18.143m28.51 0v4.546h23.326v-4.546h-23.326zm33.693.442v3.921h20.734v-3.921h-20.734z" font-size="12" fill="#d61517"/><path font-size="12" fill="#a11011" fill-rule="evenodd" d="M349.134 93.012h84.853v13.258h-84.853z"/><path d="M385.325 155.577zm-32.863-10.114v10.335h33.447v-10.114l-33.447-.221m74.227 10.114zm-38.634-10.114v10.335h39.321v-10.114l-39.321-.221m1.499-47.201zm-39.302-3.805v3.888h40v-3.805l-40-.083m18.094 48.29zm-14.117-10.725v10.96h14.368v-10.725l-14.368-.234m55.308 10.751zm-38.148-9.502v9.71h38.826v-9.502l-38.826-.208m53.998 9.917zm-12.38-10.725v10.96h12.6v-10.725l-12.6-.234m-25.015-1.624zm-31.995-9.502v9.71h32.563v-9.502l-32.563-.208m67.71 9.502zm-32.354-9.502v9.71h32.929v-9.502l-32.929-.208m22.361-2.306zm-47.552-3.805v3.889h48.397v-3.805l-48.397-.083m56.232 3.804zm-6.735-3.805v3.889h6.855v-3.805l-6.855-.083m-51.175 3.804zm-7.603-3.805v3.889h7.739v-3.805l-7.739-.083m75.54-16.967zm-39.377-3.805v3.888h40.076v-3.805l-40.076-.083m-23.023 12.167zm-19.328-5.43v5.549h19.671v-5.43l-19.671-.119m58.396 4.814zm-34.24-4.998v5.107h34.849v-4.998l-34.849-.109m57.488 5.002zm-19.222-4.819v4.924h19.564v-4.819l-19.564-.105m7.831 12.005zm-64.924-1.464v1.496h66.077v-1.464l-66.077-.032m68.36.678zm-71.873-1.464v1.496h73.15v-1.464l-73.15-.032m74.848.284zm-75.343-1.464v1.496h76.681v-1.464l-76.681-.032m75.343 1.464zm-75.343-1.464v1.496h76.681v-1.464l-76.681-.032m77.466-.108zm-78.38-1.464v1.496h79.772v-1.464l-79.772-.032m239.977 69.174zm-14.551-3.805v3.888h14.81v-3.805l-14.81-.083m63.476 3.363zm-21.933-3.805v3.888h22.323v-3.805l-22.323-.083m24.184-1.676zm-19.582-11.949v12.21h19.93v-11.949l-19.93-.261m-2.752 11.939zm-8.004-12.381v12.652h8.146v-12.381l-8.146-.27m-34.127 12.803zm-16.288-13.246v13.535h16.577v-13.246l-16.577-.289m29.653 13.242zm-10.283-13.425v13.718h10.466v-13.425l-10.466-.293" font-size="12" fill="#d61517"/><path d="M576.005 177.727zm-17.157-7.698v7.866h17.461v-7.698l-17.461-.168" font-size="12" fill="#a11011"/><path d="M524.427 171.955v5.613h22.928v-5.613h-22.928m30.571 0v5.613h20.381v-5.613h-20.381zm-18.237-14.643zm-37.026-11.59v11.843h37.683v-11.59l-37.683-.253" font-size="12" fill="#d61517"/><path font-size="12" fill="#a11011" fill-rule="evenodd" d="M623.58 86.276h22.981v6.629h-22.981zm-33.588-.442h25.633v7.513h-25.633zm-28.284.442h20.329v6.629h-20.329z"/><path d="M643.807 105.961zm-74.394 10.488l-7.91-11.14 85.076.442-10.193 9.298" font-size="12" fill="#a11011"/><path d="M562.467 99.459v5.171h18.143v-5.171h-18.143m20.734 0v5.171h41.469v-5.171h-41.469m44.061 0v5.171h18.143v-5.171h-18.143zm-64.795-12.042v3.921h18.143v-3.921h-18.143m28.51 0v3.921h23.326v-3.921h-23.326zm33.693.442v3.296h20.734v-3.296h-20.734z" font-size="12" fill="#d61517"/><path font-size="12" fill="#a11011" fill-rule="evenodd" d="M561.708 92.905h84.853v13.258h-84.853z"/><path d="M598.497 155.456zm-34.346-10.725v10.96h34.956v-10.725l-34.956-.234m75.142 10.724zm-36.951-10.725v10.96h37.608v-10.725l-37.608-.234m-2.67-46.577zm-36.846-3.805v3.888h37.5v-3.805l-37.5-.083m18.094 48.29zm-14.117-10.725v10.96h14.368v-10.725l-14.368-.234m55.319 10.724zm-37.534-10.725v10.96h38.201v-10.725l-38.201-.234m53.373 11.166zm-12.38-10.725v10.96h12.6v-10.725l-12.6-.234m-24.401-2.834zm-32.609-7.667v7.835h33.188v-7.667l-33.188-.167m67.721 7.666zm-31.74-7.667v7.835h32.304v-7.667l-32.304-.167m21.736-2.932zm-47.552-3.805v3.889h48.397v-3.805l-48.397-.083m56.232 3.804zm-6.735-3.805v3.889h6.855v-3.805l-6.855-.083m-51.175 3.804zm-7.603-3.805v3.889h7.739v-3.805l-7.739-.083m75.518-16.967zm-40.605-3.805v3.888h41.326v-3.805l-41.326-.083m-23.001 10.903zm-18.099-6.042v6.174h18.421v-6.042l-18.421-.132m57.124 6.051zm-35.469-5.61v5.732h36.099v-5.61l-36.099-.123m59.955 5.615zm-21.064-5.43v5.549h21.439v-5.43l-21.439-.119m9.706 13.255zm-64.924-1.464v1.496h66.077v-1.464l-66.077-.032m68.36.677zm-71.873-1.464v1.496h73.15v-1.464l-73.15-.032m74.848.285zm-75.343-1.464v1.496h76.681v-1.464l-76.681-.032m75.343 1.464zm-75.343-1.464v1.496h76.681v-1.464l-76.681-.032m77.466-.108zm-78.38-1.464v1.496h79.772v-1.464l-79.772-.032m69.846 3.791zm-64.924-.376v.384h66.077v-.376l-66.077-.008m68.36.176zm-71.873-.376v.384h73.15v-.376l-73.15-.008m74.848.076zm-75.343-.376v.384h76.681v-.376l-76.681-.008m75.343.376zm-75.343-.376v.384h76.681v-.376l-76.681-.008m77.466-.025zm-78.38-.376v.384h79.772v-.376l-79.772-.008" font-size="12" fill="#d61517"/><path font-size="12" fill="#808080" fill-rule="evenodd" d="M472.5 449.188h19.375v28.125h-19.375z"/><path font-size="12" fill="#ffc500" fill-rule="evenodd" d="M475 451.063h16.875v24.375h-16.875z"/><path font-size="12" fill="#808080" fill-rule="evenodd" d="M478.125 456.063h11.25v16.875h-11.25z"/><path font-size="12" fill="#d61517" fill-rule="evenodd" d="M480.625 457.938h6.875v13.125h-6.875z"/><g font-size="12" fill-rule="evenodd"><path fill="#808080" d="M471.875 460.438h7.5v8.75h-7.5z"/><path fill="#d61517" d="M471.875 462.313h8.125v5h-8.125z"/></g><g font-size="12" fill-rule="evenodd"><path fill="#808080" d="M500.945 488.36h-9.375v-73.125h9.375z"/><path fill="#ffc500" d="M499.069 486.485h-5.625v-69.375h5.625z"/></g><path font-size="12" fill="#808080" fill-rule="evenodd" d="M522.067 395.653l-4.555 4.313-24.466-23.162 4.555-4.313zm-21.461 23.928l-4.305-4.714 21.299-23.321 4.305 4.714z"/><path font-size="12" fill="#ffc500" fill-rule="evenodd" d="M494.112 377.127l3.723-3.57 23.165 22.213-3.723 3.57zm5.216 42.541l-3.448-3.815 21.451-23.736 3.448 3.815z"/><path font-size="12" fill="#808080" fill-rule="evenodd" d="M471.333 398.648l4.305-4.231 21.299 20.932-4.305 4.231zm23.312-25.938l4.659 4.521-25.024 24.279-4.659-4.521z"/><path font-size="12" fill="#ffc500" fill-rule="evenodd" d="M475.645 399.56l-3.631-3.631 22.593-22.593 3.631 3.631z"/><path font-size="12" fill="#808080" fill-rule="evenodd" d="M493.933 326.467h5v60.353h-5z"/><path font-size="12" fill="#ffc500" fill-rule="evenodd" d="M494.779 327.275h3.437v58.371h-3.437zm-23.869 69.824l3.876-3.876 24.117 24.117-3.876 3.876z"/><g transform="matrix(1.273 0 0 1.025 -24.354 -7.449)" fill="#a11011" font-size="12" fill-rule="evenodd"><path d="M477.977 275.975h34.57v44.301h-34.57z"/><rect width="34.311" height="36.596" x="478.133" y="258.298" ry="18.298"/></g><g transform="matrix(1.205 0 0 .99 9.614 3.855)" fill="#d61517" font-size="12" fill-rule="evenodd"><path d="M477.977 275.975h34.57v44.301h-34.57z"/><rect width="34.311" height="36.596" x="478.133" y="258.298" ry="18.298"/></g><g transform="matrix(.898 0 0 .929 161.833 23.233)" fill="#a11011" font-size="12" fill-rule="evenodd"><path d="M477.977 275.975h34.57v44.301h-34.57z"/><rect width="34.311" height="36.596" x="478.133" y="258.298" ry="18.298"/></g><path font-size="12" fill="#d61517" fill-rule="evenodd" d="M592.821 280.845h27.226v39.275h-27.226z"/><rect width="34.311" height="36.596" x="478.133" y="258.298" ry="18.298" transform="matrix(.788 0 0 .887 216.382 36.178)" font-size="12" fill="#d61517" fill-rule="evenodd"/><g transform="matrix(1.309 0 0 1.025 -153.825 -8.464)" font-size="12" fill="#a11011" fill-rule="evenodd"><path d="M477.977 275.975h34.57v44.301h-34.57z"/><rect width="34.311" height="36.596" x="478.133" y="258.298" ry="18.298"/></g><g transform="matrix(1.24 0 0 .99 -118.892 2.84)" font-size="12" fill="#d61517" fill-rule="evenodd"><path d="M477.977 275.975h34.57v44.301h-34.57z"/><rect width="34.311" height="36.596" x="478.133" y="258.298" ry="18.298"/></g><g transform="matrix(.923 0 0 .929 37.651 22.218)" font-size="12" fill="#a11011" fill-rule="evenodd"><path d="M477.977 275.975h34.57v44.301h-34.57z"/><rect width="34.311" height="36.596" x="478.133" y="258.298" ry="18.298"/></g><g transform="matrix(.81 0 0 .887 93.749 35.163)" font-size="12" fill="#d61517" fill-rule="evenodd"><path d="M477.977 275.975h34.57v44.301h-34.57z"/><rect width="34.311" height="36.596" x="478.133" y="258.298" ry="18.298"/></g><g transform="matrix(1.291 0 0 1.025 -253.309 -8.308)" font-size="12" fill="#a11011" fill-rule="evenodd"><path d="M477.977 275.975h34.57v44.301h-34.57z"/><rect width="34.311" height="36.596" x="478.133" y="258.298" ry="18.298"/></g><g transform="matrix(1.222 0 0 .99 -218.858 2.996)" font-size="12" fill="#d61517" fill-rule="evenodd"><path d="M477.977 275.975h34.57v44.301h-34.57z"/><rect width="34.311" height="36.596" x="478.133" y="258.298" ry="18.298"/></g><g transform="matrix(.911 0 0 .929 -64.477 22.374)" font-size="12" fill="#a11011" fill-rule="evenodd"><path d="M477.977 275.975h34.57v44.301h-34.57z"/><rect width="34.311" height="36.596" x="478.133" y="258.298" ry="18.298"/></g><g transform="matrix(.799 0 0 .887 -9.153 35.319)" font-size="12" fill="#d61517" fill-rule="evenodd"><path d="M477.977 275.975h34.57v44.301h-34.57z"/><rect width="34.311" height="36.596" x="478.133" y="258.298" ry="18.298"/></g><path d="M473.432 312.92v2.245h6.111v-2.245h-6.111zm-108.594-1.563v2.245h6.111v-2.245h-6.111zm0-16.718v2.245h6.111v-2.245h-6.111zm.157-15.782v2.245h6.111v-2.245h-6.111zm37.187 33.125v2.245h6.111v-2.245h-6.111zm-.156-16.875v2.245h6.111v-2.245h-6.111zm-.469-15.937v2.245h6.111v-2.245h-6.111zm80.673-9.205l1.587-1.587-4.321-4.321-1.587 1.587 4.321 4.321zm28.234 42.799v2.245h6.111v-2.245h-6.111zm-36.875-17.969v2.245h6.111v-2.245h-6.111zm-.469-16.094v2.245h6.111v-2.245h-6.111zm37.344 16.406v2.245h6.111v-2.245h-6.111zm.312-17.187v2.245h6.111v-2.245h-6.111zm74.531 35.625v2.245h6.111v-2.245h-6.111zm0-18.75v2.245h6.111v-2.245h-6.111zm.157-17.813v2.245h6.111v-2.245h-6.111zm36.093 36.719v2.245h6.111v-2.245h-6.111zm-.156-18.75v2.245h6.111v-2.245h-6.111zm.156-17.344v2.245h6.111v-2.245h-6.111z" font-size="12" fill="#a11011"/><g transform="matrix(.543 0 0 .449 332.819 33.401)" font-size="12" fill="#a11011" fill-rule="evenodd"><path d="M477.977 275.975h34.57v44.301h-34.57z"/><rect width="34.311" height="36.596" x="478.133" y="258.298" ry="18.298"/></g><g transform="matrix(.514 0 0 .434 347.305 38.356)" font-size="12" fill="#d61517" fill-rule="evenodd"><path d="M477.977 275.975h34.57v44.301h-34.57z"/><rect width="34.311" height="36.596" x="478.133" y="258.298" ry="18.298"/></g><g transform="matrix(.383 0 0 .407 412.218 46.85)" font-size="12" fill="#a11011" fill-rule="evenodd"><path d="M477.977 275.975h34.57v44.301h-34.57z"/><rect width="34.311" height="36.596" x="478.133" y="258.298" ry="18.298"/></g><g transform="matrix(.336 0 0 .389 435.481 52.525)" font-size="12" fill="#d61517" fill-rule="evenodd"><path d="M477.977 275.975h34.57v44.301h-34.57z"/><rect width="34.311" height="36.596" x="478.133" y="258.298" ry="18.298"/></g><path d="M607.611 257.549h-2.245v6.111h2.245v-6.111zm-95.043 8.564l-1.587-1.587-4.321 4.321 1.587 1.587 4.321-4.321zm109.843-.157l-1.587-1.587-4.321 4.321 1.587 1.587 4.321-4.321zm-27.368 4.166l1.587-1.587-4.321-4.321-1.587 1.587 4.321 4.321zm-222.266-7.315l-1.587 1.587 4.321 4.321 1.587-1.587-4.321-4.321zm123.428-5.727h-2.245v6.111h2.245v-6.111zm-110.839 7.049h2.245v-6.111h-2.245v6.111zm12.074 4.093l1.587 1.587 4.321-4.321-1.587-1.587-4.321 4.321z" font-size="12" fill="#a11011"/><path d="M401.527 344.838l-1.587 1.587 4.321 4.321 1.587-1.587-4.321-4.321z" font-size="12" fill="#d61517"/><path d="M595.389 170.764v6.803h22.238v-6.803h-22.238z" font-size="12" fill="#a11011"/><path d="M596.113 171.955v5.171h20.734v-5.171h-20.734z" font-size="12" fill="#d61517"/><g font-size="12" fill-rule="evenodd"><g transform="matrix(.614 0 0 .463 190.692 29.49)" fill="#a11011"><path d="M477.977 275.975h34.57v44.301h-34.57z"/><rect width="34.311" height="36.596" x="478.133" y="258.298" ry="18.298"/></g><g transform="matrix(.581 0 0 .447 207.068 34.59)" fill="#d61517"><path d="M477.977 275.975h34.57v44.301h-34.57z"/><rect width="34.311" height="36.596" x="478.133" y="258.298" ry="18.298"/></g><g transform="matrix(.433 0 0 .419 280.45 43.333)" fill="#a11011"><path d="M477.977 275.975h34.57v44.301h-34.57z"/><rect width="34.311" height="36.596" x="478.133" y="258.298" ry="18.298"/></g><g transform="matrix(.38 0 0 .4 306.747 49.174)" fill="#d61517"><path d="M477.977 275.975h34.57v44.301h-34.57z"/><rect width="34.311" height="36.596" x="478.133" y="258.298" ry="18.298"/></g></g><path d="M484.394 171.036v6.803h24.686v-6.803h-24.686z" font-size="12" fill="#a11011"/><path d="M484.666 172.397v5.171h23.326v-5.171h-23.326z" font-size="12" fill="#d61517"/><g font-size="12" fill-rule="evenodd"><g transform="matrix(.614 0 0 .463 82.145 29.49)" fill="#a11011"><path d="M477.977 275.975h34.57v44.301h-34.57z"/><rect width="34.311" height="36.596" x="478.133" y="258.298" ry="18.298"/></g><g transform="matrix(.581 0 0 .447 98.521 34.59)" fill="#d61517"><path d="M477.977 275.975h34.57v44.301h-34.57z"/><rect width="34.311" height="36.596" x="478.133" y="258.298" ry="18.298"/></g><g transform="matrix(.433 0 0 .419 171.903 43.333)" fill="#a11011"><path d="M477.977 275.975h34.57v44.301h-34.57z"/><rect width="34.311" height="36.596" x="478.133" y="258.298" ry="18.298"/></g><g transform="matrix(.38 0 0 .4 198.2 49.174)" fill="#d61517"><path d="M477.977 275.975h34.57v44.301h-34.57z"/><rect width="34.311" height="36.596" x="478.133" y="258.298" ry="18.298"/></g></g><path d="M371.766 168.86v8.163h21.694v-8.163h-21.694z" font-size="12" fill="#a11011"/><path d="M392.126 177.294zm-18.893-7.265v7.424h19.229v-7.265l-19.229-.159" font-size="12" fill="#d61517"/></svg>