<svg width="210mm" height="140mm" xmlns="http://www.w3.org/2000/svg"><path font-size="12" fill="#101195" fill-rule="evenodd" d="M.577 1.011h745.599v497.776h-745.599z"/><path d="M26.515 0v5.032l5.222-5.032h-5.222z" font-size="12"/><path d="M392.175 210.413c4.072-3.553 4.47-24.906 1.937-32.778-2.371-3.711-5.214-6.289-5.29-9.474-.463-4.867 5.935-11.96 7.114-13.294 4.251-4.471-16.918 4.608-22.062 11.338-1.837 1.74-3.385.977-1.471-.481-.986-2.978-9.023 5.829-9.207 15.756-.03 7.413 3.038 23.053 8.708 28.991" font-size="12" fill="#d6c500"/><path d="M354.564 170.347c-2.807 8.898-11.475 31.845-1.36 38.692 3.725 2.522 11.394 1.432 15.722 1.432-6.374-11.567-12.171-26.054-14.361-40.123zm-5.366 42.771v6.29h60.057v-6.29h-60.057zm6.528 10.906c4.483 6.744 13.739 30.633 12.122 38.254l23.281.042c-2.337-7.53 6.721-31.739 10.443-38.018l-45.847-.278zm9.139 40.525v5.741h28.723v-5.741h-28.723zm3.917 7.694l5.222 64.157h-14.361v1.258l11.75 6.29-5.222 15.096 5.222-2.516c.36 16.834-.478 37.144 6.528 52.835h2.611c7.651-15.315 3.917-37.48 3.917-54.093l6.528 3.774-5.222-15.096 11.75-6.29v-1.258l-14.361-2.516 2.949-13.838 3.579-47.803h-20.889z" font-size="12" fill="#d6c500"/><path font-size="12" fill="#d6c500" fill-rule="evenodd" d="M225.216 317.616l-12.849-9.529-12.964 9.369 5.015-15.269-12.842-9.539 15.949.092 5.027-15.265 4.842 15.326 15.949.105-12.957 9.38 4.83 15.33zm48.234 66.12l-12.849-9.529-12.964 9.369 5.015-15.269-12.842-9.539 15.949.092 5.027-15.265 4.842 15.326 15.949.105-12.957 9.38 4.83 15.33zm234.209-2.395l-12.849-9.529-12.964 9.369 5.015-15.269-12.842-9.539 15.949.092 5.027-15.265 4.842 15.326 15.949.105-12.957 9.38 4.83 15.33zm-163.598 39.768l-12.849-9.529-12.964 9.369 5.015-15.269-12.842-9.539 15.949.092 5.027-15.265 4.842 15.326 15.949.105-12.957 9.38 4.83 15.33zm90.501 3.833l-12.849-9.529-12.964 9.369 5.015-15.269-12.842-9.539 15.949.092 5.027-15.265 4.842 15.326 15.949.105-12.957 9.38 4.83 15.33zm37.294-95.348l-12.849-9.529-12.964 9.369 5.015-15.269-12.842-9.539 15.949.092 5.027-15.265 4.842 15.326 15.949.105-12.957 9.38 4.83 15.33zm-154.647-.479l-12.849-9.529-12.964 9.369 5.015-15.269-12.842-9.539 15.949.092 5.027-15.265 4.842 15.326 15.949.105-12.957 9.38 4.83 15.33z"/><path font-size="12" fill="#10108c" fill-rule="evenodd" d="M399.598 370.734l-20.957-15.541-21.144 15.282 8.18-24.903-20.945-15.558 26.012.15 8.199-24.897 7.897 24.996 26.013.171-21.132 15.298 7.877 25.002z"/><path font-size="12" fill="#d6c500" fill-rule="evenodd" d="M391.3 358.342l-12.849-9.529-12.964 9.369 5.015-15.269-12.842-9.539 15.949.092 5.027-15.265 4.842 15.326 15.949.105-12.957 9.38 4.83 15.33zm165.588-37.851l-12.849-9.529-12.964 9.369 5.015-15.269-12.842-9.539 15.949.092 5.027-15.265 4.842 15.326 15.949.105-12.957 9.38 4.83 15.33zm12.928-84.806l-12.849-9.529-12.964 9.369 5.015-15.269-12.842-9.539 15.949.092 5.027-15.265 4.842 15.326 15.949.105-12.957 9.38 4.83 15.33zm-66.632 17.248l-12.849-9.529-12.964 9.369 5.015-15.269-12.842-9.539 15.949.092 5.027-15.265 4.842 15.326 15.949.105-12.957 9.38 4.83 15.33zm34.808-92.951l-12.849-9.529-12.964 9.369 5.015-15.269-12.842-9.539 15.949.092 5.027-15.265 4.842 15.326 15.949.105-12.957 9.38 4.83 15.33zm-62.655-52.705l-12.849-9.529-12.964 9.369 5.015-15.269-12.842-9.539 15.949.092 5.027-15.265 4.842 15.326 15.949.105-12.957 9.38 4.83 15.33zm-85.528-25.873l-12.849-9.529-12.964 9.369 5.015-15.269-12.842-9.539 15.949.092 5.027-15.265 4.842 15.326 15.949.105-12.957 9.38 4.83 15.33zm-83.54 23.478l-12.849-9.529-12.964 9.369 5.015-15.269-12.842-9.539 15.949.092 5.027-15.265 4.842 15.326 15.949.105-12.957 9.38 4.83 15.33zm-58.179 52.225l-12.849-9.529-12.964 9.369 5.015-15.269-12.842-9.539 15.949.092 5.027-15.265 4.842 15.326 15.949.105-12.957 9.38 4.83 15.33zm35.305 96.785l-12.849-9.529-12.964 9.369 5.015-15.269-12.842-9.539 15.949.092 5.027-15.265 4.842 15.326 15.949.105-12.957 9.38 4.83 15.33zm-70.113-21.082l-12.849-9.529-12.964 9.369 5.015-15.269-12.842-9.539 15.949.092 5.027-15.265 4.842 15.326 15.949.105-12.957 9.38 4.83 15.33zm180.105-87.036l-16.368-12.138-16.514 11.935 6.389-19.45-16.358-12.151 20.316.117 6.404-19.445 6.167 19.522 20.316.133-16.504 11.948 6.152 19.527z"/><path d="M406.168 210.414c3.35-2.164 5.465-10.334 6.153-26.925l-2.474 1.396-1.302-.118-6.639-15.687c-6.545 5.739-.586 34.522-6.84 41.332" font-size="12" fill="#d6c500"/><path font-size="12" fill="#d6c500" fill-rule="evenodd" d="M378.54 157.22l-2.539.005.234-15.356 2.539-.005zm44.287 20.516l-.58-4.283 82.035-27.39.58 4.283zm-70.654-19.613l-2.253 2.448-41.554-51.046 2.253-2.448zm-13.848 19.313l-4.301 1.481-79.319-30.886 4.301-1.481zm193.464 33.173l-1.792 2.959-110.445-13.09 1.792-2.959zm-303.822 3.481l.951-3.205 111.914-14.444-.951 3.205zm181.207-47.494l-1.733-2.818 37.585-53.369 1.733 2.818z"/><g font-size="24" font-weight="bold" fill="#d6c500"><text x="157.573" y="-97.103" transform="matrix(.725 0 0 .725 260.093 164.12)" font-family="Luxi Sans"><tspan x="157.573" y="-97.103" fill="#d6c500">I</tspan></text><text x="117.815" y="-181.843" transform="matrix(.59 .33 -.33 .59 260.093 164.12)" font-family="Luxi Sans"><tspan x="117.815" y="-181.843" fill="#d6c500">N</tspan></text><text x="206.62" y="-83.537" transform="matrix(.574 -.046 .169 .697 260.093 164.12)" font-family="Nimbus Sans L"><tspan x="206.62" y="-83.537">D</tspan></text><text x="93.558" y="-222.674" transform="matrix(.403 .454 -.454 .403 261.156 147.601)" font-family="Luxi Sans"><tspan x="93.558" y="-222.674" fill="#d6c500">A</tspan></text><text x="151.538" y="51.293" transform="matrix(.434 -.527 .527 .434 260.093 164.12)" font-family="Luxi Sans"><tspan x="151.538" y="51.293" fill="#d6c500">I</tspan></text><text x="165.399" y="3.694" transform="matrix(.565 -.383 .383 .565 260.093 164.12)" font-family="Luxi Sans"><tspan x="165.399" y="3.694" fill="#d6c500">N</tspan></text><text x="171.837" y="-142.319" transform="matrix(.585 .156 -.135 .682 260.093 164.12)" font-family="Luxi Sans"><tspan x="171.837" y="-142.319" fill="#d6c500">A</tspan></text></g></svg>