<svg xmlns="http://www.w3.org/2000/svg" width="512" height="512" viewBox="0 0 512 512"><path d="M220.225 190.678h-.218v16.504c-.587 27.427 72.321 27.485 71.433 0v-16.487c-2.112-25.943-69.388-26.086-71.215-.017zm35.708 12.188c-12.405 0-22.498-4.342-22.498-9.682 0-5.348 10.093-9.69 22.498-9.69 12.423 0 22.498 4.342 22.498 9.69 0 5.339-10.076 9.682-22.498 9.682zm110.225-36.983v-16.479c-2.129-25.943-69.387-26.085-71.215-.017h-.218v16.496c-.586 27.435 72.338 27.494 71.433 0zm-35.49-23.679c12.406 0 22.498 4.351 22.498 9.69s-10.092 9.682-22.498 9.682c-12.422 0-22.498-4.342-22.498-9.682s10.076-9.69 22.498-9.69zm-185.347 7.175h-.218v16.504c-.587 27.427 72.321 27.485 71.433 0v-16.479c-2.112-25.951-69.387-26.085-71.215-.025zm35.708 12.196c-12.405 0-22.497-4.351-22.497-9.69s10.092-9.69 22.497-9.69c12.423 0 22.498 4.351 22.498 9.69s-10.075 9.69-22.498 9.69zm39.196-51.29l-.218 3.453v13.035c-.587 27.435 72.339 27.493 71.433 0v-16.471c-2.129-25.952-69.388-26.086-71.215-.017zm58.222 2.497c0 5.34-10.092 9.69-22.498 9.69-12.422 0-22.497-4.35-22.497-9.69 0-5.339 10.075-9.689 22.497-9.689 12.406 0 22.498 4.35 22.498 9.689zm-22.447-62.782l-188.834 103 .151.318-.151-.083v208.011l188.834 100.754 188.834-100.754v-206.938l-188.834-104.308zm-17.167 360.5l-137.333-73.26v-122.455l137.333 75.549v120.166zm-152.521-248.296l169.638-92.623 170.242 93.705-169.873 92.438-170.007-93.52zm186.854 128.13l137.334-74.728v121.634l-137.334 73.26v-120.166z"/></svg>