<svg xmlns="http://www.w3.org/2000/svg" width="512" height="512" viewBox="0 0 512 512"><path d="M256 90c44.34 0 86.026 17.267 117.38 48.62s48.62 73.039 48.62 117.38c0 44.34-17.267 86.026-48.62 117.38-31.354 31.352-73.04 48.62-117.38 48.62s-86.026-17.268-117.38-48.62c-31.353-31.354-48.62-73.04-48.62-117.38 0-44.341 17.267-86.026 48.62-117.38s73.04-48.62 117.38-48.62m0-40c-113.771 0-206 92.229-206 206s92.229 206 206 206 206-92.229 206-206-92.229-206-206-206zm63.161 149.176c-1.489 4.964-5.957 20.103-7.197 25.562l-14.892 55.096c-.743 2.729-.991 5.211-.991 7.445 0 3.97 2.232 6.203 6.452 6.203 4.715 0 10.671-2.482 15.634-6.453 12.161-9.43 20.103-27.795 20.103-46.904 0-22.832-10.672-42.687-28.54-53.853-11.167-6.702-26.802-10.425-44.422-10.425-52.365 0-89.095 34.745-89.095 83.883 0 47.65 33.007 78.92 82.89 78.92 12.905 0 26.554-1.986 37.97-5.461 9.68-2.977 15.883-5.957 27.797-13.152l15.139 21.838c-13.402 7.943-19.358 10.921-31.021 14.395-16.877 5.213-34.745 7.943-52.613 7.943-34.992 0-62.291-9.928-81.897-29.534-18.612-18.364-28.787-44.671-28.787-73.46 0-30.773 10.423-57.327 30.275-77.43 22.833-22.83 52.862-34 91.328-34 57.825 0 99.021 37.227 99.021 89.096 0 23.328-8.438 44.672-23.576 59.81-12.905 12.905-29.782 20.351-46.408 20.351-9.68 0-17.621-3.724-21.343-9.68-1.241-1.984-1.489-3.227-2.234-7.693-9.431 10.92-19.357 15.635-33.254 15.635-24.57 0-40.204-18.364-40.204-46.656 0-41.941 27.547-76.685 60.552-76.685 13.899 0 20.849 3.473 27.548 13.897l2.482-8.687h29.283zm-51.124 73.708c5.956-11.666 9.926-26.804 9.926-38.221 0-10.174-5.706-17.123-14.393-17.123-9.431 0-18.117 6.205-24.321 17.869-5.956 11.168-9.928 25.809-9.928 37.225 0 13.154 4.964 20.103 14.395 20.103 9.182-.001 17.868-7.197 24.321-19.853z"/></svg>