<svg xmlns="http://www.w3.org/2000/svg" width="512" height="512" viewBox="0 0 512 512"><path d="M403.006 270.109c29.213 40.959 21.113 69.802 50.52 111.033-37.026 26.408-74.378 53.049-113.37 80.858-61.184-45.586-114.008-60.207-131.068-65.938-16.254-5.463-26.756-15.89-23.141-28.976 3.66-13.239 17.496-17.178 28.906-16.659 17.215.783 31.176 5.94 31.176 5.94l-79.068-110.856c-7.057-9.894-4.754-23.633 5.137-30.688 9.895-7.057 23.633-4.759 30.688 5.135l53.545 74.958c2.582 3.621 7.609 4.46 11.227 1.88 3.621-2.584 4.461-7.608 1.881-11.228l-13.201-18.508c5.969-1.516 13.221-3.33 21.244-5.289 5.562-1.361 11.4.808 14.725 5.472l10.803 15.142c2.58 3.621 7.607 4.462 11.225 1.883 3.619-2.582 4.463-7.609 1.881-11.229l-12.477-17.492c6.891-1.59 13.922-3.172 20.867-4.674 5.467-1.184 11.121 1.006 14.367 5.558l9.176 12.865c2.58 3.619 7.607 4.459 11.229 1.88 3.617-2.582 4.459-7.608 1.877-11.228l-10.281-14.417c2.086-.388 4.135-.759 6.133-1.105 21.395-3.728 32.973 7.423 45.999 25.683zm-243.701-73.026c13.723-9.79 31.453-10.099 44.666.047-7.52-25.2-37.652-35.596-59.105-20.294-21.498 15.334-21.398 47.215-.062 62.494-5.29-15.797.778-32.46 14.501-42.247zm13.34 202.226c-9.438-11.052-12.555-24.663-8.779-38.327 4.121-14.9 15.65-26.753 32.807-31.402h-105.616v-226.928h158.018v142.59c10.564-2.537 24.211-5.166 32.582-6.998v-166.098c0-12.231-9.914-22.146-22.145-22.146h-178.893c-12.23 0-22.145 9.915-22.145 22.146 0 0 .006 292.587 0 303.964-.029 47.084 69.559 50.761 111.439 50.788 14.549.009 32.477-.423 49.678-2.968-21.15-7.272-36.056-11.864-46.946-24.621z"/></svg>