<svg xmlns="http://www.w3.org/2000/svg" width="512" height="512" viewBox="0 0 512 512"><path d="M256 90c91.74 0 166 74.244 166 166 0 91.741-74.245 166-166 166-91.741 0-166-74.245-166-166 0-91.741 74.244-166 166-166m0-40c-113.771 0-206 92.229-206 206s92.229 206 206 206 206-92.229 206-206-92.229-206-206-206zm2.025 329.511c-14.546 0-26.343-11.797-26.343-26.349 0-14.543 11.797-26.336 26.343-26.336 14.549 0 26.342 11.793 26.342 26.336 0 14.552-11.793 26.349-26.342 26.349zm20.71-77.865v4.739h-43.423v-4.739c0-13.408 1.956-30.61 17.523-45.565 15.569-14.958 35.024-27.312 35.024-45.996 0-20.655-14.335-31.581-32.409-31.581-30.116 0-32.085 31.234-32.827 38.112h-42.233c1.125-32.57 14.891-78.127 75.315-78.127 52.363 0 75.905 35.07 75.905 67.957 0 52.347-52.875 61.44-52.875 95.2z"/></svg>