<svg xmlns="http://www.w3.org/2000/svg" width="512" height="512" viewBox="0 0 512 512"><path d="M274.934 192.799c-.072-.123.328-1.375.676-1.258.224.072.144.183.42.206.271.022.433-.298.716-.247.443.078.749.49 1.22.503.354.009.564-.343.902-.37.248-.025.47.135.717.08.261-.061.46-.232.682-.361.435-.256.377-.032.877-.083l.441-.135.1-.004c.225.024.313.16.262.423-.107.58-.574 1.012-.649 1.604-.05.386.449.602.319 1.016-.316 1.039-.614 1.094-.815 1.128-.284.049-.484-.043-.604-.102-.355-.169-.603-.496-.94-.7-.179-.109-.389-.139-.579-.22-.586-.25-2.288-1.426-2.817-1.391-.188.01-.343.153-.53.137l-.024-.002c-.098-.007-.264-.034-.374-.224zm-35.523-50.707l-.001.001-.099.157c-.053.106-.019.236.08.302.101.066.232.047.31-.044l.37-.438c.146-.176.196-.237.412-.331.169-.073.343-.14.518-.197.066-.022.14-.01.195.032s.088.109.086.179c-.017.401.118.838-.286 1.153l-.551.441c-.136.114-.173.308-.09.464.085.157.266.233.437.184l.021.014.03.046c.113.476.128.476.757.096l.065-.009.025.02c.086.167.224.3.393.381.234.114.409.331.465.595l.011.049.014.045c.214.655.041 1.373-.446 1.859-.488.486-1.208.655-1.861.437h-.002c-.109-.036-.229.004-.295.099s-.06.221.013.31c.064.08.141.154.139.265-.011.407-.523.254-.682.525l-.006.008-.02.065.055.14c.039.036.093.049.145.038.235-.052.425-.25.673-.271.468-.031.115 1.142-.039 1.314-.171.191-1.354.611-1.729.664-.24.037-.4.059-.48.145-.075.085-.124.577.208.737.506.241.977-.201 1.479-.071h.001c.475.124.905.38 1.241.735l.1.064c.163.065.346.062.507-.007l.11-.069c.133-.117.272-.157.415-.162.107-.004.207.064.241.167.035.104 0 .217-.09.281-.366.262-.733.528-1.244.47-.272-.031-.548-.033-.82-.004-.838.089-1.629.461-2.235 1.069l-.611.618c-.104.107-.113.274-.02.391.093.117.258.146.385.068l.292-.178c.358-.222 1.017-.49 1.375.2l.016.004c.053.016.11.005.155-.028.484-.363.729-1.041 1.438-1.102.504-.039.879.454 1.396.346.579-.121 1.059-.565 1.687-.531.232.013.87.183.932.22.175.107.175.107 1.116.123.396.007.683.328 1.058.387.456.071.874-.2 1.322-.162h.009000000000000001c.012 0 1.357-.256 1.331-.812l-.016-.027-.017-.01c-.473-.28-.787-.768-.851-1.312l.062-.093.129.025.08.06c.146.098.235.112.289.074.322-.232.666-.45 1.013-.643.186-.103.297-.312.401-.718.029-.125.15-.767-.666-1.223l-.016-.009c-.067-.038-1.583-.818-2.012-.582-.286.151-.286.151-.812-.121-.019-.078.01-.158.072-.207.599-.462.598-.469.586-.6-.022-.288-.173-.493-.345-.684-.151-.166-.167-.412-.039-.595l.006-.009c.115-.156-.485-1.443-.492-1.452-.04-.044-.061-.067-.144-.062-.251.017-.516.024-.768.023l-.132.015-.017-.008-.009-.081c.08-.316-.229-.519-.258-.809-.029-.293.051-.581.081-.87.024-.259-.006-.555-.089-.839-.304-1.042-.255-2.142.115-3.137.155-.414.369-.812.627-1.17.597-.829-2.084-.723-2.591-.69l-.098-.051.003-.111c.13-.196.147-.452.33-.622.245-.234.578-.308.858-.48.618-.386.101-.624-.125-.683-.538-.139-1.104-.211-1.66-.212-.211 0-.422.029-.637.11-.14.052-.303.227-.468.456-.336.469-.732.886-1.185 1.245l-.072.056c-.126.096-.291.114-.432.055-.083-.035-.176-.035-.259-.001l-.049.023c-.154.081-.269.201-.352.336-.104.167-.082.383.052.527.134.144.349.181.522.089l.003.009c.024.055.023.117-.001.171l-.222.686-.059.047-.104-.046c-.113-.176-.167-.177-.246-.161l-.024.005c-.319.066-.543.814-.53 1.029l.062.164c.412.452.448 1.129.085 1.621zm222.589 113.907c0 113.771-92.229 206.001-206.001 206.001-113.77 0-205.999-92.23-205.999-206.001 0-113.77 92.229-205.999 205.999-205.999 113.772 0 206.001 92.229 206.001 205.999zm-145.046-88.655c-.01-.492.818-.481.897-1.093.036-.279-.088-.555-.32-.712-.297-.201-.429-.142-.79.022-.213.1-.456.21-.723.208-.215-.003-.397-.157-.435-.368-.034-.189.058-.376.222-.468.063-.035.086-.113.054-.176l-.001-.002-.117-.094c-.568-.139-1.049-.222-1.445-.271-.747-.091-1.511-.032-2.234.17-.595.165-.628.26-.765.654-.364 1.026-.512 1.439-.647 1.618-.498.655-.853 1.393-1.052 2.191-.075.304-.23.569-.585.737h-.036c0 .006-.212 1.861-.195 2.059.03.421.274.825.129 1.264l-.784.663-.007.018c-.217.625.049 1.572.2 2.208.013.056-.013.114-.064.142-.05.027-.113.018-.153-.025l-.005-.005c-.268-.257-.401-.17-.466-.056-.048.084-.043.187.012.265l.001.002.767 1.074c.77 1.08 1.81 1.916 3.029 2.432h.003c.665.292 1.303-.156 1.965-.081.733.085 1.465-.042 2.199-.045.25 0 .755-.075 1.074-.211.261-.112.284-.298.308-.515l.005-.055c.014-.188.046-.214.864-.86.587-.464 1.307-.714 1.902-1.176 1.005-.787 2.285-.001 3.372-.335.249-.076 3.657 1.206 3.878 1.315l.015.007c1.003.419 3.694.441 4.336.622.262.071.656.161 1.036.151l.075-.035c.533-.253.87-1.088 1.612-.714 1.289.649 4.926.081 4.039-2.926-.481-1.634-2.633-2.521-3.279-2.754-1.949-.705-3.225-2.38-4.94-3.433-.756-.463-1.646-.048-2.429-.36-1.762-.701-1.762-.701-1.855-1.208l.036-.116c.476-.667.829-1.4 1.052-2.189l.005-.021c.083-.279.187-.417-.118-.613-.402-.254-1.176-.01-1.255-.67-.061-.525 1.073-1.112 1.537-1.38.39-.224.555-.52.623-.707.106-.29-.25-.682-.409-.659-.539.061-2.023.944-2.237.968l-.009.001-.191.064-.005.002-3.392 1.961-.013.008c-.603.442-.935 1.164-.88 1.91.054.746.486 1.412 1.146 1.763.279.149.682.226.543.51l-.001.002c-.069.14-1.922 1.897-2.115 1.923-.5.058-.668-.186-.709-.26l-.042-.097c-.292-.837-.959-1.521-1.904-1.804-.193-.061-.324-.238-.329-.44zm103.931 88.655c0-17.073-2.925-34.325-5.916-43.443-.936-2.858-3.103-5.149-5.906-6.237-2.805-1.088-5.949-.859-8.566.625-6.605 3.736-6.398 4.211-8.703 4.093-1.055-.052-5.791 3.097-7.489-.515-.321-.68-1.984-3.742-4.293.482-.624 1.144-4.038.281-5.167-.349-3.324-1.856-7.42-6.194-8.427-7.285l-.008.004-.005.002c-1.135-1.315-4.418.483-2.004 4.076 8.088 12.056 9.508 12.162 11.797 13.363h.004c1.08-.814.926-1.066 2.331-1.265.87-.123 1.621-.668 2.008-1.457l.012-.022c.442-.909 1.282-1.562 2.272-1.766s2.02.063 2.786.723l.023.021c1.399 1.205 3.204.091 4.693.799 3.776 1.773 2.336 5.38 1.587 9.651l-.019.03-.035.008c-.35-.07-.675.201-.679.551-.013 1.357.854 2.621.589 4.003l-.087.116c-.454.225-.858.523-1.206.893-1.079 1.148-1.151 2.597-2.089 3.893-.88 1.228.067 3.968-2.044 3.984-.811.005-3.509 1.559-3.927 3.333-.494 2.105-1.645 3.981-3.299 5.374-1.215 1.022-2.869 2.356-5.147 4.132-1.085.844-5.465 5.572-9.241 6.457-.52.121-1.061-.078-1.377-.506l-.054-.08c-2.483-3.856-3.003-8.486-4.957-12.549-2.307-4.816-8.55-6.089-10.289-11.424-1.468-4.504-2.085-6.401-4.138-7.562-1.435-.811-2.632-1.94-3.517-3.329-1.442-2.263-3.633-5.481-5.431-7.215-.816-.788-1.356-1.808-1.544-2.927-.084-.502-.825-.465-.854.047-.103 1.792.229 2.354-.271 2.735-.42.317-.937.144-1.304-.236-1.283-1.324-3.384-3.729-3.912-5.074l-.004.02c-.136.522-.035 1.08.275 1.521 2.778 3.957 16.32 23.511 16.663 25.361 2.256 12.306 11.783 15.254 16.646 19.789.913.854 1.515 1.957 1.75 3.145.226 1.133.766 2.115 1.615 2.896.897.83 1.794.717 6.873.082.844-.109 1.391-.711 1.973-1.25.499-.463 4.622-1.92 5.162-2.26 1.112-.721-.271-.295 2.286-1.508 1.001-.484 2.176-3.496 1.979-.078-.043.881.449 1.676.356 2.562-.53 5.189-.964 6.051-1.262 7.053-.395 1.326-.919 2.607-1.249 3.957-1.556 6.361-4.018 13.145-8.299 18.162l-.29.303c-2.366 2.191-6.684 6.24-10.198 13.127-2.211 4.334-5.344 8.098-7.654 12.365-.777 1.447-.971 1.809-.28 3.756.49 1.389 1.958 7.814 2.185 16.049.245 8.979-1.202 10.453-4.077 12.537-4.604 3.334-7.745 5.607-9.9 7.203-2.527 1.865-4.037 4.807-4.074 7.947-.014 1.156-.286 2.613-1.076 4.369l.008.014c.166.314-5.936 3.367-8.038 5.85l-.003.004.015.182c1.418 4.445-16.568 17.342-20.307 17.312-2.703-.02-9.336 1.037-12.499 2.389-2.13.908-7.892-1.047-8.316-2.273-.064-.186-.083-.521.066-.645 1.41-1.168-3.346-8.041-4.48-8.824-.729-.504-2.111-3.713-2.677-4.514-1.733-2.455 1.249-5.912-.688-8.357l-.302-.4-5.604-7.828c-.871-1.217-3.349-2.656-3.36-4.152v-.008c-.015-1.633 2.9-9.506 3.133-9.838.268-.385.518-.801.729-1.219.119-.234.34-.404.773-.629 1.421-.727 3.458-2.523 1.129-6.33-.136-.23-.136.773-.876-4.504-.484-3.469-5.042-11.324-5.816-12.148 0 0-5.285-2.523-7.709-7.496.124-.285.311-.529.552-.725 2.235-1.789 1.835-4.033 2.493-8.859.033-.24.075-.486.127-.723l.007-.037.067-.32.008-.033.002-.008c.199-.951.452-2.223-.849-4.189-.227-.344-.626-.533-1.036-.492l-.063.006c-.713.061-1.343-.461-1.415-1.174l-.004-.025-.015-.021c-1.046-.426-2.204-.484-3.286-.168-2.385.697-7.447 1.736-8.015-1.545-.765-4.404-3.774-5.365-5.253-5.266-6.292.443-11.617 5.848-18.115 5.41-.29-.014-.657-.156-.93-.258-5.609-2.117-11.663-2.16-17.366-3.256-1.935-.371-4.723-1.312-6.127-2.693l-7.993-7.859c-.52-.51-.982-1.074-1.38-1.684-2.535-3.896-3.479-12.473-4.155-14.006-.1-.223-.209-.449-.323-.664l-.688-1.299-.026-.043-.002-.002c-1.862-2.434-2.442-5.625-1.559-8.559l3.159-10.5.131-.474c.082-.335.15-.678.197-1.015.751-5.217-.246-7.121-.735-8.057-.91-1.744-.91-1.744 3.6-8.027 8.209-11.447 9.618-12.02 11.256-12.679v.004l.016.001c3.571.405 10.33-3.949 10.205-6.312-.036-.758-.123-2.334 1.21-4.437.516-.811 1.169-1.543 1.914-2.148l7.38-5.996c1.362-1.107 3.282-1.203 4.748-.235h.001c.997-.35 2.091-.307 3.058.12 1.263.556 2.069.169 2.466-.016 4.47-2.144 9.346-2.8 32.002-4.244.767-.049 1.508.284 1.979.891l.013.017c1.335 1.725.338 1.504 1.852 4.052.576.969.01 1.704-1.802 3.531-.687.693-.575 1.799-.351 1.835.621.031 2.094.418 3.31 1.054 1.604.838 4.146 1.666 6.253 2.275 1.916.553 3.622 1.67 4.9 3.2.83 1 12.046 7.698 11.592-1.41-.031-.636.592-1.74 1.636-2.592 3.644-2.966 6.318.872 7.318 1.099 1.608.368 1.814.366 2.894.344h.044c1 .018 1.461 1.164 4.66.947 5.535-.374 11.121.499 16.636-.476.617-.11 1.479-.312 1.963-.711 6.114-5.052-.085-11.234.864-16.803l-.014-.045-.043-.017h-.002c-1.887.148-3.679.897-5.113 2.13-.516.443-1.147.762-2.015.852-1.527.154-2.719-.839-4.049-1.343-.669-.254-1.417.081-1.674.749l-.005.014c-.514 1.244-6.345.329-8.088-2.591-.529-.887-1.327-1.574-2.285-1.962l-.006-.003.063-.058c1.719-1.62-.909-2.868-1.198-4.127-.144-.628.186-1.265.782-1.509l.034-.014c1.43-.542 2.077-1.316 1.792-1.107-.608.447-1.324.707-2.078.75h-.005c-.4.022-.793-.068-1.139-.26-.846-.47-1.803-.716-2.771-.716-1.161 0-2.339.334-2.577 1.484-.044.214-.167.402-.345.528l-.002.001c-.148.105-.342.125-.508.051-.295-.138-.584-.103-.811.052-.24.164-.373.427-.342.789.089 1 2.79 2.027.603 3.037l-.015.01s-.943.55-1.024.59c-.901.448-2.075-.545-2.858-.592l-.76.088h-.021c-.153-.002-.248-.063-.283-.093l-.011-.009c-.077-.066-.923-.818-1.057-1.051-.331-.562-.363-.618-.54-.805-.14-.146-.388-.333-.583-.471-.428-.303-.697-.78-.735-1.303v-.002c-.03-.406-.078-.977-.152-1.603-.167-1.402-.874-2.68-1.972-3.566-.284-.229-.64-.347-1.001-.332-.23.01-.463-.053-.662-.186-.926-.616-1.542-.748-1.542-.748l-.009-.006-7.24-5.28c-.415-.302-.919-.449-1.431-.417-.424.027-.654-.373-.888-.727-.466-.71-1.342-1.031-2.157-.787l-.1.034c-.513.195-.751.81-.476 1.31.153.274.319.542.496.798l4.211 6.128c.699 1.015 1.858 1.616 3.089 1.603.503-.003.928.375.981.876.025.242.164.467.389.597 2.007 1.155 4.605 1.323 6 3.508l.027.071.003.02v.009c.007.164-.1.688-.187.846-.146.273-.682.393-.839.25-.112-.101-.104-.341-.093-.598.004-.08-.019-.18-.057-.286-.209-.584-.646-.702-1.211-.944-.774-.328-1.668.016-2.021.779l-.01.023-.028.066c-.336.868.224 1.131.522 1.278.47.221 1.183.562.989 1.578-.079.429-.553.276-.802.461 0 0 .16-.148-.68 1.536-.295.573-.021.708-.762 1.088-.625.305-.92-.098-.996-.228-.271-.461.104-.874.092-1.318-.008-.201-.013-.376.567-.617.828-.349-.048-1.707-.544-2.476l-.015-.025c-1.017-1.757-.346-.334-1.516-1.428-.722-.676-2.616-1.807-2.988-2.269-2.486-3.08-6.562-4.54-8.699-7.976-.433-.696-1.062-1.25-1.807-1.591-.487-.223-1.067-.383-1.709-.353-.617.029-3.552 1.705-5.909 3.049-2.222 1.271-3.826-1.73-5.989-.87-2.337.929-.956 3.984-2.936 5.118-2.254 1.289-4.948 1.715-6.936 3.533-.08.073-.141.184-.192.302-.609 1.4-1.672 2.008-1.744 2.357-.062.289-.087.413.037.816.264.844-.001 1.764-.671 2.34l-.004.003c-.435.384-.071 1.593-.468 1.81-.736.38-1.533-.036-2.281.178-1.127.318-1.183 1.779-2.289 2.118-1.443.435-2.839-.475-4.278-.159-3.248.708-3.248.708-3.37 1.003-.114.266-.375.711-.834.708-1.686-.036-1.063-2.147-1.861-3.059-.861-.991-1.101-.883-1.49-.718-.525.228-1.406.61-1.678.452-.362-.222-.647-.556-1.068-.679-.288-.083-.529-.281-.666-.548-.241-.476.361-2.399.497-2.952.083-.333.061-.684-.062-1.004-.145-.377-.502-.629-.905-.639-.077-.001-.151-.035-.204-.093-.471-.519 1.465-2.479 2.002-3.479.083-.155.172-.379.236-.543 1.656-4.236 1.653-5.673 1.313-7.087-.15-.625.303-1.231.944-1.268l1.03-.048c.687-.801 1.832-1.027 2.771-.55 1.278.649 3.828 1.574 8.184 1.778 1.055.05 2.111.272 3.098.648.922.351 1.707-.455 2.051-.895.812-1.038.688-2.325.852-3.537.085-.64.444-1.211.983-1.568h.001c.143-.096.215-.268.185-.438-.042-.229-.229-2.054-.452-2.072l-.029-.003c-1.802-.195-1.229-2.511-2.412-3.261-1-.636-.958-1.069-3.45-1.34-.359-.037.49-1.769 1.937-2.231.083-.027.174-.02.253.02.89.449 1.884.659 2.879.611.376-.018.725-.207.945-.513.221-.305.291-.694.189-1.058l-.005-.019c-.106-.378.224-.959.648-.68.828.544 1.244.895 2.687.687.355-.052.646-.316.727-.667.039-.167.146-.31.296-.395 1.62-.918 2.307-1.326 2.629-1.697.769-.888 1.672-1.627 2.7-2.198 1.466-.818 2.18-1.349 3.58-2.617.602-.544 1.322-.924 2.113-1.109.242-.057.399-.289.362-.534l.034-.132c.264-.348.664-.57 1.102-.611 1.021-.096 1.63-.096 2.058-.096l.011-.014c.295-.339.726-.529 1.176-.516 1.071.031 2.476.523 2.25-2.409-.337-2.638.542-5.295 2.381-7.217l.009-.009c.83.351.646 1.198.786 2.092.086.536-.078 1.082-.441 1.482l-.017.019c-3.513 3.897.99 3.77 1.111 4.771l.003.017c.016.168.109.319.253.41.144.089.319.108.479.051.153-.055 3.624-1.503 3.761-1.416.657.412.158.625.684 1.106l.014.013c.786.723 1.941.872 2.885.371 1.994-1.06 4.29-1.411 6.511-1.002 1.094.201 3.796-2.418 3.296-3.88l-.001-.002c-.305-.89-.356-1.849-.152-2.768.128-.575-.107-.89.551-1.324.33-.218.749-.252 1.11-.09.465.21 1.005.222 1.488.016.64-.272 1.075-.88 1.125-1.575l.001-.012c.012-.139-.058-.274-.176-.348-.598-.374-.935-1.068-.844-1.782.101-.792.703-1.427 1.49-1.568 2.298-.421 2.714.871 4.898-1.074.132-.117.188-.298.143-.468-.046-.171-.182-.302-.354-.339h-.002c-1.808-.393-3.693-.273-5.438.338l-2.107.738-.01.003-.008.004-.005.003c-.355.231-.778.338-1.2.304-1.469-.118-2.396-1.511-2.97-3.051-.667-1.786-.44-3.791.604-5.385.519-.791.777-1.805 1.357-2.544.239-.303.328-.698.242-1.074-.239-1.059-2.076-1.531-3.1-1.304-2.045.458-.675 2.906-1.495 4.186-.471.739-2.444 1.263-2.615 2.267-.43 2.576-.656 3.932-.483 4.826.372 1.919.183 3.884-.558 5.693l-.014.035c-.587 1.54.615 3.15-.186 4.68-.936 1.78-3.109.371-3.612 2.518-.207.905-1.98-.428-2.586-1.032-.063-1.769-.744-2.582-1.24-3.965-.401-1.12-1.312-1.982-2.452-2.322-3.031-.903-3.646 2.06-6.326 1.235-2.158-.664-3.671-2.61-3.785-4.866s1.195-4.343 3.275-5.222l.003-.001c7.087-2.979 8.406-5.481 8.879-7.161.106-.379.401-.676.78-.785l.012-.003.002-.003c.076-.382.271-.73.558-.995.727-.675 1.221-1.576 1.872-2.321.715-.817 1.451-2.079 1.451-2.079h.001s3.673-3.593 7.546-4.821c1.795-.562 3.108-.54 3.538-.453.448.091 1.11.218 2.154.42v.001c-.056.35.034.708.246.991.492.654 2.102.493 4.041 1.39 2.247 1.041 4.944.729 7.371 1.235.987.207 1.656 1.13 1.54 2.133-.117 1.002-.979 1.75-1.988 1.723-.7-.019-1.332.412-1.571 1.069-.238.657-.029 1.393.518 1.828.866.685 1.854 1.228 2.894 1.595 1.223.431 3.204.745 2.34-.211-.309-.342-.746-.538-1.204-.541-1.68-.007-1.152-1.547-.245-1.136 1 .453 3.792.753 1.854-1.114-.239-.231-.264-.604-.058-.864.321-.407.582-.861.772-1.343.401-1.026.324-.696 1.64-.297.227.069.461.025.643-.102.37-.259.866-.459.505-.733-.307-.234.322-.772.547-.695.38.13.802.008 1.054-.307.197-.246.256-.57.173-.864-.223-.753.395-2.795 1.473-3.192.262-.097.547-.105.814-.024l.002-.003c.223-.207.488-.369.772-.474.482-.177 1.304-.53 1.884-1.033.593-.514 1.399-.71 2.162-.526l.021-.006c.238-.262.229-.666-.021-.917-.452-.454-1.996-1.241-1.769-1.84.074-.194 1.03-.427 1.161-1.244.089-.561-.224-1.108-.752-1.316-15.967-6.27-33.148-10.11-51.098-11.092-3.305 2.044-6.613 4.326-9.59 6.792-10.867 9.005-28.033 12.732-27.645 11.732-1.64.021-2.074-.424-2.074-.424-.535.137-1.01.441-1.456.127l-.011-.007c.019-.214-.08-.42-.256-.54-.574-.387-1.697.522-4.418 1.903l-.03.015-.15.078c-1.147.609-2.434.752-3.304.767-.627.01-1.237.13-1.821.362-.09.035-.189.002-.239-.079-.199-.323.795-.684 1.15-.82.326-.126.172-.492-1.189.286-.294.167-.642.214-.971.13-1.363-.349-2.999.743-4.079 1.644-.168.141-.386.221-.646.111-.377-.16-.71-.103-.598.48.128.627-3.466 2.218-3.529 1.947-.07-.196-.274-.31-.477-.267-.471.1-1.04.482-1.354 1.075-.576 1.087-2.136 1.27-2.9 1.906-.788.654-1.958 1.306-1.958 1.306-.43.498-.722.776-1.179.794-.448.019-.709-.767-.511-1.067.12-.182.982-1.029.774-1.074-.086-.017-.159-.072-.199-.149-.147-.281.527-.578.354-.922-.116-.23-1.416-.307-1.518-.424-.076-.085-.093-.208-.042-.312.808-1.643.913-1.747 2.011-2.833l-.012-.017c-.115-.17-.115-.394.002-.564.614-.895 2.648-3.57 5.02-3.894.629-.09.223-.22.223-.22-.593-.232-1.349-.401-.917-.869.843-.917 2.133-2.137 3.575-2.854.691-.344 1.338-.763 1.933-1.255.589-.486 2.571-1.348 4.715-1.444l.009-.001c1.788-.115 6.518-3.336 6.556-3.38l-.005-.004c-.146-.139.075-.619.03-.866-.019-.102.032-.205.124-.253.464-.245 1.003-.336 1.483-.547.065-.028.109-.086.121-.156.025-.181-.182-.299-.353-.235-.979.365-1.39.515-1.618.583-.125.037-.258-.018-.319-.131-.062-.113-.036-.255.062-.339 1.123-.97 2.636-.985 3.97-1.446.58-.201.584-1.435-.629-1.235-5.97.983-11.394 2.759-17.059 4.632l.004.012c.04.168-1.142.733-1.287.878-.074.073-.103.181-.074.281l.005.02c.072.007.095.096.04.137-.225.169-.651-.004-.779.238-.152.289.388.176.49.377.077.151.05.334-.067.455l-.002.003c-.177.18-1.061.569-1.196.406-.123-.152-.147-.285-.322-.173-.633.408-1.032.652-1.396.716-1.277.222-2.898.905-2.898.905.192-.164.797-.736.899-.952.348-.705.727-.925 1.151-1.039.305-.079.353-.509-1.017.01-1.233.466-2.373 1.182-3.331 2.087-.807.759-1.757 1.583-2.441 1.938.13-.221.034-.277-.059-.23-.079.041-.729.629-.988.559-.818-.22.249-.685.249-1.497.085-.136.194-.244.312-.344l-.005.002c-.931.396-1.771.994-2.455 1.739-.552.602-1.003 1.319-1.597.733-.282-.276-.71-.356-1.074-.186-2.275 1.063-4.521 2.18-6.737 3.342-.234.123-.456.271-.659.442-.153.129-.255.311-.282.509-.034.237-.438.756-.587 1.007-.067.113-.064.254.005.365.204.313.881.084 1.237-.033.508-.167 1.063.041 1.338.499.268.448.198 1.018-.165 1.389-.302.309-.594.65-.854.995-.545.726-1.055 1.488-1.836 1.98-.477.301-.932.644-1.351 1.02-4.271 3.83-4.411 10.8-7.554 12.203l-.021.009c-2.41 1.07-3.251.146-6.14 1.223-.562.21-1.088.058-1.617-.083-.449-.12-.814-.446-.986-.878v-.002c-.634-1.608-2.45-2.399-4.06-1.767-.27.106-.554.153-.869.069l-.015-.009-.008-.006c-.528.152-3.911 1.231-3.671 1.708.002.003 5.957-1.818 4.618 1.4l-.009.003c-.223.064-.405.221-.504.431-.144.304-.319.478-.815.591-.568.131-1.168-.03-1.597-.425l-.013-.005c-.303.051-.436.801-.314 1.007.157.267.944.265.129.766-.479.294-1.125.45-1.341.973-.254.617-.568 1.208-.939 1.762-.387.581.456.765-.202 1.298-.785.636-3.49.023-4.434.2-.002 0-1.628.158-2.606.501s-2.743.783-3.716 1.958c-1.675 2.025-1.529 2.45-3.487 1.905-.111-.031-.229.001-.31.085-19.947 21.165-34.353 47.606-40.913 77.007l-.017.074c-.433 1.874-.926 4.166-1.649 8.462-.016.101-.015.203.006.303.099.479.193.605.805.605 1.45-.001 2.691 1.026 2.958 2.451.068.41.314.697.645.831.323.132.689.106 1.033-.137.221-.156 1.457.922 1.537 2.239.043.711.316 1.526.455 2.227.168.847-.054 1.724-.606 2.389-.086.104-.115.241-.083.371.696 2.71 3.835 14.252 4.484 14.851.375-.07.682.053.888.286 6.345 7.152 13.506 18.828 13.3 22.486-1.431 2.682-1.276 2.543-.091 3.996 2.21 2.715 2.171 2.844 1.334 5.635l.002-.002c.488-.793 1.355-1.273 2.287-1.273.932.002 1.796.484 2.285 1.277.364.59.73 1.176 1.225 1.619 1.307 1.172 1.982 2.895 1.821 4.643 0 .004 2.011.02 4.797 2.115 3.528 2.652 15.987 16.92 16.476 20.828.218 1.742-.495 3.449-1.388 4.961-1.029 1.738-4.353 5.354-4.918 7.301-.279.967-1.829 1.406-1.818 1.982.017.789.258 2.438 1.396 5.689.338.961 1.122 8.086.734 10.961-.229 1.682-.225 1.982.189 3.834.134.578-1.315 2.23-2.315 1.516-1.253-.896-2.297-.762-2.428-.5l-.002.004c-1.729 2.836-7.951 3.34-6.566 6.359.41.893.824 1.783 1.18 2.689.42 1.068.651 2.215.687 3.359.012.494 1.731 4.125 3.102 5.559 30.021 31.395 72.311 50.955 119.178 50.955 91.059-.007 164.881-73.83 164.881-164.893zm-189.258-105.082c.685-.297 1.323-.707 2.049-.903l.021-.006c1-.274 1.874-.003 2.175-.382.294-.375.798-1.056 1.034-1.602.113-.271-.174-.654.186-.849.401-.22.049-.644.154-.953.277-.824.462-.846.789-.892.317-.046.613-.086.723-.256.518-.765-1.313-2.964-2.457-2.67-1.189.306-2.146 2.04-2.544 2.016-.504-.027-.734-.043-1.072.222-.261.201-.294.534-.487.774l-.759.811c-.194.238-.265.448.007.694.201.176.312.275-.279 1.04-.489.629-1.296.963-1.636 1.737-.121.281-.104.839-.064 1.062.154.807 1.406.483 2.16.157z"/></svg>