<svg xmlns="http://www.w3.org/2000/svg" width="512" height="512" viewBox="0 0 512 512"><path d="M294.249 183.671h-141.473v19.572h141.473v-19.572zm0 35.23h-141.473v19.573h141.473v-19.573zm0 35.232h-141.473v19.573h141.473v-19.573zm-70.736 35.231h-70.736v19.572h70.736v-19.572zm70.736-175.925h-141.473v19.573h141.473v-19.573zm0 35.232h-141.473v19.573h141.473v-19.573zm87.069 190.719c1.461 6.131-6.674 9.973-9.375 3.455-3.289-7.939-8.562-41.668-13.176-75.625-2.463-18.16-26.768-15.93-26.708 2.838.091 29.207.077 53.525.008 96.799-.056 36.893 16.936 37.623 29.321 79.016 2.122 7.092 3.938 14.842 5.435 22.402l61.559-21.479c-21.455-41.965-11.122-75.113-8.974-102.258 2.932-37.094-6.93-40.691-52.683-85.262 2.758 19.577 8.473 54.438 14.593 80.114zm-69.248 27.853h-193.191v-283.849h208.48v156.896c10.788-7.121 24.6-7.369 35.261-.959v-167.396c0-15.58-12.629-28.209-28.209-28.209h-222.585c-15.578 0-28.208 12.629-28.208 28.209v306.77c0 15.578 12.63 28.209 28.208 28.209h208.727c-4.761-9.731-8.452-21.569-8.483-39.671zm-88.951 27.547c-4.139 0-7.493-3.354-7.493-7.492 0-4.137 3.354-7.492 7.493-7.492s7.493 3.355 7.493 7.492c0 4.139-3.354 7.492-7.493 7.492z"/></svg>