<svg xmlns="http://www.w3.org/2000/svg" width="512" height="512" viewBox="0 0 512 512"><path d="M426.316 379.918l-190.06-190.062c-9.139-9.137-13.846-21.846-12.848-34.731 1.887-24.409-6.5-49.462-25.169-68.13-24.3-24.3-59.417-31.182-89.851-20.658l55.254 55.254c1.268 21.557-32.062 54.885-53.617 53.617l-55.253-55.253c-10.524 30.433-3.643 65.551 20.657 89.851 18.668 18.669 43.722 27.054 68.131 25.167 12.896-.998 25.584 3.701 34.731 12.847l190.062 190.062c16.006 16.007 41.955 16.007 57.963 0 16.006-16.007 16.006-41.958 0-57.964zm-30.98 43.373c-9.328 0-16.893-7.562-16.893-16.893 0-9.328 7.564-16.892 16.893-16.892s16.893 7.563 16.893 16.892c0 9.331-7.565 16.893-16.893 16.893zm-118.936-235.277l98.002-98.002c20.039-20.04 52.529-20.04 72.568 0s20.039 52.529 0 72.568l-98.002 98.002-17.768-17.767 93.553-93.553c2.889-2.887 2.889-7.568 0-10.457-2.887-2.886-7.568-2.886-10.457.001l-93.553 93.553-15.211-15.211 93.551-93.554c2.889-2.887 2.889-7.568.002-10.456s-7.568-2.888-10.457 0l-93.553 93.552-18.675-18.676zm-51.486 148.415l-72.324 72.325c-3.921 3.92-7.221 8.414-9.789 13.329l-5.197 9.95-36.025 18.401-14.253-14.253 17.624-36.805 9.949-5.196c4.915-2.566 9.41-5.868 13.329-9.789l72.325-72.324 24.361 24.362z"/></svg>