<svg xmlns="http://www.w3.org/2000/svg" width="512" height="512" viewBox="0 0 512 512"><path d="M461.4 299.303c0 50.852-41.371 92.221-92.221 92.221h-36.847v-40h36.847c28.795 0 52.221-23.426 52.221-52.221 0-35.412-23.816-53.746-49.18-53.844-1.303-58.902-40.637-84.982-78.664-84.982-50.308 0-70.974 38.08-76.131 52.662-20.51-29.582-76.177-7.248-64.641 32.348-34.534-6.262-62.184 19.738-62.184 53.816 0 28.795 23.427 52.221 53.222 52.221h50.512v40h-50.512c-51.852 0-93.222-41.369-93.222-92.221 0-41.408 27.561-77.127 66.153-88.463 10.854-36.998 49.784-58.686 86.933-48.779 22.24-26.299 54.773-41.584 89.871-41.584 57.115 0 105.365 40.816 115.781 95.777 31.603 15.203 52.062 47.135 52.062 83.049zm-271.648 15.96h33.84v76.261h79.486v-76.261h33.84l-73.582-73.708-73.584 73.708z"/></svg>