<?xml version="1.0" encoding="utf-8"?>
<!-- Generator: Adobe Illustrator 16.0.0, SVG Export Plug-In . SVG Version: 6.00 Build 0)  -->
<!DOCTYPE svg PUBLIC "-//W3C//DTD SVG 1.1//EN" "http://www.w3.org/Graphics/SVG/1.1/DTD/svg11.dtd">
<svg version="1.1" id="Layer_1" xmlns="http://www.w3.org/2000/svg" xmlns:xlink="http://www.w3.org/1999/xlink" x="0px" y="0px"
	 width="512px" height="512px" viewBox="0 0 512 512" enable-background="new 0 0 512 512" xml:space="preserve">
<path id="info-2-icon" fill="#FFFFFF" d="M255.998,90.001c91.74,0,166.002,74.241,166.002,165.998c0,91.741-74.245,166-166.002,166
	c-91.74,0-165.998-74.243-165.998-166C90,164.259,164.243,90.001,255.998,90.001 M255.998,50.001
	C142.229,50.001,50,142.229,50,255.999c0,113.771,92.229,206,205.998,206c113.771,0,206.002-92.229,206.002-206
	C462,142.229,369.77,50.001,255.998,50.001L255.998,50.001z M285.822,367.566h-57.646V230.6h57.646V367.566z M257,202.268
	c-17.522,0-31.729-14.206-31.729-31.73c0-17.522,14.206-31.729,31.729-31.729c17.523,0,31.729,14.206,31.729,31.729
	C288.729,188.062,274.523,202.268,257,202.268z"/>
</svg>
