<?xml version="1.0" encoding="utf-8"?>
<!-- Generator: Adobe Illustrator 16.0.0, SVG Export Plug-In . SVG Version: 6.00 Build 0)  -->
<!DOCTYPE svg PUBLIC "-//W3C//DTD SVG 1.1//EN" "http://www.w3.org/Graphics/SVG/1.1/DTD/svg11.dtd">
<svg version="1.1" id="Layer_1" xmlns="http://www.w3.org/2000/svg" xmlns:xlink="http://www.w3.org/1999/xlink" x="0px" y="0px"
	 width="512px" height="512px" viewBox="0 0 512 512" enable-background="new 0 0 512 512" xml:space="preserve">
<path id="warning-4-icon" fill="#FFFFFF" d="M228.55,134.812h54.9v166.5h-54.9V134.812L228.55,134.812z M256,385.188
	c-16.362,0-29.626-13.264-29.626-29.625s13.264-29.627,29.626-29.627c16.361,0,29.625,13.266,29.625,29.627
	S272.361,385.188,256,385.188z M256,90c91.742,0,166,74.245,166,166c0,91.741-74.245,166-166,166c-91.742,0-166-74.245-166-166
	C90,164.259,164.245,90,256,90z M256,50C142.229,50,50,142.229,50,256c0,113.771,92.229,206,206,206c113.771,0,206-92.229,206-206
	C462,142.229,369.771,50,256,50z"/>
</svg>
