<svg xmlns="http://www.w3.org/2000/svg" width="36" height="36" viewBox="0 0 36 36"><g transform="translate(-14 -14)"><linearGradient id="a" gradientUnits="userSpaceOnUse" x1="70.994" y1="-9.117" x2="91.147" y2="-44.349" gradientTransform="matrix(.889 0 0 -.889 -40.728 7.117)"><stop offset="0" stop-color="#982007"/><stop offset="1" stop-color="#510F02"/></linearGradient><path fill="url(#a)" d="M16.025 21.211c-.376.454-.342 1.12.079 1.533l9.255 9.256-9.256 9.256c-.215.213-.336.503-.336.806s.121.593.336.806l5.031 5.031c.213.215.503.336.806.336.302 0 .592-.121.806-.336l9.256-9.256 9.256 9.256c.213.215.503.336.806.336.302 0 .593-.121.806-.336l5.031-5.031c.215-.213.336-.503.336-.806s-.121-.593-.336-.806l-9.256-9.256 9.256-9.256c.215-.213.336-.503.336-.806s-.121-.593-.336-.806l-5.031-5.031c-.213-.215-.504-.336-.806-.336-.303 0-.593.121-.806.336l-9.256 9.256-9.256-9.256c-.213-.215-.503-.336-.806-.336-.303 0-.593.121-.806.336l-5.031 5.031-.078.079z"/><linearGradient id="b" gradientUnits="userSpaceOnUse" x1="67.742" y1="-13.941" x2="97.082" y2="-43.283" gradientTransform="matrix(.889 0 0 -.889 -40.725 7.13)"><stop offset="0" stop-color="#F1140C"/><stop offset="1" stop-color="#8D1A02"/></linearGradient><path fill="url(#b)" d="M21.719 16.947c-.18.047-.342.145-.469.281l-4.031 4.031c-.377.38-.377.994 0 1.375l9.375 9.375-9.375 9.375c-.377.381-.377.994 0 1.375l4.031 4.031c.381.377.994.377 1.375 0l9.375-9.374 9.375 9.375c.381.377.994.377 1.375 0l4.031-4.031c.377-.381.377-.994 0-1.375l-9.375-9.375 9.375-9.375c.377-.381.377-.995 0-1.375l-4.031-4.031c-.381-.377-.994-.377-1.375 0l-9.375 9.375-9.375-9.375c-.233-.245-.576-.351-.906-.282z"/><linearGradient id="c" gradientUnits="userSpaceOnUse" x1="67.742" y1="-13.942" x2="97.081" y2="-43.283" gradientTransform="matrix(.889 0 0 -.889 -40.728 7.117)"><stop offset="0" stop-color="#FF8B8E"/><stop offset="1" stop-color="#B42314" stop-opacity=".722"/></linearGradient><path fill="url(#c)" d="M21.844 17.656l-.094.062-4.031 4.031-.062.125v.156l.062.094 9.562 9.562c.088.084.156.198.156.312s-.068.229-.156.312l-9.562 9.562-.062.125v.156l.062.094 4.031 4.031.125.062h.156l.094-.062 9.562-9.562c.084-.088.198-.156.312-.156s.229.068.312.156l9.562 9.562.125.062h.156l.094-.062 4.031-4.031.062-.125v-.156l-.062-.094-9.562-9.562c-.088-.084-.156-.198-.156-.312s.068-.229.156-.312l9.562-9.562.062-.125v-.156l-.062-.094-4.031-4.031-.125-.062h-.156l-.094.062-9.562 9.562c-.084.088-.198.156-.312.156s-.229-.068-.312-.156l-9.562-9.562-.125-.062h-.156z"/></g></svg>