<svg xmlns="http://www.w3.org/2000/svg" width="280mm" height="140mm"><path font-size="12" fill="#fff" fill-rule="evenodd" d="M301.961 0h388.24v496.063h-388.24z"/><path d="M483.678 384.068v69.097l27.927.288s-8.925-60.172-4.031-68.233c4.895-8.061 9.501-6.91 9.501-6.91s18.138 5.471 20.153 4.607c2.016-.864-.288-6.91 9.501-6.046 3.167-1.152 1.44-6.622 4.319-6.91 2.879-.288 58.444 15.547 70.536.576-3.167-8.349-14.107-.576-16.986-.288-2.591 0-13.531-5.182-19.866 0-5.758-4.318-31.957-7.198-31.957-7.198-3.455-3.455 62.475 1.728 66.218-.863 7.773-7.774-14.395-6.91-17.85-4.319-6.142-3.743-13.844-3.454-18.547-.863-2.255-5.394-23.679-3.071-35.579-4.607-3.809-2.234-3.157-3.504-.576-4.894 24.856 1.056 49.59 4.281 74.567 3.167 6.751-8.801-8.505-12.102-17.85-4.607-5.486-9.022-16.698-.288-24.184-1.151-7.485-.864-4.03-10.077 5.47-8.638 9.501 1.44 26.488-.575 29.655-4.894 3.166-4.318-1.891-8.705-17.563-4.606-5.304-5.184-16.986 0-22.456 1.727-7.278-4.06-24.184-.576-29.942.864-5.637-3.504 29.654-9.213 29.654-9.213 13.623-.241 21.305-2.591 25.623-3.743 20.594-11.038-.295-12.214-11.102-4.191-6.708-5.237-13.081.448-19.127 2.464-6.046 2.015-17.563 3.455-17.563 2.591 0-.864 16.411-10.941 16.411-10.941s20.153-1.439 24.184-2.015c4.031-.576 24.659-11.163-3.455-4.031-9.789.864-15.547.288-19.29.576-21.705-2.244 2.016-4.318 2.016-4.318s30.731-2.825 31.093-4.319c.603-11.982-25.047-6.334-25.335-6.334.074-8.56-23.896.288-23.896 0-4.581-2.699 2.591-5.47 2.591-5.47 6.334-1.535 15.802-1.986 18.279-4.003 0 0 17.889-.173 20.012-4.922-4.387-12.103-37.843 2.149-42.322 4.319-6.046 0 4.031-9.789 4.319-10.077.288-.288 27.639-1.439 40.594-19.002.9-10.69-15.259 6.046-15.259 6.046-1.206-13.864-17.562.864-27.063 2.016-9.5 1.151-9.788-4.319-3.166-5.183 6.621-.863 14.107-.287 17.85-10.364 3.742-10.077 14.971.576 16.986-3.167 2.015-3.743-4.031-6.91-4.031-6.91s8.349-8.637-5.182-8.349c-13.532.288-31.094-1.727-31.094-1.727s14.108-5.471 27.351-5.183c13.244.288 6.046-9.5-6.622-9.5-12.667 0-19.289-4.319-19.289-4.319l21.593-8.061-1.44-6.046s12.668-10.077-5.182-7.774c-17.85 2.304-19.865 2.591-19.865 2.591s-35.7 5.471-35.988 5.471c-.288 0-9.789-2.879-.576-5.183 9.213-2.303 41.746-8.925 46.64-7.197 4.895 1.727-.576-12.092-17.85-13.82-17.274-1.727-27.927 4.319-27.927 4.319s-11.228-4.031-.863-7.486c10.364-3.454 26.775 1.152 26.775 1.152s18.426-5.47 3.167-7.773c-15.259-2.304-20.071 2.062-27.063 2.303-2.791-3.484 23.954-4.317 25.623-7.198-2.821-5.184-19.385 0-29.078 0-4.123-1.749-4.389-4.585.288-6.334l29.051-.187-.261-16.799c-12.538-2.291-27.249 1.653-34.288 1.319 1.883-5.759 28.971-7.237 31.985-8.804 6.269-7.836-26.487 0-26.775 0-5.713-.844-5.344-4.452-1.727-6.622 8.349-.96 27.066 1.215 25.65-4.446-1.085-5.305-12.983-2.464-17.877-1.312-4.894 1.151-12.092.288-12.092.288-3.134-4.219 28.214-2.503 27.927-5.758-.409-3.737-19.866-1.152-26.488-.864-5.174-3.57 24.854-5.925 25.336-6.334 1.085-9.571-20.153 0-24.184 0-4.031 0-2.015-6.046-2.015-6.046s8.349-3.743 8.061-4.319c-.288-.576-6.334-2.591-6.91-2.591-.575 0 0-6.622 0-6.622s6.91-5.182 6.334-6.622c-.576-1.44-8.061 1.152-8.061 1.152v-5.758s5.47-.576 6.046-3.167c.576-2.591-6.622-2.879-6.622-2.879l-2.879-30.23-2.591 28.215c-3.167.48-6.334.96-9.501 1.439 0 0 6.622 3.743 7.774 7.486 1.151 3.743-8.062 2.591-8.062 2.591s7.486 6.334 8.062 8.637c.575 2.303-10.365 2.879-10.365 2.879s9.213 6.622 9.789 10.365c.576 3.743 0 5.758 0 5.758s-15.259-13.244-25.048-9.501c-5.087 2.658 11.654 3.887 22.745 13.531-.026 2.148-26.936-6.554-27.927-1.152.624 1.504 28.735 5.539 30.806 9.213-10.269.384-31.508-2.247-30.806 1.151-2.146 3.923 20.059 1.696 29.366 4.895 2.728 3.1 2.443 5.719-2.303 6.046-8.97-4.289-29.03-7.492-29.078-2.016.122 1.462 20.738.513 28.214 5.471-9.979 2.27-43.828-4.62-44.042-1.265.964 1.567 6.327 8.462 15.54 8.174 9.213-.288 30.517 3.743 31.957 6.622 1.439 2.879-27.639-6.046-38.579-.864-10.94 5.183 31.381 2.016 38.291 8.35 6.91 6.334-13.819-.576-13.819-.576s-28.791-4.031-33.109-2.016c-4.319 2.016-9.213 6.622-9.213 6.622s2.879 5.758 5.758 4.607c2.879-1.152-.864 3.455-.864 3.455s40.307 9.788 49.232 18.425c8.925 8.638-51.247-13.531-51.247-13.531s-24.184 8.925 1.439 9.501c-2.948 4.313 1.44 6.909 1.44 6.909s42.61 8.925 46.928 15.835c4.319 6.91-29.078-6.622-36.564-10.364-7.485-3.743-28.79 2.303-28.502 3.742.288 1.44 10.365 3.455 10.652 6.046.288 2.591-12.379 3.455-12.379 5.758 0 2.304 53.838 13.532 68.233 25.624 14.395 12.092-42.322-14.395-42.322-14.395s3.167 4.318 0 5.47c-3.167 1.151-14.395-16.123-32.821-5.47-3.356 4.383 16.074 7.867 21.017 8.349-1.688 4.34-3.167 5.758 3.743 10.076 6.909 4.319-13.532-6.333-13.532-5.758 0 .576 1.44 7.486 1.44 7.486-6.379-5.182-14.082-6.747-21.305-1.44 0 0-.288 5.183 7.197 8.35-4.087 8.351 4.607 5.758 18.426 13.531-20.539-5.368-22.168 4.607-7.485 6.91s54.989 3.743 64.49 16.122c9.501 12.38-13.498-4.747-16.122-5.182-.576.288-1.152 6.334-1.152 6.334-6.142-3.555-11.802-6.749-19.149-8.255l-1.004 3.936c-6.667-4.808-12.488-8.169-22.169-8.637l-1.152 4.607s-8.061-10.077-23.896 0c-8.842 6.339 33.397 2.303 40.307 9.789 6.91 7.485 1.439 8.637 1.439 8.637l-17.274-6.334s-20.441-3.743-26.199.863c-5.758 4.607 84.068 15.835 86.659 28.215 1.747 6.714-21.111-7.049-40.882-12.956l-2.304 6.622s-7.851-7.887-16.698-9.213c-.288 0 1.727 7.774 1.727 7.774s-22.168-10.365-33.396-4.895c-11.229 5.47 39.155 8.349 43.761 13.532 4.606 5.182-15.259-3.455-16.986 0-1.728 3.455-26.2-6.334-25.912-1.728.288 4.607 3.455 7.198 3.455 7.198s50.959 4.894 52.687 10.94c1.727 6.046-28.215-3.455-28.215-3.455s-2.879 4.319-.576 6.334c2.303 2.016-17.274-11.516-15.547-2.591-6.349-2.528-22.744-10.364-20.441-4.318 2.303 6.046 46.353 14.683 46.353 14.683s-19.29 1.439-18.426 6.334c-24.815-15.118-24.184-5.471-23.608-5.183.576.288-31.957-8.061-7.486 5.183 24.472 13.243 13.244 10.94 13.532 11.228.288.288 2.591 6.622 2.015 6.622-.576 0-16.698-8.638-22.168-9.213-5.471-.576-31.382 7.197-3.743 19.289 27.639 12.092 44.625-2.879 59.884-1.151 15.259 1.727 22.456 4.318 21.017 9.213-1.44 4.894-15.588-16.039-30.479 2.069-16.939-3.352-28.435-5.297-19.691 7.151-27.663-10.338-44.551 3.159-9.714 8.63 34.233 1.009 55.277-8.35 55.277-8.35s5.758 10.653 14.108 3.167c8.349-7.485 8.637 2.879 8.925 2.879.287 0 8.061-3.455 8.061-3.455h2.015z" fill="#198200" fill-rule="evenodd" stroke="#000" stroke-width="1.25" stroke-linejoin="round" stroke-linecap="round"/><path d="M487.049 343.197v-4.822s-10.874-1.929-16.178-.844c-3.141-1.8-6.109-4.17-9.862-2.17-.724 1.567 6.872 5.666 9.403 5.666 2.965 1.876 16.637 2.411 16.637 2.17zm-.121 7.836s-10.875-3.976-15.215.605c.71 4.87 12.804 7.231 15.336 5.905 2.532-1.326 0-6.269-.121-6.51zm18.325 1.929v3.376s13.02 2.531 15.311-.241c2.29-2.773-10.368-4.581-15.311-3.135zm-.6-13.453l.48 3.809s11.211 2.531 15.551-3.617-9.852.049-16.031-.192zm.6-13.069v2.531s8.439 1.327 10.368-2.29c1.929-3.617-10.127 0-10.368-.241zm-17.627-7.787c-1.298-1.852-5.881-6.439-18.178-7.765-8.546-.028 15.437 12.575 18.178 7.765zm17.386-12.828s-.482 3.496-.362 3.496c.121 0 28.934-8.56 35.685-7.957 6.03-1.705 7.234-5.907 6.992-5.907-5.146-3.751-30.018 3.014-42.315 10.368zm.603-10.248c-.121.603-.362 3.376-.362 3.376s20.374-3.979 25.799-7.836c5.425-3.858-25.196 4.581-25.437 4.46zm-.844-10.006l.002 3.399s13.599-.415 16.394-3.158c1.784-2.743-11.985-.39-16.396-.241zm28.38 28.549s7.064.987 8.39-1.062c-.261-3.637-8.39 1.182-8.39 1.062zm-27.777-41.207c-.121.602.12 7.474.12 7.474s32.671-10.368 34.721-12.297c2.049-1.929 6.597-7.735-34.841 4.823zm-.965-10.368v5.425s13.141-.965 19.169-5.908c6.028-4.942-19.169.603-19.169.483zm-15.793-12.297l.844 4.943s-43.28-13.985-43.159-13.985c.12 0-2.18-7.124 42.315 9.042zm.724-17.36c-.121.482-.121 4.701-.242 4.581-.12-.121-30.018-12.538-31.103-11.453-3.97-9.303 31.345 7.113 31.345 6.872zm14.587 7.715c0 .121.482 4.22.482 4.22s18.325-3.858 19.41-5.666c1.085-1.809-19.892 1.567-19.892 1.446zm.433 9.765c.17 1.036.531 4.341.531 4.341s7.354-.603 8.439-2.291-8.97-1.929-8.97-2.05zm-1.156-22.303c0 .362.12 4.099.12 4.099s20.133-3.978 22.303-5.907c2.17-1.929-22.785 1.808-22.423 1.808zm.12-11.091c0 .241-.723 4.099-.241 4.099s24.473-4.099 28.21-7.474c3.738-3.376-27.607 3.737-27.969 3.375zm-.362-19.53v4.22s15.552-3.255 18.446-6.511c2.893-3.255-18.446 2.532-18.446 2.291zm-2.652-28.451l.362 6.389s20.856-2.893 23.87-6.389c3.014-3.496-24.352 0-24.232 0zm-9.644-47.861v3.978s-9.886-.482-7.475-2.17c2.411-1.688 7.475-1.447 7.475-1.808zm9.162 5.304l.241 5.425s12.779-1.205 13.744-3.255c.964-2.049-13.744-2.17-13.985-2.17zm-.723 7.836s.241 3.376.482 3.376 5.063-.362 6.148-1.688-6.148-1.447-6.63-1.688zm-10.85 15.432c0 .361.361 5.184.12 5.063-.241-.121-27.969-8.077-30.501-7.957-2.531.121-3.255-6.389 30.381 2.894zm2.29 9.041c0 .965.603 6.028-.362 5.787-.964-.241-18.806-5.907-16.998-7.595 1.808-1.688 17.36 2.17 17.36 1.808zm-1.567 38.096l.12 4.581s-31.103-9.403-32.188-10.97c-1.085-1.567-4.099-8.921 32.068 6.389zm1.205 11.212c0 .121.242 4.34.121 4.34l-42.315-14.828s-3.376-11.092 42.194 10.488z" fill="#fff" fill-rule="evenodd" stroke="#000" stroke-width="1pt" stroke-linejoin="round" stroke-linecap="round"/><path d="M440.032 354.387c0 .144-.144 4.617-.144 4.617s-8.224-2.309-10.821-6.925c4.761-1.298 11.109 2.452 10.965 2.308z" fill="#fff" fill-rule="evenodd" stroke="#000" stroke-width="1pt" stroke-linejoin="round"/><path font-size="12" fill="#198200" fill-rule="evenodd" d="M0 0h301.961v496.063h-301.961zm690.201 0h301.925v496.063h-301.925z"/></svg>