<svg width="280mm" height="140mm" xmlns="http://www.w3.org/2000/svg" xmlns:xlink="http://www.w3.org/1999/xlink"><defs><linearGradient id="a"><stop offset="0"/><stop offset="1" stop-color="#fff"/></linearGradient><linearGradient xlink:href="#a"/><linearGradient xlink:href="#a"/><linearGradient xlink:href="#a"/><linearGradient xlink:href="#a"/><linearGradient xlink:href="#a"/><linearGradient xlink:href="#a"/><linearGradient xlink:href="#a"/><linearGradient xlink:href="#a"/><linearGradient xlink:href="#a"/><linearGradient xlink:href="#a"/><linearGradient xlink:href="#a"/><linearGradient xlink:href="#a"/><linearGradient xlink:href="#a"/><linearGradient xlink:href="#a"/><linearGradient xlink:href="#a"/><linearGradient xlink:href="#a"/><linearGradient xlink:href="#a"/><linearGradient xlink:href="#a"/><linearGradient xlink:href="#a"/><linearGradient xlink:href="#a"/><linearGradient xlink:href="#a"/><linearGradient xlink:href="#a"/><linearGradient xlink:href="#a"/><linearGradient xlink:href="#a"/><linearGradient xlink:href="#a"/><linearGradient xlink:href="#a"/><linearGradient xlink:href="#a"/><linearGradient xlink:href="#a"/><linearGradient xlink:href="#a"/><linearGradient xlink:href="#a"/><linearGradient xlink:href="#a"/><linearGradient xlink:href="#a"/><linearGradient xlink:href="#a"/><linearGradient xlink:href="#a"/><linearGradient xlink:href="#a"/><linearGradient xlink:href="#a"/><linearGradient xlink:href="#a"/><linearGradient xlink:href="#a"/><linearGradient xlink:href="#a"/><linearGradient xlink:href="#a"/><linearGradient xlink:href="#a"/><linearGradient xlink:href="#a"/><linearGradient xlink:href="#a"/><linearGradient xlink:href="#a"/><linearGradient xlink:href="#a"/><linearGradient xlink:href="#a"/><linearGradient xlink:href="#a"/><linearGradient xlink:href="#a"/><linearGradient xlink:href="#a"/><linearGradient xlink:href="#a"/><linearGradient xlink:href="#a"/><linearGradient xlink:href="#a"/><linearGradient xlink:href="#a"/><linearGradient xlink:href="#a"/><linearGradient xlink:href="#a"/><linearGradient xlink:href="#a"/><linearGradient xlink:href="#a"/><linearGradient xlink:href="#a"/><linearGradient xlink:href="#a"/><linearGradient xlink:href="#a"/><linearGradient xlink:href="#a"/><linearGradient xlink:href="#a"/></defs><path font-size="12" fill="#006" d="M0 3.937h992.126v496.063h-992.126z"/><g font-size="12"><path d="M0 3.937v27.731l440.602 220.301h55.461v-27.731l-440.602-220.301h-55.461zm496.063 0v27.73l-440.602 220.301h-55.461v-27.732l440.602-220.3h55.461zm-289.37 0v248.032h82.677v-248.032h-82.677zm-206.693 82.677v82.677h496.063v-82.677h-496.063z" fill="#fff"/><path d="M0 103.15v49.606h496.063v-49.606h-496.063zm223.228-99.213v248.032h49.606v-248.032h-49.606zm-223.228 248.032l165.354-82.677h36.974l-165.354 82.677h-36.974zm0-248.032l165.354 82.677h-36.974l-128.38-64.19v-18.487zm293.735 82.677l165.354-82.677h36.974l-165.354 82.677h-36.974zm202.328 165.354l-165.354-82.677h36.974l128.38 64.19v18.487z" fill="#c00"/></g><rect width="248.031" height="248.032" x="637.795" y="127.953" ry="124.016" rx="124.016" transform="matrix(.992 0 0 .992 0 3.937)" font-size="12" fill="#ffe300" fill-rule="evenodd"/><g fill-rule="evenodd"><g transform="matrix(.157 0 0 .16 707.66 251.314)" font-size="12" stroke-width="3.75" stroke="#000"><rect width="698.933" height="53.15" x="-35.539" y="496.063" ry="26.575" fill="#007501"/><path fill="#c00" d="M20.731 496.063h62.193v53.15h-62.193zm528.482 0h62.193v53.15h-62.193z"/></g><g font-size="12"><path d="M780.277 340.517c9.978 10.7 16.019 20.532 13.484 21.947-2.535 1.415-12.691-6.121-22.669-16.82-.312-4.072-1.653-4.504.882-5.919s3.652-.457 8.303.792z"/><path transform="matrix(.115 -.064 .084 .09 681.94 282.055)" d="M248.845 853.439c0 95.946-20.934 103.337-39.43 103.337-18.495 0-36.468-7.391-36.468-103.337s17.973-244.292 36.468-244.292c18.496 0 39.43 148.346 39.43 244.292z" fill="#fff" stroke-width="5.352" stroke="#000"/><path d="M777.01 342.617c7.935 11.661 12.126 22.035 9.355 23.155-2.771 1.12-11.459-7.435-19.394-19.097.435-4.056-.815-4.63 1.956-5.75s3.703-.052 8.084 1.691z"/><path transform="matrix(.126 -.051 .067 .098 690.219 274.091)" d="M248.845 853.439c0 95.946-20.934 103.337-39.43 103.337-18.495 0-36.468-7.391-36.468-103.337s17.973-244.292 36.468-244.292c18.496 0 39.43 148.346 39.43 244.292z" fill="#fff" stroke-width="5.352" stroke="#000"/><path d="M773.672 344.452c6.131 12.383 8.715 23.135 5.767 23.999-2.948.865-10.316-8.484-16.447-20.866 1.065-4.013-.097-4.701 2.851-5.566 2.948-.865 3.715.289 7.829 2.433z"/><path transform="matrix(.133 -.039 .051 .104 697.404 268.01)" d="M248.845 853.439c0 95.946-20.934 103.337-39.43 103.337-18.495 0-36.468-7.391-36.468-103.337s17.973-244.292 36.468-244.292c18.496 0 39.43 148.346 39.43 244.292z" fill="#fff" stroke-width="5.352" stroke="#000"/><path d="M769.767 345.556c3.847 12.864 4.481 23.735 1.416 24.265-3.066.531-8.676-9.479-12.523-22.343 1.768-3.837.743-4.641 3.808-5.172 3.066-.531 3.618.689 7.299 3.249z"/><path transform="matrix(.139 -.024 .032 .108 708.099 261.949)" d="M248.845 853.439c0 95.946-20.934 103.337-39.43 103.337-18.495 0-36.468-7.391-36.468-103.337s17.973-244.292 36.468-244.292c18.496 0 39.43 148.346 39.43 244.292z" fill="#fff" stroke-width="5.352" stroke="#000"/><path d="M765.198 346.389c2.164 13.104 1.384 23.995-1.74 24.309-3.125.314-7.417-10.066-9.581-23.17 2.261-3.704 1.343-4.578 4.468-4.893 3.125-.314 3.517.941 6.853 3.754z"/><path transform="matrix(.141 -.014 .018 .11 714.555 258.677)" d="M248.845 853.439c0 95.946-20.934 103.337-39.43 103.337-18.495 0-36.468-7.391-36.468-103.337s17.973-244.292 36.468-244.292c18.496 0 39.43 148.346 39.43 244.292z" fill="#fff" stroke-width="5.352" stroke="#000"/><path d="M731.93 340.517c-9.978 10.7-16.019 20.532-13.484 21.947 2.535 1.415 12.691-6.121 22.669-16.82.312-4.072 1.653-4.504-.882-5.919s-3.652-.457-8.303.792z"/><path transform="matrix(-.115 -.064 -.084 .09 830.281 282.055)" d="M248.845 853.439c0 95.946-20.934 103.337-39.43 103.337-18.495 0-36.468-7.391-36.468-103.337s17.973-244.292 36.468-244.292c18.496 0 39.43 148.346 39.43 244.292z" fill="#fff" stroke-width="5.352" stroke="#000"/><path d="M735.197 342.617c-7.935 11.661-12.126 22.035-9.355 23.155 2.771 1.12 11.459-7.435 19.394-19.097-.435-4.056.815-4.63-1.956-5.75s-3.703-.052-8.084 1.691z"/><path transform="matrix(-.126 -.051 -.067 .098 822.002 274.091)" d="M248.845 853.439c0 95.946-20.934 103.337-39.43 103.337-18.495 0-36.468-7.391-36.468-103.337s17.973-244.292 36.468-244.292c18.496 0 39.43 148.346 39.43 244.292z" fill="#fff" stroke-width="5.352" stroke="#000"/><path d="M738.535 344.452c-6.131 12.383-8.715 23.135-5.767 23.999 2.948.865 10.316-8.484 16.447-20.866-1.065-4.013.097-4.701-2.851-5.566-2.948-.865-3.715.289-7.829 2.433z"/><path transform="matrix(-.133 -.039 -.051 .104 814.817 268.01)" d="M248.845 853.439c0 95.946-20.934 103.337-39.43 103.337-18.495 0-36.468-7.391-36.468-103.337s17.973-244.292 36.468-244.292c18.496 0 39.43 148.346 39.43 244.292z" fill="#fff" stroke-width="5.352" stroke="#000"/><path d="M742.44 345.556c-3.847 12.864-4.481 23.735-1.416 24.265 3.066.531 8.676-9.479 12.523-22.343-1.768-3.837-.743-4.641-3.808-5.172-3.066-.531-3.618.689-7.299 3.249z"/><path transform="matrix(-.139 -.024 -.032 .108 804.122 261.949)" d="M248.845 853.439c0 95.946-20.934 103.337-39.43 103.337-18.495 0-36.468-7.391-36.468-103.337s17.973-244.292 36.468-244.292c18.496 0 39.43 148.346 39.43 244.292z" fill="#fff" stroke-width="5.352" stroke="#000"/><path d="M747.009 346.389c-2.164 13.104-1.384 23.995 1.74 24.309 3.125.314 7.417-10.066 9.581-23.17-2.261-3.704-1.343-4.578-4.468-4.893-3.125-.314-3.517.941-6.853 3.754z"/><path transform="matrix(-.141 -.014 -.018 .11 797.666 258.677)" d="M248.845 853.439c0 95.946-20.934 103.337-39.43 103.337-18.495 0-36.468-7.391-36.468-103.337s17.973-244.292 36.468-244.292c18.496 0 39.43 148.346 39.43 244.292z" fill="#fff" stroke-width="5.352" stroke="#000"/><path d="M762.239 347.542c.12 13.224-2.318 23.989-5.443 24.029-3.125.039-5.758-10.662-5.878-23.886 2.794-3.487 2.025-4.437 5.149-4.476 3.125-.039 3.318 1.244 6.172 4.334z"/><path transform="matrix(.142 -.001 .001 .111 725.866 255.854)" d="M248.845 853.439c0 95.946-20.934 103.337-39.43 103.337-18.495 0-36.468-7.391-36.468-103.337s17.973-244.292 36.468-244.292c18.496 0 39.43 148.346 39.43 244.292z" fill="#fff" stroke-width="5.352" stroke="#000"/></g><path d="M690.945 180.391a4.151 3.226 0 1 0-8.302 0 4.151 3.226 0 1 0 8.302 0h-4.151z" transform="matrix(.115 -.109 .052 .056 724.715 353.056)" font-size="12" fill="#fff"/><path d="M690.945 180.391a4.151 3.226 0 1 0-8.302 0 4.151 3.226 0 1 0 8.302 0h-4.151z" transform="matrix(-.024 -.048 .027 -.011 824.781 323.827)" font-size="12"/><path d="M321.944 435.271c-50.347-2.962-36.765-64.734-51.573-64.734s-65.155 56.27-79.963 71.078c-14.808 14.808-17.769 38.5-17.769 38.5s-2.962-38.5-23.693-41.462c-20.731-2.961-44.423 29.616-44.423 29.616s2.961-32.577 20.731-44.423c17.769-11.847 50.346 0 50.346 0s71.078-68.117 85.886-94.771c14.808-26.654-33.445-28.476-45.291-49.207-11.846-20.731 5.923-79.962-11.846-91.808-14.808 29.615-29.616 97.732-47.386 94.77-17.769-2.962-35.538-50.347-35.538-50.347s8.884 56.27-17.77 56.27l-32.577-56.27s-2.962 59.232-29.616 59.232l-26.654-71.078s-20.731 59.231-35.539 68.116c-14.808 8.885-8.884-65.154-8.884-65.154s-20.731 59.231-44.424 56.269c-23.693-2.961-20.731-50.346-20.731-50.346s-17.769 41.462-50.347 32.577c-32.577-8.885-23.692-56.27-23.692-56.27s-11.846 35.539-38.501 14.808c-26.654-20.731 8.885-53.308 8.885-53.308s-23.693 32.577-50.347 17.769l11.847-65.154s-44.423 14.807-65.154-11.847c-20.731-26.654 29.615-41.462 29.615-41.462s-32.577-5.923-38.5-29.616c-5.923-23.693 41.462-29.616 41.462-29.616s-38.501-8.885-41.462-32.577c-2.962-23.693 44.423-5.923 47.385-5.923 2.961 0-59.232-41.462-59.232-59.231l59.232 8.885s-59.232-38.501-59.232-65.155c0-26.654 38.5-5.923 53.308-2.962-11.846-17.769-53.308-35.538-50.346-56.269 2.962-20.731 56.27 2.961 56.27 2.961s-50.347-53.308-41.462-71.078c8.884-17.769 62.193 23.693 62.193 23.693s-62.193-53.308-56.27-68.116c5.923-14.808 65.155 26.654 65.155 26.654s-59.232-56.27-50.347-77.001c8.885-20.731 59.231 26.655 71.077 35.54-11.846-5.923-68.115-79.963-56.269-97.733 11.846-17.769 74.039 56.27 74.039 56.27s-56.27-88.847-47.385-100.693c8.885-11.847 77.001 71.077 77.001 71.077s-53.308-91.808-32.577-106.616c20.73-14.808 56.269 77.001 59.231 77.001 2.961 0-29.616-100.694-5.923-109.579 23.692-8.884 59.231 94.771 62.192 94.771 2.962 0-23.692-136.232 5.923-133.271 29.616 2.962 23.693 65.155 23.693 68.117 0 2.961 2.962-35.539 20.731-35.539-2.962 8.884 53.308 325.772 71.078 399.812 17.769 74.039 38.5 53.308 53.308 77.001 14.808 23.692 35.538 26.654 59.231 29.616 23.692 2.962 74.474 3.467 88.847-23.693 10.542-25.087-2.962-127.348 81.443-130.309 84.406 2.961 70.902 105.222 81.444 130.309 14.373 27.159 65.155 26.654 88.847 23.693 23.693-2.962 44.423-5.923 59.231-29.616 14.808-23.693 35.539-2.962 53.308-77.001 17.77-74.04 74.04-390.928 71.078-399.812 17.769 0 20.731 38.5 20.731 35.539 0-2.962-5.923-65.155 23.693-68.117 29.615-2.961 2.961 133.271 5.923 133.271 2.961 0 38.5-103.655 62.192-94.771 23.693 8.885-8.884 109.579-5.923 109.579 2.962 0 38.501-91.809 59.231-77.001 20.731 14.808-32.577 106.616-32.577 106.616s68.116-82.924 77.001-71.077c8.885 11.846-47.385 100.693-47.385 100.693s62.193-74.039 74.039-56.27c11.846 17.77-44.423 91.81-56.269 97.733 11.846-8.885 62.192-56.271 71.077-35.54 8.885 20.731-50.347 77.001-50.347 77.001s59.232-41.462 65.155-26.654c5.923 14.808-56.27 68.116-56.27 68.116s53.309-41.462 62.193-23.693c8.885 17.77-41.462 71.078-41.462 71.078s53.308-23.692 56.27-2.961c2.962 20.731-38.5 38.5-50.346 56.269 14.808-2.961 53.308-23.692 53.308 2.962l-59.232 65.155s59.232-26.654 59.232-8.885-62.193 59.231-59.232 59.231c2.962 0 50.347-17.769 47.385 5.923-2.961 23.692-41.462 32.577-41.462 32.577s47.385 5.923 41.462 29.616c-5.923 23.693-38.5 29.616-38.5 29.616s50.346 14.808 29.615 41.462c-20.731 26.654-65.154 11.847-65.154 11.847s38.501 50.346 11.847 65.154c-26.654 14.808-50.347-17.769-50.347-17.769s35.539 32.577 8.885 53.308c-26.655 20.731-38.501-14.808-38.501-14.808s8.885 47.385-23.692 56.27c-32.578 8.885-50.347-32.577-50.347-32.577s2.962 47.385-20.731 50.346c-23.693 2.962-44.424-56.269-44.424-56.269s5.924 74.039-8.884 65.154c-14.808-8.885-35.539-68.116-35.539-68.116s0 71.078-26.654 71.078l-29.616-59.232s-5.923 56.27-32.577 56.27c-26.654 0-17.77-56.27-17.77-56.27s-17.769 47.385-35.538 50.347c-17.77 2.962-32.578-65.155-47.386-94.77-17.769 11.846 0 71.077-11.846 91.808-11.846 20.731-64.287 22.553-49.479 49.207 14.808 26.654 85.886 94.771 85.886 94.771s32.577-11.847 50.346 0c17.77 11.846 20.731 44.423 20.731 44.423s-23.692-32.577-44.423-29.616c-20.731 2.962-23.693 41.462-23.693 41.462s-2.961-23.692-17.769-38.5c-14.808-14.808-65.155-71.078-79.963-71.078-14.808 0 7.15 61.772-46.158 64.734z" font-size="12" stroke="#000" stroke-width="1pt" transform="matrix(.157 0 0 .16 706.116 259.818)"/><path d="M765.632 247.261c.251.073-3.479 7.273-8.769 11.001-5.29 3.728-9.69 2.157-10.735 1.766.084 1.156.344 7.47.576 10.787.96 14.68-3.255 19.595-3.255 19.595s2.79 4.739 2.79 7.108c0 2.369-.127 5.466 2.189 11.166 4.123 7.616 4.65 8.529 4.65 11.372s.714 6.949 3.652 6.322c3.267.933 3.652-3.508 3.652-6.351s.526-3.756 4.65-11.372c3.302-5.365 1.531-8.797 1.531-11.166 0-2.369 2.79-7.108 2.79-7.108s-4.215-4.748-3.255-19.428c.465-6.634 4.185-13.742-.465-23.693z" font-size="12" fill="#fff"/><path d="M199.991-198.148s21.989 4.188 35.601 14.659c13.612 10.471 20.941 21.989 14.659 28.271-6.282 6.283-19.894 3.141-30.365-2.094-10.471-5.235-29.318-28.271-28.271-28.271 1.047 0 0 28.271 21.988 39.789 21.989 11.518 24.725 14.133 33.101 13.086 8.377-1.047 30.085-29.776 29.038-42.341-1.047-12.565-12.926-23.099-30.726-29.381-17.801-6.283-45.025 8.376-45.025 6.282z" transform="matrix(.208 .017 .028 .198 698.293 262.387)" fill="#ffe300" stroke="#000" stroke-width="1pt"/><path d="M337.62-155.484a11.106 10.366 0 1 0-22.212 0 11.106 10.366 0 1 0 22.212 0h-11.106z" transform="matrix(.157 0 0 .16 706.349 259.344)" fill="#fff"/><path d="M528.641-38.502c7.549.151 39.818-13.954 49.606-29.616 16.126-25.8 37.761-75.52 37.761-75.52s-4.443 38.5 4.442 41.462c8.885 2.961 17.77-1.482 32.577-8.886-2.961 9.626-32.827 25.527-30.355 33.319 2.326 5.645 43.683-2.962 54.789-3.702-9.626 6.663-57.891 14.49-59.973 27.395-1.621 10.047 31.097 10.365 41.463 15.548-13.327 1.481-45.067-1.988-54.049 8.885-5.085 6.156 33.317 44.424 27.394 44.424-5.923 0-31.761-36.417-42.942-28.135-8.81 6.526-2.221 30.356-3.702 42.203-6.664-8.144-16.229-38.181-25.174-38.501-11.786-.421-31.096 33.318-39.981 39.981 5.183-10.365 16.711-45.448 12.587-50.347-5.88-8.04-46.645-1.481-59.973 8.885 10.367-17.029 46.707-27.556 55.53-27.395z" transform="matrix(.153 -.011 .009 .129 709.67 263.005)" fill="#fff" stroke="#000" stroke-width="1pt"/><path d="M528.641-38.502c7.549.151 39.818-13.954 49.606-29.616 16.126-25.8 37.761-75.52 37.761-75.52s-4.443 38.5 4.442 41.462c8.885 2.961 17.77-1.482 32.577-8.886-2.961 9.626-32.827 25.527-30.355 33.319 2.326 5.645 43.683-2.962 54.789-3.702-9.626 6.663-57.891 14.49-59.973 27.395-1.621 10.047 31.097 10.365 41.463 15.548-13.327 1.481-45.067-1.988-54.049 8.885-5.085 6.156 33.317 44.424 27.394 44.424-5.923 0-31.761-36.417-42.942-28.135-8.81 6.526-2.221 30.356-3.702 42.203-6.664-8.144-16.229-38.181-25.174-38.501-11.786-.421-31.096 33.318-39.981 39.981 5.183-10.365 16.711-45.448 12.587-50.347-5.88-8.04-46.645-1.481-59.973 8.885 10.367-17.029 46.707-27.556 55.53-27.395z" transform="matrix(-.153 -.011 -.009 .129 804.477 263.675)" fill="#fff" stroke="#000" stroke-width="1pt"/><path d="M546.541-30.339c7.606-1.682 38.078-6.693 47.866-22.355 16.126-25.8 8.658-64.009 14.717-88.507 6.868 22.339 2.441 36.063 11.326 39.025 8.885 2.961 11.842-5.425 26.649-12.829-2.961 9.626-26.899 29.47-24.427 37.262 2.326 5.645 43.683-2.962 54.789-3.702-9.626 6.663-57.891 14.49-59.973 27.395-1.621 10.047 31.097 10.365 41.463 15.548-13.327 1.481-45.067-1.988-54.049 8.885-5.085 6.156 33.317 44.424 27.394 44.424-5.923 0-31.761-36.417-42.942-28.135-8.81 6.526-2.221 30.356-3.702 42.203-6.664-8.144-16.229-38.181-25.174-38.501-11.786-.421-31.096 33.318-39.981 39.981 5.183-10.365 16.711-45.448 12.587-50.347-5.88-8.04-18.554-4.779-32.821-12.81 23.563-3.576 37.863 5.684 46.278 2.463z" transform="matrix(.082 .115 .073 -.088 771.726 150.093)" fill="#fff" stroke="#000" stroke-width="1pt"/><path d="M546.541-30.339c7.606-1.682 38.078-6.693 47.866-22.355 16.126-25.8 8.658-64.009 14.717-88.507 6.868 22.339 2.441 36.063 11.326 39.025 8.885 2.961 11.842-5.425 26.649-12.829-2.961 9.626-26.899 29.47-24.427 37.262 2.326 5.645 43.683-2.962 54.789-3.702-9.626 6.663-57.891 14.49-59.973 27.395-1.621 10.047 31.097 10.365 41.463 15.548-13.327 1.481-45.067-1.988-54.049 8.885-5.085 6.156 33.317 44.424 27.394 44.424-5.923 0-31.761-36.417-42.942-28.135-8.81 6.526-2.221 30.356-3.702 42.203-6.664-8.144-16.229-38.181-25.174-38.501-11.786-.421-31.096 33.318-39.981 39.981 5.183-10.365 16.711-45.448 12.587-50.347-5.88-8.04-18.554-4.779-32.821-12.81 23.563-3.576 37.863 5.684 46.278 2.463z" transform="matrix(-.082 .115 -.073 -.088 744.258 153.444)" fill="#fff" stroke="#000" stroke-width="1pt"/></g></svg>