<svg version="1" width="210mm" height="140mm" xmlns="http://www.w3.org/2000/svg"><path font-size="12" fill="#ff0" fill-rule="evenodd" d="M0 0h744.094v496.063h-744.094z"/><path d="M282.97 273.899c-31.57-6.335-64.376-34.335-63.581-70.077.723-14.716 5.239-10.67 6.441-21.822-3.06-26.698 25.833-42.695 41.871-50.548 9.02-.948 13.712 2.778 28.699 1.852-10.205 4.629-17.539 8.334-17.22 12.037l8.493-.925s5.052 6.445-21.886 11.11c8.458 8.37 13.394 8.334 22.959 6.482 12.437-3.704-34.018 16.149-1.949 39.036.977 18.258-28.973-3.006-34.882 28.298-2.722 13.343 17.993 31.952 31.055 44.557zm-26.75-39.205c.985 8.69 26.787 37.964 45.92 47.224 20.089 6.481 45.92-9.26 49.747-18.519 5.18-11.224 6.02-29.265.956-36.653-1.683-2.825-20.047-24.234-30.614-25.848-25.789-3.942-21.046 2.314-31.569.926 0 5.555-1.914 9.722-5.741 11.574-3.825 1.852-8.609-.001-17.697 2.777-2.87.927-12.348 6.647-11.002 18.519zm-13.532 24.291c13.244 34.96 65.453 55.823 95.382 52.054-15.559-15.06-27.736-11.46-52.087-32.41-9.472-1.31-32.757-9.564-43.295-19.644zm25.706-132.911c-3.382-3.273.675-8.512 8.794-12.441 8.118-3.928 12.853-2.618 16.234-2.618 17.589-4.91 7.105-4.583 24.692-15.386 3.72 2.4 18.603 12.331 24.014 18.004.451 44.959-11.725 44.959-13.529 75.95-3.833-5.675-3.609-19.859-7.441-34.046-7.667 10.696-13.98 10.912-20.97 19.642 0-5.237-2.706-5.238-4.06-7.857-.901 4.147-9.92 9.604-14.882 17.679-2.93-12.331 17.815-21.388 15.56-28.81-6.088-.218-13.529 3.493-21.648 1.31 21.647-6.765 14.207-8.948 20.295-15.059-3.382-.654-4.06-1.158-8.596-.654 8.8-5.238 17.629-7.658 17.39-11.131 0-4.666-1.805-9.167-2.706-13.75-1.353 4.146-3.562 7.58-6.212 10.588-2.284 2.903-13.698 3.093-15.196 1.852-3.618-3.548-.916-6.984 4.496-13.094-8.794 2.619-12.176 13.095-16.235 9.821zm15.219 64.164c1.354 3.274 6.09 5.893 10.148 7.203 2.707-3.929 27.737-2.619 27.059-2.619-2.706-7.53-4.059-15.715-2.029-29.791-4.059 3.273-13.867 9.493-21.308 22.588-2.03-3.928-.001-6.546-2.03-11.785-2.818 5.02-11.05 9.385-11.84 14.404zm1.017 114.58c1.354 30.336 18.94 46.268 21.646 45.178 6.878.326 9.02-6.549 30.78-6.876-9.922-7.639-24.578-24.444-27.059-30.118-5.074-.764-12.176-.873-25.367-8.184zm-114.709 18.601c-1.477-9.013 2.318-13.029 21.581-15.168 16.302-4.899 12.867-6.318 23.014-6.86 11.972-.681 17.103 11.614 68.204 18.424.242 5.718 3.056 12.156 10.05 21.017-17.004-3.536-25.664-10.41-35.005-13.03-4.397-.327-2.586 7.66-6.984 9.952-2.028-4.365.678-14.032-2.704-14.797l-18.831-5.76c-1.587 8.535 2.383 13.597 6.642 22.849-10.449-.96-13.299-9.64-12.177-23.373-9.019.83-14.378.185-14.095 1.113-2.819 1.854-14.318 18.877-12.176 22.587-5.299-1.353-7.108-3.884-7.333-9.23-.451-2.292 6.104-6.746 11.064-14.276-10.887-1.188-20.553 2.34-31.25 6.552zm145.612-9.556c28.223 36.265 46.84 39.278 54.71 51.071 2.97 4.739 6.757 8.382 8.91 9.114 6.218.309 14.827.154 18.654-.462 4.784-6.173-.478-10.494-1.435-15.278-.16-7.716 3.509-11.266 1.913-17.593-4.464 2.932-8.928 6.79-15.784 6.018.956-7.408 7.174-6.944 5.74-14.352 5.58-6.481 4.183-9.994 4.501-12.772-32.365 3.842-44.456-5.215-50.495-4.55-4.503.454-15.597 1.56-26.714-1.196zm52.226 56.376c-15.535 37.299-30.509 51.334-38.968 59.665-4.224 4.127-19.013.371-26.621.8-14.075.691-13.493 7.456-14.632 12.6 7.993-.923 10.172-5.391 15.618-5.24 7.502 1.037 11.327.67 16.989 1.004 4.17-1.179 6.207-.763 9.31-1.145-.242 3.781-12.341 9.782-18.511 14.671-3.214 5.035-.56 9.42 1.024 10.866 3.396-2.677 4.009-2.443 7.702-3.682.157-8.771 8.388-9.043 14.181-16.625 7.181 4.185 12.887 1.024 17.192-2.47 3.61 1.937 7.114 12.266 16.837 19.187 2.624-4.178 1.515-5.564 1.532-8.207-5.649-3.6-11.478-9.556-14.643-17.506-2.753-11.787 2.981-18.289 5.99-22.339 5.859 5.728 8.47 7.929 17.559 5.977-7.674-4.091-11.787-5.862-13.592-10.604 3.373-4.393 12.371-15.067 25.401-27.094-6.218-1.026-12.138-.616-14.917-2.137-2.975-1.237-5.126-5.167-7.451-7.721zm-95.414-268.227c1.101-3.413 6.599-6.5 13.112-10.241 2.253 2.198 2.473 3.741 4.387 5.284l-17.499 4.957zm1.123 2.126c6.313-1.746 12.627-2.835 18.265-4.909 2.481 2.618 3.946 5.564 7.102 7.528-2.254.654-3.832 1.31-6.426 1.964-.676 0-2.705-.653-3.044-3.273-6.933.492-15.221-.654-15.897-1.31zm28.75.982c-3.269-2.399-9.921-10.911-12.514-15.058 3.608-1.964 9.244-6.875 13.191-9.167 12.176-5.675 10.823.765 18.94.655 12.741.109 19.053 13.641 19.618 26.518-4.285-2.402-7.215-5.457-15.559-10.804-3.043-1.964-7.442-6.875-11.162-4.255-2.819 3.055-8.681 6.438-12.514 12.111z" font-size="12" fill="#ff0030" fill-rule="evenodd" stroke="#f00" stroke-width="1.198pt"/><path d="M303.233 86.297c-2.142 1.365-2.135 5.234-.338 6.875 2.149 1.96 5.412.219 4.059-1.637-1.58-2.291.225-5.565-3.721-5.238z" font-size="12" fill="#ff0" fill-rule="evenodd" stroke="#f00" stroke-width="1.198pt"/><path d="M286.49 88.262c-4.058 1.636-7.103 1.964-8.795.654-2.029-2.292-3.382-3.928-4.058-10.149 2.142-7.966 7.667-13.313 14.205-22.588 1.354-1.091 4.398 3.055 8.118 5.237-1.014-6.928-.338-8.948 1.353-11.621 2.367-4.038 7.441-11.675 8.456-10.476 2.255 3.874-.225 12.331 2.369 11.949 5.13.164 4.51-16.04 15.389-19.151 2.593-.764-2.593 14.187.676 14.405 7.441 1.309 9.133-15.059 16.235-12.768 5.863.382 13.416 14.841 13.529 18.824.113 9.276-4.847 18.552-9.133 20.298-7.723 4.146-14.43 6.984-25.198 5.238.903-6.548-12.062-3.493-14.204-1.965-3.496 1.637-4.623 2.619-7.781 4.583-1.352-1.418-2.706-6.111-4.057-4.256-.339 5.893-2.367 8.839-7.104 11.786zm18.569 199.617c6.06 2.778 21.017 11.608 36.305 9.316l-6.976 5.499c7.938 8.708 14.641 7.925 24.484 11.762 12.419 3.102 32.446 1.497 35.648 1.857-1.016-8.512 1.741-6.168-.06-30.23-4.34 8.839-4.658 17.753-15.481 22.336-.957-2.469-.56-4.611.174-9.372-4.146 2.778-5.924 10.139-20.894 10.298 2.031-4.976 4.06-8.97 8.795-13.618-4.33-4.182-15.085.149-26.516-6.65 12.707.73 22.033-.832 30.005-2.067-.32-4.321.04-7.006-1.633-11-6.828 5.181-12.639 2.835-21.328.814-24.94 13.015-32.632 10.643-42.523 11.055zm45.866-14.49c5.41-6.111 6.764-12.221 8.792-18.987 3.045 4.692 7.442 13.968 7.78 18.005-3.045 1.418-8.118 4.802-16.572.982zm-17.928-72.349c19.053 14.296 23.902 23.352 25.367 27.827 2.48 7.639 2.256 13.968 2.031 18.988 6.2 6.875 12.401 19.642 13.866 27.826 2.255 20.297-8.342 26.19-9.47 29.463 4.735-.873 11.5-8.292 17.589-12.439.45 3.273-.453 6.547-.678 9.821 3.27-2.073 10.598-19.861 11.839-23.898 6.539-2.51 6.539 30.663 4.735 42.231.452 2.62-6.539 14.404-9.47 20.297 3.832-.546 10.373-6.985 15.559-15.387 0 5.675.676 11.349 2.029 13.095 2.706-4.365.869-19.031 6.764-18.334-2.806 22.529.902 30.556 3.721 51.399 2.819-6.22.901-31.427 4.397-42.231 2.48-.218 10.373 11.348 15.558 13.095-4.96-10.15-13.98-15.714-14.883-28.482 1.354-2.073 10.148 9.602 16.237 13.422 3.607 2.401 6.538.874 8.793-.654-9.357-1.964-24.127-20.952-26.043-27.5-7.215-21.216-7.741-40.584-40.1-70.623-19.953-18.521-26.081-24.751-47.841-27.916zm54.287 27.636c-11.354-13.258-1.843-49.538 8.611-73.151 7.029-15.256 31.157-44.618 79.402-49.076 34.482-2.524 64.232 12.894 80.361 31.483-3.255-.931-6.328-2.286-9.567 0 3.171.954 38.149 30.359 16.263 63.89 4.666-23.345-13.149-47.946-32.527-55.556-25.568-11.14-56.369-8.681-84.186 2.778-19.542 9.112-48.317 34.107-50.703 60.186 9.081-19.596 22.961-34.631 28.699-38.89-12.053 22.614-10.941 26.064-11.479 29.631-7.434 9.704-18.372 16.991-24.874 28.705zm49.268-116.671c15.147-14.506 88.651-50.309 101.886-77.778-3.827 33.025-33.484 46.605-37.31 51.852 10.682 2.315 32.845-8.333 49.267-12.5-12.436 13.271-36.352 27.47-44.004 31.482-32.528-7.253-53.575.308-69.839 6.944zm-19.611 85.65c8.334-48.036 58.499-52.771 66.208-53.975-2.236 7.854-8.889 15.199-13.114 18.79 31.888.574 39.355 9.61 56.923 25.926-28.222-16.05-45.944-16.901-63.059-16.939-9.566 14.97-25.433 11.692-46.958 26.198zm71.643-54.232c-1.354 1.31-7.441 13.749-10.824 16.368 5.414 0 8.457.655 11.163 1.31 3.495-6.001 6.989-12.003 12.514-17.35-3.608-.764-8.569-.874-12.853-.328zm-22.323 30.773c-1.691 2.619-3.383 4.257-5.074 6.221 4.398 0 13.219.289 17.25-.656.95-3.121 1.579-2.946 2.706-4.583-2.931-.437-8.229-.872-14.882-.982zm-75.628 57.72c8.132-14.506 38.882-44.552 72.229-47.222 13.743-1.025 55.964-4.169 73.184 19.906-23.438-16.203-63.141-12.499-81.316-1.388-27.745 3.395-46.876 25.308-56.444 37.037-2.55-3.087-3.19-4.321-7.653-8.333zm9.567 10.185c1.913 2.778 3.827 5.556 5.739 8.334 2.551-2.162 33.803-38.581 77.968-24.538-7.335-7.407-11.798-10.185-17.219-10.185.638-1.851 7.015-3.704 20.089-3.704-43.209-15.895-72.067 14.507-86.577 30.093zm69.358-39.816c3.986-4.166 38.587-6.481 48.311-2.314 24.554 6.636 50.079 29.891 54.53 61.575 10.368 71.646-22.004 100.31-17.22 174.077-12.754-24.382-13.075-41.358-10.523-62.963-12.755 10.031-21.685 19.137-25.83 38.427-7.813-33.18 18.914-47.496 29.178-76.855 11.103-31.755 6.146-62.158.956-78.241-9.798-30.369-31.887-54.014-79.402-53.706zm7.653 13.427c6.617 2.778 10.012 8.15 15.585 15.768 11.169 10.891 23.612 22.54 25.074 37.011 2.166 22.801-4.003 37.86-13.872 45.834-10.684 7.861-22.959 11.42-47.356 4.63 13.713 11.266 19.208 11.292 29.657 11.574 10.513.309 27.744-3.704 46.399-24.538 2.87 22.225-18.176 32.408-17.22 32.408.956.926 32.527-1.851 32.527-52.778 0-44.756-30.932-74.693-61.226-78.706 13.233 4.784 14.03 11.42 13.871 16.205-7.175-8.335-15.308-7.408-23.439-7.408zm-68.88 37.037c12.756-12.655 33.343-23.348 49.746-25 36.092-3.538 61.546 38.581 55.966 58.334-2.87-6.79-5.74-10.803-9.567-11.11 16.423 28.858-10.044 42.13-17.697 43.055 5.102-6.481 6.377-24.074 2.868-29.63-6.696 6.173-9.565 12.347-18.176 12.038 8.929-6.173 6.378-8.642 9.568-12.964-4.785.926-12.438 8.334-25.832 8.334 10.206-4.629 7.973-20.371 7.655-25-5.421 1.851-5.102 8.332-10.523 13.888 1.594-6.79.317-8.025-.002-12.037-5.102 8.952-12.117 10.495-15.307 8.334 5.103-3.704 3.433-12.881.957-14.815-5.816-4.547-15.305-2.778-21.046 3.703-1.914-5.401-5.74-12.654-8.61-17.13zm33.005 97.225c14.19-1.081 22.642-4.012 33.005-15.278 21.047 1.234 33.483-1.235 51.66-14.815-.638 6.172-13.712 17.902-19.133 19.444 3.506 2.161 7.015 4.321 10.523 2.778-4.784 9.568-7.653 19.138-8.61 42.594-3.826-6.481-5.262-17.131-3.348-31.02-7.654 2.779-7.176 28.242-7.176 28.242-2.551-8.024-3.189-5.863-1.912-21.296-9.885 11.419-14.032 28.396-15.306 60.185-11.64-16.048-4.147-48.766-1.436-60.185-5.74 6.481-30.134 19.906-41.615 7.869 9.566-.926 23.916-7.407 30.613-18.519-12.597 2.778-21.366 4.631-27.265.001zm-23.437-76.39c5.102 30.247 18.335 34.667 35.873 37.6-17.561-10.676-25.9-24.146-29.655-33.433 5.102 1.08 6.377-1.544 11.958-2.778.318-3.395-.798-6.792-3.827-6.945-7.654-.309-10.045 2.16-14.349 5.556z" font-size="12" fill="#ff0030" fill-rule="evenodd" stroke="#f00" stroke-width="1.198pt"/></svg>