<svg version="1" width="210mm" height="140mm" xmlns="http://www.w3.org/2000/svg"><path font-size="12" fill="#ff0" fill-rule="evenodd" d="M0 0h744.094v496.063h-744.094z"/><path d="M321.654 129.215c-2.298-4.211-21.087-22.12-36.563-20.938-3.692.431-16.649-8.952-16.25-21.875.303-10.277 5.088-12.586 18.125-14.375 4.172-.875 13.163 5.713 13.466 12.197.229 4.422-6.096 13.694-4.385 14.991 5.874 4.981 20.949 14.298 27.188 22.794 1.208 1.566.387 3.323.313 4.716-.152 3.166-.737 4.157-1.894 2.49z" font-size="12" fill="#f00" fill-rule="evenodd" stroke="#000" stroke-width="1pt"/><path d="M505.153 27.277c-19.951-.071-52.474 13.519-55 51.25-1.18 17.043-4.713 42.069-12.063 58.625-.826-3.245-1.684-6.792-1.75-10.594-.093-1.459-6.156-1.291-5.281-2.219 2.437-2.115 4.408-4.077 3.531-12.375-7.17 5.36-13.7 3.99-14.156 1.781-.03-5.714-.979-20.944 1.781-21.219 4.977-.936 25.269-11.163 11.5-26.969-1.162-1.292.837 13.714-9.281 14.156-2.155 0-5.762-3.699-.469-9.281 5.875-6.225 5.502-25.395-3.531-35.344-.199-.209-.515-.308-.969-.281-3.179.189-11.998 5.458-17.594 6-16.439 1.591-48.261-1.612-49.938.906-10.363 15.119-26.057 13.904-33.125 15.906-1.771.502-1.586 7.868-1.344 11.5.053.788 2.724-.758 2.219 1.75 0 2.194-1.574 1.553-2.219 3.969-.692 4.245.754 16.208-1.313 18.563-1.616 2.343-.438 6.239 2.656 7.531 2.041.561.1-5.972 8.375-1.781 2.939 1.572 7.03 6.351 7.094 9.719.305 16.88-23.823 27.362-27.406 23-3.299-4.83-11.337-15.262-20.344-15.031-5.338.152-14.007 8.387-14.125 15.031-.021.988-1.176 3.241-2.781 6-.266-.596-.665-1.151-1.219-1.594-22.756-17.85-21.741-31.237-21.656-47.719.485-8.907 12.989-9.181 11.5-17.25-1.213-6.212-12.549-14.58-22.094-14.563-4.142.008-8.695 2.589-7.969 8.375.129 2.628-4.409 1.924-4.406.906.449-3.266-.927-10.395 2.656-12.375 1.574-.992-2.478-4.233-4.438-4.438-7.91-.826-22.369-3.002-25.188 1.344-1.343 1.628-.694 10.858 1.781 11.469 2.433.509-.219 8.873-.875 7.094-4.588-11.685-10.355-9.492-14.156-6.625-4.086 2.761-12.419 9.808-11.5 15 1.012 6.199-.149 12.663 17.688 11.938 1.649-.069.368 4.021-.875 4.875-3.472 2.387-8.475 3.652-12.656 3.969-.386 8.67-1.624 26.299 12.656 26.531 4.937-.136 5.689-2.486 7.5-4.875 1.186-1.257 2.793-2.15 6.188-.875-4.244 10.25-8.801 11.742-21.656 11.469.481 3.367 9.913 12.605 23 11.5.907 3.609-9.166 14.391-11.063 8.844-.627-1.979-3.419 1.307-4.875 3.531 1.898 3.374 10.607 8.513 12.375 9.719.961.874-6.894 1.469-13.25-1.75 3.401 22.558 16.852 20.732 25.625 20.313 2.644-.105.293 3.089-5.281 5.313 6.744 10.775 20.582 5.267 28.469.438.588-.087 1.093-.381 1.656-.531-.399.718-1.041 1.624-1.406 2.313-2.357 4.445 1.364 10.57-2.656 15.906-2.302 2.549-14.542 19.628-21.219-9.719-16.796 20.705-7.268 40.242 14.594 40.656 10.711 1.087 25.094-7.891 31.813-17.688 8.822.594 13.933-10.485 17.25-7.063 1.738 1.609 2.48 4.804 3.156 7.844l-.063.094c-14.359 18.145-48.828 46.31-63.656 34.938-2.423-1.99 5.734-10.851 0-14.156-4.228-2.692-20.146 2.494-26.5 7.5-3.369 2.654.937 14.261-1.781 16.375-2.585 2.011-9.002-6.119-14.125-2.656-5.394 4.112-4.642 16.589-2.656 22.969 1.591 3.694 5.521 1.057 6.188 2.656.807 1.936-.58 5.678.438 7.969 2.518 5.665 3.912 15.821 8.844 16.344 9.599.97 16.366 3.216 15.906-9.719 1.762-2.064.348-8.259 5.75-8.406 1.708-.186 1.034 9.011 1.313 13.25-.156 4.048 14.823 5.88 17.25 5.75 8.844-.032 9.677-9.197 10.156-22.531 4.824-.955 3.03 17.731 10.156 19.875.595-18.48 9.794-17.296 10.625-24.75 2.999 3.918 5.476 7.74 3.531 8.844-2.196.804-3.287 12.966 7.5 8.844-3.937-3.238-3.609-5.788-2.469-6.156 2.567-.387 6.685-6.449 6.906-8.875 2.825-.041 7.02-.791 6.625 0-1.326 2.21-3.987 8.836.875 9.719 5.22.867 3.099-9.23 6.625-13.688 2.313-3.343 6.084-6.016 7.531-10.156.816-2.086 4.764 10.366 6.188 9.719 3.143-6.129 2.266-14.486 4.406-15.031 3.107-1.675 2.427 6.417 5.313 7.5 2.713-3.882 4.07-11.686 7.5-11.469 3.022.219 2.471-.487 6.625 3.531.982-5.37 7.391-14.388 7.063-29.188 2.113-.724 8.453 16.825 8.844 14.156.394-8.663 11.177-12.838 9.313-31.688 25.923 4.368 25.205-.969 26.719.188 13.668 9.559 12.605 4.957 30.75 20.375.836.84.814 2.668.438 4.938h-.031c-30.3-2.35-57.554 23.536-65.844 35.344-1.88 2.895-26.768 1.132-37.313 4.625-19.048 6.103-31.149 28.085-45.531 35.875-6.594 2.947-20.442.824-24.75-.906-2.572 21.154 8.563 23.055 17.875 23.531 21.701 1.141 23.197-9.668 29.594-7.875 5.166.823 19.01 15.615 18.563 20.344-.388 4.644-7.382 13.416-11.469 15.531-5.706 2.562-14.118 1.586-21.219 1.25-.119-4.104.966-7.833-1.156-9.719-3.181-2.828-8.948-2.075-14.75-4.406-3.105-1.398-8.051 1.877-9.719 4.656-1.868 3.113-2.26 9.54-.906 13 1.298 3.316 9.075 5.766 8.844 7.969-7.643 4.199-18.825-2.159-21.219 0-5.41 5.504-1.968 20.366.906 27.406 2.187 3.826 5.708 2.212 8.188 2.188 1.206 2.856-.088 7.072 1.781 9.281 2.992 3.536 10.415 8.219 14.313 7.531 3.616-.638 5.775-1.686 7.969-10.188 1.033-4.004 6.411 7.592 8.844 8.406 6.127.938 15.638.708 19.875-1.75 6.253-5.564-2.169-10.683 1.344-14.594 2.853.04 5.756 8.106 10.594 11.031.76-3.662-.772-11.158.875-11.906 1.594 4.579 6.378 8.165 10.188 7.063-.716-6.705-.033-18.412.438-21.219 2.181-.582 6.343 15.164 10.594 15.906.095-8.329-.29-17.712 1.781-19.438 1.464 5.409 6.717 11.884 9.719 11.031-1.087-9.901 1.096-11.512 3.969-19 2.748-6.719 3.444-14.148 6.625-15.906 2.837-1.377 7.767 2.034 2.719 8.438-1.841 1.775-1.043 8.172.375 13.219 2.936-6.473 18.228-13.064 18.563-22.531.473-12.936-14.92-27.222-17.656-30.938-2.439-3.312-3.844-14.72-.469-16.781 10.548-6.44 21.947-11.479 48.219-10.875 10.214 16.53 20.336 27.705 17.219 38.844-3.867 12.932-15.638 5.694-21.25-1.25-2.921 18.03 4.958 26.18 12.5 28.125 20.553 5.073 23.215-6.766 27.5-7.5 18.431-3.979 30.739.828 47.875-7.5 2.785-1.427 7.488 26.447-7.875 34.469-2.277 3.595-10.712 2.825-14.125 1.25-2.004-.925.947-4.853-2.125-6.969-9.636-6.635-16.633 4.868-23.75 8.75-.8 4.868-4.158 6.086-4.375 8.125-.825 7.752 11.226 8.787 10.625 11.875-8.149 1.287-12.723-5.077-18.75-3.125 1.027 6.381-3.903 4.118-3.125 9.375 1.438 5.389 7.546 15.945 12.5 19.375 3.171-.305 6.604-.447 9.375-3.125 2.854 9.761 21.942 11.672 28.75 10.625-.349-11.869.442-15.803 6.875-15.625-.808 8.364 2.785 11.575 6.25 13.125 4.452 1.992 13.16 3.034 16.25 0 7.101-6.346 7.751-12.002 5-13.75.876-4.085 5.963-4.438 6.25-7.5 1.824-12.794-2.072-16.878-1.25-25 2.095-1.253 8.653 25.593 15 21.875-.097-6.699.156-12.69 3.75-15.625 3.895 8.498 11.144 10.371 14.375 11.25-11.773-13.379-2.361-13.365-1.25-22.5.41-2.155 6.739 7.225 10.625 6.875.352-6.398 1.051-24.641-.625-26.875-5.292-7.679-3.876-15.113-.625-14.375 5.838 1.183 1.686 17.21 10 21.875 3.547-14.634 7.842-20.975 7.5-23.75-1.798-15.232-15.592-20.902-30.625-19.375-1.899.185-30.883-24.658-54.375-22.5 2.077-7.134 6.397-19.7 8.875-32.688 19.813 26.124 41.894 32.975 70.5 40.438 13.656 5.015 6.315 13.525 7.5 21.625 1.732 3.983 7.339 8.508 12.5 10 .256-4.825-3.462-6.441-3.125-13.125.814-5.66 5.76-13.211 5.625-18.125-.282-10.294-7.83-18.306-15-17.5 15.92-28.723 14.64-44.902-6.25-74.375-3.069-5.736.795-26.13 23.75-14.375-5.767-24.255-38.179-17.047-41.875-1.875-6.095-2.047-8.031-13.663-4.375-18.75 5.927-8.247 19.375-19.87 43.125-9.375-3.125-7.787-15.636-27.179-44.375-16.875 2.072-13.013 55.153-27.068 51.25-93.125-2.243 4.078-33.277 64.316-53.75 64.375 6.098-10.163 29.366-47.475 29.375-68.125.008-17.467-19.105-52.972-60.625-53.125zm18.75 34.375c12.5-.69 23.554 9.704 23.75 22.5-10.196 30.121-56.598 74.385-56.25 110 .366 36.58 52.451 76.018 53.594 83.219 2.907 8.751-11.531 17.999-18.594 18.031-8.526.035-22.322-23.388-34.687-32.938-.515-2.29-1.205-4.477-2.188-6.438-29.441-57.488-50.103-63.763-72.719-86-3.735-3.67-4.056 1.522-7.844-7 2.637-1.639 2.452-4.24 3.531-3.313 11.699 10.499 19.041-.439 19-7.969-.007-1.172-6.616 3.407-11.063 1.781-1.267-.421 1.947-8.612 3.531-7.094 1.139 1.515 10.451 3.101 14.156 1.781.624-.337.956-.869 1.188-1.5 6.825-.38 8.048-5.742 12.719-5.688-6.226 17.432 4.04 42.596 13.75 42.5-4.71-22.821-2.035-32.63 7.5-44.625 3.382-4.255 3.873-15.129 8.75-19.125 6.373 8.996.243 24.13 1.25 38.75 10.034-7.328 22.816-40.291 14.375-59.375 9.483.543 23.811-.393 30-17.5-9.939 1.274-16.06-3.215-16.25-6.25-.227-3.632 7.841-13.027 12.5-13.75z" font-size="12" fill-rule="evenodd" stroke="#fff" stroke-width="1pt"/><path d="M175.405 71.4c-6.25-5-3.485-7.851-9.11-13.476 9.375.104 11.97 3.333 15.72 5.938-.208 5-2.027 8.163-6.61 7.538zm28.437-22.188c-.625-6.042-.663-8.713-2.538-12.879 9.375.417 14.47 9.338 16.97 13.504-2.5 1.25-13.182 2.5-14.432-.625zm38.126 8.75c3.125-2.917 5.752-6.907 5.752-15.449 3.958 5.729 10.057 13.778 5.575 18.462-1.389 1.237.929 3.713.727 5.54-1.667 2.083-14.137-5.637-12.054-8.554zm-63.4 59.679c-6.695 1.989-12.747-5.095-13.476-14.053 4.072 2.784 6.591 2.481 10.966 3.106 1.676 2.064 4.28 10.114 2.51 10.947zm18.095 129.396c-3.785-2.713-6.234-8.919-12.5-15.341 12.819-1.059 21.658 6.329 22.898 10.322.592 1.603-5.641 4.598-10.398 5.019zm-42.509 35.616c-1.175-10.213 11.895-12.735 15.038-15 2.899-.235 3.566 10.03 2.178 11.875-6.737.238-9.849.62-17.216 3.125zm22.822 15.501c-3.159.564-9.879 9.225-1.572 22.936 2.526-7.461 6.942-7.906 9.735-10.038 1.582-7.034-5.489-13.376-8.163-12.898z" font-size="12" fill="#f00" fill-rule="evenodd" stroke="#000" stroke-width="1pt"/><path d="M352.738 46.006c-.723-.085-4.903 12.241-.587 14.462 3.03 1.773 3.313 4.877 1.504 5.955-2.542 1.729-1.88 3.518-1.835 6.091.047 2.483-2.03 2.86-1.593 4.349 1.456 5.672 19.856 1.023 28.561 5.449 1.237.599-2.797-10.074-6.459-14.143-3.226-3.584-9.076-4.538-12.918-7.53-4.087-2.801-1.212-13.775-6.673-14.632z" font-size="12" fill="#fff" stroke="#fff"/><path d="M204.779 318.278c7.443-2.974 6.775-2.123 6.572-9.432 4.474-.086 9.563 1.618 14.177 3.76 1.03 2.858-12.444 12.841-20.749 5.673zm40.314 128.438c-7.5-4.375-11.285-12.429-6.91-19.929 5.637.161 13.149 3.911 13.982 6.411-2.083 3.125-9.363 6.643-7.072 13.518zm-38.438-36.563c5-11.354 8.876-11.191 17.626-16.92 1.458 5.601 2.524 10.774 2.339 17.661-4.78-4.318-12.881-3.137-19.965-.741zm39.063-41.875c-5.833-3.646-11.042-8.542-15-12.813 11.042-1.667 16.191 3.542 18.483 5.625.417 3.438 3.601 8.75-3.483 7.188zm23.125 76.25c4.792-5.417 6.458-7.476 3.125-14.768 5-.833 10-1.238 15-.197-4.237 8.125-5.637 13.286-18.125 14.965zm169.62-38.243c-5.745-5.598-10.165-12.964-17.236-16.794 4.346-1.952 16.07 2.383 22.957 3.58 6.887 1.197 6.366-1.601 11.073.177-1.62 4.64-12.522 15.91-16.794 13.037zm-31.82 42.868c1.541-9.709 4.54-13.968 12.374-19.326 5.752 2.779 8.665 9.75 8.189 12.703-9.207-1.399-14.45 1.393-20.564 6.622zm41.549 1.741c-1.179 14.069 10.232 19.325 18.776 21.019-4.935-8.176-11.142-8.852-6.354-17.912-4.694-.657-8.37-4.286-12.422-3.107zm37.338-.194c-1.547 6.261-4.419 11.638-4.198 16.573 7.955-4.788 13.7-10.017 15.91-15.689-1.989-2.357-9.281-4.272-11.712-.884z" font-size="12" fill="#f00" fill-rule="evenodd" stroke="#000" stroke-width="1pt"/><path d="M486.629 121.298c.371 2.995.195 21.053 1.439 20.566 1.944-.091 2.273-25.88-1.714-41.876-3.9-14.357-3.973-30.332-.736-38.755 1.74-4.952 4.837-6.184 7.898-10.776-11.827 4.97-13.347 15.632-13.347 27.979.428 19.512 3.872 18.542 6.459 42.862zm-149.962-13.946c.428 12.575-7.87 25.048-18.367 25.683-.459.028-.461 1.387 0 1.439 11.158 1.038 23.41-16.937 18.367-27.122m77.846 11.694c3.974 3.606 7.873 6.388 3.674 6.459-3.249.059-4.767-7.509-3.674-6.459zm-137.894 18.224c.554 2.142 1.77 2.546 1.69-.303-.085-13.83.62-9.897 4.464-12.436 3.397-2.044 3.172-3.17-.292-2.693-1.175.265-6.008 4.697-7.551 8.799-1.092 2.795 1.224 3.218 1.69 6.632zm191.29-12.843c-.217-3.056-12.078 19.531-12.826 25.169-1.86 13.612 1.239 26.495 2.939 26.351 3.128-.302-2.614-9.981-1.01-23.387 1.482-9.776 10.962-21.183 10.897-28.133zm-39.406 3.803c1.208-.231 1.575 1.427.582 1.653-1.482.657-1.946-1.15-.582-1.653zm-12.919 9.397c-3.164 1.31-1.531 3.575 1.043 3.735 8.7.568 6.596-1.569 2.999-1.867-2.742-.259-.667-2.659-4.042-1.867zm-4.163 10.469c-1.447-4.197-4.768 7.146 1.746 7.041 5.275.262-.395-1.88-1.746-7.041zm-25.101 5.174c.179.017 6.574 6.589 8.141 6.581 6.224-.025 11.209.115 12.094-.978 2.346-1.763-10.963-.853-11.569-1.225-3.643-2.5-1.61-4.858-8.666-4.378zm-88.576 5.509c.534 12.321-9.695 19.915-11.787 23.484-3.543 5.682-3.497 9.451-4.145 12.429-.648 2.978 1.195 5.364 1.299 2.139.263-8.426 5.464-14.881 7.467-18.093.649-.939 4.136-.538 8.364-12.789.515-1.421 2.619-3.119 1.335-3.232-1.584-.007-1.48-2.998-1.413-3.963.273-3.737-1.218-3.751-1.12.024zm20.556-2.356c-1.375 12.391 6.024 15.614 6.888 23.387.667 6.002-.622 14.63-3.153 17.082-2.399 1.919-9.072-7.364-15.643-5.174-16.101 5.367-16.765 23.85-4.163 31.868 1.225.821-4.012 3.737-5.449 3.153-16.178-6.15-14.68-17.641-16.653-16.071-4.317 2.822 6.935 19.084 18.949 18.367 7.961-.759 13.328-2.211 13.347-5.602.008-1.574-8.691-1.929-11.051-3.581-9.843-6.89-3.455-27.053 9.184-24.244 3.492.776 6.973 6.373 7.745 8.327.581 2.556 2.774 1.707 3.306.428 3.294-7.905 6.888-11.764 6.888-20.695 0-4.844-4.163-14.754-6.459-19.345-1.102-3.061-3.332-10.663-3.735-7.898zm55.101-.857c-.961-1.078-.617 9.713 5.299 13.347 7.109 4.795 13.449-2.026 11.783-1.867-13.523 1.327-13.796-7.367-17.082-11.479zm-112.223 44.697c-.504 10.491-3.736 14.225-1.775 14.139 2.56-.121 5.957-10.902 7.255-25.869 1.378-13.408 16.419-24.913 12.551-23.569-4.827 1.602-17.283 15.265-18.032 35.299zm-64.181-23.707c-4.384-3.603-.049-2.491 2.04-.862 2.997 2.573 1.233 3.302-2.04.862zm28.634-.909c-.458-5.913-2.031 5.669-6.059 7.877-3.946 1.866-4.297 2.552-4.336 4.558-.047 2.766 2.503-.652 5.809-1.918 2.924-1.388 4.944-6.137 4.586-10.517zm109.117-1.086c-1.052-.256-.417 4.954-.933 9.854-.077 3.615-3.935 11.534-4.224 13.562-.878 12.926 2.179 19.916 3.446 14.227 1.643-6.697 18.04-22.122 15.965-23.868-1.515-.971-14.202 17.822-17.155 12.866-.893-1.407 10.359-24.9 2.902-26.642zm22.582 1.668c-.596-.044 1.218 3.842 3.428 4.01 16.983 1.322 13.896-5.008 24.705-.275 2.122-2.855-5.355-6.507-18.092-1.867-2.105.742-7.852-1.676-10.041-1.867zm171.335 20.234c3.735 1.315 3.876-5.739 12.918-11.479 14.888-9.023 29.354 1.031 26.112-2.296-8.239-7.585-37.368-3.049-39.03 13.775" font-size="12" fill="#fff" stroke="#fff"/><path d="M358.968 196.788c4.209 0 10.626-.678 12.627-1.285 2.25-.869 5.847-1.285 12.627 1.285-2.763-4.606-9.934-5.226-16.414-2.884-5.487 1.62-8.413-.069-8.841 2.884zm-149.105 11.176c-2.748-.508-3.501 8.491-1.82 14.301 1.172 4.351 4.115 6.655 3.737 5.505-4.428-12.545-.98-19.611-1.917-19.806zm338.24 14.308c-1.315 2.546-3.104 11.357-.275 10.712 3.784-22.19 22.502-20.4 21.091-21.52-3.057-2.856-14.948.279-20.817 10.808zm-188.529-8.807c-2.353 2.958-7.396 1.299-7.494 2.296-.136 1.593 3.488.132 4.09 1.387 3.203 6.53 5.677-6.738 3.404-3.683z" font-size="12" fill="#fff" stroke="#fff"/><path d="M280.177 228.324c-16.464 16.756-31.541 27.895-51.166 30.582-.694.094-.68 2.255 0 2.166 13.298-1.707 26.735-7.942 37.456-16.677 5.632-4.588 15.897-10.958 13.71-16.071z" font-size="12" fill="#fff" stroke="#fff" stroke-width=".954"/><path d="M336.464 231.832c-.515 2.061.155 3.842 1.387 6.305.299.598 1.688 1.521 1.841.909.612-2.449 1.02-4.87 0-6.911-.51-1.02-2.978-1.303-3.228-.303zm-54.344 38.373c-.855 1.95-.695 6.077-.48 9.891.041.244 1.016.539 1.136-.125.851-2.342-1.259-7.31 1.084-8.324 3.548-1.668-1.214-2.213-1.74-1.441zm-93.223 8.629c-2.473.346 3.346 4.392 3.077 8.578-.047.683 2.738.554 2.599-1.818.099-3.772-3.825-6.976-5.676-6.76zm73.417 2.852c3.142 3.463.684 2.546 1.084 7.997.094 1.582 1.367 3.097 1.313 1.16-.185-4.611 2.177-1.975 2.296-9.638-.051-2.128-7.301-2.7-4.693.48zm225.453-2.57c5.244 13.615 33.977 42.921 58.408 41.754-6.566-2.128-17.225-5.969-28.561-13.775-12.029-8.609-29.853-31.935-29.847-27.979zm-306.364 6.909c-.76 0-1.016 1.595-.303 1.993 1.38.771 7.089.237 6.585-1.212-.107-1.18-4.746-.781-6.282-.781zm59.213.554c-.303 2.152 1.284.176 2.575 2.93.282.507 1.588-2.243.857-3.181-.698-.896-3.336-.332-3.432.251zm19.326 42.159c19.776-8.997 15.274-13.31 36.303-30.931 7.767-6 18.841-6.006 25.08-7.494-18.751-7.844-36.537 13.706-46.093 25.08-7.741 7.741-14.057 5.947-15.29 13.344zm-47.961-37.014c-2.133-1.218-2.657 14.231 1.034 13.929 5.841-1.156 10.906 3.881 10.547.781-.442-3.383-6.979-.29-8.881-2.826-2.69-3.586 1.712-8.936-2.7-11.884zm-33.479.582c-.305 5.631 5.939 4.74 8.024 8.909.977 1.953 1.471 8.494 4.389 9.03 2.939.619 5.039-.194-.353-3.688-1.947-1.539-1.684-9.715-12.059-14.251zm143.254-49.349c-4.024-.081 1.092-.098.907 10.22-.057 3.094 1.527 6.077 1.439 3.302-.181-5.049 1.675-13.138-2.345-13.522zm-112.321 3.33c-.457-1.385-5.835 3.396-11.96 5.602-.668.259.242 1.72.857 1.439 5.281-2.839 11.88-3.392 11.103-7.041zm204.435-2.467c1.054 5.471 4.29 16.549 1.439 25.101-1.946 7.554-14.764 31.809-8.48 50.663 4.594 13.785 10.348 15.986 11.205 24.309.337 6.427-.183 11.997 1.867 12.425.857-.124.615-7.968.428-14.082-.181-5.519-12.221-19.585-11.908-34.099.329-15.666 2.858-18.003 6.031-27.858 3.221-10.439 5.773-15.71 5.02-21.091-.615-7.459-2.449-15.815-5.602-15.368zm-103.897 6.076c-2.477.563 1.983 7.832 2.345 7.543 1.095-1.212 1.34-8.479-2.345-7.543zm39.612 32.097c2.061 2.866 22.618-22.437 30.429-21.673 11.086 1.041 7.923 5.924 9.43 6.827 7.215 2.273-.436-13.93.615-12.864 9.434 9.145 2.595 16.257 6.669 16.073 2.675-.109.283-17.176 2.082-16.924 5.13 1.94-.136 19.028 2.296 18.367 6.851-1.979 4.773-19.003 6.152-18.028 4.94 3.923-1.475 16.631.307 16.16 4.07-1.189 5.48-14.686 2.658-17.989-2.544-3.364-9.021-2.84-15.883-2.245-14.056 1.658-46.673 30.087-44.754 32.296zm-159.05-29.247c-.651 3.527 1.957 2.838 1.993 8.53.01 1.973 1.344 4.522 1.313 2.874-.074-4.425-.487-7.765-.126-11.226.018-1.192-2.966-1.343-3.181-.177zm107.175 7.671c-.271 3.775-.298 11.766.783 10.975 1.436-.753-.655-2.421 1.564-2.852 1.843-.055 1.053-3.969 1.084-8.175-.078-1.206-3.261-2.63-3.432.052zm-121.982 5.499c-3.577.357-1.057 5.941.604 6.206.651 1.803-2.1 1.825-1.815 3.761-.569 7.636.289 7.346 5.55 6.509-3.534-2.411-2.997-6.367-1.034-8.324 1.678-2.279-.721-.04-.831-2.648-.047-1.415-3.95-2.785-2.552-3.508 1.811-.633 3.068-2.651.078-1.995zm126.752 94.008c.75 7.722-13.102 16.139-12.085 17.027 2.429 1.857 15.629-8.742 15.162-17.936-.114-2.542-3.387-2.587-3.077.909zm214.705-3.177c-1.099 6.387 7.627 10.994-2.846 23.355-6.15 7.215-9.112 14.996-3.339 22.256 3.453 3.803 6.138 3.27 6.184 16.378.003.726.901-1.058 1.01-1.714.656-3.936 1.886-6.263 0-10.348-2.57-5.993-6.967-5.68-7.316-13.929.033-3.453 10.748-17.228 11.479-22.345.8-5.597-4.775-17.452-5.174-13.654zm29.847 2.725c-.625-.06.259 2.426 3.428 3.153 2.742.259 5.101-1.248 5.327 4.867.184 5.411.161 11.707 4.01 10.93.227-.071-3.087-6.462-2.571-14.082-.163-3.913-6.138-4.438-10.194-4.867zm-148.376 3.735c-3.39 2.448 5.208 11.369 16.225 11.051 1.631-.045 1.659-1.419-2.571-2.296-9.748-1.593-12.845-9.424-13.654-8.755zm-148.529 7.898c-4.172 2.611-4.176 3.321 1.714 3.153 3.873-.527 8.405-3.307 3.767-5.449-.708-.299-2.949.971-5.481 2.296zm97.665-3.034c0 2.886 2.3 1.373 2.874 1.564 1.722.574 4.356-.51 4.442 1.086.545 10.545-3.046 7.728-2.473 11.832.301 1.933 1.517-.439 1.794-1.692 2.153-4.65 4.741-7.849 3.38-11.025-.935-2.181-6.19-1.766-10.017-1.766zm-105.256 6.615c-.634 0-.337 3.398.428 4.163.765.765 3.306.634 3.306 0 0-1.754-2.838-4.163-3.735-4.163zm7.316 5.449c-1.628.318 5.426 6.823 5.602 5.174.711-7.07-1.96-5.457-5.602-5.174zm80.631.857c-.269-1.698-7.112-1.145-1.56.921.63.254.351 10.689 1.01 10.712 1.544.067.935-6.491.55-11.633zm206.937 1.867c-2.236 1.62 4.369 4.446 5.174 7.073.92 4.404 2.449 9.633 3.153 6.427 2.32-10.14-6.401-14.468-8.327-13.5zm-224.14 6.459c.003 1.94 3.966.464 4.592 1.471 1.099 1.768.006 6.279.582 6.427 1.525.503 2.231-7.999.428-7.898-.772-.385-5.603-.87-5.602 0zm-84.091 1.868c.039 4.424-.994 26.555 4.745 20.817.887-.459-4.628-22.155-4.745-20.817zm94.56-66.737c-4.161 5.209-16.502 8.297-21.875 2.296-.303 9.454 7.569 6.76 15.593 6.76l-1.818 5.023c-7.828 6.187-17.474.256-28.635-5.676 5.503 11.962 22.59 15.999 34.008 5.851 3.495-2.365 2.962-9.171 2.727-14.253zm243.946 1.013c-2.515 2.001 5.981 5.98 4.163 18.092-.697 4.481 1.472-1.533 1.867-2.142 3.343-4.487-5.189-16.961-6.031-15.95zm-331.19 4.362c3.074 11.472 6.242 10.702 11.655 12.26-3.126-2.927-10.42-12.593-11.655-12.26zm97.814 1.056c-.402 8.921 3.861 9.874 2.547 18.696-1.322 8.446-8.522 12.142-9.612 14.982-1.076 3.883.065 6.414 1.261 5.808-.64-7.668 7.205-11.631 9.813-16.926 3.439-8.216-4.02-26.192-4.01-22.56zm194.774 67.622c-.808 0-.767 1.932-.489 7.716-.086 3.285 2.762 7.626 2.939 6.213 1.112-12.346-2.064-13.929-2.449-13.929zm-221.416 1.867c1.307 0 .683 6.066-.275 6.031-1.444.376-1.439-6.031.275-6.031zm-12.611 7.47c2.422 1.932 2.681-2.497.428-2.878-3.392.072-3.963.487-.428 2.878zm-47.939.275c2.464 1.605 2.258 5.748 3.735 5.174 1.738-.524.874-3.597 0-5.174-1.449-1.842-4.392-.314-3.735 0zm185.111 1.867c.348 1.553 8.936 2.812 8.969 9.23.007 1.219 1.419 1.965 1.653-.321.924-6.922-10.943-10.54-10.623-8.909zm-141.489 1.868c.659-.528 3.833-.392 3.735 1.439-.26 1.115-5.618.499-3.735-1.439zm-46.5 4.163c-2.425.596.035 3.488-3.153 6.613-1.847 1.805 8.557 3.718 11.358 6.152.919 1.171 5.834-1.648-5.327-4.592-6.03-1.162-1.712-8.253-2.878-8.173zm23.388 3.153c-1.214.345 1.64 7.32 4.592 7.47 5.331.317 7.916.384 13.654 0 1.766-.25 2.514-4.867 1.285-5.174-1.832-.458.654 5.013-8.327 4.163-4.212-.827-7.654-7.347-11.205-6.459zm155.631 2.51c-.201-1.148 3.759-.869 3.735.154-.018.883-3.575.927-3.735-.154zm12.551-80.57c1.27 11.033 13.381 17.63 28.133 7.898 3.784-2.386-.583 21.402-26.694 14.204-.705-.186 4.423 3.378 5.142 3.581 10.883 2.65 32.562-8.436 22.991-25.683-1.831-2.87-9 9.612-14.357 9.612-8.785 0-15.672-13.434-15.214-9.612zm-134.956 8.724c-.598 0-1.026 1.14-.428 1.439 2.464 1.232 5.863 2.724 8.327 2.724.598 0 .169-1.569-.428-1.867-2.464-1.232-5.006-2.296-7.47-2.296zm241.17-285.597c2.803 5.608 5.47 7.453 6.282 17.283 1.796 15.346-10.197 29.392-18.239 40.114-4.185 5.984-10.167 14.443-14.509 21.572-10.716 18.34-23.869 36.139-17.33 62.292 5.251 21.005 26.78 40.931 39.887 58.408 3.821 5.094 9.752 9.921 10.776 16.071-.457 9.691-11.42 14.12-8.755 14.786 11.674-5.999 15.066-14.536 6.459-26.847-12.897-18.448-36.252-36.67-43.548-58.557-12.992-36.55 22.129-70.648 41.146-101.069 9.637-15.718 12.555-43.77-2.168-44.053zm-216.845 4.947c-1.235.351-3.496 4.386-4.38 7.098-.306 1.241-.177 11.712-.212 15.801.085 1.93 3.235 1.732 3.306-.214-.081-3.597-.216-16.621.706-17.682 1.877-1.945 2.57-5.686.58-5.002zm93.274 14.143c0-1.154 8.755-.857 8.755 0 0 1.513-8.541 1.071-8.755 0zm51.388 3.817c-1.353-.082-2.066 14.297-4.01 21.673-1.509 5.299-4.163 11.143-6.459 16.5 10.288-2.894 13.055-37.991 10.469-38.173zm-58.061 2.917c2.357 1.333 2.186 3.275 3.092 3.306 1.054.029.765-1.863.643-3.092-.133-1.1-4.29-.502-3.735-.214zm-39.116 21.945c-2.506-2.526-5.015-13.941-6.818-13.217-1.264.61 1.866 10.612 4.465 14.258 1.441 1.596 2.038 11.957 3.659 12.27.885-.132 1.609-10.675-1.306-13.311zm210.989-11.943c-5.264 15.79-20.82 36.868-36.128 48.214-8.706 6.28-24.764 12.789-18.973 12.26 15.673-1.732 33.731-15.672 45.312-35.522 5.211-9.495 12.991-19.63 9.789-24.952" font-size="12" fill="#fff" stroke="#fff"/><path d="M439.93 141.687c8.259-6.701 11.447-27.349 14.786-50.663 1.115-7.784 2.436-20.501 5.02-28.254 4.193-12.577 20.881-25.532 28.408-26.694-7.637-3.353-22.558 10.654-27.551 18.367-6.787 10.914-8.874 33.077-11.051 47.478-1.49 9.565-2.161 14.44-3.428 20.509-3.257 13.554-8.168 19.206-6.184 19.256zm59.795-50.332c2.115.073 1.204-2.739-1.89-3.982-2.062-.542-4.245-4.367-5.426-12.057-1.829-12.329 9.466-16.721 4.592-16.103-12.295 1.505-9.046 31.753 2.724 32.142zm-83.256-51.166c.627 4.167-4.161 3.75-1.212 5.467 2.132 1.418.634 8.874 1.993 8.786 1.182-.096 3.188-5.746 2.599-12.739-.239-2.717-3.578-2.737-3.38-1.515zm32.054 394.894c.644 9.05-4.164 9.979-1.01 10.776 5.883 1.219 12.258 2.963 15.736 5.817 2.364 1.794 5.704-2.601-10.133-7.409-1.588-.461-.257-7.598-1.178-9.826-.703-2.216-3.776-3.178-3.413.643zm30.061-.275c-1.133.462-.009 12.731 3.153 12.49 4.064-.034-1.567-2.985 13.226-2.296 6.614.213-.354-3.13-1.393-3.26-3.933-.279-9.887.586-10.455-.046-1.717-2.558-2.74-7.404-4.531-6.888zm-52.745-7.102c-5.475-.364 1.339.832 2.849 9.002 1.576 9.931 8.329 5.764 7.177 5.416-8.096-2.374-4.214-14.045-10.026-14.418z" font-size="12" fill="#fff" stroke="#fff"/><path d="M372.048 232.63a2.424 2.727 0 1 0-4.848 0 2.424 2.727 0 1 0 4.848 0h-2.424z" transform="matrix(.438 0 0 .389 202.914 127.772)" font-size="12" fill="#fff" fill-rule="evenodd" stroke="#fff" stroke-width="2.357"/><path d="M372.048 232.63a2.424 2.727 0 1 0-4.848 0 2.424 2.727 0 1 0 4.848 0h-2.424z" transform="matrix(.438 0 0 .389 207.459 127.772)" font-size="12" fill="#fff" fill-rule="evenodd" stroke="#fff" stroke-width="2.357"/><path d="M513.251 85.983c-.17-1.153 6.789-6.323 4.341-.452-.373.801-3.575 1.533-4.341.452zm-192.94-23.563c2.357 1.333 2.186 3.275 3.092 3.306 1.054.029.765-1.863.643-3.092-.133-1.1-4.29-.502-3.735-.214zm-143.125 17.876c-1.062 0-1.377 3.49.214 3.735 3.237.465 3.521-1.294 1.807-1.285-1.754.008-1.124-2.449-2.021-2.449zm15.961 4.606c-1.062 0-1.377 3.49.214 3.735 3.237.465 3.521-1.294 1.807-1.285-1.754.008-1.124-2.449-2.021-2.449zm169.528 35.886c-1.753-3.097-3.5-11.214-5.303-10.491-1.264.61 1.563 8.188 3.556 12.137 1.032 1.886 2.341 7.413 3.962 7.726.885-.132-.512-5.828-2.215-9.372zm-9.544 10.604c-2.233-2.771-1.683-9.7-5.001-6.249-.97 1.013.957 5.158 3.556 8.805 1.441 1.596.548 5.847 1.841 7.726 4.688 6.372 2.215-6.737-.397-10.281zm-7.271 8.786c-2.32-2.698-.774-4.549-4.698-7.158-1.209-.711 1.26 4.855 2.951 9.411.862 1.97.826 3.777 2.144 5.605.585.677 1.609-5.828-.397-7.858zm-8.484 7.423c-2.111-2.865-.774-8.185-2.577-7.461-1.264.61-.994 5.043 1.436 8.805 1.138 1.293-1.008 5.685 2.144 6.211 2.707.401 1.912-4.01-1.003-7.555zm-5.453 9.089c-2.435-2.704-3.978-11.177-4.395-9.279-1.264 6.063.351 7.885 2.951 11.531 1.441 1.596 1.166 5.676 4.265 5.302 1.223-.164-1.657-6.117-2.821-7.555zm-24.558-.786c-.961.266-.548 2.118-.431 6.679.075 3.094-.453 6.282.478 6.059 1.02-.184 1.237-13.178-.047-12.739zm-66.665 41.252c-1.748 11.08-8.809 15.771-7.005 14.996 7.273-3.335 9.275-13.331 13.254-29.297 4.286-17.413 20.829-31.155 17.264-29.139-3.756 2.245-18.657 14.022-23.513 43.44zm25.833-55.29c1.155-5.722-3.274 3.264-6.968 5.756-3.106 2.351-5.472 2.553-5.548 4.255-.059 1.554 3.147.718 5.809-1.615 2.621-2.6 4.882-1.233 6.707-8.397zm-4.091-3.485c.24-1.66-1.743-1.566-5.151 1.515-2.431 2.472-5.479.769-5.851 2.74-.35 1.555 5.574 1.027 7.021-.706 2.642-2.612 3.653-1.59 3.98-3.549zm-7.574-7.574c-1.227-.758-1.97 4.298-6.059 6.059-2.326 1.174-3.753.155-3.73 1.529.428 1.808 6.167.428 7.93-1.312 3.035-2.697 6.304-3.227 1.859-6.276zm-6.059-4.393c-1.646.321-1.486 1.332-3.939 3.939-3.28 3.789-6.974 1.464-6.76 3.649-.03.734 7.716.911 9.142-1.009 4.965-6.278 4.114-7.381 1.556-6.579zm-38.932 35.902c-.156-2.58-3.546-2.208-3.636-.606-.206 4.36-4.6 4.673-6.457 5.77-2.467 1.253 6.442 1.469 7.021.809 1.668-2.774 3.308-1.584 3.071-5.973zm-2.121-17.572c-2.882.753-.104 2.185-3.333 5.453-3.037 3.381-4.804 2.298-4.942 3.649-.108 1.295 3.722 2.098 6.415-1.009 3.714-3.935 6.202-8.771 1.859-8.094zm-2.575-22.572c-.278-1.274-1.316 3.094-3.636 5.756-3.186 3.24-6.319 4.116-6.457 5.467-.108 1.295 3.722 2.098 6.415-1.009 3.714-3.935 4.497-5.062 3.677-10.214zm-18.33-57.11c-2.882.753-.104 2.185-3.333 5.453-3.037 3.381-4.804 2.298-4.942 3.649-.108 1.295 3.722 2.098 6.415-1.009 3.714-3.935 6.202-8.771 1.859-8.094zm.12 50.469c.579-5.987-2.875-4.842-3.636-7.526-2.01-8.603-2.552-2.314-2.172.754-.075 4.726 1.847 5.51 1.702 7.132-.19 2.694 3.974 4.856 4.106-.36zm18.21-51.416c1.255-1.868-1.433-1.843-2.35-4.527-2.665-6.543-3.381-3.622-3.458-.531.354 3.012 2.275 2.083 2.131 5.418-.134 2.697.478 6.87 3.677-.36zm12.564-10.755c-1.677-.024-3.122-.769-4.796 1.368-.641 1.366-4.403-.25-4.189 1.507.072.731 8.325.558 9.571-.152 4.203-1.784 3.257-3.097-.586-2.723zm25.922 12.515c-1.82-1.232-4.23-4.448-5.172-3.168-1.051 1.082 2.233 5.798 4.255 5.437 4.014-.415 6.143 4.344 6.039 1.008-.114-3.956-1.969-.839-5.122-3.277zm-9.098 1.876c.271-2.234-1.42.109-1.744-2.709-.545-4.422-1.563-2.41-1.64.681.354 3.012-3.33 4.343-2.111 4.206 1.264-.177 3.03 4.265 3.291 2.74 1.284-7.815 2.271-2.969 2.204-4.917zm144.892 147.803c-2.841-.246-1.641 1.323-3.747 2.597-2.174 1.002 3.637.736 5.713 3.782 1.171 2.012 6.557 1.789 6.61.792.053-.998-4.147-2.192-5.28-2.508-6.52-2.124 6.378-4.855-3.296-4.663zm15.754 4.242c-2.476-.169-6.041 3.517.906 7.742 7.335 4.56 6.046 5.69 18.297 5.101 1.486-.053 1.577-1.867-3.751-1.241-9.733 1.213-15.031-5.825-13.801-6.423 2.57-1.425.974-4.975-1.651-5.179zm11.707 16.185c.157 1.038 3.169 3.37 4.732 3.475 6.375.278 4.021 2.255 5.807 2.43 5.812.556-1.931-3.377-3.843-3.346-4.752.072-6.703-3.642-6.697-2.56z" font-size="12" fill="#fff" stroke="#fff"/><path d="M357.973 64.587c-2.094-.62-.869 4.961 2.841 8.786 2.237 2.435 4.592 2.321 4.414-.306-.254-3.543.845-3.394-2.988-4.139-1.713-.237-3.88-4.441-4.268-4.341z" font-size="12" stroke="#000"/></svg>