<svg version="1" width="210mm" height="140mm" xmlns="http://www.w3.org/2000/svg"><path font-size="12" fill="#00c" fill-rule="evenodd" d="M0 0h744.094v496.063h-744.094z"/><g font-size="12" fill-rule="evenodd"><path d="M347.838 464.173c-21.382-1.249-28.125-22.903-33.077-37.406-4.097-14.297-3.378-29.385-11.039-45.359-7.865-18.037-9.944-8.867-23.609-28.686-9.679-27.496-14.155-70.106-28.73-67.285-17.144-.399-36.185 33.689-67.813 30.791-24.903-2.21-33.27-25.246-32.198-43.977 1.968-33.596 34.03-50.521 71.463-51.045-10.733-23.821 6.95-38.012 12.565-40.836 18.928-8.734 37.433-.785 45.548 4.712-8.9-23.821-19.599-54.88-19.633-69.107-.047-20.362 18.33-58.673 29.057-57.327 4.042-.278 17.014 5.759 17.276 23.559 14.659-30.365 24.064-48.875 51.045-50.259 16.611-.48 31.831 7.541 32.091 15.15 12.731 3.065 19.739 22.545 19.739 28.042 29.056-2.617 33.932 21.182 33.768 33.769-1.253 35.885-22.24 71.049-54.185 99.733 23.811 8.267 29.841 18.848 38.48 28.271 68.583-40.574 167.775 14.558 164.128 56.542-.384 5.734 4.729 27.479-32.983 32.983-29.85 4.242-52.703-40.662-100.518-41.621-15.371-1.126-77.746 15.705-79.317 26.7 6.021-3.272 41.303-10.978 53.706-8.79 22.387 4.736 52.193 13.431 54.667 40.988 1.858 20.107-23.179 26.334-36.125 25.13-16.44-.744-47.122-18.194-67.143-8.638-16.799 7.659-23.111 33.714-27.878 52.615-2.825 11.202 7.19 25.373 15.706 31.412 6.578 3.88-13.292 20.577-24.991 19.94z" fill="#fff"/><path d="M352.096 454.416c-9.42.666-10.956-2.074-15.549-9.21-3.046-4.211-8.013-8.184-9.995-13.002-8.754-21.281-9.858-50.068-22.212-66.08-26.17-12.103-28.667-68.177-33.317-75.52-7.037-16.841-18.954-14.732-27.765-12.772-23.303 5.358-40.465 33.914-54.538 29.566-37.409-12.243-30.606-45.127-18.761-56.775 9.962-10.492 35.137-21.631 53.308-20.641 16.462.111 40.701 3.54 48.81 14.572 19.101 25.988 26.582 76.46 33.604 94.916 1.784 3.904 10.879 12.9 15.873 10.321 7.033-4.739-16.335-33.695-21.656-73.625-.429-3.777-10.638-32.172-21.657-41.647-12.558-10.909-31.757-7.086-38.87-13.327-18.104-16.672 1.72-33.294 13.327-33.318 22.407-.047 42.366 14.064 47.2 16.104-1.911-12.842-25.98-56.352-26.654-83.85-1.462-27.612 15.276-45.983 21.101-46.089 7.789-.128 11.028 30.355 9.995 39.981-6.342 36.311 7.284 80.007 13.327 104.452 1.072 4.476 5.579 5.18 5.553 3.275-.514-36.264-12.237-74.903-12.216-91.068.034-27.652 15.431-59.102 30.541-79.962 5.806-8.015 19.594-7.613 32.207-6.664 1.956.157 8.742 5.736 2.871 8.369-13.665 6.481-30.757 41.609-37.069 69.372-7.361 31.464-10.245 104.109-4.863 98.058 30.918-35.545 43.313-109.509 39.387-147.574-.99-9.404 3.186-12.517 13.001-10.455 13.622 2.697 10.181 12.366 12.217 19.991 9.526 36.465-20.707 93.267-38.871 127.718-.675 1.31 3.553 2.08 4.442 1.11 3.183-3.473 5.025-10.277 8.56-14.437 39.367-45.403 34.057-90.933 36.745-108.053.93-8.371 6.071-6.783 8.559-6.338 11.817 2.899 15.562 10.596 15.548 17.769-.149 75.366-55.992 105.87-63.303 115.502-1.074 1.531-.198 5.434 1.11 5.553 2.764.251 5.728-4.511 11.106-5.228 6.56.083 14.478 2.085 19.991 5.783 9.665 6.483 19.788 24.685 25.543 25.544 5.081.875 27.162-17.8 54.419-15.549 28.363 3.128 84.969 16.883 100.738 55.49 3.738 8.718-4.017 38.535-33.52 30.188-26.527-7.727-51.001-73.628-171.153-18.027-18.644 8.571-50.194 50.189-49.881 73.394.606 12.376.706 26.825 5.552 38.871 4.734 2.158-6.278-52.894 25.544-81.073 23.788-20.478 101.965-33.732 119.944 13.327 2.158 5.744-2.396 16.468-17.77 17.769-24.155.811-26.184-15.016-66.961-15.643-3.829-.058-21.947 5.712-27.994 16.754-9.91 19.531-16.717 39.993-17.77 59.416.168 12.166 5.665 20.263 11.891 23.458 3.25 2.071-4.655 9.006-9.669 9.305z" fill="#fc0"/><path d="M339.061 205.107c-.131-59.814 17.407-116.879 26.307-125.256.524 12.303 1.001 29.583.001 36.124-.641 4.69-25.523 97.77-26.308 89.132z" fill="#00c"/><path d="M328.067 318.191c2.617-34.815 26.337-49.576 43.191-54.971 3.516-1.289 14.679 3.705 10.209 4.711-12.775 2.7-40.835 28.795-53.4 50.26z" fill="#fff"/></g></svg>