<!DOCTYPE svg PUBLIC "-//W3C//DTD SVG 20010904//EN"
"http://www.w3.org/TR/2001/REC-SVG-20010904/DTD/svg10.dtd"
[
 <!ATTLIST svg
  xmlns:xlink CDATA #FIXED "http://www.w3.org/1999/xlink">
]><svg xmlns="http://www.w3.org/2000/svg" width="280mm" height="140mm"><g font-size="12" fill-rule="evenodd"><path fill="#fff" d="M0 0h992.126v496.063h-992.126z"/><path d="M992.126 431.468c-11.117 6.69-20.668 22.325-50.201 22.325-59.05 0-73.817-32.917-118.109-32.917-29.525 0-44.289 32.917-73.816 32.917-59.055 0-73.819-32.917-118.11-32.917-29.528 0-44.292 32.917-73.819 32.917-59.055 0-73.819-32.917-118.11-32.917-29.528 0-44.292 32.917-73.819 32.917-59.055 0-73.819-32.917-118.11-32.917-29.529 0-44.292 32.917-73.819 32.917-59.055 0-73.82-32.917-118.111-32.917-29.527 0-38.386 23.456-56.102 23.456v42.378c17.716 0 26.575-23.456 56.102-23.456 44.291 0 59.056 32.917 118.111 32.917 29.527 0 44.29-32.917 73.819-32.917 44.29 0 59.055 32.917 118.11 32.917 29.527 0 44.291-32.917 73.819-32.917 44.291 0 59.055 32.917 118.11 32.917 29.527 0 44.291-32.917 73.819-32.917 44.291 0 59.055 32.917 118.11 32.917 29.527 0 44.291-32.917 73.816-32.917 44.292 0 59.059 32.917 118.109 32.917 29.533 0 39.084-9.328 50.201-16.018v-48.685zm0-82.27c-11.117 6.69-20.668 22.325-50.201 22.325-59.05 0-73.817-32.917-118.109-32.917-29.525 0-44.289 32.917-73.816 32.917-59.055 0-73.819-32.917-118.11-32.917-29.528 0-44.292 32.917-73.819 32.917-59.055 0-73.819-32.917-118.11-32.917-29.528 0-44.292 32.917-73.819 32.917-59.055 0-73.819-32.917-118.11-32.917-29.529 0-44.292 32.917-73.819 32.917-59.055 0-73.82-32.917-118.111-32.917-29.527 0-38.386 23.456-56.102 23.456v42.378c17.716 0 26.575-23.456 56.102-23.456 44.291 0 59.056 32.917 118.111 32.917 29.527 0 44.29-32.917 73.819-32.917 44.29 0 59.055 32.917 118.11 32.917 29.527 0 44.291-32.917 73.819-32.917 44.291 0 59.055 32.917 118.11 32.917 29.527 0 44.291-32.917 73.819-32.917 44.291 0 59.055 32.917 118.11 32.917 29.527 0 44.291-32.917 73.816-32.917 44.292 0 59.059 32.917 118.109 32.917 29.533 0 39.084-9.328 50.201-16.018v-48.685zm0-82.27c-11.117 6.69-20.668 22.325-50.201 22.325-59.05 0-73.817-32.917-118.109-32.917-29.525 0-44.289 32.917-73.816 32.917-59.055 0-73.819-32.917-118.11-32.917-29.528 0-44.292 32.917-73.819 32.917-59.055 0-73.819-32.917-118.11-32.917-29.528 0-44.292 32.917-73.819 32.917-59.055 0-73.819-32.917-118.11-32.917-29.529 0-44.292 32.917-73.819 32.917-59.055 0-73.82-32.917-118.111-32.917-29.527 0-38.386 23.456-56.102 23.456v42.378c17.716 0 26.575-23.456 56.102-23.456 44.291 0 59.056 32.917 118.111 32.917 29.527 0 44.29-32.917 73.819-32.917 44.29 0 59.055 32.917 118.11 32.917 29.527 0 44.291-32.917 73.819-32.917 44.291 0 59.055 32.917 118.11 32.917 29.527 0 44.291-32.917 73.819-32.917 44.291 0 59.055 32.917 118.11 32.917 29.527 0 44.291-32.917 73.816-32.917 44.292 0 59.059 32.917 118.109 32.917 29.533 0 39.084-9.328 50.201-16.018v-48.685zm0-82.269c-11.117 6.69-20.668 22.325-50.201 22.325-59.05 0-73.817-32.917-118.109-32.917-29.525 0-44.289 32.917-73.816 32.917-59.055 0-73.819-32.917-118.11-32.917-29.528 0-44.292 32.917-73.819 32.917-59.055 0-73.819-32.917-118.11-32.917-29.528 0-44.292 32.917-73.819 32.917-59.055 0-73.819-32.917-118.11-32.917-29.529 0-44.292 32.917-73.819 32.917-59.055 0-73.82-32.917-118.111-32.917-29.527 0-38.386 23.456-56.102 23.456v42.378c17.716 0 26.575-23.456 56.102-23.456 44.291 0 59.056 32.917 118.111 32.917 29.527 0 44.29-32.917 73.819-32.917 44.29 0 59.055 32.917 118.11 32.917 29.527 0 44.291-32.917 73.819-32.917 44.291 0 59.055 32.917 118.11 32.917 29.527 0 44.291-32.917 73.819-32.917 44.291 0 59.055 32.917 118.11 32.917 29.527 0 44.291-32.917 73.816-32.917 44.292 0 59.059 32.917 118.109 32.917 29.533 0 39.084-9.328 50.201-16.018v-48.685zm0-82.27c-11.117 6.69-20.668 22.325-50.201 22.325-59.05 0-73.817-32.917-118.109-32.917-29.525 0-44.289 32.917-73.816 32.917-59.055 0-73.819-32.917-118.11-32.917-29.528 0-44.292 32.917-73.819 32.917-59.055 0-73.819-32.917-118.11-32.917-29.528 0-44.292 32.917-73.819 32.917-59.055 0-73.819-32.917-118.11-32.917-29.529 0-44.292 32.917-73.819 32.917-59.055 0-73.82-32.917-118.111-32.917-29.527 0-38.386 23.456-56.102 23.456v42.378c17.716 0 26.575-23.456 56.102-23.456 44.291 0 59.056 32.917 118.111 32.917 29.527 0 44.29-32.917 73.819-32.917 44.29 0 59.055 32.917 118.11 32.917 29.527 0 44.291-32.917 73.819-32.917 44.291 0 59.055 32.917 118.11 32.917 29.527 0 44.291-32.917 73.819-32.917 44.291 0 59.055 32.917 118.11 32.917 29.527 0 44.291-32.917 73.816-32.917 44.292 0 59.059 32.917 118.109 32.917 29.533 0 39.084-9.328 50.201-16.018v-48.685zm0-82.269c-11.117 6.69-20.668 22.325-50.201 22.325-59.05 0-73.817-32.917-118.109-32.917-29.525 0-44.289 32.917-73.816 32.917-59.055 0-73.819-32.917-118.11-32.917-29.528 0-44.292 32.917-73.819 32.917-59.055 0-73.819-32.917-118.11-32.917-29.528 0-44.292 32.917-73.819 32.917-59.055 0-73.819-32.917-118.11-32.917-29.529 0-44.292 32.917-73.819 32.917-59.055 0-73.82-32.917-118.111-32.917-29.527 0-38.386 23.456-56.102 23.456v42.378c17.716 0 26.575-23.456 56.102-23.456 44.291 0 59.056 32.917 118.111 32.917 29.527 0 44.29-32.917 73.819-32.917 44.29 0 59.055 32.917 118.11 32.917 29.527 0 44.291-32.917 73.819-32.917 44.291 0 59.055 32.917 118.11 32.917 29.527 0 44.291-32.917 73.819-32.917 44.291 0 59.055 32.917 118.11 32.917 29.527 0 44.291-32.917 73.816-32.917 44.292 0 59.059 32.917 118.109 32.917 29.533 0 39.084-9.328 50.201-16.018v-48.685z" fill="#000063"/></g><g font-size="12"><path fill="#000063" fill-rule="evenodd" d="M0 0h496.063v248.032h-496.063z"/><path d="M0 0v27.731l440.601 220.301h55.461v-27.731l-440.601-220.301h-55.461zm496.063 0v27.73l-440.601 220.301h-55.461v-27.732l440.601-220.3h55.461zm-289.37 0v248.031h82.677v-248.031h-82.677zm-206.693 82.677v82.677h496.063v-82.677h-496.063z" fill="#fff"/><path d="M0 99.213v49.606h496.063v-49.606h-496.063zm223.228-99.213v248.031h49.606v-248.031h-49.606zm-223.228 248.032l165.354-82.677h36.974l-165.354 82.677h-36.974zm0-248.031l165.354 82.677h-36.974l-128.38-64.19v-18.487zm293.735 82.677l165.354-82.677h36.974l-165.354 82.677h-36.974zm202.328 165.354l-165.354-82.677h36.974l128.38 64.19v18.487z" fill="#c00"/></g><path d="M814.961-301.181l-17.717 708.661c0 37.298 80.097 37.298 88.583 0l-17.717-708.661h-53.149z" transform="matrix(.2 0 0 .475 575.166 274.565)" fill="#a24300" fill-rule="evenodd" stroke="#fff" stroke-width="6.935"/><g font-size="12"><path d="M496.063 549.213l17.717 70.866 35.433-53.15-17.717 88.583 35.433-35.433-35.433 88.582 35.433-35.433-35.433 88.583 35.433-35.433-35.433 106.299 35.433-35.433-35.433 106.299 35.433-35.433-35.433 106.299-17.716 53.151-17.717 17.72-17.717-17.72-17.716-53.151-35.433-106.299 35.433 35.433-35.433-106.299 35.433 35.433-35.433-106.299 35.433 35.433-35.433-88.583 35.433 35.433-35.433-88.582 35.433 35.433-17.717-88.583 35.433 53.15 17.717-70.866z" transform="matrix(-.228 .065 -.1 -.189 942.767 327.874)" fill="#006d00" fill-rule="evenodd" stroke="#fff" stroke-width="8.25"/><path d="M496.063 549.213v496.067m-70.866-177.17l70.866 106.299 70.866-106.299m-141.732-70.866l70.866 106.299 70.866-106.299m-141.732-70.866l70.866 106.299 70.866-106.299m-141.732-53.15l70.866 88.583 70.866-88.583m-141.732-53.149l70.866 88.582 70.866-88.582m-124.016-53.15l53.15 106.299 53.15-106.299" transform="matrix(-.228 .065 -.1 -.189 942.767 327.874)" stroke="#000" stroke-width="1pt" fill="none"/><path d="M496.063 549.213l17.717 70.866 35.433-53.15-17.717 88.583 35.433-35.433-35.433 88.582 35.433-35.433-35.433 88.583 35.433-35.433-35.433 106.299 35.433-35.433-35.433 106.299 35.433-35.433-35.433 106.299-17.716 53.151-17.717 17.72-17.717-17.72-17.716-53.151-35.433-106.299 35.433 35.433-35.433-106.299 35.433 35.433-35.433-106.299 35.433 35.433-35.433-88.583 35.433 35.433-35.433-88.582 35.433 35.433-17.717-88.583 35.433 53.15 17.717-70.866z" transform="matrix(.172 -.176 .214 .142 441.65 105.936)" fill="#006d00" fill-rule="evenodd" stroke="#fff" stroke-width="8.25"/><path d="M496.063 549.213v496.067m-70.866-177.17l70.866 106.299 70.866-106.299m-141.732-70.866l70.866 106.299 70.866-106.299m-141.732-70.866l70.866 106.299 70.866-106.299m-141.732-53.15l70.866 88.583 70.866-88.583m-141.732-53.149l70.866 88.582 70.866-88.582m-124.016-53.15l53.15 106.299 53.15-106.299" transform="matrix(.172 -.176 .214 .142 441.65 105.936)" stroke="#000" stroke-width="1pt" fill="none"/><path d="M496.063 549.213l17.717 70.866 35.433-53.15-17.717 88.583 35.433-35.433-35.433 88.582 35.433-35.433-35.433 88.583 35.433-35.433-35.433 106.299 35.433-35.433-35.433 106.299 35.433-35.433-35.433 106.299-17.716 53.151-17.717 17.72-17.717-17.72-17.716-53.151-35.433-106.299 35.433 35.433-35.433-106.299 35.433 35.433-35.433-106.299 35.433 35.433-35.433-88.583 35.433 35.433-35.433-88.582 35.433 35.433-17.717-88.583 35.433 53.15 17.717-70.866z" transform="matrix(.11 .209 -.241 .104 933.515 -40.452)" fill="#006d00" fill-rule="evenodd" stroke="#fff" stroke-width="8.25"/><path d="M496.063 549.213v496.067m-70.866-177.17l70.866 106.299 70.866-106.299m-141.732-70.866l70.866 106.299 70.866-106.299m-141.732-70.866l70.866 106.299 70.866-106.299m-141.732-53.15l70.866 88.583 70.866-88.583m-141.732-53.149l70.866 88.582 70.866-88.582m-124.016-53.15l53.15 106.299 53.15-106.299" transform="matrix(.11 .209 -.241 .104 933.515 -40.452)" stroke="#000" stroke-width="1pt" fill="none"/><path d="M496.063 549.213l17.717 70.866 35.433-53.15-17.717 88.583 35.433-35.433-35.433 88.582 35.433-35.433-35.433 88.583 35.433-35.433-35.433 106.299 35.433-35.433-35.433 106.299 35.433-35.433-35.433 106.299-17.716 53.151-17.717 17.72-17.717-17.72-17.716-53.151-35.433-106.299 35.433 35.433-35.433-106.299 35.433 35.433-35.433-106.299 35.433 35.433-35.433-88.583 35.433 35.433-35.433-88.582 35.433 35.433-17.717-88.583 35.433 53.15 17.717-70.866z" transform="matrix(-.152 .188 -.228 -.124 1053.707 206.926)" fill="#006d00" fill-rule="evenodd" stroke="#fff" stroke-width="8.25"/><path d="M496.063 549.213v496.067m-70.866-177.17l70.866 106.299 70.866-106.299m-141.732-70.866l70.866 106.299 70.866-106.299m-141.732-70.866l70.866 106.299 70.866-106.299m-141.732-53.15l70.866 88.583 70.866-88.583m-141.732-53.149l70.866 88.582 70.866-88.582m-124.016-53.15l53.15 106.299 53.15-106.299" transform="matrix(-.152 .188 -.228 -.124 1053.707 206.926)" stroke="#000" stroke-width="1pt" fill="none"/><path d="M496.063 549.213l17.717 70.866 35.433-53.15-17.717 88.583 35.433-35.433-35.433 88.582 35.433-35.433-35.433 88.583 35.433-35.433-35.433 106.299 35.433-35.433-35.433 106.299 35.433-35.433-35.433 106.299-17.716 53.151-17.717 17.72-17.717-17.72-17.716-53.151-35.433-106.299 35.433 35.433-35.433-106.299 35.433 35.433-35.433-106.299 35.433 35.433-35.433-88.583 35.433 35.433-35.433-88.582 35.433 35.433-17.717-88.583 35.433 53.15 17.717-70.866z" transform="matrix(-.151 -.161 .171 -.146 637.239 399.036)" fill="#006d00" fill-rule="evenodd" stroke="#fff" stroke-width="8.25"/><path d="M496.063 549.213v496.067m-70.866-177.17l70.866 106.299 70.866-106.299m-141.732-70.866l70.866 106.299 70.866-106.299m-141.732-70.866l70.866 106.299 70.866-106.299m-141.732-53.15l70.866 88.583 70.866-88.583m-141.732-53.149l70.866 88.582 70.866-88.582m-124.016-53.15l53.15 106.299 53.15-106.299" transform="matrix(-.151 -.161 .171 -.146 637.239 399.036)" stroke="#000" stroke-width="1pt" fill="none"/><path d="M460.63 549.213l28.643 70.866 42.223-53.15-10.184 88.583 27.9-35.433-17.716 88.582 25.249-35.433-25.249 88.583 35.433-35.433-35.433 106.299 35.433-35.433-35.433 106.299 35.433-35.433-35.433 106.299-17.716 53.151-17.717 17.72-17.717-17.72-17.716-53.151-35.433-106.299 35.433 35.433-35.433-106.299 35.433 35.433-35.433-106.299 35.433 35.433-45.617-88.583 45.617 35.433-53.15-88.582 42.966 35.433-25.25-88.583 35.433 53.15.001-70.866z" transform="matrix(-.262 -.062 -.152 .198 1032.898 -15.791)" fill="#006d00" fill-rule="evenodd" stroke="#fff" stroke-width="8.25"/><path d="M467.208 584.646l28.855 124.016v336.618m-59.833-159.453l59.833 88.582 60.682-88.582m-122.212-70.866l61.53 88.582 60.682-88.582m-121.364-70.866l60.682 88.582 59.833-88.582m-123.061-53.15l63.228 70.866 53.149-70.866m-124.015-53.149l70.866 70.865 45.406-70.865m-105.345-44.558l53.15 86.886 35.327-95.478" transform="matrix(-.262 -.062 -.152 .198 1032.898 -15.791)" stroke="#000" stroke-width="1pt" fill="none"/><path d="M460.63 549.213l28.643 70.866 42.223-53.15-10.184 88.583 27.9-35.433-17.716 88.582 25.249-35.433-25.249 88.583 35.433-35.433-35.433 106.299 35.433-35.433-35.433 106.299 35.433-35.433-35.433 106.299-17.716 53.151-17.717 17.72-17.717-17.72-17.716-53.151-35.433-106.299 35.433 35.433-35.433-106.299 35.433 35.433-35.433-106.299 35.433 35.433-45.617-88.583 45.617 35.433-53.15-88.582 42.966 35.433-25.25-88.583 35.433 53.15.001-70.866z" transform="matrix(.262 .065 .009 .237 603.468 -118.596)" fill="#006d00" fill-rule="evenodd" stroke="#fff" stroke-width="8.25"/><path d="M467.208 584.646l28.855 124.016v336.618m-59.833-159.453l59.833 88.582 60.682-88.582m-122.212-70.866l61.53 88.582 60.682-88.582m-121.364-70.866l60.682 88.582 59.833-88.582m-123.061-53.15l63.228 70.866 53.149-70.866m-124.015-53.149l70.866 70.865 45.406-70.865m-105.345-44.558l53.15 86.886 35.327-95.478" transform="matrix(.262 .065 .009 .237 603.468 -118.596)" stroke="#000" stroke-width="1pt" fill="none"/><path d="M354.331 531.496l88.583 88.583 17.716-53.149v88.582l35.433-35.433-17.716 88.583 35.432-35.434-17.716 88.584 35.433-35.433-17.716 106.299 35.433-35.433-35.433 106.299 35.433-35.433-17.717 106.298-17.716 53.151-17.717 17.72-17.717-17.72-17.716-53.151-53.15-82.294 35.434 11.429-35.433-106.299 35.433 35.433-53.15-106.299 35.433 35.433-53.15-88.584 53.15 35.434-70.866-88.583 53.149 35.433-70.866-70.866 70.866 35.433-53.149-88.583z" transform="matrix(.033 -.227 .236 .04 481.736 237.929)" fill="#006d00" fill-rule="evenodd" stroke="#fff" stroke-width="8.25"/><path d="M378.962 560.015l63.952 95.497 17.716 53.15 8.859 45.205 8.858 78.811 9.315 70.866 8.401 141.736m-70.866-141.736l63.665 70.866 50.749-88.583m-122.529-70.866l70.579 88.583 50.75-88.583m-130.931-62.518l70.867 80.235 45.948-88.583m-152.248-106.299l88.583 70.866 25.831-70.866m-125.843-35.433l82.296 53.149 10.515-53.149m-63.665 88.582l81.095 70.866 33.946-70.866" transform="matrix(.033 -.227 .236 .04 481.736 237.929)" stroke="#000" stroke-width="1pt" fill="none"/></g><g fill-rule="evenodd"><path d="M541.459 1173.31l-1.698-229.143-61.104-106.934c-15.277-52.618-7.754-78.079 16.973-79.776 24.728-1.698 49.224 13.579 84.868 15.276 35.645 1.697 28.856-59.408 81.474-57.71 52.618 1.697 144.276 32.25 222.355 37.342 78.078 5.092 118.813-27.158 208.773-30.553 89.97-3.395 113.73 42.435 118.82 42.435 5.09 0 30.55-18.672 56.01-22.066 25.46-3.395 33.95 10.184 33.95 10.184s-1.7 57.71-13.58 91.657c-11.88 33.948-54.32 89.961-56.01 89.961-1.7 0-15.28 249.517-15.28 251.207 0 1.7-675.551-6.79-675.551-11.88z" fill="#c00" stroke="#000" stroke-width="1pt" transform="matrix(.132 0 0 .122 628.174 217.152)"/><g stroke="#000" stroke-width="1pt"><path d="M792.473 331.641s8.974-6.356 9.215-21.614c.139-8.775-4.538-15.13-16.231-15.13-16.37 0-39.756 6.484-39.756 6.484v2.161s18.709-6.484 39.756-6.484c9.354 0 14.032 6.355 14.032 12.839 0 10.807-9.354 21.744-9.354 21.744v17.291h2.339v-17.291z" fill="#fff100"/><path d="M478.346 549.213a17.717 17.717 0 1 0-35.433 0 17.716 17.717 0 1 0 35.433 0h-17.716z" transform="matrix(-.132 0 0 .122 859.917 260.173)" fill="#fff"/><path d="M478.346 549.213a17.717 17.717 0 1 0-35.433 0 17.716 17.717 0 1 0 35.433 0h-17.716z" transform="matrix(-.132 0 0 .122 862.256 255.229)" fill="#fff"/><path d="M478.346 549.213a17.717 17.717 0 1 0-35.433 0 17.716 17.717 0 1 0 35.433 0h-17.716z" transform="matrix(-.132 0 0 .122 863.474 250.194)" fill="#fff"/><path d="M478.346 549.213a17.717 17.717 0 1 0-35.433 0 17.716 17.717 0 1 0 35.433 0h-17.716z" transform="matrix(-.132 0 0 .122 864.371 244.81)" fill="#fff"/><path d="M478.346 549.213a17.717 17.717 0 1 0-35.433 0 17.716 17.717 0 1 0 35.433 0h-17.716z" transform="matrix(-.132 0 0 .122 864.147 238.973)" fill="#fff"/><path d="M478.346 549.213a17.717 17.717 0 1 0-35.433 0 17.716 17.717 0 1 0 35.433 0h-17.716z" transform="matrix(-.132 0 0 .122 856.557 264.522)" fill="#fff"/><path d="M478.346 549.213a17.717 17.717 0 1 0-35.433 0 17.716 17.717 0 1 0 35.433 0h-17.716z" transform="matrix(-.132 0 0 .122 862.158 233.46)" fill="#fff"/><path d="M478.346 549.213a17.717 17.717 0 1 0-35.433 0 17.716 17.717 0 1 0 35.433 0h-17.716z" transform="matrix(-.132 0 0 .122 857.901 229.111)" fill="#fff"/><path d="M478.346 549.213a17.717 17.717 0 1 0-35.433 0 17.716 17.717 0 1 0 35.433 0h-17.716z" transform="matrix(-.132 0 0 .122 852.076 226.212)" fill="#fff"/><path d="M478.346 549.213a17.717 17.717 0 1 0-35.433 0 17.716 17.717 0 1 0 35.433 0h-17.716z" transform="matrix(-.132 0 0 .122 846.25 225.798)" fill="#fff"/><path d="M478.346 549.213a17.717 17.717 0 1 0-35.433 0 17.716 17.717 0 1 0 35.433 0h-17.716z" transform="matrix(-.132 0 0 .122 839.977 226.005)" fill="#fff"/><path d="M478.346 549.213a17.717 17.717 0 1 0-35.433 0 17.716 17.717 0 1 0 35.433 0h-17.716z" transform="matrix(-.132 0 0 .122 833.703 226.833)" fill="#fff"/><path d="M478.346 549.213a17.717 17.717 0 1 0-35.433 0 17.716 17.717 0 1 0 35.433 0h-17.716z" transform="matrix(-.132 0 0 .122 827.43 227.662)" fill="#fff"/><path d="M478.346 549.213a17.717 17.717 0 1 0-35.433 0 17.716 17.717 0 1 0 35.433 0h-17.716z" transform="matrix(-.132 0 0 .122 820.708 228.697)" fill="#fff"/><path d="M478.346 549.213a17.717 17.717 0 1 0-35.433 0 17.716 17.717 0 1 0 35.433 0h-17.716z" transform="matrix(-.132 0 0 .122 814.883 230.147)" fill="#fff"/></g><path d="M478.346 549.213a17.717 17.717 0 1 0-35.433 0 17.716 17.717 0 1 0 35.433 0h-17.716z" transform="matrix(.132 0 0 .122 630.289 260.173)" font-size="12" fill="#fff" stroke="#000" stroke-width="1pt"/><path d="M478.346 549.213a17.717 17.717 0 1 0-35.433 0 17.716 17.717 0 1 0 35.433 0h-17.716z" transform="matrix(.132 0 0 .122 627.95 255.229)" font-size="12" fill="#fff" stroke="#000" stroke-width="1pt"/><path d="M478.346 549.213a17.717 17.717 0 1 0-35.433 0 17.716 17.717 0 1 0 35.433 0h-17.716z" transform="matrix(.132 0 0 .122 626.732 250.194)" font-size="12" fill="#fff" stroke="#000" stroke-width="1pt"/><path d="M478.346 549.213a17.717 17.717 0 1 0-35.433 0 17.716 17.717 0 1 0 35.433 0h-17.716z" transform="matrix(.132 0 0 .122 625.835 244.81)" font-size="12" fill="#fff" stroke="#000" stroke-width="1pt"/><path d="M478.346 549.213a17.717 17.717 0 1 0-35.433 0 17.716 17.717 0 1 0 35.433 0h-17.716z" transform="matrix(.132 0 0 .122 626.059 238.973)" font-size="12" fill="#fff" stroke="#000" stroke-width="1pt"/><path d="M478.346 549.213a17.717 17.717 0 1 0-35.433 0 17.716 17.717 0 1 0 35.433 0h-17.716z" transform="matrix(.132 0 0 .122 628.048 233.46)" font-size="12" fill="#fff" stroke="#000" stroke-width="1pt"/><path d="M478.346 549.213a17.717 17.717 0 1 0-35.433 0 17.716 17.717 0 1 0 35.433 0h-17.716z" transform="matrix(.132 0 0 .122 632.305 229.112)" font-size="12" fill="#fff" stroke="#000" stroke-width="1pt"/><path d="M478.346 549.213a17.717 17.717 0 1 0-35.433 0 17.716 17.717 0 1 0 35.433 0h-17.716z" transform="matrix(.132 0 0 .122 638.13 226.212)" font-size="12" fill="#fff" stroke="#000" stroke-width="1pt"/><path d="M478.346 549.213a17.717 17.717 0 1 0-35.433 0 17.716 17.717 0 1 0 35.433 0h-17.716z" transform="matrix(.132 0 0 .122 643.956 225.798)" font-size="12" fill="#fff" stroke="#000" stroke-width="1pt"/><path d="M478.346 549.213a17.717 17.717 0 1 0-35.433 0 17.716 17.717 0 1 0 35.433 0h-17.716z" transform="matrix(.132 0 0 .122 650.229 226.005)" font-size="12" fill="#fff" stroke="#000" stroke-width="1pt"/><path d="M478.346 549.213a17.717 17.717 0 1 0-35.433 0 17.716 17.717 0 1 0 35.433 0h-17.716z" transform="matrix(.132 0 0 .122 656.503 226.834)" font-size="12" fill="#fff" stroke="#000" stroke-width="1pt"/><path d="M478.346 549.213a17.717 17.717 0 1 0-35.433 0 17.716 17.717 0 1 0 35.433 0h-17.716z" transform="matrix(.132 0 0 .122 662.776 227.662)" font-size="12" fill="#fff" stroke="#000" stroke-width="1pt"/><path d="M478.346 549.213a17.717 17.717 0 1 0-35.433 0 17.716 17.717 0 1 0 35.433 0h-17.716z" transform="matrix(.132 0 0 .122 669.498 228.697)" font-size="12" fill="#fff" stroke="#000" stroke-width="1pt"/><path d="M478.346 549.213a17.717 17.717 0 1 0-35.433 0 17.716 17.717 0 1 0 35.433 0h-17.716z" transform="matrix(.132 0 0 .122 675.323 230.147)" font-size="12" fill="#fff" stroke="#000" stroke-width="1pt"/><path d="M478.346 549.213a17.717 17.717 0 1 0-35.433 0 17.716 17.717 0 1 0 35.433 0h-17.716z" transform="matrix(.132 0 0 .122 633.649 264.522)" font-size="12" fill="#fff" stroke="#000" stroke-width="1pt"/><path d="M531.496 584.646s-67.982-52.097-69.813-177.166c-1.053-71.929 34.38-124.015 122.963-124.015 124.015 0 301.181 53.149 301.181 53.149v17.717s-141.732-53.15-301.181-53.15c-70.866 0-106.3 52.087-106.3 105.236 0 88.583 70.867 178.229 70.867 178.229v141.732h-17.717v-141.732z" transform="matrix(.132 0 0 .122 628.174 260.38)" font-size="12" fill="#fff100" stroke="#000" stroke-width="1pt"/><path d="M1240.16 531.496s15.35-35.433 70.86-35.433c37.79 0 70.87 35.433 70.87 70.866v70.866h35.43v-70.866c0-35.47 35.44-70.866 70.87-70.866 53.15 0 70.87 35.433 70.87 35.433s0-106.299-70.87-106.299c-53.15 0-70.87 35.433-70.87 35.433s17.72-53.15 17.72-106.299c0-53.15-35.43-88.583-35.43-88.583 0 6.79-35.44 35.433-35.44 88.583 0 53.149 17.72 106.299 17.72 106.299s-17.72-35.433-70.87-35.433c-70.86 0-70.86 106.299-70.86 106.299z" transform="matrix(.044 0 0 .046 660.135 315.033)" fill="#fff100" stroke="#000" stroke-width="2.991"/><path d="M1240.16 531.496s15.35-35.433 70.86-35.433c37.79 0 70.87 35.433 70.87 70.866v70.866h35.43v-70.866c0-35.47 35.44-70.866 70.87-70.866 53.15 0 70.87 35.433 70.87 35.433s0-106.299-70.87-106.299c-53.15 0-70.87 35.433-70.87 35.433s17.72-53.15 17.72-106.299c0-53.15-35.43-88.583-35.43-88.583 0 6.79-35.44 35.433-35.44 88.583 0 53.149 17.72 106.299 17.72 106.299s-17.72-35.433-70.87-35.433c-70.86 0-70.86 106.299-70.86 106.299z" transform="matrix(.044 0 0 .046 706.906 315.033)" fill="#fff100" stroke="#000" stroke-width="2.991"/><path d="M531.496 832.677v-159.449s35.433 53.15 88.583 53.15c43.489 0 88.582-70.866 88.582-70.866s41.515 53.149 88.583 53.149c42.021 0 88.516-68.572 88.516-68.572s43.207 68.572 88.649 68.572c45.441 0 88.581-53.149 88.581-53.149s46.29 70.866 106.3 70.866c53.15 0 70.87-53.15 70.87-53.15v159.449h-708.664z" transform="matrix(.132 0 0 .122 628.174 260.38)" fill="#fff100" stroke="#000" stroke-width="1pt"/><path d="M708.661 832.677v-124.016s106.3 35.433 106.3 124.016h-106.3z" transform="matrix(.132 0 0 .122 604.788 260.38)" fill="#fff100" stroke="#000" stroke-width="1pt"/><path d="M708.661 832.677v-124.016s106.3 35.433 106.3 124.016h-106.3z" transform="matrix(-.132 0 0 .122 885.418 260.38)" fill="#fff100" stroke="#000" stroke-width="1pt"/><path d="M602.362 832.677c0-88.583 106.366-144.599 106.366-144.599s106.233 56.016 106.233 144.599h-212.599z" transform="matrix(.132 0 0 .122 628.174 260.38)" fill="#fff100" stroke="#000" stroke-width="1pt"/><path d="M602.362 832.677c0-88.583 106.366-144.599 106.366-144.599s106.233 56.016 106.233 144.599h-212.599z" transform="matrix(.132 0 0 .122 674.946 260.38)" fill="#fff100" stroke="#000" stroke-width="1pt"/><path d="M584.646 847.527c0-88.583 124.082-159.449 124.082-159.449s123.949 70.866 123.949 159.449h-248.031z" transform="matrix(.132 0 0 .122 651.56 258.569)" fill="#fff100" stroke="#000" stroke-width="1pt"/><path d="M1275.59 655.512c-35.43-17.716-166.02-35.433-376.275-35.433-210.26 0-350.101 17.717-385.534 35.433-35.434 17.717-35.434 53.149-.001 70.866 35.433 17.716 175.275 35.433 385.535 35.433 210.255 0 340.845-17.716 376.275-35.433 35.43-17.716 35.43-53.149 0-70.866z" transform="matrix(.131 0 0 .122 627.727 281.995)" font-size="12" fill="#fff" stroke-width="1pt" stroke="#000"/><path d="M792.442 370.497c0 4.326-39.039 4.326-46.935 4.326-8.532 0-46.935 1.172-46.935-4.326 0-4.326 38.722-4.326 46.935-4.326 8.214 0 46.935.879 46.935 4.326z" font-size="12" fill="#808080"/><path d="M566.929 776.277a17.717 20.967 0 1 0-35.433 0 17.717 20.967 0 1 0 35.433 0h-17.716z" transform="matrix(.132 0 0 .122 628.174 260.38)" fill="#c00"/><path d="M566.929 776.277a17.717 20.967 0 1 0-35.433 0 17.717 20.967 0 1 0 35.433 0h-17.716z" transform="matrix(.132 0 0 .122 717.04 260.38)" fill="#c00"/><path d="M566.929 776.277a17.717 20.967 0 1 0-35.433 0 17.717 20.967 0 1 0 35.433 0h-17.716z" transform="matrix(.264 0 0 .122 600.111 259.012)"/><path d="M566.929 776.277a17.717 20.967 0 1 0-35.433 0 17.717 20.967 0 1 0 35.433 0h-17.716z" transform="matrix(.198 0 0 .122 659.963 259.012)" fill="#006300"/><path d="M566.929 776.277a17.717 20.967 0 1 0-35.433 0 17.717 20.967 0 1 0 35.433 0h-17.716z" transform="matrix(.198 0 0 .122 611.804 259.012)" fill="#006300"/><path d="M1257.87 496.063s35.44-53.15 70.87-53.15h35.43v35.433c0 53.15-53.15 70.867-53.15 70.867h141.74s-53.15-17.717-53.15-70.867v-35.433h35.43c35.43 0 70.87 53.15 70.87 53.15v-141.732s-35.44 53.15-70.87 53.15h-35.43v-35.433c0-53.15 53.15-70.867 53.15-70.867h-141.74s53.15 17.717 53.15 70.867v35.433h-35.43c-35.43 0-70.87-53.15-70.87-53.15v141.732z" transform="matrix(.075 0 0 .07 640.872 304.226)" font-size="12" fill="#fff100" stroke="#000" stroke-width="2.188"/><path d="M1381.89 549.212l70.87.001s-53.15-17.717-53.15-70.867v-35.433h35.43c35.43 0 70.87 53.15 70.87 53.15v-141.732s-35.44 53.15-70.87 53.15h-35.43v-35.433c0-53.15 53.15-70.867 53.15-70.867h-70.87v248.031z" transform="matrix(.038 0 0 .061 646.216 313.335)" font-size="12" fill="#fff100" stroke="#000" stroke-width="3.307"/><path d="M1381.89 549.212l70.87.001s-53.15-17.717-53.15-70.867v-35.433h35.43c35.43 0 70.87 53.15 70.87 53.15v-141.732s-35.44 53.15-70.87 53.15h-35.43v-35.433c0-53.15 53.15-70.867 53.15-70.867h-70.87v248.031z" transform="matrix(-.038 0 0 .061 843.99 313.335)" font-size="12" fill="#fff100" stroke="#000" stroke-width="3.307"/><path d="M903.543 602.362a17.717 17.717 0 1 0-35.433 0 17.717 17.716 0 1 0 35.433 0h-17.716z" transform="matrix(.132 0 0 .122 628.174 260.38)" stroke="#000" fill="#fff" stroke-width="1pt"/><path d="M1257.87 496.063s35.44-53.15 70.87-53.15h35.43v35.433c0 53.15-53.15 70.867-53.15 70.867h141.74s-53.15-17.717-53.15-70.867v-35.433h35.43c35.43 0 70.87 53.15 70.87 53.15v-141.732s-35.44 53.15-70.87 53.15h-35.43v-35.433c0-53.15 53.15-70.867 53.15-70.867h-141.74s53.15 17.717 53.15 70.867v35.433h-35.43c-35.43 0-70.87-53.15-70.87-53.15v141.732z" transform="matrix(.075 0 0 .07 640.873 258.836)" font-size="12" fill="#fff100" stroke="#000" stroke-width="2.188"/><path d="M903.543 602.362a17.717 17.717 0 1 0-35.433 0 17.717 17.716 0 1 0 35.433 0h-17.716z" transform="matrix(.132 0 0 .122 628.398 215.353)" stroke="#000" fill="#fff" stroke-width="1pt"/><path font-size="12" fill="#fff100" stroke-width="1pt" stroke="#000" d="M850.393 655.512h70.866v53.15h-70.866zm.001 27.785h70.866v202.53h-70.866z" transform="matrix(.132 0 0 .122 628.174 217.152)"/><path d="M478.346 549.213a17.717 17.717 0 1 0-35.433 0 17.716 17.717 0 1 0 35.433 0h-17.716z" transform="matrix(.132 0 0 .122 684.3 253.896)" font-size="12" fill="#fff" stroke="#000" stroke-width="1pt"/><path d="M478.346 549.213a17.717 17.717 0 1 0-35.433 0 17.716 17.717 0 1 0 35.433 0h-17.716z" transform="matrix(.132 0 0 .122 684.3 248.305)" font-size="12" fill="#fff" stroke="#000" stroke-width="1pt"/><path d="M478.346 549.213a17.717 17.717 0 1 0-35.433 0 17.716 17.717 0 1 0 35.433 0h-17.716z" transform="matrix(.132 0 0 .122 684.3 243.089)" font-size="12" fill="#fff" stroke="#000" stroke-width="1pt"/><path d="M478.346 549.213a17.717 17.717 0 1 0-35.433 0 17.716 17.717 0 1 0 35.433 0h-17.716z" transform="matrix(.132 0 0 .122 684.3 237.705)" font-size="12" fill="#fff" stroke="#000" stroke-width="1pt"/><path d="M614.511 1201.791a36.007 14.403 0 1 0-72.013 0 36.007 14.403 0 1 0 72.013-.001l-36.006.001z" transform="matrix(.132 0 0 .122 668.956 215.395)"/><path d="M614.511 1201.791a36.007 14.403 0 1 0-72.013 0 36.007 14.403 0 1 0 72.013-.001l-36.006.001z" transform="matrix(.13 .03 -.033 .084 752.751 247.341)"/><path d="M614.511 1201.791a36.007 14.403 0 1 0-72.013 0 36.007 14.403 0 1 0 72.013-.001l-36.006.001z" transform="matrix(.135 .009 -.013 .108 708.204 228.28)"/><path d="M614.511 1201.791a36.007 14.403 0 1 0-72.013 0 36.007 14.403 0 1 0 72.013-.001l-36.006.001z" transform="matrix(-.13 .03 .033 .084 736.413 247.341)"/><path d="M614.511 1201.791a36.007 14.403 0 1 0-72.013 0 36.007 14.403 0 1 0 72.013-.001l-36.006.001z" transform="matrix(-.135 .009 .013 .108 781.856 227.866)"/></g></svg>