<svg xmlns="http://www.w3.org/2000/svg" version="1" width="793.701" height="496.063"><path font-size="12" fill="#ffd100" fill-rule="evenodd" d="M0 0h793.701v496.063h-793.701z"/><path d="M0 425.197l99.213 17.717 99.213-17.716 99.213 17.716 99.213-17.716 99.213 17.716 99.213-17.716 99.213 17.716c33.071 0 66.142-17.716 99.212-17.716v70.866h-793.701v-70.866z" font-size="12" fill="#fff" fill-rule="evenodd"/><g transform="matrix(1.174 0 0 1.1 -63.763 -22.12)" font-size="12"><path d="M190.143 210.106c23.416-6.4 38.086-6.947 53.692-7.41 15.606-.463 25.598 3.705 40.675 2.695 15.077-1.01-25.775-22.567 3.254-22.904 29.029-.337 36.811 14.324 55.861 13.473 19.05-.851-4.786-10.105-4.339-15.157.448-5.052 17.355-6.4 35.794-6.063 18.44.337 25.408 4.379 26.575 4.379 1.166 0 1.085 7.747 1.085 7.747s-17.423-6.737-28.744-7.073c-11.321-.337-21.68 0-22.236 1.347-.556 1.347 10.779 4.985 10.847 14.82.068 9.835-16.637 8.547-25.49 7.41-8.853-1.137-45.367-15.831-47.183-14.484-1.817 1.347 18.71 15.039 2.712 19.536-15.999 4.497-34.683-2.964-50.41-2.627-34.412 0-52.092 4.648-52.092 4.311z" fill="#dc0000" fill-rule="evenodd"/><path fill-rule="evenodd" d="M304.553 212.769l193.233-25.72.487 3.777-193.233 25.72zm94.441-38.079h7.495v186.635h-7.495z"/><rect width="14.991" height="3.809" ry="1.904" x="383.4" y="174.69" transform="translate(11.846)" fill-rule="evenodd"/><path d="M305.301 338.472v10.222c0 6.348 7.027 12.696 14.054 12.696h163.026c7.027 0 14.054-5.143 14.054-11.491 0-3.809-1.737-7.618-3.748-11.427h89.946l-3.748 3.809h-78.702v7.682c0 7.618-7.495 15.236-14.991 15.236h-168.648c-7.495 0-14.991-7.618-14.991-15.236v-11.491h3.748zm206.125 7.618v7.682c0 11.426-8.901 22.853-17.802 22.853h-185.513c-8.901 0-17.801-11.427-17.801-22.854v-15.3h7.495v12.761c0 8.887 7.964 17.775 15.928 17.775h174.269c7.964 0 15.928-8.887 15.928-17.775v-5.143h7.495zm3.748 0v8.952c0 12.696-9.369 25.392-18.738 25.392h-191.134c-9.369 0-18.739-12.696-18.739-25.392v-16.57h-7.495v19.109c0 15.236 10.306 30.471 20.613 30.471h202.377c10.306 0 20.612-15.235 20.612-30.471v-11.491h-7.495zm-247.35-7.618v22.918c0 19.044 11.712 38.089 23.423 38.089h219.242c11.712 0 23.423-19.045 23.423-38.089v-15.3h-7.495v12.761c0 16.505-10.775 33.01-21.55 33.01h-207.999c-10.775 0-21.55-16.505-21.55-33.01v-20.379h-7.495zm-11.244 0v30.536c0 24.123 16.631 41.898 29.982 41.898h228.611c13.352 0 29.982-21.583 29.982-45.707v-19.109h-7.495v15.3c0 20.907-13.951 41.898-26.234 41.898h-221.116c-12.283 0-26.234-17.183-26.234-38.089v-26.727h-7.495zm-3.747 0c0 7.553.629 16.077.314 34.733-.314 14.783 17.975 42.421 29.443 41.965 11.468-.456 226.144-.546 228.836-.456 11.243 0 14.991-3.809 18.738-7.618-3.747 7.618-22.486 15.235-29.982 15.235-20.107.024-224.864 0-232.359 0l-37.477-83.859h22.486zm296.07 7.618v22.853c0 2.196-.528 4.776-1.478 7.683 5.734-7.618 8.974-19.109 8.974-30.536h-7.495zm-299.061 45.706l14.234 30.471h-18.979l4.745-30.471zm-9.49 30.471s7.406-24.493 7.018-39.112c0-11.335-23.737-14.212-31.408-29.447 9.49 1.825 16.264-.214 18.525-.365l-2.26-4.128c-.964 0-18.083 4.493-22.828-3.124 1.818 22.853 32.252 25.663 33.226 36.994.975 11.331-7.018 39.184-7.018 39.184h4.745zm-27.195-106.648l8.616 15.236h-4.308v3.809h99.08v-3.809h-8.616v-15.236h-94.772zm17.231 15.236c0-5.413 5.428-9.878 10.253-9.878 5.214 0 10.253 4.631 10.253 9.878h-6.835c0-1.731-1.389-3.293-3.417-3.293-2.028 0-3.418 1.785-3.418 3.293h-6.835zm26.364 0c0-5.413 5.428-9.878 10.253-9.878 5.214 0 10.253 4.631 10.253 9.878h-6.835c0-1.731-1.389-3.293-3.417-3.293-2.028 0-3.418 1.785-3.418 3.293h-6.835zm26.364 0c0-5.413 5.428-9.878 10.253-9.878 5.214 0 10.253 4.631 10.253 9.878h-6.835c0-1.731-1.389-3.293-3.418-3.293-2.028 0-3.418 1.785-3.418 3.293h-6.835zm236.301-.001c0-5.413-6.166-9.878-11.646-9.878-5.923 0-11.646 4.631-11.646 9.878h7.764c0-1.731 1.578-3.293 3.882-3.293 2.304 0 3.882 1.785 3.882 3.293h7.764zm29.948 0c0-5.413-6.166-9.878-11.646-9.878-5.923 0-11.646 4.631-11.646 9.878h7.764c0-1.731 1.578-3.293 3.882-3.293 2.304 0 3.882 1.785 3.882 3.293h7.764zm29.948 0c0-5.413-6.166-9.878-11.646-9.878-5.923 0-11.646 4.631-11.646 9.878h7.764c0-1.731 1.578-3.293 3.882-3.293 2.304 0 3.882 1.785 3.882 3.293h7.764zm14.68-15.236l-9.787 15.236h4.894v3.809h-107.656v-3.809h9.787v-15.236h102.762z" fill-rule="evenodd"/><path stroke="#000" stroke-width=".605" d="M491.59 311.81h101.214v3.809h-101.214zm0-7.618h101.214v3.809h-101.214z" fill="none"/><path fill-rule="evenodd" d="M486.77 308.001h110.853v3.809h-110.853z"/><path stroke="#000" stroke-width=".588" d="M212.419 311.81h95.737v3.809h-95.737zm0-7.618h95.737v3.809h-95.737z" fill="none"/><path fill-rule="evenodd" d="M207.86 308.001h104.855v3.809h-104.855zm26.333 49.515c-4.425 1.258-6.347 1.451-11.002.318 5.754 7.129 11.056 6.329 18.699 13.458l-7.697-13.776zm33.63-121.884h7.495v68.56h-7.495zm.001 34.28l-7.495 34.28h3.748l7.495-34.28h-3.748zm7.495 0l7.495 34.28h-3.748l-7.495-34.28h3.748z"/><path d="M305.301 216.588c29.982 57.133 71.207 118.075 133.303 146.927m-32.114-169.78l123.675 106.649" stroke="#000" stroke-width="1.875" fill="none"/><path fill-rule="evenodd" d="M537.66 235.632h7.495v68.56h-7.495zm0 34.28l-7.495 34.28h3.748l7.495-34.28h-3.748zm7.496 0l7.495 34.28h-3.748l-7.495-34.28h3.748z"/><path d="M496.435 242.403v23.7l10.306-2.962 10.306 2.962 10.306-2.962 10.306 2.962v-23.7l-10.306-2.962-10.306 2.962-10.306-2.962-10.306 2.962zm-269.836 0v23.7l10.306-2.962 10.306 2.962 10.306-2.962 10.306 2.962v-23.7l-10.306-2.962-10.306 2.962-10.306-2.962-10.306 2.962z" fill="#dc0000" fill-rule="evenodd"/><path fill-rule="evenodd" d="M264.076 231.823h14.991v3.809h-14.991zm269.836 0h14.991v3.809h-14.991z"/><path d="M560.146 346.09h11.243v19.044h-3.748c-3.563-.304-3.748 3.809-3.748 7.617v19.045c0 3.809-3.748 7.618-7.495 7.618-3.748 0-7.495-3.808-7.495-7.618 0-3.809 3.8-7.518 7.495-7.618-1.664-3.808-5.191-3.808-7.495-3.808 7.495-7.618 8.958-21.367 11.243-34.28z" fill-rule="evenodd" stroke="#000" stroke-width=".213"/><path fill-rule="evenodd" d="M575.137 346.09h3.748v19.044h-3.748z"/><path d="M511.661 422.722s22.251-6.255 25.999-23.308v3.81l7.495 19.044-33.494.455zm29.747-28.924l3.748-7.618c0 3.871-.254 12.605 0 17.043.254 8.245 7.495 3.808 7.495 19.044h-3.748c0-11.426-7.495-11.426-7.495-19.044v-9.425z" fill-rule="evenodd" stroke="#000" stroke-width=".213"/><path d="M398.994 193.735l-116.179 110.457" stroke="#000" stroke-width="1.875" fill="none"/><path d="M377.825 323.962l-10.516 38.072m17.467-38.072l-10.516 38.072m17.466-38.072l-10.516 38.072m-12.587-4.759h13.901m-12.586-4.759h13.901m-12.587-4.759h13.901m-12.586-4.759h13.901m-12.587-4.759h13.901m-12.586-4.759h13.901m-12.587-4.759h13.901m1.315-4.759h-13.901m49.834 0l10.516 38.072m-17.467-38.072l10.516 38.072m-17.467-38.072l10.516 38.072m12.587-4.759h-13.901m12.587-4.759h-13.901m12.586-4.759h-13.901m12.587-4.759h-13.901m12.586-4.759h-13.901m12.587-4.759h-13.901m12.586-4.759h-13.901m-1.315-4.759h13.901" stroke="#000" stroke-width="3.518" fill="none"/><path d="M333.847 212.779c-13.555 15.236-17.303 32.141-17.303 57.133 0 24.758 11.243 53.324 37.477 91.413 3.748-19.044 29.85-30.471 48.721-30.471 19.856 0 48.72 15.236 67.459 30.471-14.991-25.012-20.332-63.481-20.332-91.413 0-27.932 3.097-53.324 20.332-76.178-5.681.793-13.057 8.729-18.739 9.522-5.681.794-11.243-1.904-15.35-4.761-3.389 2.857-13.057 8.729-18.739 9.522-5.682.793-12.32-2.857-15.35-4.761-4.466 1.905-12.339 7.777-18.021 8.57-5.681.794-11.243-2.857-16.068-3.809-4.245 2.983-12.339 7.776-18.02 8.57-5.682.793-10.884-1.683-16.068-3.809z" fill="#fff" fill-rule="evenodd" stroke="#000" stroke-width="1.875"/><path d="M496.435 189.926c-3.748 72.369-71.207 144.737-142.414 171.399" stroke="#000" stroke-width="1.875" fill="none"/><path d="M402.742 196.56c6.919 0 12.684.984 12.684.984l2.307-8.853c-1.153-.44-3.459-.984-4.613-.984l-1.153 4.419-4.613-.485-.166-4.887c.166-.031-2.141-.638-4.447-.638s-4.613.607-4.447.638l-.166 4.887-4.613.485-1.153-4.419c-1.153 0-3.459.544-4.613.984l2.306 8.853s5.766-.984 12.685-.984z" fill="#ffd100" fill-rule="evenodd" stroke="#000" stroke-width="1.306"/><ellipse cx="332.614" cy="673.228" rx="39.433" ry="35.433" transform="matrix(.293 0 0 .29 263.688 194.335)" fill="#ffd100" fill-rule="evenodd"/><ellipse cx="332.614" cy="673.228" rx="39.433" ry="35.433" transform="matrix(.176 0 0 .174 302.671 272.326)" fill-rule="evenodd"/><ellipse cx="332.614" cy="673.228" rx="39.433" ry="35.433" transform="matrix(.293 0 0 .29 291.418 194.335)" fill="#ffd100" fill-rule="evenodd"/><ellipse cx="332.614" cy="673.228" rx="39.433" ry="35.433" transform="matrix(.176 0 0 .174 330.401 272.326)" fill-rule="evenodd"/><ellipse cx="332.614" cy="673.228" rx="39.433" ry="35.433" transform="matrix(.293 0 0 .29 319.148 194.335)" fill="#ffd100" fill-rule="evenodd"/><ellipse cx="332.614" cy="673.228" rx="39.433" ry="35.433" transform="matrix(.176 0 0 .174 358.131 272.326)" fill-rule="evenodd"/><ellipse cx="332.614" cy="673.228" rx="39.433" ry="35.433" transform="matrix(.293 0 0 .29 346.878 194.335)" fill="#ffd100" fill-rule="evenodd"/><ellipse cx="332.614" cy="673.228" rx="39.433" ry="35.433" transform="matrix(.176 0 0 .174 385.861 272.326)" fill-rule="evenodd"/></g><path d="M0 425.197l99.213 17.716 99.213-17.716 99.213 17.716 99.213-17.716c33.071 0 66.142 17.716 99.212 17.716l99.213-17.716 99.213 17.716c33.071 0 66.142-17.716 99.212-17.716v17.716c-33.071 0-66.142 17.717-99.212 17.717l-99.213-17.717c-33.071 0-66.141 17.717-99.213 17.717-33.071 0-66.142-17.717-99.212-17.717l-99.213 17.717-99.213-17.717-99.213 17.717-99.213-17.717v-17.716z" font-size="12" fill="#2640a4" fill-rule="evenodd"/><path d="M424.265 409.961s15.333 50.608 25.92 79.464c1.512 4.122 5.841 7.104 8.657 5.963s4.12-6.404 2.607-10.526c-10.587-28.856-31.552-77.182-31.552-77.182l-5.632 2.281zm-32.121.536s15.333 50.608 25.92 79.464c1.512 4.122 5.841 7.104 8.657 5.963s4.12-6.404 2.607-10.526c-10.587-28.856-31.552-77.182-31.552-77.182l-5.632 2.281zm-32.121 0s15.333 50.608 25.92 79.464c1.512 4.122 5.841 7.104 8.657 5.963s4.12-6.404 2.607-10.526c-10.587-28.856-31.552-77.182-31.552-77.182l-5.632 2.281zm96.85-1.072s15.333 50.608 25.92 79.464c1.512 4.122 5.841 7.104 8.657 5.963s4.12-6.404 2.607-10.526c-10.587-28.856-31.552-77.182-31.552-77.182l-5.632 2.281z" font-size="12" fill="#ffd100" fill-rule="evenodd" stroke="#000" stroke-width="1.554"/><path d="M0 460.63l99.213 17.716 99.213-17.716 99.213 17.716 99.213-17.716c33.071 0 66.142 17.716 99.212 17.716l99.213-17.716 99.213 17.716c33.071 0 66.142-17.716 99.212-17.716v35.433h-793.701v-35.433z" font-size="12" fill="#2640a4" fill-rule="evenodd"/><path d="M0 0v157.642h793.7v-157.642h-793.7zm180.321 33.408c-1.327-.395-5.362-2.239-8.937-2.33-2.285 2.083-3.228 3.846-3.575 7.768.88 3.97 2.13 5.894 3.575 8.545 1.976 2.29.559 3.726-1.787 4.661-1.785 2.281-4.436 3.223-6.256 5.438-3.199 0-4.84.361-7.15.777 2.959 1.029 5.978 2.079 8.937 3.107 2.158 0 6.185-.715 4.469.777l-1.787 6.991c-3.843.954 1.107 1.491 3.575 1.554 2.61-2.41 1.787-.08 1.787 3.107 0 2.4.229 4.913-.894 6.214 2.761 0 4.089.189 6.256.194 1.776-2.523 4.022-6.672 4.022-9.904-.847-3.963-1.891-13.601-2.234-17.478 3.655.737 6.975 1.819 8.937 3.884.737 1.424-.421 4.683-1.787 6.991 1.352 3.233 3.177 4.805 7.149 5.438 4.868.846 4.469-.311 4.469-4.661-.833-2.897-2.553-1.647-2.681-5.438 2.766-1.352 5.149-1.649 7.689-.54 2.244 1.37 3.317 2.508 4.236 4.376-1.567 1.261-3.632 1.944-5.445 2.183-1.306.929-.996 4.849-.223 5.632 2.987.865 7.737.865 10.725 0 1.293-2.881.778-4.358 1.57-6.124 2.123-.114 8.819-1.075 10.468 0-2.68 1.568-5.032 3.871-7.624 6.167-2.175 2.121-4.233 3.654-6.572 5.987-1.795 1.88-2.469 6.763-2.785 10.33 1.996.916 5.03 1.241 8.468.91.591-1.835.785-2.477.943-4.064 2.358-.82 4.458.374 6.256-.777 0-2.4-1.019-4.638.104-5.94 2.559 1.368 5.186 1.804 7.308 3.562 3.414.318 5.404.03 7.831-.549-.725-3.326-2.383-5.89-3.625-7.172-2.068-2.528-3.805-3.756-.894-6.214 5.382 0 6.826-.723 9.831-2.33 1.876-3.176 2.973-5.073 3.575-8.545 0-3.128.024-3.107-3.575-3.107 0-3.45-.381-5.471 1.787-6.991.851-3.145 2.142-5.08 2.681-8.545 0-3.162-.019-6.467-.894-8.545-3.539 1.025-4.627 2.543-8.937 3.107 1.324-3.329.514-4.661 2.234-6.797.825-2.933 3.949-4.561 2.681-7.574-3.937 1.5-7.145 2.4-10.948 3.301-2.337 1.937-4.852 3.893-8.043 5.826-.914-2.629-.622-7.149-2.065-8.876-3.497 1.526-6.405 1.137-8.305 2.099-2.774 1.142-3.96 4.086-5.94 5.807 0-3.646-.389-7.752-1.787-10.098-4.036.13-7.606.65-10.724 1.554-2.642.919-4.888.589-5.362 3.884-1.123 1.301-1.585.388-5.362-.777-2.249 2.05-3.48 3.904-4.468 7.768 0 2.066-.36 2.961-.894 5.438zm-21.895 32.235c.131 0 1.306.717 2.681 1.165.332 1.227.7 3.16 1.34 4.272.493 1.198 1.994 1.508 3.128 1.942 2.371.061 1.683.506 1.341 1.942-1.208 1.328-1.851 1.623-4.022 2.33.619 1.972 1.369 1.824 3.128 2.719 1.787.551 2.093 1.576 3.128 2.719.098 2.296.713 2.537 2.681 3.107 2.227-.11 2.479-1.392 3.128.388 1.195.858 1.611 2.142 2.234 3.496 1.423.978 2.331 1.73 3.575.388.483-1.259 1.059-3.267 1.341-4.661.816-1.073 1.963-3.505 2.681-4.661 1.267-1.58 1.602-2.169 3.128-3.496.282-1.128.491-3.223.894-4.272 1.565-.51 1.445.206 1.787 1.942-.156 1.894-.819 3.84-1.787 5.049-.675 1.824-1.255 3.358-1.341 5.438-.086 2.012-.721 2.943-.894 5.049-.241 1.55-.447 3.07-.447 5.049.154 1.737.447 2.986.447 5.049.073 2.167.967 1.622 2.234.389 1.383-1.357 1.265-2.295 1.787-3.884.928-1.774 1.711-2.217 2.234-3.884 1.432-1.383 2.108-1.843 2.234-3.884 1.134-1.056 1.146-2.064 2.458-3.204 1.405-1.733 2.234-3.243 2.458-4.952.297-2.165.739-3.602 2.681-4.272 1.329.289.894 1.036.894 2.33-.247 1.589-.389 3.09-.782 4.564 0 1.98-.765 3.597-1.005 5.146v5.438c0 1.2-.115 2.457.447 3.107 2.264-.483 2.012-1.288 3.128-2.33 2.585-.541 3.099.03 4.469 1.165 2.092.13 3.767.462 5.362 0 0-1.019.124-1.835-.447-2.33 1.414-.41 3.749-.388 5.809-.388 1.605 0 3.52.106 4.469-.388-.337-1.243-1.25-.83-1.341-2.33-.935-2.438-.305-3.279 2.681-3.496 2.174.472 3.469.752 5.809.777 1.942 0 4.056.01 5.362.388-.085 1.401 1.544 1.416 2.234 3.107-1.479.752-2.385 1.139-4.915 1.165-2.582.027-3.009.259-4.022 1.554 1.878.355 2.192.294 2.234 2.33-1.724.599-2.973 1.074-4.469 0-2.464 0-4.182.014-5.362 1.165-.819 1.008.655 1.509 1.787 1.942 1.199.635 2.57 2.214 4.022 2.719 2.814 0 3.77-.469 4.022 1.942-.41 1.947-1.309 2.115-3.128 3.496-1.479.609-2.899.777-5.362.777h-4.469c1.954 0 4.545-.161 5.809.388 2.128.339 2.47.702 2.681 2.719-1.272 1.159-1.45 1.77-4.022 1.942-2.111.459-4.056.331-5.809 0-2.064 0-3.552.211-4.469-.777-1.374-.424-3.064-1.336-4.022-2.331-.968-.497-2.809-2.776-3.128-3.884-.356 1.736.894 5.448.894 7.38-1.021 1.953-1.26 2.463-3.128 4.272-1.874.233-2.493-.17-3.575-1.553-1.275-1.279-2.875-1.705-4.469-2.719-1.941-.649-2.189-2.17-3.575-3.496-.664-1.218-.894-2.24-.894-4.272-.521 1.681-1.182 3.09-2.234 4.272-.502 1.31-1.368 2.441-2.234 3.496-.678 1.822-1.002 2.248-3.575 2.331-1.405-1.135-2.837-1.824-3.575-3.107-1.265-1.65-1.238-2.735-3.575-3.107-1.053-.872-1.942-1.983-3.128-2.719-1.957-1.134-2.234-1.794-2.234-4.272.043-2.074.343-2.831-.447-4.661-1.273-1.409-1.429.433-2.681 1.554-.646 1.582-1.418 2.048-3.575 2.33-.912-1.165-1.729-1.885-2.234-3.496-1.232-1.328-2.191-1.91-3.128-3.107-1.189-1.645-1.738-2.691-2.234-4.272v-10.876c0-1.791.024-3.821-.447-5.049-.396-1.485-.894-3.018-.894-5.049v-3.884 3.884c0-1.295 0-2.589 2.234-5.049zm35.302 7.865c.132 2.622-.677 7.247-.67 9.71 1.82-1.916 5.042-6.484 6.479-9.419-1.486-.288-4.32-.291-5.809-.291zm-57.755 22.33c-1.601-.887-4.324.486-6.591.486-4.704-1.084-6.411-3.225-10.724-3.884-4.712-.152-6.495-1.171-9.831-2.33l-8.937-3.107c-3.241-.769-6.285-2.303-9.831-3.107-3.989-.804-6.937-2.078-8.937-4.661.628-2.851 2.215-3.394 4.469-4.661 0-2.356.242-5.913 1.787-2.33 2.323 2.452 1.924 4.123 6.256 4.661 2.387-2.64 2.319.504 5.362 2.33 3.181 3.334 1.541 1.107 5.362 0 .836 2.404 2.671 3.875 4.469 5.438 3.677.3 3.447 1.439 3.575-2.33 2.618-.569 2.934.416 3.575 3.107 2.649 1.637 4.356 2.982 7.149 1.554-1.267-2.71-2.358-2.445-2.681-5.438 2.831 3.051 4.187 3.268 8.043 5.438 2.08.795 5.144 2.175 6.256 1.554-.838-2.672-1.951-4.848-2.681-7.768.866 4.284 3.134 5.264 8.043 6.991 2.977 2.403 2.038.15 4.469-1.554 2.728.119 4.702 1.351 6.256 0 1.861-2.997 2.681-5.62 2.681-10.098-.449-4.294-2.214-4.53-5.362-6.214-3.608-.682-6.45-1.614-10.724-2.33-2.834-1.906-6.404-1.063-11.171-1.359l-12.735-1.165c-3.895-.26-6.63-1.489-10.054-2.136-2.705-.917-4.519-.408-7.373-1.748 4.549.146 5.387-.289 10.054.194 4.631.149 13.118.971 17.651.971 2.486 0 8.377.293 12.735-.388-3.109-1.28-6.897-1.79-11.618-1.942-3.364-1.501-6.889-.399-9.831-1.748-4.509-.047-7.94-.777-12.512-.777-4.851 0-7.598-1.409-10.948-2.136-2.957-1.22-4.497-1.515-8.714-2.525-2.622-1.55-4.697-2.162-6.703-4.272-3.613-1.047-4.258-3.06-7.373-5.244-2.489-2.683-4.804-3.873-6.256-7.185-.54-3.475-1.937-5.721-1.117-9.71.723-2.893 2.179-6.176.894-8.545-2.384 2.073-2.075 3.027-7.15 3.107-2.727 1.422-5.516.102-8.043-.777-4.107 1.19-2.607 3.194 0 4.661.389 2.815.894 4.988.894 8.545-4.057-.862-3.575-1.953-3.575-6.214-.911-2.287-2.99-2.282-5.362-3.107 0-2.4-.229-4.913.894-6.214 3.106-.675 2.125-2.192-.894-2.33-2.956-.514-4.36.225-5.362 3.107-2.388 1.332-6.416 3.445-8.937 5.438.822 3.573 2.567 3.786 6.256 4.661 2.274 1.633 6.369 3.157 10.278 4.467 0 2.4-.218 4.33-1.341 5.632-3.229-.702-3.141-2.283-6.033-4.078-2.771-.524-6.861-1.748-10.725-1.748.065 3.07-.253 9.059-2.905 13.206 3.221-.663 5.773-1.038 7.15-1.942 4.015-1.717 5.417-2.027 9.831-1.553 3.063.945 5.42 2.556 7.15 4.661.749 3.707 1.828 4.442 2.011 8.739l-1.341 10.681c-1.066 2.612-.171 4.977-.223 8.739 1.94-1.36 2.543-3.141 4.022-4.855 3.994 0 4.35-.41 4.469 3.107 1.657 2.057 3.84 5.433 4.469 8.545 2.659-.578 1.787-2.073 1.787-4.661 1.292-5.616 3.196-1.657 5.362.777.647 2.719 1.675 4.099 3.575 5.243 0-1.876.071-5.958 1.787-4.466 2.315 1.662 5.987 6.205 7.597 9.127.748-1.468.67-2.411.447-5.243 1.509-3.497 2.341.246 3.575 2.33 1.67 2.135 4.263 4.049 6.256 6.214 1.939 2.866.894-1.426.894-3.884 1.685 2.73 3.32 5.054 7.15 6.991.799 1.909.142-2.374.894-4.661 3.277 1.011 4.508 3.204 6.256 5.438.625 1.268 1.387 1.661 2.681 3.107 0-3.475-.257-5.133 3.575-3.884 1.582 2.751 4.082 3.486 7.15 5.438 1.665-1.809 2.227-4.373 3.575-5.438 2.27 2.277 2.491 4.277 6.256 5.438 2.548-.554 6.815-2.492 9.272-4.37zm6.815 3.397c2.498 0 2.51-1.844-2.234-.194-4.484.3-5.539 1.932-9.384 2.719-2.364 1.397-5.929 2.394-8.937 3.107-2.865 1.824-6.49 3.388-9.831 4.661-2.868 1.225-5.54 1.985-7.932 3.398-3.208.989-6.475 1.165-11.171 1.165h-25.024c-3.969 0-5.959.137-7.708-1.748-1.943-1.894-3.859-3.48-6.256-5.146-1.729-2.104-4.087-3.716-7.15-4.661-3.03-2.27-2.806.554-6.256 1.553-1.892 2.418-4.525 3.195-5.362 6.991 2.365 1.331 3.166 3.787 6.256 4.661 4.191.107 4.185 1.34.894 2.33-4.895 0-7.72-.241-10.725-2.33-2.496-1.705-2.359-3.439-4.469-4.661-4.041.703-4.4 2.591-6.256 5.438-2.726 1.382-2.681 2.741-2.681 6.215 2.827.819 7.498.777 11.618.777 2.499-1.086 7.811-1.435 11.618-1.554.545 3.67-.488 3.824-6.256 3.884-4.559 0-8.748-.362-11.618 1.554-1.371.975-1.95 2.542-2.681 4.661 2.383 1.224 2.207 2.227 6.256 2.331.235 3.616.854 5.463 4.469 4.661 3.105-1.278 5.298-2.293 7.15-4.661 2.356-.424 4.236-1.316 6.256 0-2.596 1.334-3.725 2.212.894 2.331 2.528 1.099 7.711.777 11.618.777 3.16 1.099 5.094 1.918 7.15 3.884 3.682-1.326 2.604-3.586 3.687-6.409-.505-1.949-2.938-3.242-3.687-6.797-2.21-1.921-.227-2.331 2.681-2.331 2.114 1.752 3.023 4.927 3.575 8.545 1.7 3.389 1.687 5.264 4.469 6.991 1.322.766.894-1.332.894-3.107.206-1.788.894-2.751.894-4.661 1.756 3.107 3.072 4.69 7.15 6.991 2.82-.741 3.735-2.069 6.256-3.107.802 3.807 2.986 4.494 7.15 5.438 2.489 2.163 1.86-1.428.894-3.107-2.21-2.445-3.442-2.33.894-2.33 3.412 1.8 6.234 1.95 8.937 4.661 2.65.477 3.554 1.887 5.362.777-1.423-3.557-2.891-3.9 2.681-3.107 3.488 2.231 4.636 2.896 8.937 3.107-.582-2.951-1.188-4.698-3.575-6.214 4.462.298 6.409 1.572 9.831 3.107 3.751.993 6.027 2.566 10.725 3.107 2.488-.541 2.374-2.597.894-3.884-2.006-2.11-5.421-2.334-8.043-3.884-4.608-.048-6.387-.849-9.831-1.554 3.128-.906 7.283-1.295 10.724-2.33 1.464-1.157 1.023-2.585 3.575-3.107 4.45-1.289 7.42-1.392 11.618-3.107 2.902-1.195 5.351-2.374 8.937-3.107 3.046-1.367 6.202-2.758 8.937-3.884 2.712-1.117 5.879-2.253 8.044-3.884-4.056-.531-5.512-1.554-10.725-1.554-2.487 0-5.026.293-6.256-.777.159-3.727 1.123-5.617 0-8.545-2.541-1.325-4.107-1.711-7.15 0-3.982.522-6.278 1.865-10.724 3.107-4.209.495-6.381 1.652-10.725 3.107-4.082 2.015-6.373 2.944-11.618 3.107-2.332 2.027-3.112.079-.894-2.33 1.969-1.982 3.334-2.331 7.15-2.331 2.391-1.413 6.538-2.646 9.831-3.884 1.194-1.557 3.055-1.806 4.469-3.107 0 0 2.085-.68 1.787-1.748zm3.128 33.791c1.526 0 9.375.939 12.288.388 4.069-1.485 6.996-1.42 9.607-3.69 2.787-1.417 5.449-2.264 8.937-3.884 4.007-1.206 6.706-2.237 8.937-4.661 3.738-1.3 4.595-2.262 8.937-2.33 2.516 1.279 6.387 2.057 8.937 3.107 1.915 2.379 5.018 4.013 9.831 4.661 2.376 2.066 3.675 2.244-1.787 2.33-3.424.402-7.515.947-10.725 1.554-3.979 0-5.36-.601-8.937-.777 2.284 1.816 5.499 3.428 7.15 5.438-2.501 1.63-4.352.201-6.256-.777-1.326-1.95-2.828-2.289-5.362-3.884 0 3.458.487 4.302 1.787 6.215-3.748.889-4.828 1.553-8.937.777-3.886-.362-5.87-1.197-8.043-2.33 0 2.161-.337 4.368.894 5.437h-12.512c-1.956-1.202-2.144-2.401-6.703-3.302 1.281 2.148.664 3.374 1.341 4.855-2.524.896-7.297-3.054-9.384-9.127zm70.809-15.567c-1.023 0-1.457 2.868-2.528 6.592 5.295.934 10.381-1.012 15.167 0 .681-1.122 4.043-1.364 6.319-2.197l8.847-3.295c1.063-3.764 3.118-5.504 6.004-8.514-5.96-1.793-3.032-1.729-7.267-3.57-3.473 2.053-6.486 4.671-8.847 7.69-5.237 1.821-9.589 3.044-17.695 3.296zm-164.649 22.753h-.447c1.249 0 .502-.12-.447 1.942-.632 1.099-.447 3.351-.447 5.049-.634 2.166.041 2.207 2.681 2.331 2.204-1.07 2.627-1.846 4.022-3.496l1.787-3.884c-.631-1.545-1.724-1.892-3.575-2.33-1.331 0-2.112.15-3.575.388zm132.102-105.413h.316c-.853 0-.42.018 1.264-.275 1.321-.383 2.912-.275 4.424-.275 1.535.049 2.627.214 3.476.824 1.303.412 2.174 1.566 3.16 2.472.459.997.939 1.89 1.896 2.472.657.761 1.267.824 2.844.824.336-1.121.683-2.19 1.58-2.746.963-.279 2.839-.414 3.792 0 .767.537.632 1.252.632 2.472-.864.788-1.135 1.287-1.58 2.746-.216 1.246-.632 1.694-.632 3.296-.523 1.06-.927 1.805-.948 3.296-.393 1.537-.695 1.904-1.896 2.746-1.288.53-1.713.867-2.528-.549l-.632-1.648c-.842-.632-.873-.989-2.212-1.099-1.321-.383-2.912-.275-4.424-.275-1.346-.176-2.32-.473-3.476-1.099-1.526-.459-2.135-.742-2.844-1.648-.521-.955-.886-1.57-.948-3.021.62-1.319 1.298-1.354 3.16-1.373l1.896-.549c-.272-1.47-.682-2.21-2.212-2.472-1.797-.058-2.384-.371-3.476-1.373-1.344-.404-.89-1.24-.632-2.746zm31.597 3.296l-.316.275c.793-.69.429-.353-1.264.824-.492.855-1.035 1.708-1.896 2.472-.435 1.169-1.062 1.814-1.896 2.746-.622.879-1.323 1.251-1.58 2.472-.357.931-.69 2.067-.948 3.021-.019 1.386-.316 2.44-.316 3.845l.632 2.472c.687-.88.929-2.173.948-3.57.816-.451 1.04-.824 2.528-.824.658.715 1.742 1.458 2.528 1.923.715.87 1.675 1.043 3.475 1.099 1.118.211 2.576.275 4.108.275 1.792.019 2.853.483 4.424.824 1.344.389 3.047.307 4.108 0 .716-.623 1.393-.893.316-1.648-.387-1.009-.019-2.184 0-3.57 1.204-.644 1.556-.709 1.58-2.472-.668-.553-.612-1.347-1.58-1.648-1.349-.32-1.699-.767-3.476-.824h-4.424c-1.351.159-2.416.532-4.108.549-1.699-.053-2.765-.401-3.792-.824 0-1.344-.026-2.654.316-3.845.953-.521 1.494-.872 1.58-2.197l-1.58 2.197c.953-.521 1.494-.872.632-3.57zm-135.236 85.061c.248 1.225 1.009 1.22 1.487 2.422.679.694 2.647 2.824 3.067 1.695.336-1.344.165-3.307-.204-4.752-.363-.79-2.584-2.366-2.863-2.971 0 0-1.824 2.144-1.487 3.607zm8.924-3.007c0 .091-.238 2.372.035 3.601.889 1.288 2.249 2.149 4.181 2.086 0-1.682.363-2.897-.501-3.975-1.137-.797-2.355-1.268-3.715-1.712zm7.191-1.035c-.112 1.962.054 2.626.409 3.859.074.615 2.142 2.061 2.751 2.763.905-1.197 1.822-2.417 1.041-3.701-.719-1.24-2.174-1.709-4.2-2.921zm-68.82-23.464c0 .119.046.696.112.971.189.43.31.786.447 1.262.25.326.393.829.559 1.165.162.297.364.678.67.971.246.467.536.739.782 1.068l.782.777c.431.248.716.626 1.229.874.373.371.542.567.782.874.434.103.705.194 1.341.194.52-.113 1.065-.228 1.564-.389.566-.187.951-.319 1.341-.582.362-.254.734-.606 1.117-.971.353-.351.598-.725.894-1.068 0-.478.075-.7-.335-.971-.234-.308-.613-.668-1.005-.971-.449-.423-.567-.586-1.005-.777-.348-.149-.837-.406-1.341-.583-.353-.225-.833-.466-1.341-.583-.614-.178-1.302-.27-2.011-.291-.582-.097-1.058-.229-1.564-.486-.503-.13-.905-.172-1.452-.291-.56 0-.988-.11-1.564-.194zm-12.288 18.934h-1.676c-.706.073-1.47.102-2.123.291-.679.108-1.238.351-1.899.486-.477.202-1.065.401-1.452.582-.316.387-.424.631-.447 1.165.175.347.321.566.782.68.344.209.905.354 1.341.485.342.276.899.516 1.229.777.409.097.725.275 1.005.486.534.116.946.194 1.564.194.684-.078 1.088-.349 1.676-.68.499-.395.807-.589 1.229-1.068v-1.359c-.119-.509-.438-.78-.559-1.165-.166-.096-.189-.769-.67-.874zm5.697 20.197h-.559c-.614.038-1.057.131-1.564.388-.497.122-.892.395-1.229.583-.443.348-.698.637-1.117.971-.187.302-.53.892-.782 1.165-.116.371-.416.761-.559 1.165-.394.4-.644.91-1.117 1.359l-.894 1.359c-.378.479-.671.968-1.005 1.457-.198.452-.335.884-.559 1.262-.049.399-.269.803-.112 1.068.591 0 1.166-.029 1.564-.194.636-.059 1.103-.373 1.676-.583.573-.202 1.062-.408 1.564-.777.604-.356 1.245-.639 1.899-.971.644-.349 1.275-.694 1.899-.971.524-.309 1.055-.547 1.564-.874.342-.196.873-.556 1.229-.874.446-.218.898-.653 1.229-1.068.39-.339.536-.701.559-1.262-.023-.569-.246-.903-.559-1.359-.235-.302-.547-.572-.894-.777-.419-.28-.813-.599-1.341-.68-.489 0-.311-.009-.894-.388zm10.054-87.196c-.502.243-.777.431-1.117.777-.564.321-.949.657-1.452 1.068-.112.243-.16.549 0 .874.365.15.652.332 1.005.486.28.385.589.637.894.971.397.512.764.639 1.229.971.501.209.699.466 1.117.874.485.406.935.731 1.341.971.373.342.727.545 1.229.971.292.35.638.681.782 1.068.294.261.474.768.782 1.068.098.328.322.853.447 1.165.162.503.297.575 1.005.582.714-.007.991-.219 1.564-.485.291-.268.807-.748 1.117-1.068.339-.328.794-.789 1.005-1.068.118-.307.112-.815.112-1.262-.257-.625-.447-1.071-.447-1.748-.072-.462-.316-.797-.559-1.262-.365-.481-.809-.968-1.117-1.456-.377-.271-.634-.557-1.005-.777-.501-.425-.845-.76-1.341-1.068-.453-.464-.948-.849-1.341-1.068-.466-.241-1.051-.433-1.452-.583-.455 0-3.253-.192-3.798 0zm-2.011 9.419c-.374.532-.569 1.038-.894 1.554-.111.515-.332.984-.559 1.456l-.447 1.262c-.109.441-.208.916-.335 1.359-.169.456-.372.866-.447 1.359-.175.293-.223.807-.223 1.262.077.74.326.396.894.097.517-.344.788-.486 1.341-.777.5-.29 1.032-.512 1.452-.777.552-.286 1.122-.5 1.676-.777.418-.196.774-.45 1.117-.68.203-.228.854-.794 1.117-.971.241-.308.471-.458.67-.971.211-.34.307-.605.335-1.068-.48-.183-.753-.345-1.117-.68-.53-.302-.854-.64-1.341-.777-.335-.271-.877-.516-1.117-.777-.455-.132-.33-.478-1.005-.486-.329 0-.88-.127-1.117.388zm-11.842-21.265h-.446.223.223c-.774 0-1.477-.059-2.123.194-.741.156-1.472.397-2.123.68-.642.161-1.212.382-1.787.68-.566.222-1.037.503-1.452.874-.538.278-1.063.629-1.564.971-.479.438-.749.727-1.005 1.262-.127.331-.112.885-.112 1.359 0 .533.76 2.862 1.229 4.078.372-.809.837-2.579 1.452-2.719.688-.353 1.19-.497 2.011-.583.711-.219 1.502-.433 2.234-.583.667-.129 1.259-.314 1.676-.486.403-.199.765-.421 1.229-.68.388-.191.697-.406 1.005-.68.359-.312.563-.764.67-1.165v-1.359c-.021-.515-.184-.899-.335-1.359-.633 0-.45.032-1.005-.486zm10.613-21.653c-.71-.244-1.486-.556-2.123-.874-.865-.148-1.726-.194-2.681-.194-.892-.213-1.366-.291-2.234-.291-.684-.124-1.403-.097-2.123-.097-.641 0-1.145-.014-1.676.194-.381.178-.966.458-1.341.68l-1.005.583c-.15.056-.359.17-.559.291.803 0 1.573-.032 2.346-.097.524.098 1.072.215 1.564.388.596.154 1.218.349 1.787.583.612.177 1.131.501 1.676.874.556.245.713.686 1.005.971.2.283.489.632.782 1.068.335.235.775.737 1.005 1.068.174.326.295.523.782.583.398-.352.732-.549 1.229-.777.524-.244 1.018-.488 1.564-.68.322-.172.724-.445 1.229-.68.379-.178.823-.425 1.117-.583.208-.302.211-.38.112-.777-.088-.229-1.753-1.823-2.458-2.233zm17.316-4.175c0 .052.281.181.559.388.53.318.781.47 1.229.874.627.303.669.535 1.005 1.068l.782 1.456c.185.609.421.956.447 1.554.197.465.326.966.447 1.456.271.318.38.955.67 1.262.554-.063.956-.194 1.564-.194.613 0 1.067-.046 1.452-.291.505-.052 1.079-.089 1.564-.194.656 0 .978.017 1.341-.291.542-.278.791-.587.894-1.165-.206-.415-.554-.687-.782-.971-.364-.231-.967-.689-1.229-.971-.28-.351-.619-.636-.894-.971-.472-.381-1.08-.739-1.452-1.068-.395-.194-.781-.346-1.341-.485-.55-.177-.986-.493-1.452-.68-.413-.256-.727-.413-1.229-.486-.451-.182-1.107-.319-1.452-.485h-1.564c-.278 0-.077-.015-.559.194zm-18.865 28.321c-.673.43-.977.491-1.106 1.236.084.801.49.805 1.264.961.643.19.932.275 1.738.275.389-.315.696-.361.948-.824.426-.299.426-.8 0-1.099-.144-.188-2.427-.638-2.844-.549zm34.592 5.94c-.336.372-.563.777-.917 1.159-.298.33-.513.589-.75.869-.23.386-.535.776-.75 1.159-.271.353-.501.711-.75 1.087-.195.445-.455.877-.667 1.232-.24.426-.327.798-.333 1.304.068.383.314.674.5.942.223.124.592.331.834.435.491-.015.665-.15 1.084-.29.36-.273.555-.372.834-.797.422-.324.708-.621 1.167-.942.377-.324.727-.522 1-.797.408-.342.645-.527 1-.869.19-.36.464-.61.75-.942.2-.384.481-.66.583-1.087.172-.444.348-.845.417-1.304 0-.354.007-.7-.083-1.014-.137-.401-.193-.536-.667-.652-.349-.159-.791-.322-1.084-.435-.329 0-1.929.625-2.167.942zm7.502 6.158c-.336.372-.563.777-.917 1.159-.298.33-.513.589-.75.869-.23.386-.535.776-.75 1.159-.271.353-.501.711-.75 1.087-.195.445-.455.877-.667 1.232-.24.426-.327.798-.333 1.304.068.383.314.674.5.942.223.124.592.331.834.435.491-.015.665-.15 1.084-.29.36-.273.555-.372.833-.797.422-.324.708-.621 1.167-.942.377-.324.727-.522 1-.797.408-.342.645-.527 1-.869.19-.36.464-.61.75-.942.2-.384.481-.66.584-1.087.172-.444.348-.845.417-1.304 0-.354.007-.7-.083-1.014-.137-.401-.193-.536-.667-.652-.349-.159-.791-.322-1.084-.435-.329 0-1.929.625-2.167.942zm8.502 5.289c-.336.372-.563.777-.917 1.159-.298.33-.513.589-.75.869-.23.386-.535.776-.75 1.159-.271.353-.501.711-.75 1.087-.195.445-.455.877-.667 1.232-.24.426-.327.798-.333 1.304.068.383.314.674.5.942.223.124.592.331.834.435.491-.015.665-.15 1.084-.29.36-.273.555-.372.833-.797.422-.324.708-.621 1.167-.942.377-.324.727-.522 1-.797.408-.342.645-.527 1-.869.19-.36.464-.61.75-.942.2-.384.481-.66.584-1.087.172-.444.348-.845.417-1.304 0-.354.007-.7-.083-1.014-.137-.401-.193-.536-.667-.652-.349-.159-.791-.322-1.084-.435-.329 0-1.93.625-2.167.942zm586.552 39.081h-.471m-.805-.58c2.699 2.008 1.106 2.467 2.22 3.039 1.529-.412 2.421-1.292 1.414-2.459 0-2.049-.343-3.467 1.414-2.049 2.939.216 3.526 1.068 4.244 3.279.224-.433 0-2.043 0-3.279 0-1.429-.418-2.594.943-1.229 1.182 1.837 2.213 3.973 3.772 5.328.712-1.771 1.125-3.019 1.414-4.918 2.013.7 1.886 1.695 1.886 4.098 1.182 1.228 3.423 1.128 5.187 1.639 2.109.141 3.625.41 6.13.41 2.061 0 4.796-.17 6.13.41 2.256 0 4.63-.161 6.601.41 2.796.54 2.939 1.101 4.715 2.869.892 1.576 1.383 2.677 1.414 4.918.087 2.035.663 3.393 1.414 4.918.158 1.923.424 3.932.943 5.738-.105 2.454-.591 2.748-2.829 3.279-2.233 0-3.012-.178-4.244-.82 0-2.036.057-3.375.943-4.508.42-1.678.913-2.757.943-4.918l-.943-4.918c-1.097-1.155-2.707-1.268-4.243-2.049-2.5-.288-3.435-1.03-5.187-1.639-2.171-.606-4.342-1.219-6.601-1.639-2.25-.14-4.197-.41-6.601-.41h-6.601c-2.286 0-4.461.095-6.13.41h-6.601c-2.108.327-4.256.41-6.601.41-2.107.327-4.256.41-6.601.41-1.67.484-3.707.727-5.658 1.23l-6.601.82c-2.106.741-4.467.955-6.601 1.639h-13.202c-2.71 0-3.676.537-6.13.82-1.397.738-4.183 1.485-6.13 2.049-2.134.331-4.422.594-6.601.82h-13.202c-2.419 0-4.28.338-6.601.41h-6.601c-1.951.565-4.529.605-6.601.82-2.412 0-4.222-.385-6.601-.41h-6.601c-2.412 0-4.223-.385-6.601-.41-1.955-.23-3.784-.674-6.13-.82-2.294-.498-3.9-.716-6.13-1.229-1.722-.326-4.124-1.047-5.658-1.639-1.543-.692-3.776-1.386-5.187-2.459-1.527-.996-3.366-2.583-4.715-3.689-1.336-1.708-2.846-2.862-4.243-3.689-2.483-1.362-3.74-2.291-5.658-4.098-1.406-1.222-2.354-2.069-3.3-3.279-1.285-.88-2.844-2.783-3.772-4.098-1.263-.907-2.198-1.972-3.3-3.689-.502-2.182-.638-1.478-.791-2.242 1.861-.247 3.642.212 5.034 1.422 2.725.169 3.869.766 5.658 2.049.098 2.305.866 2.758 1.414 4.508 2.159-.344 2.324-1.193 3.772-2.049 2.815.222 2.793.701 2.829 3.279.215 2.083 1.712 3.158 2.358 4.918 2.016.722 2.186-.011 2.829-1.23 2.469-1.252 3.933-1.097 4.715.82.79 1.86 1.427 3.453 1.886 4.918 2.935-.031 3.192.086 3.301-2.459 0-.99-.434-2.836.471-2.049 1.46 1.083 3.38 2.597 3.772 4.508.436 2.072 1.577 2.024 3.301 3.688 1.593-.673 2.891-2.052 4.243-1.229 1.832 0 2.571-.132 3.301.82 2.346 0 4.493.083 6.601.41.494-.831-.079-2.061-.943-2.869-.518-1.636-1.86-3.31-2.358-5.328 1.258.701 3.279 1.821 4.244 2.869 1.355.841 1.928 2.376 3.3 3.689 1.394 1.276 4.018 1.438 5.658 2.049-.043-2.077-.439-2.528-1.414-4.098-.119-.588-1.035-2.538 0-1.639 1.685 1.073 2.415 2.512 3.3 4.508.79.515 2.315.41 3.772.41 2.015.584 4.586.584 6.601 0 .659-.955.735-2.775 1.415-3.688.078-2.301.164-1.657 1.886-1.23 1.172 1.292 3.603 2.215 5.658 3.279 2.391.866 3.803 2.514 6.13 2.869 2.233 0 3.013-.178 4.244-.82.696-1.746.99-3.263 1.415-5.328.691.567 1.393 1.324 1.886 2.049 1.968.921 3.597 1.654 4.715 2.869 2.378 0 4.425-.185 6.601-.41 2.565 0 4.263-.554 6.601-.82h6.601c2.286 0 4.462.095 6.13.41 3.138-.248 1.99-.827 1.886-3.279.348-.195 1.928.101 3.3-.41.27-.528-.694-1.164-1.886-1.639-.696-1.21-1.696-2.659-2.829-3.688 1.49.526 1.863.971 3.301 1.229 1.694-.368.795-1.38-.472-1.639-2.299-1.011-3.564-1.105-4.715-2.869-2.098-1.17-2.179-2.144-2.829-3.688 1.501.629 3.526.851 4.715 1.23 1.642.634 3.546 1.66 5.187 2.049 1.15.891 3.151 1.635 4.244 2.459 1.167.221 4.464 1.014 2.358-.41-1.17-1.141-3.049-1.484-4.244-2.869-1.157-1.304-1.073-2.305 0-3.689 2.207.918 2.53 1.574 4.244 3.279.871 1.392 2.684 2.613 4.243 3.279 1.727 0 3.315-.046 2.829-.82.147-2.267.665-2.049 3.3-2.049 2.363.037 3.243.038 4.244 1.639 1.154 1.405 2.144 1.276 2.358 3.689 0 2.319 2.139-2.046 3.11-3.453 1.08 1.739.03 2.756-.281 4.272-1.311 1.14.868 2.514 1.081 2.699zm-306.15 47.71c-.279 0-1.154 1.187-1.886 2.459-1.043.951-2 2.487-3.301 3.279-.509 1.15.092.82 1.886.82 2.042-.592 4.161-.688 6.13-.82 1.265-.859 1.415-2.121 1.415-4.098-1.022-.381-2.657-1.031-4.244-1.639zm-18.389-11.475l-.471.41c1.183-1.028.612-.562-1.415 1.639-.777 1.426-1.322 2.343-1.415 4.508.723.514 1.282 1.345 2.358.41 1.683-1.015 2.326-2.014 3.772-2.869.089-1.555 1.091-1.956-.943-2.049-1.274 1.662-1.645-1.063-1.886-2.049zm26.877-34.426l-.472.41c1.07-.93.678-.481-1.886.41-.727 1.959.113 2.563 1.415 4.098 1.39.744 2.789 1.69 4.715 2.459 2.46-.524 2.357-.976 2.357-3.279-1.416-.757-2.715-1.515-3.772-2.869 0-1.145.146-.359-2.357-1.229zm-28.762 13.934c-.155 0-1.563.814-2.829 1.639-1.821.715-3.08 1.447-4.243 2.459 0 1.921-.164 2.681 1.414 3.279 2.548-.343 3.796-1.189 6.13-1.639 1.707-1.009 2.938-.831 3.772-3.278 0-1.941.441-2.4-1.886-2.459l1.886 2.459c0-1.941.441-2.4-4.243-2.459zm40.078-2.869c0 .725-.633 3.171 0 4.508 2.195.615 2.855.363 3.301-2.049-.19-1.486-1.246-1.431-3.301-2.459zm-9.902 26.229v1.639c.205 2.313 1.18 2.265 1.414 4.508.878.906.862 1.971 1.886 0 .882-1.757.943-3.015.943-5.328-1.842 0-2.186-.188-4.243-.82zm37.249-9.016c-.445 0-.268 1.048-.471 2.459-.514 1.669-1.136 3.294-1.886 4.508 2.615-.207 3.079-1.144 3.772-3.279 1.398-1.215-.198-2.367-1.415-3.688zm-9.902-.82c0 .562.027 3.734-.471 4.918-1.13 1.701-2.382 2.073-2.829 4.098.424 1.475 1.313.695 2.358 0 2.2-.838 2.518-1.168 3.301-2.869 1.098-1.155 1.384-2.332 1.414-4.508-1.536-1.092-.369-.965-3.772-1.639zm-9.43-2.459v6.557c-1.428.886-2.031 1.806-2.358 3.688 2.107-.698 4.265-1.899 5.187-2.869 1.46-.863 2.05-1.416 2.829-3.279-2.488-.556-3.618-2.386-5.658-4.098zm111.277-12.295h-.472c1.388 0 .553-.118-.943 2.049-1.29 1.608-1.725 2.301-2.829 4.098-.767 1.408-1.389 2.525 0 4.098 2.444-.599 3.345-1.778 4.716-3.279.39-1.463.915-2.919.943-4.918l-.943 4.918c.39-1.463.915-2.919-.472-6.967zm-50.452 19.262c-.878.081-4.138.383-5.658-.41h-6.601c-2.849 0-3.626.286-5.658 1.23-1.717.82-2.097 1.248-1.415 2.869 1.119 1.178 2.557 1.558 5.187 1.639 2.469 0 4.46-.198 6.13-.82l5.658-.82c2.238-.625 3.906-1.081 6.13-1.229h6.601c2.271-.376 4.57-.736 6.601-1.639 2.599-.162 3.928-.74 6.13-1.64 1.725-.409 3.226-1.026 4.715-1.639 1.887-.947 2.782-1.595 4.244-2.459 1.718-.767 4.101-1.036 5.187-2.049 1.656-.36 1.827-.703 1.886-2.459-1.561-.643-3.059-.82-5.658-.82-2.231-.347-3.549-.992-4.244.82-.522 2.539-.183 3.178-3.301 3.278-2.412 0-4.222.385-6.601.41-2.567 0-2.782-.218-2.829 2.049-1.407.752-2.72 1.262-4.715 1.639h-6.601c-2.929.094-2.794.318-2.829 2.869l2.829-2.869c-2.929.094-2.794.318-5.187 2.049zm-35.363-26.229h-.472c1.367 1.67 3.281 3.814 5.187 4.918 1.26.703 3.346 1.875 4.715 2.459 1.626.801 3.338 1.569 5.186 2.459 2.095.39 4.377.898 6.13 1.23 2.004.299 3.385 1.004 1.886-.82-1.174-1.531-2.318-2.412-4.243-2.869-1.423-1.105-4.236-2.043-5.658-3.279l-5.658-1.639c-2.07-1.254-3.825-1.753-7.073-2.459zm23.104-20.901c0 .214-1.548 1.075-2.829 2.049-1.649.637-3.762 1.456-4.715 2.459-.285.371.376.719 1.415.82 1.609.599 4.078 1.455 6.13 2.049 1.945.324 1.934 1.028 2.358 2.869-.115 2.699-.919 2.388-3.3 3.689-1.525.237-4.209.31-5.187.82 1.404.892 2.676 1.813 4.243 2.459 2.607.081 4.131.613 5.658 1.639 2.08.52 2.748 1.518 3.301 3.279 1.513 1.052 2.042 2.423 3.772 4.098 1.648 1.621 3.001 2.002 5.658.82 1.881-.221 3.727-.41 6.13-.41 2.307 0 4.558.034 6.601-.41 1.868-1.382 3.046-2.528 5.186-2.869 2.522-.924 3.304-.743 3.772-3.279-1.837-.15-1.97-.414-2.358-2.049 2.77-.464 3.628-.98 4.715-2.869-1.562-.752-3.73-1.308-5.187-2.459-1.019-.573-2.035-1.444-3.3-2.049 1.89-.548 3.909-.242 5.658.41 2.262.416 2.221.053 2.358-2.049-1.185-1.029-.096-1.207.943-.82 1.814 1.014 3.384.82 5.658.82 1.497-1.49 2.699-2.567 3.3-4.508 1.224-1.418-.364-1.81-1.886-2.869-1.871-.424-3.476-1.234-5.187-1.639-2.332.265-4.53.825-6.601 1.639-2.379.025-4.189.41-6.601.41h-6.601c-2.791-.287-5.151-.574-7.073-1.639-2.4-.373-3.592-.793-6.13-.82h-6.601c-1.254 0-1.798.165-3.3.41zm-184.361-14.753c1.051-.041 4.578-.41 7.072-.41h34.42c2.307 0 4.557.034 6.601-.41 1.707-.636 4.183-1.081 6.601-1.23 2.102-.544 4.862-.591 7.072-.82h30.176c3.15-.572 6.163-.794 9.43-.82 3.422 0 6.037-.266 8.959-.41h8.016c2.782-.228 5.503-.41 8.487-.41 3.7-.205 7.679-.293 11.316-.82 2.867-.073 5.534-.486 8.016-1.229 2.881 0 5.143-.387 8.016-.41 3.491 0 7.042.142 10.373-.41h11.316c3.19 0 5.856-.342 8.959-.41 2.433-.611 5.368-.743 8.016-.82 2.636-.705 6.004-.41 8.959-.41h7.544c2.231-.877 4.381-.82 7.073-.82h10.373c2.828-.065 5.901-.171 8.487-.82 2.176-.225 4.223-.41 6.601-.41 2.642-.205 4.853-.686 7.544-.82 2.789 0 5.241-.354 8.016-.41 3.355 0 6.2-.33 9.43-.41 2.545 0 5.276-.283 7.073-.82h7.073c3.29.03 6.073.41 9.43.41h7.073c2.87-.089 5.213-.555 8.016 0h8.487c2.741.498 5.599.41 8.487.41 2.516.154 4.853.41 7.544.41 2.79.445 5.581 1.055 8.487 1.23 3.18 0 5.923.239 8.958.41 2.172.723 4.103.822 6.601 1.23 2.687.134 5.329.378 8.016.82h7.073c2.397.372 5.108.543 7.544.82 3.278.072 6.863.141 9.902.82h7.544c3.063.266 6.153.41 9.43.41h7.544c2.572 0 4.621-.296 7.073-.41h8.016c2.109-.141 3.625-.41 6.13-.41 1.789-.338 4.168-.41 6.601-.41h6.601c2.307 0 4.557-.034 6.601.41 2.109.141 3.624.41 6.13.41 1.996-.305 3.844-1.345 5.187-2.049 1.997-.868 2.437-1.826 2.829-3.689.95-1.214 1.222-2.96.471-4.918-1.774-1.028-4.046-1.338-6.13-2.459-2.009-.811-4.482-1.822-6.13-2.459-2.525 0-4.342-.446-6.601-.82-2.564-.159-3.926-.662-6.13-1.229-1.67-.196-4.191-.395-5.658-.82h-6.601c-2.061 0-4.796-.17-6.13.41l-6.601.82c-2.309.502-5.098.351-7.544.82-2.155.197-3.996.41-6.601.41h-27.819c-2.072-.214-4.65-.254-6.601-.82h-48.093c-1.41-.613-4.276-.537-6.13 0h-28.762c-2.044.444-4.294.41-6.601.41-2.044.444-4.294.41-6.601.41h-6.601c-1.424.641-3.917.82-6.13.82-2.25.14-4.197.41-6.601.41h-6.601c-2.307 0-4.557-.034-6.601.41h-6.601c-2.307 0-4.558-.034-6.601.41h-6.601c-1.491.432-3.956.41-6.13.41h-13.674c-1.334.58-4.068.41-6.13.41-2.405 0-4.351.27-6.601.41-2.826.029-4.73.692-7.544.82h-20.275c-1.729-.268-4.086-.573-5.187-1.23.248-2.402 1.274-2.777 3.772-3.688 2.25-.14 4.196-.41 6.601-.41h34.42c2.379-.025 4.189-.41 6.601-.41 3.05 0 6.055.063 8.959-.41h52.338c1.881-.221 3.727-.41 6.13-.41 2.344-.27 3.153-.793 5.658-.82 1.334-.58 4.068-.41 6.13-.41h32.064c2.376.147 4.53.41 7.073.41h15.088c3.25 0 4.731-.213 7.544-1.639 2.237-.364 4.588-.41 7.072-.41h6.601c2.418 0 4.28.338 6.601.41h21.69c2.256 0 4.63.161 6.601-.41 2.214-.229 4.544-.612 6.601-1.229h7.073c2.397 0 4.971-.192 7.073.41h6.601c2.513.026 4.498.41 7.073.41 2.397 0 4.971-.199 7.073.41 2.557.159 3.687.741 6.13.82 1.272.553 4.223.701 6.13.82 2.403 0 4.248.189 6.13.41 2.469 0 4.46.198 6.13.82 2.018.901 3.417.977 5.187 2.049 1.883.446 2.794 1.274 4.244 2.049.206 1.016.732 1.234.943 2.459-.364-1.802-1.466-3.151-2.829-4.098-1.546-1.045-2.95-2.003-4.715-2.869-1.534-.534-3.292-1.054-4.715-1.639-2.232-.514-3.949-1.5-5.187-2.459-2-.235-3.609-.681-5.186-1.23-2.344-.509-3.927-1.202-6.601-1.229h-6.601c-2.255-.49-3.992-.82-6.601-.82h-7.073c-2.174 0-4.638-.022-6.13.41-2.179.496-4.126.82-6.601.82-2.379.025-4.189.41-6.601.41-2.572 0-4.621.296-7.073.41-2.738 0-4.897.34-7.544.41-2.54.152-4.83.41-7.544.41-2.598 0-5.228-.093-7.544.41h-15.088c-2.798 0-5.234-.386-8.016-.41h-21.218c-2.543 0-4.696-.262-7.073-.41h-35.364c-2.378 0-4.425.185-6.601.41-2.416 0-4.934-.116-7.073.41h-48.565c-2.174 0-4.638.022-6.13-.41.38-2.191 1.531-2.278 2.829-3.689 1.576-.478 3.538-1.303 5.658-2.049h6.601c1.245.541 4.302.631 6.13.82h6.601c2.174 0 4.638.022 6.13-.41 2.374-.688.815-1.67 0-3.279-1.175-1.178-1.415-2.185-1.415-4.508.822-1.787.606-1.631 2.829-.82 1.695 1.497 3.057 2.176 3.772 4.098.879.721 1.178 1.913 1.886 1.639v-5.738c-.402-1.167-.928-2.062-.471-2.459 1.187.737 2.569 2.354 4.244 3.279.837.951 1.372 1.22 1.886 2.049-.228-1.666-.702-4.287-.471-4.918 1.785 1.597 3.335 2.505 5.187 3.688 1.884 1.49 3.628 2.134 4.715 3.279 1.542.867 1.829 1.912 1.886-.82v-4.098c1.153 1.696 1.953 2.349 4.244 2.869 1.427 1.215 3.023 1.434 4.715 2.459 1.797.885 2.447 1.752 4.715 2.049h6.601c1.694 0 3.714.112 4.715-.41-1.959-.619-2.965-1.491-4.243-2.869-.961-1.044-1.516-1.961-1.415-2.049 2.329.238 5.042.792 6.601 1.639 1.399.061 2.097.453 3.301.82-1.175-2.018-1.541-2.924-3.301-4.098v-3.688c2.169 1.005 4.615 2.318 6.601 2.869 2.218 1.162 3.375 1.925 5.658 2.459 1.128.85 2.7 1.602 4.243 2.049.422-.832-.668-2.098-1.415-3.279-.375-1.087-.471-2.007-.471-3.279 1.445 1.166 3.351 2.368 4.715 3.279 2.155 1.217 3.159 1.802 5.186 3.279 1.647 1.613 2.739 2.495 5.187 2.869h6.601c2.418 0 4.28.338 6.601.41 2.558-.222.284-1.014-.943-1.639-.786-1.005-2.45-2.57-3.3-3.688-.986-.506-1.832-1.049-1.415-1.639 2.387.39 4.871.933 7.073 1.639.447.722 1.296 1.151 2.357 1.639-.854-1.092-1.606-2.868-1.886-4.508-.837-1.243-1.025-2.656-.472-4.098h6.601c1.507.959 3.12 1.597 4.243 2.869 1.929 1.591 3.392 3.175 5.187 4.508 1.435 1.871-.545-2.01-.943-2.459-.249-1.227-1.091-1.546.943-1.639 1.401.942 3.424 1.747 4.715 2.869 2.042.778 3.103 1.627 5.187 2.459.944.993 2.817 1.85 4.244 2.459h6.601c1.492.432 3.956.41 6.13.41 2.891-.046 1.99.014 1.414-1.639-1.256-1.07-2.653-2.48-3.3-4.098-.932-.983-2.389-2.647 0-1.229 1.685.673 4.189 1.486 5.187 2.459 1.715.307 2.561 1.233 3.3.82-.03-2.146-.37-3.334-.943-5.328l-.943-2.869c1.131.876 3.539 2.321 5.658 2.869.965.653 1.307.817 2.358 1.639-.705-1.294-1.416-2.599-1.886-4.098-.948-1.739-1.141-1.628 1.415-.82 1.885.908 3.716 1.628 4.715 2.869 1.796 1.693 2.548 2.888 4.244 4.098.582.857 1.206 1.593 1.886 1.229v-5.328c1.155 1.506 2.862 2.563 4.715 3.279 2.161.674 3.267 1.594 5.187 2.049 1.225 1.535 2.48 2.284 4.715 3.689 1.881.221 3.727.41 6.13.41 2.418 0 4.28.338 6.601.41 1.646.477 3.529.751 5.658.82h6.601c2.4.077 3.667.565 6.13.82 2.443.079 3.572.661 6.13.82 1.363.656 4.154.923 6.13 1.23 1.417 1.069 3.344 1.618 5.658 2.049 1.645.572 3.118 1.263 4.715 2.049 1.406 1.292 3.102 2.075 4.715 2.869 1.109 1.421 2.182 2.164 3.772 3.279 1.702.701 2.48 1.201 5.187 1.229 2.161-.47 4.083-.683 6.13-.82 1.881-.221 3.727-.41 6.13-.41 1.797 0 4.101-.157 5.187.41 1.455.599 2.214.82 3.772.82 3.063 1.555 4.608 2.285 7.073 2.869h6.601c1.557.48 3.463.904 5.187 1.23 2.583.866 3.747.815 4.243 3.279-.252 2.444-1.337 2.565-2.829 3.688-1.614.795-3.512 1.914-5.658 2.869-1.457.862-2.655 1.203-5.187 1.23-2.286 0-4.462-.095-6.13-.41-1.377-.456-4.399-.975-5.658-1.639-2.672-.308-3.365-1.152-5.187-2.049-1.157-1.275-3.324-2.241-5.187-3.279-2.564 0-3.813-.335-6.129-.41-1.427-.465-3.742-.312-4.715-.82 1.616-1.229 3.492-1.612 6.13-1.639 2.382.37 3.917.683 5.187 1.639 1.534.16 3.437.413 4.715.82.864 1.161 2.153 1.465 4.244 2.049 1.397.737 4.183 1.485 6.13 2.049 1.93.365 3.173.794 5.658.82 1.985-.873 3.731-1.126 5.187-2.459-1.743-.189-2.18-1.094-2.829-2.049-1.535-.908-1.863-1.737-4.244-2.049-2.707-.028-3.485-.529-5.187-1.23-1.901-.359-3.939-.138-6.13-.41-2.194-.545-4.067-.82-6.601-.82-2.026-1.258-2.54-.378-4.715 0-2.111.141-3.86.467-6.13.82-1.009 1.061-2.47 1.721-4.243 2.459-.261 1.678-.59 3.557-1.415 5.328-.613 1.797-1.002 3.27-1.414 4.918-1.11 1.113-1.671 2.245-2.829 3.689-1.511 1.628-2.316 1.684-4.715 2.869-2.245.883-3.332 1.985-5.658 2.459-2.236 1.064-3.98 1.513-6.13 2.459-2.251.489-4.133 1.076-6.601 1.229-2.317.075-3.565.41-6.13.41-2.321-.072-4.183-.41-6.601-.41-2.108-.327-4.256-.41-6.602-.41-2.176-.225-4.223-.41-6.601-.41-2.704-.028-4.19-.41-7.073-.41-2.25-.14-4.196-.41-6.601-.41l-6.601-.82c-2.207-.48-4.593-.794-7.073-.82h-26.876c-2.174 0-4.638.022-6.13-.41-2.174 0-4.638.022-6.13-.41-2.535-.082-3.86-.676-6.13-1.639-2.581-.08-4.126-.47-6.13-1.23-2.07-.243-3.452-.672-5.658-.82h-19.803c-1.971-.571-4.345-.41-6.601-.41-2.176-.225-4.223-.41-6.601-.41-1.405-.611-3.699-.757-5.658-.82-1.582-.933-3.554-1-5.658-1.639h-6.601c-2.957 0 1.594.301 2.358.41 1.741.356 3.55 1.03 5.186 1.639 2.105.633 3.478 1.147 6.13 1.229 2.633 0 5.151.081 7.544.41 2.404 0 4.351.27 6.601.41 2.403 0 4.249.189 6.13.41 1.623.605 3.875 1.383 6.129 1.639 1.993.663 3.792.877 5.658 1.23 2.394.276 3.908.858 6.13 1.639 2.346.388 4.299.822 6.129 1.639 2.271.235 4.277.675 6.601.82 2.562.159 4.243.775 6.13 1.639 2.436.252 3.861.707 6.13 1.229 2.589 0 4.612.333 7.072.41 2.177.361 4.449.762 6.601 1.23 2.212.137 4.524.368 6.601.82 1.992.234 3.689.744 6.13.82 1.881.221 3.727.41 6.13.41 2.321.072 4.183.41 6.601.41 2.392.148 4.504.41 7.073.41 2.615 0 5.068-.021 7.544.41 3.163.118 5.797.955 8.487-.41 1.784-.517 3.882-.233 6.13 0 1.971.571 4.345.41 6.601.41 2.272-.761 3.695-1.11 6.13-1.639 2.092-1.084 4.811-1.668 6.601-2.459 2.413-.375 3.924-.803 6.13-1.23 1.827-.215 4.097-.712 5.658-1.23 2.257-.35 4.148-.804 5.658-1.639 2.13-.279 3.085-.963 5.658-1.229 1.946.8 3.937 2.539 5.658 3.688.549 1.336 1.871 1.467 2.829 2.869 1.52.916 2.863 2.149 3.772 3.279 1.843.348 3.412.867 5.187 1.23 1.312 0 2.651-.154 3.301.41-1.485.795-2.58 2.019-4.715 3.279-1.044 1.335-1.999 1.619-2.357 3.688.775.471 1.986-.42 3.301-.82 1.43-.961 3.231-1.394 4.243-2.459.651.283-.244.439-.472 1.23-1.121 1.398-2.059 2.737-2.829 4.098-.657 1.818-1.677 2.652.943 2.049 2.118-1.273 3.343-1.818 5.187-2.459.259.225-.275 1.059-.943 1.639-1.013 2.098-2 2.626-3.301 4.098-1.673.824-2.841 1.678-3.772 2.869-1.699 1.641-2.558 2.31.472 1.639 2.622-1.082 4.657-2.277 7.073-2.869.479-.416 2.861-.41 2.358-.41-.652 2.164-2.096 3.784-3.301 5.738-1.454.859-2.16 1.739-3.772 2.869-2.159 1.605-3.157 2.434-5.187 3.279-.986 1.071-2.704 1.855-4.243 2.459 2.073-.33 3.64-1.584 6.13-2.459 2.286-.568 3.394-.684 5.186 0 2.217 0 4.268.086 5.658.82-1.481 1.195-4.064 2.359-6.13 3.279-1.155 1.224-3.179 1.855-5.187 2.459-1.48.633-3.827 1.016-5.186 1.639-3.816 0 1.066-.078 2.357-.41 2.206-.109 3.747-.852 4.715.41 1.847.349 4.029.736 5.658 1.639-2.197.443-3.267 1.715-5.187 2.049-2.684 0-3.914.249-6.13.82-2.524.026-4.114.583-6.13.82-1.072.28-2.292.381-3.301.82 2.412 0 4.223.385 6.601.41.773.895 1.807 1.667 2.829 2.869 1.124 1.2 2.312 1.594 3.301 2.869-2.13.279-3.085.963-5.658 1.229-2.475.026-3.571.41-6.13.41h-5.658c2.153 0 2.948-.356 3.772 1.23 1.021 1.317 1.397 2.342.943 3.689-2.599 0-4.097-.177-5.658-.82-1.416-.061-2.299-.41-3.772-.41 1.791.883 2.661 2.356 3.3 4.098.645 2.242.669 3.374-1.414 4.098-2.389-.65-3.77-1.629-6.13-2.459-2.153-.059-5.158-.192-6.601-.82-2.403-.589-3.393-2.026-5.187-3.279-1.111-.233-2.97-.929-1.414-1.229.573 1.957 1.085 3.536 2.357 4.918 0 1.832.249 1.995-1.886 2.049-1.217-1.396-3.555-3.063-5.187-4.099-2.096-.998-4.397-1.683-6.601-2.459-2.289-.689-3.475-1.278-5.187-2.459-.399-.607-1.506-.973-2.357-1.639 1.454 1.287 2.155 3.174 3.772 4.508.435 1.96 1.001 3.263 1.415 4.918-.351 1.219-1.258.82-2.829.82-2.323-.673-3.8-1.483-6.13-1.639-1.519 1.105-1.811 2.644-4.244 3.689-1.312 0-2.651.154-3.3-.41-.03-2.151-.471-3.104-.471-5.328 0-1.562.18-3.564-.471-4.508-1.58.04-2.454.2-3.301.82-.69 1.171-.943 2.274-.943 4.098-1.231.642-2.011.82-4.244.82-1.736-.503-3.959-.337-6.13 0-3.176-.133-3.218-.78-3.772-3.279-.964-2.07-1.822-3.225-3.301-4.099-1.663-.939.145-1.154 1.415-1.639 2.033-.77 3.363-1.076 5.658-1.23 2.564 0 3.813-.335 6.13-.41 1.401 0-.324-.381-1.415-1.229-2.077-.451-4.389-.682-6.601-.82-2.249.51-3.237 1.042-4.244 2.869-1.266 1.205-2.064 2.754-4.244 3.688-1.328.693-2.917.512-3.772-.41-1.862-1.306-2.054-1.826-2.829-4.099v-5.737c0-2.089.217-3.693.472-5.328.248-1.794.08-2.307 2.358-2.459 2.531.079 4.415.529 6.601 1.23 1.292.763 3.157 2.081 5.187 3.278 2.237.718 3.967 1.202 6.601 1.229 2.123 0 4.283.126 6.13-.41.585-1.39.912-2.331-.943-2.869-.656-1.204-.734-2.398-2.357-2.869-2.563-.079-4.346-.623-5.658-1.639-2.487-.937-.386-.961 1.414-1.23 2.59-.302 4.561-.455 6.13-1.639 2.225-.954 2.803-1.91 3.772-3.279 1.535-1.201 1.886-.755 1.886 1.229 0 2.26.203 3.562.943 4.918 2.078 1.666 2.549 2.377 4.715 3.279 1.165.858 3.714.999 5.187 1.639 2.174 0 4.638.022 6.13-.41 1.517-.66 2.814-1.556 4.243-2.869.976-1.323 2.207-2.207 2.829-4.098 1.06-.743 1.269-2.124.471-3.279-.355-2.046-1.074-2.146-2.829-2.869-1.406-.831-2.558-1.469-4.715-1.639-1.327-.978-3.082-1.23-5.658-1.23-2.4-.077-3.667-.565-6.13-.82h-6.601c-2.505 0-4.021-.269-6.13-.41h-6.601c-2.453.457-3.835 1.196-6.13 1.639-2.154.468-4.203.795-6.601.82-2.871 0-5.237-.298-8.016-.41-2.151.334-4.481.385-5.658 1.23-1.635.805-3.055 1.724-5.187 2.049-1.224.879-3.154 1.116-5.187 1.639-2.522.287-4.46 1.027-7.073 1.23-2.294.498-3.661.794-6.13.82-2.321.072-4.183.41-6.601.41-2.165.651-3.438.901-5.658 1.639-2.029.441-4.532.499-6.601.82-2.174 0-4.638-.022-6.13.41h-6.601c-2.443-.151-4.679-.575-7.073-.82-1.931-.227-4.092-.513-6.13-1.23-1.799-.426-3.055-.979-5.187-1.23h-6.601c-2.321-.072-4.183-.41-6.601-.41h-13.202c-2.146-.645-3.167-1.226-5.187-1.639-1.186-.919-3.593-1.536-5.187-2.459-1.918-.392-3.285-1.197-5.658-1.639-1.684-1.02-3.011-1.437-4.244-2.459-1.815-.756-3.287-1.681-4.243-2.869-1.295-.765-2.623-2.157-3.772-3.688-1.07-1.019-2.528-2.543-3.772-3.279-.954-1.135-2.401-2.649-3.301-4.098-.77-1.362-1.708-2.7-2.829-4.098-1.584-1.355-2.427-2.853-3.772-3.689-1.277-1.398-2.541-2.679-4.244-3.688-1.114-1.747-3.376-2.934-4.715-4.098-2.195-.66-3.246-1.451-5.658-1.639h-6.601c-2.379-.025-4.189-.41-6.601-.41-1.383-.818-3.187-.82-5.658-.82-2.179.474-4.623.41-7.073.41-1.974.572-4.584.381-6.601.82-.34.541.793 1.102 2.358 1.229 1.385.989 3.621 1.678 5.187 2.049 1.693.522 3.18.82 5.658.82h6.601c2.641.082 3.658.74 6.13.82 2.352.511 4.473.626 6.601 1.639 2.014.606 3.771 1.526 5.658 2.049 1.427 1.265 2.326 1.554 2.829 3.689.811 1.174.576 3.07-.471 4.098-.534 1.7-1.396 2.459-2.358 3.688-.739 1.357-.943 2.659-.943 4.918 0 2.26.017 3.836 1.415 4.918.964 1.232 2.226 2.063 4.244 2.869 2.075.623 4.514.625 6.601 1.23 2.927.231 2.358 1.108 2.358 3.688.404 2.271 1.381 2.919 1.414 5.328 0 2.229-.386 3.314-.472 5.328 0 2.052.47 3.142-1.415 3.688-1.383.818-3.187.82-5.658.82-2.108.327-4.255.41-6.601.41 1.466 1.897 3.505 3.632 2.358 5.328-3.058-.095-3.495-.838-5.658-2.049-1.111-.657-3.287-.816-4.715-1.23 1.547 1.25 3.536 2.514 4.244 4.508.927.895-.212 1.455-1.414 1.639h-6.601c-2.414 0-4.487-.276-6.13-.82-.513-.191-3.059-1.268-.943-.41.988 1.378 1.554 3.278 1.886 4.918 1.166 1.014.119 1.23-1.415 1.23-2.605 0-4.373-.551-6.13-1.23-.828-.679-1.312-1.451-1.886-1.229.752 1.162-.23 2.309-1.414 3.279-.866 1.163-1.484 1.796-3.772 2.049-1.315-1.166-2.741-1.784-3.772-2.869-1.725-.353-3.12-.793-4.244-1.639 1.222.856 1.017 1.982.472 3.279-.781 1.502-1.253 1.229-3.301 1.229-1.223-.664-3.656-1.852-4.715-2.459 1.272.892 1.273 2.387 0 3.279-1.352.823-2.289-.3-3.301-.82-1.085-.84-3.4-1.898-4.715-2.459-.468-.406-1.847-1.287-1.415-.409 0 1.78-.012 3.72-.471 4.918-1.482 1.848-1.364 2.242-3.772 1.23-1.139-1.56-2.582-2.87-4.244-3.689-1.289-.413-2.062-1.076-2.358-.819 0 2.468-.439 3.13-1.415 4.508-2.795 0-4.087-.462-6.13-1.23-2.062-.849-1.567-1.12-1.415 1.23-.757.877-1.256 2.365-1.886 3.279-1.36 1.418-2.076 1.621-4.244.41-1.168-.671-3.074-2.185-4.244-3.279-.744-1.54-1.1-2.298-2.829-3.279 1.06.743 1.268 2.124.471 3.279-1.582.809-2.363-.264-4.243-.82-1.521-.491-2.372-1.162-3.301-1.639 1.066.747 1.204 2.389 1.415 4.098.312 1.516.361 1.23-1.886 1.23-1.685-.4-3.517-.953-5.658-1.639-2.291-.836-3.91-1.758-4.715-3.689-.833-1.277-2.446-2.973-3.301-4.098-1.128-1.121-1.823-2.691-2.358-1.23-1.134.986-2.961 3.031-3.772 4.098-1.367.808-2.19 1.856-3.301 2.869-.757 1.017-1.645 2.154-2.829 1.639-1.205-1.845-1.898-2.783-2.829-4.099-2.019-1.68-1.946-2.65-4.715-2.869-2.061 0-4.796.17-6.13-.409.65-1.745 1.585-2.708 2.829-4.099.941-2.147 1.438-3.348.943-5.328-2.539.17-3.446.804-4.715 2.459-1.395 1.503-1.679 1.964-4.244 2.459-.814.424-1.901-.492-2.358-1.23-1.154-.877-.943-1.34-.943-2.869-1.72-.708-3.176-1.308-4.715-3.278-.27-1.369-.83-2.727 0-3.689 2.046.24 3.806.917 6.129 1.23 2.403 0 4.249.189 6.13.41 2.559 0 3.655.384 6.13.41 2.603-.206 3.064-.606 3.3-2.869-.113-2.641-.796-2.457-2.829-3.688-2.495-.542-3.394-1.201-6.13-1.23h-6.601c-2.039-.339-1.845-.891-1.886-2.869.031-2.25.646-3.159.943-5.328 1.106-1.772.948-2.59 3.3-2.049 1.578.479 3.877 1.1 5.187 1.639 1.621.667 2.839 1.178 4.715 2.049 1.527.59 3.885 1.513 5.186 2.049 1.202 1.417 1.734 2.508 3.301 3.688 1.326.507 2.375.896 3.772.41-.035-2.504-.77-2.839-1.414-4.918-1.289-.84-1.745-1.829-.943-3.688 1.229-.748 2.481-2.231 3.301-3.279 1.477-.428 4.248-.627 5.658-1.23 2.238-.625 3.906-1.081 6.13-1.23 0 2.09.311 3.782.472 5.738.513 1.702.905 3.998 1.414 5.328 1.243.892 2.114 2.334 3.772 3.688 1.925 1.235 4.439 1.971 5.658 2.869 1.775.363 3.343.881 5.187 1.23 2.359.366 3.786.744 6.13.819 2.043.212 3.898.41 6.13.41 1.334-.58 4.068-.41 6.13-.41 2.599 0 4.097-.177 5.658-.819 1.505-.675 3.605-1.252 4.715-2.049 1.742-.356 3.55-1.03 5.187-1.639.488-.849-1.318-.039-2.829 0l-4.715-1.639c-1.352-.819-4.025-1.362-5.187-2.049-2.305-.445-3.674-1.499-5.658-2.049-1.247-.966-2.892-1.764-4.715-2.459-1.619-1.031-3.277-1.634-4.243-2.869-1.174-1.796-1.659-2.989-2.358-4.508-.65-1.977-1.264-3.67-.471-5.738l1.886-4.098c1.299-1.621 3.208-2.142 4.715-3.279 1.837-.417 3.584-1.33 5.187-2.049 1.572-.647 2.97-1.306 5.187-2.049.548-.582 1.718-.916 2.358-1.639h-6.601c-2.345 0-4.493-.083-6.601-.41h-6.601c-2.256 0-4.63-.161-6.601.41-2.632 0-4.105.511-6.13.82-1.471.907-3.557 1.375-5.658 2.049-1.947.449-4.209.6-5.658 1.23-2.561.026-4.497.293-6.601 1.23-2.384.799-3.429 1.378-5.658 2.049-1.355.449-4.403 1.036-5.658 1.639-2.332.265-4.53.825-6.601 1.639-1.918.455-3.011 1.017-4.715 2.049-1.685.4-3.518.953-5.658 1.639-2.213.412-4.526.909-6.601 1.639-1.877.384-3.231.978-5.658 1.229-1.357.653-4.179 1.276-6.13 1.639-2.125 1.16-3.064 1.65-5.187 2.459-1.408.947-3.005 1.644-4.715 2.049-1.408.947-3.005 1.644-4.715 2.049-1.696.491-3.326.795-5.658.82-2.075.73-4.388 1.227-6.601 1.639-2.219.62-4.454 1.272-6.601 2.049-2.37.442-4.277 1.201-6.13 2.049-1.859.422-3.76 1.37-6.13 1.639-2.085.626-4.191.82-6.601.82-1.245.541-4.302.631-6.13.82-2.345 0-4.493-.083-6.601-.41-2.096-.033-3.023-.23-4.244-1.23-.561-1.065-.943-1.55-.943-3.279 1.056-.834 2.005-2.425 2.829-3.689 1.803-.363 3.664-.82 6.13-.82h6.601c2.15-.334 4.264-.601 6.13-.82 2.208-.343 4.458-.742 6.601-1.229 2.44-.253 4.687-.822 7.072-1.23 1.538-.509 3.899-1.109 5.187-1.639 2.377-.443 4.083-1.024 6.13-1.639 2.151-.415 3.829-.73 6.13-1.229 2.256 0 4.63.161 6.601-.41 2.595-.027 3.882-.346 6.13-1.23 2.116-.249 3.468-.868 5.186-1.639 1.516-.527 3.383-1.276 5.187-1.639 2.036-1.112 3.653-1.434 6.13-2.049 1.984-.554 4.539-1.157 6.13-1.639 2.332-.391 3.727-.857 6.13-1.23 1.318-.696 4.092-1.324 5.658-1.639 2.274-.439 3.477-.973 5.658-1.229 1.456-.542 4.21-1.49 5.658-2.049 2.4-.67 4.032-1.013 6.13-2.049 2.455-.025 4.356-.471 6.601-.82 1.934-.727 3.501-1.386 5.658-1.639 2.067-.476 3.993-.747 5.658-1.23 2.272-.235 4.277-.675 6.601-.82 2.379-.025 4.189-.41 6.601-.41 1.853-.379 3.306-1.213 5.187-1.639.788-1.112.852-.878-.943-.41h-6.601c-1.595-.455-4.303-.41-6.601-.41-2.458 0-4.889-.065-7.073.41-2.455.025-4.357.471-6.601.82-1.662.578-3.161 1.03-5.187 1.639-2.023.767-3.485.82-6.13.82h-6.601c-2.303 0-3.396.151-4.715 1.23 1.587.92.622 1.953-1.415 2.459-.605-.478-.868-1.596-1.414-2.459-.346 2.022-.992 3.293-3.3 3.689-1.783-1.107-1.082-2.061-3.301-1.639-1.775.85-4.261 2.51-6.13 3.279-2.209-.056-2.17-.557-2.358-2.459-.577-.501-.904 1.045-1.886 2.049-.509 1.264-.96 2.229-2.358 2.869-.966-.84-1.528-1.423-1.886-2.459-1.025 1.651-2.028 3.2-4.244 4.508 0-1.193-.18-1.197-.943-2.049-1.183 1.479-2.806 3.086-4.715 4.508-1.505.291-.594-.041-1.414-1.229 0-.909.253-4.663-.471-2.459-1.225 1.768-1.925 3.508-3.301 4.508-.97 1.045-2.481 1.174-3.772.82-.401-.87-.756-2.189-1.415-2.869-1.305 1.276-3.455 3.567-4.715 4.508-.104-2.531-.453-3.859-3.301-3.279-2.338 1.185-3.349 2.156-5.658 2.459-1.382.45-.97-.824-1.886-2.049-.227-1.12-.523-1.853-1.415-.82-1.606.968-2.387 2.425-4.715 3.279-.584-1.129-1.414-2.106-1.886-3.279-1.279 1.867-2.743 3.684-4.243 4.918-1.85-.191-4.491-.173-5.187-.41-.196-1.422-.471-2.328-.471-4.098-.951 1.653-2.641 3.417-4.244 5.328-1.309 1.422-1.917-.063-3.3-.82 0-1.265-.272-1.477-.472-2.459-1.398 1.822-2.839 3.614-3.772 5.328-2.467 0-4.372.104-5.658-.82-1.354-.973-1.792-2.222-1.886-4.508l1.886 4.508c-1.354-.973-1.792-2.222-1.886-4.508v-.41c-.219 2.283-1.401 3.623-2.358 4.918-1.799.34-2.595.911-4.244.41-.499-1.591-.943-2.585-.943-4.918l.943 4.918c-.499-1.591-.943-2.585-.943-4.918v-.41c-1.416 1.659-2.872 2.598-5.187 3.689-1.919 0-3.925-.009-5.187-.41-1.089-1.577-.842-1.51.943-3.279 1.852-.987 3.33-1.687 3.772-3.688.879-1.019.943-2.216.943-4.098-2.041-.614-3.537-.98-5.658-1.229-1.923-.216-1.415-.754-1.415-2.459.993-.882 3.008-3.093 3.772-4.098 1.092-1.376.762-1.59-.943-2.459-.838-1.071-1.838-2.285-2.829-3.279-.3-1.199-.761-2.586 0-3.689 2.71-.505 3.968-1.035 6.601 0 2.157.067 4.603.377 6.13.82 2.321.072 4.183.41 6.601.41h27.819c3.196 0 6.382.066 9.43-.41h42.909c2.573-.077 4.909-.41 7.544-.41 2.044-.444 4.294-.41 6.601-.41 2.412 0 4.222-.385 6.601-.41 2.739-.274 5.355-.538 8.016-1.23 2.25-.14 4.196-.41 6.601-.41h6.601c2.41 0 4.516-.194 6.601-.82 2.589 0 4.612-.333 7.073-.41 2.244-.575 5.189-.576 7.544-.82 2.661-.165 5.154-.41 8.016-.41 2.044-.444 4.294-.41 6.601-.41 2.176-.225 4.223-.41 6.601-.41 2.25-.14 4.196-.41 6.601-.41 2.597-.121 4.801-.41 7.544-.41 2.408-.334 4.892-.41 7.544-.41 3.047 0 6.191.071 8.959-.41h7.073c2.459-.263 4.877-.41 7.544-.41 2.386-.185 4.771-.462 7.073-.82 1.75-.331 3.997-.877 6.13-1.23 2.376-.369 4.504-.76 7.072-.82 2.56 0 3.655-.384 6.13-.41 2.305-.072 4.485-.36 6.601-.82 2.108-.141 3.624-.41 6.13-.41h2.829c-1.971-.571-4.345-.41-6.601-.41-2.345 0-4.493.083-6.601.41-2.412 0-4.222.385-6.601.41-2.343.075-3.771.454-6.13.82-2.504.078-4.556.587-7.073.82-2.627 0-4.917.39-7.544.41h-13.202c-2.642.345-5.242.41-8.016.41h-7.544c-2.379.356-4.914.41-7.544.41h-7.544c-2.448.488-4.955.41-7.544.41-2.521.155-4.845.41-7.544.41-2.379.025-4.189.41-6.601.41-1.959.567-4.369.613-6.13.82-2.403 0-4.248.189-6.13.41-2.565 0-4.633.281-7.073.41-2.642 0-5.16.04-7.544.41-2.419 0-4.28.338-6.601.41-2.412 0-4.222.385-6.601.41h-13.202c-1.992.234-3.688.744-6.13.82h-13.674c-2.108.327-4.256.41-6.601.41-2.131.22-4.555.375-6.601.82-2.142.133-4.629.248-6.601.82-2.418 0-4.28.338-6.601.41-2.405 0-4.351.27-6.601.41h-39.606c-2.213 0-4.705-.179-6.129-.82-1.62-.306-3.441-.615-5.187-.82l5.187.82c-1.62-.306-3.441-.615-5.658-2.869zm457.994 18.44c-.266.046-1.036.271-1.5.58-.188.571.395.566 1.167.58 1.632.138 3.316.145 5.001.145 1.351-.308 2.822-.282 4.168-.435.735-.17 1.951-.2 2.5-.435.974-.263 1.995-.406 3.001-.58.958-.156 1.599-.426 2.667-.435.769-.118 1.761-.076 2.5-.29h2.501c.882.091 1.328.294 2.167.435.786.252 1.426.257 2 .724.755.447.834.659.834 1.594-.034.835-.443 1.287-.667 2.029-.453.661-.76 1.353-1.167 2.029-.096.618-.303 1.25-.333 2.029 0 .731.075 1.36.167 2.029.101.784.233 1.322.834 2.029.677.221 1.487.175 2.167 0 .782-.429 1.34-.592 2.167-.869.521-.461 1.22-.635 1.834-1.014.68-.403 1.299-.52 1.667-1.159.208-.725.062-1.279 0-2.029-.321-.811-.557-1.702-.667-2.608-.053-.855-.269-1.451-.333-2.173-.033-.803-.284-1.371-.333-2.173-.199-.691-.303-1.421-.334-2.173-.314-.401-.587-1.136-1-1.739-.335-.755-.529-1.086-1-1.739-.399-.525-1.025-.905-1.5-1.159-.579-.238-.926-.513-1.834-.58-.774-.224-1.553-.121-2.334 0-.964.069-1.815.223-2.667.435-.868.338-1.801.526-2.667.869-.924.293-1.835.473-2.667.869-1.132.234-2.204.494-3.334.869-1.034.242-1.888.556-2.834.869-1.072.28-2.123.684-3.167 1.159-1.118.152-2.098.447-3.168.58-.81.05-1.546.166-2 .435-.904.254-1.047.508-1.834 1.304zm31.007 14.78c-.166.295-.815 1.287-1.334 1.884-2.049 1.955-4.086 3.869-6.168 5.796-1.466 1.262-3.051 2.438-4.334 3.767-.807.701-1.551 1.409-2.167 2.174-.344.712-.616 1.232-1 1.884-.165.619-.558 1.288-.834 2.028-.636.982-1.126 1.976-1.667 3.043-.362.775-.837 1.323-1.667 1.884-.512.62-1.356 1.037-2 1.304-.769.37-1.128.483-1.5 1.159-.488.501-.771 1.175-.834 1.884-.302.849.277.724 1.167.724.804.37 1.52.435 2.501.435 1.097-.01 1.743-.266 2.667-.58.994-.103 1.838-.468 2.834-.725 1.011-.267 2.077-.294 3.001-.58.985-.385 1.926-.708 2.834-1.304.783-.566 1.275-1.177 1.834-1.739.447-.726.916-1.215 1.5-1.884.449-.814 1.007-1.641 1.5-2.463.584-.983 1.026-1.814 1.667-2.753.548-.853 1.201-1.795 1.834-2.608.778-1.232 1.056-2.703 1.5-4.057.157-.794.273-1.639.333-2.463 0-.84.156-1.5.167-2.318-.197-.685-.351-1.187-.5-1.739l-.667-2.029.667 2.029c-.174-.707-.492-1.322-1.334-2.753zm-84.186 38.688c-.202.067-1.23.45-1.667.725-.735.664-1.299 1.078-1.834 1.739-.709.683-.956 1.008-1.334 1.739-.034.819-.321 1.168-.5 1.739l-1.5 1.449c-.537.299-1.044.569-1.667 1.014-.707.212-1.42.549-1.834.869-.765.181.636.085 1 0 .883-.233 1.449-.29 2.501-.29.748-.379 1.23-.435 2.167-.435.423-.311 1.307-.539 2.001-.869.793-.222 1.528-.541 2.334-.725.72-.462 1.553-.88 2.167-1.304.464-.579.989-.824 1.334-1.449.326-.472.074-1.036-.167-1.594-.241-.427-.699-1.128-1.167-1.449-.655-.387-.83-.674-1.834-1.159zm-9.502-15.504h-2.834c-.869.162-1.692.434-2.5.725-.865.181-1.517.425-2.167.58-.302.374-1.135 1.044-1.833 1.449-.299.371-1.138.759-1.5 1.159-.448.312-.86.954-1.167 1.449-.233.539.384.262.834.145 1.343-.354 2.756-.756 4.167-.869.565-.283 1.464-.29 2.334-.29.726 0 1.514-.01 2 .145.512.405 1.179.753 1.834 1.014.584.348.915.561 1.667.58 0-.799.017-1.602-.167-2.318-.323-.675-.634-1.236-.667-2.028-.217-.63-.141-1.002 0-1.739zm23.672-13.91c-.075-.177-.243-.779-.834-.869-.458-.316-1.294-.824-1.834-1.159-.243-.461-.388-.435-1.167-.435h-2.334c-.328.827-.418 1.736-.167 2.608.286.879.591 1.305 1.167 2.029.736.673.987 1.052 2.001 1.304.461.3.875.128 1.167-.29.489-.289.968-.676 1.167-1.304.32-.43.537-1.153.834-1.884zm20.838 36.804c-.078.22-.479 1.096-.5 1.739.283.642.497 1.197.833 1.739.414.57.677 1.214 1 1.594.774-.271 1.484-1.059 1.834-1.884.39-.67.753-1.049.833-1.884-.091-.868-.332-.829-1.167-1.159-.941-.302-1.304-.287-2 0h2c-.941-.302-1.304-.287-2.834-.145zm-22.672-2.029c0-.147.634-.103 1.167-.145.74-.2 1.72-.209 2.501-.29.872.028 1.432.283 2 .724.539.387.5.86.5 1.739-.146.668-.424 1.391-.667 1.884-.42.537-.681 1.22-1.334 1.449-.763-.305-1.286-.727-1.834-1.304-.156-.519-.592-1.267-.833-1.739-.357-.708-.608-.905-1.334-1.449-.359-.104-.167-.36-.167-.869zm-121.028-78.969h-2.667c-.917 0-1.849-.031-2.667.145-.925.099-1.446.305-2 .869-.437.725-.801 1.081-.5 1.884.725.475 1.558.995 2.501 1.304 2.372.597 4.491.915 6.835 1.594 1.531.174 2.803.388 4.168.869 3.123.965 6.378 1.753 9.502 2.608 1.167.507 2.432.801 3.667 1.159 2.688 0 1.354-.141 4.001.435 2.982.621 6.003 1.379 9.002 1.739 2.731.539 5.411 1.097 8.169 1.449 1.681.302 3.384.487 5.001.869 1.166.37 2.407.613 3.668.869 1.174.262 2.059.427 3.334.435.92.171 1.915.116 2.834.29 1.693.489 3.124.962 4.834 1.014 1.26 0 2.499-.029 3.668-.145 1.093-.199 2.169-.401 3.334-.435.866-.31 1.929-.47 2.834-.725.795-.173 1.596-.427 2.334-.724.78-.119 1.478-.276.834-.724-.394-.469-1.103-.828-1.834-1.304-1.065-.297-2.133-.785-3.167-1.014-1.281-.221-2.647-.449-4.001-.58-1.599-.168-3.25-.238-4.834-.435-1.384-.161-2.653-.441-4.001-.725-1.796-.195-3.459-.709-5.335-1.159-1.838-.233-3.823-.594-5.501-1.159-1.259-.184-2.498-.542-3.834-.724-1.32-.358-2.738-.493-4.001-.869-1.214-.041-2.493-.076-3.668-.29-1.001 0-1.917-.05-2.834-.145-1.124-.14-2.106-.39-3.334-.435-1.123-.217-2.224-.198-3.334-.435-.938-.208-1.931-.427-2.834-.724-1.144-.323-2.115-.614-3.167-1.014-1.007-.333-2.073-.579-3.168-.724-.992-.183-2.209-.283-3.167-.58-.915-.184-2.155-.445-2.834-.725-.891-.092-1.736-.341-2.667-.435-.728-.233-1.574-.269-2.334-.435-.721-.061-1.315-.226-2-.29l2 .29c-.721-.061-1.315-.226-2.834-.869zm20.338-7.1c-.278.355-.866.908-1.167 1.304-.512.541-.052.796.667 1.014.892.579 2.349.781 3.668.869.995.109 1.963.145 3.001.145 1.379.327 2.129.435 3.501.435 1.627 0 3.106.095 4.668.145 1.278.084 2.305.269 3.5.58 1.592.11 3.196.145 4.835.145h10.502c1.703.213 3.431.357 5.168.435 3.611.797 7.226 1.352 10.836 2.173 2.356.317 4.625.796 7.002 1.014 2.354.182 4.648.726 7.001 1.014 1.927 0 3.799.025 5.668.145 1.78.461 3.309.869 5.168.869 1.692 0 3.355.04 5.001.145h4.835c1.273-.133 2.632-.145 4.001-.145h7.835c1.137 0 2.245-.012 3.334-.145h7.835c1.521 0 3.03.015 4.501.145 1.491 0 2.869-.104 4.334-.145 1.041.133 2.079.145 3.167.145.922 0 1.793-.012 2.667.145.94.277 1.872.648 2.834.724.999.534.439.29 1.334.29 1.417 0 2.536-.077 3.834-.435 1.126 0 2.093-.095 3.167-.145 1.037 0 2.053-.018 3-.145.859-.232 1.803-.344 2.667-.58h3.168c1.202-.035 2.215-.266 3.334-.58 1.159-.409 2.19-.749 3.334-1.014 1.204-.403 2.258-.742 3.501-1.014 1.058-.377 1.862-.927 2.834-1.304.915-.558 1.526-.918 2.334-1.594.759-.506 1.425-1.181 2.334-1.739 1.14-.8 2.478-1.828 3.834-2.608.995-.587 1.492-1.05 2.167-1.884.591-.696.682-1.162 1-1.884v-2.898c-.198-.844-.292-1.539-.667-2.173-.066-.382-.269-.832-.5-1.014-.544.537-1.001 1.488-1.5 2.173-.39.749-.973 1.441-1.5 2.173-1.258 1.036-2.622 1.948-4.001 2.898-.926.475-1.718 1.032-2.667 1.449-.638.473-1.152.873-1.667 1.449-.916.377-1.75.939-2.667 1.304-1.729.877-3.557 1.519-5.335 2.318-.972.496-1.79.986-2.834 1.159-.901.384-1.83.739-2.834.869-1.213.025-2.195.322-3.334.435-1.251.23-2.517.29-3.834.29-1.36.023-2.626.145-4.001.145-1.124.048-2.153.145-3.334.145-1.43 0-2.766-.114-4.167-.145h-3.334c-1.686 0-3.367.004-5.001.145-1.428.155-2.702.435-4.168.435-1.296-.327-1.774-.435-3.001-.435-1.176-.204-2.434-.145-3.667-.145h-6.668c-1.197-.02-2.185-.138-3.334-.29-1.204-.115-2.543-.196-3.668-.435-1.359-.022-2.732-.119-4.001-.29-1.237-.008-2.533-.082-3.667-.29-.904-.064-2.018-.056-2.834-.29-1.223-.009-2.302-.215-3.501-.29-1.058-.285-2.259-.341-3.334-.58-1.125-.019-2.044-.145-3.167-.145-.881 0-1.701-.034-2.5-.145-.929 0-1.766-.094-2.667-.145-.383 0-1.851.355-2.667 0-1.261 0-2.405-.137-3.668-.145-1.464-.282-3.07-.29-4.668-.29-1.339-.206-2.77-.145-4.168-.145-.814-.045-1.753-.073-2.501-.29-.855 0-1.513-.119-2.334-.145-.823-.085-1.58-.224-2.334-.435-.784-.219-1.486-.483-2.334-.58-.726-.21-1.511-.281-2.334-.29-.892-.009-1.454-.206-2.167-.29-.897-.047-1.597-.203-2.334-.29-.73-.219-1.581-.271-2.334-.435h-2.334c-.791-.123-1.622-.145-2.501-.145-.999-.121-2.135-.13-3.167-.29-1.188 0-2.17-.135-3.334-.145-1.172 0-2.433.056-3.501-.145h-3.167c-.915 0-1.631-.118-2.501-.145-.723-.157-1.518-.145-2.334-.145-.665-.078-1.317-.145-2.167-.145-.458.037-1.55-.475-1.834-.29 0 0-1.472.476-2.167.58zm-101.857-40.861c-.231 0-.591.791-1 1.739-1.099 1.202-1.595 1.709-3.001 2.608-1.572.553-3.082 1.214-4.668 1.739-1.477.729-2.571 1.121-4.334 1.449-1.499.528-2.884.58-4.668.58-1.055.306-2.797.29-4.334.29-1.632 0-3.223.024-4.668-.29-1.581-.294-3.004-.697-4.668-.869-1.166-.386-2.949-.862-4.334-1.449-1.625-.471-3.102-.978-4.335-1.739-1.644-.578-2.679-1.129-4.334-1.449-1.664-.362-3.587-.46-5.335-.869-4.121-.843-8.825-2.12-13.003-2.898-1.659-.652-3.34-.58-5.334-.58h-5.001c-1.814-.019-2.761-.29-4.668-.29h-5.668c-2.691 0-5.423.091-8.002-.29-2.154-.095-4.08-.29-6.335-.29-1.592-.247-3.234-.29-5.001-.29h-5.668c-2.411 0-4.648-.166-7.002-.29-1.769-.146-3.429-.29-5.335-.29-2.307 0-4.241.251-6.335.58-2.06.305-4.141.595-6.335.869-2.5.145-4.807.524-7.335.58-2.259.423-4.396.702-6.668.869-2.239.417-4.658.473-7.002.869-2.403.247-4.731.522-7.001.869-1.837.294-3.823.539-5.668.869-1.745.108-3.076.524-4.668.869-1.867.594-3.499 1.11-5.335 1.739-1.582.476-2.306.827-3.334 1.739-1.582.622-2.952 1.476-4.334 2.029-1.704 1.005-2.868 1.864-4.334 3.188-.384 1.336-1.098 2.544-2 3.767-.279 1.36-.607 2.603-.667 4.057.513 1.386.427 2.998 1 4.347.95.562 1.911 1.277 3.001 2.029 1.45 1.088 1.943 1.553 3.334 2.608.969.573 1.863 1.406 3.334 2.029 1.084 1.369 2.01 1.801 3.668 2.318 1.081.688 2.526 1.245 4.001 1.739 1.802.503 3.605.989 5.668 1.159 1.932.385 3.961.29 6.001.29 2.198.022 4.014.529 6.001.869 2.105.199 4.327.33 6.335.58h6.668c1.935 0 3.931-.062 5.668.29 1.965 0 3.768-.15 5.668-.29 2.001-.447 3.625-.926 5.668-1.159 2.02-.237 4.139-.29 6.335-.29 1.827-.101 3.955-.163 5.668-.58 1.944-.047 3.692-.29 5.668-.29h6.668c2.032-.261 3.512-.816 5.668-.869 1.463-.227 3.233-.268 4.668-.58 1.616 0 3.155-.067 4.334-.29 1.318-.266 2.724-.694 4.001-1.159.959-.469 1.922-.753 1.667-1.159-1.473-.225-2.474-.778-3.668-1.449-1.754-.109-2.959-.265-4.668 0-1.55.433-3.029.888-4.668 1.159-1.591.099-2.967.29-4.668.29-1.683.261-3.468.29-5.335.29-1.972 0-3.708.247-5.668.29-2.489.153-4.816.519-7.335.58h-4.668c-1.592.247-3.234.29-5.001.29-1.997.02-3.617.29-5.668.29-1.928.213-3.911.29-6.001.29h-5.335c-1.78 0-3.275-.126-4.668-.29-1.383-.162-2.675-.477-4.334-.58-1.138-.345-2.677-.58-4.334-.58-1.445-.314-3.036-.29-4.668-.29-1.352-.159-2.746-.415-4.334-.58-.924-.546-2.329-.757-3.668-1.159-1.487-.631-2.81-1.093-3.667-1.739-1.234-.357-2.113-.958-3.334-1.739-.741-.859.012-1.513 1-.869 1.419.322 2.502.902 4.001 1.449 1.531.792 3.049 1.17 4.668 1.739 1.626.109 3.037.29 5.001.29h10.335l4.668.58c1.458 0 3.391-.12 4.334.29 1.7 0 3.077.191 4.668.29 1.793 0 3.75-.139 5.334.29h5.668c1.924-.09 3.631-.29 5.668-.29 1.74-.18 3.431-.29 5.334-.29 2.681-.048 5.132-.386 7.668-.58 1.394-.404 3.072-.29 4.668-.29 1.509-.234 3.127-.42 4.668-.58 1.044-.237 3.099-.725 4.001-1.159 1.92-.268 2.497-.666 2.667-2.318-1.354-.739-2.674-1.046-4.001-1.449-1.736-.018-3.08-.333-4.668-.58-1.64.373-3.015 1.09-4.668 1.449-1.449.42-3.41.37-5.001.58-1.779.041-3.179.29-5.001.29-1.706 0-2.986-.272-4.668-.29-1.705-.393-2.68-.58-4.668-.58-1.641.051-2.958.29-4.668.29-1.705 0-2.986-.272-4.668-.29-1.18.223-2.718.29-4.334.29h-4.668c-1.659 0-3.177-.058-4.668-.29h-5.335c-1.744-.056-2.853-.354-4.668-.58-1.354-.406-3.25-.555-4.334-.869-1.694-.372-3.44-.577-4.334-1.449-1.262-.442-1.689-1.911-2.667-2.608-.197-1.264-.416-2.323 0-3.767 1.069-.912 2.459-1.358 4.001-2.029.899-.696 2.308-1.208 3.667-1.739 1.521-.236 3.015-.425 4.335-.58h5.001c1.699 0 3.004.134 4.334.29 1.484.43 3.31.29 5.001.29 1.682 0 3.129.131 4.668.29h4.668c1.759-.109 2.497-.466 3.334-1.159-.182-1.74-.767-1.591-2.334-2.318-1.411-.166-2.857-.29-4.668-.29h-23.673c-1.587.39-3.43.988-4.668 1.449-.962.396-2.44.881-3.668 1.159-1.632.304-3.007.884-4.668 1.159-1.284-.355.124-.731 1-1.159 1.634-.659 2.69-1.188 4.334-1.739 1.495-.738 2.487-.968 4.334-1.159 1.488-.662 2.857-.851 4.668-.869 1.682 0 3.129-.131 4.668-.29 1.77-.018 3.018-.409 4.668-.58 1.539-.159 2.986-.29 4.668-.29h4.668c1.97-.02 3.484-.401 5.334-.58h4.668c1.54 0 2.65-.157 3.334.58 1.072.847 1.208 1.77 1.334 3.188.374 1.462 1.284 2.245 2.001 3.188 1.097 1.329 1.385 1.999 2.667 2.898 1.093.574 1.708 1.061 2.334 2.318.643.186 0-.288 0-1.449-.465-1.212-.334-2.671-.334-4.057 0-1.197.103-2.719-.333-3.478.921 1.294 1.646 2.348 2 3.478.839.511 2.152 1.969 3.001 2.898 1.348.963 2.151 1.337 4.001 1.739.93.549 2.253.734 3.001 1.449 1.253.297 2.26.99 3.334 1.449 1.315.84 2.079 1.268 3.334 2.029 1.638.053 2.521.29 4.334.29 1.468.152 3.356.353 4.334.869 1.769 0 3.237.12 4.334.869.928.699 1.896.904 3.334 1.449 1.743.524 2.398 1.167 3.667 2.318 1.211.859 2.119 1.777 3.668 2.608.709 1.287 1.499 1.56 1.667 3.188.884.522 1.897 1.1 2.667 1.739.656.751 1.074 1.766 1.667 1.449 0-1.543-.079-2.729-.667-3.767-.344-1.095-.975-2.022-1.333-3.478-.974-.829-1.898-1.72-2.667-2.898-.592-1.087-1.011-1.667-2.334-2.318-.985-.856-2.165-1.321-3.334-2.029-.664-.247-1.074-.592-1.667-.869 1.596-.44 2.505.272 4.001.869 1.464.742 2.694 1.371 4.001 1.739.798.602 1.929 1.211 3 1.739.814 1.154 1.652 1.78 2.667 2.898 1.092.892 2.329 1.886 3.001 2.608.555.935 1.182 2.205 1.667 3.188 1.146.706 1 1.07 1-.58v-4.927c0-1.287.142-2.041-.667-2.608-.695-.889-1.508-1.284-2.334-2.318-.976-.577-1.54-1.249-2.667-1.739-1.232-.553-2.065-1.186-3.001-1.739-.422-.621-.892-.85-1.667-1.159h23.673c1.784 0 3.048.288 4.334.58.89.689 2.307 1.256 4.001 1.449 1.433.563 3.088.624 4.668.869 1.638.053 2.521.29 4.334.29 1.893.118 2.461.668 4.001.869h4.668c1.616 0 3.155-.067 4.334-.29h4.668c1.631 0 3.223.024 4.668-.29 1.562-.356 2.975-1.027 4.001-1.449.4-.522-.822 0-2 0h-4.668c-1.49.231-3.009.29-4.668.29h-4.668c-1.739-.326-3.582-.597-5.334-.869-1.53-.237-3.216-.434-4.668-.869-1.651-.171-3.068-.605-4.668-.869-1.654-.347-3.249-.688-5.001-.869-1.6-.265-3.017-.699-4.668-.869-1.112-.322-2.738-.563-4.335-.58-1.7 0-3.077-.191-4.668-.29-1.604-.249-2.842-.48-4.334-.58-1.534-.466-2.547-.58-4.334-.58-1.49-.231-3.01-.29-4.668-.29h-9.669c-1.659 0-3.178-.059-4.668-.29-1.533-.254-3.173-.564-4.001-1.159-1.39-.483-2.17-.972-3-1.739 1.64-.798 2.643-1.386 4.668-1.449 2.207 0 4.16.273 6.335.29 1.819 0 3.712-.066 5.334.29h6.001c2.139 0 3.878.272 6.001.29h9.669c1.452.436 3.139.632 4.668.869 1.752.437 2.985.924 4.668 1.159 1.558.769 2.453.863 4.001 1.449 1.524.179 2.273.524 4.001.58 1.622.352 2.758.506 4.334.869 1.614.372 2.49.58 4.334.58 1.925-.02 2.845-.294 3.667-1.159 1.077-.565 2.082-.869 4.001-.869h4.668c1.18-.223 2.718-.29 4.334-.29 1.444-.547 2.272-.874 3.667-1.159.986-.608 2.37-1.052 3.334-1.449 1.147-.49 2.258-1.449 3.334-2.318l1.334-2.898c.665-.85.667-1.959.667-3.478 0-1.313.074-.717-1.667-2.029zm-110.692 1.739c-.646 0-3.172.07-4.334.29 0 1.281-.104 1.481 1.334 1.739 1.213.617 2.98.58 5.001.58 1.723.374 3.506.29 5.335.29h11.669c1.639.356 3.499.29 5.334.29 1.974 0 3.766.154 5.668.29 1.84 0 3.685-.031 5.335.29h5.334c1.961.357 3.57.58 5.668.58 1.351.332 3.663.143 4.668.58 1.74.056 2.686.409 4.334.869 1.466.152 3.288.18 4.668.58h4.001c-1.167-1.08-1.958-1.746-3.334-2.318-1.235-.716-2.576-1.249-4.334-1.449-1.163-.404-2.187-.58-4.001-.58-1.658-.36-3.587-.448-5.334-.58-2.035 0-3.719-.207-5.668-.29-1.806-.1-3.224-.469-5.001-.58-1.809-.386-3.425-.58-5.334-.58-1.556-.467-3.396-.525-5.001-.869h-14.67c-1.809 0-3.314.185-5.001.29-1.616 0-3.155.067-4.334.29-.9 0-.226-.019-2 .29zm-177.233 36.036c-.082 0-6.14 2.644-6.837 3.074h6.601c1.113-.343 1.04-.892.236-3.074zm3.065 5.123l-.236.205c.513-.446.327-.264-.707.41-.723.427-1.338.98-1.886 1.434-1.068.218-1.643.359-2.358 1.23 1.153 0 2.279-.017 3.3.205 1.37-.108 1.249-.573 1.415-1.639 0-.861.159-.909.472-1.844zm-4.244-18.033l-.236-.205c.592.514.304.279-.707-.82-.669-.651-1.14-.938-1.179.205.469 1.007.83 1.729 1.415 2.459.367.921.688 1.442.943 2.254.622.447.857.885 1.65 1.229.232-1.059.584-1.763.943-2.664-.156-.952-.804-.891-1.65-1.434-.999 0-.567.114-1.179-1.025zm.236-6.967c.048 1.598 4.277 6.251 5.658 6.352.211-1.025.662-4.243 0-4.713-.778-.075-5.579-1.708-5.658-1.639zm27.112-14.959c-.037.023-.724.768-.943 1.434-.494.617-.855 1.789-1.179 2.664l-.943 2.049c-.488.27-.897.735-.707 1.025 1.143 0 2.231.047 3.065.205.417-.601.915-1.743 1.415-2.664.369-1.01.66-1.928.707-3.074-1.102-.623-.942-.359-1.415-1.639zm19.096 2.049c-.069 0-7.932 6.14-8.251 7.172.144 1.066 3.851 1.025 4.951 1.025 1.076.028 3.63-6.903 3.301-8.197zm14.853 3.074c-1.159.697-7.896 8.139-8.487 8.811.17.591 1.062.495 1.886.615h3.3c.56-.828 3.898-9.76 3.301-9.426zm5.187 13.524c-.93.577-1.684.883-1.886 1.844-.697.679-.951 1.721-1.886 2.049-.401.796-.713 1.454-1.179 2.049.323 1.031.884 1.012 2.122 1.639.661.347 1.523.875 2.122 1.229.114-1.19.678-2.227 1.179-3.279.316-.961.701-1.886.943-2.869.038-.937.217-2 .472-2.664.085-1.038-1.583-.981-1.886 0zm2.122 17.008h-.236c.659 0 .309-.026-.943.41-1.163.069-1.967.205-3.301.205-1.317 0-1.867-.004-2.593.615-.232.458 0 1.492 0 2.459-.248 1.117-3.084 3.145-3.772 3.688 1.381-.257 6.051-.222 7.073 0 .974 0 2.212.063 2.829-.205v-2.869c.104-1.082.657-1.848.943-2.664.675-.391.362-.696 0-1.639zm-16.267 14.549c-.71.294-2.19.823-2.829 1.229-.933.229-1.299.584-1.65 1.23 1.047.368 2.138.814 3.065 1.025 1.197.136 2.175.54 3.3.82 1.182 0 1.484.182 1.179-.82v-2.869l.472-2.049c.035-.616-2.706.999-3.537 1.434z" font-size="12" fill="#dc0000" fill-rule="evenodd"/></svg>