<svg xmlns="http://www.w3.org/2000/svg" version="1" width="992.126" height="496.063"><path font-size="12" fill="#fff" fill-rule="evenodd" d="M0 0h992.126v496.063h-992.126z"/><path font-size="12" fill="#262bc9" fill-rule="evenodd" d="M779.528 0h212.598v496.063h-212.598zm-779.528 0h212.598v496.063h-212.598z"/><g font-size="12"><path d="M362.468 72.135v196.5c0 84.857 131.715 142.909 131.715 142.909s131.713-58.052 131.713-142.909v-196.5h-263.428z" fill-rule="evenodd" stroke="#000" stroke-width=".985" transform="matrix(1.211 0 0 1.148 -102.178 -29.687)"/><g fill-rule="evenodd"><path d="M265.748 184.252v194.882c0 84.159 124.017 141.732 124.017 141.732s124.015-57.574 124.015-141.732v-194.882h-248.031z" transform="matrix(1.269 0 0 1.148 1.433 -156.449)" fill="#1e5510" stroke="#000" stroke-width=".952"/><path fill="#e1c200" d="M338.63 177.064h28.613v40.677h-28.613zm57.228 0h28.613v40.677h-28.613zm-28.614 61.016h28.613v40.677h-28.613zm57.228 0h28.613v40.677h-28.613zm57.228 0h28.613v40.677h-28.613zm-85.842 61.015h28.613v40.677h-28.613zm57.227 0h28.613v40.677h-28.613zm57.228 0h28.613v40.677h-28.613zm57.227 0h28.613v40.677h-28.613zm-143.068 61.016h28.613v40.677h-28.613zm57.228 0h28.613v40.677h-28.613zm57.227 0h28.613v40.677h-28.613z"/></g><path d="M338.63 55.032s14.858 89.378 55.833 128.777c18.83 18.838 36.848 6.594 54.517 22.836 16.173 15.567 2.215 34.27 17.718 48.559 16.228 14.268 37.906 3.605 55.003 20.442 17.734 16.715 6.947 37.056 22.008 51.365 13.362 13.383 38.887 6.147 50.853 17.431 11.621 10.241 8.064 21.595 9.026 28.253 9.221-8.59 17.828-17.866 25.205-27.757 14.754-19.783 24.59-42.029 24.59-66.182v-223.724h-314.752z" fill="#c6231b" fill-rule="evenodd"/><g transform="matrix(.386 0 0 .373 326.006 17.706)"><path d="M620.123 672.147c4.303-.329 5.588-1.585 8.449-2.517 1.902-1.624 4.913-4.369 6.221-6.667 1.442-1.604 3.253-2.383 5.617-4.195 2.097-1.231 5.031-3.356 7.724-4.195 1.761-1.052 9.03-.04 10.909-.788 3.237 0 6.907.046 9.128-.839 3.026-.537 5.513-2.105 7.724-3.356 2.13-1.206 4.619-2.434 6.319-4.195 2.176-2.555 3.305-5.331 4.915-7.552.528-3.448 1.703-5.602 2.809-8.391 2.074-1.239 4.386-2.624 6.319-4.195 3.008-.846 4.529-2.035 7.724-3.356 2.723-2.044 7.282-4.003 9.128-5.874 2.608-1.682 3.545-4.42 6.319-5.873 2.188-2.762 4.422-4.81 7.022-7.552 1.61-2.759 2.658-6.2 4.213-8.391.643-2.818 3.774-9.494 3.802-12.934.743-3.258 1.816-8.085 1.816-12.862-.439-3.884-1.708-9.581-1.755-14.264-.125-4.043-1.27-8.171-2.106-12.167-.745-4.004-1.177-5.828-2.106-10.069-1.79-3.453-2.458-6.676-2.458-10.908 2.177-4.616 5.176-9.928 7.022-13.845 2.016-2.421 3.828-9.267 4.564-11.747.828-3.675 1.404-5.462 1.404-10.069-.991-2.368-1.205-6.973-1.404-10.069 0-4.317-.14-7.487-1.404-10.069-.692-4.288-1.674-6.367-2.809-9.23-1.118-3.859-8.111-14.963-9.479-17.62-1.395 4.928-1.493 9.24-3.16 11.747-1.456 1.588-2.745 5.225-3.511 7.971-1.161 2.776-2.856 4.862-4.213 8.391-2.069 1.766-3.036 2.67-4.915 5.454-1.682 1.742-2.357 3.014-4.564 4.615-3.136.402-3.458.679-6.319 2.098-3.394.074-4.4 2.511-7.724 2.937-1.57-2.327-4.009-1.803-7.022-.839-1.351-2.422-3.011-2.34-4.213.839-1.041-2.178-4.573-1.678-4.915-1.678-5.15-.135-6.025-.761-9.128-2.517-1.879-.748-6.665-.626-8.426-1.678-2.999-.977-3.775-3.181-7.724-3.356-3.117-1.678-5.678-1.525-9.128-1.678l-9.83-.839c-3.237 0-6.907-.046-10.895.839-3.988-.885-7.658-.839-10.895-.839l-9.83.839c-3.45.153-6.011 0-9.128 1.678-3.949.175-4.725 2.379-7.724 3.356-1.761 1.052-6.547.93-8.426 1.678-3.103 1.757-3.978 2.382-9.128 2.517-.342 0-3.874-.499-4.915 1.678-1.202-3.179-2.862-3.261-4.213-.839-3.013-.964-5.451-1.488-7.022.839-3.324-.425-4.329-2.863-7.724-2.937-2.861-1.419-3.183-1.696-6.319-2.098-2.207-1.601-2.882-2.873-4.564-4.615-1.879-2.784-2.846-3.688-4.915-5.454-1.357-3.528-3.052-5.615-4.213-8.391-.766-2.746-2.055-6.383-3.511-7.971-1.667-2.507-1.764-6.818-3.16-11.747-1.368 2.657-8.361 13.762-9.479 17.62-1.135 2.863-2.117 4.942-2.809 9.23-1.264 2.582-1.404 5.752-1.404 10.069-.199 3.096-.414 7.701-1.404 10.069 0 4.607.576 6.394 1.404 10.069.736 2.48 2.548 9.326 4.564 11.747 1.845 3.917 4.845 9.228 7.022 13.845 0 4.232-.667 7.455-2.458 10.908-.929 4.241-1.362 6.065-2.106 10.069-.836 3.996-1.981 8.123-2.106 12.167-.047 4.683-1.316 10.38-1.756 14.264 0 4.777 1.072 9.604 1.816 12.862.028 3.44 3.158 10.116 3.802 12.934 1.555 2.191 2.604 5.631 4.213 8.391 2.6 2.741 4.834 4.79 7.022 7.552 2.775 1.454 3.712 4.192 6.319 5.873 1.846 1.87 6.405 3.83 9.128 5.874 3.195 1.321 4.716 2.51 7.724 3.356 1.933 1.571 4.246 2.956 6.319 4.195 1.106 2.789 2.28 4.943 2.809 8.391 1.611 2.221 2.739 4.996 4.915 7.552 1.701 1.761 4.189 2.99 6.32 4.195 2.211 1.251 4.698 2.819 7.724 3.356 2.221.885 5.891.839 9.128.839 1.879.749 9.148-.264 10.909.788 2.693.84 5.627 2.964 7.724 4.195 2.364 1.812 4.176 2.591 5.617 4.195 1.308 2.298 5.168 5.044 7.07 6.667 2.861.933 4.146 2.188 7.724 2.517z" fill="#fff" fill-rule="evenodd" stroke="#000" stroke-width="2.14"/><path d="M526.407 533.47c-1.465 0 .862 3.812 1.986 5.316-3.017 2.458-6.169 4.976-8.937 6.38 4.41 0 6.994-.454 8.937 2.126-2.259 1.32-7.957 3.868-9.93 5.317 6.159.12 5.744 1.481 1.986 6.38-2.463 3.014-3.505 2.126.993 2.126 3.321 2.37 1.358 3.747-1.986 6.38 3.281 0 5.334-.124 6.951 2.127-5.053 5.002-6.154 4.048 0 7.443 6.749.394 4.665 1.388.993 3.19-1.338.614-3.187 1.857-4.965 3.19 5.117.783 3.995 2.953.993 5.316 2.021.927 4.779 1.736 7.944 2.127-1.747 1.007-3.997 2.981-2.979 4.253 2.299 1.231 5.623.704 6.951 2.127-1.769 1.695-4.101 4.153-4.965 7.443h6.951c-2.256 1.428-4.53 2.705 0 3.19-1.406 3.577-1.979 2.889.993 4.253-2.24 2.519-5.54 2.127 0 2.127 1.275 0 3.988-.009 1.986 1.063m94.395-16.081c4.297 5.183 8.814 8.884 7.302 13.2 3.463.927 1.455 2.515.993 5.316 2.486 4.343 4.958 5.699 1.986 9.57.832 4.457 2.236 3.601-.993 7.443-1.105 3.077.043 1.11 1.986 3.19-1.216 4.616.347 6.959-1.986 10.633.298 2.872 1.243 2.87-1.986 4.253v2.127" stroke="#9da4a5" stroke-width="2.675" fill="none"/><path d="M605.265 662.501c.331 0 14.71-8.836 16.881-15.949 1.627 4.792 11.765 13.241 15.888 13.822" stroke="#000" stroke-width="1.875" fill="none"/><ellipse cx="207.927" cy="433.673" rx="9.76" ry="5.516" transform="matrix(1.327 0 0 1.117 345.176 146.601)" fill-rule="evenodd"/><path d="M621.453 635.343l.702 11.654" stroke="#000" stroke-width="1.875" fill="none"/><path d="M553.344 626.321c.397-1.963.702-3.829.702-6.015.083 1.657.675 3.16 1.404 4.135.812-2.004 1.053-3.706 1.053-6.015.851 1.528 1.484 2.923 2.106 4.135.437-2.65.702-5.092.702-7.894 1.003.873 1.002 2.496 1.053 4.135 0 1.093.259 1.645.351 2.632.6-2.983.702-5.851.702-9.022.963-.229.694.663 1.053 1.88.256 1.53.466 3.19 1.053 4.511.949-4.955 1.977-10.763 4.213-15.413.701-.25.504.162.702 1.504.26 2.819.834 5.704 1.404 8.27.474-2.802.459-6.283 1.755-8.646.311 2.639.553 5.497.702 8.27 1.735-2.497 1.966-7.028 2.809-10.15 1.013-1.252.702-.183.702 1.128.157 1.149.261 3.13.702 3.759.602-2.255 1.575-3.021 3.16-4.887 1.201-3.731 1.713-4.075 3.862-7.143 1.044-2.581 1.03.843 1.053 2.255 0 1.456-.175 2.322 1.053 2.631.725-2.215 1.596-5.347 3.16-6.767.322 1.288.376 3.181.702 4.135 1.118-1.275 2.353-3.68 3.511-5.263.653 1.45.613 3.472 1.404 4.511 2.712-1.016 4.733-5.612 6.67-7.894 1.432-2.299 1.236-1.981 2.106 0 .364 2.372 1.144.62 2.809 0 .772 2.066 1.285 2.239 3.16 1.128 1.635-.814 1.697-.674 1.755 1.504.532.854 1.102-.052 1.755-.752m-37.608-61.768c0 .861 2.593 1.226 5.958 2.126.152 5.52 1.64 4.511 5.958 3.19 1.878 2.011.831 4.34 4.965 2.127 4.234-.81 2.239.433 4.965 3.19 1.356-.256 6.027-1.063 4.965-1.063.144 5.248 1.255 4.253 5.958 4.253 1.911-.682.993 1.459.993 4.253 2.175 1.397 5.664-1.025 8.937-2.127 1.941 1.701 2.01 2.127 5.958 2.127 3.398-1.444 5.36-5.506 7.944-7.443 4.02 2.803 4.037.343 7.944-3.19 3.904-2.292 2.689-1.309 3.972 2.126 2.329-1.558 2.356-4.806 3.972-6.38 4.011 1.571 5.542.089 9.93-1.063 2.827 1.703 5.163-.716 7.944-2.126 2.157-2.31 1.614.665 2.979 2.126 1.461 0 .759.251 1.986-1.063m-102.279-44.657c.718 0 4.817.724 5.958-2.127.31 3.542 1.105 6.551 2.979 5.316 1.61-6.032.45-4.997 4.965-2.127 2.514-1.907 4.093-6.089 5.958-8.506.12 7.081 1.251 5.597 4.965 1.063 1.384-2.964.441.267 3.972 1.063 3.287-1.709 6.364-4.277 7.944-3.19.678 5.624 2.942 2.422 5.958 0 4.466-3.239 2.754.379 4.965 3.19 2.741 2.055 6.315-1.585 9.93-3.19 3.186-1.279 1.488 2.207 3.972 4.253 3.415-1.536 6.568-3.223 9.93-1.063 2.474 3.285 4.715 1.695 8.937 0 3.368.901 1.586 2.468 5.958 1.063 4.542-1.459 2.735-.261 4.965 2.127 3.577-.575 4.734-2.568 4.965 2.127" stroke="#9da4a5" stroke-width="2.675" fill="none"/><path d="M559.184 558.151c12.933 6.216 7.931 11.974 21.445 17.738 13.515 5.765 17.203-3.596 24.236-1.347-8.072-7.415-8.344-11.11-19.919-14.993-11.904-3.61-14.424 3.792-25.762-1.399z" stroke="#000" stroke-width="2.14" fill="none"/><ellipse cx="132.394" cy="500.721" rx="25.46" ry="22.066" transform="matrix(.242 .072 -.031 .246 567.124 435.71)" stroke="#000" stroke-width="8.614" fill="none"/><path d="M689.826 558.151c-12.933 6.216-7.931 11.974-21.445 17.738-13.515 5.765-17.203-3.596-24.236-1.347 8.072-7.415 8.344-11.11 19.919-14.993 11.904-3.61 14.424 3.792 25.762-1.399z" stroke="#000" stroke-width="2.14" fill="none"/><ellipse cx="132.394" cy="500.721" rx="25.46" ry="22.066" transform="matrix(-.242 .072 .031 .246 681.886 435.71)" stroke="#000" stroke-width="8.614" fill="none"/><path d="M690.263 624.066c-.397-1.963-.702-3.829-.702-6.015-.083 1.657-.675 3.16-1.404 4.135-.812-2.004-1.053-3.706-1.053-6.015-.851 1.528-1.484 2.923-2.106 4.135-.437-2.65-.702-5.092-.702-7.894-1.003.873-1.002 2.496-1.053 4.135 0 1.093-.259 1.645-.351 2.631-.6-2.983-.702-5.851-.702-9.022-.963-.229-.694.663-1.053 1.88-.256 1.53-.466 3.19-1.053 4.511-.949-4.955-1.977-10.763-4.213-15.413-.701-.25-.504.162-.702 1.504-.26 2.819-.834 5.704-1.404 8.27-.474-2.802-.459-6.283-1.755-8.646-.311 2.639-.553 5.497-.702 8.27-1.735-2.497-1.966-7.028-2.809-10.15-1.013-1.252-.702-.183-.702 1.128-.157 1.149-.261 3.13-.702 3.759-.602-2.255-1.575-3.021-3.16-4.887-1.201-3.731-1.713-4.075-3.862-7.143-1.044-2.581-1.03.843-1.053 2.255 0 1.456.174 2.322-1.053 2.631-.725-2.215-1.596-5.347-3.16-6.766-.322 1.288-.376 3.181-.702 4.135-1.118-1.275-2.353-3.68-3.511-5.263-.653 1.45-.613 3.472-1.404 4.511-2.712-1.017-4.733-5.612-6.67-7.894-1.432-2.299-1.236-1.981-2.107 0-.364 2.372-1.144.62-2.809 0-.772 2.067-1.285 2.239-3.16 1.128-1.635-.814-1.697-.674-1.755 1.504-.532.854-1.102-.052-1.755-.752m-21.804 11.287c-4.297 5.183-8.814 8.884-7.302 13.2-3.463.927-1.455 2.515-.993 5.316-2.486 4.343-4.958 5.699-1.986 9.569-.832 4.457-2.236 3.601.993 7.443 1.105 3.077-.043 1.109-1.986 3.19 1.216 4.616-.347 6.959 1.986 10.633-.298 2.872-1.243 2.87 1.986 4.253v2.127m118.599-123.028c1.465 0-.862 3.812-1.986 5.316 3.017 2.457 6.169 4.976 8.937 6.38-4.41 0-6.994-.454-8.937 2.126 2.259 1.32 7.957 3.867 9.93 5.316-6.159.12-5.744 1.481-1.986 6.38 2.463 3.014 3.505 2.126-.993 2.126-3.321 2.37-1.358 3.747 1.986 6.38-3.281 0-5.334-.124-6.951 2.127 5.053 5.002 6.154 4.048 0 7.443-6.749.394-4.665 1.388-.993 3.19 1.338.614 3.187 1.857 4.965 3.19-5.117.783-3.995 2.953-.993 5.316-2.021.928-4.779 1.736-7.944 2.126 1.747 1.007 3.997 2.981 2.979 4.253-2.299 1.231-5.623.704-6.951 2.127 1.769 1.695 4.101 4.153 4.965 7.443h-6.951c2.256 1.428 4.53 2.705 0 3.19 1.406 3.577 1.979 2.889-.993 4.253 2.24 2.519 5.54 2.127 0 2.127-1.275 0-3.988-.009-1.986 1.063" stroke="#9da4a5" stroke-width="2.675" fill="none"/><path d="M511.565 471.443c0-2.03.046-.998-.702 3.007 0 3.061.015 6.259.702 8.27 3.207 3.957 1.087 8.661 2.886 16.009l2.731 11.057c-.879 1.882.558 3.03 2.809 3.759 1.604 2.079 3.872 2.552 7.022 3.007h9.83c.898-2.763 3.2-6.062 4.213-8.27 1.179-3.928 1.397-6.36.702-10.526-1.443-2.061-3.823-6.447-4.915-8.27-2.346-1.234-4.801-2.826-7.724-4.511-1.482-2.333-3.285-3.434-5.617-6.015-2.484-2.145-4.369-3.272-6.319-6.767-1.159-.532-5.125-5.763-5.617-7.518v6.767zm218.803-2.658c0-2.03-.046-.998.702 3.007 0 3.061-.015 6.259-.702 8.27-3.208 3.957-1.087 8.661-2.886 16.009l-2.731 11.057c.879 1.882-.558 3.031-2.809 3.759-1.604 2.079-3.872 2.552-7.022 3.007h-9.83c-.898-2.763-3.2-6.062-4.213-8.27-1.179-3.928-1.397-6.36-.702-10.526 1.443-2.061 3.823-6.447 4.915-8.27 2.346-1.234 4.801-2.826 7.724-4.511 1.482-2.333 3.285-3.434 5.617-6.015 2.484-2.145 4.37-3.272 6.319-6.767 1.159-.532 5.125-5.763 5.617-7.518v6.767z" fill="#9da4a5" fill-rule="evenodd"/><path d="M571.813 500.43l.449 1.014c-1.066-2.407-.491-1.37.071 3.398 3.73.342 5.545-1.864 7.245-1.455-2.741 4.682-3.649 6.938 2.624 2.685 2.162.438-.224 1.464.934 3.727 6.644.545 5.031-2.258 4.349 3.342 3.194-.161 5.969-2.398 4.314 1.643 6.044 1.976 4.044-.916 6.039 2.3 3.853 1.06 6.168-.774 4.763 2.657 6.769 2.232 4.006.915 8.214 3.971 3.465 1.32 5.526 1.6 6.902 2.628" stroke="#9da4a5" stroke-width="2.675" fill="none"/></g><g fill-rule="evenodd"><path d="M338.63 55.032v101.693l22.482 20.339 22.482-20.339 22.482 20.339 22.482-20.339 22.482 20.339 22.482-20.339 22.482 20.339 22.482-20.339 22.482 20.339 22.482-20.339 22.482 20.339 22.482-20.339 22.482 20.339 22.482-20.339v-101.693h-314.752z" fill="#fff"/><path d="M338.63 98.876v29.716l39.344-14.858 39.344 14.858 39.344-14.858 39.344 14.858 39.344-14.858 39.344 14.858 39.344-14.858 39.344 14.858v-29.716s-26.229-14.858-39.344-14.858l-39.344 14.858-39.344-14.858-39.344 14.858c-13.115 0-26.23-14.858-39.344-14.858l-39.344 14.858-39.344-14.858c-13.115 0-39.344 14.858-39.344 14.858z" fill="#262bc9"/></g></g></svg>