<!DOCTYPE svg PUBLIC "-//W3C//DTD SVG 20010904//EN"
"http://www.w3.org/TR/2001/REC-SVG-20010904/DTD/svg10.dtd"
[
 <!ATTLIST svg
  xmlns:xlink CDATA #FIXED "http://www.w3.org/1999/xlink">
]><svg xmlns="http://www.w3.org/2000/svg" version="1" width="992.126" height="496.063"><g font-size="12"><path fill="#c00" fill-rule="evenodd" d="M0 0h992.126v496.063h-992.126z"/><g fill-rule="evenodd"><path d="M840.897 124.016h-193.607l.039 155.26c1.218 0 1.683 30.769 23.128 46.153 21.444 15.384 73.656 46.619 73.656 46.619s52.211-31.234 73.656-46.619c21.444-15.384 21.91-46.153 23.128-46.153v-155.26z" fill="#006634"/><path d="M746.894 344.269v-39.277l38.155-21.75v13.044l2.825-.615 5.582 8.326 5.436-8.246 2.647.458v-6.532l15.376 8.852.946-3.012 10.489-.302-4.952-9.555 1.637-2.542-13.388-7.907 13.553-7.858-1.997-2.425 4.571-8.464-9.204-.546-.165-3.626-16.868 8.803v-17.93l-3.398.966-4.685-8.989-4.899 8.803-3.508-.654v17.67l-6.444-3.532-1.593 3.267-9.017.246 4.761 8.015-2.149 2.58 10.844 7.603-34.557 20.217v-42.21l10.859 7.906 1.346-3.428 8.489-1.081-2.876-8.582 1.657-3.315-4.805-2.154 14.418-8.286-2.817-2.632 5.558-8.209-9.467-1.091-.897-3.315-16.29 8.569v-16.69l-3.341.712-4.743-9.819-4.743 9.819-3.341-.712v16.69l-16.29-8.569-.897 3.315-9.467 1.091 5.558 8.209-2.817 2.632 14.418 8.286-4.805 2.154 1.657 3.315-2.876 8.582 8.489 1.081 1.346 3.428 10.859-7.906v42.21l-34.557-20.217 10.844-7.603-2.149-2.58 4.761-8.015-9.017-.246-1.593-3.267-6.444 3.532v-17.67l-3.508.654-4.899-8.803-4.685 8.989-3.398-.966v17.93l-16.868-8.803-.165 3.626-9.204.546 4.571 8.464-1.997 2.425 13.553 7.858-13.388 7.907 1.637 2.542-4.952 9.555 10.489.302.946 3.012 15.376-8.852v6.532l2.647-.458 5.436 8.246 5.582-8.326 2.825.615v-13.044l38.155 21.75v39.277h5.821z" fill="#ce9800"/><path fill="#fff" d="M648.597 125.419h190.774v65.315h-190.774z"/><path d="M648.597 166.386h86.959v24.35h16.784v-24.35h87.031v-16.784h-87.031v-24.183h-16.784v24.183h-86.959v16.784z" fill="#c00"/></g><path fill="#006" d="M0 0h496.063v248.031h-496.063z"/><path d="M0 0v27.731l440.601 220.301h55.461v-27.731l-440.601-220.301h-55.461zm496.063 0v27.73l-440.601 220.301h-55.461v-27.732l440.601-220.3h55.461zm-289.37 0v248.031h82.677v-248.031h-82.677zm-206.693 82.677v82.677h496.063v-82.677h-496.063z" fill="#fff"/><path d="M0 99.213v49.606h496.063v-49.606h-496.063zm223.228-99.213v248.031h49.606v-248.031h-49.606zm-223.228 248.031l165.354-82.677h36.974l-165.354 82.677h-36.974zm0-248.031l165.354 82.677h-36.974l-128.38-64.19v-18.487zm293.735 82.677l165.354-82.677h36.974l-165.354 82.677h-36.974zm202.328 165.354l-165.354-82.677h36.974l128.38 64.19v18.487z" fill="#c00"/></g></svg>