<svg xmlns="http://www.w3.org/2000/svg" width="210mm" height="140mm"><path d="M327.898 352.155s11.202-9.082 22.102-9.082 13.928 7.568 21.497 8.173c7.569.606 13.926-7.569 23.313-7.871 9.386-.302 21.194 6.66 21.194 6.66l-41.176 12.415-46.93-10.295zm-23.616-13.322l139.879.606s-12.11-13.019-26.341-13.321c-14.23-.305-10.293 6.055-21.193 6.962-10.899.909-13.626-6.66-23.617-6.358-9.99.302-15.744 6.358-23.312 6.662-7.569.302-17.258-7.571-23.011-7.266-5.753.302-26.341 9.082-26.341 9.082l3.936 3.633zm-17.862-16.653l172.577.607c2.724-3.936-8.478-13.322-18.771-14.231-8.48.302-14.533 8.78-21.497 9.084-6.964.302-14.835-8.782-22.708-8.477-7.871.302-16.046 8.477-23.919 8.477-7.871 0-13.624-8.782-23.615-8.782-9.991 0-14.533 9.689-22.102 9.084-7.571-.606-14.231-9.688-21.497-9.688s-19.377 10.899-21.799 10.293c-2.422-.605 3.026 4.542 3.331 3.633z" font-size="12" fill="#083d9c" fill-rule="evenodd" stroke="#083d9c" stroke-width="1.938pt"/><path d="M352.724 226.203l39.664 10.598v-56.619c-18.167.909-33.304-34.515-1.211-36.937-31.488-4.542-35.122 3.633-38.755 12.413l.302 70.545z" font-size="12" fill="#f00" fill-rule="evenodd" stroke="#000" stroke-width="2.422" stroke-linejoin="round"/><path d="M327.596 267.38l89.62.302" font-size="12" fill="#083d9c" fill-rule="evenodd" stroke="#083d9c" stroke-width="4.844" stroke-linecap="round"/><path d="M331.834 245.883l10.597 14.231m-10.597-.001l11.506-13.926m-5.451-1.213l-.302 8.78m11.202-7.871l10.597 14.231m-10.597-.001l11.506-13.926m-5.451-1.213l-.302 8.78m11.505-7.871l10.597 14.231m-10.597-.001l11.506-13.926m-5.451-1.213l-.302 8.78m12.11-7.871l10.597 14.231m-10.597-.001l11.506-13.926m-5.451-1.213l-.302 8.78m11.505-7.871l10.597 14.231m-10.597-.001l11.506-13.926m-5.451-1.213l-.302 8.78" stroke="#000" fill="none"/><path d="M267.345 268.288l38.148.303v-23.919l-43.599-2.118 5.451 25.734zm-1.818-33.001l40.572 3.936-.302-16.955-39.663-15.744-.607 28.763zm8.175-33.91l31.186 15.138 4.453-4.649s-2.868-1.976-2.726-3.794c.054-1.839 2.885-2.118 2.939-4.114.052-1.839-3.207-2.06-3.242-3.9-.213-1.994 2.512-4.132 2.512-4.132l-28.157-24.524-6.965 29.975zm204.672 67.214h-40.268l-.302-23.313 44.203-3.331-3.633 26.644zm-39.966-28.764l47.839-5.751-10.295-27.552-37.846 16.046.302 17.257zm34.819-40.872l-34.516 18.166c-.504-1.969-.932-3.862-3.329-5.451 0 0 2.118-1.211 2.118-3.331 0-2.118-2.725-2.422-2.725-3.633 0-1.211 2.498-2.269 2.649-4.995-.302-1.892-2.649-4.54-2.195-5.071l26.796-20.513 11.202 24.828zm-74.782 40.419l17.257-.756.302-6.966-17.559 7.722zm-52.683-.531l-18.166-.529v-7.267l18.166 7.796zm-.075-2.118l-18.091-9.311v-12.11s-2.12.302-1.817-2.12c.1-5.046 13.296 9.21 20.059 13.852l-.151 9.689zm52.756-1.136l-.074-7.871s16.347-14.759 19.829-17.485c0 3.028-1.891 5.373-1.891 5.373v11.506l-17.864 8.477zm-105.968-66.306c.302.303 18.344 20.355 18.344 20.355.506-1.9 4.666-2.189 8.904-1.886 4.24.302 7.619-.284 7.619 2.744 0 3.027-2.151 2.597-2.151 4.717 0 2.12 3.223 1.942 3.223 4.664 0 2.725-2.337 2.169-2.349 4.279-.007 1.744 2.438 1.837 2.438 1.837l17.182 16.653.075-17.789-35.423-55.557-17.862 19.983zm28.343-21.037c.269.808 23.993 49.066 23.993 49.066s.269-45.292 4.313-47.718l-6.739-12.402-21.567 11.054zm104.332 1.887l-26.79 47.793.035-20.143s2.222-3.387-1.283-3.117c-3.504.269-7.817-.27-7.817-.27l10.783-37.743 25.072 13.48zm27.499 20.489c-.27.539-18.073 18.644-18.073 18.644-.808-2.156-6.191-1.121-11.313-1.121-5.123 0-5.836 1.642-5.565 2.99.539 3.505 2.269.922 2.269 4.158 0 3.234-2.492 2.054-2.715 4.422.248 2.72 3.913 2.048 1.766 4.109l-20.616 19.79.058-18.753 38.282-59.581 15.907 25.342z" fill="#ef7d08" fill-rule="evenodd"/><path d="M361.526 277.382c-8.627 14.289-31.69 10.051-37.083.076-1.616-.458-.66-61.544-.66-61.544s-2.577-1.174-2.696-3.052c-.118-1.897 3.504-2.069 3.504-4.497 0-2.426-3.699-1.475-3.773-3.917.016-2.335 3.949-2.013 3.773-4.171-.208-2.432-4.405-2.072-4.583-4.314-.136-1.781 3.002-3.334 3.874-4.135-.564.028-2.915-.035-2.93-.043l-6.606.135c-4.693.005.081 1.023.012 3.731-.043 1.769-2.38 2.946-2.589 4.484-.074 1.579 3.344 2.688 3.387 4.583.039 1.691-3.358 1.806-3.236 3.377.211 2.659 3.009 3.244 2.967 4.854-.043 1.608-3.765 2.221-3.775 3.504.13 2.482.539 62.815.539 62.815 5.931 30.734 40.169 38.552 49.875-1.886zm22.576 0c8.627 14.289 31.689 10.051 37.082.076 1.616-.458.661-61.544.661-61.544s2.577-1.174 2.695-3.052c.118-1.897-3.277-2.069-3.277-4.497 0-2.426 3.473-1.475 3.546-3.917-.015-2.335-3.646-2.164-3.47-4.323.207-2.431 3.058-2.147 3.22-4.389.136-1.931-1.79-3.107-2.662-3.908.564.028 2.763-.035 2.779-.043l6.605.135c4.694.005-.081 1.023-.011 3.731.042 1.769 2.379 2.946 2.589 4.484.073 1.579-3.345 2.688-3.388 4.583-.038 1.691 3.359 1.806 3.236 3.377-.211 2.659-3.009 3.244-2.966 4.854.042 1.608 3.765 2.221 3.774 3.504-.129 2.482-.538 62.815-.538 62.815-5.932 30.734-40.169 38.552-49.875-1.886z" font-size="12" fill="#f00" fill-rule="evenodd" stroke="#000" stroke-width="2.422" stroke-linejoin="round"/><path d="M353.149 305.481l38.524-.023c.3-.303-8.625-13.305-19.256-12.388-11.843.31-19.888 12.411-19.268 12.411zm122.837-.938h-52.715s6.823-4.032 8.683-7.753c3.41 1.861 2.48 3.721 9.303 4.031 6.821.31 13.333-7.751 19.846-7.441 6.511.31 14.883 11.473 14.883 11.163zm-207.732 0h52.715s-6.823-4.032-8.683-7.753c-3.41 1.861-2.48 3.721-9.303 4.031-6.82.31-13.333-7.751-19.846-7.441-6.511.31-14.883 11.473-14.883 11.163zm3.935-16.575l37.543.302s-2.422-5.146-2.724-11.504c-9.691-3.329-17.562 7.266-24.526 7.569-6.962.302-14.228-7.569-14.228-7.569l3.935 11.202zm200.434 0l-37.544.302s2.423-5.146 2.725-11.504c9.69-3.329 17.561 7.266 24.525 7.569 6.963.302 14.229-7.569 14.229-7.569l-3.935 11.202zm-109.906.302l19.073-.604s.304-5.753-9.688-5.753c-9.991 0-9.082 6.661-9.385 6.357zm-11.506-8.173c3.331-1.818 6.358-3.633 8.478-7.873l-13.02.302s-6.053 3.635-9.082 7.571h13.624zm42.085 0c-3.331-1.818-6.357-3.633-8.477-7.873l13.019.302s6.054 3.635 9.082 7.571h-13.624z" font-size="12" fill="#083d9c" fill-rule="evenodd" stroke="#083d9c" stroke-width="1.938pt"/><path fill="#fff" d="M0 124.016v248.031h744.083v-248.031h-744.083zm360.415 15.624c15.502 0 29.066 0 44.568 5.859 87.197 27.342 98.823 150.381 21.315 197.254-13.564 9.764-27.128 13.671-42.63 15.623-11.626 0-23.253 0-34.879-1.952-85.259-17.578-112.388-130.852-48.443-189.442 17.44-15.624 36.817-23.437 60.069-27.342z" font-size="12"/><path font-size="12" fill="#de2010" fill-rule="evenodd" d="M0 372.047h744.094v124.016h-744.094zm0-372.047h744.094v124.016h-744.094z"/></svg>