<svg xmlns="http://www.w3.org/2000/svg" version="1" width="1062.988" height="708.661"><path font-size="12" fill-rule="evenodd" d="M481.89 0h581.103v70.866h-581.103zm0 159.449h581.102v70.866h-581.102zm-481.89 159.448h1062.992v70.866h-1062.992zm0 159.449h1062.992v70.866h-1062.992zm0 159.449h1062.992v70.866h-1062.992z"/><path font-size="12" fill="#fff" fill-rule="evenodd" d="M481.89 70.866h581.102v88.583h-581.102zm0 159.449h581.102v88.583h-581.102zm-481.89 159.449h1062.992v88.583h-1062.992zm0 159.449h1062.992v88.583h-1062.992zm0-549.213h481.89v318.898h-481.89z"/><path d="M361.418 134.645l10.63-7.086 17.716 7.086-17.716 7.087-10.63-7.087zm0 .001l-10.63 7.086-17.716-7.086 17.716-7.087 10.63 7.087zm-.001-.001l-7.086-10.63 7.086-17.716 7.087 17.716-7.087 10.63zm.001 81.496l-7.087-14.173-24.803 10.63 31.89-77.953 31.89 77.953-24.804-10.63-7.086 14.173zm60.236 14.174l10.63-7.086 17.716 7.086-17.716 7.087-10.63-7.087zm0 .001l-10.63 7.086-17.716-7.086 17.716-7.087 10.63 7.087zm-.001-.001l-7.086-10.63 7.086-17.716 7.087 17.716-7.087 10.63zm.001 81.496l-7.087-14.173-24.803 10.63 31.89-77.953 31.89 77.953-24.804-10.63-7.086 14.173zm-120.473-81.497l10.63-7.086 17.716 7.086-17.716 7.087-10.63-7.087zm0 .001l-10.63 7.086-17.716-7.086 17.716-7.087 10.63 7.087zm-.001-.001l-7.086-10.63 7.086-17.716 7.087 17.716-7.087 10.63zm.001 81.496l-7.087-14.173-24.803 10.63 31.89-77.953 31.89 77.953-24.804-10.63-7.086 14.173zm120.472-279.921l10.63-7.086 17.716 7.086-17.716 7.087-10.63-7.087zm0 .001l-10.63 7.086-17.716-7.086 17.716-7.087 10.63 7.087zm-.001-.001l-7.086-10.63 7.086-17.716 7.087 17.716-7.087 10.63zm.001 81.496l-7.087-14.173-24.803 10.63 31.89-77.953 31.89 77.953-24.804-10.63-7.086 14.173zm-116.928-79.632l10.63-7.086 17.716 7.086-17.716 7.087-10.63-7.087zm0 .001l-10.63 7.086-17.716-7.086 17.716-7.087 10.63 7.087zm-.001-.001l-7.086-10.63 7.086-17.716 7.087 17.716-7.087 10.63zm.001 81.496l-7.087-14.173-24.803 10.63 31.89-77.953 31.89 77.953-24.804-10.63-7.086 14.173zm-63.78 19.396l10.63-7.086 17.716 7.086-17.716 7.087-10.63-7.087zm0 .001l-10.63 7.086-17.716-7.086 17.716-7.087 10.63 7.087zm-.001-.001l-7.086-10.63 7.086-17.716 7.087 17.716-7.087 10.63zm.001 81.496l-7.087-14.173-24.803 10.63 31.89-77.953 31.89 77.953-24.804-10.63-7.086 14.173zm-60.236-184.252l10.63-7.086 17.716 7.086-17.716 7.087-10.63-7.087zm0 .001l-10.63 7.086-17.716-7.086 17.716-7.087 10.63 7.087zm-.001-.001l-7.086-10.63 7.086-17.716 7.087 17.716-7.087 10.63zm.001 81.496l-7.087-14.173-24.803 10.63 31.89-77.953 31.89 77.953-24.804-10.63-7.086 14.173zm0 116.929l10.63-7.086 17.716 7.086-17.716 7.087-10.63-7.087zm0 .001l-10.63 7.086-17.716-7.086 17.716-7.087 10.63 7.087zm-.001-.001l-7.086-10.63 7.086-17.716 7.087 17.716-7.087 10.63zm.001 81.496l-7.087-14.173-24.803 10.63 31.89-77.953 31.89 77.953-24.804-10.63-7.086 14.173zm-60.237-177.164l10.63-7.086 17.716 7.086-17.716 7.087-10.63-7.087zm0 .001l-10.63 7.086-17.716-7.086 17.716-7.087 10.63 7.087zm-.001-.001l-7.086-10.63 7.086-17.716 7.087 17.716-7.087 10.63zm.001 81.496l-7.087-14.173-24.803 10.63 31.89-77.953 31.89 77.953-24.804-10.63-7.086 14.173zm-60.236-184.252l10.63-7.086 17.716 7.086-17.716 7.087-10.63-7.087zm0 .001l-10.63 7.086-17.716-7.086 17.716-7.087 10.63 7.087zm-.001-.001l-7.086-10.63 7.086-17.716 7.087 17.716-7.087 10.63zm.001 81.496l-7.087-14.173-24.803 10.63 31.89-77.953 31.89 77.953-24.804-10.63-7.086 14.173zm0 116.928l10.63-7.086 17.716 7.086-17.716 7.087-10.63-7.087zm0 .001l-10.63 7.086-17.716-7.086 17.716-7.087 10.63 7.087zm-.001-.001l-7.086-10.63 7.086-17.716 7.087 17.716-7.087 10.63zm.001 81.496l-7.087-14.173-24.803 10.63 31.89-77.953 31.89 77.953-24.804-10.63-7.086 14.173z" font-size="12" fill-rule="evenodd"/></svg>