<!DOCTYPE svg PUBLIC "-//W3C//DTD SVG 20010904//EN"
"http://www.w3.org/TR/2001/REC-SVG-20010904/DTD/svg10.dtd"
[
 <!ATTLIST svg
  xmlns:xlink CDATA #FIXED "http://www.w3.org/1999/xlink">
]><svg xmlns="http://www.w3.org/2000/svg" width="500pt" height="333pt"><path font-size="12" fill="#8dc4ef" fill-rule="evenodd" d="M0 0h625v416.25h-625z"/><path font-size="12" fill="#fff" fill-rule="evenodd" d="M281.25 0h62.5v416.25h-62.5zm-281.25 176.875h625v62.5h-625z"/><path d="M90.963 25.991c-7.747 7.105-10.81 23.318 5.492 23.001 8.043-.157 21.019-9.343 22.383-16.253 5.435.132 11.993.863 17.019-1.761 4.758-2.541 12.377-2.937 15.258 1.761 3.215 5.322-4.758 12.241-10.121 15.441-5.838 3.549-9.288 8.448-9.245 19.183.1 6.963-3.114 14.36-5.868 21.127-2.436 6.148-4.184 9.237-4.402 20.246-.169 8.45 1.306 20.145 2.934 25.529-7.73 7.183-22.266 13.389-41.018 13.497-9.925.058-18.172-5.935-26.764-11.15-7.24-4.505-8.181 2.148-4.695 6.162 8.795 9.814 26.106 18.487 43.721 18.193 20.201-.448 31.852-6.453 40.786-11.738 13.272 7.89 40.394 9.837 58.869 9.828 14.362-.118 34.922-4.67 34.918-23.984-.004-14.735-10.87-26.346-36.275-26.337-16.209.005-41.356 5.425-51.422 14.268-1.339-3.297-1.041-8.233-1.468-12.214-.437-6.13 5.138-11.468 7.15-17.823 1.705-5.382 2.9-10.342 3.449-15.952.331-3.388-1.22-10.657 1.512-12.369 5.319-3.416 12.724-10.767 13.928-18.337.993-7.743.853-15.569-.621-21.927-1.113-6.749-7.406-9.183-13.021-9.835-6.718-.636-9.36 3.243-17.019 3.521-3.094-.332-16.853-3.307-23.112-3.19-9.902-.346-17.19 6.565-22.369 11.112z" fill="#ff0" fill-rule="evenodd"/><path d="M153.281 137.734c11.251-7.188 27.129-15.913 38.126-15.703 15.563.294 22.434 15.761 5.625 20.312-8.942 2.432-34.818 2.526-43.751-4.609z" fill="#8dc4ef" fill-rule="evenodd"/><path d="M92.852 32.499c1.62 2.404 10.014-1.347 7.109-5.352-2.094-2.914-9.41 1.995-7.109 5.352z" fill-rule="evenodd"/><path d="M90.963 25.991c-7.747 7.105-10.81 23.318 5.492 23.001 8.043-.157 21.019-9.343 22.383-16.253 5.435.132 11.993.863 17.019-1.761 4.758-2.541 12.377-2.937 15.258 1.761 3.215 5.322-4.758 12.241-10.121 15.441-5.838 3.549-9.288 8.448-9.245 19.183.1 6.963-3.114 14.36-5.868 21.127-2.436 6.148-4.184 9.237-4.402 20.246-.169 8.45 1.306 20.145 2.934 25.529-7.73 7.183-22.266 13.389-41.018 13.497-9.925.058-18.172-5.935-26.764-11.15-7.24-4.505-8.181 2.148-4.695 6.162 8.795 9.814 26.106 18.487 43.721 18.193 20.201-.448 31.852-6.453 40.786-11.738 13.272 7.89 40.394 9.837 58.869 9.828 14.362-.118 34.922-4.67 34.918-23.984-.004-14.735-10.87-26.346-36.275-26.337-16.209.005-41.356 5.425-51.422 14.268-1.339-3.297-1.041-8.233-1.468-12.214-.437-6.13 5.138-11.468 7.15-17.823 1.705-5.382 2.9-10.342 3.449-15.952.331-3.388-1.22-10.657 1.512-12.369 5.319-3.416 12.724-10.767 13.928-18.337.993-7.743.853-15.569-.621-21.927-1.113-6.749-7.406-9.183-13.021-9.835-6.718-.636-9.36 3.243-17.019 3.521-3.094-.332-16.853-3.307-23.112-3.19-9.902-.346-17.19 6.565-22.369 11.112z" fill="#ff0" fill-rule="evenodd"/><path d="M92.852 32.499c1.62 2.404 10.014-1.347 7.109-5.352-2.094-2.914-9.41 1.995-7.109 5.352z" fill-rule="evenodd"/><g fill-rule="evenodd"><path d="M90.963 25.991c-7.747 7.105-10.81 23.318 5.492 23.001 8.043-.157 21.019-9.343 22.383-16.253 5.435.132 11.993.863 17.019-1.761 4.758-2.541 12.377-2.937 15.258 1.761 3.215 5.322-4.758 12.241-10.121 15.441-5.838 3.549-9.288 8.448-9.245 19.183.1 6.963-3.114 14.36-5.868 21.127-2.436 6.148-4.184 9.237-4.402 20.246-.169 8.45 1.306 20.145 2.934 25.529-7.73 7.183-22.266 13.389-41.018 13.497-9.925.058-18.172-5.935-26.764-11.15-7.24-4.505-8.181 2.148-4.695 6.162 8.795 9.814 26.106 18.487 43.721 18.193 20.201-.448 31.852-6.453 40.786-11.738 13.272 7.89 40.394 9.837 58.869 9.828 14.362-.118 34.922-4.67 34.918-23.984-.004-14.735-10.87-26.346-36.275-26.337-16.209.005-41.356 5.425-51.422 14.268-1.339-3.297-1.041-8.233-1.468-12.214-.437-6.13 5.138-11.468 7.15-17.823 1.705-5.382 2.9-10.342 3.449-15.952.331-3.388-1.22-10.657 1.512-12.369 5.319-3.416 12.724-10.767 13.928-18.337.993-7.743.853-15.569-.621-21.927-1.113-6.749-7.406-9.183-13.021-9.835-6.718-.636-9.36 3.243-17.019 3.521-3.094-.332-16.853-3.307-23.112-3.19-9.902-.346-17.19 6.565-22.369 11.112z" fill="#ff0"/><path d="M153.281 137.734c11.251-7.188 27.129-15.913 38.126-15.703 15.563.294 22.434 15.761 5.625 20.312-8.942 2.432-34.818 2.526-43.751-4.609z" fill="#8dc4ef"/><path d="M92.852 32.499c1.62 2.404 10.014-1.347 7.109-5.352-2.094-2.914-9.41 1.995-7.109 5.352z"/></g><g fill-rule="evenodd"><path d="M434.988 25.785c-7.747 7.105-10.81 23.318 5.492 23.001 8.043-.157 21.019-9.343 22.383-16.253 5.435.132 11.993.863 17.019-1.761 4.758-2.541 12.377-2.937 15.258 1.761 3.215 5.322-4.758 12.241-10.121 15.441-5.838 3.549-9.288 8.448-9.245 19.183.1 6.963-3.114 14.36-5.868 21.127-2.436 6.148-4.184 9.237-4.402 20.246-.169 8.45 1.306 20.145 2.934 25.529-7.73 7.183-22.266 13.389-41.018 13.497-9.925.058-18.172-5.935-26.764-11.15-7.24-4.505-8.181 2.148-4.695 6.162 8.795 9.814 26.106 18.487 43.721 18.193 20.201-.448 31.852-6.453 40.786-11.738 13.272 7.89 40.394 9.837 58.869 9.828 14.362-.118 34.922-4.67 34.918-23.984-.004-14.735-10.87-26.346-36.275-26.337-16.209.005-41.356 5.425-51.422 14.268-1.339-3.297-1.041-8.233-1.468-12.214-.437-6.13 5.138-11.468 7.15-17.823 1.705-5.382 2.9-10.342 3.449-15.952.331-3.388-1.22-10.657 1.512-12.369 5.319-3.416 12.724-10.767 13.928-18.337.993-7.743.853-15.569-.621-21.927-1.113-6.749-7.406-9.183-13.021-9.835-6.718-.636-9.36 3.243-17.019 3.521-3.094-.332-16.853-3.307-23.112-3.19-9.902-.346-17.19 6.565-22.369 11.112z" fill="#ff0"/><path d="M497.306 137.529c11.251-7.188 27.129-15.913 38.126-15.703 15.563.294 22.434 15.761 5.625 20.312-8.942 2.432-34.818 2.526-43.751-4.609z" fill="#8dc4ef"/><path d="M436.877 32.294c1.62 2.404 10.014-1.347 7.109-5.352-2.094-2.914-9.41 1.995-7.109 5.352z"/></g><g fill-rule="evenodd"><path d="M434.988 267.087c-7.747 7.105-10.81 23.318 5.492 23.001 8.043-.157 21.019-9.343 22.383-16.253 5.435.132 11.993.863 17.019-1.761 4.758-2.541 12.377-2.937 15.258 1.761 3.215 5.322-4.758 12.241-10.121 15.441-5.838 3.549-9.288 8.448-9.245 19.183.1 6.963-3.114 14.36-5.868 21.127-2.436 6.148-4.184 9.237-4.402 20.246-.169 8.45 1.306 20.145 2.934 25.529-7.73 7.183-22.266 13.389-41.018 13.497-9.925.058-18.172-5.935-26.764-11.15-7.24-4.505-8.181 2.148-4.695 6.162 8.795 9.814 26.106 18.487 43.721 18.193 20.201-.448 31.852-6.453 40.786-11.738 13.272 7.89 40.394 9.837 58.869 9.828 14.362-.118 34.922-4.67 34.918-23.984-.004-14.735-10.87-26.346-36.275-26.337-16.209.005-41.356 5.425-51.422 14.268-1.339-3.297-1.041-8.233-1.468-12.214-.437-6.13 5.138-11.468 7.15-17.823 1.705-5.382 2.9-10.342 3.449-15.952.331-3.388-1.22-10.657 1.512-12.369 5.319-3.416 12.724-10.767 13.928-18.337.993-7.743.853-15.569-.621-21.927-1.113-6.749-7.406-9.183-13.021-9.835-6.718-.636-9.36 3.243-17.019 3.521-3.094-.332-16.853-3.307-23.112-3.19-9.902-.346-17.19 6.565-22.369 11.112z" fill="#ff0"/><path d="M497.306 378.83c11.251-7.188 27.129-15.913 38.126-15.703 15.563.294 22.434 15.761 5.625 20.312-8.942 2.432-34.818 2.526-43.751-4.609z" fill="#8dc4ef"/><path d="M436.877 273.595c1.62 2.404 10.014-1.347 7.109-5.352-2.094-2.914-9.41 1.995-7.109 5.352z"/></g><g fill-rule="evenodd"><path d="M91.156 266.645c-7.747 7.105-10.81 23.318 5.492 23.001 8.043-.157 21.019-9.343 22.383-16.253 5.435.132 11.993.863 17.019-1.761 4.758-2.541 12.377-2.937 15.258 1.761 3.215 5.322-4.758 12.241-10.121 15.441-5.838 3.549-9.288 8.448-9.245 19.183.1 6.963-3.114 14.36-5.868 21.127-2.436 6.148-4.184 9.237-4.402 20.246-.169 8.45 1.306 20.145 2.934 25.529-7.73 7.183-22.266 13.389-41.018 13.497-9.925.058-18.172-5.935-26.764-11.15-7.24-4.505-8.181 2.148-4.695 6.162 8.795 9.814 26.106 18.487 43.721 18.193 20.201-.448 31.852-6.453 40.786-11.738 13.272 7.89 40.394 9.837 58.869 9.828 14.362-.118 34.922-4.67 34.918-23.984-.004-14.735-10.87-26.346-36.275-26.337-16.209.005-41.356 5.425-51.422 14.268-1.339-3.297-1.041-8.233-1.468-12.214-.437-6.13 5.138-11.468 7.15-17.823 1.705-5.382 2.9-10.342 3.449-15.952.331-3.388-1.22-10.657 1.512-12.369 5.319-3.416 12.724-10.767 13.928-18.337.993-7.743.853-15.569-.621-21.927-1.113-6.749-7.406-9.183-13.021-9.835-6.718-.636-9.36 3.243-17.019 3.521-3.094-.332-16.853-3.307-23.112-3.19-9.902-.346-17.19 6.565-22.369 11.112z" fill="#ff0"/><path d="M153.474 378.388c11.251-7.188 27.129-15.913 38.126-15.703 15.563.294 22.434 15.761 5.625 20.312-8.942 2.432-34.818 2.526-43.751-4.609z" fill="#8dc4ef"/><path d="M93.045 273.153c1.62 2.404 10.014-1.347 7.109-5.352-2.094-2.914-9.41 1.995-7.109 5.352z"/></g></svg>