<svg xmlns="http://www.w3.org/2000/svg" width="210mm" height="140mm"><g font-size="12" fill-rule="evenodd"><path fill="#0039ad" d="M0 .035h744.094v165.331h-744.094z"/><path fill="#fff" d="M0 165.366h744.094v165.366h-744.094z"/><path fill="#d61810" d="M0 330.732h744.094v165.331h-744.094z"/></g><g font-size="12"><path d="M266.883 131.101s68.653 12.226 105.799 12.226c37.149 0 104.389-11.755 104.389-11.755l-5.642 191.379c.47 2.351-.153 12.567-11.285 25.863-16.928 19.749-69.123 10.815-77.586 18.338-7.995 8.465-10.346 12.226-10.346 12.226s-3.761-7.995-14.577-13.637c-10.815-5.642-54.761.264-70.063-16.457-8.24-9.326-12.455-23.747-12.52-25.274l-8.17-192.908z" fill="#ffd700" fill-rule="evenodd" stroke="#000" stroke-width="5.875"/><path d="M372.682 143.327c37.149 0 104.389-11.755 104.389-11.755l-5.642 191.379c.47 2.351-.153 12.567-11.285 25.863-16.928 19.749-69.123 10.815-77.586 18.338-7.995 8.465-10.346 12.226-10.346 12.226l.47-236.05z" fill="#d61810" fill-rule="evenodd" stroke="#000" stroke-width="2.203"/><path d="M421.585 203.515l10.816-47.492s4.231 48.904 4.231 47.962c0-.94 8.465-46.551 8.465-46.551l22.571-10.345 1.41 24.922-25.862 35.266h23.041l-15.987 20.219 16.457 12.696-18.808 13.166 16.457 29.623-27.273-9.874 24.922 53.605-35.266-35.266 8.465 49.374s-15.518 14.576-15.988 14.106c-.47-.47-16.457-15.987-16.457-15.987l12.226-47.962s-37.149 39.028-37.149 38.558c0-.47 24.923-55.956 24.923-55.956l-24.452 8.934 18.808-29.624-19.279-12.225 19.279-13.637-19.749-19.278 21.631.94-21.161-31.504v-25.393l20.221 7.995s9.405 45.611 9.405 45.141c0-.471 3.761-49.844 3.761-49.844l10.345 48.432z" fill="#fff" fill-rule="evenodd" stroke="#000" stroke-width="1.469"/><path d="M349.441 298.874l10.294-11.749s1.455-1.791 1.678-3.469c.224-1.678-3.581-4.364-3.804-5.93.097-.786.207-1.596.801-2.981 1.099-.101 1.827.071 2.332.183 1.79 1.902 1.119 3.58 1.119 4.028 0 .448 2.126-.671 2.126-.671s1.231-3.469 2.35-3.693c1.119-.223 1.79.784 2.014 1.791.224 1.007-1.007 2.798-3.804 4.587-2.797 1.791 4.14-1.678 5.147 1.902.448 2.463-4.588 3.134-4.588 3.134s.56 2.014 2.126 2.126c1.567.112.536.985.872 1.88.336.895-2.886 2.372-5.124-.425-2.238-2.798-7.497 18.799-7.497 18.799s.336 1.678-1.231 1.23c-1.567-.448-4.811-10.406-4.811-10.742zm2.259-46.587c0 2.371 1.925 9.238-9.045 10.007-7.207-.209-7.464-3.255-11.355-3.464-6.159.77-5.389 6.736-5.389 6.736s3.024 6.877-3.079 11.932c-5.227 3.664-9.815 4.426-14.434 2.887-4.619-1.54-22.902-3.849-22.132 3.079.77 6.929 10.777 9.238 10.777 9.238s12.317 2.117 15.396 2.31c3.079.193 10.008-1.732 10.008-1.732s-1.54-1.925-2.502-3.464c-.481-.771 2.71-.214 4.476-.672 1.766-.458 1.324-2.043 2.305-2.398-3.328-.744-5.86-.855-6.09-3.875 2.708.897 3.361.511 4.131.127.77-.385 2.371-4.424 3.911-5.77 1.54-1.348.144-4.894.866-5.461.726-.411 1.762 1.135 2.643 1.703 0 0 5.849.951 4.502 3.645-1.347 2.694 2.117-3.657 5.966-3.271 3.849.384 8.66 2.887 8.66 2.887s.77 2.694-1.347 2.694.77 4.234-.192 4.619c-.962.384-10.97.384-9.238 3.079 1.732 2.695 6.544 3.849 7.891 3.658 1.347-.193 1.732 3.079.192 3.464-1.54.384-4.234.192-3.079 1.154 1.155.963 3.657 4.235 4.234 3.849.577-.384 3.079 1.348 3.464 4.042.385 2.694-.385 5.004-.385 5.004s-2.887-2.887-3.079-3.849c-.192-.962.192 7.121 1.54 7.313 1.347.193.962 3.464 2.502 3.079 1.54-.384-3.464.771-3.849 0-.385-.77-2.887-1.154-2.887-2.502 0-1.347-1.54 3.464-1.54 3.464s16.744 12.703 16.744 12.51c0-.193 2.336-5.693 5.415-1.844.05.774-1.374 4.538-1.374 4.538s2.694 2.309 1.925 3.08c-.77.77-4.042.962-4.811.384-.77-.577 1.925 2.503.577 4.235-1.347 1.732-2.309-.385-3.272-.193-.962.193-3.272-.77-3.079-1.925.192-1.155 2.117-2.694 1.732-3.08-.385-.384-5.196.962-5.389 2.31-.192 1.347-2.887-4.619-2.502-4.812.385-.193 2.502-.962 2.887-.577.385.384-16.166-7.506-16.359-7.699-.192-.193-3.272-.385-4.042-1.732-.77-1.348-1.155-4.235-1.925-5.389-.77-1.155-1.615-4.554-1.347-3.657l1.347 3.079s-3.464-.193-5.389-1.154c-1.925-.962-9.815-5.967-10.393-5.581-.577.384-4.811-3.08-4.811-3.08l.962-2.117c.052-.721-4.811 6.736-5.581 7.121-.77.385-9.815 3.08-12.317 5.39-2.502 2.309-5.389 4.234-4.042 6.158 2.894-2.457 5.774.577 5.966 1.925.192 1.347-3.272 4.426-4.427 3.08-1.155-1.348 2.117 2.309 1.54 3.079s-3.657 2.117-3.849 1.925c-.192-.193-1.54-5.196-1.54-5.196s-2.117 4.619-1.347 5.774c.77 1.154-4.042.77-4.042-1.54 0-2.309 1.732-4.234 1.732-4.234s-1.54-2.694-2.694-2.503c-1.155.193-.192-4.426 3.079-4.041 3.272.384.77-8.661 3.464-9.238 2.694-.578 2.502 1.347 3.849 0 1.347-1.348 9.272-12.691 9.272-12.691s-10.042-.396-10.235-.396c-.192 0 .577-1.347.577-1.347s-6.159-.193-5.966.961c.192 1.155 8.853 5.39-.385 7.891.71-2.292-.192-3.849-.385-3.849-.192 0-4.042-2.502-3.849-5.581.192-3.08 7.506-2.694 7.506-2.694s-8.276-5.967-8.083-10.586c.192-4.619 9.623-8.66 9.623-8.66s3.079-1.925 3.272-3.849c.192-1.925-2.117-8.852 8.083-7.699-2.376 1.773-2.694 3.657-2.694 3.657s-.385 7.699-3.272 8.468c-2.887.77 6.351.385 6.351.385s1.925.577 3.272-1.348c1.347-1.925-1.155-8.852 7.891-9.238-1.882 2.708-1.732 4.812-1.732 4.812s1.732 5.774-4.042 7.699c-5.774 1.925 14.242 2.887 14.819-6.351s-8.465-9.623-9.238-9.623c-1.031.103-6.361 1.268-8.66-.385-1.732-2.116-5.973-9.069-7.506-13.471 6.611 1.886 5.004 4.426 7.891 5.774 2.887 1.347 17.898.577 18.668 7.121 2.058-6.806 9.045-7.506 9.045-7.506 2.732.103 7.416 2.294 12.228 3.255 4.605.189 5.87-2.237 7.018-3.255z" fill="#0039ad" fill-rule="evenodd" stroke="#000" stroke-width=".734"/><path d="M342.728 288.468c.112 0 .224-1.455 6.266-1.902 6.042-.448 4.7-4.364 5.259-5.819.56-1.455 2.574 2.573 2.462 4.252-.112 1.678-3.916 4.587-7.945 4.812-4.028.223-6.154-1.455-6.042-1.343z" fill="#d61810" fill-rule="evenodd"/><path d="M333.329 277.167s-.448 3.916-.112 4.14m-.895-7.609s-3.581 4.251-2.797 6.378c.783 2.126 3.581 5.594 3.693 6.49.112.895 1.231-2.126 1.231-2.126m.11 4.476s.112 1.902-1.567 1.79c-1.678-.112 2.909.113 2.685 1.902-.224 1.791-3.021 1.231-3.021 1.231m3.917 2.126c-.112 0-.448 1.791 1.455 1.679m-11.077-5.932s-2.462 2.015-3.916 1.679" stroke="#000" stroke-width=".734" fill="none"/><path d="M325.384 292.608s-1.119 7.498-2.797 8.505c-1.678 1.007 4.14-.113 5.371-2.909 1.231-2.798.671 5.594-2.35 8.615 3.357-1.566 5.371.336 6.714-5.819-.112 10.519 5.035 13.651 5.035 13.651l.671-3.469" stroke="#000" stroke-width=".734" stroke-linejoin="round" fill="none"/><path d="M336.35 303.349c-.112.112.895 6.714 4.14 6.378 3.245-.335-1.455-8.392-1.455-8.392m3.805.448s0 5.259 1.567 5.371c1.567.112-.56-5.148-.56-5.148m2.238 0s2.014 6.043 1.119 9.848m-5.036-.113c.448.672 2.35 4.141 3.469 4.588" stroke="#000" stroke-width=".734" fill="none"/><path d="M346.532 278.733c-.224-.112-5.259-3.021-6.825.895m2.685-1.119l-2.126 1.231" stroke="#000" stroke-width="NaN" fill="none"/><path d="M337.692 289.587s-1.007 5.595 7.161 5.035" stroke="#000" stroke-width=".734" fill="none"/><path d="M306.922 310.511s1.678 1.791 1.119 4.252c-.559 2.462-2.909 5.258-4.252 6.153-1.343.895 9.063 6.602 11.749 6.043 2.685-.56-4.028.446-3.245 2.126.783 1.678 1.902 3.133 3.469 2.685 1.567-.446 2.126-2.796 2.126-2.796s-1.567 4.587-.224 6.042h5.483s-1.007-3.469-2.014-4.028c-1.007-.559 4.14 1.902 4.364 4.812.224 2.909 1.667-1.47 3.804-2.014-.112-.224-1.678-2.909-2.238-2.798-.56.112 1.455-2.127 2.573-1.902 1.119.223.224-3.469.336-3.469.112 0-5.595-.224-5.93 1.79-.336 2.015-8.392-4.476-8.952-6.601-.56-2.126 3.469-3.245 3.133-6.378-.336-3.134-1.343-5.148-2.35-5.931l-4.923-3.467-4.028 5.483z" fill="#0039ad" fill-rule="evenodd" stroke="#000" stroke-width=".734"/><path d="M307.929 309.616c.336-.112 8.84-.671 8.84-.671" stroke="#000" stroke-width=".734" fill="none"/><path d="M330.887 326.375c.551-.137 2.218.025 1.77 3.047-.998-1.294-1.162-.915-1.667-.87l-.103-2.177zm-1.687 8.59c.532.197 1.817 1.273-.257 3.514-.094-1.631-.627-1.594-1.069-1.841-.154-.971.334-1.895 1.327-1.673zm-8.346 1.31c.242.513.821 2.732-2.231 2.881.432-1.369.258-1.869.115-2.356l2.116-.525zm-9.253-6.489c-.54.174-1.87 1.193.108 3.521.164-1.626.503-1.391.956-1.619l-1.063-1.902zm39.664 2.877c-.551-.137-2.218.071-1.77 3.093.998-1.294 2.126-.961 2.631-.915l-.861-2.177zm10.667 6.921c-.07.564-.913 2.336-3.572.83 1.199-.511 1.364-1.029 1.503-1.517l2.068.687zm7.01-5.25c.391.412 1.073 1.941-1.776 3.044.632-1.506.222-1.462-.067-1.879l1.843-1.166z" fill="#f00" fill-rule="evenodd" stroke="#000" stroke-width=".734"/><path d="M358.209 273.882c-.137-.962.025-3.872 3.047-3.091-1.294 1.744-.915 2.029-.869 2.91l-2.177.181z" fill="#f00" fill-rule="evenodd" stroke="#000" stroke-width=".971"/><path d="M368.316 326.834c.568.005 2.141.578.953 3.392-.644-1.502-.897-1.176-1.397-1.257l.444-2.135zm-70.682-3.015c.54.174 2.237.687.994 3.201-.623-1.26-1.604-1.07-2.057-1.298l1.063-1.902z" fill="#f00" fill-rule="evenodd" stroke="#000" stroke-width=".734"/><path d="M293.391 331.482c.318.636.778 2.867-2.015 3.901.767-1.974.149-2.258-.073-2.885l2.088-1.016z" fill="#f00" fill-rule="evenodd" stroke="#000" stroke-width=".841"/><path d="M286.147 334.069c-.006.568-.589 2.138-3.397.936 1.506-.637 1.181-.892 1.265-1.391l2.132.455zm-5.321-12.602c-.486-.293-2.129-.623-2.58 2.399 1.332-.948 1.379-.538 1.848-.348l.732-2.052z" fill="#f00" fill-rule="evenodd" stroke="#000" stroke-width=".734"/><path d="M367.123 274.211c.744-.627 3.295-2.035 4.238.941-2.165-.172-2.206.301-2.929.807l-1.31-1.748zm2.484 9.166c.932-.277 3.507-1.641 1.533-4.061-1.042 1.906-1.46 1.681-2.28 2.008l.746 2.053z" fill="#f00" fill-rule="evenodd" stroke="#000" stroke-width=".971"/><path d="M368.836 290.447c.731.036 2.901-.288 2.106-2.499-1.218 1.092-1.458.827-2.122.854l.015 1.645z" fill="#f00" fill-rule="evenodd" stroke="#000" stroke-width=".731"/><path d="M346.842 199.582l10.294-11.749s1.455-1.791 1.678-3.469c.224-1.678-3.581-4.364-3.804-5.93.097-.786.207-1.596.801-2.981 1.099-.101 1.827.071 2.332.183 1.79 1.902 1.119 3.58 1.119 4.028 0 .448 2.126-.671 2.126-.671s1.231-3.469 2.35-3.693c1.119-.223 1.79.784 2.014 1.791.224 1.007-1.007 2.798-3.804 4.587-2.797 1.791 4.14-1.678 5.147 1.902.448 2.463-4.588 3.134-4.588 3.134s.56 2.014 2.126 2.126c1.567.112.536.985.872 1.88.336.895-2.886 2.372-5.124-.425-2.238-2.798-7.497 18.799-7.497 18.799s.336 1.678-1.231 1.23c-1.567-.448-4.811-10.406-4.811-10.742zm2.259-46.587c0 2.371 1.925 9.238-9.045 10.007-7.207-.209-7.464-3.255-11.355-3.464-6.159.77-5.389 6.736-5.389 6.736s3.024 6.877-3.079 11.932c-5.227 3.664-9.815 4.426-14.434 2.887-4.619-1.54-22.902-3.849-22.132 3.079.77 6.929 10.777 9.238 10.777 9.238s12.317 2.117 15.396 2.31c3.079.193 10.008-1.732 10.008-1.732s-1.54-1.925-2.502-3.464c-.481-.771 2.71-.214 4.476-.672 1.766-.458 1.324-2.043 2.305-2.398-3.328-.744-5.86-.855-6.09-3.875 2.708.897 3.361.511 4.131.127.77-.385 2.371-4.424 3.911-5.77 1.54-1.348.144-4.894.866-5.461.726-.411 1.762 1.135 2.643 1.703 0 0 5.849.951 4.502 3.645-1.347 2.694 2.117-3.657 5.966-3.271 3.849.384 8.66 2.887 8.66 2.887s.77 2.694-1.347 2.694.77 4.234-.192 4.619c-.962.384-10.97.384-9.238 3.079 1.732 2.695 6.544 3.849 7.891 3.658 1.347-.193 1.732 3.079.192 3.464-1.54.384-4.234.192-3.079 1.154 1.155.963 3.657 4.235 4.234 3.849.577-.384 3.079 1.348 3.464 4.042.385 2.694-.385 5.004-.385 5.004s-2.887-2.887-3.079-3.849c-.192-.962.192 7.121 1.54 7.313 1.347.193.962 3.464 2.502 3.079 1.54-.384-3.464.771-3.849 0-.385-.77-2.887-1.154-2.887-2.502 0-1.347-1.54 3.464-1.54 3.464s16.744 12.703 16.744 12.51c0-.193 2.336-5.693 5.415-1.844.05.774-1.374 4.538-1.374 4.538s2.694 2.309 1.925 3.08c-.77.77-4.042.962-4.811.384-.77-.577 1.925 2.503.577 4.235-1.347 1.732-2.309-.385-3.272-.193-.962.193-3.272-.77-3.079-1.925.192-1.155 2.117-2.694 1.732-3.08-.385-.384-5.196.962-5.389 2.31-.192 1.347-2.887-4.619-2.502-4.812.385-.193 2.502-.962 2.887-.577.385.384-16.166-7.506-16.359-7.699-.192-.193-3.272-.385-4.042-1.732-.77-1.348-1.155-4.235-1.925-5.389-.77-1.155-1.615-4.554-1.347-3.657l1.347 3.079s-3.464-.193-5.389-1.154c-1.925-.962-9.815-5.967-10.393-5.581-.577.384-4.811-3.08-4.811-3.08l.962-2.117c.052-.721-4.811 6.736-5.581 7.121-.77.385-9.815 3.08-12.317 5.39-2.502 2.309-5.389 4.234-4.042 6.158 2.894-2.457 5.774.577 5.966 1.925.192 1.347-3.272 4.426-4.427 3.08-1.155-1.348 2.117 2.309 1.54 3.079s-3.657 2.117-3.849 1.925c-.192-.193-1.54-5.196-1.54-5.196s-2.117 4.619-1.347 5.774c.77 1.154-4.042.77-4.042-1.54 0-2.309 1.732-4.234 1.732-4.234s-1.54-2.694-2.694-2.503c-1.155.193-.192-4.426 3.079-4.041 3.272.384.77-8.661 3.464-9.238 2.694-.578 2.502 1.347 3.849 0 1.347-1.348 9.272-12.691 9.272-12.691s-10.042-.396-10.235-.396c-.192 0 .577-1.347.577-1.347s-6.159-.193-5.966.961c.192 1.155 8.853 5.39-.385 7.891.71-2.292-.192-3.849-.385-3.849-.192 0-4.042-2.502-3.849-5.581.192-3.08 7.506-2.694 7.506-2.694s-8.276-5.967-8.083-10.586c.192-4.619 9.623-8.66 9.623-8.66s3.079-1.925 3.272-3.849c.192-1.925-2.117-8.852 8.083-7.699-2.376 1.773-2.694 3.657-2.694 3.657s-.385 7.699-3.272 8.468c-2.887.77 6.351.385 6.351.385s1.925.577 3.272-1.348c1.347-1.925-1.155-8.852 7.891-9.238-1.882 2.708-1.732 4.812-1.732 4.812s1.732 5.774-4.042 7.699c-5.774 1.925 14.242 2.887 14.819-6.351s-8.465-9.623-9.238-9.623c-1.031.103-6.361 1.268-8.66-.385-1.732-2.116-5.973-9.069-7.506-13.471 6.611 1.886 5.004 4.426 7.891 5.774 2.887 1.347 17.898.577 18.668 7.121 2.058-6.806 9.045-7.506 9.045-7.506 2.732.103 7.416 2.294 12.228 3.255 4.605.189 5.87-2.237 7.018-3.255z" fill="#0039ad" fill-rule="evenodd" stroke="#000" stroke-width=".734"/><path d="M340.129 189.176c.112 0 .224-1.455 6.266-1.902 6.042-.448 4.7-4.364 5.259-5.819.56-1.455 2.574 2.573 2.462 4.252-.112 1.678-3.916 4.587-7.945 4.812-4.028.223-6.154-1.455-6.042-1.343z" fill="#d61810" fill-rule="evenodd"/><path d="M330.73 177.875s-.448 3.916-.112 4.14m-.895-7.609s-3.581 4.251-2.797 6.378c.783 2.126 3.581 5.594 3.693 6.49.112.895 1.231-2.126 1.231-2.126m.11 4.476s.112 1.902-1.567 1.79c-1.678-.112 2.909.113 2.685 1.902-.224 1.791-3.021 1.231-3.021 1.231m3.917 2.126c-.112 0-.448 1.791 1.455 1.679m-11.077-5.932s-2.462 2.015-3.916 1.679" stroke="#000" stroke-width=".734" fill="none"/><path d="M322.785 193.316s-1.119 7.498-2.797 8.505c-1.678 1.007 4.14-.113 5.371-2.909 1.231-2.798.671 5.594-2.35 8.615 3.357-1.566 5.371.336 6.714-5.819-.112 10.519 5.035 13.651 5.035 13.651l.671-3.469" stroke="#000" stroke-width=".734" stroke-linejoin="round" fill="none"/><path d="M333.751 204.057c-.112.112.895 6.714 4.14 6.378 3.245-.335-1.455-8.392-1.455-8.392m3.805.448s0 5.259 1.567 5.371c1.567.112-.56-5.148-.56-5.148m2.238 0s2.014 6.043 1.119 9.848m-5.036-.113c.448.672 2.35 4.141 3.469 4.588" stroke="#000" stroke-width=".734" fill="none"/><path d="M343.933 179.441c-.224-.112-5.259-3.021-6.825.895m2.685-1.119l-2.126 1.231" stroke="#000" stroke-width="NaN" fill="none"/><path d="M335.093 190.295s-1.007 5.595 7.161 5.035" stroke="#000" stroke-width=".734" fill="none"/><path d="M304.323 211.219s1.678 1.791 1.119 4.252c-.559 2.462-2.909 5.258-4.252 6.153-1.343.895 9.063 6.602 11.749 6.043 2.685-.56-4.028.446-3.245 2.126.783 1.678 1.902 3.133 3.469 2.685 1.567-.446 2.126-2.796 2.126-2.796s-1.567 4.587-.224 6.042h5.483s-1.007-3.469-2.014-4.028c-1.007-.559 4.14 1.902 4.364 4.812.224 2.909 1.667-1.47 3.804-2.014-.112-.224-1.678-2.909-2.238-2.798-.56.112 1.455-2.127 2.573-1.902 1.119.223.224-3.469.336-3.469.112 0-5.595-.224-5.93 1.79-.336 2.015-8.392-4.476-8.952-6.601-.56-2.126 3.469-3.245 3.133-6.378-.336-3.134-1.343-5.148-2.35-5.931l-4.923-3.467-4.028 5.483z" fill="#0039ad" fill-rule="evenodd" stroke="#000" stroke-width=".734"/><path d="M305.33 210.324c.336-.112 8.84-.671 8.84-.671" stroke="#000" stroke-width=".734" fill="none"/><path d="M328.288 227.083c.551-.137 2.218.025 1.77 3.047-.998-1.294-1.162-.915-1.667-.87l-.103-2.177zm-1.687 8.59c.532.197 1.817 1.273-.257 3.514-.094-1.631-.627-1.594-1.069-1.841-.154-.971.334-1.895 1.327-1.673zm-8.346 1.31c.242.513.821 2.732-2.231 2.881.432-1.369.258-1.869.115-2.356l2.116-.525zm-9.253-6.489c-.54.174-1.87 1.193.108 3.521.164-1.626.503-1.391.956-1.619l-1.063-1.902zm39.664 2.877c-.551-.137-2.218.071-1.77 3.093.998-1.294 2.126-.961 2.631-.915l-.861-2.177zm10.667 6.921c-.07.564-.913 2.336-3.572.83 1.199-.511 1.364-1.029 1.503-1.517l2.068.687zm7.01-5.25c.391.412 1.073 1.941-1.776 3.044.632-1.506.222-1.462-.067-1.879l1.843-1.166z" fill="#f00" fill-rule="evenodd" stroke="#000" stroke-width=".734"/><path d="M355.61 174.59c-.137-.962.025-3.872 3.047-3.091-1.294 1.744-.915 2.029-.869 2.91l-2.177.181z" fill="#f00" fill-rule="evenodd" stroke="#000" stroke-width=".971"/><path d="M365.717 227.542c.568.005 2.141.578.953 3.392-.644-1.502-.897-1.176-1.397-1.257l.444-2.135zm-70.682-3.015c.54.174 2.237.687.994 3.201-.623-1.26-1.604-1.07-2.057-1.298l1.063-1.902z" fill="#f00" fill-rule="evenodd" stroke="#000" stroke-width=".734"/><path d="M290.792 232.19c.318.636.778 2.867-2.015 3.901.767-1.974.149-2.258-.073-2.885l2.088-1.016z" fill="#f00" fill-rule="evenodd" stroke="#000" stroke-width=".841"/><path d="M283.548 234.777c-.006.568-.589 2.138-3.397.936 1.506-.637 1.181-.892 1.265-1.391l2.132.455zm-5.321-12.602c-.486-.293-2.129-.623-2.58 2.399 1.332-.948 1.379-.538 1.848-.348l.732-2.052z" fill="#f00" fill-rule="evenodd" stroke="#000" stroke-width=".734"/><path d="M364.524 174.919c.744-.627 3.295-2.035 4.238.941-2.165-.172-2.206.301-2.929.807l-1.31-1.748zm2.484 9.166c.932-.277 3.507-1.641 1.533-4.061-1.042 1.906-1.46 1.681-2.28 2.008l.746 2.053z" fill="#f00" fill-rule="evenodd" stroke="#000" stroke-width=".971"/><path d="M366.237 191.155c.731.036 2.901-.288 2.106-2.499-1.218 1.092-1.458.827-2.122.854l.015 1.645z" fill="#f00" fill-rule="evenodd" stroke="#000" stroke-width=".731"/></g></svg>