<svg xmlns="http://www.w3.org/2000/svg" width="210mm" height="140mm"><g font-size="12" fill-rule="evenodd"><path fill="#fff" d="M0 124.016h744.094v248.031h-744.094z"/><path fill="#f00" d="M0 0h744.094v124.016h-744.094zm0 372.047h744.094v124.016h-744.094z"/></g><path d="M332.222 170.268c-.078-1.003.563-6.246-2.401-6.459.502 3.711-.383 5.452-.275 5.282.107-.171-2.104-5.479-4.882-4.859 1.966 2.916 2.062 5.957 2.062 5.957s-3.094-4.704-6.041-2.879c2.643 2.033 3.263 4.814 3.263 4.814s-3.162-3.165-6.456-1.474c2.957 1.431 4.575 3.499 4.404 3.39-.169-.108-4.571-.873-5.295.455 2.117.984 5.773 1.894 5.773 1.894s8.891-5.178 9.847-6.122zm-4.321 51.377c-.388-.929-1.649-5.731-4.531-5.005 1.743 3.024 1.62 5.428 1.669 5.233.048-.195-3.99-4.676-6.435-3.217 2.779 2.154 3.823 5.013 3.823 5.013s-4.411-3.501-6.639-.845c3.147 1.105 4.606 3.55 4.606 3.55s-4.219-1.792-6.593.62c3.662.302 5.44 1.892 5.244 1.843-.195-.05-4.615.6-4.887 2.089 2.319.273 5.708 2.062 5.708 2.062s7.421-10.149 8.033-11.344zm8.658 91.185c-.647-.771-3.967-3.749-6.503-2.199 3.276 2.744 3.883 4.057 3.872 3.855-.012-.2-5.495-2.349-7.395-.228 3.294 1.23 4.714 2.796 4.714 2.796s-4.398-.892-5.735 2.306c3.333.118 4.599.881 4.599.881s-2.568-.455-4.117 2.553c3.586-.802 3.763.188 3.562.199-.201.011-2.092 2.23-1.909 3.733 2.295-.429 6.063-.724 5.067-.724.712-1.851 3.617-11.847 3.846-13.171zm64.182 17.376c-.997-.143-5.837-.57-6.691 2.277 4.271-.143 5.98.854 5.837.711-.143-.142-6.548 1.567-6.548 4.414 3.274-1.282 6.264-.713 6.264-.713s-5.267 1.993-4.128 5.267c2.561-2.136 5.41-2.134 5.41-2.134s-3.701 2.704-2.847 5.978c2.136-2.99 4.413-3.701 4.27-3.558-.143.142-1.85 4.27-.711 5.267 1.423-1.851 4.697-3.844 4.697-3.844s-4.839-12.527-5.551-13.665z" font-size="12" fill="#8b0000" fill-rule="evenodd" stroke="#000" stroke-width="NaN"/><path d="M422.009 161.304s1.381 5.982.921 11.964c-.46 5.982-4.602 12.424-4.141 14.264.46 1.841 3.22 6.902 2.76 10.583-.46 3.681-4.91 20.834-6.442 24.387.46 3.221 1.841 33.591 7.823 44.174 9.633 6.932 6.185 13.986 6.185 13.986s-2.965-1.101-2.965-.641c0 .46 0 9.663.461 30.369 1.788 6.765 3.68 10.485 3.68 13.804l-14.264 15.184s-6.902 5.522-9.202 4.602c-11.263-1.917-5.522-13.804-5.522-13.804l8.742-3.221.921-4.141s-19.326-10.047-24.387-37.656c-.415 5.252 3.22 15.569 3.22 15.569s-23.927 5.522-24.387 27.149c-.128 19.634-13.525 6.668-15.848 5.008-5.564-1.16-10.797-1.987-15.698-5.469-1.328-1.659-5.725-14.264 3.938-14.264 4.352 1.659 8.283 6.442 8.283 6.442s5.522-2.76 5.062-3.22c-.46-.46-8.743-33.591 23.927-49.236-.191-.376 5.062 4.602 5.062 4.602s-11.504-11.044-10.583-23.468c6.231-4.789 6.902-3.681 6.902-3.681l-18.406 6.903s-22.087 11.043-40.952-18.407c2.709-13.848 11.964-11.043 11.964-11.043l4.141 6.902s2.301 5.522 11.964 4.602c7.671-8.555 26.688-15.185 26.228-15.185h-7.362s1.38-19.786 19.786-28.529c18.405-8.743-4.141-5.982-4.141-5.982s-5.982-1.841-2.761-6.442c6.54.377 13.344 2.301 13.344 2.301l-.105-3.734-2.655-3.629s3.681 3.221 3.681 2.762c0-.461 1.532-4.605-6.29-6.445-9.506-1.841-13.802-7.695-12.116-14.134 7.023-.286 11.504 1.253 11.504 1.253s6.902-8.282 17.025-7.363c10.123.921 12.424 2.762 12.424 2.762s12.885-7.823 8.282 10.123z" font-size="12" fill-rule="evenodd" stroke="#000" stroke-width="1.462" stroke-linejoin="round"/><path d="M361.193 217.34c1.046-6.153 3.507-12.557 8.333-19.372-8.962-2.656-24.401-8.871-25.065-9.203-.664-.331-7.302-1.659-7.302-8.298 0-6.638-2.987-10.29-2.987-10.29s-12.613-4.978-12.613 6.639 10.622 24.562 15.269 27.881c4.647 3.319 19.387 12.642 24.366 12.642z" font-size="12" fill-rule="evenodd" stroke="#000" stroke-width="NaN"/><path d="M417.817 152.254s-4.979 1.328-5.643 5.643" font-size="12" stroke="#fff" stroke-width="1.462" stroke-linecap="round" fill="none"/><path d="M387.988 157.042c.852-1.81 3.501-2.703 5.611-2.091 2.111.613 3.681 2.729 2.377 6.937-2.077-1.119-3.155-2.012-3.508-3.715-2.377.267-4.452-1.024-4.479-1.13z" font-size="12" fill="#fff" fill-rule="evenodd" stroke="#000" stroke-width="NaN" stroke-linejoin="round"/><path d="M377.395 178.889l1.139-2.906.712 3.047 2.811-2.701 2.029 3.412 1.61-2.901s1.948.908 1.948 3.471c-3.986-1.993-10.534-1.139-10.249-1.423zm-2.035-15.267c-.142 2.561-.952 3.732.899 5.297 1.851-2.42 1.237-3.874 1.237-3.874s.899 4.729 2.465 5.013c1.708-2.42 1.806-4.159 1.806-4.159s.472 3.447 1.895 4.302c2.99-1.993 2.945-1.882 2.945-1.882-3.606-.427-7.07-2.134-11.245-4.697z" font-size="12" fill="#fff" fill-rule="evenodd" stroke="#000" stroke-width=".731" stroke-linejoin="round"/><path d="M367.573 165.934c.142.286 3.986 3.986 8.826 4.27 4.84.286 15.03.353 15.264 3.698.607 4.279-8.289.289-8.289.289s-10.391-.284-10.818-.284c-.427 0-6.406 0-4.982-7.972z" font-size="12" fill="#f00" fill-rule="evenodd" stroke="#000" stroke-width="1.462" stroke-linejoin="round"/><path d="M384.513 172.482c.285 0 6.406 2.278 6.406 2.278" font-size="12" stroke="#000" stroke-width="1.462" stroke-linecap="round" fill="none"/><path d="M386.719 285.822s-.5 8.82 3.502 16.114m-16.145-35.3s2.323 3.189 6.201 5.603m-12.23-23.33s7.488-3.399 7.948-3.86" font-size="12" stroke="#fff" stroke-width="1.462" stroke-linecap="round" fill="none"/></svg>