<svg xmlns="http://www.w3.org/2000/svg" width="210mm" height="140mm"><path font-size="12" fill="#fff" fill-rule="evenodd" d="M0 434.055h62.008v62.008h-62.008z"/><path font-size="12" fill="#f00" fill-rule="evenodd" d="M0 372.047h62.008v62.008h-62.008z"/><path font-size="12" fill="#fff" fill-rule="evenodd" d="M0 310.039h62.008v62.008h-62.008z"/><path font-size="12" fill="#f00" fill-rule="evenodd" d="M0 248.031h62.008v62.008h-62.008z"/><path font-size="12" fill="#fff" fill-rule="evenodd" d="M0 186.024h62.008v62.008h-62.008z"/><path font-size="12" fill="#f00" fill-rule="evenodd" d="M0 124.016h62.008v62.008h-62.008z"/><path font-size="12" fill="#fff" fill-rule="evenodd" d="M0 62.008h62.008v62.008h-62.008z"/><path font-size="12" fill="#f00" fill-rule="evenodd" d="M0 0h62.008v62.008h-62.008zm62.008 434.055h62.008v62.008h-62.008z"/><path font-size="12" fill="#fff" fill-rule="evenodd" d="M62.008 372.047h62.008v62.008h-62.008z"/><path font-size="12" fill="#f00" fill-rule="evenodd" d="M62.008 310.039h62.008v62.008h-62.008z"/><path font-size="12" fill="#fff" fill-rule="evenodd" d="M62.008 248.031h62.008v62.008h-62.008z"/><path font-size="12" fill="#f00" fill-rule="evenodd" d="M62.008 186.024h62.008v62.008h-62.008z"/><path font-size="12" fill="#fff" fill-rule="evenodd" d="M62.008 124.016h62.008v62.008h-62.008z"/><path font-size="12" fill="#f00" fill-rule="evenodd" d="M62.008 62.008h62.008v62.008h-62.008z"/><path font-size="12" fill="#fff" fill-rule="evenodd" d="M62.008 0h62.008v62.008h-62.008zm62.008 434.055h620.079v62.008h-620.079z"/><path font-size="12" fill="#f00" fill-rule="evenodd" d="M124.016 372.047h620.079v62.008h-620.079z"/><path font-size="12" fill="#fff" fill-rule="evenodd" d="M124.016 310.039h620.079v62.008h-620.079z"/><path font-size="12" fill="#f00" fill-rule="evenodd" d="M124.016 248.031h620.079v62.008h-620.079z"/><path font-size="12" fill="#fff" fill-rule="evenodd" d="M124.016 186.024h620.079v62.008h-620.079z"/><path font-size="12" fill="#f00" fill-rule="evenodd" d="M124.016 124.016h620.079v62.008h-620.079z"/><path font-size="12" fill="#fff" fill-rule="evenodd" d="M124.016 62.008h620.079v62.008h-620.079z"/><path font-size="12" fill="#f00" fill-rule="evenodd" d="M124.016 0h620.079v62.008h-620.079z"/></svg>