<svg xmlns="http://www.w3.org/2000/svg" width="210mm" height="140mm"><path font-size="12" fill="#f00" fill-rule="evenodd" d="M0 .006h744.095v496.063h-744.095z"/><path font-size="12" fill="#fff" fill-rule="evenodd" stroke="#000" stroke-width="2.297pt" d="M412.356 137.952h58.786v125.847h-58.786zm-69.344 0h58.786v125.847h-58.786zm-68.774 0h58.786v125.847h-58.786z"/><path font-size="12" fill="#fff" fill-rule="evenodd" stroke-width="2.871" stroke="#000" stroke-linejoin="round" d="M303.59 102.993l-5.666-10.025-11.516.084 5.85-9.92-5.831-9.93 11.516.105 5.684-10.014 5.666 10.025 11.516-.084-5.847 9.919 5.829 9.93-11.516-.105-5.684 10.014zm138.012.807l-5.666-10.025-11.516.084 5.85-9.92-5.831-9.93 11.516.105 5.684-10.014 5.666 10.025 11.516-.084-5.847 9.919 5.829 9.93-11.516-.105-5.684 10.014z"/><path d="M270.101 109.273l11.734.142-.283 13.841 8.909.142v-14.268h9.474l-.142 14.268h8.527v-14.125l9.856.142-.143 13.983h6.645v-14.268h11.596l.14 27.395c.009 1.925-2.713 2.676-4.95 2.711-18.828.298-37.741.383-56.556 0-2.205-.045-4.807-1.456-4.807-3.424v-26.539z" font-size="12" fill="#fff" fill-rule="evenodd" stroke="#000" stroke-width="2.286pt"/><path d="M408.769 109.273l11.844.142-.287 13.841 8.989.142v-14.268h9.564l-.145 14.268h8.603v-14.125l9.945.142-.14 13.983h6.704v-14.268h11.699l.143 27.395c.009 1.925-2.738 2.676-4.993 2.711-19.001.298-38.089.383-57.073 0-2.228-.045-4.853-1.456-4.853-3.424v-26.539zm-38.047-42.523h4.577l.09 4.665 6.998-.09.089 4.845-6.998.179v10.676c5.069.224 9.329 6.549 8.477 12.246l-22.181-.336c-.666-5.465 3.153-11.558 8.769-11.82l.089-10.766-6.727-.09v-4.844h6.727l.09-4.665zm29.783 58.114h-55.194c0-15.234 12.366-27.597 27.597-27.597 15.234 0 27.597 12.363 27.597 27.597zm-139.933 114.769l-.379 30.342h221.505l.379-30.342h-19.152l.039 15.93-13.445.089-.059-16.019h-18.397l-.138 15.909-13.463.028.046-15.836-19.065-.005-.099 15.724h-14.793l-.468-15.82-18.755.101.08 15.808h-15.36l-.009-15.751-19.171-.117.285 15.91h-14.607l-.064-15.841-17.738-.009v15.939l-14.981-.179-.191-15.861h-22z" font-size="12" fill="#fff" fill-rule="evenodd" stroke="#000" stroke-width="2.297pt"/><path d="M340.288 124.726l64.055-.143.136 11.942c.023 1.925-2.623 2.676-4.794 2.711-18.224.298-36.531.383-54.744 0-2.136-.045-4.653-1.456-4.653-3.424v-11.086z" font-size="12" fill="#fff" fill-rule="evenodd" stroke="#000" stroke-width="2.249pt"/><path d="M237.614 435.812l268.967-1.097.551-19.802c-20.351-27.501-27.503-101.207-26.403-145.209h-218.912s9.901 71.503-23.652 147.409l-.551 18.699z" font-size="12" fill="#fff" fill-rule="evenodd" stroke="#000" stroke-width="2.297pt"/><path d="M237.614 416.562l270.067-1.101" font-size="12" stroke="#000" stroke-width="2.297pt" fill="none"/><path d="M415.827 434.715l-85.256.273v-97.082c6.601-49.041 79.748-48.862 84.704.552l.552 96.257z" font-size="12" fill="#fff" fill-rule="evenodd" stroke="#000" stroke-width="2.297pt"/><path d="M343.772 436.364v-88.035c4.527-43.851 54.698-43.69 58.1.491l.753 87.544" font-size="12" stroke="#000" stroke-width="1.799pt" fill="none"/><path d="M373.473 315.906l.551 120.458" font-size="12" stroke="#000" stroke-width="2.297pt" fill="none"/><path d="M356.078 406.247l.09 7.538c-2.334.089-4.755-.717-4.844-2.602l-6.64.089v-2.602h6.55c-.268-1.794 1.794-2.781 4.844-2.423zm34.092 0c-.03 2.513-.06 5.025-.089 7.538 2.333.089 4.754-.717 4.843-2.602l6.64.089v-2.602h-6.55c.269-1.794-1.794-2.781-4.844-2.423zm0-62.172l-.092 7.538c2.336.09 4.755-.716 4.846-2.602l6.638.09v-2.603h-6.55c.271-1.793-1.792-2.781-4.842-2.423zm-34.186.18l.092 7.537c-2.336.09-4.754-.716-4.846-2.602l-6.638.09v-2.602h6.55c-.271-1.794 1.792-2.782 4.842-2.423z" fill-rule="evenodd"/></svg>