<!DOCTYPE svg PUBLIC "-//W3C//DTD SVG 20010904//EN"
"http://www.w3.org/TR/2001/REC-SVG-20010904/DTD/svg10.dtd"
[
 <!ATTLIST svg
  xmlns:xlink CDATA #FIXED "http://www.w3.org/1999/xlink">
]><svg xmlns="http://www.w3.org/2000/svg" width="210mm" height="140mm"><path font-size="12" fill="#fff" fill-rule="evenodd" d="M0 0h744.094v496.063h-744.094z"/><path font-size="12" fill="#00f" fill-rule="evenodd" d="M0 0h336.614v212.598h-336.614z"/><path font-size="12" fill-rule="evenodd" d="M124.016 0h70.866v212.598h-70.866zm-124.016 70.866h336.614v70.866h-336.614z"/><path font-size="12" fill="#f00" fill-rule="evenodd" d="M336.614 0h70.866v496.063h-70.866zm-336.614 212.598h744.095v70.866h-744.095zm141.732-212.598h35.433v212.598h-35.433zm-141.732 88.583h336.614v35.433h-336.614z"/><path font-size="12" fill="#fff" fill-rule="evenodd" d="M67.915 60.236l-5.146-9.339-10.061 3.531 2.965-10.242-9.611-4.617 9.339-5.146-3.531-10.061 10.242 2.965 4.617-9.611 5.146 9.339 10.061-3.531-2.965 10.242 9.611 4.617-9.339 5.145 3.531 10.061-10.242-2.965-4.617 9.611zm194.882 0l-5.146-9.339-10.061 3.531 2.965-10.242-9.611-4.617 9.339-5.146-3.531-10.061 10.242 2.965 4.617-9.611 5.146 9.339 10.061-3.531-2.965 10.242 9.611 4.617-9.339 5.145 3.531 10.061-10.242-2.965-4.617 9.611zm-194.882 141.733l-5.146-9.339-10.061 3.531 2.965-10.242-9.611-4.617 9.339-5.146-3.531-10.061 10.242 2.965 4.617-9.611 5.146 9.339 10.061-3.531-2.965 10.242 9.611 4.617-9.339 5.145 3.531 10.061-10.242-2.965-4.617 9.611zm194.882 0l-5.146-9.339-10.061 3.531 2.965-10.242-9.611-4.617 9.339-5.146-3.531-10.061 10.242 2.965 4.617-9.611 5.146 9.339 10.061-3.531-2.965 10.242 9.611 4.617-9.339 5.145 3.531 10.061-10.242-2.965-4.617 9.611z"/></svg>