<svg width="22cm" height="14cm" xmlns="http://www.w3.org/2000/svg"><defs><marker viewBox="0 0 10 10" refY="5" markerWidth="4" orient="auto"><path d="M0 0l10 5-10 5z"/></marker><marker viewBox="0 0 10 10" refX="10" refY="5" markerWidth="4" orient="auto"><path d="M10 0l-10 5 10 5z"/></marker></defs><g font-size="12"><path d="M0 496.063h779.527v-496.063h-779.527v496.063z" fill="#de0028"/><path d="M22.12 226.803h324.401v-206.363h-324.401v206.363z" stroke="#de0028" stroke-width=".4" transform="matrix(2.403 0 0 2.404 -53.154 -49.134)" fill="none"/><path d="M177.873 142.635l-13.678 42.813-44.864.548 36.384 25.999-13.13 41.87 35.288-25.725 35.834 25.177-13.678-41.87 35.836-26.545-44.042.543-13.949-42.81" fill="#fff"/><path d="M96.141 79.771l-5.692 17.809-18.67.228 15.141 10.815-5.464 17.417 14.685-10.701 14.912 10.473-5.692-17.417 14.913-11.042-18.328.226-5.805-17.808" stroke="#fff" stroke-width=".085" transform="matrix(2.403 0 0 2.404 -53.154 -49.134)" fill="none"/><path d="M319.128 142.635l-13.678 42.813-44.862.548 36.381 25.999-13.13 41.87 35.288-25.725 35.836 25.177-13.678-41.87 35.836-26.545-44.042.543-13.952-42.81" fill="#fff"/><path d="M154.924 79.771l-5.692 17.809-18.669.228 15.14 10.815-5.464 17.417 14.685-10.701 14.913 10.473-5.692-17.417 14.913-11.042-18.328.226-5.806-17.808" stroke="#fff" stroke-width=".085" transform="matrix(2.403 0 0 2.404 -53.154 -49.134)" fill="none"/><path d="M461.026 142.635l-13.678 42.813-44.862.548 36.381 25.999-13.13 41.87 35.288-25.725 35.836 25.177-13.678-41.87 35.836-26.545-44.042.543-13.952-42.81" fill="#fff"/><path d="M213.974 79.771l-5.692 17.809-18.669.228 15.14 10.815-5.464 17.417 14.685-10.701 14.913 10.473-5.692-17.417 14.913-11.042-18.328.226-5.806-17.808" stroke="#fff" stroke-width=".085" transform="matrix(2.403 0 0 2.404 -53.154 -49.134)" fill="none"/><path d="M389.656 240.238l-13.678 42.813-44.862.548 36.381 25.999-13.13 41.87 35.288-25.725 35.836 25.177-13.678-41.87 35.836-26.545-44.042.546-13.952-42.813" fill="#fff"/><path d="M184.274 120.371l-5.692 17.809-18.669.228 15.14 10.815-5.464 17.417 14.685-10.701 14.913 10.473-5.692-17.417 14.913-11.042-18.328.227-5.806-17.809" stroke="#fff" stroke-width=".085" transform="matrix(2.403 0 0 2.404 -53.154 -49.134)" fill="none"/><path d="M248.12 240.238l-13.678 42.813-44.862.548 36.381 25.999-13.13 41.87 35.288-25.725 35.836 25.177-13.678-41.87 35.836-26.545-44.042.546-13.952-42.813" fill="#fff"/><path d="M125.374 120.371l-5.692 17.809-18.669.228 15.14 10.815-5.464 17.417 14.685-10.701 14.913 10.473-5.692-17.417 14.913-11.042-18.328.227-5.806-17.809" stroke="#fff" stroke-width=".085" transform="matrix(2.403 0 0 2.404 -53.154 -49.134)" fill="none"/><path d="M531.755 240.238l-13.678 42.813-44.864.548 36.384 25.999-13.13 41.87 35.288-25.725 35.834 25.177-13.675-41.87 35.834-26.545-44.042.546-13.949-42.813" fill="#fff"/><path d="M243.408 120.371l-5.692 17.809-18.67.228 15.141 10.815-5.464 17.417 14.685-10.701 14.912 10.473-5.691-17.417 14.912-11.042-18.328.227-5.805-17.809" stroke="#fff" stroke-width=".085" transform="matrix(2.403 0 0 2.404 -53.154 -49.134)" fill="none"/><path d="M602.723 142.635l-13.678 42.813-44.862.548 36.381 25.999-13.13 41.87 35.288-25.725 35.836 25.177-13.678-41.87 35.836-26.545-44.042.543-13.952-42.81" fill="#fff"/><path d="M272.941 79.771l-5.692 17.809-18.669.228 15.14 10.815-5.464 17.417 14.685-10.701 14.913 10.473-5.692-17.417 14.913-11.042-18.328.226-5.806-17.808" stroke="#fff" stroke-width=".085" transform="matrix(2.403 0 0 2.404 -53.154 -49.134)" fill="none"/></g></svg>