<svg width="21cm" height="14cm" xmlns="http://www.w3.org/2000/svg" xmlns:xlink="http://www.w3.org/1999/xlink"><defs><linearGradient id="a"><stop offset="0"/><stop offset="1" stop-color="#fff"/></linearGradient><marker viewBox="0 0 10 10" refY="5" markerWidth="4" orient="auto"><path d="M0 0l10 5-10 5z"/></marker><marker viewBox="0 0 10 10" refX="10" refY="5" markerWidth="4" orient="auto"><path d="M10 0l-10 5 10 5z"/></marker><linearGradient xlink:href="#a"/><linearGradient xlink:href="#a"/><linearGradient xlink:href="#a"/><linearGradient xlink:href="#a"/><linearGradient xlink:href="#a"/><linearGradient xlink:href="#a"/><linearGradient xlink:href="#a"/><linearGradient xlink:href="#a"/><linearGradient xlink:href="#a"/><linearGradient xlink:href="#a"/><linearGradient xlink:href="#a"/><linearGradient xlink:href="#a"/><linearGradient xlink:href="#a"/><linearGradient xlink:href="#a"/></defs><path font-size="12" fill="#99011a" fill-rule="evenodd" d="M0 0h744.094v496.063h-744.094z"/><path d="M604.532 366.384v-.433l-.108-.541v-.433l-.108-.541-.325-.974-.325-1.083-.433-1.083-.433-.974-.541-.974-.541-.974-.974-1.624-.866-1.299-.65-.866-.217-.325.217.108.866.217 1.191.433 1.516.433.866.325.758.433.758.325.758.433.758.433.65.541.65.433.541.65.433.433.217.541v1.191l-.217.325-.217.325-.325.217-.217.217-.325.217-.325.217-.217.108-.541.108-.217.108v.108l.108.433.108.541.325.541.108.325.217.433.325.217.325.217.325.217.541.217.433.108h1.3l.65-.108.541-.217.541-.217.433-.325.433-.217.325-.325.325-.325.541-.758.433-.541.217-.433v-.108l.108.108.217.433.325.65.65.65.325.433.325.325.433.325.541.325.541.217.541.108.65.217h1.949l.541-.108.433-.108.325-.108.325-.108.325-.108.108-.217.217-.217.108-.108.108-.217v-.217l.108-.433v-.866l-.108-.433-.108-.217v-.217l-.217-.108-.108-.108-.217-.108-.217-.108-.325-.108h-.325l-.433.108h-.433l-.541.108-.541.217v-.108l.217-.433.108-.65.433-.65.217-.325.217-.325.217-.217.325-.217.325-.217.325-.217.433-.108h.325v-.108l.217-.433.325-.541.325-.65.433-.541.433-.541.325-.217.217-.217.325-.108h.433l.325.108.217.217.325.217.541.541.433.541.325.65.325.541.217.433v.108h.433l.325.108.325.217.325.217.325.217.217.217.325.325.108.325.433.65.217.65.217.433v.108l-.65-.217-.541-.108h-.433l-.433-.108h-.325l-.325.108-.217.108-.217.108-.108.108-.217.108-.108.217v.217l-.108.433v.866l.108.433v.217l.108.217.108.108.217.217.217.217.217.108.325.108.325.108.433.108.541.108h1.949l.65-.217.541-.108.65-.217.433-.325.433-.325.325-.325.433-.433.541-.65.325-.65.325-.433v-.108.108l.325.433.325.541.541.758.325.325.325.325.433.217.433.325.541.217.541.217.65.108h1.3l.541-.108.433-.217.433-.217.217-.217.325-.217.217-.433.217-.325.217-.541.108-.541.108-.433v-.108l-.217-.108-.433-.108-.325-.108-.325-.217-.217-.217-.325-.217-.325-.217-.217-.325-.217-.325v-.758l.108-.433.217-.541.325-.433.541-.65.65-.433.65-.541.758-.433.758-.433.866-.325.758-.433.758-.325 1.516-.433 1.191-.433.866-.217.325-.108-.325.325-.541.866-.866 1.299-1.083 1.624-.541.974-.433.974-.541.974-.433 1.083-.325 1.083-.217.974-.108.541-.108.433v12.774h-44.6v-11.8m-.016 31.61v-.541l-.108-.541v-.433l-.108-.541-.325-1.083-.325-1.083-.433-.974-.433-1.083-.541-.974-.541-.974-.974-1.624-.866-1.407-.65-.866-.217-.325.217.108.866.325 1.191.433 1.516.541.866.325.758.325.758.433.758.433.758.433.65.541.65.541.541.541.433.541.217.433v1.299l-.217.325-.217.217-.325.325-.217.217-.325.217-.325.108-.217.108-.541.217h-.217v.217l.108.325.108.541.325.65.108.325.217.325.325.325.325.217.325.217.541.108.433.108.65.108.65-.108.65-.108.541-.217.541-.217.433-.217.433-.433.325-.325.325-.325.541-.65.433-.65.217-.433v-.217l.108.217.217.433.325.65.65.65.325.325.325.325.433.433.541.217.541.217.541.217.65.108.65.108h.758l.541-.108h.541l.433-.108.325-.108.325-.217.325-.108.108-.108.217-.217.108-.217.108-.217v-.108l.108-.433v-.866l-.108-.433-.108-.108v-.217l-.217-.108-.108-.217-.217-.108-.217-.108h-.325l-.325-.108-.433.108h-.433l-.541.108-.541.108v-.108l.217-.325.108-.65.433-.541.217-.325.217-.325.217-.217.325-.325.325-.108.325-.108.433-.108h.325v-.217l.217-.433.325-.541.325-.65.433-.65.433-.65.325-.217.217-.217h.325l.108-.108.325.108h.325l.217.217.325.217.541.65.433.65.325.65.325.541.217.433v.217h.433l.325.108.325.108.325.108.325.325.217.217.325.325.108.325.433.541.217.65.217.325v.108l-.65-.108-.541-.108h-.433l-.433-.108-.325.108h-.325l-.217.108-.217.108-.108.217-.217.108-.108.217v.108l-.108.433v.866l.108.433v.108l.108.217.108.217.217.217.217.108.217.108.325.217.325.108.433.108h.541l.541.108h.758l.65-.108.65-.108.541-.217.65-.217.433-.217.433-.433.325-.325.433-.325.541-.65.325-.65.325-.433v-.217.217l.325.433.325.65.541.65.325.325.325.325.433.433.433.217.541.217.541.217.65.108.65.108.65-.108.541-.108.433-.108.433-.217.217-.217.325-.325.217-.325.217-.325.217-.65.108-.541.108-.325v-.217h-.217l-.433-.217-.325-.108-.325-.108-.217-.217-.325-.217-.325-.325-.217-.217-.217-.325v-.866l.108-.433.217-.433.325-.541.541-.541.65-.541.65-.541.758-.433.758-.433.866-.433.758-.325.758-.325 1.516-.541 1.191-.433.866-.325.325-.108-.325.325-.541.866-.866 1.407-1.083 1.624-.541.974-.433.974-.541 1.083-.433.974-.325 1.083-.217 1.083-.108.541-.108.433v12.557h-44.6v-11.475m33.65 31.285v-.974l-.108-.541-.108-.433-.325-1.083-.325-.974-.433-1.083-.433-.974-.541-.974-.433-.974-1.083-1.624-.866-1.299-.65-.866-.217-.325.217.108.974.217 1.083.433 1.516.541.866.325.758.325.758.433.758.433.758.433.758.433.65.433.433.541.433.541.217.541.108.433v.433l-.108.433-.217.325-.217.325-.325.217-.217.325-.325.217-.325.108-.217.108-.541.217-.108.108v.433l.108.541.325.541.108.325.217.325.325.217.325.325.325.217.541.108.433.108h1.3l.65-.108.541-.217.541-.217.433-.325.433-.217.325-.325.325-.325.541-.758.433-.541.217-.433v-.108l.108.108.217.433.325.65.65.65.325.433.433.325.325.325.541.325.541.217.65.108.541.217h1.408l.541-.108h.541l.433-.108.325-.108.325-.108.325-.217.217-.108.108-.217.108-.108.108-.217v-.217l.108-.433v-.866l-.108-.325v-.217l-.108-.217-.217-.217-.108-.108-.217-.108-.217-.108h-.325l-.325-.108-.433.108h-.433l-.541.108-.541.217v-.217l.217-.433.217-.541.325-.65.217-.325.217-.325.217-.217.325-.325.325-.217.325-.108.433-.108h.325l.108-.108.108-.433.325-.541.325-.65.433-.541.541-.65.217-.108.217-.217.325-.108h.434l.325.108.325.217.217.108.541.65.433.541.325.65.325.541.217.433v.108h.433l.325.108.325.108.325.217.325.325.217.217.325.325.217.325.325.65.217.541.217.433v.217l-.65-.217-.541-.108h-.433l-.433-.108-.325.108h-.217l-.325.108-.217.108-.108.108-.108.217-.108.217-.108.217v1.624l.108.217v.217l.108.108.217.217.217.108.217.217.325.108.325.108.433.108h.541l.65.108h1.3l.65-.217.541-.108.65-.217.433-.325.433-.325.325-.325.433-.433.541-.65.325-.65.325-.433v-.108l.108.108.217.433.325.541.541.758.325.325.433.325.325.217.541.325.433.217.541.217.65.108h1.3l.541-.108.433-.108.433-.217.217-.325.325-.217.217-.325.217-.325.217-.541.108-.541.108-.325v-.108l-.217-.108-.433-.217-.325-.108-.217-.108-.325-.217-.325-.325-.325-.217-.217-.325-.108-.325-.108-.433v-.433l.108-.433.108-.217.108-.325.108-.217.217-.325.541-.541.65-.433.65-.433.758-.433.758-.433.866-.433.758-.325.758-.325 1.516-.541 1.191-.433.866-.217.325-.108-.325.325-.541.866-.866 1.299-1.083 1.624-.541.974-.433.974-.433.974-.433 1.083-.433.974-.217 1.083-.108.433-.108.541v12.774h-44.6v-11.8m-33.686 31.612v-.541l-.108-.541v-.433l-.108-.65-.325-.974-.325-1.083-.433-1.083-.433-.974-.541-.974-.541-.974-.974-1.624-.866-1.407-.65-.866-.217-.325.217.108.866.325 1.191.433 1.516.541.866.325.758.325.758.433.758.433.758.433.65.541.65.541.541.541.433.541.217.433v1.299l-.217.217-.217.325-.325.325-.217.217-.325.108-.325.217-.217.108-.541.217h-.217v.217l.108.325.108.541.325.65.108.325.217.325.325.217.325.325.325.217.541.108.433.108.65.108.65-.108.65-.108.541-.217.541-.217.433-.325.433-.325.325-.325.325-.325.541-.758.433-.541.217-.433v-.217l.108.217.217.433.325.65.65.758.325.325.325.433.433.325.541.217.541.325.541.217.65.108.65.108h.758l.541-.108.541-.108h.433l.325-.217.325-.108.325-.108.108-.217.217-.108.108-.217.108-.217v-.325l.108-.433v-.866l-.108-.433-.108-.108v-.217l-.217-.108-.108-.217-.217-.108-.217-.108h-.325l-.325-.108h-.433l-.433.108-.541.108-.541.108v-.108l.217-.433.108-.541.433-.541.217-.325.217-.325.217-.217.325-.325.325-.217.325-.108h.758v-.217l.217-.433.325-.541.325-.65.433-.758.433-.541.325-.217.217-.217h.325l.108-.108.325.108h.325l.217.217.325.217.541.541.433.758.325.65.325.541.217.433v.217h.758l.325.108.325.217.325.325.217.217.325.325.108.325.433.541.217.541.217.433v.108l-.65-.108-.541-.108-.433-.108h-.433l-.325.108h-.325l-.217.108-.217.108-.108.217-.217.108-.108.217v.108l-.108.433v.866l.108.433v.325l.108.217.108.217.217.108.217.217.217.108.325.108.325.217h.433l.541.108.541.108h.758l.65-.108.65-.108.541-.217.65-.325.433-.217.433-.325.325-.433.433-.325.541-.758.325-.65.325-.433v-.217.217l.325.433.325.541.541.758.325.325.325.325.433.325.433.325.541.217.541.217.65.108.65.108.65-.108.541-.108.433-.108.433-.217.217-.325.325-.217.217-.325.217-.325.217-.65.108-.541.108-.325v-.217h-.217l-.433-.217-.325-.108-.325-.217-.217-.108-.325-.217-.325-.325-.217-.325-.217-.217v-.866l.108-.433.217-.433.325-.541.541-.541.65-.541.65-.541.758-.433.758-.433.866-.433.758-.325.758-.325 1.516-.541 1.191-.433.866-.325.325-.108-.325.325-.541.866-.866 1.407-1.083 1.624-.541.974-.433.974-.541.974-.433 1.083-.325 1.083-.217.974-.108.65-.108.433v12.557h-44.6v-11.475" font-size="12" fill="#fc0" stroke="#000" stroke-width=".751" stroke-linejoin="round"/><path d="M666.128 397.994v-.541l-.108-.541-.108-.433-.108-.541-.217-1.083-.325-1.083-.433-.974-.541-1.083-.541-.974-.541-.974-1.083-1.624-.866-1.407-.65-.866-.217-.325.325.108.758.325 1.299.433 1.407.541.758.325.866.325.866.433.758.433.65.433.758.541.65.541.433.541.433.541.217.433.108.433v.433l-.108.433-.217.325-.217.217-.217.325-.325.217-.325.217-.325.108-.325.108-.433.217h-.108v.542l.108.541.325.65.108.325.325.325.325.325.325.217.433.217.433.108.541.108.65.108.65-.108.541-.108.541-.217.541-.217.325-.217.433-.433.325-.325.433-.325.433-.65.433-.65.217-.433.108-.217v.217l.217.433.433.65.541.65.325.325.433.325.325.433.541.217.541.217.541.217.758.108.65.108h.65l.541-.108h.541l.433-.108.433-.108.325-.217.217-.108.217-.108.108-.217.108-.217.108-.217.108-.108v-1.732l-.108-.108-.108-.217-.108-.108-.108-.217-.217-.108-.217-.108h-.325l-.325-.108-.433.108h-.541l-.433.108-.65.108v-.108l.108-.325.325-.65.325-.541.217-.325.217-.325.325-.217.217-.325.325-.108.325-.108.433-.108h.325l.108-.217.217-.433.217-.541.433-.65.433-.65.541-.65.217-.217.217-.217h.325l.325-.108.325.108h.217l.217.217.325.217.433.65.541.65.325.65.325.541.217.433.108.217h.217l.433.108.325.108.217.108.325.325.217.217.217.325.217.325.325.541.217.65.108.325.108.108-.65-.108-.433-.108h-.541l-.325-.108-.433.108h-.325l-.217.108-.217.108-.108.217-.108.108-.108.217-.108.108-.108.433v.866l.108.433v.108l.108.217.108.217.217.217.217.108.217.108.325.217.433.108.325.108h.541l.65.108h.65l.65-.108.65-.108.65-.217.433-.217.541-.217.433-.433.433-.325.325-.325.541-.65.433-.65.108-.433.108-.217.108.217.217.433.325.65.541.65.325.325.433.325.433.433.433.217.541.217.541.217.541.108.758.108.541-.108.541-.108.433-.108.433-.217.325-.217.217-.325.217-.325.217-.325.217-.65.108-.541.108-.325v-.217h-.217l-.433-.217-.325-.108-.217-.108-.325-.217-.325-.217-.217-.325-.325-.217-.108-.325v-.866l.108-.433.217-.433.433-.541.433-.541.65-.541.65-.541.758-.433.758-.433.758-.433.866-.325.758-.325 1.407-.541 1.191-.433.866-.325.325-.108-.217.325-.65.866-.974 1.407-.974 1.624-.541.974-.433.974-.541 1.083-.325.974-.433 1.083-.217 1.083-.108.541-.108.433v12.557h-44.384v-11.475" font-size="12" fill="#fc0" stroke="#1f1a16" stroke-width=".751"/><path d="M543.152 397.994v-.541l-.108-.541-.108-.433-.108-.541-.217-1.083-.325-1.083-.433-.974-.433-1.083-.541-.974-.541-.974-.974-1.624-.974-1.407-.541-.866-.217-.325.217.108.866.325 1.191.433 1.516.541.758.325.758.325.758.433.758.433.758.433.65.541.541.541.541.541.433.541.217.433.217.433v.433l-.108.433-.108.325-.325.217-.217.325-.325.217-.325.217-.217.108-.325.108-.433.217h-.217v.217l.108.325.108.541.217.65.217.325.217.325.217.325.433.217.325.217.541.108.433.108.65.108.65-.108.541-.108.65-.217.433-.217.541-.217.325-.433.433-.325.325-.325.541-.65.325-.65.217-.433.108-.217.108.217.217.433.325.65.65.65.217.325.433.325.433.433.541.217.433.217.65.217.65.108.65.108h.758l.541-.108h.541l.433-.108.325-.108.325-.217.325-.108.217-.108.108-.217.108-.217.108-.217v-.108l.108-.433v-.866l-.108-.433-.108-.108-.108-.217-.108-.108-.108-.217-.217-.108-.217-.108h-.325l-.325-.108-.433.108h-.433l-.541.108-.65.108.108-.108.108-.325.325-.65.217-.541.217-.325.325-.325.108-.217.325-.325.325-.108.325-.108.325-.108h.325l.108-.217.108-.433.325-.541.433-.65.433-.65.541-.65.217-.217.217-.217h.325l.325-.108.217.108h.325l.217.217.217.217.541.65.433.65.433.65.325.541.108.433.108.217h.433l.325.108.325.108.325.108.217.325.325.217.217.325.217.325.325.541.325.65.108.325.108.108-.758-.108-.541-.108h-.433l-.433-.108-.325.108h-.325l-.217.108-.217.108-.108.217-.108.108-.108.217v.108l-.108.433v.866l.108.433v.108l.108.217.108.217.108.217.217.108.325.108.217.217.433.108.433.108h.541l.541.108h.758l.65-.108.65-.108.541-.217.541-.217.433-.217.541-.433.325-.325.325-.325.541-.65.433-.65.217-.433.108-.217.108.217.108.433.433.65.433.65.433.325.325.325.325.433.541.217.433.217.541.217.541.108.65.108.65-.108.541-.108.433-.108.433-.217.433-.217.217-.325.325-.325.108-.325.325-.65.108-.541v-.542h-.108l-.433-.217-.325-.108-.325-.108-.325-.217-.325-.217-.217-.325-.217-.217-.217-.325-.108-.433v-.433l.108-.433.325-.433.325-.541.541-.541.541-.541.65-.541.758-.433.758-.433.866-.433.758-.325.758-.325 1.407-.541 1.191-.433.866-.325.217-.108-.217.325-.65.866-.866 1.407-.974 1.624-.541.974-.541.974-.433 1.083-.433.974-.325 1.083-.325 1.083-.108.541v.433l-.108.541v12.016h-44.275v-11.475m72.191 31.285l.108-.433v-.541l.108-.541v-.433l.325-1.083.325-.974.433-1.083.541-.974.433-.974.541-.974 1.083-1.624.866-1.299.541-.866.325-.325-.325.108-.866.217-1.191.433-1.516.541-.758.325-.866.325-.758.433-.758.433-.758.433-.758.433-.541.433-.541.541-.217.325-.108.217-.217.325-.108.217-.108.433.108.433v.433l.217.325.217.325.325.217.217.325.325.217.325.108.325.108.433.217.217.108v.108l-.108.325-.108.541-.325.541-.108.325-.217.325-.325.217-.325.325-.325.217-.433.108-.65.108h-1.191l-.65-.108-.541-.217-.541-.217-.433-.325-.433-.217-.325-.325-.325-.325-.541-.758-.433-.541-.217-.433v-.108l-.108.108-.217.433-.433.65-.433.65-.433.433-.325.325-.433.325-.541.325-.541.217-.541.108-.65.217h-1.408l-.541-.108h-.541l-.433-.108-.325-.108-.325-.108-.217-.217-.217-.108-.217-.217-.108-.108-.108-.217v-.217l-.108-.433v-.866l.108-.325v-.217l.108-.217.217-.217.108-.108.217-.108.217-.108h.325l.325-.108.433.108h.433l.541.108.541.217v-.217l-.108-.433-.325-.541-.325-.65-.217-.325-.217-.325-.217-.217-.325-.325-.325-.217-.325-.108-.325-.108h-.433l-.108-.108-.108-.433-.325-.541-.433-.65-.433-.541-.433-.65-.325-.108-.217-.217-.325-.108h-.542l-.217.108-.217.217-.325.108-.433.65-.433.541-.325.65-.325.541-.217.433v.108h-.433l-.325.108-.325.108-.325.217-.325.325-.217.217-.217.325-.217.325-.433.65-.217.541-.108.433-.108.217.65-.217.541-.108h.433l.433-.108.325.108h.325l.217.108.217.108.108.108.108.217.108.217.108.217.108.325v.866l-.108.433v.217l-.108.217-.108.108-.217.217-.217.108-.217.217-.325.108-.325.108-.433.108h-.541l-.65.108h-1.3l-.65-.217-.541-.108-.541-.217-.541-.325-.433-.325-.325-.325-.433-.433-.541-.65-.325-.65-.217-.433-.108-.108v.108l-.325.433-.325.541-.541.758-.325.325-.325.325-.541.217-.433.325-.541.217-.541.217-.541.108h-1.3l-.433-.108-.541-.108-.325-.217-.325-.325-.325-.217-.217-.325-.217-.325-.217-.541-.108-.541-.108-.325v-.108l.217-.108.433-.217.325-.108.325-.108.217-.217.325-.325.325-.217.217-.325.108-.325.108-.433v-.433l-.108-.433-.108-.541-.433-.541-.541-.541-.65-.433-.65-.433-.758-.433-.758-.433-.758-.433-.866-.325-.758-.325-1.516-.541-1.191-.433-.866-.217-.217-.108.217.325.65.866.866 1.299.974 1.624.541.974.433.974.541.974.325 1.083.433.974.325 1.083.108.433v13.315h44.6v-11.8" font-size="12" fill="#fc0" stroke="#000" stroke-width=".751" stroke-linejoin="round"/><g font-size="12" fill="#fc0" stroke="#000"><path d="M109.416 113.348l15.318-50.732h30.961l15.426 50.732h-20.315v-21.836l-.109-1.086-.109-1.086-.326-.978-.326-.978-.435-.869-.543-.869-.543-.76-.652-.76-.76-.76-.869-.543-.869-.543-.869-.435-.978-.435-.978-.217-1.086-.109-1.086-.109h-.543l-.543.109h-.435l-.543.109-1.086.217-.869.435-.978.435-.869.543-.76.543-.76.76-.652.76-.652.76-.543.869-.435.869-.326.978-.217.978-.109.543-.109.543v22.922h-20.423m17.816-70.83v9.668h4.128v-18.251h-10.32v8.582h6.192m8.799 9.67v-9.668h8.582v9.668h.76v-24.443h-10.429v24.443h1.086m17.383 0v-9.668h6.192v-8.582h-10.538v18.251h4.345m-26.18-9.67v9.668h8.799v-9.668h8.582v9.668h8.799v-9.668h8.474v16.73h-43.237v-16.73h8.582m-89.84 70.83l15.209-50.732h31.178l15.209 50.732h-20.315v-21.836l-.109-1.086-.109-1.086-.217-.978-.435-.978-.435-.869-.543-.869-.543-.76-.652-.76-.76-.76-.869-.543-.869-.543-.869-.435-.978-.435-.978-.217-1.086-.109-.978-.109h-.652l-.435.109h-.543l-.543.109-.978.217-.978.435-.869.435-.869.543-.869.543-.652.76-.76.76-.543.76-.543.869-.435.869-.435.978-.217.978-.109.543v.543l-.109.543v22.379h-20.315m17.819-70.83v9.668h4.019v-18.251h-10.32v8.582h6.301m8.691 9.67v-9.668h8.582v9.668h.869v-24.443h-10.32v24.443h.869m17.381 0v-9.668h6.192v-8.582h-10.32v18.251h4.128m-26.072-9.67v9.668h8.691v-9.668h8.582v9.668h8.799v-9.668h8.582v16.73h-43.237v-16.73h8.582m63.335 95.599h15.318v-5.758h-15.318v5.758zm14.014-6.192h15.426v-5.975h-15.426v5.975zm14.122 6.192h15.426v-5.758h-15.426v5.758zm-37.261 80.607l15.318-50.624h30.961l15.426 50.624h-20.315v-21.836l-.109-1.086-.109-.978-.326-.978-.326-.978-.435-.869-.543-.869-.543-.869-.652-.76-.76-.652-.869-.543-.869-.543-.869-.435-.978-.435-.978-.217-1.086-.109-1.086-.109h-.543l-.543.109h-.435l-.543.109-1.086.217-.869.435-.978.435-.869.543-.76.543-.76.652-.652.76-.652.869-.543.869-.435.869-.326.978-.217.978-.109.543-.109.435v22.923h-20.423m17.816-70.722v9.56h4.128v-18.142h-10.32v8.582h6.192m8.799 9.56v-9.56h8.582v9.56h.76v-24.334h-10.429v24.334h1.086m17.383 0v-9.56h6.192v-8.582h-10.538v18.142h4.345m-26.18-9.56v9.56h8.799v-9.56h8.582v9.56h8.799v-9.56h8.474v16.621h-43.237v-16.621h8.582m-80.823-9.886h15.318v-5.758h-15.318v5.758zm14.122-6.192h15.318v-5.975h-15.318v5.975zm14.123 6.192h15.426v-5.758h-15.426v5.758zm-37.262 80.607l15.209-50.624h31.178l15.209 50.624h-20.315v-21.836l-.109-1.086-.109-.978-.217-.978-.435-.978-.435-.869-.543-.869-.543-.869-.652-.76-.76-.652-.869-.543-.869-.543-.869-.435-.978-.435-.978-.217-1.086-.109-.978-.109h-.652l-.435.109h-.543l-.543.109-.978.217-.978.435-.869.435-.869.543-.869.543-.652.652-.76.76-.543.869-.543.869-.435.869-.435.978-.217.978-.109.543v.435l-.109.652v22.271h-20.315m17.819-70.722v9.56h4.019v-18.142h-10.32v8.582h6.301m8.691 9.56v-9.56h8.582v9.56h.869v-24.334h-10.32v24.334h.869m17.381 0v-9.56h6.192v-8.582h-10.32v18.142h4.128m-26.072-9.56v9.56h8.691v-9.56h8.582v9.56h8.799v-9.56h8.582v16.621h-43.237v-16.621h8.582"/><path d="M118.541 32.975h15.318v-5.758h-15.318v5.758zm14.014-6.192h15.426v-5.975h-15.426v5.975zm14.122 6.192h15.427v-5.758h-15.427v5.758zm-100.269 0h15.317v-5.758h-15.317v5.758zm14.122-6.192h15.318v-5.975h-15.318v5.975zm14.123 6.192h15.426v-5.758h-15.426v5.758z"/></g></svg>