<svg width="210mm" height="140mm" xmlns="http://www.w3.org/2000/svg"><path font-size="12" fill="#de2110" fill-rule="evenodd" d="M0 0h744.094v496.063h-744.094z"/><path font-size="12" fill="#08399c" fill-rule="evenodd" d="M0 0h373.689v248.031h-373.689z"/><path font-size="12" fill="#fff" fill-rule="evenodd" d="M273.327 172.997l-45.863-9.426 9.766 45.791-35.005-31.095-14.438 44.541-14.768-44.432-34.774 31.354 9.427-45.863-45.792 9.766 31.095-35.005-44.54-14.438 44.432-14.768-31.354-34.774 45.863 9.426-9.767-45.792 35.006 31.095 14.437-44.54 14.768 44.432 34.774-31.354-9.426 45.863 45.791-9.767-31.095 35.006 44.541 14.437-44.432 14.768 31.354 34.774z"/><path font-size="12" fill="#005387" fill-rule="evenodd" d="M231.053 169.482l-14.478 7.686-14.11 8.34-16.392-.563-16.4.187-13.913-8.661-14.297-8.017-7.708-14.439-8.362-14.072.563-16.348-.186-16.356 8.683-13.877 8.039-14.258 14.477-7.687 14.11-8.34 16.392.562 16.401-.186 13.913 8.661 14.297 8.017 7.707 14.439 8.363 14.071-.564 16.348.187 16.356-8.684 13.877-8.038 14.258z"/><path d="M236.879 122.812a50.253 50.253 0 1 0-100.506 0 50.253 50.253 0 1 0 100.506 0h-50.253z" transform="translate(.148 1.481)" font-size="12" fill="#fff" fill-rule="evenodd"/></svg>