<svg width="210mm" height="140mm" xmlns="http://www.w3.org/2000/svg"><path font-size="12" fill="#fff" fill-rule="evenodd" d="M-102.661-71.887h179.81v110.725h-179.81z"/><path font-size="12" fill="#f31830" fill-rule="evenodd" d="M.231-6.198h277.95v319.648h-277.95z"/><g font-size="12" fill-rule="evenodd"><path fill="#fff" d="M302.36 380.645l-354.054-359.967 51.529-52.39 354.054 359.967zm-300.863-32.11l-54.854-55.77 327.459-332.927 54.854 55.77z"/><path fill="#002377" d="M290.725 355.296l-335.77-341.377 39.893-40.56 335.77 341.377zm-297.539-15.211l-38.231-38.869 329.12-334.617 38.231 38.869z"/><path fill="#fff" d="M96.537 162.343l6.782 16.732 17.682-2.148-13.49 12.504 6.769 16.739-15.119-9.005-13.499 12.493 4.146-18.069-15.112-9.018 17.681-2.162 4.159-18.066zm-34.891 35.474l6.782 16.732 17.682-2.148-13.49 12.504 6.769 16.739-15.119-9.005-13.499 12.493 4.146-18.069-15.112-9.018 17.681-2.162 4.159-18.066zm0 0l6.782 16.732 17.682-2.148-13.49 12.504 6.769 16.739-15.119-9.005-13.499 12.493 4.146-18.069-15.112-9.018 17.681-2.162 4.159-18.066zm-38.213 38.853l6.782 16.732 17.682-2.148-13.49 12.504 6.769 16.739-15.119-9.005-13.499 12.493 4.146-18.069-15.112-9.018 17.681-2.162 4.159-18.066zm220.972 5.067l6.782 16.732 17.682-2.148-13.49 12.504 6.769 16.739-15.119-9.005-13.499 12.493 4.146-18.069-15.112-9.018 17.681-2.162 4.159-18.066zm-38.213-35.474l6.782 16.732 17.682-2.148-13.49 12.504 6.769 16.739-15.119-9.005-13.499 12.493 4.146-18.069-15.112-9.018 17.681-2.162 4.159-18.066zm-36.552-37.163l6.782 16.732 17.682-2.148-13.49 12.504 6.769 16.739-15.119-9.005-13.499 12.493 4.146-18.069-15.112-9.018 17.681-2.162 4.159-18.066zm-147.868-150.343l6.782 16.732 17.682-2.148-13.49 12.504 6.769 16.739-15.119-9.005-13.499 12.493 4.146-18.069-15.112-9.018 17.681-2.162 4.159-18.066zm31.567 35.474l6.782 16.732 17.682-2.148-13.49 12.504 6.769 16.739-15.119-9.005-13.499 12.493 4.146-18.069-15.112-9.018 17.681-2.162 4.159-18.066zm43.198 37.163l6.782 16.732 17.682-2.148-13.49 12.504 6.769 16.739-15.119-9.005-13.499 12.493 4.146-18.069-15.112-9.018 17.681-2.162 4.159-18.066zm38.213 38.853l6.782 16.732 17.682-2.148-13.49 12.504 6.769 16.739-15.119-9.005-13.499 12.493 4.146-18.069-15.112-9.018 17.681-2.162 4.159-18.066zm34.89-38.852l6.782 16.732 17.682-2.148-13.49 12.504 6.769 16.739-15.119-9.005-13.499 12.493 4.146-18.069-15.112-9.018 17.681-2.162 4.159-18.066zm38.213-38.853l6.782 16.732 17.682-2.148-13.49 12.504 6.769 16.739-15.119-9.005-13.499 12.493 4.146-18.069-15.112-9.018 17.681-2.162 4.159-18.066zm38.213-38.853l6.782 16.732 17.682-2.148-13.49 12.504 6.769 16.739-15.119-9.005-13.499 12.493 4.146-18.069-15.112-9.018 17.681-2.162 4.159-18.066z"/></g><path font-size="12" fill="#00267f" fill-rule="evenodd" d="M288.789 1.261h456.359v171.513h-456.359z"/><path font-size="12" fill="#fff" fill-rule="evenodd" d="M295.987 175.02h451.38v151.614h-451.38zm-17.399-204.179h19.884v356.545h-19.884zm-390.814-58.704h115.338v689.723h-115.338zm-4.079 404.69h477.501v19.485h-477.501z"/><path font-size="12" fill="#f31830" fill-rule="evenodd" d="M1.146 326.856h743.947v169.028h-743.947z"/><path font-size="12" fill="#fff" fill-rule="evenodd" d="M-52.543-48.598h487.573v50.485h-487.573z"/></svg>