<svg width="210mm" height="140mm" xmlns="http://www.w3.org/2000/svg"><g font-size="12" fill-rule="evenodd"><rect height="50%" width="100%" y="50%" fill="#192f5d"/><rect width="100%" height="50%" fill="#bd3d44"/><path d="M-.236 155.449l372.16 92.489-372.096-185.55-.064 93.062zm107.116-155.761l265.103 248.191-166.021-248.298-99.082.107zm175.838-.107l89.335 248.356-31.082-248.184-58.254-.172zm460.768 155.868l-371.477 92.489 371.412-185.55.065 93.062zm-106.345-155.077l-265.103 247.507 166.021-248.298 99.082.791zm-175.733-.791l-89.335 248.356 31.082-248.184 58.254-.172z" fill="#ffd608"/></g><path font-size="12" fill="#b87333" fill-rule="evenodd" d="M610.492 471.815l-38.936 39.85 9.472 55.88-48.451-26.117-48.224 26.701 8.991-55.992-39.277-39.378 54.009-8.487 23.95-51.038 24.388 50.746 54.078 7.835z"/></svg>