<svg xmlns="http://www.w3.org/2000/svg" version="1" width="992.126" height="496.063"><g font-size="12" fill-rule="evenodd"><path fill="#fff" d="M0 0h992.126v496.063h-992.126z"/><path fill="#bf0000" d="M0 148.819h992.126v99.213h-992.126zm0 148.819h992.126v99.213h-992.126zm278.895-173.849l-30.733-23.048-30.583 23.275 11.373-37.823-30.527-23.356 37.766-.325 11.718-37.709 11.963 37.621 37.766.049-30.368 23.576 11.625 37.74zm248.032 0l-30.733-23.048-30.583 23.275 11.373-37.823-30.527-23.356 37.766-.325 11.718-37.709 11.963 37.621 37.766.049-30.368 23.576 11.625 37.74zm248.031 0l-30.733-23.048-30.583 23.275 11.373-37.823-30.527-23.356 37.766-.325 11.718-37.709 11.963 37.621 37.766.049-30.368 23.576 11.625 37.74z"/></g></svg>