<svg width="412.28pt" height="295.89pt" xmlns="http://www.w3.org/2000/svg" xmlns:xlink="http://www.w3.org/1999/xlink"><defs><linearGradient id="a"><stop offset="0"/><stop offset="1" stop-color="#fff"/></linearGradient><linearGradient xlink:href="#a"/></defs><path d="M149.809 514.825l253.344-172.24-254.159-172.148.815 344.388z" transform="matrix(1.231 0 0 1 -168.613 -157.25)" fill="#0052a5" fill-rule="evenodd" stroke="#000" stroke-width="1pt"/><path d="M370.977 364.352a64.353 63.407 0 1 0-128.706 0 64.353 63.407 0 1 0 128.707 0h-64.353z" transform="matrix(.865 0 0 .868 -155.563 -128.582)" fill-rule="evenodd" fill="#fff"/><path d="M374.762 386.118a44.479 43.533 0 1 0-88.959 0 44.479 43.533 0 1 0 88.959 0h-44.479z" transform="matrix(.93 0 0 .936 -196.406 -174.076)" fill-rule="evenodd" fill="#f00"/><path font-size="12" fill="#fff" fill-rule="evenodd" d="M250.161 173.077l-6.807-3.764-7.08 3.267 1.614-7.398-5.414-5.474 7.805-.808 3.734-6.649 3.21 6.899 7.722 1.364-5.822 5.071 1.038 7.494zm44.867 21.322l-6.895-3.394-7.002 3.21 1.441-6.976-5.541-5.027 7.785-.918 3.578-6.316 3.371 6.408 7.753 1.123-5.702 4.878 1.214 7.011zm-46.649 24.253l-6.652-3.445-6.48 3.79 1.071-7.696-5.442-5.287 7.314-1.311 3.117-7.057 3.449 6.885 7.368.925-5.183 5.566 1.437 7.63zm-42.395-23.341l-6.189-4.098-6.544 3.35 1.591-7.816-4.886-5.888 7.172-.733 3.524-6.989 2.842 7.363 7.064 1.569-5.416 5.283.841 7.959zm-59.42-58.992l-3.573-6.506-7.351-.078 5.044-6.179-1.586-7.485 6.69 2.687 6.37-4.547-.909 7.84 5.524 4.674-7.252 2.157-2.957 7.437zm-30.357-11.458l-6.307-3.914-6.442 3.541 1.36-7.859-5.056-5.742 7.147-.943 3.317-7.089 3.057 7.276 7.107 1.361-5.259 5.44 1.075 7.931zm-32.135 3.631l-7.422.076-3.541 6.442-3.064-7.364-7.346-2.137 5.528-4.627-.999-7.763 6.481 4.504 6.729-2.661-1.524 7.411 5.158 6.119zm-26.156 20.099l-6.621 3.356-.321 7.344-6.009-5.245-7.533 1.338 2.907-6.597-4.334-6.517 7.806 1.167 4.854-5.366 1.916 7.319 7.335 3.202zm-11.966 31.949l-4.22 6.107 3.22 6.609-7.783-1.745-5.984 4.768-.591-7.185-6.917-3.662 7.418-2.696 1.708-7.031 5.174 5.52 7.974-.683zm2.419 32.692l-.506 7.406 6.145 4.035-7.582 2.478-2.706 7.156-4.18-5.874-7.817.388 4.998-6.109-2.126-6.917 7.269 2.1 6.505-4.663zm18.862 24.508l2.759 6.891 7.287.967-5.754 5.523.669 7.622-6.316-3.477-6.874 3.743 1.851-7.673-4.917-5.308 7.46-1.264 3.836-7.025zm28.831 11.73l5.965 4.418 6.711-3.001-1.999 7.722 4.569 6.137-7.201.355-3.887 6.793-2.451-7.502-6.972-1.938 5.686-4.991-.421-7.992zm30.292-2.311l7.362.952 4.398-5.89 2.016 7.717 6.98 3.134-6.116 3.818-.085 7.826-5.796-5.358-7.033 1.704 2.535-7.129-4.262-6.775zm-37.083-152.567l-7.317-1.251-4.634 5.706-1.7-7.793-6.847-3.415 6.266-3.566.403-7.816 5.573 5.589 7.096-1.416-2.823 7.02 3.982 6.942zm-37.085 18.217l-7.298 1.356-2.376 6.957-4.289-6.725-7.605-.837 4.647-5.512-2.324-7.474 7.161 3.318 6.169-3.782-.222 7.563 6.137 5.138zm-13.298 136.022l2.759 6.891 7.287.967-5.754 5.523.669 7.622-6.316-3.477-6.874 3.743 1.851-7.673-4.917-5.308 7.46-1.264 3.836-7.025zm35.322 20.11l4.751 5.704 7.23-1.328-3.77 7.029 2.987 7.044-7.08-1.359-5.384 5.681-.607-7.869-6.315-3.532 6.706-3.504 1.482-7.865z"/><path d="M14.027 12.894l486.434 73.817-109.924 95.875 100.46 100.969-473.185 73.818 310.096-172.14-313.881-172.339z" fill="#fff" fill-rule="evenodd" stroke="#000" stroke-width="1pt"/><path d="M499.151 87.366l-39.821 35.307-338.491-50.94-106.084-58.839 485.706 73.817-1.31.655zm-219.788 69.874l139.212 1.395-27.966 24.023 23.95 23.295-134.056 5.181 46.167-25.357-49.771-28.38 1.966-.655.498.498zm-262.133 199.55l473.257-73.234-32.978-34.07-344.914 55.545-95.365 51.759z" fill="#f00" fill-rule="evenodd" stroke="#000" stroke-width="1pt"/></svg>