<svg width="210mm" height="140mm" xmlns="http://www.w3.org/2000/svg"><path d="M437.962 178.594c0-3.42-1.111-10.061-4.726-12.361-4.641-2.413-4.641-3.899-5.012-7.054-.371-3.156 7.797-9.097 7.797-9.097s-7.425-3.342-10.21-2.97c-2.785.372-8.168.928-8.911 1.671-.742.743-4.826-13.366-2.227-15.594 2.599-2.228 7.982 5.198 7.982 5.198s3.527-8.168-8.911-23.763c4.27-30.445-24.133-37.5-30.63-37.314-5.384-.743-19.306 4.27-21.534 10.953-7.054 2.413-7.425 8.54-7.425 8.54s-14.48 2.599-16.336 15.222c8.539-7.054 14.108.743 14.108.743s7.425 5.198 11.324 5.384c3.898.186-3.713 12.995-5.94 15.223-2.228 2.228-11.509 10.767-11.138 11.324.371.557 7.24 2.599 6.869 5.755-.371 3.156-21.162 12.809-20.049 15.223 5.384-1.671 9.581-.384 9.581-.384.75 5.271-1.349 11.34-4.931 13.305l100.319-.003z" font-size="12" fill="#f7f308" fill-rule="evenodd" stroke="#000" stroke-width="1.484"/><path d="M432.459 317.705s.946 11.16-3.783 15.889c20.995 1.324 32.344 22.698 32.533 27.806.189 5.107-6.431 9.079-6.431 9.079s2.27 9.079-6.431 10.593c.189 8.701-5.863 8.701-5.863 8.701s-2.27 7.188-9.268 6.809c-2.081 10.403-12.862 10.214-12.862 10.214s-6.242 15.132-15.51 9.269c-5.863 12.862-21.373 12.295-27.237 0-3.215-.189-10.403 4.161-14.753-8.701-9.647 1.702-13.429-10.593-13.429-10.593s-6.431-.567-8.89-6.999c-7.566-1.513-6.242-9.079-6.242-9.079s-7.566-2.081-7.377-10.403c-6.053-3.594-5.485-10.025-5.485-10.025s4.729-22.32 32.155-27.049c-4.35-6.242-3.783-15.321-3.783-15.321l82.656-.189z" font-size="12" fill="#f7f308" fill-rule="evenodd" stroke="#000" stroke-width="1.484" stroke-linecap="round" stroke-linejoin="round"/><path d="M301.068 189.667s-14.95 16.083-22.425 4.077c-7.475-12.006 10.42-15.404 10.646-15.63.227-.226 10.42-3.398 11.326-22.199.906-18.801-22.425-31.034-28.994-32.619-6.569-1.586-25.822-1.586-25.822-1.586s-70.445-16.989-77.694-22.199c-7.248-5.21-73.843-17.442-73.843-17.442s-10.646-1.359-9.74 8.155c.906 9.514 9.74 10.647 9.74 10.647s-7.475 5.89-6.569 11.1c.906 5.21 6.569 13.591 18.347 12.232-1.359 18.575 24.463 21.52 24.463 21.52s2.718 26.73 26.502 25.371c5.663 18.348 26.955 19.028 26.955 19.028s9.966 12.459 24.463 13.365c8.381 20.84 26.502 14.951 26.502 14.951s-1.359 13.138 7.022 13.138c-4.304 14.951 11.779 16.989 17.894 14.044 1.586 3.171 7.022 12.912 19.48 6.796 7.475 11.099 19.707 5.89 19.707 5.89s2.718 8.834 13.364 5.436c10.646-3.398-11.552-73.62-11.326-74.073zm-46.208-54.818s16.535 1.812 14.497 27.409m-77.468-53.913s-31.712 21.746 27.634 28.542m-18.574-2.945c-.227.453-14.95 17.895 12.232 23.105-12.911 12.232 11.326 16.31 11.326 16.31s-4.983 12.912 9.514 16.31c-4.757 13.365 10.873 12.685 10.873 12.685s.453 16.31 19.027 16.083c-.227 11.1 12.685 11.779 12.685 11.779s3.851 12.006 16.309 8.381c1.359 8.381 9.966 6.569 9.966 6.569m-3.625 13.366s.68-11.553-2.039-13.818m-18.574 7.475c.227-.226 5.436-10.647 3.624-12.459m-22.651 5.89l14.044-13.818m-31.712.227c.227-.227 21.292-13.365 21.292-13.365m-28.767 0c.227-.227 12.005-5.21 12.458-9.514m-38.507-5.663s28.541 6.116 33.524-.453m-57.307-13.139c1.133 0 42.811 4.53 46.662-.68m-74.297-18.121c.679-.227 49.38 9.061 63.197 2.039m-86.528-27.183c1.133 0 64.783 15.404 74.296 10.647m-98.533-32.846c.453 0 75.882 17.669 85.395 10.42m-95.135-31.94c.227 0 72.258 23.558 78.373 17.669m303.807 70.288s14.95 16.083 22.425 4.077c7.475-12.006-10.42-15.404-10.646-15.63-.227-.226-10.42-3.398-11.326-22.199-.906-18.801 22.425-31.034 28.994-32.619 6.569-1.586 25.822-1.586 25.822-1.586s70.445-16.989 77.694-22.199c7.248-5.21 73.843-17.442 73.843-17.442s10.646-1.359 9.74 8.155c-.906 9.514-9.74 10.647-9.74 10.647s7.475 5.89 6.569 11.1c-.906 5.21-6.569 13.591-18.347 12.232 1.359 18.575-24.463 21.52-24.463 21.52s-2.718 26.73-26.502 25.371c-5.663 18.348-26.955 19.028-26.955 19.028s-9.966 12.459-24.463 13.365c-8.381 20.84-26.502 14.951-26.502 14.951s1.359 13.138-7.022 13.138c4.304 14.951-11.779 16.989-17.894 14.044-1.586 3.171-7.022 12.912-19.48 6.796-7.475 11.099-19.707 5.89-19.707 5.89s-2.718 8.834-13.364 5.436c-10.646-3.398 11.552-73.62 11.326-74.073zm46.209-54.818s-16.535 1.812-14.497 27.409m77.467-53.912s31.712 21.746-27.634 28.542m18.574-2.945c.227.453 14.95 17.895-12.232 23.105 12.911 12.232-11.326 16.31-11.326 16.31s4.983 12.912-9.514 16.31c4.757 13.365-10.873 12.685-10.873 12.685s-.453 16.31-19.027 16.083c.227 11.1-12.685 11.779-12.685 11.779s-3.851 12.006-16.309 8.381c-1.359 8.381-9.966 6.569-9.966 6.569m3.625 13.365s-.68-11.553 2.039-13.818m18.574 7.475c-.227-.226-5.436-10.647-3.624-12.459m22.651 5.89l-14.044-13.818m31.712.227c-.227-.227-21.292-13.365-21.292-13.365m28.767 0c-.227-.227-12.005-5.21-12.458-9.514m38.507-5.663s-28.541 6.116-33.524-.453m57.308-13.138c-1.133 0-42.811 4.53-46.662-.68m74.296-18.121c-.679-.227-49.38 9.061-63.197 2.039m86.528-27.184c-1.133 0-64.783 15.404-74.296 10.647m98.533-32.846c-.453 0-75.882 17.669-85.395 10.42m95.135-31.939c-.227 0-72.258 23.558-78.373 17.669" fill="#f7f308" fill-rule="evenodd" stroke="#000" stroke-width="1pt" stroke-linejoin="round"/><path d="M568.433 217.641s-4.429 63.296-4.644 63.152c-.215-.144-9.238-11.058-9.238-11.058l-27.846 87.303 6.509 19.044-16.213 53.163-13.371-16.961-21.601 8.685 17.339-55.992 16.018-11.511 28.844-86.007-16.009 2.004 40.211-51.825zm61.539 26.107s-33.68 53.774-33.802 53.545c-.121-.228-2.951-14.103-2.951-14.103l-55.345 51.34-59.098 57.025-.163-11.745-20.221-2.496 26.747-20.466 13.697-2.257 86.345-78.262-15.069-5.762 59.861-26.819z" font-size="12" fill="#8cc2ef" fill-rule="evenodd" stroke="#000" stroke-width="1.484"/><path d="M478.817 379.716c.366-.763 30.73-26.706 30.73-26.706" font-size="12" stroke="#000" stroke-width="1.515" fill="none"/><path d="M611.978 198.259s-16.462 61.278-16.645 61.095c-.183-.183-6.951-12.621-6.951-12.621l-66.763 114.691 2.744 19.938-23.961 43.901-9.877-19.207-22.864 4.39 25.608-46.462 17.925-8.232 67.495-113.228-16.096-1.097 49.386-43.169z" font-size="12" fill="#8cc2ef" fill-rule="evenodd" stroke="#000" stroke-width="1.484"/><path d="M490.89 405.326c0-.366 23.047-40.608 23.047-40.608" font-size="12" stroke="#000" stroke-width="1.484" fill="none"/><path d="M37.632 186.735l40.241.183-4.024 9.695 17.56 69.51 21.218-69.327-7.5-10.061h41.887l-8.963 9.695-34.57 99.326 8.963 12.987h-40.241l8.963-12.987-33.839-98.96-9.694-10.06zm617.33 2.378h38.229l-6.219 8.597-.183 101.155 8.597 9.512h-40.424l8.048-10.243-.183-100.241-7.865-8.78z" font-size="12" fill="#8cc2ef" fill-rule="evenodd" stroke="#000" stroke-width="1.484"/><path d="M353.586 97.64s4.902 6.157 6.727 6.727c1.824.57 12.085 5.587 11.515 9.007-.57 3.42-7.297 5.131-7.297 5.131m-2.85-29.986l10.261 9.805s1.824 8.437 9.121 7.753c7.297-.684 6.271-3.763 6.271-3.763s-8.779-6.157-15.733-4.675" font-size="12" stroke="#000" stroke-width="1.484" fill="none"/><path d="M299.116 397.538l13.705-11.382s-3.02-6.272-13.937-6.04c-10.22-7.201-27.874-24.158-27.874-24.158l-8.827-23.926s7.201-2.091 8.827-7.898c1.626-5.807-.465-13.008-1.161-13.705-.697-.697-7.897 1.161-9.988 4.181-2.091 3.02-5.343 14.635-10.22 10.685-4.878-3.949.697-8.362.697-8.362s4.878-6.039 4.646-9.292c-.232-3.252-6.504-13.008-7.201-13.24-.697-.232-2.09 12.776-3.949 14.17-1.858 1.394-4.413 7.201-8.13 3.949-3.716-3.252 1.858-8.13 1.858-8.13s10.453-5.575.232-23.926c-3.019 7.898-8.826 13.008-8.826 13.008s-2.788 4.878-5.343.697l3.019-8.13s9.059-5.343 9.291-13.241c.232-7.898-10.917-16.957-10.917-16.957s-.697 14.634-4.181 16.493c-3.484 1.858-4.878 4.878-8.827 1.626-3.949-3.252 3.02-10.453 3.02-10.453s12.079-12.079 11.382-19.048c-.697-6.969-1.394-8.13-1.394-8.13s-9.059 5.575-10.22 8.362c-1.161 2.788-4.878 12.776-9.524 9.756-3.252-3.716 2.787-10.918 2.787-10.918s4.413-4.878 4.181-6.969c-.232-2.091-3.717-8.362-10.453-14.402-.929-1.858-1.393-9.292-1.393-9.292s-5.11 6.04-4.878 9.292c.232 3.252-.465 9.756.232 16.957.697 7.201-5.575-2.323-5.575-2.323l1.161-23.229s-8.827-10.685-19.512-14.634c3.949 5.807 3.717 11.382 3.717 11.382s-4.413 9.524-4.413 12.079c0 2.555 5.11 13.705 14.634 21.138-14.402-15.563-32.287-10.453-37.63-13.473 2.555 3.02 10.221 14.402 9.291 17.422-.929 3.02 13.704 9.291 13.704 9.291l15.563.232s7.665 5.342 8.362 8.827c.697 3.485-11.149-6.504-15.795-6.272-4.646.232-16.957-1.626-16.957-1.626s7.433 6.969 7.665 9.989c.232 3.02 3.484 9.988 7.898 11.847 4.413 1.858 16.259 2.555 16.259 2.555s5.11-3.02 6.039.232c.929 3.252-6.736 5.807-6.736 5.807s-7.898 0-10.453-2.09c-2.555-2.091-3.02-5.575-14.401-6.969-1.161 9.524 6.272 19.28 6.272 19.28s31.358-2.555 31.126 4.181c-.232 6.736-26.016.697-26.945-1.394-.929-2.09 1.161 13.241 7.201 16.493 6.039 3.252 19.512 1.626 21.138.929 1.626-.697 7.665-1.394 7.665 2.091 0 3.484-30.661 6.272-31.126 5.343-.465-.929 4.646 11.847 16.957 11.15 12.311-.697 17.653-4.414 17.653-4.414s7.433-1.394 8.13 1.626c.697 3.02-7.433 4.413-7.433 4.413s-19.512.464-20.208-.465c-.697-.929 4.413 12.311 18.118 12.079 10.22-.929 10.917-5.343 13.008-6.039 3.02-.697 9.524-.697 10.453-.465.929.232 17.189 11.615 17.189 11.615l41.346 41.812z" font-size="12" fill="#219e4a" fill-rule="evenodd" stroke="#000" stroke-width="1.484" stroke-linejoin="round"/><path d="M179.26 214.028s-.465 22.3 10.685 29.037m12.775-11.383s7.433 11.382-5.11 15.563m-33.449-7.897s-.929 12.776 21.602 11.847m34.146-.697s-3.716 9.059-12.776 8.595m21.138 11.846c0 1.161 1.626 13.473-10.22 13.241m-46.457-18.351s14.866 9.292 21.602 8.595m-18.35 13.937s6.968 7.433 19.744 5.575m41.578-.465c0 .929-2.323 8.13-7.433 9.06m-42.275 7.433s5.575 7.201 20.208 3.252m43.437-6.272s-2.323 11.382-8.362 11.615m22.531.697s-4.646 13.705-16.492 11.615m-38.094 12.775s4.646 4.182 16.027-.929m-28.802-13.008c.929 0 6.736 4.878 20.673-2.555m81.508 53.312s-8.679 3.886-.259 16.97" font-size="12" stroke="#000" stroke-width="1.484" stroke-linecap="round" stroke-linejoin="round" fill="none"/><path d="M469.592 266.325s9.122 8.757 9.304 10.581c.182 1.825 2.372 10.399 4.743 11.676 2.371 1.277 11.675 8.757 12.953 11.676 1.277 2.919 9.486 15.325 9.486 15.325s7.662 15.69 12.77 16.967c5.108 1.277 19.52-.912 22.439 6.02 2.919 6.933 2.189 16.967 2.189 16.967s-3.466 3.102-5.108 1.277c-1.642-1.824-4.561 9.122-9.669 6.021-6.958-14.816-25.168-12.398-25.168-12.398s4.005-6.211-12.231-11.684c-25.358 4.379-32.838-22.075-32.838-22.075l-14.433-12.519 25.562-37.834zm-14.594 37.582l11.311 5.291-.912-9.669m5.655 2.918l10.398 5.108-4.196-8.392m-6.749-10.398l10.216 5.473-4.743-10.581m10.763 55.278s-11.676-15.325-11.493-15.325c.183 0 19.885 3.831 19.885 3.831l-7.297-15.69 18.061 4.743m14.411 24.813s11.493 2.554 11.128 21.71m-5.108-24.629s12.406-.73 11.676 18.609" font-size="12" fill="#f7f308" fill-rule="evenodd" stroke="#000" stroke-width="1.484"/><path d="M312.38 268.698s-9.122 8.757-9.304 10.581c-.183 1.825-3.885 9.264-6.257 10.541-2.371 1.277-10.541 9.514-11.818 12.433-1.277 2.919-9.108 15.703-9.108 15.703s-8.986 13.042-14.094 14.319c-6.243.521-18.196 1.736-21.115 8.669-2.919 6.933 1.594 17.534 4.998 17.534 5.107 2.27 7.438 4.615 9.08 2.79 2.777.824 1.189 3.2 6.297.099-3.883-4.976-3.468-9.784.424-11.044 3.882-1.329 10.204 4.58 10.204 4.58s2.302-10.744 18.538-16.217c25.358 4.379 32.172-16.085 33.947-20.966 3.999-5.442 10.216-6.89 15.324-10.335l-27.118-38.687z" font-size="12" fill="#f7f308" fill-rule="evenodd" stroke="#000" stroke-width="1.484"/><path d="M327.418 304.062l-11.754 6.178.912-8.338m-4.768.478l-11.064 5.108 5.084-8.614m6.305-9.954l-9.55 4.142 3.412-7.032m-10.32 52.838c1.775-3.55 10.788-14.659 10.606-14.659-.183 0-18.554 3.831-18.554 3.831l5.966-15.468-16.064 3.191m-15.209 25.459s-13.952 2.554-8.48 19.819" font-size="12" stroke="#000" stroke-width="1.484" stroke-linecap="round" stroke-linejoin="round" fill="none"/><path d="M256.4 338.87s-15.243.405-9.973 19.365" font-size="12" stroke="#000" stroke-width="1.484" fill="none"/><path d="M424.325 324.893c0-.189 5.107 12.862-5.863 15.132 28.183-2.081 36.127 30.075 36.127 30.075" font-size="12" stroke="#000" stroke-width="1.854" stroke-linecap="round" stroke-linejoin="round" fill="none"/><path d="M417.895 329.622s2.459 9.458-5.674 14.186c29.507 6.431 36.316 37.074 36.316 37.074m-36.884-46.909c0 .378 2.837 12.295-6.431 14.186 18.347-4.918 37.451 41.613 37.451 41.613m-39.91-50.503s4.729 9.079-3.972 11.917c16.455 1.702 21.752 55.8 21.752 55.8m-23.454-64.502s2.648 10.025-5.863 13.051c17.212-9.079 13.997 60.907 13.997 60.907m-19.483-73.39s-3.594 10.593 4.35 12.673c-15.699-4.35-12.673 60.718-12.673 60.718m.946-77.553s-2.459 9.647 7.188 14.565c-16.077-10.214-22.697 54.287-22.697 54.287m41.044-59.961s29.317 28.184 29.128 48.99m-75.468-71.689c0 .189-3.594 15.132 6.809 15.51m.567-10.024c0 .378-2.837 12.673 5.485 13.241m1.135-9.647s-5.107 12.295 7.377 13.997m-.946.189c-.189 0-24.399 22.509-28.182 48.612m23.643-50.882c-.189 0-30.83 19.104-32.911 43.505m26.102-46.72s-34.046 19.861-32.533 37.831m24.399-42.182s-25.345 4.729-31.587 31.967" font-size="12" stroke="#000" stroke-width="1.484" stroke-linecap="round" stroke-linejoin="round" fill="none"/><path d="M305.05 164.236s24.51 13.536 42.07 12.804c17.56-.732 43.899-12.073 43.899-12.073s23.413 13.17 42.436 11.341c19.023-1.829 45.362-12.073 45.362-12.073 15.731 78.534-20.12 149.019-87.798 180.726-71.824-32.804-106.699-111.703-85.969-180.726z" font-size="12" stroke="#000" stroke-width="1.484" fill="none"/><g fill-rule="evenodd"><path d="M305.05 164.236s24.51 13.536 42.07 12.804c17.56-.732 43.899-12.073 43.899-12.073s23.413 13.17 42.436 11.341c19.023-1.829 45.362-12.073 45.362-12.073 15.731 78.534-20.12 149.019-87.798 180.726-71.824-32.804-106.699-111.704-85.969-180.726z" fill="#bd0029" stroke="#000" stroke-width="NaN"/><path d="M305.05 164.236s6.128 3.384 14.45 6.677c8.323 3.293 18.84 6.494 27.62 6.128 17.56-.732 43.899-12.073 43.899-12.073s23.413 13.17 42.436 11.341c19.023-1.829 45.362-12.073 45.362-12.073 3.841 22.804 5.762 34.45 2.378 57.071l-181.038-1.052c-2.302-22.575-2.18-31.752 4.893-56.019z" fill="#3a59a5" stroke="#000" stroke-width="NaN"/><path d="M311.519 221.119l-.116 42.8 11.938 21.384-.116-64.184h-11.706zm29.975.149l.138 88.207 11.706 10.663-.138-98.87h-11.706zm29.405.327v112.392l11.822 6.433-.116-118.825h-11.706zm101.284.486l.253 36.615-11.114 22.484-.846-59.099h11.706zm-29.013-.263l-.413 85.046-11.432 10.801.138-95.847h11.706zm-30.504-.086l.137 110.88-11.96 7.395.116-118.275h11.706z" font-size="12" fill="#fff"/></g><path d="M305.05 164.236s24.51 13.536 42.07 12.804c17.56-.732 43.899-12.073 43.899-12.073s23.413 13.17 42.436 11.341c19.023-1.829 45.362-12.073 45.362-12.073 15.731 78.534-20.12 149.019-87.798 180.726-71.824-32.804-106.699-111.703-85.969-180.726z" font-size="12" stroke="#000" stroke-width="1.484" fill="none"/></svg>