<svg version="1" width="210mm" height="140mm" xmlns="http://www.w3.org/2000/svg" xmlns:xlink="http://www.w3.org/1999/xlink"><defs><linearGradient id="a"><stop offset="0"/><stop offset="1" stop-color="#fff"/></linearGradient><linearGradient xlink:href="#a"/><linearGradient xlink:href="#a"/><linearGradient xlink:href="#a"/><linearGradient xlink:href="#a"/><linearGradient xlink:href="#a"/><linearGradient xlink:href="#a"/><linearGradient xlink:href="#a"/><linearGradient xlink:href="#a"/><linearGradient xlink:href="#a"/><linearGradient xlink:href="#a"/><linearGradient xlink:href="#a"/><linearGradient xlink:href="#a"/><linearGradient xlink:href="#a"/><linearGradient xlink:href="#a"/><linearGradient xlink:href="#a"/><linearGradient xlink:href="#a"/><linearGradient xlink:href="#a"/><linearGradient xlink:href="#a"/><linearGradient xlink:href="#a"/><linearGradient xlink:href="#a"/></defs><path font-size="12" fill="#962200" fill-rule="evenodd" d="M248.091.063h496.035v248.096h-496.035z"/><path font-size="12" fill="#000c51" fill-rule="evenodd" d="M.026.021h248.064v496.063h-248.064z"/><path font-size="12" fill="#fff" fill-rule="evenodd" d="M248.132 248.22h495.94v247.862h-495.94z"/><path d="M40.78 253.348c-16.499 14.437-19.192 19.561-27.957 29.8l21.652-4.141c0 2.21-1.514 30.048-1.735 32.037 14.877-15.059 21.958-22.018 43.34-33.465 8.501-4.51-2.151-12.069-3.372-14.425-5.678 4.205-9.899 8.658-13.835 13.85" transform="matrix(.851 .17 -.102 .794 28.143 -91.754)" font-size="12" fill="#ffca00" fill-rule="evenodd" stroke="#333" stroke-width="1.201"/><path d="M83.086 326.449c29.733-37.866 128.115-36.961 155.516 1.17.884-.442 18.611-42.019 17.727-41.577-53.797-52.394-150.192-43.418-190.649-2.07l.48 2.468 16.927 40.009z" transform="matrix(.972 0 0 .699 -30.412 -90.228)" font-size="12" fill="#ffca00" fill-rule="evenodd" stroke="#333" stroke-width="1.213"/><path d="M55.345 126.598c-.144-.378-8.406-15.764-8.406-15.764l13.524 11.918-3.147-17.414 8.857 14.9m38.219-20.216c.059-4.704 3.829-5.021 6.424-4.207 1.522 1.161 2.321 4.945.497 7.102l-3.663 3.122c-1.267 1.584-2.669 3.391-2.578 5.382l8.276-.316m6.067-16.106c-1.512.739-2.02 1.907-2.37 3.637-.226 1.99-.125 6.695.282 8.639.363 1.448.723 2.397 1.81 3.347 1.267.724 2.668.589 3.438.091 1.04-.588 1.764-1.81 2.126-3.257.588-1.855.543-7.282.135-9.273-.377-1.326-.844-2.382-1.9-3.166-1.267-.543-2.751-.425-3.52-.018zm39.527 4.519c1.575-.658 2.773-1.463 4.087-3.006l-2.325 16.381m10.341-14.214c.189.072 7.868 2.304 7.868 2.304-3.745 4.678-6.815 8.834-9.317 14.115m16.025-12.338l7.612 3.754c-4.519 3.23-8.235 7.294-11.524 12.047m23.209-5.953l-4.986-2.923-4.409 5.97c3.167-.624 5.296.332 6.206 3.206.559 4.234-1.979 6.65-4.721 6.726-2.885-.066-4.375-1.65-4.781-4.975" font-size="12" stroke="#333" stroke-width="3.126" stroke-linecap="round" stroke-linejoin="round" fill="none"/><path d="M70.406 118.107s.481-17.784.661-17.764c.078-.72 10.042 14.744 10.042 14.744m-10.377-3.315l6.769-1.992" font-size="12" stroke="#333" stroke-width="3.817" fill="none"/><path d="M26.442 403.527l9.967.156-.315-50.236 19.104 50.501 10.37-.001v-73.891l-10.123.158.154 46.718-17.856-46.509-11.147.157-.154 72.947z" transform="matrix(.992 0 0 .853 4.977 -58.286)" font-size="12" fill="#ffca00" fill-rule="evenodd" stroke="#333" stroke-width=".679"/><path d="M211.976 243.222h10.534l-.127-5.553c-.299-3.587-1.654-8.133-5.193-11.493-2.356-2.622-5.144-4.103-8.761-5.091-3.071-1.205-10.59-.85-14.406 1.285-4.513 2.52-8.325 7.015-10.869 14.257-3.338 12.194-1.83 27.464.285 34.65 2.519 7.616 6.469 11.68 11.728 14.244 3.273 1.099 8.982 1.939 14.325.491 5.82-2.201 8.481-6.023 10.792-10.099 1.403-2.759 3.013-8.048 2.733-13.91l-10.991.134c.008 2.145-.427 4.621-.972 6.766-1.244 2.999-3.164 5.006-7.939 5.005-3.2-.003-5.363-1.321-7.154-3.683-2.417-2.334-3.051-7.558-3.212-9.034-.728-6.668-.749-13.27 1.173-20.227.732-2.811 2.187-5.412 4.091-6.678 3.085-1.673 6.277-1.424 8.081-.897 2.369.732 4.555 2.502 5.238 4.847.531 2.205.615 3.546.646 4.988z" font-size="12" fill="#ffca00" fill-rule="evenodd" stroke="#333" stroke-width=".625"/><path transform="matrix(1.041 .033 -.026 1.066 32.345 -192.685)" font-size="12" fill="#fff" fill-rule="evenodd" stroke-width=".611" stroke="#333" d="M124.849 446.88l-23.083-16.491-22.829 17.811 8.551-27.048-23.994-16.208 28.367-.227 8.001-27.828 8.981 26.908 28.939-.99-22.816 16.856 9.885 27.217z"/><path d="M50.385 138.194" stroke="#000" stroke-width="1pt" fill="none"/><path d="M50.457 138.106c1.04 1.064 3.096.799 5.933.262 2.265-.273 4.846-.377 6.877-.612 3.362.275 5.288 1.061 3.906 2.656" stroke="#333" fill="none"/><path d="M40.78 253.348c-16.499 14.437-19.192 19.561-27.957 29.8l21.652-4.141c0 2.21-1.514 30.048-1.735 32.037 14.877-15.059 21.958-22.018 43.34-33.465 8.501-4.51-2.489-12.171-3.711-14.527-5.678 4.205-10.376 8.76-13.497 13.952" transform="matrix(-.851 .17 .102 .794 223.951 -90.819)" font-size="12" fill="#ffca00" fill-rule="evenodd" stroke="#333" stroke-width="1.201"/><path d="M201.708 139.129" stroke="#000" stroke-width="1pt" fill="none"/><path d="M201.414 139.041c-1.741.805-3.538.449-5.712.262-2.063-.3-4.404-.652-6.721-.73-3.884.027-5.288 1.648-4.062 2.775" stroke="#333" fill="none"/><path d="M135.566 212.318c2.486.111 4.891.287 4.891.287" transform="matrix(1.208 -.021 -.005 .952 -34.285 -98.224)" font-size="12" stroke="#333" stroke-width="2.099" stroke-linecap="round" stroke-linejoin="round" fill="none"/><path d="M143.844 207.524l-.976 15.341" transform="matrix(1.041 -.06 .043 .929 -21.08 -87.037)" font-size="12" stroke="#333" stroke-width="2.285" stroke-linecap="round" stroke-linejoin="round" fill="none"/><path d="M148.288 222.902c1.262-10.975-.01-11.451-4.766-11.732" transform="matrix(1.041 -.06 .043 .929 -20.142 -86.099)" font-size="12" stroke="#333" stroke-width="2.285" stroke-linecap="round" stroke-linejoin="round" fill="none"/><path d="M130.724 96.646l-.221 11.895c-.032 2.257.67 2.899 2.633 2.899" stroke="#333" stroke-width="2.25" stroke-linejoin="round" stroke-linecap="round" fill="none"/><path d="M79.893 98.253l7.35 7.465 1.324 8.102m2.885-18.123l-4.036 10.379" font-size="12" stroke="#333" stroke-width="3.817" stroke-linecap="round" stroke-linejoin="round" fill="none"/><path d="M40.78 253.348c-16.499 14.437-19.192 19.561-27.957 29.8l21.652-4.141c0 2.21-1.514 30.048-1.735 32.037 14.877-15.059 21.958-22.018 43.34-33.465 8.501-4.51-2.151-12.069-3.372-14.425-5.678 4.205-9.899 8.658-13.835 13.85" transform="matrix(.851 -.166 -.102 -.777 28.768 587.974)" font-size="12" fill="#ffca00" fill-rule="evenodd" stroke="#333" stroke-width="1.201"/><path d="M83.086 326.449c29.733-37.866 128.115-36.961 155.516 1.17.884-.442 18.611-42.019 17.727-41.577-53.797-52.394-150.192-43.418-190.649-2.07l.48 2.468 16.927 40.009z" transform="matrix(.972 0 0 -.684 -29.787 586.481)" font-size="12" fill="#ffca00" fill-rule="evenodd" stroke="#333" stroke-width="1.213"/><path d="M862.133 93.447" transform="matrix(1 0 0 -.978 -811.749 454.806)" stroke="#000" stroke-width="1pt" fill="none"/><path d="M862.206 93.359c1.04 1.064 3.096.799 5.933.262 2.265-.273 4.846-.377 6.877-.612 3.362.275 5.288 1.061 3.906 2.656" transform="matrix(1 0 0 -.978 -811.124 454.493)" stroke="#333" fill="none"/><path d="M40.78 253.348c-16.499 14.437-19.192 19.561-27.957 29.8l21.652-4.141c0 2.21-1.514 30.048-1.735 32.037 14.877-15.059 21.958-22.018 43.34-33.465 8.501-4.51-2.489-12.171-3.711-14.527-5.678 4.205-10.376 8.76-13.497 13.952" transform="matrix(-.851 -.166 .102 -.777 224.575 587.06)" font-size="12" fill="#ffca00" fill-rule="evenodd" stroke="#333" stroke-width="1.201"/><path d="M862.133 93.447" transform="matrix(-1 0 0 -.978 1063.841 453.892)" stroke="#000" stroke-width="1pt" fill="none"/><path d="M862.427 93.359c1.741.805 3.538.449 5.712.262 2.063-.3 4.404-.652 6.721-.73 3.884.027 5.288 1.648 4.062 2.775" transform="matrix(-1 0 0 -.978 1064.466 453.579)" stroke="#333" fill="none"/><path d="M125.753 397.179c1.245-4.273 4.083-3.75 6.614-3.165 2.032 1.394 2.323 5.194.382 7.406l-3.562 2.712c-1.506 1-3.001 2.857-2.945 4.931l8.626-.171m-17.824-12.291c1.563-.849 1.937-1.186 3.134-2.924l-.668 15.454" font-size="12" stroke="#333" stroke-width="3.125" stroke-linecap="round" stroke-linejoin="round" fill="none"/><path d="M98.02 389.803c-.003.095-2.629 16.141-2.742 16.798l8.357 1.181" font-size="12" stroke="#333" stroke-width="3.125" stroke-linecap="round" fill="none"/><path d="M88.208 405.746l2.572-17.505" font-size="12" stroke="#333" stroke-width="3.125" stroke-linecap="round" stroke-linejoin="round" fill="none"/><path d="M58.353 396.568l6.376-16.188c1.91.957 4.37 1.335 6.492 3.228 1.378 2.291.743 6.989-3.205 7.435-2.176-.29-3.993-1.344-5.901-2.208" font-size="12" stroke="#333" stroke-width="3.125" stroke-linecap="round" fill="none"/><path d="M159.873 221.931c1.989-.626 3.535-1.473 5.303-3.204l-4.64 19.666" transform="matrix(.741 -.369 .341 .787 -31.451 277.607)" font-size="12" stroke="#333" stroke-width="3.664" stroke-linecap="round" stroke-linejoin="round" fill="none"/><path d="M170.002 388.346c.204-.053 8.346-2.9 8.346-2.9-.375 6.231-.491 12.211.288 17.741m3.987-19.214l8.348-3.267c-.359 6.317-.75 13.044.411 17.783m11.076-21.059c-.953-1.578-2.411-2.157-4.459-1.619-1.899 1.666-2.252 2.981-2.387 5.007.078 2.512.769 4.991 1.91 7.207.782 2.066 2.474 3.541 3.748 3.865 1.443.532 2.524.396 3.681-.605.883-1.114 1.284-2.984 1.203-4.393-.275-1.87-1.119-3.564-3.026-4.556-1.476-.605-2.085-.729-3.418-.162-2.023 1.195-2.391 3.408-2.09 5.664" font-size="12" stroke="#333" stroke-width="3.125" stroke-linecap="round" stroke-linejoin="round" fill="none"/><path d="M81.765 193.931l-.543-.007.362.004zm87.381 1.921l.543.007-.362-.004zm156.432 308.553l-.543-.007.362.004zm87.381 1.921l.543.007-.362-.004z" font-size="12" fill="#808080" fill-rule="evenodd" stroke="#000" stroke-width="3.126"/><path d="M135.566 212.318c2.486.111 4.891.287 4.891.287" transform="matrix(1.204 -.099 .057 .95 -38.149 210.046)" font-size="12" stroke="#333" stroke-width="2.099" stroke-linecap="round" stroke-linejoin="round" fill="none"/><path d="M139.095 393.534l.553 11.885c.115 2.254.857 2.85 2.816 2.722" stroke="#333" stroke-width="2.25" stroke-linejoin="round" stroke-linecap="round" fill="none"/><path d="M144.711 393.9l1.641 14.221m6.604-.274c-.598-10.289-1.98-10.464-6.889-9.751" font-size="12" stroke="#333" stroke-width="2.285" stroke-linecap="round" stroke-linejoin="round" fill="none"/><path d="M43.5 389.315s12.769-13.424 12.894-13.284c.562-.502-2.508 18.408-2.508 18.408m-5.719-9.798l6.626 3.177m17.665 14.709c-.002-.095 4.644-17.378 4.644-17.378 1.993.483 4.075.775 5.979 1.45 1.332.437 3.354 2.082 2.574 4.743-.367 1.613-1.116 3.047-2.256 3.925m-8.342-1.672l6.361 1.628c1.713.616 2.129 2.114 2.132 2.208.319 1.407-.75 7.469-.75 7.469" stroke="#333" font-size="12" fill="none"/></svg>