<svg xmlns="http://www.w3.org/2000/svg" width="512" height="512" viewBox="0 0 512 512"><path fill="#fff" d="M228.55 134.812h54.9v166.5h-54.9v-166.5zm27.45 250.376c-16.362 0-29.626-13.264-29.626-29.625s13.264-29.627 29.626-29.627c16.361 0 29.625 13.266 29.625 29.627s-13.264 29.625-29.625 29.625zm0-295.188c91.742 0 166 74.245 166 166 0 91.741-74.245 166-166 166-91.742 0-166-74.245-166-166 0-91.741 74.245-166 166-166zm0-40c-113.771 0-206 92.229-206 206s92.229 206 206 206 206-92.229 206-206-92.229-206-206-206z"/></svg>