<svg width="280mm" height="140mm" xmlns="http://www.w3.org/2000/svg" xmlns:xlink="http://www.w3.org/1999/xlink"><defs><linearGradient id="a"><stop offset="0"/><stop offset="1" stop-color="#fff"/></linearGradient><linearGradient xlink:href="#a"/><linearGradient xlink:href="#a"/><linearGradient xlink:href="#a"/><linearGradient xlink:href="#a"/><linearGradient xlink:href="#a"/><linearGradient xlink:href="#a"/><linearGradient xlink:href="#a"/><linearGradient xlink:href="#a"/><linearGradient xlink:href="#a"/><linearGradient xlink:href="#a"/><linearGradient xlink:href="#a"/><linearGradient xlink:href="#a"/><linearGradient xlink:href="#a"/><linearGradient xlink:href="#a"/><linearGradient xlink:href="#a"/><linearGradient xlink:href="#a"/><linearGradient xlink:href="#a"/><linearGradient xlink:href="#a"/><linearGradient xlink:href="#a"/><linearGradient xlink:href="#a"/><linearGradient xlink:href="#a"/><linearGradient xlink:href="#a"/><linearGradient xlink:href="#a"/><linearGradient xlink:href="#a"/><linearGradient xlink:href="#a"/><linearGradient xlink:href="#a"/><linearGradient xlink:href="#a"/><linearGradient xlink:href="#a"/><linearGradient xlink:href="#a"/><linearGradient xlink:href="#a"/><linearGradient xlink:href="#a"/><linearGradient xlink:href="#a"/><linearGradient xlink:href="#a"/><linearGradient xlink:href="#a"/><linearGradient xlink:href="#a"/><linearGradient xlink:href="#a"/><linearGradient xlink:href="#a"/><linearGradient xlink:href="#a"/><linearGradient xlink:href="#a"/><linearGradient xlink:href="#a"/><linearGradient xlink:href="#a"/><linearGradient xlink:href="#a"/><linearGradient xlink:href="#a"/><linearGradient xlink:href="#a"/><linearGradient xlink:href="#a"/><linearGradient xlink:href="#a"/><linearGradient xlink:href="#a"/><linearGradient xlink:href="#a"/><linearGradient xlink:href="#a"/><linearGradient xlink:href="#a"/><linearGradient xlink:href="#a"/><linearGradient xlink:href="#a"/><linearGradient xlink:href="#a"/><linearGradient xlink:href="#a"/><linearGradient xlink:href="#a"/><linearGradient xlink:href="#a"/><linearGradient xlink:href="#a"/><linearGradient xlink:href="#a"/><linearGradient xlink:href="#a"/><linearGradient xlink:href="#a"/><linearGradient xlink:href="#a"/><linearGradient xlink:href="#a"/></defs><path font-size="12" fill="#006" d="M0 3.937h992.126v496.063h-992.126z"/><g font-size="12"><path d="M0 3.937v27.731l440.602 220.301h55.461v-27.731l-440.602-220.301h-55.461zm496.063 0v27.73l-440.602 220.301h-55.461v-27.732l440.602-220.3h55.461zm-289.37 0v248.032h82.677v-248.032h-82.677zm-206.693 82.677v82.677h496.063v-82.677h-496.063z" fill="#fff"/><path d="M0 103.15v49.606h496.063v-49.606h-496.063zm223.228-99.213v248.032h49.606v-248.032h-49.606zm-223.228 248.032l165.354-82.677h36.974l-165.354 82.677h-36.974zm0-248.032l165.354 82.677h-36.974l-128.38-64.19v-18.487zm293.735 82.677l165.354-82.677h36.974l-165.354 82.677h-36.974zm202.328 165.354l-165.354-82.677h36.974l128.38 64.19v18.487z" fill="#c00"/></g><g font-size="12" fill-rule="evenodd"><path d="M541.459 1173.31l-1.698-229.143-61.104-106.934c-15.277-52.618-7.754-78.079 16.973-79.776 24.728-1.698 49.224 13.579 84.868 15.276 35.645 1.697 28.856-59.408 81.474-57.71 52.618 1.697 144.276 32.25 222.355 37.342 78.078 5.092 118.813-27.158 208.773-30.553 89.97-3.395 113.73 42.435 118.82 42.435 5.09 0 30.55-18.672 56.01-22.066 25.46-3.395 33.95 10.184 33.95 10.184s-1.7 57.71-13.58 91.657c-11.88 33.948-54.32 89.961-56.01 89.961-1.7 0-15.28 249.517-15.28 251.207 0 1.7-675.551-6.79-675.551-11.88z" fill="#c00" stroke="#000" stroke-width="1pt" transform="matrix(.093 0 0 .099 653.827 31.517)"/><g stroke="#000" stroke-width="1pt"><path d="M769.967 124.427s6.322-5.158 6.493-17.539c.098-7.121-3.197-12.277-11.436-12.277-11.533 0-28.01 5.262-28.01 5.262v1.754s13.181-5.262 28.01-5.262c6.591 0 9.886 5.157 9.886 10.418 0 8.77-6.591 17.645-6.591 17.645v14.031h1.648v-14.031z" fill="#fff100"/><path d="M478.346 549.213a17.717 17.717 0 1 0-35.433 0 17.716 17.717 0 1 0 35.433 0h-17.716z" transform="matrix(-.093 0 0 .099 817.101 66.428)" fill="#fff"/><path d="M478.346 549.213a17.717 17.717 0 1 0-35.433 0 17.716 17.717 0 1 0 35.433 0h-17.716z" transform="matrix(-.093 0 0 .099 818.749 62.416)" fill="#fff"/><path d="M478.346 549.213a17.717 17.717 0 1 0-35.433 0 17.716 17.717 0 1 0 35.433 0h-17.716z" transform="matrix(-.093 0 0 .099 819.607 58.33)" fill="#fff"/><path d="M478.346 549.213a17.717 17.717 0 1 0-35.433 0 17.716 17.717 0 1 0 35.433 0h-17.716z" transform="matrix(-.093 0 0 .099 820.239 53.961)" fill="#fff"/><path d="M478.346 549.213a17.717 17.717 0 1 0-35.433 0 17.716 17.717 0 1 0 35.433 0h-17.716z" transform="matrix(-.093 0 0 .099 820.081 49.225)" fill="#fff"/><path d="M478.346 549.213a17.717 17.717 0 1 0-35.433 0 17.716 17.717 0 1 0 35.433 0h-17.716z" transform="matrix(-.093 0 0 .099 814.733 69.957)" fill="#fff"/><path d="M478.346 549.213a17.717 17.717 0 1 0-35.433 0 17.716 17.717 0 1 0 35.433 0h-17.716z" transform="matrix(-.093 0 0 .099 818.68 44.751)" fill="#fff"/><path d="M478.346 549.213a17.717 17.717 0 1 0-35.433 0 17.716 17.717 0 1 0 35.433 0h-17.716z" transform="matrix(-.093 0 0 .099 815.681 41.222)" fill="#fff"/><path d="M478.346 549.213a17.717 17.717 0 1 0-35.433 0 17.716 17.717 0 1 0 35.433 0h-17.716z" transform="matrix(-.093 0 0 .099 811.576 38.87)" fill="#fff"/><path d="M478.346 549.213a17.717 17.717 0 1 0-35.433 0 17.716 17.717 0 1 0 35.433 0h-17.716z" transform="matrix(-.093 0 0 .099 807.472 38.533)" fill="#fff"/><path d="M478.346 549.213a17.717 17.717 0 1 0-35.433 0 17.716 17.717 0 1 0 35.433 0h-17.716z" transform="matrix(-.093 0 0 .099 803.052 38.702)" fill="#fff"/><path d="M478.346 549.213a17.717 17.717 0 1 0-35.433 0 17.716 17.717 0 1 0 35.433 0h-17.716z" transform="matrix(-.093 0 0 .099 798.632 39.374)" fill="#fff"/><path d="M478.346 549.213a17.717 17.717 0 1 0-35.433 0 17.716 17.717 0 1 0 35.433 0h-17.716z" transform="matrix(-.093 0 0 .099 794.212 40.046)" fill="#fff"/><path d="M478.346 549.213a17.717 17.717 0 1 0-35.433 0 17.716 17.717 0 1 0 35.433 0h-17.716z" transform="matrix(-.093 0 0 .099 789.477 40.886)" fill="#fff"/><path d="M478.346 549.213a17.717 17.717 0 1 0-35.433 0 17.716 17.717 0 1 0 35.433 0h-17.716z" transform="matrix(-.093 0 0 .099 785.372 42.062)" fill="#fff"/></g><path d="M478.346 549.213a17.717 17.717 0 1 0-35.433 0 17.716 17.717 0 1 0 35.433 0h-17.716z" transform="matrix(.093 0 0 .099 655.317 66.428)" fill="#fff" stroke="#000" stroke-width="1pt"/><path d="M478.346 549.213a17.717 17.717 0 1 0-35.433 0 17.716 17.717 0 1 0 35.433 0h-17.716z" transform="matrix(.093 0 0 .099 653.669 62.416)" fill="#fff" stroke="#000" stroke-width="1pt"/><path d="M478.346 549.213a17.717 17.717 0 1 0-35.433 0 17.716 17.717 0 1 0 35.433 0h-17.716z" transform="matrix(.093 0 0 .099 652.811 58.33)" fill="#fff" stroke="#000" stroke-width="1pt"/><path d="M478.346 549.213a17.717 17.717 0 1 0-35.433 0 17.716 17.717 0 1 0 35.433 0h-17.716z" transform="matrix(.093 0 0 .099 652.179 53.961)" fill="#fff" stroke="#000" stroke-width="1pt"/><path d="M478.346 549.213a17.717 17.717 0 1 0-35.433 0 17.716 17.717 0 1 0 35.433 0h-17.716z" transform="matrix(.093 0 0 .099 652.337 49.224)" fill="#fff" stroke="#000" stroke-width="1pt"/><path d="M478.346 549.213a17.717 17.717 0 1 0-35.433 0 17.716 17.717 0 1 0 35.433 0h-17.716z" transform="matrix(.093 0 0 .099 653.738 44.751)" fill="#fff" stroke="#000" stroke-width="1pt"/><path d="M478.346 549.213a17.717 17.717 0 1 0-35.433 0 17.716 17.717 0 1 0 35.433 0h-17.716z" transform="matrix(.093 0 0 .099 656.737 41.222)" fill="#fff" stroke="#000" stroke-width="1pt"/><path d="M478.346 549.213a17.717 17.717 0 1 0-35.433 0 17.716 17.717 0 1 0 35.433 0h-17.716z" transform="matrix(.093 0 0 .099 660.842 38.869)" fill="#fff" stroke="#000" stroke-width="1pt"/><path d="M478.346 549.213a17.717 17.717 0 1 0-35.433 0 17.716 17.717 0 1 0 35.433 0h-17.716z" transform="matrix(.093 0 0 .099 664.946 38.533)" fill="#fff" stroke="#000" stroke-width="1pt"/><path d="M478.346 549.213a17.717 17.717 0 1 0-35.433 0 17.716 17.717 0 1 0 35.433 0h-17.716z" transform="matrix(.093 0 0 .099 669.366 38.701)" fill="#fff" stroke="#000" stroke-width="1pt"/><path d="M478.346 549.213a17.717 17.717 0 1 0-35.433 0 17.716 17.717 0 1 0 35.433 0h-17.716z" transform="matrix(.093 0 0 .099 673.786 39.373)" fill="#fff" stroke="#000" stroke-width="1pt"/><path d="M478.346 549.213a17.717 17.717 0 1 0-35.433 0 17.716 17.717 0 1 0 35.433 0h-17.716z" transform="matrix(.093 0 0 .099 678.206 40.046)" fill="#fff" stroke="#000" stroke-width="1pt"/><path d="M478.346 549.213a17.717 17.717 0 1 0-35.433 0 17.716 17.717 0 1 0 35.433 0h-17.716z" transform="matrix(.093 0 0 .099 682.941 40.886)" fill="#fff" stroke="#000" stroke-width="1pt"/><path d="M478.346 549.213a17.717 17.717 0 1 0-35.433 0 17.716 17.717 0 1 0 35.433 0h-17.716z" transform="matrix(.093 0 0 .099 687.045 42.062)" fill="#fff" stroke="#000" stroke-width="1pt"/><path d="M478.346 549.213a17.717 17.717 0 1 0-35.433 0 17.716 17.717 0 1 0 35.433 0h-17.716z" transform="matrix(.093 0 0 .099 657.685 69.957)" fill="#fff" stroke="#000" stroke-width="1pt"/><path d="M531.496 584.646s-67.982-52.097-69.813-177.166c-1.053-71.929 34.38-124.015 122.963-124.015 124.015 0 301.181 53.149 301.181 53.149v17.717s-141.732-53.15-301.181-53.15c-70.866 0-106.3 52.087-106.3 105.236 0 88.583 70.867 178.229 70.867 178.229v141.732h-17.717v-141.732z" transform="matrix(.093 0 0 .099 653.827 66.596)" fill="#fff100" stroke="#000" stroke-width="1pt"/><path d="M1240.16 531.496s15.35-35.433 70.86-35.433c37.79 0 70.87 35.433 70.87 70.866v70.866h35.43v-70.866c0-35.47 35.44-70.866 70.87-70.866 53.15 0 70.87 35.433 70.87 35.433s0-106.299-70.87-106.299c-53.15 0-70.87 35.433-70.87 35.433s17.72-53.15 17.72-106.299c0-53.15-35.43-88.583-35.43-88.583 0 6.79-35.44 35.433-35.44 88.583 0 53.149 17.72 106.299 17.72 106.299s-17.72-35.433-70.87-35.433c-70.86 0-70.86 106.299-70.86 106.299z" transform="matrix(.031 0 0 .038 676.345 110.945)" fill="#fff100" stroke="#000" stroke-width="2.991"/><path d="M1240.16 531.496s15.35-35.433 70.86-35.433c37.79 0 70.87 35.433 70.87 70.866v70.866h35.43v-70.866c0-35.47 35.44-70.866 70.87-70.866 53.15 0 70.87 35.433 70.87 35.433s0-106.299-70.87-106.299c-53.15 0-70.87 35.433-70.87 35.433s17.72-53.15 17.72-106.299c0-53.15-35.43-88.583-35.43-88.583 0 6.79-35.44 35.433-35.44 88.583 0 53.149 17.72 106.299 17.72 106.299s-17.72-35.433-70.87-35.433c-70.86 0-70.86 106.299-70.86 106.299z" transform="matrix(.031 0 0 .038 709.298 110.945)" fill="#fff100" stroke="#000" stroke-width="2.991"/><path d="M531.496 832.677v-159.449s35.433 53.15 88.583 53.15c43.489 0 88.582-70.866 88.582-70.866s41.515 53.149 88.583 53.149c42.021 0 88.516-68.572 88.516-68.572s43.207 68.572 88.649 68.572c45.441 0 88.581-53.149 88.581-53.149s46.29 70.866 106.3 70.866c53.15 0 70.87-53.15 70.87-53.15v159.449h-708.664z" transform="matrix(.093 0 0 .099 653.827 66.596)" fill="#fff100" stroke="#000" stroke-width="1pt"/><path d="M708.661 832.677v-124.016s106.3 35.433 106.3 124.016h-106.3z" transform="matrix(.093 0 0 .099 637.351 66.596)" fill="#fff100" stroke="#000" stroke-width="1pt"/><path d="M708.661 832.677v-124.016s106.3 35.433 106.3 124.016h-106.3z" transform="matrix(-.093 0 0 .099 835.067 66.596)" fill="#fff100" stroke="#000" stroke-width="1pt"/><path d="M602.362 832.677c0-88.583 106.366-144.599 106.366-144.599s106.233 56.016 106.233 144.599h-212.599z" transform="matrix(.093 0 0 .099 653.827 66.596)" fill="#fff100" stroke="#000" stroke-width="1pt"/><path d="M602.362 832.677c0-88.583 106.366-144.599 106.366-144.599s106.233 56.016 106.233 144.599h-212.599z" transform="matrix(.093 0 0 .099 686.78 66.596)" fill="#fff100" stroke="#000" stroke-width="1pt"/><path d="M584.646 847.527c0-88.583 124.082-159.449 124.082-159.449s123.949 70.866 123.949 159.449h-248.031z" transform="matrix(.093 0 0 .099 670.303 65.126)" fill="#fff100" stroke="#000" stroke-width="1pt"/><path d="M1275.59 655.512c-35.43-17.716-166.02-35.433-376.275-35.433-210.26 0-350.101 17.717-385.534 35.433-35.434 17.717-35.434 53.149-.001 70.866 35.433 17.716 175.275 35.433 385.535 35.433 210.255 0 340.845-17.716 376.275-35.433 35.43-17.716 35.43-53.149 0-70.866z" transform="matrix(.092 0 0 .099 653.512 84.135)" fill="#fff" stroke-width="1pt" stroke="#000"/><path d="M770.011 155.93c0 3.508-27.613 3.508-33.198 3.508-6.035 0-33.198.951-33.198-3.508 0-3.508 27.388-3.508 33.198-3.508 5.81 0 33.198.713 33.198 3.508z" fill="#808080"/><path d="M566.929 776.277a17.717 20.967 0 1 0-35.433 0 17.717 20.967 0 1 0 35.433 0h-17.716z" transform="matrix(.093 0 0 .099 653.827 66.596)" fill="#c00"/><path d="M566.929 776.277a17.717 20.967 0 1 0-35.433 0 17.717 20.967 0 1 0 35.433 0h-17.716z" transform="matrix(.093 0 0 .099 716.437 66.596)" fill="#c00"/><path d="M566.929 776.277a17.717 20.967 0 1 0-35.433 0 17.717 20.967 0 1 0 35.433 0h-17.716z" transform="matrix(.186 0 0 .099 634.055 65.485)"/><path d="M566.929 776.277a17.717 20.967 0 1 0-35.433 0 17.717 20.967 0 1 0 35.433 0h-17.716z" transform="matrix(.14 0 0 .099 676.224 65.485)" fill="#006300"/><path d="M566.929 776.277a17.717 20.967 0 1 0-35.433 0 17.717 20.967 0 1 0 35.433 0h-17.716z" transform="matrix(.14 0 0 .099 642.293 65.485)" fill="#006300"/><path d="M1257.87 496.063s35.44-53.15 70.87-53.15h35.43v35.433c0 53.15-53.15 70.867-53.15 70.867h141.74s-53.15-17.717-53.15-70.867v-35.433h35.43c35.43 0 70.87 53.15 70.87 53.15v-141.732s-35.44 53.15-70.87 53.15h-35.43v-35.433c0-53.15 53.15-70.867 53.15-70.867h-141.74s53.15 17.717 53.15 70.867v35.433h-35.43c-35.43 0-70.87-53.15-70.87-53.15v141.732z" transform="matrix(.053 0 0 .057 662.774 102.176)" fill="#fff100" stroke="#000" stroke-width="2.188"/><path d="M1381.89 549.212l70.87.001s-53.15-17.717-53.15-70.867v-35.433h35.43c35.43 0 70.87 53.15 70.87 53.15v-141.732s-35.44 53.15-70.87 53.15h-35.43v-35.433c0-53.15 53.15-70.867 53.15-70.867h-70.87v248.031z" transform="matrix(.027 0 0 .05 666.538 109.567)" fill="#fff100" stroke="#000" stroke-width="3.307"/><path d="M1381.89 549.212l70.87.001s-53.15-17.717-53.15-70.867v-35.433h35.43c35.43 0 70.87 53.15 70.87 53.15v-141.732s-35.44 53.15-70.87 53.15h-35.43v-35.433c0-53.15 53.15-70.867 53.15-70.867h-70.87v248.031z" transform="matrix(-.027 0 0 .05 805.879 109.567)" fill="#fff100" stroke="#000" stroke-width="3.307"/><path d="M903.543 602.362a17.717 17.717 0 1 0-35.433 0 17.717 17.716 0 1 0 35.433 0h-17.716z" transform="matrix(.093 0 0 .099 653.827 66.596)" stroke="#000" fill="#fff" stroke-width="1pt"/><path d="M1257.87 496.063s35.44-53.15 70.87-53.15h35.43v35.433c0 53.15-53.15 70.867-53.15 70.867h141.74s-53.15-17.717-53.15-70.867v-35.433h35.43c35.43 0 70.87 53.15 70.87 53.15v-141.732s-35.44 53.15-70.87 53.15h-35.43v-35.433c0-53.15 53.15-70.867 53.15-70.867h-141.74s53.15 17.717 53.15 70.867v35.433h-35.43c-35.43 0-70.87-53.15-70.87-53.15v141.732z" transform="matrix(.053 0 0 .057 662.774 65.343)" fill="#fff100" stroke="#000" stroke-width="2.188"/><path d="M903.543 602.362a17.717 17.717 0 1 0-35.433 0 17.717 17.716 0 1 0 35.433 0h-17.716z" transform="matrix(.093 0 0 .099 653.985 30.057)" stroke="#000" fill="#fff" stroke-width="1pt"/><path fill="#fff100" stroke-width="1pt" stroke="#000" d="M850.393 655.512h70.866v53.15h-70.866zm.001 27.785h70.866v202.53h-70.866z" transform="matrix(.093 0 0 .099 653.827 31.517)"/><path d="M478.346 549.213a17.717 17.717 0 1 0-35.433 0 17.716 17.717 0 1 0 35.433 0h-17.716z" transform="matrix(.093 0 0 .099 693.37 61.334)" fill="#fff" stroke="#000" stroke-width="1pt"/><path d="M478.346 549.213a17.717 17.717 0 1 0-35.433 0 17.716 17.717 0 1 0 35.433 0h-17.716z" transform="matrix(.093 0 0 .099 693.37 56.797)" fill="#fff" stroke="#000" stroke-width="1pt"/><path d="M478.346 549.213a17.717 17.717 0 1 0-35.433 0 17.716 17.717 0 1 0 35.433 0h-17.716z" transform="matrix(.093 0 0 .099 693.37 52.564)" fill="#fff" stroke="#000" stroke-width="1pt"/><path d="M478.346 549.213a17.717 17.717 0 1 0-35.433 0 17.716 17.717 0 1 0 35.433 0h-17.716z" transform="matrix(.093 0 0 .099 693.37 48.195)" fill="#fff" stroke="#000" stroke-width="1pt"/><path d="M614.511 1201.791a36.007 14.403 0 1 0-72.013 0 36.007 14.403 0 1 0 72.013-.001l-36.006.001z" transform="matrix(.093 0 0 .099 682.56 30.091)"/><path d="M614.511 1201.791a36.007 14.403 0 1 0-72.013 0 36.007 14.403 0 1 0 72.013-.001l-36.006.001z" transform="matrix(.092 .024 -.023 .068 741.597 56.015)"/><path d="M614.511 1201.791a36.007 14.403 0 1 0-72.013 0 36.007 14.403 0 1 0 72.013-.001l-36.006.001z" transform="matrix(.095 .008 -.009 .087 710.212 40.547)"/><path d="M614.511 1201.791a36.007 14.403 0 1 0-72.013 0 36.007 14.403 0 1 0 72.013-.001l-36.006.001z" transform="matrix(-.092 .024 .023 .068 730.086 56.015)"/><path d="M614.511 1201.791a36.007 14.403 0 1 0-72.013 0 36.007 14.403 0 1 0 72.013-.001l-36.006.001z" transform="matrix(-.095 .008 .009 .087 762.103 40.211)"/></g><path font-size="12" fill="#fff" fill-rule="evenodd" d="M728.383 226.284l.465-14.099-14.018-1.574 11.312-8.427-7.509-11.941 13.641 3.591 4.653-13.316 5.698 12.904 13.313-4.665-6.537 12.5 11.947 7.501-13.849 2.684 1.585 14.017-10.732-9.155-9.971 9.978zm5.235 226.168l.465-14.099-14.018-1.574 11.312-8.427-7.509-11.941 13.641 3.591 4.653-13.316 5.698 12.904 13.313-4.665-6.537 12.5 11.947 7.501-13.849 2.684 1.585 14.017-10.732-9.155-9.971 9.978zm-81.672-121.461l.465-14.099-14.018-1.574 11.312-8.427-7.509-11.941 13.641 3.591 4.653-13.316 5.698 12.904 13.313-4.665-6.537 12.5 11.947 7.501-13.849 2.684 1.585 14.017-10.732-9.155-9.971 9.978zm165.438-24.082l.465-14.099-14.018-1.574 11.312-8.427-7.509-11.941 13.641 3.591 4.653-13.316 5.698 12.904 13.313-4.665-6.537 12.5 11.947 7.501-13.849 2.684 1.585 14.017-10.732-9.155-9.971 9.978zm-38.362 57.222l1.911-8.697-6.081-6.504 8.862-.871 4.307-7.793 3.566 8.159 8.743 1.688-6.658 5.913 1.097 8.837-7.681-4.505-8.066 3.773z"/></svg>