<svg width="280mm" height="140mm" xmlns="http://www.w3.org/2000/svg" xmlns:xlink="http://www.w3.org/1999/xlink"><defs><linearGradient id="a"><stop offset="0"/><stop offset="1" stop-color="#fff"/></linearGradient><linearGradient xlink:href="#a"/><linearGradient xlink:href="#a"/><linearGradient xlink:href="#a"/><linearGradient xlink:href="#a"/><linearGradient xlink:href="#a"/><linearGradient xlink:href="#a"/><linearGradient xlink:href="#a"/><linearGradient xlink:href="#a"/><linearGradient xlink:href="#a"/><linearGradient xlink:href="#a"/><linearGradient xlink:href="#a"/><linearGradient xlink:href="#a"/><linearGradient xlink:href="#a"/><linearGradient xlink:href="#a"/><linearGradient xlink:href="#a"/><linearGradient xlink:href="#a"/><linearGradient xlink:href="#a"/><linearGradient xlink:href="#a"/><linearGradient xlink:href="#a"/><linearGradient xlink:href="#a"/><linearGradient xlink:href="#a"/><linearGradient xlink:href="#a"/><linearGradient xlink:href="#a"/><linearGradient xlink:href="#a"/><linearGradient xlink:href="#a"/><linearGradient xlink:href="#a"/><linearGradient xlink:href="#a"/><linearGradient xlink:href="#a"/><linearGradient xlink:href="#a"/><linearGradient xlink:href="#a"/><linearGradient xlink:href="#a"/><linearGradient xlink:href="#a"/><linearGradient xlink:href="#a"/><linearGradient xlink:href="#a"/><linearGradient xlink:href="#a"/><linearGradient xlink:href="#a"/><linearGradient xlink:href="#a"/><linearGradient xlink:href="#a"/><linearGradient xlink:href="#a"/><linearGradient xlink:href="#a"/><linearGradient xlink:href="#a"/><linearGradient xlink:href="#a"/><linearGradient xlink:href="#a"/><linearGradient xlink:href="#a"/><linearGradient xlink:href="#a"/><linearGradient xlink:href="#a"/><linearGradient xlink:href="#a"/><linearGradient xlink:href="#a"/><linearGradient xlink:href="#a"/><linearGradient xlink:href="#a"/><linearGradient xlink:href="#a"/><linearGradient xlink:href="#a"/><linearGradient xlink:href="#a"/><linearGradient xlink:href="#a"/><linearGradient xlink:href="#a"/><linearGradient xlink:href="#a"/><linearGradient xlink:href="#a"/><linearGradient xlink:href="#a"/><linearGradient xlink:href="#a"/><linearGradient xlink:href="#a"/><linearGradient xlink:href="#a"/><linearGradient xlink:href="#a"/></defs><path font-size="12" fill="#006" d="M0 3.937h992.126v496.063h-992.126z"/><g font-size="12"><path d="M0 3.937v27.731l440.602 220.301h55.461v-27.731l-440.602-220.301h-55.461zm496.063 0v27.73l-440.602 220.301h-55.461v-27.732l440.602-220.3h55.461zm-289.37 0v248.032h82.677v-248.032h-82.677zm-206.693 82.677v82.677h496.063v-82.677h-496.063z" fill="#fff"/><path d="M0 103.15v49.606h496.063v-49.606h-496.063zm223.228-99.213v248.032h49.606v-248.032h-49.606zm-223.228 248.032l165.354-82.677h36.974l-165.354 82.677h-36.974zm0-248.032l165.354 82.677h-36.974l-128.38-64.19v-18.487zm293.735 82.677l165.354-82.677h36.974l-165.354 82.677h-36.974zm202.328 165.354l-165.354-82.677h36.974l128.38 64.19v18.487z" fill="#c00"/></g><rect width="246.079" height="246.079" x="632.512" y="131.406" ry="123.039" rx="123.039" font-size="12" fill="#fff" fill-rule="evenodd"/><path d="M708.468 217.567c.237-.2 1.958.33 3.627 1.047 2.144.202 3.692 1.075 5.841 1.233 1.805.82 3.605 1.533 5.778 1.97 2.414.378 3.523-.143 5.965-.243 1.698-.451 3.611-1.063 5.289-1.042 1.922-.51 3.318-.529 5.35-1.78 1.847-1.561 12.204 6.694 12.164 4.984-2.391-2.389-12.362-11.018-15.02-10.797-2.396.152-4.581-1.449-7.316-1.356-2.456.541-4.603 1.251-7.102.519-2.315-.171-3.498-.551-5.902-.495-2.178-.161-3.686.429-5.565-.095-1.565-.546-2.515-.727-3.413.828.376 1.225.184 2.955.305 5.227zm5.245 1.099c2.423-.319 3.339-1.132 5.653-1.917 1.502-.912 3.164-2.04 4.779-2.493 1.699-1.032 3.034-1.445 4.629-3.219 1.331-2.019 14.714-.796 14.193-2.424-2.968-1.616-16.087-3.307-18.574-2.345-2.255.823-4.804-.097-7.402.765-2.203 1.213-4.062 2.5-6.666 2.504-2.269.49 1.179 9.325 3.387 9.13zm-.015-6.207c.293-.101 1.706 1.015 3.004 2.286 1.926.962 3.055 2.335 5.002 3.258 1.387 1.416 2.808 2.731 4.677 3.924 2.115 1.224 3.337 1.139 5.65 1.927 1.746.193 3.751.312 5.308.937 1.976.218 3.286 2.186 5.632 1.752 2.286-.789 10.963 5.259 11.543 3.651-1.367-3.091-9.55-9.349-12.108-10.103-2.289-.723-3.749-4.486-6.333-5.388-2.486-.382-4.744-.495-6.81-2.08-2.097-.995-3.063-1.777-5.325-2.592-1.973-.936-3.592-.931-5.156-2.098-1.262-1.074-2.083-1.586-3.482-.46-.092 1.278-.895 2.822-1.602 4.985z" fill="#c00" fill-rule="evenodd" stroke="#000" stroke-width="1pt"/><path d="M779.404-111.783c3.167 4.221 21.632 21.296 21.632 29.739 0 8.443-2.111 7.915-2.638 7.915-.528 0-2.639-2.111-2.639-2.111s1.583 3.166-3.694 7.915c-5.277 4.749-16.886 7.915-16.886 7.915l-2.638-2.638-1.056 3.166s-.527-2.639-1.055-2.639c-.528 0-2.638 2.111-2.638 2.111s-1.056-2.638-1.584-2.638c-.527 0-2.638 3.166-2.638 3.166s-.528-3.694 1.583-5.805c2.111-2.111 6.86-1.055 7.388-1.055.527 0 14.247-1.055 13.192-14.775-1.055-13.72-16.882-21.824-16.882-21.824s7.387-12.665 10.553-8.443z" transform="matrix(.687 .392 -.675 1.181 207.903 93.187)" font-size="12" fill="#c00" fill-rule="evenodd" stroke="#000" stroke-width="1pt"/><path d="M584.683-158.559c-1.056-14.775 16.886-7.388 20.052 4.221 10.554 6.332 59.101 29.551 59.101 29.551l-6.332 8.443s-48.548-30.606-51.714-28.496c-3.166 2.111-11.609-5.276-11.609-5.276l-1.055-7.388s-1.056 6.333-2.111 6.333c-1.055 0-1.055-7.388-1.055-7.388l-4.222 5.277-1.055-5.277z" transform="matrix(.724 -.32 .55 1.244 332.725 632.57)" font-size="12" fill="#c00" fill-rule="evenodd" stroke="#000" stroke-width="1pt"/><path d="M717.779 214.361c.304-.059 1.548 1.243 2.657 2.682 1.774 1.221 2.7 2.738 4.499 3.923 1.176 1.595 2.4 3.096 4.085 4.537 1.924 1.507 1.666 4.184 3.846 5.287 1.703.434 3.671.832 5.126 1.668 1.927.491 3.156 1.155 5.539 1.053 2.373-.463 10.906 4.899 11.705 3.387-.923-3.251-8.938-8.752-11.365-9.855-2.166-1.035-3.294-3.498-5.727-4.751-2.408-.724-3.149-3.743-4.974-5.6-1.938-1.278-2.786-2.186-4.912-3.309-1.824-1.202-3.428-1.422-4.813-2.795-1.101-1.239-1.841-1.861-3.384-.941-.269 1.253-1.28 2.67-2.281 4.713z" fill="#c00" fill-rule="evenodd" stroke="#000" stroke-width="1pt"/><path d="M670.169-130.064c15.83-.528 90.235-.528 90.235-.528s25.629-.912 26.157-8.828c.527-7.915-16.106-1.514-22.061-.744-15.195 2.21-40.577 6.449-52.596 2.937-5.293-1.925-12.081-2.22-12.673-10.541-.592-8.722 10.842-7.613 16.777-7.46 13.238.307 25.156.579 39.719 2.023 0 0 0-6.86.528-6.86l2.111 3.694s4.222-5.277 4.222-4.749c0 .528 1.583 4.221 1.583 4.221l3.166-2.638s1.055 3.166 1.583 3.166l4.221-2.638 2.639 3.694 5.277 3.166h-6.333l-1.055 2.638-2.638-2.638-3.167 4.221-2.11-2.638s-2.111 2.111-2.111 2.638c0 .528-2.111-3.166-2.639-3.166-.527 0-3.166 2.639-3.166 2.639s-1.583-2.111-2.111-2.111c-.527 0-38.395-1.254-38.395-1.254-7.939.385-12.796-.632-12.95 4.052-.259 8.525 8.05 8.53 8.05 8.53 11.248 3.079 38.96-.644 54.706-4.092.487-.118 23.116-6.116 22.589 3.383-.528 9.498-18.769 11.466-18.769 11.466s6.86 3.694 10.026 11.082c3.166 7.387 1.055 9.498 4.221 13.72 3.167 4.221 15.831 13.192 15.831 21.635 0 8.443-2.111 7.915-2.638 7.915-.528 0-2.639-2.111-2.639-2.111s1.583 3.166-3.694 7.915c-5.277 4.749-16.886 7.915-16.886 7.915l-2.638-2.638-1.056 3.166s-.527-2.639-1.055-2.639c-.528 0-2.638 2.111-2.638 2.111s-1.056-2.638-1.584-2.638c-.527 0-2.638 3.166-2.638 3.166s-.528-3.694 1.583-5.805c2.111-2.111 6.86-1.055 7.388-1.055.527 0 13.585-1.055 12.53-14.775-1.055-5.636-3.752-8.268-9.209-7.825-13.153 1.014-37.118-.902-38.907-4.98-4.057-9.627-31.431.14-59.399 3.834-27.967 3.694-64.906 17.942-64.906 17.942l-1.055 3.166s-1.583-4.222-2.111-3.694c-.528.528-1.055 4.222-1.583 4.222l-3.166-4.749s-4.749 6.332-4.749 5.805c0-.528.527-4.749.527-4.749s-3.166-8.443 7.388-11.609c10.554-3.166 11.081-.528 23.746-5.277 12.665-4.749 4.749-17.941 16.886-29.023 12.137-11.081 22.163-11.081 21.636-11.609z" transform="matrix(.791 0 0 1.36 210.627 416.852)" font-size="12" fill="#c00" fill-rule="evenodd" stroke="#000" stroke-width="1pt"/><path d="M721.024 237.365c.169.26-.573 1.901-1.493 3.467-.468 2.102-1.528 3.528-1.954 5.641-1.039 1.688-1.972 3.384-2.678 5.486-.677 2.348-2.89 6.105-3.097 8.54.235 1.741.603 3.716.372 5.378.266 1.97.11 3.359 1.097 5.531 1.318 2.028 4.62 13.542 6.32 13.716 2.669-2.073-.31-13.158-.196-15.822.149-2.396 2.011-4.364 2.261-7.089-.23-2.504 1.926-7.315 2.965-9.702.459-2.276.984-3.402 1.23-5.794.432-2.141.036-3.711.791-5.51.737-1.484 1.036-2.404-.394-3.49-1.262.219-2.955-.187-5.224-.351zm-.455-14.866c.308-.033 1.438 1.369 2.42 2.897 1.664 1.367 2.459 2.957 4.151 4.29 1.037 1.689 2.129 3.288 3.686 4.866 1.79 1.664 3 1.853 5.079 3.136 1.66.577 3.588 1.139 4.966 2.096 1.878.653 3.046 1.418 5.43 1.518 2.404-.26 12.693 2.856 13.617 1.417-.645-3.318-10.405-6.529-12.731-7.833-2.071-1.214-2.986-3.764-5.305-5.218-2.338-.926-4.515-1.539-6.176-3.544-1.823-1.437-2.591-2.414-4.615-3.713-1.716-1.352-3.295-1.707-4.559-3.193-.992-1.328-1.677-2.01-3.292-1.224-.374 1.225-1.501 2.552-2.672 4.503zm2.621 9.349c.206.232-.28 1.966-.954 3.652-.147 2.148-.98 3.718-1.084 5.87-.774 1.825-1.441 3.642-1.823 5.827-.316 2.423.233 3.518.394 5.956.494 1.686 1.155 3.583 1.177 5.26.559 1.908.614 3.304 1.916 5.303 1.607 1.806-.752 11.203.956 11.119 2.327-2.451 5.071-11.472 4.782-14.123-.213-2.391 1.332-4.616 1.17-7.349-.604-2.441-1.368-4.57-.7-7.086.112-2.319.462-3.511.345-5.913.105-2.182-.523-3.674-.047-5.566.506-1.578.663-2.533-.914-3.391-1.215.407-2.95.259-5.217.438zm.815-9.667c.061.304-1.232 1.557-2.664 2.674-1.209 1.782-2.72 2.718-3.893 4.525-1.588 1.187-3.08 2.42-4.51 4.115-1.494 1.934-1.571 3.156-2.66 5.344-.423 1.705-.807 3.677-1.634 5.137-.478 1.93-1.134 3.163-1.016 5.546.479 2.37-4.053 15.747-2.536 16.535 3.245-.945 7.92-13.804 9.006-16.239 1.02-2.173 3.476-3.317 4.712-5.759.708-2.413 1.12-4.637 2.965-6.474 1.265-1.947 2.168-2.8 3.276-4.934 1.19-1.832 1.399-3.437 2.763-4.832 1.232-1.109 1.849-1.854.918-3.39-1.254-.261-2.679-1.262-4.728-2.25zm-1.848 2.814c.112.289-.952 1.742-2.174 3.086-.891 1.96-2.222 3.138-3.073 5.118-1.364 1.438-2.627 2.906-3.75 4.818-1.146 2.158-1.016 3.377-1.719 5.717-.129 1.752-.175 3.76-.742 5.339-.146 1.983.897 2.939 1.416 5.268.872 2.255-2.077 10.282-.448 10.803 3.039-1.48 6.215-9.02 6.875-11.603.638-2.314 1.385-3.486 2.191-6.102.291-2.498.321-4.759 1.829-6.882.918-2.132 1.663-3.126 2.396-5.417.864-2.006.799-3.624 1.908-5.229 1.027-1.301 1.509-2.139.332-3.496-1.28-.045-2.853-.791-5.04-1.419zm2.498 8.753c.273.147.41 1.943.354 3.758.597 2.069.352 3.829.991 5.887-.102 1.979 1.003 3.545 1.393 5.728.532 2.385 1.423 3.226 2.41 5.462 1.041 1.415 2.311 2.971 2.906 4.54 1.178 1.602 1.707 2.894 3.615 4.327 2.129 1.147 3.966 11.332 5.542 10.67 1.348-3.1-.001-13.063-1.179-15.456-1.019-2.173-.329-4.793-1.416-7.305-1.403-2.087-2.849-3.825-3.083-6.419-.689-2.217-1.879-3.086-2.811-5.303-.648-2.086-1.749-3.273-1.949-5.213-.065-1.656-.244-2.607-2.02-2.873-1.002.798-2.683 1.254-4.752 2.198zm4.229-3.331c.296.093.769 1.83 1.058 3.624.977 1.919 21.06 28.496 22.077 30.396.274 1.963-18.985-20.568-18.191-18.498.974 2.241 2.007 2.899 3.399 4.908 1.29 1.193 2.831 2.48 3.712 3.909 1.46 1.35 1.853 3.63 3.997 4.676 2.307.724 6.287 12.256 7.71 11.308.737-3.299-2.72-14.706-4.33-16.832-1.411-1.942-.858-5.756-2.401-8.017-1.772-1.784-3.892-3.587-4.611-6.09-1.095-2.047-1.408-3.249-2.742-5.25-1.031-1.926-2.336-2.884-2.9-4.751-.377-1.614-.732-2.513-2.527-2.439-.834.973-2.397 1.738-4.251 3.057zm-8.693-7.483c.31-.006 1.313 1.489 2.159 3.096 1.539 1.506 2.193 3.159 3.763 4.634.886 1.773 1.836 3.46 3.25 5.168 1.638 1.813 2.828 2.106 4.788 3.566 1.603.719 3.475 1.447 4.766 2.519 1.814.813 2.912 1.677 5.278 1.984 2.417-.051 10.954 3.838 11.999 2.484-.354-3.361-8.356-7.298-10.559-8.799-1.958-1.389-2.647-4.009-4.832-5.659-2.249-1.125-4.364-1.925-5.845-4.067-1.692-1.59-2.372-2.63-4.275-4.099-1.592-1.496-3.134-1.987-4.265-3.577-.873-1.409-1.496-2.148-3.173-1.505-.479 1.188-1.717 2.412-3.053 4.254zm.841-.184c.305.057.981 1.726 1.48 3.473 1.198 1.789 1.5 3.541 2.735 5.306.505 1.917 1.089 3.763 2.124 5.724 1.233 2.11 2.337 2.64 3.957 4.47 1.422 1.031 3.106 2.127 4.15 3.441 1.61 1.167 2.507 2.238 4.76 3.022 2.377.445 13.078 9.662 14.378 8.552.341-3.363-9.827-12.518-11.677-14.438-1.632-1.76-1.771-4.466-3.571-6.528-1.971-1.562-3.878-2.777-4.89-5.176-1.331-1.902-1.783-3.06-3.346-4.887-1.252-1.79-2.661-2.586-3.443-4.373-.566-1.558-1.025-2.409-2.798-2.122-.712 1.065-2.174 2.01-3.858 3.539zm.582-1.15c.281.131.519 1.916.567 3.732.714 2.032.569 3.803 1.324 5.821.011 1.982.115 3.915.628 6.073.667 2.351 1.604 3.14 2.716 5.316 1.12 1.354 2.476 2.835 3.16 4.367 1.267 1.532 1.869 2.793 3.855 4.114 2.19 1.024 10.253 12.62 11.788 11.869 1.169-3.171-6.392-14.574-7.704-16.895-1.141-2.112-.6-4.767-1.829-7.213-1.519-2.004-3.062-3.657-3.443-6.233-.814-2.174-.963-3.408-2.02-5.568-.766-2.046-1.932-3.168-2.242-5.094-.159-1.65-.392-2.588-2.18-2.753-.955.854-2.607 1.404-4.62 2.464zm-3.314.447c.245.19.088 1.983-.263 3.766.252 2.138-.276 3.835.02 5.969-.423 1.936-.743 3.846-.714 6.063.137 2.44.879 3.415 1.489 5.781.797 1.566 1.797 3.307 2.129 4.952.902 1.772 3.805 1.653 5.455 3.377 1.914 1.478 3.545 13.075 5.207 12.678 1.834-2.839.65-12.657-.123-15.209-.652-2.31-2.136-4.783-2.8-7.438-1.044-2.288-2.189-4.238-1.998-6.835-.319-2.3-.195-3.536-.754-5.875-.3-2.164-1.193-3.514-1.075-5.461.205-1.645.184-2.611-1.525-3.163-1.119.624-2.851.8-5.047 1.395zm.573-7.347c.178.254-.504 1.92-1.367 3.519-.393 2.117-1.4 3.581-1.75 5.707-.978 1.724-1.849 3.453-2.479 5.579-.592 2.371-.172 3.522-.291 5.962.297 1.732.736 3.691.566 5.361.336 1.96.231 3.352 1.295 5.488 1.39 1.979 2.608 16.05 4.313 16.163 2.593-2.168 1.713-15.822 1.731-18.488.062-2.4 1.853-4.433 2.005-7.166-.32-2.494-.835-4.696.118-7.12.377-2.291.861-3.435 1.02-5.834.355-2.155-.098-3.71.592-5.534.683-1.51.949-2.44-.52-3.473-1.254.265-2.96-.081-5.233-.163zm-2.449 6.537c2.435.2 3.503-.401 5.931-.679 1.661-.574 3.523-1.325 5.198-1.427 1.879-.649 3.271-.771 5.205-2.167 1.727-1.692 16.859 1.67 16.694-.032-6.224-2.207-17.334-5.97-19.968-5.556-2.378.327-4.675-1.11-7.396-.817-2.41.72-4.499 1.585-7.045 1.038-2.322-.001-.819 9.363 1.38 9.64zm.629.832c2.423-.319 3.339-1.132 5.653-1.917 1.502-.912 3.164-2.04 4.779-2.493 1.699-1.032 3.034-1.445 4.629-3.219 1.331-2.019 14.56-.272 14.039-1.9-2.968-1.616-15.934-3.831-18.421-2.869-2.255.823-4.804-.097-7.402.765-2.203 1.213-4.062 2.5-6.666 2.504-2.269.49 1.179 9.325 3.387 9.13zm-.566-9.07c.281.131.519 1.916.567 3.732.714 2.032.569 3.803 1.324 5.821.011 1.982.115 3.915.628 6.073.667 2.351 1.604 3.14 2.716 5.316 1.12 1.354 2.476 2.835 3.16 4.367 1.267 1.532 1.869 2.793 3.855 4.114 2.19 1.024 6.181 10.029 7.717 9.278 1.168-3.172-2.32-11.983-3.633-14.304-1.141-2.112-.6-4.767-1.829-7.213-1.519-2.004-3.062-3.657-3.443-6.233-.814-2.174-.963-3.408-2.02-5.568-.766-2.046-1.932-3.168-2.242-5.094-.159-1.65-.392-2.588-2.18-2.753-.955.854-2.607 1.404-4.62 2.464zm-6.49 12.185c.667 2.351 1.604 3.14 2.716 5.316 1.12 1.354 2.476 2.835 3.16 4.367 1.267 1.532 1.869 2.793 3.855 4.114 2.19 1.024 7.661 11.88 9.197 11.129 1.169-3.171-3.8-13.834-5.113-16.155-1.141-2.112-.6-4.767-1.829-7.213-1.519-2.004-12.499-3.716-11.986-1.558zm7.071-14.229c.183.25-.468 1.929-1.301 3.544-.353 2.124-1.333 3.607-1.643 5.739-.945 1.742-1.785 3.487-2.375 5.624-.548 2.381-.107 3.524-.18 5.967.329 1.726.805 3.677.665 5.349.373 1.953.293 3.348 1.397 5.462 1.426 1.953 2.906 15.998 4.614 16.08 2.552-2.216 1.419-15.851 1.387-18.517.018-2.4 1.77-4.467 1.871-7.202-.366-2.488-.922-4.68-.015-7.121.334-2.297.797-3.45.912-5.852.315-2.162-.167-3.707.489-5.544.655-1.522.904-2.457-.584-3.463-1.249.288-2.961-.025-5.235-.066zm-1.296 13.598c.295-.096 1.69 1.042 2.967 2.334 1.91.993 3.017 2.384 4.948 3.339 1.364 1.438 2.763 2.777 4.613 3.999 2.095 1.258 3.318 1.192 5.618 2.018 1.743.221.784 1.484 2.331 2.134 1.973.25 1.422 1.868 3.775 1.473 2.298-.752 7.699 8.022 8.305 6.423-1.317-3.113-5.478-10.607-8.024-11.403-2.277-.76-2.589-5.657-5.159-6.6-2.479-.422-1.774-1.683-3.814-3.301-2.081-1.029-3.034-1.826-5.283-2.678-1.958-.968-3.577-.989-5.121-2.181-1.245-1.094-2.057-1.62-3.474-.517-.113 1.276-.941 2.808-1.683 4.958z" fill="#c00" fill-rule="evenodd" stroke="#000" stroke-width="1pt"/><path d="M710.965 224.347c-.524 0-15.706 4.711-22.512 4.188-6.806-.524-6.806-6.806-9.947-5.235-3.142 1.57 2.617 9.423 9.423 8.9 6.806-.524 27.224-4.712 27.224-4.712l-4.188-3.141z" transform="matrix(.779 -.106 .077 .831 142.876 116.041)" font-size="12" fill="#c00" fill-rule="evenodd" stroke="#000" stroke-width="1pt"/><path d="M692.641 220.159c3.14 1.048 1.7-.916 8.506.655 6.806 1.57 18.717 3.01 18.717 3.01s-6.806 4.712-14.136 5.759c-7.329 1.047-12.041 1.046-12.041 1.046l4.188 4.188c.524 3.665-1.047 3.141-1.046 4.188 1.046-.523 3.141.001 4.711.001 1.571 0 10.994 0 19.37-3.664 8.377-3.665 13.612 2.094 18.848-10.471 5.183-9.305 1.016-10.877 1.384-13.254.368-2.376 6.081-3.792 4.014-6.885-1.9-3.304-5.755-1.904-7.595-.744-2.637 1.39-6.408-2.349-10.629-4.247-5.825-.583-13.598 4.184-15.968 6.282-.938.839-2.712.82-4.385.902-1.672.089-10.82-.057-13.154 1.193-2.227 1.263-3.72 11.202-.784 12.041z" transform="matrix(.701 -.095 .087 .938 188.03 88.248)" font-size="12" fill="#c00" fill-rule="evenodd" stroke="#000" stroke-width="1pt"/><path d="M720.911 235.865s5.235-5.235 1.047-10.994c-4.189-5.759-9.424-4.712-9.424-4.712" transform="matrix(.701 -.095 .087 .938 191.563 86.278)" font-size="12" stroke="#000" stroke-width="1pt" fill="none"/><path d="M688.19 210.081l11.779 4.319" transform="matrix(.701 -.095 .087 .938 191.873 85.615)" font-size="12" stroke="#000" stroke-width="1pt" fill="none"/><path d="M690.022 220.159c1.047 0 9.424-1.571 9.424-1.571l-.524.524" transform="matrix(.701 -.095 .087 .938 193.638 87.612)" font-size="12" stroke="#000" stroke-width="1pt" fill="none"/><path d="M692.64 220.682h7.853" transform="matrix(.588 -.504 .392 .796 203.135 402.208)" font-size="12" stroke="#000" stroke-width="1pt" fill="none"/><path d="M693.163 221.206c0-.524 2.094-6.282 2.094-6.282" transform="matrix(.701 -.095 .087 .938 191.826 87.112)" font-size="12" stroke="#000" stroke-width="1pt" fill="none"/><path d="M694.211 220.159l3.141-3.141" transform="matrix(.701 -.095 .087 .938 191.367 87.174)" font-size="12" stroke="#000" stroke-width="1pt" fill="none"/><path d="M711.881 209.164c3.927.261 7.722.785 9.686 1.44" transform="matrix(.701 -.095 .087 .938 191.838 85.246)" font-size="12" stroke="#000" stroke-width="1pt" fill="none"/><path d="M719.865 211.258a3.403 1.571 0 1 0-6.806 0 3.403 1.571 0 1 0 6.806 0h-3.403z" transform="matrix(.701 -.095 .087 .938 191.838 85.246)" font-size="12" fill-rule="evenodd"/><path d="M732.694 212.173a1.832 1.701 0 1 0-3.665 0 1.832 1.701 0 1 0 3.664 0h-1.832z" transform="matrix(.828 0 0 1 120.459 -.984)" fill-rule="evenodd"/></svg>