<svg width="280mm" height="140mm" xmlns="http://www.w3.org/2000/svg"><rect width="280mm" height="496" font-size="12" fill="#cc1025" fill-rule="evenodd"/><path d="M664.213 208.225l158.585-.03.03 44.725c-3.227 48.49-40.827 87.989-79.509 105.567-35.325-17.233-74.218-53.974-79.076-103.601l-.03-46.661z" fill="#016a28" fill-rule="evenodd" stroke="#fedd00" stroke-width="3.543"/><path d="M796.944 259.172c.116.737.098-8.726 1.405-12.646 1.129-3.386 6.065-8.232 5.901-9.273-.117-.739-6.007 1.723-6.744 3.934-1.698 5.095-.727 16.942-.562 17.985z" fill="#4a0f00" fill-rule="evenodd"/><path d="M774.744 273.784c-.005.273 11.803 12.646 11.803 12.646 1.499 3.091 3.111 5.729 4.228 8.494.449.135 5.326.217 5.326-.064l-7.868-14.051c-.656-9.18.661-19.228-1.967-27.539-1.4-4.428-10.702-12.538-11.932-10.348-2.611 4.648.592 20.738.41 30.862z" fill="#febb30" fill-rule="evenodd" stroke="#4a0f00" stroke-width=".709"/><g font-size="12"><path fill="#006" d="M0 0h496v248h-496z"/><path d="M0 0v27.727l440.546 220.273h55.454v-27.727l-440.546-220.273h-55.454zm496 0v27.727l-440.546 220.273h-55.454v-27.728l440.546-220.272h55.454zm-289.333 0v248h82.667v-248h-82.667zm-206.667 82.667v82.667h496v-82.667h-496z" fill="#fff"/><path d="M0 99.2v49.6h496v-49.6h-496zm223.2-99.2v248h49.6v-248h-49.6zm-223.2 248l165.333-82.667h36.969l-165.333 82.667h-36.97zm0-248l165.333 82.667h-36.969l-128.364-64.182v-18.485zm293.697 82.667l165.333-82.667h36.969l-165.333 82.667h-36.969zm202.303 165.333l-165.333-82.667h36.969l128.364 64.181v18.485z" fill="#c00"/></g><path font-size="12" fill="#fff" fill-rule="evenodd" d="M755.025 142.721h66.016v20.921h-66.016zm-89.071-.001h66.805v21.077h-66.805zm.002 42.839h66.493v20.843h-66.493zm89.069.66h66.033v20.218h-66.033z"/><path font-size="12" stroke="#fedd00" stroke-width="3.537" d="M664.199 140.966h158.604v67.191h-158.604z" fill="none"/><path d="M702.446 286.756c5.759-.265 28.208 5.311 45.968 8.122 10.475-.066 23.262 2.379 34.344 1.922 8.06-.144 15.777.454 23.279 2.618-18.21 28.083-33.336 42.008-62.718 57.261-42.558-24.983-53.552-42.608-64.61-61.494 7.74-2.982 11.356-7.833 23.737-8.429z" fill="#01289a" fill-rule="evenodd"/><path d="M748.883 301.545c.483-1.152 32.615 2.94 44.175 3.939 2.007.263-4.345 3.26-3.359 6.781-4.554-2.928-41.281-9.611-40.816-10.72zm-47.531 9.816c-1.564 4.211 37.069 17.806 53.861 22.216 3.591-5.288 14.57-7.77 19.689-9.607 1.255-2.425-6.392-8.154-9.867-9.376-1.811-.637-3.833 3.845-5.992 3.798-4.074-.09-5.758-3.392-12.45-3.693-.597-.028 7.996 3.797 8.474 4.831.299.647-5.309-1.03-6.401-.306-.678.449 2.166 3.99 1.09 3.826-7.737-1.176-27.509-8.89-27.528-7.846.201 3.385 24.21 7.857 22.07 10.494-3.311 3.681-42.277-16.247-42.946-14.337zm36.682 23.766c-6.991-1.442-20.71-7.891-24.282-8.008-1.681-.056 7.268 5.044 8.524 7.491.38.739-2.653 1.257-3.616.775-1.62-.81-2.755-3.1-4.133-4.65 0 0 0 2.583-.259 2.583-.258 0-4.649-1.033-7.749-2.325-8.869-6.63-18.87-21.826-24.283-29.965-.701-2.883 14.756.507 17.566 2.325 10.537.938 21.348-.352 31.774 1.291 16.353 2.577 44.699 9.02 48.307 11.109 2.318 1.407-8.563-.974-8.525-.001.049 1.265 7.038 6.921 9.042 6.975 1.182.032.212-4.386 1.549-5.166 1.763-1.028 8.661 1.655 7.75-.259-1.516-3.729-28.918-8.283-47.273-13.949-10.981-3.439-28.552-1.949-38.491-3.875-1.169-.227.061-3.793 1.292-3.875 7.811-.521 23.406.36 25.833 2.066 6.614-2.309 43.842.945 65.614 2.325 2.683.17 8.884.501 7.75 2.325-7.133 12.556-19.941 25.582-28.674 33.324-2.805 2.161-10.662-1.613-12.917-1.291-.759.108 1.55 2.841 2.325 3.874 0 0-15.241-3.358-15.241-3.099 0 .258 9.817 5.166 9.817 5.166-1.895.172-5.487-.944-6.459-.258-.492.347 1.636 2.239 1.292 2.583-.431.431-4.028-.67-3.616-.258 1.052 1.052 8.88 3.109 8.008 4.65-1.711 3.023-12.832 8.094-15.5 9.299-2.04-.843-23.766-13.691-23.507-13.691 7.233-.517 20.149-.517 20.149-.517 1.808-1.55 5.696-3.078 5.425-4.65-.375-2.174-5.618-6.046-7.362-6.587-.753-.234 1.017 4.5-.13 4.263z" fill="#536383" fill-rule="evenodd"/><path d="M690.174 257.822c-.007 5.637 3.052 6.376 4.462 7.815 2.895 2.953 6.666 4.45 8.783 8.008 2.983 5.318 6.699 3.618 7.492 6.459 1.156-1.532.968-4.094-3.1-7.492 3.227-.185 7.394 4.272 7.233 6.458 2.367-1.948.385-7.894 0-11.108-.139-1.066 2.051 2.647 4.65 2.584.584 5.893 5.131 9.022 10.332 10.074 2.652 4.258 9.497 9.006 11.367 7.233.646-.434-4.743-1.794-3.766-3.213 1.249-1.183 2.939 1.372 5.762.062-3.195-1.999-2.837-3.781-2.771-6.148 1.129 1.693 4.799 1.773 5.425 1.291-1.874-.512-2.614-2.151-2.067-3.875 5.425-.487 7.931-3.548 11.108-7.491 1.841.263 18.036 3.031 18.976 4.458.514 1.376 8.252 6.115 9.041 6.575-.294-.912-1.627-3.037-1.231-3.345.379-.295 1.548 1.408 3.161 2.72-1.035-2.821-1.5-6.889-.967-7.05.387 1.229 2.654 3.475 3.804 5.561-.001-4.27.471-16.835-1.212-21.117-.739-2.382-27.868-16.69-42.422-23.967-5.94-2.97-11.392-5.837-17.566-6.201-4.753-.022-9.701 1.969-13.691 4.134-6.17 3.346-12.203 7.197-17.824 11.366-2.043 1.514-4.779 3.338-5.43 5.617-.899 3.146-1.253 7.386.451 10.592z" fill="#4a0f00" fill-rule="evenodd"/><path d="M698.503 271.532c-1.246-1.28 3.866-3.346 6.599-8.743 4.388 5.216-4.501 10.646-6.599 8.743z" fill="#dc6207" fill-rule="evenodd" stroke="#000" stroke-width=".354"/><path d="M692.97 258.61s.562 6.744 3.091 7.868c0 2.529 0 3.372.281 3.372 5.339.281 8.712-6.182 8.712-6.182 2.248 5.526-5.276 7.169-5.058 8.149 5.496 4.359 4.121-2.061 6.182-3.091 6.744.562 2.382-5.834 3.323-5.504 2.096-.165 6.21-3.176 4.264-9.39-1.686-2.046-7.868 3.092-8.711 5.34 1.381-2.871-2.529-5.34-1.686-5.34 1.967.843-2.529-.28-3.372.563l-7.026 4.215z" fill="#febb30" fill-rule="evenodd" stroke="#4a0f00" stroke-width=".709"/><path d="M711.749 230.587c-.541.033-8.288 5.227-9.467 5.917-2.494 1.194-12.361 5.654-13.807 8.284-1.858 3.096-2.389 8.218-1.051 10.782 1.727 2.937 5.7 1.524 7.1 2.761 2.783 2.589 5.252-1.787 5.654-3.681-.126-3.12-1.901-8.881-2.893-12.36 1.956.674 4.855 2.561 6.969 1.972.604-.059-1.004-2.803-.394-2.63 2.633.747 7.314 4.763 10.124 5.391 1.427.172-.382-2.923.132-2.63 1.941 1.109 5.293 4.228 7.232 6.838-4.437.677 3.443 5.556 3.024 6.969-.283.954-3.914-4.015-5.128.131-2.094 4.349 3.117 7.135 2.761 8.284-.214.692-4.34-4.437-4.471-2.761 0 4.673 9.717 15.432 16.963 14.726 1.282-.056-1.825-5.664-.921-5.917 1.288-.36 7.372 10.637 8.284 4.077.618-2.424-3.073-7.793-2.893-11.177.959-.297 12.062 4.419 14.595-5.391-.517 5.778 2.677 12.401 6.311 13.938-.04 3.941 3.484 5.851 3.288 8.81-.155 2.344-3.233 4.258-4.208 6.574-.427 1.015.404 2.408 0 3.419-.647 1.618-3.87 2.639-3.944 4.47-.033.768 4.329 1.949 5.391 1.446 1.352-.723-.531-2.062.131-2.63 1.602-1.467 8.03-7.434 9.862-10.781.711-1.299-1.672-2.21-1.578-4.734.161-4.127 8.634-7.368 10.256-15.384.643-3.075 1.011-6.701.264-9.73-.875-3.546-5.388-10.143-5.129-9.993 5.476 3.043 5.677 24.082 14.727 23.668 8.102-.377 8.253-10.902 7.758-16.962-.637-8.59 1.797-5.304 1.315-10.519 0 0-7.627 1.578-7.495 7.757.08 3.681 2.367 5.523 2.63 9.073-.392 5.29-2.918 6.949-4.208 6.443-1.953-.765-3.678-6.839-5.523-10.256-2.012-3.728-2.994-8.663-6.048-11.177-3.389-2.789-8.586-4.844-13.281-4.733-6.039.534-9.929-.92-15.121-4.208-1.326-.827-4.639-1.382-4.602-.92.051.633 5.753 4.366 4.865 4.207-2.049-.367-9.495-4.815-13.675-5.785-.729-.169-.521 2.5-1.051 2.367-1.047-.262-2.455-2.367-3.682-3.55 0 0-.658 5.654-.658 5.391 0-.263-3.681-5.26-3.681-5.26-.482 1.271-.609 3.609-1.447 3.813-.959.234-2.99-2.91-3.944-2.498-.732.391 1.529 3.737.789 3.55-2.494-.86-8.547-5.496-10.125-5.391z" fill="#febb30" fill-rule="evenodd" stroke="#3a1400" stroke-width=".709"/><path d="M729.763 280.816c-.402 4.437.57 7.576-1.315 9.598-.602.694.835 2.167.132 2.762-1.221.923-3.997 3.521.92 3.418 4.682-.101 3.995-2.74 3.55-4.076-.646-2.07.833-5.92.132-8.415-.395-1.406-3.339-4.148-3.419-3.287zm8.152 6.706c.775 1.361.439 3.331.657 4.996 0 0-.657.526-.657.789s.527.263.79 1.841c.173 1.913-2.107 3.425-4.603 2.893-.921-.149-2.762.513-2.762-.526 0-2.235 2.711-3.692 2.63-4.997-.114-1.659-1.446-1.446-1.446-3.023 0-1.946.214-5.162 1.183-5.523.915-.34 3.362 2.063 4.208 3.55z" fill="#febb30" fill-rule="evenodd" stroke="#4a0f00" stroke-width=".709"/><path d="M726.129 238.096c.844.843 10.679 16.017 10.679 16.017l-2.529-.843 4.777 7.026c-1.592.562-5.995-5.621-8.992-8.431.655 4.028-5.433-4.309-8.15-6.463l5.339 1.686-6.182-5.901 6.464 2.248-1.406-5.339zm27.539 15.455c-.843-7.306 3.935-10.678 5.621-10.959.556-.079 2.529 3.372 2.529 3.372-5.808-.562-7.708 11.272-8.15 7.587zm-59.855-10.959c-3.586 3.023-5.527 7.213-4.496 12.365 0 0 2.81-.562 3.091-.562.281 0 3.372 2.529 3.372 2.529s1.062-5.796.843-5.621c-1.405 1.405-7.752-1.431-2.81-8.711z" fill="#4a0f00" fill-rule="evenodd"/><path d="M708.988 235.005c4.871 1.218 6.65 2.997 8.711 5.339" stroke="#480f00" stroke-width="1.24" fill="none"/><path d="M711.517 232.195c3.84 1.311 6.276 3.185 8.711 5.901" stroke="#4a0f00" stroke-width="1.24" fill="none"/><path d="M771.372 258.61c.281 3.606-4.83 13.778-5.936 15.912-.452.755-.948-.551-1.651-2.986" stroke="#4a0f00" stroke-width="1pt" fill="none"/><path d="M775.587 261.42c-2.81 4.871-3.372 8.617-7.587 11.24" stroke="#4a0f00" stroke-width="1.24" fill="none"/><path d="M766.033 282.214v.281" stroke="#000" stroke-width="1pt" fill="none"/><path d="M760.694 292.893c0-3.466 5.901-4.122 5.058-10.398" stroke="#4a0f00" stroke-width="1.24" fill="none"/><path d="M728.097 235.286c-1.255 3.922 8.991 20.795 14.331 23.324 1.284.571-.839-6.699.843-6.745 1.986-.065 3.934 6.463 5.62 4.496 1.709-1.709 3.372-5.058 3.934-5.62.562-.562 2.248-7.306 2.248-7.306s-5.62-.281-5.901-.281c-.281 0-6.463-5.901-6.463-5.901.375 1.78 1.793 4.901 1.124 5.339-2.579 1.504-6.218-6.123-7.868-6.182-.973-.035.941 6.035 0 5.901-1.682-.24-7.476-8.603-7.868-7.025zm29.225 13.207c-3.548 4.789.435 16.255 3.091 18.547 2.672 2.83-3.373-13.685-.843-12.083 3.648 2.207 2.751 3.87 4.777 6.182 3.459 4.584 7.565-.278 7.025-7.307-.273-3.408-10.935-7.42-10.678-7.306 2.81 1.124-1.437-.265-3.372 1.967z" fill="#fee5a3" fill-rule="evenodd"/><path d="M703.087 253.551c.777-1.684 1.847-9.669-6.464-11.521 5.501 8.783 1.422 8.264 3.092 11.24.485.864 3.025 1.032 3.372.281z" fill="#feffff" fill-rule="evenodd" stroke="#4a0f00" stroke-width=".709"/><path d="M695.499 260.015v-.281" stroke="#000" stroke-width="1pt" fill="none"/><path d="M703.368 258.61c-1.686 3.372-4.778 2.81-8.431 1.686" stroke="#4a0f00" stroke-width=".709" fill="none"/><path d="M695.218 261.139h.281" stroke="#000" stroke-width="1pt" fill="none"/><path d="M696.623 266.478l1.967-1.545c-1.686-.797-1.405-3.279-4.215-4.356" stroke="#4a0f00" stroke-width=".709" fill="none"/><path d="M791.02 295.139l4.8.002s.281 5.058 0 5.058l-7.306-.281s2.225-4.779 2.506-4.779z" fill-rule="evenodd"/><path d="M775.72 252.883c5.261 3.741 3.516 17.138-6.08 23.5-1.362 1.02-1.284 7.011-1.87 6.781-.781-.26-1.386-4.376.35-9.119 4.574-4.374 10.241-10.163 7.6-21.162z" fill="#fee5a3" fill-rule="evenodd"/><path d="M706.917 259.984c-.293-.827 3.324-4.865 4.619-4.289 1.822.884.511 3.758-.33 4.454-.753.623-3.919 1.347-4.289-.165z" fill="#490f00" fill-rule="evenodd"/></svg>