<svg version="1" width="299.999mm" height="210mm" xmlns="http://www.w3.org/2000/svg"><path font-size="12" fill="#ba0000" fill-rule="evenodd" d="M1062.99 744.095h-1062.99v-744.094h1062.99z"/><g font-size="12"><path d="M516.369 360.141s-75.02-32.301-64.255-116.004c10.421-40.29 28.828-67.727 62.17-82.661 15.629-4.863 31.607-6.947 47.93-8.336-4.284 4.052-7.872 8.104-9.724 13.198-3.59 9.146-.927 17.945 3.819 26.743 6.02 10.188 9.607 20.723 10.766 34.384 2.199 19.218-6.02 37.743-21.186 48.973-9.61 7.409-20.954 9.956-30.217 18.407-7.177 7.063-11.576 14.126-13.197 26.396-.232 23.386 6.137 26.629 13.894 38.9z" fill="#fff" fill-rule="evenodd"/><path d="M502.128 239.032v-.347" fill="#ba0000" fill-rule="evenodd" stroke="#000" stroke-width="2.345pt"/><path d="M506.869 351.445c-29.176-25.817-26.623-90.762-4.394-112.413" stroke="#ba0000" stroke-width="2.345pt" fill="none"/><path fill="#ba0000" fill-rule="evenodd" d="M525.384 232.301l-8.914-3.602-6.664 7.152 1.167-9.368-8.92-3.588 9.635-2.188 1.151-9.369 4.788 8.016 9.632-2.202-6.676 7.142 4.802 8.008z"/><path d="M522.774 354.537s8.899-81.183 92.073-95.417c41.571-1.842 73.194 7.716 97.24 35.215 9.228 13.516 15.902 28.181 22.013 43.379-5.129-2.908-10.054-5.151-15.466-5.429-9.795-.752-17.427 4.372-24.447 11.487-7.976 8.74-16.996 15.256-29.717 20.367-17.728 7.733-37.846 5.304-53.026-5.905-9.899-7.016-15.657-17.115-26.451-23.494-8.855-4.792-16.896-6.928-29.101-4.882-22.425 6.63-23.659 13.669-33.117 24.68z" fill="#fff" fill-rule="evenodd"/><path d="M634.382 305.437l.332-.102" fill="#ba0000" fill-rule="evenodd" stroke="#000" stroke-width="2.345pt"/><path d="M528.304 342.907c16.132-35.457 78.968-52.045 106.179-37.138" stroke="#ba0000" stroke-width="2.345pt" fill="none"/><path fill="#ba0000" fill-rule="evenodd" d="M647.09 325.906l.884-9.597-8.786-4.263 9.326-1.654.869-9.599 4.88 8.575 9.323-1.67-6.31 6.954 4.893 8.567-8.78-4.277-6.299 6.965z"/><path d="M527.896 360.556s79.865-17.369 119.818 57.031c14.966 38.861 15.951 71.908-2.498 103.469-9.892 13.055-21.685 24.05-34.163 34.681 1.129-5.792 1.691-11.178.234-16.403-2.401-9.534-9.689-15.147-18.673-19.546-10.83-4.789-19.881-11.277-28.775-21.723-12.975-14.364-17.066-34.226-11.257-52.194 3.511-11.624 11.262-20.299 13.884-32.57 1.731-9.926 1.202-18.236-4.62-29.167-13.422-19.171-20.494-18.104-33.95-23.578z" fill="#fff" fill-rule="evenodd"/><path d="M609.973 450.85l.202.282" fill="#ba0000" fill-rule="evenodd" stroke="#000" stroke-width="NaN"/><path d="M540.69 362.106c38.775 4.035 74.495 58.386 69.001 88.947" stroke="#ba0000" stroke-width="NaN" fill="none"/><path fill="#ba0000" fill-rule="evenodd" d="M594.786 469.762l9.369-2.246 1.284-9.665 4.491 8.276 9.366-2.261-6.593 7.361 4.505 8.268-8.566-3.727-6.582 7.371 1.299-9.664-8.573-3.713z"/><path d="M526.51 368.28s39.079 71.783-21.122 131.005c-33.101 25.268-64.543 35.485-100.012 26.633-15.305-5.832-29.168-14.066-42.873-23.06 5.876-.541 11.204-1.513 15.809-4.377 8.478-4.979 11.82-13.55 13.522-23.407 1.558-11.738 5.246-22.246 12.776-33.714 10.146-16.484 28.063-25.983 46.939-25.449 12.142.108 22.644 5.114 35.156 4.188 10.013-1.123 17.84-3.963 26.699-12.618 14.635-18.261 11.627-24.75 13.106-39.201z" fill="#fff" fill-rule="evenodd"/><path d="M462.872 472.394l-.214.273" fill="#ba0000" fill-rule="evenodd" stroke="#000" stroke-width="NaN"/><path d="M528.612 380.995c7.007 38.349-35.139 87.883-66.013 91.185" stroke="#ba0000" stroke-width="NaN" fill="none"/><path fill="#ba0000" fill-rule="evenodd" d="M440.751 463.204l4.756 8.355 9.675-1.481-6.739 6.63 4.77 8.348-8.921-4.257-6.727 6.641 1.225-9.261-8.928-4.244 9.678-1.466 1.21-9.263z"/><path d="M517.654 367.141s-54.67 60.675-130.482 23.612c-34.809-22.802-54.884-49.04-58.323-85.409.412-16.362 3.567-32.162 7.491-48.066 2.462 5.358 5.148 10.056 9.377 13.445 7.509 6.336 16.696 6.638 26.552 4.968 11.58-2.431 22.709-2.446 36.018.842 18.905 4.087 33.81 17.816 39.577 35.783 3.932 11.479 2.702 23.039 7.732 34.524 4.385 9.064 9.661 15.497 20.761 20.971 22.072 7.727 27.188 2.736 41.298-.671z" fill="#fff" fill-rule="evenodd"/><path d="M398.393 341.751l-.329-.111" fill="#ba0000" fill-rule="evenodd" stroke="#000" stroke-width="2.345pt"/><path d="M506.37 373.346c-33.814 19.342-94.498-3.923-107.866-31.923" stroke="#ba0000" stroke-width="2.345pt" fill="none"/><path fill="#ba0000" fill-rule="evenodd" d="M399.381 318.076l-6.262 7.236 4.658 8.57-8.515-4.106-6.251 7.247 1-9.774-8.521-4.092 9.133-1.934.985-9.776 4.644 8.578 9.13-1.95z"/></g></svg>