<svg version="1" width="209.47mm" height="140mm" xmlns="http://www.w3.org/2000/svg"><path fill="#fff" fill-rule="evenodd" d="M2.649 90.269h561.952v404.605h-561.952z"/><path font-size="12" fill="#00f" fill-rule="evenodd" d="M2.649 8.144h737.47v486.73h-737.47z"/><text x="325.239" y="461.56" font-family="helvetica" font-size="12" transform="matrix(.833 0 0 .833 2.649 90.269)"><tspan>3</tspan></text><text x="398.558" y="459.68" font-family="helvetica" font-size="12" transform="matrix(.833 0 0 .833 2.649 90.269)"><tspan>4</tspan></text><text x="450.258" y="461.56" font-family="helvetica" font-size="12" transform="matrix(.833 0 0 .833 2.649 90.269)"><tspan>3</tspan></text><text x="11.28" y="251.001" font-family="helvetica" font-size="12" transform="matrix(.833 0 0 .833 2.649 90.269)"><tspan>3</tspan></text><text x="6.58" y="179.561" font-family="helvetica" font-size="12" transform="matrix(.833 0 0 .833 2.649 90.269)"><tspan>4</tspan></text><text x="12.22" y="122.222" font-family="helvetica" font-size="12" transform="matrix(.833 0 0 .833 2.649 90.269)"><tspan>3</tspan></text><path font-size="12" fill="#fc0" fill-rule="evenodd" d="M238.775 8.097h147.578v487.01h-147.578zm-236.126 177.095h737.894v147.578h-737.894z"/><path font-size="12" fill="#f00" fill-rule="evenodd" d="M283.048 8.097h59.031v487.01h-59.031zm-280.399 221.368h737.894v59.031h-737.894z"/></svg>