<svg width="233.33mm" height="140mm" xmlns="http://www.w3.org/2000/svg"><path font-size="12" fill="#f00" fill-rule="evenodd" d="M0 330.697h826.76v165.366h-826.76z"/><path font-size="12" fill="#fff" fill-rule="evenodd" d="M0 165.331h826.76v165.366h-826.76z"/><path font-size="12" fill="#009a00" fill-rule="evenodd" d="M0 0h826.76v165.331h-826.76z"/><path d="M405.797 274.546c17.904 10.15 3.412 44.99 55.803 76.419-23.783 13.562-37.95 15.371-55.803 33.343-16.436-18.389-35.549-22.239-53.851-32.23 24.119-21.953 39.348-70.576 53.851-77.533z" font-size="12" fill="#fff" fill-rule="evenodd" stroke="#000" stroke-width="NaN"/><path d="M524.622 123.612s-14.801 12.233-52.059-5.415c-36.324-21.38-58.571-13.846-67.625-5.678.179 5.312 1.861 161.619 1.861 161.619-.205 0 .074 38.188 53.999 77.406 52.059-20.964 57.941-56.353 57.941-56.353.047-53.167.094-106.335.142-159.5.513-4.959 2.894-7.12 5.741-12.078z" font-size="12" fill="#f00" fill-rule="evenodd" stroke="#000" stroke-width="NaN"/><path d="M288.048 124.022s14.801 12.234 52.059-5.414c36.324-21.381 55.495-14.257 64.549-6.089-.177 6.543 1.215 162.03 1.215 162.03s-.074 38.188-53.999 77.405c-52.059-20.964-57.941-56.353-57.941-56.353-.047-53.167-.094-106.334-.142-159.5-.513-4.959-2.894-7.119-5.741-12.078z" font-size="12" fill="#009a00" fill-rule="evenodd" stroke="#000" stroke-width="NaN"/><path d="M404.728 113.251s-18.547-.662-27.489 23.682c0 12.255.165 16.726.165 16.726s2.982 9.108-15.399 16.725c-18.382 7.618-17.885 10.765-19.542 18.88-1.987 8.775-.497 24.839-.497 24.839s3.477 5.63-13.911 13.91c-17.388 8.281-20.535 19.209-20.7 22.522l-.166 21.86s-3.644 5.631-13.248 8.446c-.166 6.126.165 13.745.331 14.904.829 4.305 5.631 13.744 9.44 19.706 5.134-.166 11.26-.166 11.26-.166s17.885-2.484 25.338-26.329c-.497-2.319-.165-18.383-.165-18.383s1.822-14.241 18.712-20.368c16.892-6.128 18.879-23.019 18.879-23.019l-.166-17.719s-1.325-8.943 13.91-14.408c15.236-5.465 14.076-8.281 14.076-8.281l-.829-73.527z" font-size="12" fill="#fff" fill-rule="evenodd" stroke="#000" stroke-width="NaN"/><path d="M389.559 127.706s-6.149 3.627-6.149 10.88m8.041-5.992s-4.257 2.68-3.311 6.307m8.042 42.1c0 .159-.474 5.519-9.145 8.515m4.73-11.51s-1.735 4.099-6.938 6.149m2.838-10.722s-1.419 4.731-5.519 5.519m2.05-9.619c.158.473-2.365 4.731-4.731 5.361m.159-7.726s0 2.05-2.996 3.627m-2.365 26.805s-5.204 3.311-4.258 7.727m-12.141-26.333c-.158.158-9.462 5.992-8.358 13.245m-10.564 64.176s-6.464 3.469-5.834 10.406m-10.408-27.593s-7.726 4.731-8.356 15.138m43.047-13.719c0 .159-.474 5.519-9.145 8.515m5.517-10.406s-1.735 4.099-6.938 6.149m4.258-10.407s-2.05 4.416-6.149 5.204m3.312-8.831c.158.473-2.68 4.416-5.046 5.046m-.946-11.825s0 2.05-2.996 3.627m6.464-.002s-2.05 3.942-5.676 5.204m-15.453 67.487c0 .159-.474 5.519-9.145 8.515m5.517-10.406s-2.207 3.783-7.411 5.833m4.1-10.406s-2.996 4.888-7.096 5.676m2.838-10.407c.158.473-3.153 4.258-5.519 4.888m1.263-14.033s-3.154 3.785-6.623 4.258m8.2-.474s-3.469 5.045-6.465 5.992" font-size="12" stroke="#000" stroke-width="1pt" stroke-linecap="round" fill="none"/><path d="M472.472 168.791v1.283l-2.823 1.283-2.309 1.027s-5.903.77-7.186 1.796c-1.282 2.824-10.264-.256-15.911 7.442-4.876 2.823-10.778 8.212-10.778 8.212-3.593-4.619-7.186-9.238-10.778-13.858 0 0-3.336-4.106-7.185-1.54-3.85 2.566-3.85 5.388-3.85 5.388s-.256 17.194-1.026 22.839c1.954 5.042 4.362 7.699 4.362 7.699l3.336 1.026 3.336.444c-.195 1.889-2.908 3.406-3.85 5.202 0 0-1.283 5.389.77 5.903 2.053.513 11.548 12.831 13.088 15.654 1.54 2.823 8.468 2.309 8.468 2.309l.257-2.053 1.54 1.283 5.132-1.283v-3.08l-4.876-6.929-2.309.513s-2.823 2.566-2.823 2.31c0-.257 1.026-3.593 1.026-3.593l-8.468-6.159-.77-2.053 1.027-2.053 2.052-.256 11.805 4.876 2.053 4.876 9.238 11.035-7.185 5.133s-4.363 5.646-1.797 9.238c2.566 3.593 7.955 10.265 7.955 10.265l4.363 8.982s-16.768.755-20.274-.372c-2.238-.698-2.63-2.496-5.393-2.183-3.677.389-4.53 5.462-9.761 4.607-2.309 3.336-5.887 10.265-5.887 10.265l10.008 1.026 1.283-2.309 1.027 1.796 1.283-.256s4.619-9.495 10.008-.513c1.283.513 1.283-1.796 1.283-1.796l3.079 1.796-.256-2.823 2.566 3.336 1.283-2.823 2.053 3.079 1.283-2.566 2.823 2.053-.257-3.08 4.106 1.54c3.336.342 6.929-1.368 10.009 1.027 0 0 7.699 1.026 4.619-9.495-.513-4.362 7.442 3.593 7.442 3.593l3.336 7.956s4.362 1.54 4.106 1.283c-.256-.257-3.85-.513-3.85-.513s-11.547 7.699-16.937 8.982c-2.566 2.823-5.646 3.593-8.725 3.593-3.079 0 1.027 3.08 1.027 3.08s-4.876-1.283-5.133-1.283c-.256 0-4.619-2.309-6.159 2.053l-2.823 5.902s-1.796 4.619 2.31 4.363c4.106-.257 8.725.256 8.725.256s2.053-3.849 1.797-3.849c-.257 0 .256 3.593.256 3.593l1.54-.77c1.54-6.415 6.672-7.956 6.672-.513 3.593-1.027 4.362-6.415 4.362-6.415l1.027 4.362 1.796-4.106.513 3.85 1.283-5.133.77 3.08s1.027-4.363 1.027-4.106c0 .256 2.566 4.619 2.566 4.619s-.513-7.442 16.681-15.911c4.362-4.619 1.026-8.212.77-8.212-.257 0-2.823-13.344.77-18.22 3.593-4.876 5.902-16.424 6.672-19.503 8.469-.771 7.442-11.292 7.699-12.318.256-1.54 2.566-4.362 2.566-4.619 0-.256-3.849 1.54-3.849 1.54s2.309-6.415 3.336-6.415c1.026 0-1.027-4.106-6.929 3.593-5.903 7.699 14.627-21.3-2.053-5.132 13.6-12.575 5.388-7.956-1.54-5.133 7.442-4.362 8.212-6.415 8.212-6.415s2.566-2.823 1.027-7.442c-1.54-4.619 2.566-7.185 0-10.264-2.566-3.08.513-5.389-1.797-7.956-2.309-2.566.256-5.389 2.309-6.159 2.053-.77-1.54-4.876-7.441.513-5.903 5.389-3.593 13.088-3.593 13.088s-1.026-3.336-1.026-3.08c0 .257-7.956 5.903-7.442 13.088.513 7.186 1.283 7.956-.256 13.088-1.54 5.133 6.159 10.778 6.159 10.778s13.088 14.884 4.106 14.627c-2.566-8.725-17.707-20.273-17.707-20.273-11.805-10.008-8.982-24.892-2.566-14.371 8.213-5.646 10.009-15.397 10.009-15.397s2.566-3.08-.77-5.646c6.603 1.935 2.566-4.106 2.566-4.106 3.225 1.889 3.26.964 1.797-3.335 4.366 3.014 3.669.589 1.471-3.336 3.714 4.192 4.804-1.556-1.984-2.053 12.002-.517 9.002-4.596 7.876-5.863.77-1.967 1.915-3.185-.69-5.151 1.372-2.549 2.051-4.225.918-6.712 1.497-.65-.382-3.741-1.323-4.767 2.438-1.499-1.687-2.635-1.944-2.635-.256 0-1.174-4.708-5.863-.02l-1.797-.256c.168-2.784.899-7.067-1.934-8.351-1.214-.342-2.99.441-4.017.099-1.948-.289-3.886-2.45-4.905-.588-.787-.502-1.854-.582-3.001-.399-.685-5.218-3.935-5.304-5.132-.001l-2.566-.256-3.079-3.849s-2.566-1.283-2.566.77c-6.415-1.027-9.495.513-9.495.513l13.344 9.495-17.194-1.283s-3.079-3.849-5.646.257c-2.566 4.106-4.106 3.593-4.106 3.593-.256.855-.513 1.711-.256 2.823 9.752.771 8.982 8.983 1.54 10.778 3.08 3.849 8.982 2.309 8.982 2.309 3.079.086 6.159.171 9.238.256 2.139 2.139 4.791 4.79 8.725 4.876z" font-size="12" fill="#fff" fill-rule="evenodd" stroke="#000" stroke-width="NaN" stroke-linejoin="round"/><path d="M419.687 187.188l5.626 12.002-6.001.75s3.751-2.625.375-12.752z" font-size="12" fill="#f00" fill-rule="evenodd" stroke="#000" stroke-width="1.001" stroke-linecap="round" stroke-linejoin="round"/><path d="M433.565 189.814s-9.19 8.904-8.439 15.655m-3.663 6.47s2.632-4.591 2.632-4.966c0-.376 1.213-2.246 4.213-2.246 3.001 0 4.514 1.403 5.634 1.403 1.587.28 18.376-.563 21.002 1.687m16.313 29.041s-.303 3.933-3.328 8.472c-3.026 4.539-4.539 9.683-1.513 14.222l7.262 13.616m18.76 16.038c-.302.303-13.011 10.288-13.011 10.288m-34.193-22.997l14.221.606m.303-3.632l2.421 3.328" font-size="12" stroke="#000" stroke-width="NaN" stroke-linecap="round" fill="none"/><path d="M423.144 276.497l3.934 2.723" font-size="12" stroke="#000" stroke-width=".801pt" stroke-linecap="round" fill="none"/><path d="M428.289 212.347c-.303 0-3.934 6.959-3.934 6.959m4.841 5.448l3.631 4.539m4.237 8.775l.303 1.512m19.668-41.757c.303 0 6.052-2.421 7.868-1.21m9.985 13.617s-2.421 2.118-3.328 1.512m4.538 1.513s-2.421 2.118-3.328 1.513m4.841 1.513c-.303 0-2.723 3.025-4.237 2.421m-45.691-26.931l-4.236-8.775m-3.329-5.144l-3.328 1.816m-.303 3.933c0 .303.303 11.197.303 11.197" font-size="12" stroke="#000" stroke-width="NaN" stroke-linecap="round" fill="none"/><path d="M417.387 204.928c-.302.303-1.815 5.145-1.815 5.145" font-size="12" stroke="#000" stroke-width=".801pt" stroke-linecap="round" fill="none"/><path d="M452.193 146.987s-1.513-.605-2.421.908m7.263-.605l7.565.606m-9.683 4.538s3.026 1.21-.303 11.196m11.801-7.868s-3.026 3.934-2.421 8.17m-5.144-5.446c.303 0 3.934.303 3.934.303m-4.539 2.117l3.329.303m-15.13 62.94s11.801 8.775 12.406-.908m-5.144 7.564c.303.303 6.052 0 6.657-.605m-3.63 3.329c.605 0 4.841-1.21 4.841-1.21m-4.237 3.026s5.447 0 6.96-1.21m-3.631 4.235s4.237 0 4.842-1.512m-3.027 3.631s3.934 0 5.144-1.513m10.289-99.251v3.026m9.38 7.262s1.513 6.657.303 7.262m-14.525 10.894s5.749-.606 8.472-5.447m-9.38 7.868c.606.303 6.354 2.723 7.565 1.815m-9.683-.302s4.237 3.933 4.841 3.631m-8.472-2.724s2.723 4.841 4.841 3.934m-29.351 8.17l-2.421 5.144m-7.564 6.052s3.631-3.025 4.841-2.421m0 5.75s-3.631 1.513-3.025 3.025m24.207-20.878s3.933 1.513 3.933 2.723m-8.472 0s3.329 1.815 3.631 3.025m-6.96.303l3.328 2.421m-7.261.605s3.026-.606 3.631 1.513m-3.329 1.816s3.025 1.21 2.723 1.21m17.853-59.611l3.934 3.329m4.539 4.539l.303-5.447m4.86.178l-.624 5.874" font-size="12" stroke="#000" stroke-width="NaN" stroke-linecap="round" fill="none"/><path d="M443.937 150.519c.125 1.123-2.245 3.991 6.736 3.492-.874-1.996-2.744-2.994-6.736-3.492zm6.986 5.987c-3.493-.374-7.61-.374-7.735-.25-2.495 0-2.495 3.867-.998 3.992 2.37.374 5.114.125 5.738-.124 1.247-.582 2.744-1.29 2.994-3.618z" font-size="12" fill="#fff" fill-rule="evenodd" stroke="#000" stroke-width="NaN" stroke-linecap="round" stroke-linejoin="round"/><path d="M469.634 150.768s2.62-4.49 4.366.499c-1.621 2.37-2.37-1.122-.873-.249" font-size="12" stroke="#000" stroke-width="NaN" stroke-linecap="round" stroke-linejoin="round" fill="none"/><path d="M479.863 147.026c0 .374-.124 2.12-.124 2.12m8.982-9.231c.124.499-.374 7.735-.374 7.735m-4.179-8.608c.124.374 2.183 6.362 2.183 6.362m-5.365-4.99l2.495 2.994m20.459 7.485c-.124 0-5.489-.125-7.734 1.497m5.862-3.992s-3.866-.125-4.865 1.123m7.86 5.987s-2.245-2.495-6.861-.624m.998 4.741c.124 0 5.988-.249 5.988-.249m-.874 2.869c-.25.124-5.364 1.122-5.364 1.122m5.863 3.867c-.25.125-5.364 1.871-6.737 1.871m-7.484-17.09s2.619 2.121 3.368 4.117m.874 2.245c0 .125 1.497 3.368.748 4.49m0 2.87s.624 6.362-.249 7.111m-.998 2.245c-.125 0-1.248 5.614-2.62 6.986m-1.248 3.119c-.125.125-3.118 5.114-3.118 5.114m-1.622 2.246c0 .124-3.243 4.241-3.243 4.241m10.603-8.358l.998 3.368m-5.24.499s1.622 6.113 1.871 7.111m-3.742-2.994l.998 3.368m2.869-8.982c.125 0 1.622 3.992 1.622 5.489" font-size="12" stroke="#000" stroke-width="NaN" stroke-linecap="round" fill="none"/><path d="M455.07 238.446s6.783 5.815 7.268 5.815c.485 0-5.087 5.087-7.268-5.815z" font-size="12" fill-rule="evenodd" stroke="#000" stroke-width="1.001" stroke-linejoin="round"/><path d="M461.127 252.013l-3.15 3.15m4.604-.485s-2.423 2.907-2.665 2.907m4.118.727l-2.907 2.18m4.361.242l-2.665 2.18m3.634 1.454c-.243 0-3.392 2.18-3.392 2.18m4.845 1.212c-.242 0-2.907 1.696-2.907 1.696m4.603 1.211l-3.149 1.938m4.603.727l-3.634 2.423" font-size="12" stroke="#000" stroke-width="NaN" fill="none"/><path d="M498.193 217.612s2.18-4.361 8.237-4.603c6.056-.243 7.026-2.908 7.026-2.908m-2.181-2.664s-1.938 2.422-5.088 1.696c-3.149-.727-5.329 1.211-5.329 1.211m.242-3.391s3.391-1.938 6.784-1.696c3.391.242 4.361-.969 4.361-.969m-11.387-1.212s6.056-2.908 9.69-.969m-9.933-2.423c.243-.242 5.815-4.118 9.449-2.18m-10.175-.969s3.634-3.876 7.995-2.665c4.361 1.211 4.845-.969 4.845-.969m-1.696-7.51c0 .969-1.211 3.876-2.907 5.088m2.18-8.964s-3.634 3.15-3.634 6.299m-10.175 56.447s.968 12.113-2.908 20.108m-2.906-32.221c0 .242-3.15 3.15-3.15 3.15m5.33-.243c-.242.243-2.422 2.665-4.603 3.634m6.299-.727s-3.15 3.391-5.814 3.15m.484 2.664c.243 0 5.33-.485 7.026-2.422m-6.299 4.36c.242 0 7.51.727 8.479-1.454m-7.268 5.088s6.298-.485 7.995-1.696m-7.753 4.604s7.51 0 8.237-.485m-7.752 3.633s6.541.485 7.268-.484m-6.784 2.665s4.119 1.454 6.056.243m-6.297 3.875s4.118.485 4.361-.242m-5.815 3.149s4.361.485 4.845 0m-5.572 2.423s3.391.485 4.361-.243" font-size="12" stroke="#000" stroke-width="NaN" stroke-linecap="round" fill="none"/><path d="M492.261 140.086l-.437 3.71" font-size="12" stroke="#000" stroke-width="1.001" stroke-linecap="round" fill="none"/><g font-size="12"><path d="M388.012 333.626s-.676-3.109 1.892-5.407c2.163-2.974 6.759-5.542 6.759-5.542s5.407-2.839 7.164.541c3.92-.946 5.947 0 5.947 0s3.244-2.973 5.948-1.217c3.244 1.352 8.921 6.218 8.921 6.218s2.163 1.352.541 5.407c2.433 4.056 2.974 5.948 2.974 5.948s2.433.27 1.622 4.866c.27 5.407-3.379 10.678-3.379 10.678s-1.352 2.433-4.731 2.163c-3.379-.27-5.272 4.056-5.272 4.056s.946 2.297-2.433 3.785c-3.379 1.487-12.165 0-12.165 0s-3.109-.135-3.514-2.974c-.406-2.839-5.812-4.866-5.812-4.866s-2.163 1.487-4.596-2.027c-2.433-3.515-3.379-11.219-3.379-11.219s-.27-3.11 2.163-3.92c2.433-.811 1.352-6.218 1.352-6.488z" fill="#f00" fill-rule="evenodd" stroke="#000" stroke-width="NaN"/><path d="M20.756 783.039a4.219 4.219 0 1 0-8.437 0 4.219 4.219 0 1 0 8.437 0h-4.219z" fill-rule="evenodd" stroke="#000" fill="#febc00" stroke-width="1pt" transform="matrix(.801 0 0 .801 393.69 -305.493)"/><path d="M20.756 783.039a4.219 4.219 0 1 0-8.437 0 4.219 4.219 0 1 0 8.437 0h-4.219z" transform="matrix(.801 0 0 .801 414.641 -291.03)" fill-rule="evenodd" stroke="#000" fill="#febc00" stroke-width="1pt"/><path d="M20.756 783.039a4.219 4.219 0 1 0-8.437 0 4.219 4.219 0 1 0 8.437 0h-4.219z" transform="matrix(.801 0 0 .801 373.685 -290.354)" fill-rule="evenodd" stroke="#000" fill="#febc00" stroke-width="1pt"/><path d="M20.756 783.039a4.219 4.219 0 1 0-8.437 0 4.219 4.219 0 1 0 8.437 0h-4.219z" transform="matrix(.801 0 0 .801 407.207 -266.564)" fill-rule="evenodd" stroke="#000" fill="#febc00" stroke-width="1pt"/><path d="M20.756 783.039a4.219 4.219 0 1 0-8.437 0 4.219 4.219 0 1 0 8.437 0h-4.219z" transform="matrix(.801 0 0 .801 381.795 -266.564)" fill-rule="evenodd" stroke="#000" fill="#febc00" stroke-width="1pt"/><path d="M414.1 361.19c-1.352-5.812 4.731-9.326 9.191-7.163 1.892-5.407 3.379-8.651 3.379-11.49-4.866.271-7.164-6.217-4.19-10.408-2.568-4.325-8.516-7.029-8.651-7.029-3.109 3.92-10.273 3.785-12.571-.135-3.92.947-8.921 6.894-9.056 6.894 3.109 3.785.135 10.137-3.65 11.489-1.352 5.677 3.379 10.949 3.244 10.949 4.866-2.839 11.76 1.892 10.408 7.3 4.596.541 12.03.135 11.895-.406z" stroke="#000" stroke-width="NaN" stroke-linejoin="round" fill="none"/><path d="M397.61 333.075c.541.676 5.001 6.623 5.001 6.623m-2.298-8.11l4.055 6.623m11.219-7.164l-5.407 6.759m7.3-4.325l-4.866 5.812m9.056 7.434c-.135 0-8.651-3.514-8.651-3.514m7.84 6.893c-.27-.135-8.786-4.19-8.786-4.19m-2.704 12.3c0-.135-.135-9.597-.135-9.597m-2.838 9.597l.135-10.273m-12.03 1.217c.135-.135 10.543-3.785 10.543-3.785m-11.354.811l10.273-3.109" stroke="#000" stroke-width="NaN" stroke-linecap="round" fill="none"/><path d="M26.325 810.207a8.775 8.775 0 1 0-17.55 0 8.775 8.775 0 1 0 17.55 0h-8.775z" transform="matrix(.801 0 0 .801 393.555 -305.764)" fill-rule="evenodd" fill="#f0fe80"/></g></svg>