<!DOCTYPE svg PUBLIC "-//W3C//DTD SVG 20010904//EN"
"http://www.w3.org/TR/2001/REC-SVG-20010904/DTD/svg10.dtd"
[
 <!ATTLIST svg
  xmlns:xlink CDATA #FIXED "http://www.w3.org/1999/xlink">
]><svg version="1" width="1062.99" height="708.661" xmlns="http://www.w3.org/2000/svg"><rect width="1062.99" height="708.661" rx="0" ry="0" font-size="12" fill="#f00" fill-rule="evenodd"/><path font-size="12" fill="#00f" fill-rule="evenodd" d="M0 472.441h1062.99v236.22h-1062.99z"/><path font-size="12" fill="#000006" fill-rule="evenodd" d="M0 0h1062.99v236.22h-1062.99z"/><g font-size="12"><rect x="-468.776" y="451.087" width="118.361" height="96.427" rx="0" ry="0" transform="matrix(-1.356 0 0 1.433 -104.434 -360.943)" fill="#fff" stroke="#000" stroke-width=".969"/><g fill-opacity=".5" fill-rule="evenodd"><path d="M188.263 312.825c-7.68 35.595-52.231 30.904-53.452-.591 4.257 9.224 33.709 26.92 53.452.591z" transform="matrix(1.063 0 0 1.279 238.941 -106.735)" stroke="#000" fill="#00f"/><path d="M188.263 312.825c-7.68 35.595-52.231 30.904-53.452-.591 4.257 9.224 33.709 26.92 53.452.591z" transform="matrix(1.063 0 0 1.279 319.395 -106.677)" stroke="#000" fill="#00f"/><path d="M188.263 312.825c-7.68 35.595-52.231 30.904-53.452-.591 4.257 9.224 33.709 26.92 53.452.591z" transform="matrix(1.063 0 0 1.279 280.425 -15.077)" stroke="#000" fill="#00f"/><path d="M370.777 327.327v55.894h159.872v-55.894h-159.872z" fill="#f00" fill-opacity="1"/><path d="M154.187 417.774l-14.173 14.174 14.173 14.173 14.173-14.173-14.173-14.174z" transform="matrix(1.118 0 0 1.876 341.747 -455.081)" fill="#ff0" fill-opacity="1" stroke="#000"/><path d="M154.187 417.774l-14.173 14.174 14.173 14.173 14.173-14.173-14.173-14.174z" transform="matrix(1.118 0 0 1.876 214.982 -455.077)" fill="#ff0" fill-opacity="1" stroke="#000"/><path d="M154.187 417.774l-14.173 14.174 14.173 14.173 14.173-14.173-14.173-14.174z" transform="matrix(1.118 0 0 1.876 246.672 -455.077)" fill="#fff" fill-opacity="1" stroke="#000"/><path d="M154.187 417.774l-14.173 14.174 14.173 14.173 14.173-14.173-14.173-14.174z" transform="matrix(1.118 0 0 1.876 278.364 -455.077)" fill="#ff0" fill-opacity="1" stroke="#000"/><path d="M154.187 417.774l-14.173 14.174 14.173 14.173 14.173-14.173-14.173-14.174z" transform="matrix(1.118 0 0 1.876 310.055 -455.077)" fill="#fff" fill-opacity="1" stroke="#000"/></g><rect x="301.503" y="173.694" width="163.388" height="133.927" rx="0" ry="0" transform="matrix(.976 0 0 1.031 237.93 106.107)" fill="#00f" stroke="#000" stroke-width="1.345"/><path d="M304.328 394.481v133.927c54.463 0 101.12 1.671 135.042-26.676 33.922-28.346 28.347-62.609 28.347-107.251h-163.389z" transform="matrix(.976 0 0 1.031 235.171 16.397)" fill="#00f" fill-rule="evenodd" stroke="#000" stroke-width="1.345"/><path d="M304.328 394.481v133.927c54.463 0 101.12 1.671 135.042-26.676 33.922-28.346 28.347-62.609 28.347-107.251h-163.389z" transform="matrix(-.982 0 0 1.031 830.611 16.397)" fill="#ff0" fill-rule="evenodd" stroke="#000" stroke-width="1.341"/><path d="M233.202 570.865c-13.244 1.993-14.333 8.869-21.524 8.869-3.264 0-7.012-2.968-9.832-3.239-2.82-.272-2.818-2.578-5.204-3.147-2.386-.569-2.429-1.529-4.391-2.42-1.962-.892-3.716-4.552-5.265-5.79-1.549-1.239.654-2.184 4.238-4.269 1.679-1.045 3.109-.813 7.322-.22 2.138.181 7.437 6.893 7.065 4.461-.372-2.433 14.582-6.975 14.582-9.856 0-2.88-7.855-8.501-8.718-10.752-.864-2.251-10.352-1.198-12.42-1.885-16.027-5.245-25.716 1.176-29.694-.816-5.083-2.242-10.612.107-10.402-1.397 1.8-12.649 21.545-9.369 32.921-11.433-10.041-2.332-20.321-12.068-28.211-13.331-6.277-.966-8.826-6.112-4.907-9.078 10.14-7.45 42.968 16.852 44.552 16.761 1.585-.09-12.166-8.158-12.686-13.125 1.869-1.892 1.211-2.521 2.979-2.363 1.768.158-4.899-5.834-4.227-7.104.772-1.906 15.248-1.321 17.558-5.725 1.206-2.536 4.392-.694 6.613.595 2.918-1.002 6.35-4.694 8.345-3.994 1.994.7 4.954 3.492 4.539 5.584-.866 3.178-6.245 3.571-5.984 5.67.491 2.068 4.165 2.385 5.396 4.077 1.595 2.43 3.138 10.818 4.852 11.914 1.714 1.097 11.35 8.206 12.493 9.793 1.801 2.828 6.162 9.46 7.267 10.953 1.855 2.186 5.742 4.404 6.911 5.702 1.17 1.299 8.309 8.536 7.407 11.776-.835 2.764-3.169-2.613-4.661.241-1.879 3.297 5.948 16.569 3.915 19.215-2.067 2.381-2.068 11.439-4.209 10.439-1.571-.908-4.123 2.556-5.376 3.954-1.254 1.398-9.849 1.871-13.072 1.414-3.334-.44-7.504-1.139-9.323-3.57-1.513-2.259-3.102-2.835-.034-4.841 3.611-2.192 12.725-3.526 14.551-6.664.841-1.279-4.526-8.323-4.186-6.905.34 1.418-9.18-.934-9.18.506z" transform="matrix(1.085 0 0 1.14 227.741 -127.461)" stroke="#000" fill-rule="evenodd"/><path d="M402.727 483.523c-4.782 1.431-9.991 8.235-3.412 4.168l4.286-2.106c2.603.763 3.203-1.041 1.11-2.142l-1.984.08zm2.31 1.617c-4.782 1.431-9.991 8.235-3.412 4.168l4.286-2.106c2.603.763 3.203-1.041 1.11-2.142l-1.984.08zm1.32 2.001c-4.028 1.22-8.417 7.023-2.875 3.555l3.61-1.796c2.192.651 2.698-.888.935-1.827l-1.671.068zm24.598 28.734c-4.782 1.431-9.991 8.235-3.412 4.168l4.286-2.106c2.603.763 3.203-1.041 1.11-2.142l-1.984.08zm2.31 1.617c-4.782 1.431-9.991 8.235-3.412 4.168l4.286-2.106c2.603.763 3.203-1.041 1.11-2.142l-1.984.08zm1.32 2.001c-4.028 1.22-8.417 7.023-2.875 3.555l3.61-1.796c2.192.651 2.698-.888.935-1.827l-1.671.068zm44.614 19.838c-4.782 1.431-9.991 8.235-3.412 4.168l4.286-2.106c2.603.763 3.203-1.041 1.11-2.142l-1.984.08zm2.31 1.617c-4.782 1.431-9.991 8.235-3.412 4.168l4.286-2.106c2.603.763 3.203-1.041 1.11-2.142l-1.984.08zm1.32 2.001c-4.028 1.22-8.417 7.023-2.875 3.555l3.61-1.796c2.192.651 2.698-.888.935-1.827l-1.671.068zm-85.796-91.673c-4.589 1.067-9.59 6.136-3.276 3.105l4.114-1.569c2.497.568 3.074-.776 1.066-1.596l-1.903.06zm.855 2.015c-4.589 1.067-9.59 6.136-3.276 3.105l4.114-1.569c2.497.568 3.074-.776 1.066-1.596l-1.903.06zm1.077 1.867c-3.863.911-8.07 5.236-2.756 2.65l3.462-1.34c2.103.484 2.587-.663.896-1.362l-1.603.052z" fill="#ff0" stroke="#000" fill-rule="evenodd"/><path d="M120.489 567.084c-15.77 2.486-19.711 22.652-12.586 15.636 3.19-2.795-.255-7.237 15.877-13.35l-3.291-2.286z" transform="matrix(.961 -.22 -.212 -1.104 441.863 1106.92)" fill="#f00" stroke="#000" fill-rule="evenodd"/><path d="M453.819 444.054h-2.181z" fill="#fff"/><g stroke="#000" fill-rule="evenodd"><path d="M445.882 466.72c.791 1.924 1.584 3.847 2.376 5.77 10.953.282 22.157-4.067 28.515-11.285 1.757.577 3.294.939 5.716.049 2.32-.85 3.521-4.393 2.77-6.796-.682-2.164-4.252-4.561-7.182-3.149-3.137 1.291-2.631 4.619-3.814 6.123-6.875 6.697-17.617 11.011-28.381 9.289z" fill="#ff0"/><path d="M478.511 458.029c.662.215 1.461.577 2.375.238.876-.323 1.333-1.658 1.051-2.561-.255-.814-2.051-2.028-3.004-1.216-.955.871-1.362 1.685-.423 3.539z" fill="#fff"/></g><g fill-rule="evenodd"><path d="M342.594 431.854c.627 4.579 6.655 11.733 15.933 12.73 1.869-.063 12.613.452 15.853 1.234 9.789-4.049 21.484-7.26-7.688-22.143-10.771-5.928-6.505-16.716-1.052-21.162 2.966-2.43 11.479-6.274 20.056-4.538 4.445.92 12.437 6.287 12.864 12.167-3.145-2.709-4.773-2.177-7.13-4.276 1.216 3.424 1.65 5.589 1.79 9.82-2.542-1.885-2.831-3.405-5.085-7.426-.556 5.173 1.282 5.136-2.148 7.931-1.857-2.692-.612-8.725-.429-12.374.348-3.643-10.828-1.887-11.559-1.546-1.972.774-3.031.934-6.965 4.413-2.418 2.232-4.075 4.786-2.396 8.996 1.457 3.511 14.413 10.806 15.247 11.136 1.507.698 10.694 6.234 10.737 12.354.03 4.328-11.435 8.647-12.446 9.866-1.011 1.218 2.513 9.961 5.478 10.561 3.568.702 12.027 7.962 13.793 14.007-1.975-1.313-5.802-2.799-7.834-2.465-.191 1.586 1.286 5.64 2.002 7.013.355.792 3.317 4.575 2.818 6.389.578 2.576-7.616 6.507-10.98 8.999-1.686-3.113 3.626-7.926 1.77-6.777-4.265 2.539-2.767.634-8.2 4.793.73-3.298 1.391-5.674 4.521-7.972 0 0-3.886 2.056-10.043 3.591 2.372-4.492 5.244-7.784 10.416-7.476.047-2.719-1.463-4.637-3.227-5.464-4.365-2.147-10.881 2.259-12.163 2.35-1.282.091-4.611-2.514-5.957-5.037-1.111-1.981 4.446-8.042.867-10.626-3.47-2.537-28.54-2.064-29.869-2.241-2.812-.358-9.821.125-12.054.239-1.538-.002-7.856 1.018-8.774 1.548-1.841.954-18.308 5.761-21.547 10.15-2.017 2.89-1.769 3.145-3.339 5.657-1.57 2.257-2.15 2.926-4.752 5.077-.766-2.99-1.482-4.12 1.353-8.329-2.005 2.444-7.232 4.005-9.697 6.207-1.68-3.639 1.322-6.877 4.071-8.599-2.623-.903-4.224.322-8.294 1.161-.449-1.996 6.369-6.633 7.858-6.752l5.755-.461c2.61-.209 28.478-30.786 29.346-31.233.897-.45 8.19-6.247 9.064-6.933.873-.686 12.94-.262 14.589-.337 2.38-.209 4.524 5.29 7.447 5.778z" transform="matrix(1.048 0 0 1.096 261.845 -134.116)" stroke="#000" fill="#fff"/><path d="M298.461 488.432l-4.968-.095c-3.921-.107-7.608 2.24-9.66 5.871 2.725-.056 5.35-.947 8.075-1.004 0 0-4.653 2.746-4.421 7.134 3.985-2.272 4.447-2.988 7.731-3.975-1.084 1.999-2.96 4.282.745 6.632l4.125-3.605c3.288-2.873 2.314-7.129 3.282-7.749l10.381-6.641c2.592-.654 4.249 2.081 5.556 4.114 1.073-4.004.511-7.071-.518-9.672 1.441 1.662 2.882 3.791 3.856 6.153 1.489-5.25 1.46-7.463-.438-9.676l11.004-7.572-12.906-1.572-10.673-.202-10.762 9.397 6.586-1.177-6.995 13.639z" transform="matrix(1.048 0 0 1.096 289.809 -142.588)" stroke="#000" fill="#fff"/><path d="M320.133 468.406l-8.27-2.009-4.78-5.828 1.065 10.755-3.662-6.705-.204 10.862-2.603-6.853c.156 3.493.144 7.674-.654 10.278l-1.512 4.937-7.007-2.526c1.04 1.123 3.187 2.998 3.252 5.653.473.991-7.091 3.195-12.176.295.422 6.113 6.535 4.755 8.355 5.379-2.741 2.475-7.16 3.217-9.901 5.693 5.238 1.421 9.638.819 12.919-2.96-.372 2.632-2.343 6.504-5.115 9.549 1.852-.027 4.417-1.856 6.257-2.766 1.84-1.013 2.725-2.793 4.082-4.763l3.413-4.955 10.276-10.454 5.125-3.845 7.594-6.619 4.936 1.022 14.238 1.395-.071-16.848-7.855-8.999-.451 6.5-5.576-4.683.074 6.651-3.561-2.434-5.474-3.658 4.309 8.176-22.77-14.082 10.81 12.767-10.251-4.567 15.188 15.642z" transform="matrix(1.048 0 0 -1.061 243.038 837.345)" stroke="#000" fill="#fff"/><path d="M296.972 418.709c-7.214 1.186-9.212.475-18.225.475-9.012 0-11.939-2.426-12.439-6.36-.3-3.835-.399-6.74 1.808-6.929 3.226.189-4.556 13.715 28.856 12.814z" transform="matrix(1.048 0 0 1.096 289.809 -142.588)" stroke="#000" fill="#ff0"/><path d="M286.91 481.921l8.496-.653.522 4.678-8.97 4.049c-1.057.477-1.217 2.063-1.376 3.422-.154 1.21.513 2.644 1.582 3.014 1.197.524 2.388.678 3.591.808 1.357.147 3.204-.359 4.09.241.522.354-.619 2.313.134 2.621 2.033.831 4.107 2.516 6.098 2.494 1.632-.018 3.264-1.606 4.77-2.615.817-.548 1.384-2.15 2.2-2.055 1.63.19 3.608 3.177 5.139 2.912 1.525-.264 3.87-2.962 4.028-4.499.132-1.284-3.174-2.485-3.157-3.963.027-2.337 2.158-5.064 3.388-8.353-2.322 1.896-3.033 1.435-3.008.538l.38-13.573-21.452.031 1.708 6.398c.621 2.326-5.834-2.131-6.644-.727-.811 1.404-3.196 5.361-1.519 5.232z" transform="matrix(1.048 0 0 -1.007 287.819 804.714)" stroke="#000" fill="#fff"/><path d="M301.459 464.908l-7.132-.159.415-3.662-3.774-2.977-3.962 3.153 6.287 7.865 21.856-.124 7.048-7.829-3.394-4.753-7.732 4.394 1.847 4.062-8.103-.044 1.269-3.825 2.658-2.417-5.695-6.167-5.696 6.398 2.879 2.166 1.229 3.919z" transform="matrix(1.048 0 0 -1.007 287.609 803.727)" stroke="#050000" fill="#ff0"/><path d="M293.623 407.457l6.948 1.2c-.359-.188-1.553-.177-1.949-.25l-1.028.46c-.343.92-1.922.591-1.371-.547l-2.6-.863z" transform="matrix(1.048 0 0 1.248 291.654 -203.958)" fill="#fff" stroke="#000"/></g><rect x="532.33" y="147.245" width="159.539" height="138.137" rx="0" ry="0" fill="#f00" stroke="#000" stroke-width="1.505pt"/><path d="M472.498 65.845c4.947 1.914 9.519 2.507 21.05.346.187-.365.432 2.66-11.141 4.41-5.662.346-8.163.368-11.16-2.485l1.251-2.272z" transform="matrix(-.867 1.515 1.469 1.454 895.581 -597.404)" fill="#ff0" fill-rule="evenodd" stroke="#000" stroke-width=".669"/><path d="M466.835 64.07c4.549.914 18.811 3.081 26.713 2.121.187-.365.586 5.096-10.987 6.846-5.068-.369-7.209-.948-9.853-1.66.809 2.264 1.319 3.72 2.706 5.872-4.189-2.68-9.352-7.792-10.85-9.218l2.271-3.961z" transform="matrix(-.384 .826 .706 .48 728.658 -202.627)" fill="#ff0" fill-rule="evenodd" stroke="#000" stroke-width="1.427"/><path d="M466.835 64.07c4.549.914 18.811 3.081 26.713 2.121.187-.365-1.127 4.855-12.7 6.606-5.662.346-12.448-3.755-15.445-6.608l1.432-2.119z" transform="matrix(-.976 0 0 1.031 1023.08 130.036)" fill="#ff0" fill-rule="evenodd" stroke="#000" stroke-width="1.246"/><path d="M468.387 64.249c4.792 1.945 12.086 4.664 25.161 1.943.187-.365.815 4.126-10.758 5.876-5.662.346-14.39-3.026-17.387-5.879l2.984-1.941z" transform="matrix(-1.194 .33 .281 1.4 1110.23 -39.07)" fill="#ff0" fill-rule="evenodd" stroke="#000" stroke-width=".941"/><path d="M469.876 64.911c4.792 1.945 10.597 4.002 23.672 1.28.187-.365.432 2.66-11.141 4.41-5.662.346-11.712-.255-14.709-3.108l2.178-2.583z" transform="matrix(-1.343 1.059 .843 1.931 1151.25 -412.351)" fill="#ff0" fill-rule="evenodd" stroke="#000" stroke-width=".669"/><path d="M472.498 65.845c4.947 1.914 9.519 2.507 21.05.346.187-.365.432 2.66-11.141 4.41-5.662.346-8.163.368-11.16-2.485l1.251-2.272z" transform="matrix(.867 1.515 -1.469 1.454 328.047 -597.404)" fill="#ff0" fill-rule="evenodd" stroke="#000" stroke-width=".669"/><path d="M466.835 64.07c4.549.914 18.811 3.081 26.713 2.121.187-.365.586 5.096-10.987 6.846-5.068-.369-7.209-.948-9.853-1.66.809 2.264 1.319 3.72 2.706 5.872-4.189-2.68-9.352-7.792-10.85-9.218l2.271-3.961z" transform="matrix(.384 .826 -.706 .48 494.97 -202.627)" fill="#ff0" fill-rule="evenodd" stroke="#000" stroke-width="1.427"/><path d="M466.835 64.07c4.549.914 18.811 3.081 26.713 2.121.187-.365-1.127 4.855-12.7 6.606-5.662.346-12.448-3.755-15.445-6.608l1.432-2.119z" transform="matrix(.976 0 0 1.031 200.548 130.036)" fill="#ff0" fill-rule="evenodd" stroke="#000" stroke-width="1.246"/><path d="M468.387 64.249c4.792 1.945 12.086 4.664 25.161 1.943.187-.365.815 4.126-10.758 5.876-5.662.346-14.39-3.026-17.387-5.879l2.984-1.941z" transform="matrix(1.194 .33 -.281 1.4 113.396 -39.07)" fill="#ff0" fill-rule="evenodd" stroke="#000" stroke-width=".941"/><path d="M469.876 64.911c4.792 1.945 10.597 4.002 23.672 1.28.187-.365.432 2.66-11.141 4.41-5.662.346-11.712-.255-14.709-3.108l2.178-2.583z" transform="matrix(1.343 1.059 -.843 1.931 72.377 -412.351)" fill="#ff0" fill-rule="evenodd" stroke="#000" stroke-width=".669"/><path d="M421.328 29.344l5.356 5.228-2.388 1.77-1.02 3.203 5.916-.13-.344-2.992 3.13-2.433 3.287 2.577-5.215 6.427h-16.813l-5.215-6.427 3.287-2.577 3.13 2.433-.344 2.992 5.916.13-1.02-3.203-2.388-1.77 4.725-5.228z" transform="matrix(.976 0 0 1.031 200.937 130.861)" fill="#ff0" fill-rule="evenodd" stroke="#050000"/><path d="M420.802 44.676l7.294 1.302c2.792.816 5.289 3.796 6.806 7.02l-6.43-1.101c2.275 1.384 3.417 2.343 4.275 4.577l-5.896-1.271c2.389 1.101 3.219 2.343 3.766 4.577l-4.37-.254c.182 2.121.683 3.425 1.184 5.62l7.849 5.092c1.611-5.679 12.714.257 18.151 1.66 3.117-3.099 4.677-5.772 4.111-8.587-1.81.122-11.753-1.999-13.357-6.524-1.887-7.217 20.989-11.106 49.376-6.498-2.419 2.269-8.095 3.547-7.255 6.807l-7.741-.488c1.472 5.61-5.839 3.004-8.758 1.106l-.933 3.05c2.126 1.847 1.419 3.836-.847 3.275 1.957 2.243.938 4.486-1.497 4.18 2.239 1.62 1.928 4.514-.649 4.15 1.899 1.904.541 4.516-2.943 2.879 2.41 2.894-.42 4.656-2.543 3.584 1.363 2.555-1.806 4.403-3.56 2.992.94 2.699-2.087 4.407-3.839 1.724-.166 3.01-3.306 3.613-5.172.674-.278 2.984-3.108 2.852-4.236.17-1.807 2.616-3.758 1.69-5.282.198-1.609 1.259-4.635-.457-6.386-3.165l-4.322 7.739-.509 4.943c1.728 1.691 8.976 4.704 10.105 6.828l-4.965-.608c3.048 1.687 3.743 4.752 20.638 11.325l-5.293 2.289c3.422 1.981.752 5.661-2.909 2.542l.386 5.427c-4.261-3.674-7.53-8.197-11.649-10.879l-.06 3.052c-2.886-4.654-5.771-10.157-9.082-13.11l.273 8.645 8.413 7.262-5.825-.96c11.468 8.142 5.512 14.159 24.346 19.75-6.006-.804-12.721-1.324-15.893.563-3.762-1.552-5.399-4.805-10.01-6.782l-4.014 7.386-4.493-7.386c-4.611 1.977-6.248 5.23-10.01 6.782-3.172-1.887-9.887-1.367-15.893-.563 18.834-5.591 12.878-11.608 24.346-19.75l-5.825.96 8.413-7.262.273-8.645c-3.311 2.953-6.196 8.456-9.082 13.11l-.06-3.052c-4.119 2.682-7.388 7.205-11.649 10.879l.386-5.427c-3.661 3.119-6.331-.561-2.909-2.542l-5.293-2.289c16.895-6.573 17.59-9.638 20.638-11.325l-4.965.608c1.129-2.124 8.377-5.136 10.105-6.828l-.509-4.943-4.322-7.739c-1.751 2.708-4.777 4.424-6.386 3.165-1.524 1.492-3.475 2.418-5.282-.198-1.128 2.682-3.958 2.814-4.236-.17-1.866 2.939-5.006 2.337-5.172-.674-1.752 2.683-4.779.975-3.839-1.724-1.754 1.411-4.923-.436-3.56-2.992-2.123 1.072-4.953-.69-2.543-3.584-3.484 1.637-4.842-.975-2.943-2.879-2.577.364-2.888-2.531-.649-4.15-2.435.307-3.454-1.937-1.497-4.18-2.266.561-2.973-1.428-.847-3.275l-.933-3.05c-2.919 1.898-10.23 4.504-8.758-1.106l-7.741.488c.84-3.261-4.836-4.538-7.255-6.807 28.387-4.607 51.263-.718 49.376 6.498-1.604 4.525-11.547 6.646-13.357 6.524-.566 2.815.994 5.489 4.111 8.587 5.437-1.403 16.54-7.34 18.151-1.66l7.223-3.805c2.386-2.569 1.819-4.882 1.818-8.288l-5.502-.541-1.106-2.13c2.458.366 3.9.107 6.475-2.277-2.524-1.718-4.948-2.436-8.772-1.254 1.517-3.224.595-5.392 8.89-4.008 2.612-.929.487-2.552 4.435-3.26z" transform="matrix(.976 0 0 1.031 200.158 129.623)" fill="#ff0" fill-rule="evenodd" stroke="#000"/><path d="M421.328 29.344l5.356 5.228-2.388 1.77-1.02 3.203 5.916-.13-.344-2.992 3.13-2.433 3.287 2.577-5.215 6.427h-16.813l-5.215-6.427 3.287-2.577 3.13 2.433-.344 2.992 5.916.13-1.02-3.203-2.388-1.77 4.725-5.228z" transform="matrix(.976 0 0 1.031 245.853 133.749)" fill="#ff0" fill-rule="evenodd" stroke="#050000"/><path d="M421.328 29.344l5.356 5.228-2.388 1.77-1.02 3.203 5.916-.13-.344-2.992 3.13-2.433 3.287 2.577-5.215 6.427h-16.813l-5.215-6.427 3.287-2.577 3.13 2.433-.344 2.992 5.916.13-1.02-3.203-2.388-1.77 4.725-5.228z" transform="matrix(.976 0 0 1.031 156.216 133.749)" fill="#ff0" fill-rule="evenodd" stroke="#050000"/><path d="M416.319 46.742c1.602-.989 3.633.401 4.618 1.712l-2.212-.672c.039.532-1.484 1.33-1.357-.625l-1.049-.414z" transform="matrix(.947 -.252 .238 1 203.07 237.142)" fill="#ff0" fill-rule="evenodd" stroke="#000"/><path d="M418.515 46.941c4.78.242 4.686 7.815 4.24 9.105-1.454-3.65-2.217-6.417-4.406-6.212-3.132.294-3.953 1.453-8.771 2.24 2.979-2.025 5.805-5.291 8.937-5.132z" transform="matrix(-.958 -.152 .191 -.763 985.973 286.327)" fill="#ff0" fill-rule="evenodd" stroke="#000"/><path d="M376.69 123.129c-5.05 2.116-6.6 5.858-5.525 8.275 3.275-2.883 4.875-3.491 7.725-5.075 3.1.1 2.817 3.033 3.538 6.55 2.02-1.883 3.754-2.629 2.562-8.4l10.6-7.95-2.3-1.45-11.9 5.95c-4.05-3.625-9.586-2.746-12.269-.141 3.878 1.307 7.727.245 7.569 2.241z" transform="matrix(.976 0 0 1.031 200.548 130.036)" fill="#ff0" fill-rule="evenodd" stroke="#000"/><path d="M376.69 123.129c-5.05 2.116-6.6 5.858-5.525 8.275 3.275-2.883 4.875-3.491 7.725-5.075 3.1.1 2.817 3.033 3.538 6.55 2.02-1.883 3.754-2.629 2.562-8.4l10.6-7.95-2.3-1.45-11.9 5.95c-4.05-3.625-9.586-2.746-12.269-.141 3.878 1.307 7.727.245 7.569 2.241z" transform="matrix(-.976 0 0 1.031 1021.84 130.036)" fill="#ff0" fill-rule="evenodd" stroke="#000"/><rect x="-531.306" y="147.245" width="160.518" height="138.137" rx="0" ry="0" transform="scale(-1 1)" stroke="#000" stroke-width="1.505pt"/><path transform="matrix(.206 0 0 .216 383.391 73.217)" fill="#ff0" stroke="#000" stroke-width="1pt" d="M74.621 494.541l-40.356-6.19-16.492 37.748-14.818-38.044-40.937 4.591 25.538-31.854-24.445-33.157 40.356 6.19 16.492-37.748 14.818 38.044 40.937-4.591-25.538 31.854 24.445 33.157z"/><path transform="matrix(.206 0 0 .216 507.516 158.328)" fill="#ff0" stroke="#000" stroke-width="1pt" d="M74.621 494.541l-40.356-6.19-16.492 37.748-14.818-38.044-40.937 4.591 25.538-31.854-24.445-33.157 40.356 6.19 16.492-37.748 14.818 38.044 40.937-4.591-25.538 31.854 24.445 33.157z"/><path transform="matrix(.206 0 0 .216 386.658 159.478)" fill="#ff0" stroke="#000" stroke-width="1pt" d="M74.621 494.541l-40.356-6.19-16.492 37.748-14.818-38.044-40.937 4.591 25.538-31.854-24.445-33.157 40.356 6.19 16.492-37.748 14.818 38.044 40.937-4.591-25.538 31.854 24.445 33.157z"/><path transform="matrix(.206 0 0 .216 512.809 75.819)" fill="#ff0" stroke="#000" stroke-width="1pt" d="M74.621 494.541l-40.356-6.19-16.492 37.748-14.818-38.044-40.937 4.591 25.538-31.854-24.445-33.157 40.356 6.19 16.492-37.748 14.818 38.044 40.937-4.591-25.538 31.854 24.445 33.157z"/><path d="M326.194 164.885c-1.248-1.374-1.913-4.083-2.045-7.392-.8 3.075-2.3 5.85-4.5 7.725-.019-2.516 2.363-5.831 2.044-8.147l-5.47 3.901c.359-1.59 1.118-3.379 2.877-5.069l-8.893 1.801c2.334-2.778 5.868-3.857 10.002-4.335l.211-3.868-4.224 1.202c-.977-2.505 4.647-7.41 6.97-11.115l.211-8.725-3.168.779-4.858 9.438-4.435-4.29-11.405 11.339c3.027 2.701 4.154 6.036 1.056 9.794-.211-3.986-1.689-4.805-4.646-6.679-2.957 2.49-4.647 4.77-7.393 8.527-.466-3.401-.298-8.281 3.037-10.837-2.085-1.76-3.115-1.408-7.735-1.901 3.757-3.097 8.571-2.605 12.329-.633l12.539-12.672c-1.522-.422-2.199-1.267-6.045-.845 8.994-4.435 12.496-6.547 16.844-5.703 1.998-4.743 2.094-8.429.079-12.961-1.267 5.865-5.914 10.462-11.194 12.526 1.971-3.217 2.886-6.011 2.112-9.65-5.21 8.541-10.841 13.491-18.797 14.217 4.154-4.414 7.251-9.038 8.659-13.873-8.658 10.722-18.374 13.42-29.779 9.992 9.786-3.005 17.882-8.757 23.021-16.619-13.235 6.147-23.302 6.38-35.904-2.469 10.631-.118 20.204.608 26.822-5.424-10.7-1.879-18.867-5.448-25.133-17.042 11.194 4.809 20.698 8.14 32.314 5.557-9.152-4.484-14.291-11.079-14.15-20.421 6.758 7.133 11.193 10.464 19.641 13.795-4.709-8.889-5.616-15.033-4.623-19.698l6.273-4.032 1.205 9.697c9.696 10.598 1.585 19.213 2.689 24.293 1.104 5.08 1.874 4.715 4.734 5.686 2.86.971 8.686.24 12.427.138 3.741-.102-8.36-2.529-8.316-7.542-.167-5.013 4.862-15.706 7.946-12.822l6.114 2.524 7.213-2.524c3.084-2.884 8.113 7.809 7.946 12.822.044 5.013-12.057 7.44-8.316 7.542 3.741.102 9.567.833 12.427-.138 2.86-.971 3.63-.606 4.734-5.686s-7.007-13.695 2.689-24.293l1.205-9.697 6.273 4.032c.993 4.665.086 10.809-4.623 19.698 8.448-3.331 12.883-6.662 19.641-13.795.141 9.341-4.998 15.937-14.15 20.421 11.616 2.583 21.12-.748 32.314-5.557-6.266 11.594-14.433 15.163-25.133 17.042 6.618 6.032 16.191 5.306 26.822 5.424-12.602 8.849-22.669 8.616-35.904 2.469 5.139 7.862 13.235 13.614 23.021 16.619-11.405 3.428-21.121.73-29.779-9.992 1.408 4.835 4.505 9.459 8.659 13.873-7.956-.726-13.587-5.676-18.797-14.217-.774 3.639.141 6.433 2.112 9.65-5.28-2.064-9.927-6.661-11.194-12.526-2.015 4.532-1.919 8.218.079 12.961 4.348-.844 7.85 1.268 16.844 5.703-3.846-.422-4.523.423-6.045.845l12.539 12.672c3.758-1.972 8.572-2.464 12.329.633-4.62.493-5.65.141-7.735 1.901 3.335 2.556 3.503 7.436 3.037 10.837-2.746-3.757-4.436-6.037-7.393-8.527-2.957 1.874-4.435 2.693-4.646 6.679-3.098-3.758-1.971-7.093 1.056-9.794l-11.405-11.339-4.435 4.29-4.858-9.438-3.168-.779.211 8.725c2.323 3.705 7.947 8.61 6.97 11.115l-4.224-1.202.211 3.868c4.134.478 7.668 1.557 10.002 4.335l-8.893-1.801c1.759 1.69 2.518 3.479 2.877 5.069l-5.47-3.901c-.319 2.316 2.063 5.631 2.044 8.147-2.2-1.875-3.7-4.65-4.5-7.725-.132 3.309-1.197 6.318-2.03 7.392z" transform="matrix(.976 0 0 1.031 132.811 106.666)" fill="#ff0" fill-rule="evenodd" stroke="#000" stroke-width=".996"/><path d="M326.183 75.856c4.064-.1 4.907-.01 7.007 4.5 0 5.41-2.643 11.6-7.103 12.6-4.461-1-6.904-7.19-6.904-12.6 2.1-4.51 2.143-4.5 7-4.5z" transform="matrix(.976 0 0 1.031 132.904 106.769)" fill="#ff0" fill-rule="evenodd" stroke="#000"/><path d="M336.739 112.713c.649.966 2.325 1.891 3.567 1.948-.647-1.665-.795-1.02-1.064-2.31.972.78 2.97 1.853 3.595 1.907-.574-1.502-1.067-2.022-1.219-2.919.586.43 2.292.975 3.536 1.192-.986-.883-1.485-1.694-1.75-2.479 1.394.55 3.379.775 4.403.446-1.23-.646-1.855-1.027-2.388-2.132 1.436-.048 2.372-.136 3.757-.583-1.501-.688-2.097-1.217-2.89-2.111 1.669.083 2.793.177 4.868-.314-2.007-.991-4.421-1.48-5.194-2.391.719-.746 1.672-2.003 2.137-2.994-1.483.417-2.131.834-3.082.878" transform="matrix(-2.057 0 0 2.063 1131.9 -10.265)" stroke="#000" stroke-width=".607" fill="none"/><path d="M333.322 111.113c1.076 2.966 6.664 1.578 3.737-3.162 1.684-.02 4.474.036 6.155-.299 1.536-.4 2.989-3.395 2.038-4.801" transform="matrix(-2.057 0 0 2.063 1136.39 -8.717)" stroke="#000" stroke-width=".607" fill="none"/><path d="M336.881 97.114c1.219 1.466 1.729 2.343 2.249 5.387" transform="matrix(1.45 0 0 -1.584 -42.376 364.342)" stroke="#000" stroke-width=".825" fill="none"/><path d="M336.881 97.114c1.219 1.466 1.729 2.343 2.249 5.387" transform="matrix(-2.057 0 0 2.063 1136.97 -7.686)" stroke="#000" stroke-width=".607" fill="none"/><path d="M336.881 97.114c1.219 1.466 1.729 2.343 2.249 5.387" transform="matrix(-1.536 0 0 1.929 962.239 8.527)" stroke="#000" stroke-width=".726" fill="none"/><path d="M336.881 97.114c1.219 1.466 1.729 2.343 2.249 5.387" transform="matrix(-1.102 0 0 1.527 817.245 50.978)" stroke="#000" stroke-width=".964" fill="none"/><path d="M336.881 97.114c1.219 1.466 1.729 2.343 2.249 5.387" transform="matrix(-.712 0 0 1.316 686.488 74.01)" stroke="#000" stroke-width="1.292" fill="none"/><path d="M336.739 112.713c.649.966 2.325 1.891 3.567 1.948-.647-1.665-.795-1.02-1.064-2.31.972.78 2.97 1.853 3.595 1.907-.574-1.502-1.067-2.022-1.219-2.919.586.43 2.292.975 3.536 1.192-.986-.883-1.485-1.694-1.75-2.479 1.394.55 3.379.775 4.403.446-1.23-.646-1.855-1.027-2.388-2.132 1.436-.048 2.372-.136 3.757-.583-1.501-.688-2.097-1.217-2.89-2.111 1.669.083 2.793.177 4.868-.314-2.007-.991-4.421-1.48-5.194-2.391.719-.746 1.672-2.003 2.137-2.994-1.483.417-2.131.834-3.082.878" transform="matrix(2.057 0 0 2.063 -229.27 -10.265)" stroke="#000" stroke-width=".607" fill="none"/><path d="M333.322 111.113c1.076 2.966 6.664 1.578 3.737-3.162 1.684-.02 4.474.036 6.155-.299 1.536-.4 2.989-3.395 2.038-4.801" transform="matrix(2.057 0 0 2.063 -233.761 -8.717)" stroke="#000" stroke-width=".607" fill="none"/><path d="M421.328 29.344l5.356 5.228-2.388 1.77-1.02 3.203 5.916-.13-.344-2.992 3.13-2.433 3.287 2.577-5.215 6.427h-16.813l-5.215-6.427 3.287-2.577 3.13 2.433-.344 2.992 5.916.13-1.02-3.203-2.388-1.77 4.725-5.228z" transform="matrix(.976 0 0 1.031 39.862 140.003)" fill="#ff0" fill-rule="evenodd" stroke="#000"/><path d="M336.881 97.114c1.219 1.466 1.729 2.343 2.249 5.387" transform="matrix(-1.45 0 0 -1.584 945.001 364.342)" stroke="#000" stroke-width=".825" fill="none"/><path d="M336.881 97.114c1.219 1.466 1.729 2.343 2.249 5.387" transform="matrix(2.057 0 0 2.063 -234.347 -7.686)" stroke="#000" stroke-width=".607" fill="none"/><path d="M336.881 97.114c1.219 1.466 1.729 2.343 2.249 5.387" transform="matrix(1.536 0 0 1.929 -59.612 8.527)" stroke="#000" stroke-width=".726" fill="none"/><path d="M336.881 97.114c1.219 1.466 1.729 2.343 2.249 5.387" transform="matrix(1.102 0 0 1.527 85.38 50.978)" stroke="#000" stroke-width=".964" fill="none"/><path d="M336.881 97.114c1.219 1.466 1.729 2.343 2.249 5.387" transform="matrix(.712 0 0 1.316 216.138 74.01)" stroke="#000" stroke-width="1.292" fill="none"/><path d="M327.452 80.29l.7.3c-.033.7.733 1 1.5.2l1.3.2c-1.367-.533-2.033-.667-3.5-.7z" transform="matrix(-.976 0 0 1.031 769.815 106.769)" fill-rule="evenodd" stroke="#000" stroke-width=".5pt"/><path d="M446.004 220.327h-.732zm11.717 0h-.732z"/><path d="M320.914 81.613c3.228.014 8.071.014 11.299 0-3.228-.014-8.071-.014-11.299 0z" transform="matrix(-.421 0 0 73.92 588.756 -5834.49)" fill-rule="evenodd" stroke="#000" stroke-width=".112"/><path d="M328.646 80.528c2.85.39 2.876-.062 0 0z" transform="matrix(-.74 0 0 -1.727 695.073 339.306)" fill="#ff0" fill-rule="evenodd" stroke="#000" stroke-width=".7pt"/><path d="M331.146 81.573c.771-.012.778-.014 1.606.001-.838-.033-.838-.035-1.606-.001z" transform="matrix(-.789 0 0 26.241 713.15 -1945.35)" fill-rule="evenodd" stroke="#000" stroke-width=".137"/><path d="M327.452 80.29l.7.3c-.033.7.733 1 1.5.2l1.3.2c-1.367-.533-2.033-.667-3.5-.7z" transform="matrix(.976 0 0 1.031 132.781 106.769)" fill-rule="evenodd" stroke="#000" stroke-width=".5pt"/><g fill="#ff0" stroke="#000"><rect x="626.898" y="167.618" width="7.502" height="4.423" rx="1.756" ry="1.106" transform="matrix(.757 .846 -.841 .752 236.756 -130.784)"/><rect x="627.933" y="151.746" width="5.174" height="15.611" rx="1.211" ry="3.903" transform="matrix(.757 .846 -.841 .752 236.756 -130.784)"/><rect x="626.639" y="148.104" width="7.761" height="3.903" rx="1.816" ry=".976" transform="matrix(.757 .846 -.841 .752 236.756 -130.784)"/><rect x="627.933" y="62.503" width="5.174" height="85.08" rx="1.211" ry="21.27" transform="matrix(.757 .846 -.841 .752 236.756 -130.784)"/><rect x="626.381" y="58.861" width="8.278" height="3.903" rx="1.937" ry=".976" transform="matrix(.757 .846 -.841 .752 236.756 -130.784)"/><path d="M664.461 449.906c.652 1.32-2.058 5.523-1.913 7.183.134 3.859-.739 6.572-3.305 11.212-4.224 6.245-9.522 12.54-14.114 18.32-3.535 4.487-7.507 9.673-9.783 14.337-1.023 2.338-.581 5.153.219 6.613 1.113 1.77 1.466 3.833 5.704 2.406l-3.837 3.871c-1.786-1.53-3.557-3.088-4.851-5.063-1.431-2.519-1.432-5.472.493-9.554 2.791-5.359 7.144-10.635 11.241-15.783 4.193-5.237 8.873-10.606 12.064-16.059 1.862-3.361 2.895-6.494 2.743-9.272-.104-.877-.243-2.282-.854-2.673l6.195-5.538zm.004.005c1.121 1.56.443 4.564 1.254 6.249 1.705 3.834 2.044 6.132 1.674 9.622-1.182 4.382-3.297 8.371-4.997 12.146-1.293 2.943-2.687 6.391-2.791 10.024.053 1.87 1.602 4.808 2.911 6.565 1.714 2.189 2.876 4.355 6.05 4.697l-1.814 2.216c-2.214-2.232-4.425-4.483-6.385-6.949-2.305-3.054-3.519-5.946-3.488-9.153.275-4.102 1.969-7.482 3.49-10.841 1.569-3.407 3.516-6.744 4.107-10.774.271-2.527-.1-5.171-1.376-7.954-.453-.902-1.153-2.334-1.856-2.968l3.222-2.88zm-.002.003c1.042 1.631-.608 5.503.002 7.368 1.207 4.28 1.05 7.021-.329 11.412-2.655 5.699-6.412 11.155-9.578 16.241-2.427 3.957-5.114 8.56-6.186 13.059-.415 2.288.823 5.504 2.056 7.33 1.644 2.253 2.581 4.618 6.583 4.22l-2.911 3.196c-2.276-2.176-4.544-4.377-6.433-6.906-2.181-3.165-2.999-6.411-2.13-10.367 1.414-5.121 4.471-9.718 7.298-14.246 2.902-4.599 6.273-9.208 8.076-14.322 1.002-3.181 1.208-6.339.282-9.435-.351-.993-.883-2.576-1.625-3.175l4.896-4.377z" fill-rule="evenodd"/><rect x="626.898" y="167.618" width="7.502" height="4.423" rx="1.756" ry="1.106" transform="matrix(.757 .846 -.841 .752 236.756 -130.784)"/><rect x="627.933" y="151.746" width="5.174" height="15.611" rx="1.211" ry="3.903" transform="matrix(.757 .846 -.841 .752 236.756 -130.79)"/><rect x="626.639" y="148.104" width="7.761" height="3.903" rx="1.816" ry=".976" transform="matrix(.757 .846 -.841 .752 236.756 -130.783)"/><rect x="627.933" y="62.503" width="5.174" height="85.08" rx="1.211" ry="21.27" transform="matrix(.757 .846 -.841 .752 236.756 -130.783)"/><rect x="626.381" y="58.861" width="8.278" height="3.903" rx="1.937" ry=".976" transform="matrix(.757 .846 -.841 .752 236.756 -130.785)"/><path d="M664.461 449.903c.652 1.32-2.058 5.523-1.913 7.183.134 3.859-.739 6.572-3.305 11.212-4.224 6.245-9.522 12.54-14.114 18.32-3.535 4.487-7.507 9.673-9.783 14.337-1.023 2.338-.581 5.153.219 6.613 1.113 1.77 1.466 3.833 5.704 2.406l-3.837 3.871c-1.786-1.53-3.557-3.088-4.851-5.063-1.431-2.519-1.432-5.472.493-9.554 2.791-5.359 7.144-10.635 11.241-15.783 4.193-5.237 8.873-10.606 12.064-16.059 1.862-3.361 2.895-6.494 2.743-9.272-.104-.877-.243-2.282-.854-2.673l6.195-5.538zm.004.011c1.121 1.56.443 4.564 1.254 6.249 1.705 3.834 2.044 6.132 1.674 9.622-1.182 4.382-3.297 8.371-4.997 12.146-1.293 2.943-2.687 6.391-2.791 10.024.053 1.87 1.602 4.808 2.911 6.565 1.714 2.189 2.876 4.355 6.05 4.697l-1.814 2.216c-2.214-2.232-4.425-4.483-6.385-6.949-2.305-3.054-3.519-5.946-3.488-9.153.275-4.102 1.969-7.482 3.49-10.841 1.569-3.407 3.516-6.744 4.107-10.774.271-2.527-.1-5.171-1.376-7.954-.453-.902-1.153-2.334-1.856-2.968l3.222-2.88zm-.002-.001c1.042 1.631-.608 5.503.002 7.368 1.207 4.28 1.05 7.021-.329 11.412-2.655 5.699-6.412 11.155-9.578 16.241-2.427 3.957-5.114 8.56-6.186 13.059-.415 2.288.823 5.504 2.056 7.33 1.644 2.253 2.581 4.618 6.583 4.22l-2.911 3.196c-2.276-2.176-4.544-4.377-6.433-6.906-2.181-3.165-2.999-6.411-2.13-10.367 1.414-5.121 4.471-9.718 7.298-14.246 2.902-4.599 6.273-9.208 8.076-14.322 1.002-3.181 1.208-6.339.282-9.435-.351-.993-.883-2.576-1.625-3.175l4.896-4.377z" fill-rule="evenodd"/><rect x="626.898" y="167.618" width="7.502" height="4.423" rx="1.756" ry="1.106" transform="matrix(-.757 .846 .841 .752 974.966 -130.234)"/><rect x="627.933" y="151.746" width="5.174" height="15.611" rx="1.211" ry="3.903" transform="matrix(-.757 .846 .841 .752 974.966 -130.234)"/><rect x="626.639" y="148.104" width="7.761" height="3.903" rx="1.816" ry=".976" transform="matrix(-.757 .846 .841 .752 974.966 -130.234)"/><rect x="627.933" y="62.503" width="5.174" height="85.08" rx="1.211" ry="21.27" transform="matrix(-.757 .846 .841 .752 974.966 -130.234)"/><rect x="626.381" y="58.861" width="8.278" height="3.903" rx="1.937" ry=".976" transform="matrix(-.757 .846 .841 .752 974.966 -130.234)"/><path d="M547.264 450.456c-.652 1.32 2.058 5.523 1.913 7.183-.134 3.859.739 6.572 3.305 11.212 4.224 6.245 9.522 12.54 14.114 18.32 3.535 4.487 7.507 9.673 9.783 14.337 1.023 2.338.581 5.153-.219 6.613-1.113 1.77-1.466 3.833-5.704 2.406l3.837 3.871c1.786-1.53 3.557-3.088 4.851-5.063 1.431-2.519 1.432-5.472-.493-9.554-2.791-5.359-7.144-10.635-11.241-15.783-4.193-5.237-8.873-10.606-12.064-16.059-1.862-3.361-2.895-6.494-2.743-9.272.104-.877.243-2.282.854-2.673l-6.195-5.538zm-.007.005c-1.121 1.56-.443 4.564-1.254 6.249-1.705 3.834-2.044 6.132-1.674 9.622 1.182 4.382 3.297 8.371 4.997 12.146 1.293 2.943 2.687 6.391 2.791 10.024-.053 1.87-1.602 4.808-2.911 6.565-1.714 2.189-2.876 4.355-6.05 4.697l1.814 2.216c2.214-2.232 4.425-4.483 6.385-6.949 2.305-3.054 3.519-5.946 3.488-9.153-.275-4.102-1.969-7.482-3.49-10.841-1.569-3.407-3.516-6.744-4.107-10.774-.271-2.527.1-5.171 1.376-7.954.453-.902 1.153-2.334 1.856-2.968l-3.222-2.88zm.002.003c-1.042 1.631.608 5.503-.002 7.368-1.207 4.28-1.05 7.021.329 11.412 2.655 5.699 6.412 11.155 9.578 16.241 2.427 3.957 5.114 8.56 6.186 13.059.415 2.288-.823 5.504-2.056 7.33-1.644 2.253-2.581 4.618-6.583 4.22l2.911 3.196c2.276-2.176 4.544-4.377 6.433-6.906 2.181-3.165 2.999-6.411 2.13-10.367-1.414-5.121-4.471-9.718-7.298-14.246-2.902-4.599-6.273-9.208-8.076-14.322-1.002-3.181-1.208-6.339-.282-9.435.351-.993.883-2.576 1.625-3.175l-4.896-4.377z" fill-rule="evenodd"/><rect x="626.898" y="167.618" width="7.502" height="4.423" rx="1.756" ry="1.106" transform="matrix(-.757 .846 .841 .752 974.966 -130.234)"/><rect x="627.933" y="151.746" width="5.174" height="15.611" rx="1.211" ry="3.903" transform="matrix(-.757 .846 .841 .752 974.966 -130.24)"/><rect x="626.639" y="148.104" width="7.761" height="3.903" rx="1.816" ry=".976" transform="matrix(-.757 .846 .841 .752 974.966 -130.233)"/><rect x="627.933" y="62.503" width="5.174" height="85.08" rx="1.211" ry="21.27" transform="matrix(-.757 .846 .841 .752 974.966 -130.233)"/><rect x="626.381" y="58.861" width="8.278" height="3.903" rx="1.937" ry=".976" transform="matrix(-.757 .846 .841 .752 974.966 -130.235)"/><path d="M547.264 450.453c-.652 1.32 2.058 5.523 1.913 7.183-.134 3.859.739 6.572 3.305 11.212 4.224 6.245 9.522 12.54 14.114 18.32 3.535 4.487 7.507 9.673 9.783 14.337 1.023 2.338.581 5.153-.219 6.613-1.113 1.77-1.466 3.833-5.704 2.406l3.837 3.871c1.786-1.53 3.557-3.088 4.851-5.063 1.431-2.519 1.432-5.472-.493-9.554-2.791-5.359-7.144-10.635-11.241-15.783-4.193-5.237-8.873-10.606-12.064-16.059-1.862-3.361-2.895-6.494-2.743-9.272.104-.877.243-2.282.854-2.673l-6.195-5.538zm-.007.011c-1.121 1.56-.443 4.564-1.254 6.249-1.705 3.834-2.044 6.132-1.674 9.622 1.182 4.382 3.297 8.371 4.997 12.146 1.293 2.943 2.687 6.391 2.791 10.024-.053 1.87-1.602 4.808-2.911 6.565-1.714 2.189-2.876 4.355-6.05 4.697l1.814 2.216c2.214-2.232 4.425-4.483 6.385-6.949 2.305-3.054 3.519-5.946 3.488-9.153-.275-4.102-1.969-7.482-3.49-10.841-1.569-3.407-3.516-6.744-4.107-10.774-.271-2.527.1-5.171 1.376-7.954.453-.902 1.153-2.334 1.856-2.968l-3.222-2.88zm.002-.001c-1.042 1.631.608 5.503-.002 7.368-1.207 4.28-1.05 7.021.329 11.412 2.655 5.699 6.412 11.155 9.578 16.241 2.427 3.957 5.114 8.56 6.186 13.059.415 2.288-.823 5.504-2.056 7.33-1.644 2.253-2.581 4.618-6.583 4.22l2.911 3.196c2.276-2.176 4.544-4.377 6.433-6.906 2.181-3.165 2.999-6.411 2.13-10.367-1.414-5.121-4.471-9.718-7.298-14.246-2.902-4.599-6.273-9.208-8.076-14.322-1.002-3.181-1.208-6.339-.282-9.435.351-.993.883-2.576 1.625-3.175l-4.896-4.377z" fill-rule="evenodd"/></g></g></svg>