<svg width="40cm" height="30cm" xmlns="http://www.w3.org/2000/svg"><path font-size="12" fill="#fff" fill-rule="evenodd" d="M0 0h1417.323v1062.992h-1417.323z"/><path d="M106.299 0l53.15 159.449 159.448 53.149-53.149-159.448-159.449-53.15zm.001 425.197l53.151 159.449 159.447 53.149-53.148-159.448-159.45-53.15zm-106.3 106.299l53.151 159.446 159.447 53.15-53.148-159.446-159.45-53.15zm212.599 212.6l53.151 159.447 159.447 53.15-53.148-159.45-159.45-53.147zm0-425.198l53.151 159.447 159.447 53.15-53.148-159.45-159.45-53.147zm-212.599-212.598l53.151 159.449 159.447 53.149-53.148-159.448-159.45-53.15zm318.898 531.496l53.151 159.449 159.447 53.149-53.148-159.448-159.45-53.15zm-318.898 35.432v141.733l106.299 35.433-53.148-159.446-53.151-17.72zm106.3 177.167l53.151 159.445 159.447 53.15-53.148-159.448-159.45-53.147zm318.897-318.898l53.151 159.447 159.447 53.15-53.148-159.45-159.45-53.147zm0 425.196l35.433 106.297h141.732l-17.719-53.15-159.446-53.147zm-425.195 0l35.431 106.297h141.732l-17.717-53.15-159.446-53.147zm850.39.001l35.435 106.296h141.733l-17.72-53.15-159.448-53.146zm-106.298-318.897l53.15 159.447 159.45 53.15-53.15-159.45-159.45-53.147zm-212.598-637.797l53.151 159.449 159.447 53.149-53.148-159.448-159.45-53.15zm531.494 744.094l53.15 159.449 159.45 53.149-53.15-159.448-159.45-53.15zm-425.192 0l53.151 159.446 159.445 53.15-53.15-159.446-159.446-53.15zm318.895 106.301l53.147 159.445 159.45 53.15-53.15-159.448-159.447-53.147zm-425.198-425.198l53.15 159.447 159.45 53.15-53.15-159.45-159.45-53.147zm-212.595-212.597l53.146 159.448 159.45 53.149-53.15-159.447-159.446-53.15zm-318.9 35.431v141.733l106.297 35.433-53.15-159.446-53.147-17.72zm531.496 602.363l53.15 159.446 159.45 53.15-53.15-159.449-159.45-53.147zm-283.465-850.394l17.717 53.15 159.45 53.149-35.434-106.299h-141.733zm177.166 106.299l53.151 159.449 159.447 53.149-53.148-159.448-159.45-53.15zm850.393 850.394l35.43 106.297h106.3v-60.31l-141.73-45.987zm-637.795-637.795l53.151 159.448 159.447 53.149-53.148-159.447-159.45-53.15zm106.299-106.3l53.151 159.448 159.447 53.149-53.148-159.447-159.45-53.15zm-70.866-212.598l17.719 53.15 159.447 53.149-35.433-106.299h-141.733zm177.166 106.299l53.151 159.448 159.445 53.149-53.15-159.447-159.446-53.15zm0 425.198l53.151 159.448 159.445 53.149-53.15-159.447-159.446-53.15zm106.301-106.3l53.155 159.448 159.44 53.149-53.15-159.447-159.445-53.15zm106.295-106.298l53.16 159.448 159.44 53.149-53.15-159.447-159.45-53.15zm-106.297-318.899l53.157 159.448 159.44 53.149-53.15-159.447-159.447-53.15zm212.597 212.6l53.16 159.448 159.44 53.149-53.15-159.447-159.45-53.15zm-70.86-212.6l17.72 53.15 159.44 53.149-35.43-106.299h-141.73zm177.16 106.299l53.16 159.448 88.57 28.347v-141.732l-141.73-46.063zm0 425.197l53.16 159.448 88.57 28.347v-141.732l-141.73-46.063zm106.3-106.299l35.43 116.929v-105.803l-35.43-11.126zm-212.6 212.598l53.16 159.448 159.44 53.149-53.15-159.447-159.45-53.15zm212.6 212.6l35.43 106.298v-95.599l-35.43-10.699zm0-850.393l35.43 106.297v-94.748l-35.43-11.549z" fill="#0080ff" fill-rule="evenodd"/></svg>