<svg width="21cm" height="14cm" xmlns="http://www.w3.org/2000/svg"><defs><marker viewBox="0 0 10 10" refY="5" markerWidth="4" orient="auto"><path d="M0 0l10 5-10 5z"/></marker><marker viewBox="0 0 10 10" refX="10" refY="5" markerWidth="4" orient="auto"><path d="M10 0l-10 5 10 5z"/></marker></defs><path font-size="12" fill="#36c" fill-rule="evenodd" d="M248.031 0h248.031v496.063h-248.031z"/><g font-size="12"><path d="M345.493 223.023l1.742 4.808.218.623 2.638 1.096 6.241 2.033h28.233l8.333-2.147 2.27-1.606 1.879-5.063 10.303-11.836.218-1.31-.569-5.035s-6.031-4.94-13.632-5.736c-3.143-.35-4.476.182-6.404.127-1.951-.073-9.889-3.334-12.5-3.334h-6.527c-2.615 0-10.553 3.257-12.504 3.334-1.929.055-3.261-.482-6.404-.127-7.601.791-13.632 5.736-13.632 5.736l-.732 4.057.096 2.402 9.197 9.743 1.533 2.233" fill="#ff3822"/><path d="M345.493 223.023l1.742 4.808.218.623 2.638 1.096 6.241 2.033h28.233l8.333-2.147 2.27-1.606 1.879-5.063 10.303-11.836.218-1.31-.569-5.035s-6.031-4.94-13.632-5.736c-3.143-.35-4.476.182-6.404.127-1.951-.073-9.889-3.334-12.5-3.334h-6.527c-2.615 0-10.553 3.257-12.504 3.334-1.929.055-3.261-.482-6.404-.127-7.601.791-13.632 5.736-13.632 5.736l-.732 4.057.096 2.402 9.197 9.743 1.533 2.233h.005z" stroke="#000" stroke-width=".437" stroke-linecap="round" stroke-linejoin="round" fill="none"/><path d="M346.83 192.351c-5.472 0-14.028 2.675-14.028 9.484 0 4.753 3.211 6.491 3.211 6.491l.978-1.683s-2.042-1.196-2.042-4.862c0-3.68 2.711-7.214 12.281-7.214l-.4-2.215" fill="#efd600"/><path d="M346.83 192.351c-5.472 0-14.028 2.675-14.028 9.484 0 4.753 3.211 6.491 3.211 6.491l.978-1.683s-2.042-1.196-2.042-4.862c0-3.68 2.711-7.214 12.281-7.214l-.4-2.215" stroke="#000" stroke-width=".437" stroke-linecap="round" stroke-linejoin="round" fill="none"/><path d="M368.531 189.813s-3.657-1.337-7.478-1.337c-3.798 0-10.48 1.283-10.48 7.478 0 3.562 2.006 5.213 2.006 5.213s-1.283 1.019-1.283 2.006c0 1.019.264 1.201.264 1.201s.35-.537.887-.537c.796 0 1.597 1.019 1.597 1.019s-.391-.741-.391-1.606c0-1.547 2.133-2.347 2.133-2.347s-3.207-2.274-3.207-4.676c0-2.406 2.188-5.877 8.815-5.877 5.527 0 6.818 1.815 6.818 1.815l.314-2.352" fill="#efd600"/><path d="M368.531 189.813s-3.657-1.337-7.478-1.337c-3.798 0-10.48 1.283-10.48 7.478 0 3.562 2.006 5.213 2.006 5.213s-1.283 1.019-1.283 2.006c0 1.019.264 1.201.264 1.201s.35-.537.887-.537c.796 0 1.597 1.019 1.597 1.019s-.391-.741-.391-1.606c0-1.547 2.133-2.347 2.133-2.347s-3.207-2.274-3.207-4.676c0-2.406 2.188-5.877 8.815-5.877 5.527 0 6.818 1.815 6.818 1.815l.314-2.352h.005z" stroke="#000" stroke-width=".437" stroke-linecap="round" stroke-linejoin="round" fill="none"/><path d="M395.577 192.351c5.472 0 14.023 2.675 14.023 9.484 0 4.753-3.207 6.491-3.207 6.491l-.983-1.683s2.047-1.196 2.047-4.862c0-3.68-2.716-7.214-12.286-7.214l.405-2.215" fill="#efd600"/><path d="M395.577 192.351c5.472 0 14.023 2.675 14.023 9.484 0 4.753-3.207 6.491-3.207 6.491l-.983-1.683s2.047-1.196 2.047-4.862c0-3.68-2.716-7.214-12.286-7.214l.405-2.215" stroke="#000" stroke-width=".437" stroke-linecap="round" stroke-linejoin="round" fill="none"/><path d="M373.876 189.813s3.657-1.337 7.478-1.337c3.798 0 10.48 1.283 10.48 7.478 0 3.562-2.006 5.213-2.006 5.213s1.283 1.019 1.283 2.006c0 1.019-.264 1.201-.264 1.201s-.35-.537-.887-.537c-.801 0-1.601 1.019-1.601 1.019s.396-.741.396-1.606c0-1.547-2.133-2.347-2.133-2.347s3.207-2.274 3.207-4.676c0-2.406-2.188-5.877-8.815-5.877-5.527 0-6.818 1.815-6.818 1.815l-.318-2.352" fill="#efd600"/><path d="M373.876 189.813s3.657-1.337 7.478-1.337c3.798 0 10.48 1.283 10.48 7.478 0 3.562-2.006 5.213-2.006 5.213s1.283 1.019 1.283 2.006c0 1.019-.264 1.201-.264 1.201s-.35-.537-.887-.537c-.801 0-1.601 1.019-1.601 1.019s.396-.741.396-1.606c0-1.547-2.133-2.347-2.133-2.347s3.207-2.274 3.207-4.676c0-2.406-2.188-5.877-8.815-5.877-5.527 0-6.818 1.815-6.818 1.815l-.318-2.352" stroke="#000" stroke-width=".437" stroke-linecap="round" stroke-linejoin="round" fill="none"/><path d="M371.201 187.362c.946 0 2.597.983 2.948 3.789.318 2.802.45 5.954 1.728 9.698 0 0-1.542 2.324-2.484 3.066l-1.06-1.142s1.41-1.665 1.41-2.051c0-.405-.405-1.742-.405-2.675 0-.942-.482-5.213-.669-6.55-.209-1.333-.482-2.802-1.469-2.802-.983 0-1.255 1.469-1.465 2.802-.186 1.337-.669 5.608-.669 6.55 0 .928-.405 2.265-.405 2.675 0 .387 1.41 2.051 1.41 2.051l-1.06 1.142c-.942-.741-2.488-3.066-2.488-3.066 1.283-3.744 1.415-6.896 1.733-9.698.35-2.806 2.001-3.789 2.943-3.789" fill="#efd600"/><path d="M371.201 187.362c.946 0 2.597.983 2.948 3.789.318 2.802.45 5.954 1.728 9.698 0 0-1.542 2.324-2.484 3.066l-1.06-1.142s1.41-1.665 1.41-2.051c0-.405-.405-1.742-.405-2.675 0-.942-.482-5.213-.669-6.55-.209-1.333-.482-2.802-1.469-2.802-.983 0-1.255 1.469-1.465 2.802-.186 1.337-.669 5.608-.669 6.55 0 .928-.405 2.265-.405 2.675 0 .387 1.41 2.051 1.41 2.051l-1.06 1.142c-.942-.741-2.488-3.066-2.488-3.066 1.283-3.744 1.415-6.896 1.733-9.698.35-2.806 2.001-3.789 2.943-3.789z" stroke="#000" stroke-width=".437" stroke-linecap="round" stroke-linejoin="round" fill="none"/><path d="M371.201 168.79c6.277 0 26.641 1.728 30.912 2.138.832.073 1.524.173 2.111.314 0 0-1.442 3.694-1.442 4.808 0 1.074 4.762.405 6.282 1.742.932.796 1.205 1.205 2.752 2.484 1.255 1.037 2.456-.132 4.189 1.392 1.069.928 1.424 1.201 3.875 2.743 3.448 2.138 7.478 2.948 8.956 2.948 1.465 0 2.484-.273 2.484-.273-4.412-3.948-4.148-5.695-4.148-5.695 5.486-1.387 7.082-4.321 7.082-4.321s-.741-.209-1.869-.209c-1.151 0-3.357-.537-5.554-1.792-2.665-1.546-3.148-2.565-4.726-3.561-1.424-.851-2.615-.446-3.875-1.519-1.278-1.064-1.205-2.006-2.274-2.488-1.064-.45-2.215-.582-2.215-.582.537-.796 1.019-1.333 1.019-2.483 0-4.008-5.29-7.674-10.294-7.674-1.869 0-5.067-.205-11.035-.205-8.551 0-16.084-1.378-22.229-1.378-6.141 0-13.673 1.378-22.225 1.378-5.968 0-9.165.205-11.035.205-5.003 0-10.289 3.666-10.289 7.674 0 1.151.478 1.687 1.014 2.483 0 0-1.151.132-2.211.582-1.073.482-.996 1.424-2.274 2.488-1.26 1.074-2.452.669-3.88 1.519-1.574.996-2.056 2.015-4.726 3.561-2.192 1.255-4.403 1.792-5.554 1.792-1.128 0-1.869.209-1.869.209s1.597 2.929 7.082 4.321c0 0 .264 1.742-4.148 5.695 0 0 1.019.273 2.484.273 1.478 0 5.508-.81 8.956-2.948 2.452-1.542 2.802-1.815 3.875-2.743 1.728-1.524 2.938-.35 4.194-1.392 1.547-1.278 1.819-1.687 2.752-2.484 1.519-1.337 6.282-.669 6.282-1.742 0-1.114-1.446-4.808-1.446-4.808.591-.141 1.283-.241 2.115-.314 4.271-.41 24.631-2.138 30.903-2.138" fill="#e6e6e6"/><path d="M371.201 168.79c6.277 0 26.641 1.728 30.912 2.138.832.073 1.524.173 2.111.314 0 0-1.442 3.694-1.442 4.808 0 1.074 4.762.405 6.282 1.742.932.796 1.205 1.205 2.752 2.484 1.255 1.037 2.456-.132 4.189 1.392 1.069.928 1.424 1.201 3.875 2.743 3.448 2.138 7.478 2.948 8.956 2.948 1.465 0 2.484-.273 2.484-.273-4.412-3.948-4.148-5.695-4.148-5.695 5.486-1.387 7.082-4.321 7.082-4.321s-.741-.209-1.869-.209c-1.151 0-3.357-.537-5.554-1.792-2.665-1.546-3.148-2.565-4.726-3.561-1.424-.851-2.615-.446-3.875-1.519-1.278-1.064-1.205-2.006-2.274-2.488-1.064-.45-2.215-.582-2.215-.582.537-.796 1.019-1.333 1.019-2.483 0-4.008-5.29-7.674-10.294-7.674-1.869 0-5.067-.205-11.035-.205-8.551 0-16.084-1.378-22.229-1.378-6.141 0-13.673 1.378-22.225 1.378-5.968 0-9.165.205-11.035.205-5.003 0-10.289 3.666-10.289 7.674 0 1.151.478 1.687 1.014 2.483 0 0-1.151.132-2.211.582-1.073.482-.996 1.424-2.274 2.488-1.26 1.074-2.452.669-3.88 1.519-1.574.996-2.056 2.015-4.726 3.561-2.192 1.255-4.403 1.792-5.554 1.792-1.128 0-1.869.209-1.869.209s1.597 2.929 7.082 4.321c0 0 .264 1.742-4.148 5.695 0 0 1.019.273 2.484.273 1.478 0 5.508-.81 8.956-2.948 2.452-1.542 2.802-1.815 3.875-2.743 1.728-1.524 2.938-.35 4.194-1.392 1.547-1.278 1.819-1.687 2.752-2.484 1.519-1.337 6.282-.669 6.282-1.742 0-1.114-1.446-4.808-1.446-4.808.591-.141 1.283-.241 2.115-.314 4.271-.41 24.631-2.138 30.903-2.138z" stroke="#000" stroke-width=".437" stroke-linecap="round" stroke-linejoin="round" fill="none"/><path d="M353.653 167.457c-1.819 0-3.875-1.424-3.875-4.358 0-2.948 1.869-4.953 3.603-4.953h2.998l.614 2.816-.537.482s0-.405-.218-1.019c-.186-.591-1.524-1.737-2.32-1.737-.801 0-1.283.346-1.283 2.538 0 2.22 1.019 4.412 2.538 4.412 1.547 0 1.874-1.069 1.874-1.069l.469.478s-.664 2.411-3.862 2.411m7.795-9.835s.537.746.61 1.278c.055.537.277 5.881.277 6.55 0 .669-.405 1.196-.405 1.196h6.673l.405-3.68h-.482s-1.792 2.934-2.588 2.934c-.264 0-.482.077-.482.077l-.186-3.416h.591l1.46 1.201v-3.261l-1.255 1.073h-.796v-3.471h.669l2.188 2.261h.405l-.591-2.743h-6.491m10.551 9.025s1.337-1.196 1.469-1.601c0 0 1.478-5.081 1.683-5.749.182-.669-.073-.873-.073-.873s.873-1.069 2.879-.796c0 0 2.001 8.274 2.72 8.883l.077.405-5.199.059s1.114-.537 1.06-1.26l-1.06-4.671-.81 2.133h1.606l.186.723h-1.869s-.723 1.201-.669 1.551c.073.318.669 1.196.669 1.196h-2.675m12.028.455v-.405l.669-.391s.273-6.682.273-7.005c0-.341-.459-.928-.459-.928s.723-.482 3.657.127l1.819 4.544.405.055v-3.53l-.614-.792h1.688l-.273.792v7.928l-2.62-.041-2.934-6.227-.141 4.94.537.482v.528l-2.006-.073"/><path d="M363.209 186.725c0-1.201.978-2.174 2.183-2.174 1.201 0 2.174.973 2.174 2.174 0 1.205-.973 2.179-2.174 2.179-1.205 0-2.183-.974-2.183-2.179" fill="#fff"/><path d="M363.209 186.725c0-1.201.978-2.174 2.183-2.174 1.201 0 2.174.973 2.174 2.174 0 1.205-.973 2.179-2.174 2.179-1.205 0-2.183-.974-2.183-2.179z" stroke="#000" stroke-width=".437" stroke-linecap="round" stroke-linejoin="round" fill="none"/><path d="M358.67 186.461c0-1.205.978-2.179 2.179-2.179 1.201 0 2.17.974 2.17 2.179 0 1.201-.969 2.174-2.17 2.174s-2.179-.973-2.179-2.174" fill="#fff"/><path d="M358.67 186.461c0-1.205.978-2.179 2.179-2.179 1.201 0 2.17.974 2.17 2.179 0 1.201-.969 2.174-2.17 2.174s-2.179-.973-2.179-2.174z" stroke="#000" stroke-width=".437" stroke-linecap="round" stroke-linejoin="round" fill="none"/><path d="M354.18 187.048c0-1.201.978-2.179 2.179-2.179 1.196 0 2.174.978 2.174 2.179 0 1.201-.978 2.179-2.174 2.179-1.201 0-2.179-.978-2.179-2.179" fill="#fff"/><path d="M354.18 187.048c0-1.201.978-2.179 2.179-2.179 1.196 0 2.174.978 2.174 2.179 0 1.201-.978 2.179-2.174 2.179-1.201 0-2.179-.978-2.179-2.179z" stroke="#000" stroke-width=".437" stroke-linecap="round" stroke-linejoin="round" fill="none"/><path d="M350.068 188.931c0-1.196.964-2.165 2.161-2.165 1.196 0 2.165.969 2.165 2.165 0 1.196-.969 2.165-2.165 2.165-1.196 0-2.161-.969-2.161-2.165" fill="#fff"/><path d="M350.068 188.931c0-1.196.964-2.165 2.161-2.165 1.196 0 2.165.969 2.165 2.165 0 1.196-.969 2.165-2.165 2.165-1.196 0-2.161-.969-2.161-2.165z" stroke="#000" stroke-width=".437" stroke-linecap="round" stroke-linejoin="round" fill="none"/><path d="M341.835 190.532c0-1.192.978-2.161 2.179-2.161 1.201 0 2.174.969 2.174 2.161 0 1.196-.973 2.165-2.174 2.165s-2.179-.969-2.179-2.165" fill="#fff"/><path d="M341.835 190.532c0-1.192.978-2.161 2.179-2.161 1.201 0 2.174.969 2.174 2.161 0 1.196-.973 2.165-2.174 2.165s-2.179-.969-2.179-2.165z" stroke="#000" stroke-width=".437" stroke-linecap="round" stroke-linejoin="round" fill="none"/><path d="M337.51 191.469c0-1.196.969-2.165 2.165-2.165 1.192 0 2.161.969 2.161 2.165 0 1.196-.969 2.165-2.161 2.165-1.196 0-2.165-.969-2.165-2.165" fill="#fff"/><path d="M337.51 191.469c0-1.196.969-2.165 2.165-2.165 1.192 0 2.161.969 2.161 2.165 0 1.196-.969 2.165-2.161 2.165-1.196 0-2.165-.969-2.165-2.165z" stroke="#000" stroke-width=".437" stroke-linecap="round" stroke-linejoin="round" fill="none"/><path d="M333.289 193.407c0-1.205.973-2.179 2.174-2.179s2.174.973 2.174 2.179c0 1.201-.973 2.179-2.174 2.179s-2.174-.978-2.174-2.179" fill="#fff"/><path d="M333.289 193.407c0-1.205.973-2.179 2.174-2.179s2.174.973 2.174 2.179c0 1.201-.973 2.179-2.174 2.179s-2.174-.978-2.174-2.179z" stroke="#000" stroke-width=".437" stroke-linecap="round" stroke-linejoin="round" fill="none"/><path d="M346.379 190.6c0-1.201.973-2.179 2.179-2.179 1.201 0 2.174.978 2.174 2.179 0 1.206-.973 2.179-2.174 2.179-1.205 0-2.179-.973-2.179-2.179" fill="#fff"/><path d="M346.379 190.6c0-1.201.973-2.179 2.179-2.179 1.201 0 2.174.978 2.174 2.179 0 1.206-.973 2.179-2.174 2.179-1.205 0-2.179-.973-2.179-2.179z" stroke="#000" stroke-width=".437" stroke-linecap="round" stroke-linejoin="round" fill="none"/><path d="M346.111 196.745c0-1.201.978-2.179 2.179-2.179 1.201 0 2.174.978 2.174 2.179 0 1.205-.973 2.179-2.174 2.179s-2.179-.973-2.179-2.179" fill="#fff"/><path d="M346.111 196.745c0-1.201.978-2.179 2.179-2.179 1.201 0 2.174.978 2.174 2.179 0 1.205-.973 2.179-2.174 2.179s-2.179-.973-2.179-2.179z" stroke="#000" stroke-width=".437" stroke-linecap="round" stroke-linejoin="round" fill="none"/><path d="M347.448 201.089c0-1.196.973-2.165 2.179-2.165 1.196 0 2.17.969 2.17 2.165 0 1.192-.973 2.161-2.17 2.161-1.205 0-2.179-.969-2.179-2.161" fill="#fff"/><path d="M347.448 201.089c0-1.196.973-2.165 2.179-2.165 1.196 0 2.17.969 2.17 2.165 0 1.192-.973 2.161-2.17 2.161-1.205 0-2.179-.969-2.179-2.161z" stroke="#000" stroke-width=".437" stroke-linecap="round" stroke-linejoin="round" fill="none"/><path d="M330.082 196.682c0-1.196.973-2.165 2.179-2.165 1.201 0 2.17.969 2.17 2.165 0 1.192-.969 2.161-2.17 2.161-1.205 0-2.179-.969-2.179-2.161" fill="#fff"/><path d="M330.082 196.682c0-1.196.973-2.165 2.179-2.165 1.201 0 2.17.969 2.17 2.165 0 1.192-.969 2.161-2.17 2.161-1.205 0-2.179-.969-2.179-2.161z" stroke="#000" stroke-width=".437" stroke-linecap="round" stroke-linejoin="round" fill="none"/><path d="M328.344 200.689c0-1.196.973-2.165 2.179-2.165 1.201 0 2.17.969 2.17 2.165 0 1.192-.969 2.161-2.17 2.161-1.205 0-2.179-.969-2.179-2.161" fill="#fff"/><path d="M328.344 200.689c0-1.196.973-2.165 2.179-2.165 1.201 0 2.17.969 2.17 2.165 0 1.192-.969 2.161-2.17 2.161-1.205 0-2.179-.969-2.179-2.161z" stroke="#000" stroke-width=".437" stroke-linecap="round" stroke-linejoin="round" fill="none"/><path d="M327.757 205.097c0-1.196.969-2.165 2.165-2.165 1.192 0 2.161.969 2.161 2.165 0 1.196-.969 2.165-2.161 2.165-1.196 0-2.165-.969-2.165-2.165" fill="#fff"/><path d="M327.757 205.097c0-1.196.969-2.165 2.165-2.165 1.192 0 2.161.969 2.161 2.165 0 1.196-.969 2.165-2.161 2.165-1.196 0-2.165-.969-2.165-2.165z" stroke="#000" stroke-width=".437" stroke-linecap="round" stroke-linejoin="round" fill="none"/><path d="M329.145 209.372c0-1.196.978-2.165 2.179-2.165 1.201 0 2.174.969 2.174 2.165 0 1.196-.973 2.161-2.174 2.161s-2.179-.964-2.179-2.161" fill="#fff"/><path d="M329.145 209.372c0-1.196.978-2.165 2.179-2.165 1.201 0 2.174.969 2.174 2.165 0 1.196-.973 2.161-2.174 2.161s-2.179-.964-2.179-2.161z" stroke="#000" stroke-width=".437" stroke-linecap="round" stroke-linejoin="round" fill="none"/><path d="M332.802 201.835c0 4.753 3.211 6.491 3.211 6.491l-.932 2.006s-2.888-1.819-2.888-6.677c0-1.283.61-1.819.61-1.819" fill="#efd600"/><path d="M332.802 201.835c0 4.753 3.211 6.491 3.211 6.491l-.932 2.006s-2.888-1.819-2.888-6.677c0-1.283.61-1.819.61-1.819z" stroke="#000" stroke-width=".437" stroke-linecap="round" stroke-linejoin="round" fill="none"/><path d="M370.123 189.932c0-.596.482-1.082 1.083-1.082.596 0 1.083.487 1.083 1.082 0 .601-.487 1.083-1.083 1.083-.6 0-1.083-.482-1.083-1.083" fill="#fff"/><path d="M370.123 189.932c0-.596.482-1.082 1.083-1.082.596 0 1.083.487 1.083 1.082 0 .601-.487 1.083-1.083 1.083-.6 0-1.083-.482-1.083-1.083z" stroke="#000" stroke-width=".437" stroke-linecap="round" stroke-linejoin="round" fill="none"/><path d="M369.732 192.338c0-.76.614-1.374 1.378-1.374.76 0 1.374.614 1.374 1.374 0 .76-.614 1.378-1.374 1.378-.764 0-1.378-.619-1.378-1.378" fill="#fff"/><path d="M369.732 192.338c0-.76.614-1.374 1.378-1.374.76 0 1.374.614 1.374 1.374 0 .76-.614 1.378-1.374 1.378-.764 0-1.378-.619-1.378-1.378z" stroke="#000" stroke-width=".437" stroke-linecap="round" stroke-linejoin="round" fill="none"/><path d="M369.15 195.717c0-1.137.919-2.056 2.056-2.056s2.061.919 2.061 2.056-.923 2.056-2.061 2.056c-1.137 0-2.056-.919-2.056-2.056" fill="#fff"/><path d="M369.15 195.717c0-1.137.919-2.056 2.056-2.056s2.061.919 2.061 2.056-.923 2.056-2.061 2.056c-1.137 0-2.056-.919-2.056-2.056z" stroke="#000" stroke-width=".437" stroke-linecap="round" stroke-linejoin="round" fill="none"/><path d="M368.64 200.298c0-1.424 1.146-2.575 2.565-2.575 1.415 0 2.565 1.151 2.565 2.575 0 1.424-1.151 2.579-2.565 2.579-1.419 0-2.565-1.155-2.565-2.579" fill="#fff"/><path d="M368.64 200.298c0-1.424 1.146-2.575 2.565-2.575 1.415 0 2.565 1.151 2.565 2.575 0 1.424-1.151 2.579-2.565 2.579-1.419 0-2.565-1.155-2.565-2.579z" stroke="#000" stroke-width=".437" stroke-linecap="round" stroke-linejoin="round" fill="none"/><path d="M351.028 223.946c0-.641.514-1.164 1.146-1.164.637 0 1.151.523 1.151 1.164 0 .641-.514 1.16-1.151 1.16-.632 0-1.146-.519-1.146-1.16" fill="#00beff"/><path d="M351.028 223.946c0-.641.514-1.164 1.146-1.164.637 0 1.151.523 1.151 1.164 0 .641-.514 1.16-1.151 1.16-.632 0-1.146-.519-1.146-1.16z" stroke="#000" stroke-width=".437" stroke-linecap="round" stroke-linejoin="round" fill="none"/><path d="M363.719 222.277c0-.637.514-1.151 1.151-1.151.632 0 1.146.514 1.146 1.151 0 .632-.514 1.146-1.146 1.146-.637 0-1.151-.514-1.151-1.146" fill="#00beff"/><path d="M363.719 222.277c0-.637.514-1.151 1.151-1.151.632 0 1.146.514 1.146 1.151 0 .632-.514 1.146-1.146 1.146-.637 0-1.151-.514-1.151-1.146z" stroke="#000" stroke-width=".437" stroke-linecap="round" stroke-linejoin="round" fill="none"/><path d="M368.531 222.09l2.802-1.337 2.747 1.251-2.747 1.151-2.802-1.064" fill="#00beff"/><path d="M368.531 222.09l2.802-1.337 2.747 1.251-2.747 1.151-2.802-1.064" stroke="#000" stroke-width=".437" stroke-linecap="round" stroke-linejoin="round" fill="none"/><path d="M341.763 168.571c-1.688 0-4.285-.933-4.285-4.412 0-3.471 2.192-4.994 4.153-4.994 1.915 0 4.399 1.524 4.399 5.081 0 3.525-2.879 4.326-4.267 4.326"/><path d="M340.876 159.965c.423-.209 1.424.723 1.947 3.393.537 2.675.459 4.358-.396 4.489-.887.132-1.424-2.538-1.683-3.548-.264-.996-.801-3.875.132-4.335" fill="#e6e6e6"/><path d="M398.293 168.33c-1.578-.591-3.68-2.352-2.488-5.604 1.205-3.266 3.803-3.953 5.618-3.289 1.819.669 3.603 2.957 2.379 6.3-1.205 3.316-4.194 3.075-5.508 2.593"/><path d="M400.458 159.943c.482-.055 1.073 1.174.637 3.875-.428 2.675-1.06 4.217-1.915 4.062-.855-.182-.428-2.888-.35-3.907.109-1.042.591-3.921 1.628-4.03" fill="#e6e6e6"/><path d="M374.84 186.725c0-1.201.973-2.174 2.174-2.174s2.174.973 2.174 2.174c0 1.205-.973 2.179-2.174 2.179s-2.174-.974-2.174-2.179" fill="#fff"/><path d="M374.84 186.725c0-1.201.973-2.174 2.174-2.174s2.174.973 2.174 2.174c0 1.205-.973 2.179-2.174 2.179s-2.174-.974-2.174-2.179z" stroke="#000" stroke-width=".437" stroke-linecap="round" stroke-linejoin="round" fill="none"/><path d="M379.38 186.461c0-1.205.978-2.179 2.179-2.179 1.201 0 2.174.974 2.174 2.179 0 1.201-.973 2.174-2.174 2.174s-2.179-.973-2.179-2.174" fill="#fff"/><path d="M379.38 186.461c0-1.205.978-2.179 2.179-2.179 1.201 0 2.174.974 2.174 2.179 0 1.201-.973 2.174-2.174 2.174s-2.179-.973-2.179-2.174z" stroke="#000" stroke-width=".437" stroke-linecap="round" stroke-linejoin="round" fill="none"/><path d="M383.869 187.048c0-1.201.978-2.179 2.179-2.179 1.201 0 2.174.978 2.174 2.179 0 1.201-.973 2.179-2.174 2.179s-2.179-.978-2.179-2.179" fill="#fff"/><path d="M383.869 187.048c0-1.201.978-2.179 2.179-2.179 1.201 0 2.174.978 2.174 2.179 0 1.201-.973 2.179-2.174 2.179s-2.179-.978-2.179-2.179z" stroke="#000" stroke-width=".437" stroke-linecap="round" stroke-linejoin="round" fill="none"/><path d="M388.013 188.931c0-1.196.969-2.165 2.165-2.165 1.192 0 2.156.969 2.156 2.165 0 1.196-.964 2.165-2.156 2.165-1.196 0-2.165-.969-2.165-2.165" fill="#fff"/><path d="M388.013 188.931c0-1.196.969-2.165 2.165-2.165 1.192 0 2.156.969 2.156 2.165 0 1.196-.964 2.165-2.156 2.165-1.196 0-2.165-.969-2.165-2.165z" stroke="#000" stroke-width=".437" stroke-linecap="round" stroke-linejoin="round" fill="none"/><path d="M396.214 190.532c0-1.192.973-2.161 2.179-2.161 1.196 0 2.17.969 2.17 2.161 0 1.196-.973 2.165-2.17 2.165-1.205 0-2.179-.969-2.179-2.165" fill="#fff"/><path d="M396.214 190.532c0-1.192.973-2.161 2.179-2.161 1.196 0 2.17.969 2.17 2.161 0 1.196-.973 2.165-2.17 2.165-1.205 0-2.179-.969-2.179-2.165z" stroke="#000" stroke-width=".437" stroke-linecap="round" stroke-linejoin="round" fill="none"/><path d="M400.567 191.469c0-1.196.969-2.165 2.165-2.165 1.196 0 2.161.969 2.161 2.165 0 1.196-.964 2.165-2.161 2.165-1.196 0-2.165-.969-2.165-2.165" fill="#fff"/><path d="M400.567 191.469c0-1.196.969-2.165 2.165-2.165 1.196 0 2.161.969 2.161 2.165 0 1.196-.964 2.165-2.161 2.165-1.196 0-2.165-.969-2.165-2.165z" stroke="#000" stroke-width=".437" stroke-linecap="round" stroke-linejoin="round" fill="none"/><path d="M404.766 193.407c0-1.205.973-2.179 2.174-2.179 1.205 0 2.174.973 2.174 2.179 0 1.201-.969 2.179-2.174 2.179-1.201 0-2.174-.978-2.174-2.179" fill="#fff"/><path d="M404.766 193.407c0-1.205.973-2.179 2.174-2.179 1.205 0 2.174.973 2.174 2.179 0 1.201-.969 2.179-2.174 2.179-1.201 0-2.174-.978-2.174-2.179z" stroke="#000" stroke-width=".437" stroke-linecap="round" stroke-linejoin="round" fill="none"/><path d="M391.67 190.6c0-1.201.978-2.179 2.179-2.179 1.201 0 2.179.978 2.179 2.179 0 1.206-.978 2.179-2.179 2.179-1.201 0-2.179-.973-2.179-2.179" fill="#fff"/><path d="M391.67 190.6c0-1.201.978-2.179 2.179-2.179 1.201 0 2.179.978 2.179 2.179 0 1.206-.978 2.179-2.179 2.179-1.201 0-2.179-.973-2.179-2.179z" stroke="#000" stroke-width=".437" stroke-linecap="round" stroke-linejoin="round" fill="none"/><path d="M391.938 196.745c0-1.201.973-2.179 2.179-2.179 1.196 0 2.174.978 2.174 2.179 0 1.205-.978 2.179-2.174 2.179-1.205 0-2.179-.973-2.179-2.179" fill="#fff"/><path d="M391.938 196.745c0-1.201.973-2.179 2.179-2.179 1.196 0 2.174.978 2.174 2.179 0 1.205-.978 2.179-2.174 2.179-1.205 0-2.179-.973-2.179-2.179z" stroke="#000" stroke-width=".437" stroke-linecap="round" stroke-linejoin="round" fill="none"/><path d="M390.606 201.089c0-1.196.973-2.165 2.174-2.165s2.174.969 2.174 2.165c0 1.192-.973 2.161-2.174 2.161s-2.174-.969-2.174-2.161" fill="#fff"/><path d="M390.606 201.089c0-1.196.973-2.165 2.174-2.165s2.174.969 2.174 2.165c0 1.192-.973 2.161-2.174 2.161s-2.174-.969-2.174-2.161z" stroke="#000" stroke-width=".437" stroke-linecap="round" stroke-linejoin="round" fill="none"/><path d="M407.972 196.682c0-1.196.973-2.165 2.174-2.165 1.205 0 2.179.969 2.179 2.165 0 1.192-.973 2.161-2.179 2.161-1.201 0-2.174-.969-2.174-2.161" fill="#fff"/><path d="M407.972 196.682c0-1.196.973-2.165 2.174-2.165 1.205 0 2.179.969 2.179 2.165 0 1.192-.973 2.161-2.179 2.161-1.201 0-2.174-.969-2.174-2.161z" stroke="#000" stroke-width=".437" stroke-linecap="round" stroke-linejoin="round" fill="none"/><path d="M409.705 200.689c0-1.196.978-2.165 2.179-2.165 1.201 0 2.174.969 2.174 2.165 0 1.192-.973 2.161-2.174 2.161s-2.179-.969-2.179-2.161" fill="#fff"/><path d="M409.705 200.689c0-1.196.978-2.165 2.179-2.165 1.201 0 2.174.969 2.174 2.165 0 1.192-.973 2.161-2.174 2.161s-2.179-.969-2.179-2.161z" stroke="#000" stroke-width=".437" stroke-linecap="round" stroke-linejoin="round" fill="none"/><path d="M410.319 205.097c0-1.196.969-2.165 2.165-2.165 1.196 0 2.161.969 2.161 2.165 0 1.196-.964 2.165-2.161 2.165-1.196 0-2.165-.969-2.165-2.165" fill="#fff"/><path d="M410.319 205.097c0-1.196.969-2.165 2.165-2.165 1.196 0 2.161.969 2.161 2.165 0 1.196-.964 2.165-2.161 2.165-1.196 0-2.165-.969-2.165-2.165z" stroke="#000" stroke-width=".437" stroke-linecap="round" stroke-linejoin="round" fill="none"/><path d="M408.905 209.372c0-1.196.973-2.165 2.179-2.165 1.196 0 2.17.969 2.17 2.165 0 1.196-.973 2.161-2.17 2.161-1.205 0-2.179-.964-2.179-2.161" fill="#fff"/><path d="M408.905 209.372c0-1.196.973-2.165 2.179-2.165 1.196 0 2.17.969 2.17 2.165 0 1.196-.973 2.161-2.17 2.161-1.205 0-2.179-.964-2.179-2.161z" stroke="#000" stroke-width=".437" stroke-linecap="round" stroke-linejoin="round" fill="none"/><path d="M409.601 201.835c0 4.753-3.207 6.491-3.207 6.491l.932 2.006s2.888-1.819 2.888-6.677c0-1.283-.614-1.819-.614-1.819" fill="#efd600"/><path d="M409.601 201.835c0 4.753-3.207 6.491-3.207 6.491l.932 2.006s2.888-1.819 2.888-6.677c0-1.283-.614-1.819-.614-1.819z" stroke="#000" stroke-width=".437" stroke-linecap="round" stroke-linejoin="round" fill="none"/><path d="M389.082 223.946c0-.641.514-1.164 1.146-1.164.632 0 1.151.523 1.151 1.164 0 .641-.519 1.16-1.151 1.16s-1.146-.519-1.146-1.16" fill="#00beff"/><path d="M389.082 223.946c0-.641.514-1.164 1.146-1.164.632 0 1.151.523 1.151 1.164 0 .641-.519 1.16-1.151 1.16s-1.146-.519-1.146-1.16z" stroke="#000" stroke-width=".437" stroke-linecap="round" stroke-linejoin="round" fill="none"/><path d="M376.387 222.277c0-.637.519-1.151 1.151-1.151s1.146.514 1.146 1.151c0 .632-.514 1.146-1.146 1.146-.632 0-1.151-.514-1.151-1.146" fill="#00beff"/><path d="M376.387 222.277c0-.637.519-1.151 1.151-1.151s1.146.514 1.146 1.151c0 .632-.514 1.146-1.146 1.146-.632 0-1.151-.514-1.151-1.146z" stroke="#000" stroke-width=".437" stroke-linecap="round" stroke-linejoin="round" fill="none"/><path d="M371.201 224.478c2.597 0 24.581.823 24.581 3.944 0 1.815-7.751 3.075-7.751 3.075h-9.875s6.864-.537 14.692-3.002c0 0-5.299-2.343-21.647-2.343l-21.647 2.343c7.833 2.465 14.697 3.002 14.697 3.002h-9.875s-7.751-1.26-7.751-3.075c0-3.12 21.988-3.944 24.576-3.944" fill="#efd600"/><path d="M371.201 224.478c2.597 0 24.581.823 24.581 3.944 0 1.815-7.751 3.075-7.751 3.075h-9.875s6.864-.537 14.692-3.002c0 0-5.299-2.343-21.647-2.343l-21.647 2.343c7.833 2.465 14.697 3.002 14.697 3.002h-9.875s-7.751-1.26-7.751-3.075c0-3.12 21.988-3.944 24.576-3.944z" stroke="#000" stroke-width=".437" stroke-linecap="round" stroke-linejoin="round" fill="none"/><path d="M371.201 217.965c18.517 0 27.123 4.126 27.123 4.126l-.669 1.392s-9.175-3.844-26.455-4.094c-17.276.25-26.45 4.094-26.45 4.094l-.669-1.392s8.606-4.126 27.119-4.126" fill="#efd600"/><path d="M371.201 217.965c18.517 0 27.123 4.126 27.123 4.126l-.669 1.392s-9.175-3.844-26.455-4.094c-17.276.25-26.45 4.094-26.45 4.094l-.669-1.392s8.606-4.126 27.119-4.126zm-31.795-42.844s-.723-.055-2.188-.055c-1.469 0-2.893.055-3.953-1.601-2.333-3.634-4.066-5.749-4.599-6.55" stroke="#000" stroke-width=".437" stroke-linecap="round" stroke-linejoin="round" fill="none"/><path d="M367.38 184.31c0-2.111 1.715-3.821 3.825-3.821 2.106 0 3.821 1.71 3.821 3.821s-1.715 3.821-3.821 3.821c-2.111 0-3.825-1.71-3.825-3.821" fill="#00beff"/><path d="M367.38 184.31c0-2.111 1.715-3.821 3.825-3.821 2.106 0 3.821 1.71 3.821 3.821s-1.715 3.821-3.821 3.821c-2.111 0-3.825-1.71-3.825-3.821z" stroke="#000" stroke-width=".437" stroke-linecap="round" stroke-linejoin="round" fill="none"/><path d="M367.38 184.032c1.656-.81 2.97-.769 2.97-.769v-5.067h-1.951v-1.337h1.96v-1.392h1.71v1.392h1.933v1.337h-1.951v5.067s1.305-.041 2.957.769c0 .337-.027.942-.114 1.246-1.656-.81-2.838-.482-2.838-.482h-1.706s-1.128-.328-2.784.482c-.118-.368-.186-.841-.186-1.246" fill="#efd600"/><path d="M367.38 184.032c1.656-.81 2.97-.769 2.97-.769v-5.067h-1.951v-1.337h1.96v-1.392h1.71v1.392h1.933v1.337h-1.951v5.067s1.305-.041 2.957.769c0 .337-.027.942-.114 1.246-1.656-.81-2.838-.482-2.838-.482h-1.706s-1.128-.328-2.784.482c-.118-.368-.186-.841-.186-1.246z" stroke="#000" stroke-width=".437" stroke-linecap="round" stroke-linejoin="round" fill="none"/><path d="M346.994 192.338c0-1.201.969-2.179 2.165-2.179 1.192 0 2.165.978 2.165 2.179 0 1.201-.973 2.179-2.165 2.179-1.196 0-2.165-.978-2.165-2.179" fill="#fff"/><path d="M346.994 192.338c0-1.201.969-2.179 2.165-2.179 1.192 0 2.165.978 2.165 2.179 0 1.201-.973 2.179-2.165 2.179-1.196 0-2.165-.978-2.165-2.179z" stroke="#000" stroke-width=".437" stroke-linecap="round" stroke-linejoin="round" fill="none"/><path d="M391.083 192.338c0-1.201.969-2.179 2.165-2.179 1.196 0 2.161.978 2.161 2.179 0 1.201-.964 2.179-2.161 2.179-1.196 0-2.165-.978-2.165-2.179" fill="#fff"/><path d="M391.083 192.338c0-1.201.969-2.179 2.165-2.179 1.196 0 2.161.978 2.161 2.179 0 1.201-.964 2.179-2.161 2.179-1.196 0-2.165-.978-2.165-2.179z" stroke="#000" stroke-width=".437" stroke-linecap="round" stroke-linejoin="round" fill="none"/><path d="M357.255 221.74l3.129-.282c.6-.077 1.228.414 1.305 1.028.073.614-.428 1.205-1.033 1.283l-2.943.328c-.614.077-1.437-.387-1.515-.996-.064-.614.441-1.283 1.055-1.36" fill="#00beff"/><path d="M357.255 221.74l3.129-.282c.6-.077 1.228.414 1.305 1.028.073.614-.428 1.205-1.033 1.283l-2.943.328c-.614.077-1.437-.387-1.515-.996-.064-.614.441-1.283 1.055-1.36z" stroke="#000" stroke-width=".437" stroke-linecap="round" stroke-linejoin="round" fill="none"/><path d="M381.868 223.778l3.143.318c.614 0 1.151-.537 1.151-1.151s-.537-1.151-1.151-1.151l-3.143-.35c-.614 0-1.16.569-1.16 1.183 0 .614.546 1.151 1.16 1.151" fill="#00beff"/><path d="M381.868 223.778l3.143.318c.614 0 1.151-.537 1.151-1.151s-.537-1.151-1.151-1.151l-3.143-.35c-.614 0-1.16.569-1.16 1.183 0 .614.546 1.151 1.16 1.151z" stroke="#000" stroke-width=".437" stroke-linecap="round" stroke-linejoin="round" fill="none"/><path d="M345.77 225.356c0-.464.182-1.078.796-1.078.591 0 1.337.541 1.337.541s-.537 1.201-1.283 1.201c-.723 0-.851-.664-.851-.664" fill="#00beff"/><path d="M345.77 225.356c0-.464.182-1.078.796-1.078.591 0 1.337.541 1.337.541s-.537 1.201-1.283 1.201c-.723 0-.851-.664-.851-.664z" stroke="#000" stroke-width=".437" stroke-linecap="round" stroke-linejoin="round" fill="none"/><path d="M396.637 225.356c0-.464-.186-1.078-.796-1.078-.596 0-1.337.541-1.337.541s.537 1.201 1.278 1.201c.728 0 .855-.664.855-.664" fill="#00beff"/><path d="M396.637 225.356c0-.464-.186-1.078-.796-1.078-.596 0-1.337.541-1.337.541s.537 1.201 1.278 1.201c.728 0 .855-.664.855-.664zm-58.468-54.101c-2.474.577-3.089 1.587-3.089 2.124m67.92 1.742s.723-.055 2.188-.055c1.469 0 2.893.055 3.953-1.601 2.333-3.634 4.062-5.749 4.599-6.55m-9.502 4.34c2.474.577 3.089 1.587 3.089 2.124" stroke="#000" stroke-width=".437" stroke-linecap="round" stroke-linejoin="round" fill="none"/><path d="M332.597 231.574s-.014 57.713-.014 71.609c0 13.891 14.183 23.626 38.618 23.626 24.44 0 38.622-9.734 38.622-23.626 0-13.896-.014-71.609-.014-71.609h-77.213" fill="#00beff"/><path d="M332.597 231.574s-.014 57.713-.014 71.609c0 13.891 14.183 23.626 38.618 23.626 24.44 0 38.622-9.734 38.622-23.626 0-13.896-.014-71.609-.014-71.609h-77.213" stroke="#000" stroke-width=".437" stroke-linecap="round" stroke-linejoin="round" fill="none"/><path d="M342.877 249.068h22.184s-.669-.523-1.073-1.597c-.405-1.073-.669-1.742-1.26-2.22-.614-.446-1.674-.71-2.133-1.378-.482-.669-1.064-1.815-1.688-2.484-.855-.942-1.888-1.055-2.188-1.478-.537-.714-1.469-2.006-1.819-2.006-.314 0-.719.35-1.515 1.292-.801.932-1.469 1.119-1.733 1.601-.273.441-.537 1.11-1.019 1.46-.459.318-1.869.591-2.133.942-.273.318-2.061 1.788-2.67 2.32-.591.541-1.797.801-2.061 1.469-.273.669-1.073 2.079-1.073 2.079" fill="#e6e6e6"/><path d="M364.601 249.664s-.669-.523-1.069-1.592c-.405-1.069-.669-1.733-1.255-2.215-.614-.446-1.669-.705-2.129-1.369-.482-.664-1.06-1.81-1.678-2.479-.855-.937-1.883-1.046-2.183-1.469-.532-.71-1.46-1.997-1.81-1.997-.227 0-.487.173-.914.605l.064 1.733.664.796s.532.328 1.333.328c.796 0 1.069 1.005 1.069 1.41l-1.333 1.592.132.846h1.865c.405 0 .664.755.664 1.201 0 .482-.937.755-1.328.755-.405 0-.942-.81-1.146-.942-.186-.132-.318.318-.669.591l-1.069.35c-.446.259-.259 1.779-.259 1.779l11.053.073" fill="#bebebe"/><path d="M342.877 249.068h22.184s-.669-.523-1.073-1.597c-.405-1.073-.669-1.742-1.26-2.22-.614-.446-1.674-.71-2.133-1.378-.482-.669-1.064-1.815-1.688-2.484-.855-.942-1.888-1.055-2.188-1.478-.537-.714-1.469-2.006-1.819-2.006-.314 0-.719.35-1.515 1.292-.801.932-1.469 1.119-1.733 1.601-.273.441-.537 1.11-1.019 1.46-.459.318-1.869.591-2.133.942-.273.318-2.061 1.788-2.67 2.32-.591.541-1.797.801-2.061 1.469-.273.669-1.073 2.079-1.073 2.079" stroke="#000" stroke-width=".437" stroke-linecap="round" stroke-linejoin="round" fill="none"/><path d="M341.631 272.107h23.562s.132-.537-.055-.855c-.218-.35-.405-.537-.801-1.019-.405-.446-.537-.983-.887-1.255-.318-.264-2.133-.077-2.538-.528-.396-.482-1.733-2.629-2.397-3.339-.669-.751-1.255-1.146-1.606-1.146-.318 0-2.397-2.329-2.397-2.329s-.801-.132-1.001 0c-.205.136-1.192 1.333-1.192 1.333s-1.151.81-1.61.855c-.482.082-.337.669-.61.937-.264.264-.796 1.415-1.265 1.542-.464.146-1.537.591-1.851.996-.355.396-.76 1.196-1.205 1.415-.482.186-1.283.264-1.742.537-.482.264-1.283.983-1.337 1.246-.077.277-1.06 1.61-1.06 1.61" fill="#e6e6e6"/><path d="M364.729 272.621s.132-.532-.055-.851c-.218-.35-.4-.532-.796-1.014-.4-.441-.532-.978-.882-1.251-.318-.259-2.129-.077-2.529-.523-.396-.482-1.724-2.62-2.393-3.33-.664-.751-1.251-1.142-1.597-1.142-.318 0-2.393-2.324-2.393-2.324s-.796-.132-.992 0c-.1.064-.382.382-.646.687 0 0-.15 3.23.177 3.302.337.055.928-.61 1.537-.61.591 0 .796.482.796 1.014s-1.537 1.383-1.537 2.179c0 .796.337 1.278.796 1.278.482 0 1.064-1.014 1.274-1.333.182-.35.664-.796.983-.796.346 0 .61.186.61.587 0 .396-.337.928-.337 1.146 0 .186.61.71 1.274.71.669 0 1.255.81 1.255 1.146 0 .328-1.569.109-1.865.405-.296.296-.537.719-.537.719h7.855" fill="#bebebe"/><path d="M341.631 272.107h23.562s.132-.537-.055-.855c-.218-.35-.405-.537-.801-1.019-.405-.446-.537-.983-.887-1.255-.318-.264-2.133-.077-2.538-.528-.396-.482-1.733-2.629-2.397-3.339-.669-.751-1.255-1.146-1.606-1.146-.318 0-2.397-2.329-2.397-2.329s-.801-.132-1.001 0c-.205.136-1.192 1.333-1.192 1.333s-1.151.81-1.61.855c-.482.082-.337.669-.61.937-.264.264-.796 1.415-1.265 1.542-.464.146-1.537.591-1.851.996-.355.396-.76 1.196-1.205 1.415-.482.186-1.283.264-1.742.537-.482.264-1.283.983-1.337 1.246-.077.277-1.06 1.61-1.06 1.61h-.009z" stroke="#000" stroke-width=".437" stroke-linecap="round" stroke-linejoin="round" fill="none"/><path d="M376.81 249.068h23.112s-.391-2.934-2.265-3.471c-1.874-.537-2.279-.741-2.538-1.146-.273-.396-.537-1.469-1.205-1.874-.669-.396-2.675-1.064-3.079-1.915-.391-.882-.664-2.406-1.724-2.406-1.073 0-2.133-.391-2.465 0-.337.405-1.465 2.488-2.802 3.207-.873.446-.928 1.815-1.542 2.265-.723.537-.81 1.205-1.797 1.205-1.019 0-2.538.723-3.075 1.924-.528 1.205-.614 2.211-.614 2.211" fill="#e6e6e6"/><path d="M399.339 249.664s-.391-2.925-2.256-3.457c-1.869-.537-2.27-.741-2.534-1.146-.273-.391-.532-1.46-1.201-1.865-.664-.391-2.661-1.06-3.066-1.91-.391-.878-.664-2.397-1.724-2.397-1.064 0-2.124-.391-2.452 0 0 0-.259 1.733.055 1.788.346.077 2.265-.055 2.265.478 0 .523-1.069.523-1.069 2.129 0 1.592.537 3.239.741 3.057.186-.209.81-.796.81-1.333 0-.523-.136-1.06.523-1.06.664 0 .591 1.114 1.069 1.246.446.141.983 0 1.255.273.264.259 1.278 1.274 1.005 1.46-.264.218-1.724 1.014-1.542 1.41.209.396 1.724 1.251 1.724 1.251l6.395.073" fill="#bebebe"/><path d="M376.81 249.068h23.112s-.391-2.934-2.265-3.471c-1.874-.537-2.279-.741-2.538-1.146-.273-.396-.537-1.469-1.205-1.874-.669-.396-2.675-1.064-3.079-1.915-.391-.882-.664-2.406-1.724-2.406-1.073 0-2.133-.391-2.465 0-.337.405-1.465 2.488-2.802 3.207-.873.446-.928 1.815-1.542 2.265-.723.537-.81 1.205-1.797 1.205-1.019 0-2.538.723-3.075 1.924-.528 1.205-.614 2.211-.614 2.211h-.005z" stroke="#000" stroke-width=".437" stroke-linecap="round" stroke-linejoin="round" fill="none"/><path d="M376.81 272.052h23.243s-.664-1.556-1.597-2.001c-.932-.482-1.524-2.675-1.929-3.025-.396-.314-1.728-2.056-2.265-2.056-.537 0-1.283-.259-2.001-1.815 0 0-.61-.578-1.019-.578-.405 0-1.597.259-1.597-.223 0-.446-.459-1.519-1.478-1.519-.987 0-.932-.132-1.192.405-.273.537-1.128.45-2.061 2.188 0 0-.482.127-1.019.61-.537.45-1.333 1.073-1.738 2.006-.396.928-1.733 1.738-2.192 2.056-.482.35-1.597 1.283-1.874 1.542-.259.277-.391.723-.391.723s-.796.614-.796 1.019c0 .405-.086.669-.086.669" fill="#e6e6e6"/><path d="M399.471 272.566s-.664-1.547-1.592-1.997c-.928-.478-1.519-2.661-1.924-3.011-.391-.314-1.724-2.051-2.256-2.051-.537 0-1.274-.255-1.997-1.81 0 0-.605-.578-1.014-.578-.4 0-1.587.264-1.587-.214 0-.446-.459-1.519-1.474-1.519-.983 0-.928-.127-1.192.405-.096.182-.282.287-.5.428 0 0 .1 1.883.359 2.361.268.45.669.796 1.201.796s.532-.346 1.01-.346c.45 0 .591.273.796.664.186.405.723.35 1.387.482.664.141 1.278 1.196 1.278 1.515v.882s-.801-1.014-1.06-1.014c-.273 0-.664.132-.664.537 0 .4.127 1.274.127 1.942 0 .664-.61 1.064-.937 1.064-.337 0-.796-.61-1.278-.61-.446 0-1.51.796-1.865.796-.309 0-.578-.314-1.51-.314-.928 0-1.192 1.642-1.192 1.642l15.888-.055" fill="#bebebe"/><path d="M376.81 272.052h23.243s-.664-1.556-1.597-2.001c-.932-.482-1.524-2.675-1.929-3.025-.396-.314-1.728-2.056-2.265-2.056-.537 0-1.283-.259-2.001-1.815 0 0-.61-.578-1.019-.578-.405 0-1.597.259-1.597-.223 0-.446-.459-1.519-1.478-1.519-.987 0-.932-.132-1.192.405-.273.537-1.128.45-2.061 2.188 0 0-.482.127-1.019.61-.537.45-1.333 1.073-1.738 2.006-.396.928-1.733 1.738-2.192 2.056-.482.35-1.597 1.283-1.874 1.542-.259.277-.391.723-.391.723s-.796.614-.796 1.019c0 .405-.086.669-.086.669h-.009z" stroke="#000" stroke-width=".437" stroke-linecap="round" stroke-linejoin="round" fill="none"/><path d="M340.689 294.368h24.713s-.209-.537-.746-1.151c-.537-.591-1.651-2.001-1.874-2.461-.182-.482-.578-1.41-1.519-1.597-.932-.218-3.821-1.61-3.821-2.356 0-.719-.932-2.725-1.733-2.725-.81 0-.86.459-1.251.459-.409 0-1.688-1.337-2.006-1.337-.35 0-.942.746-1.019 1.337-.055.614-.264 1.151-.669 1.601-.391.482-1.597 1.678-2.001 1.678-.396 0-.855-.127-1.469-.127-.591 0-2.056.396-2.461 1.469-.396 1.064-1.819 2.579-2.083 2.72-.259.132-.669.077-.978.396-.35.35-1.073 2.092-1.073 2.092" fill="#e6e6e6"/><path d="M364.938 294.804s-.209-.537-.741-1.146c-.537-.591-1.647-1.997-1.865-2.456-.186-.478-.578-1.406-1.519-1.592-.928-.214-3.807-1.601-3.807-2.343 0-.719-.928-2.716-1.724-2.716-.805 0-.86.459-1.255.459-.4 0-1.678-1.333-1.997-1.333-.346 0-.932.737-1.014 1.333-.05.605-.255 1.142-.664 1.587 0 0 .664.259 1.146.259.459 0 1.201-.446 1.46-.446.273 0 .669.264.669.591l.055 1.328c0 .341.478.523.882.523.391 0 1.11-.041 1.11.218 0 .264-.532 1.651-.532 1.869 0 .182.405 0 .664 0 .273 0 .81-.669 1.201-.669.405 0 .796.318.796.669l.082 1.997c0 .259-.214.446-.528.446-.35 0-.937-.537-.937-.537s-.669-.259-1.06-.259c-.405 0-2.347.61-2.606.882-.273.264-.405.664-.405.851v.482h12.591" fill="#bebebe"/><path d="M340.689 294.368h24.713s-.209-.537-.746-1.151c-.537-.591-1.651-2.001-1.874-2.461-.182-.482-.578-1.41-1.519-1.597-.932-.218-3.821-1.61-3.821-2.356 0-.719-.932-2.725-1.733-2.725-.81 0-.86.459-1.251.459-.409 0-1.688-1.337-2.006-1.337-.35 0-.942.746-1.019 1.337-.055.614-.264 1.151-.669 1.601-.391.482-1.597 1.678-2.001 1.678-.396 0-.855-.127-1.469-.127-.591 0-2.056.396-2.461 1.469-.396 1.064-1.819 2.579-2.083 2.72-.259.132-.669.077-.978.396-.35.35-1.073 2.092-1.073 2.092h-.009z" stroke="#000" stroke-width=".437" stroke-linecap="round" stroke-linejoin="round" fill="none"/><path d="M377.215 294.368h24.044s.218-.669-.132-1.019c-.318-.318-1.465-1.656-1.924-2.061-.482-.405-.932-1.333-1.678-1.333-.723 0-1.665.132-1.869-.073-.182-.186-.573-1.128-.719-2.279-.086-.446-.273-.669-.669-.669-.405 0-1.205-.05-1.61-.391-.391-.332-.878-1.337-1.283-1.524-.391-.218-.983-.35-1.387-.669-.396-.35-1.151-.81-1.151-.81l-.669-.077-.987 1.073-1.014.132s-1.524 1.283-1.733 1.951c-.182.664-.537 1.064-.796 1.251-.273.209-.591.264-.851.801-.273.537-1.073 1.151-1.61 1.283-.537.132-2.265 1.073-2.538 1.465-.264.409-.669 1.128-.932 1.392-.268.264-.482 1.556-.482 1.556" fill="#e6e6e6"/><path d="M400.672 294.804s.218-.669-.132-1.014c-.318-.318-1.46-1.651-1.92-2.051-.482-.405-.928-1.333-1.669-1.333-.723 0-1.66.132-1.865-.077-.182-.182-.569-1.119-.719-2.265-.086-.446-.273-.664-.664-.664-.405 0-1.201-.055-1.606-.391-.391-.328-.873-1.333-1.274-1.519-.396-.218-.983-.35-1.387-.664-.391-.35-1.146-.81-1.146-.81l-.664-.073-.983 1.069-.209.796s.746.255.746.528c0 .264-1.333 1.146-1.333 1.465 0 .35.405.391.719.391.35 0 .796-.928 1.201-.928.391 0 .523.614.523.928 0 .35-.446 1.287-.446 1.474 0 .205.405.264.719.264l1.146-.132c.318 0 .983 1.146 1.242 1.146h1.997s.273.391.273.664c0 .259-.182 1.46-.532 1.46-.318 0-.928.055-1.114.055-.218 0-.35-.273-.882-.273-.537 0-1.779.537-1.779 1.815l11.763.141" fill="#bebebe"/><path d="M377.215 294.368h24.044s.218-.669-.132-1.019c-.318-.318-1.465-1.656-1.924-2.061-.482-.405-.932-1.333-1.678-1.333-.723 0-1.665.132-1.869-.073-.182-.186-.573-1.128-.719-2.279-.086-.446-.273-.669-.669-.669-.405 0-1.205-.05-1.61-.391-.391-.332-.878-1.337-1.283-1.524-.391-.218-.983-.35-1.387-.669-.396-.35-1.151-.81-1.151-.81l-.669-.077-.987 1.073-1.014.132s-1.524 1.283-1.733 1.951c-.182.664-.537 1.064-.796 1.251-.273.209-.591.264-.851.801-.273.537-1.073 1.151-1.61 1.283-.537.132-2.265 1.073-2.538 1.465-.264.409-.669 1.128-.932 1.392-.268.264-.482 1.556-.482 1.556h-.009z" stroke="#000" stroke-width=".437" stroke-linecap="round" stroke-linejoin="round" fill="none"/><path d="M359.179 315.469h26.664s-.077-1.064-.801-1.064c-.746 0-.887-.273-1.151-.537s-.314-.932-.723-.932c-.391 0-1.014-.082-1.146-.623-.132-.523-.801-1.11-1.064-1.11-.273 0-.996 0-1.128-.537-.127-.537-1.46-.801-1.81-1.205-.318-.396-1.929-2.615-3.12-2.67-1.205-.077-1.951-.209-1.951-.209s-1.346-1.929-1.742-1.874c-.405.077-1.387.746-2.001 1.205-.591.482-1.205.396-1.797 1.469-.614 1.069-2.747 5.022-4.94 5.022-2.215 0-1.838.241-2.133.537-.323.287-1.151.714-1.151 2.534" fill="#e6e6e6"/><path d="M385.307 315.828s-.073-1.06-.796-1.06c-.741 0-.882-.273-1.146-.532-.259-.264-.314-.928-.719-.928-.391 0-1.014-.082-1.146-.623-.132-.523-.796-1.105-1.055-1.105-.273 0-.996 0-1.128-.537-.123-.537-1.456-.796-1.81-1.201-.309-.391-1.915-2.606-3.102-2.661-1.201-.077-1.942-.209-1.942-.209s-1.342-1.92-1.738-1.865c-.4.077-1.383.741-1.997 1.201-.282.227-.578.328-.873.491 0 0 .155 1.506 1.224 1.506 1.06 0 1.724-.537 2.706-.537.678 0 .805.482.805.887 0 1.237.537 1.051.537 1.719 0 .532-.805 1.124-.805 1.733 0 .578.214.719.532.719.35 0 .937-1.251 1.406-1.251.455 0 .146.978.669 1.069.532.041.987.182 1.651.182.669 0 .537.614.537.873 0 .273-.537.459-.987.459-.482 0-1.465.264-1.465.873 0 .587-.077.846-.077.846l10.726-.055" fill="#bebebe"/><path d="M359.179 315.469h26.664s-.077-1.064-.801-1.064c-.746 0-.887-.273-1.151-.537s-.314-.932-.723-.932c-.391 0-1.014-.082-1.146-.623-.132-.523-.801-1.11-1.064-1.11-.273 0-.996 0-1.128-.537-.127-.537-1.46-.801-1.81-1.205-.318-.396-1.929-2.615-3.12-2.67-1.205-.077-1.951-.209-1.951-.209s-1.346-1.929-1.742-1.874c-.405.077-1.387.746-2.001 1.205-.591.482-1.205.396-1.797 1.469-.614 1.069-2.747 5.022-4.94 5.022-2.215 0-1.838.241-2.133.537-.323.287-1.151.714-1.151 2.534l-.005-.005z" stroke="#000" stroke-width=".437" stroke-linecap="round" stroke-linejoin="round" fill="none"/><path d="M424.625 251.784l-3.593 1.624s-1.542-.755-1.947-2.333c-1.205-5.072-3.098-8.278-4.194-12.286-.537-1.947-.746-2.224-1.819-2.802-1.073-.614-3.257-2.138-3.257-2.138s-.264-.937-.264-1.333c0 0 .127-.405 1.26-.218l-2.279-.537s.669-.983 1.41-.983c.723 0 1.387.669 1.387.669l-1.597-.942s.35-.264.801-.264c.482 0 1.337.537 2.006 1.337.664.801 2.352 1.683 4.617 4.803 1.26 1.742 1.337 2.061 1.665 3.002.341.932.637 2.434 3.011 5.158 1.797 2.042 1.874 2.802 3.002 3.603 1.151.796 1.337.796 1.337.796l-1.547 2.843" fill="#be4b00"/><path d="M424.625 251.784l-3.593 1.624s-1.542-.755-1.947-2.333c-1.205-5.072-3.098-8.278-4.194-12.286-.537-1.947-.746-2.224-1.819-2.802-1.073-.614-3.257-2.138-3.257-2.138s-.264-.937-.264-1.333c0 0 .127-.405 1.26-.218l-2.279-.537s.669-.983 1.41-.983c.723 0 1.387.669 1.387.669l-1.597-.942s.35-.264.801-.264c.482 0 1.337.537 2.006 1.337.664.801 2.352 1.683 4.617 4.803 1.26 1.742 1.337 2.061 1.665 3.002.341.932.637 2.434 3.011 5.158 1.797 2.042 1.874 2.802 3.002 3.603 1.151.796 1.337.796 1.337.796l-1.547 2.843" stroke="#000" stroke-width=".437" stroke-linecap="round" stroke-linejoin="round" fill="none"/><path d="M422.851 253.089l-1.819.318s-1.542-.755-1.947-2.333c-1.205-5.072-3.098-8.278-4.194-12.286l.987.405c.664 0 2.133 3.866 2.67 4.994.537 1.151.887 1.597 2.006 3.152 1.146 1.524 2.352 4.271 2.352 4.271l-.055 1.478" fill="#7e0b00"/><path d="M422.851 253.089l-1.819.318s-1.542-.755-1.947-2.333c-1.205-5.072-3.098-8.278-4.194-12.286l.987.405c.664 0 2.133 3.866 2.67 4.994.537 1.151.887 1.597 2.006 3.152 1.146 1.524 2.352 4.271 2.352 4.271l-.055 1.478" stroke="#000" stroke-width=".437" stroke-linecap="round" stroke-linejoin="round" fill="none"/><path d="M445.667 293.03s-4.08 5.608-8.683 7.796c-1.519.746-3.339 2.67-3.339 3.612 0 3.825 3.339 5.827 3.339 8.947 0 2.802-4.89 7.141-5.658 7.883-.623.61-1.019.796-1.424.796-1.597 0-3.066.482-3.066 1.469 0 0 .801-.182 1.064.086 0 0-1.469 0-1.469 1.597 0 .987.35 1.469.801 1.469.482 0 1.019-.077 1.019-.482 0-.396 0-1.337.446-1.337 0 0-.446.405-.446 1.337 0 .669.723.669 1.114.669.4 0 2.538-.528 3.202-2.061.669-1.542 5.436-6.404 8.629-6.404.409 0 1.533-2.67 1.533-2.884 0-.932-2.142-2.543-2.142-5.881 0-1.915 4.63-3.603 5.877-3.603 2.279 0 6.55-2.138 6.55-2.138l.719-5.044-5.9-7.437-2.165 1.61" fill="#be4b00"/><path d="M445.667 293.03s-4.08 5.608-8.683 7.796c-1.519.746-3.339 2.67-3.339 3.612 0 3.825 3.339 5.827 3.339 8.947 0 2.802-4.89 7.141-5.658 7.883-.623.61-1.019.796-1.424.796-1.597 0-3.066.482-3.066 1.469 0 0 .801-.182 1.064.086 0 0-1.469 0-1.469 1.597 0 .987.35 1.469.801 1.469.482 0 1.019-.077 1.019-.482 0-.396 0-1.337.446-1.337 0 0-.446.405-.446 1.337 0 .669.723.669 1.114.669.4 0 2.538-.528 3.202-2.061.669-1.542 5.436-6.404 8.629-6.404.409 0 1.533-2.67 1.533-2.884 0-.932-2.142-2.543-2.142-5.881 0-1.915 4.63-3.603 5.877-3.603 2.279 0 6.55-2.138 6.55-2.138l.719-5.044-5.9-7.437-2.165 1.61" stroke="#000" stroke-width=".437" stroke-linecap="round" stroke-linejoin="round" fill="none"/><path d="M429.178 261.104s-.796.396-1.815.396c-3.384 0-5.927-1.151-6.941-1.819-.287-.196-.66-.364-1.196-.769.045-.491.077-.96.077-1.628 0-1.606 1.192-3.875 3.866-5.804 2.67-1.947 5.003-3.871 5.003-7.028 0-1.597.127-5.34.127-6.195 0-2.352-2.484-4.881-3.612-5.29-.928-.314-1.06-.928-2.716-2.188-.537-.405-.623-.405-1.073-.614-.478-.186-3.821-1.465-3.821-3.129 0-1.674.077.405.077-.209 0-.591.273-1.26.273-1.26s-1.069-.923-1.069-1.865c0-.932.055-3.252.405-4.808.123-.614.723-1.019 1.333-1.019 2.802 0 3.784 2.138 6.737 2.138 2.524 0 2.133-1.119 4.485-1.119 2.529 0 6.568 1.337 7.796 1.869 1.551.669 1.815.723 2.22 1.119.396.4 4.085 4.858 6.2 6.764.664.578 1.06 1.728 1.06 3.525 0 1.815-.669 1.947-.669 3.548 0 1.61.273 2.406.273 4.28s-.796 1.465-.796 3.734c0 2.274.61 4.467.61 5.881 0 1.387-.478 6.282-.478 9.215 0 2.948.773 4.671 1.01 5.477 1.788 5.927 3.866 15.684 18.563 23.908 1.61.887 3.798 4.194 5.081 8.606.719 2.484 2.274 6.013 6.6 6.013 4.357 0 7.345-4.458 7.345-8.683 0-2.597-.983-4.808-.983-5.081 0-.264.041-1.383.796-1.383.723 0 2.192 2.192 2.192 6.013 0 8.278-5.531 12.077-9.888 12.077-4.412 0-7.401-3.261-7.401-3.261.032-.405-.068-1.183-.077-1.556-.055-2.242-.937-6.068-.937-6.068s.882 3.825.937 6.068c.132 3.875-2.67 9.702-2.67 11.977 0 .987.205 1.733.537 2.051.337.35 2.802 2.484 3.284 3.02.446.537 1.387 3.129 1.387 4.412 0 1.255-.887 2.67-1.201 4.399-.127.723-1.738.81-2.593 6.15-.405 2.543-.259 3.07-.35 3.734-.055.669-.446.723-.796.855-.318.141-1.26.623-1.656.942-.405.35-.942.746-1.205.932-.264.214-1.073 0-1.073 0s-1.06 1.205-2.133 1.205c-.61 0-1.41-.405-1.41-.723 0-.35-.055-1.283.873-1.733 0 0-.873.45-.873 1.733 0 0-.405.268-.796.268-.405 0-.855-.882-.855-1.292 0-.391.71-1.651 1.783-1.651 0 0-1.783.273-1.924.591 0 0 0-2.133 3.261-2.133h2.347c.537 0 3.398-4.007 3.398-11.499 0-6.809-11.631-8.333-12.077-14.56-.537-7.237-1.337-8.41-6.55-15.01-5.213-6.627-15.356-9.616-18.563-13.437-3.211-3.798-4.899-4.731-6.364-6.878-1.228-1.797-2.584-5.09-3.066-9.711-.559-.409-1.16-.782-1.797-1.051l-7.751-9.752v-3.252l.669.855-.669-1.26v-2.406s1.073.537 1.337 1.128c.273.61-1.415-1.392-1.415-1.392s0-.801.887-.801c.855 0 2.747 2.083 3.657 5.881.482 1.915.482 2.397 1.205 3.198.528.578 2.22 1.979 3.525 2.988.537.405.996.746 1.283.942 1.014.669 3.557 1.819 6.941 1.819 1.019 0 1.815-.396 1.815-.396" fill="#be4b00"/><path d="M429.178 261.104s-.796.396-1.815.396c-3.384 0-5.927-1.151-6.941-1.819-.287-.196-.66-.364-1.196-.769.045-.491.077-.96.077-1.628 0-1.606 1.192-3.875 3.866-5.804 2.67-1.947 5.003-3.871 5.003-7.028 0-1.597.127-5.34.127-6.195 0-2.352-2.484-4.881-3.612-5.29-.928-.314-1.06-.928-2.716-2.188-.537-.405-.623-.405-1.073-.614-.478-.186-3.821-1.465-3.821-3.129 0-1.674.077.405.077-.209 0-.591.273-1.26.273-1.26s-1.069-.923-1.069-1.865c0-.932.055-3.252.405-4.808.123-.614.723-1.019 1.333-1.019 2.802 0 3.784 2.138 6.737 2.138 2.524 0 2.133-1.119 4.485-1.119 2.529 0 6.568 1.337 7.796 1.869 1.551.669 1.815.723 2.22 1.119.396.4 4.085 4.858 6.2 6.764.664.578 1.06 1.728 1.06 3.525 0 1.815-.669 1.947-.669 3.548 0 1.61.273 2.406.273 4.28s-.796 1.465-.796 3.734c0 2.274.61 4.467.61 5.881 0 1.387-.478 6.282-.478 9.215 0 2.948.773 4.671 1.01 5.477 1.788 5.927 3.866 15.684 18.563 23.908 1.61.887 3.798 4.194 5.081 8.606.719 2.484 2.274 6.013 6.6 6.013 4.357 0 7.345-4.458 7.345-8.683 0-2.597-.983-4.808-.983-5.081 0-.264.041-1.383.796-1.383.723 0 2.192 2.192 2.192 6.013 0 8.278-5.531 12.077-9.888 12.077-4.412 0-7.401-3.261-7.401-3.261.032-.405-.068-1.183-.077-1.556-.055-2.242-.937-6.068-.937-6.068s.882 3.825.937 6.068c.132 3.875-2.67 9.702-2.67 11.977 0 .987.205 1.733.537 2.051.337.35 2.802 2.484 3.284 3.02.446.537 1.387 3.129 1.387 4.412 0 1.255-.887 2.67-1.201 4.399-.127.723-1.738.81-2.593 6.15-.405 2.543-.259 3.07-.35 3.734-.055.669-.446.723-.796.855-.318.141-1.26.623-1.656.942-.405.35-.942.746-1.205.932-.264.214-1.073 0-1.073 0s-1.06 1.205-2.133 1.205c-.61 0-1.41-.405-1.41-.723 0-.35-.055-1.283.873-1.733 0 0-.873.45-.873 1.733 0 0-.405.268-.796.268-.405 0-.855-.882-.855-1.292 0-.391.71-1.651 1.783-1.651 0 0-1.783.273-1.924.591 0 0 0-2.133 3.261-2.133h2.347c.537 0 3.398-4.007 3.398-11.499 0-6.809-11.631-8.333-12.077-14.56-.537-7.237-1.337-8.41-6.55-15.01-5.213-6.627-15.356-9.616-18.563-13.437-3.211-3.798-4.899-4.731-6.364-6.878-1.228-1.797-2.584-5.09-3.066-9.711-.559-.409-1.16-.782-1.797-1.051l-7.751-9.752v-3.252l.669.855-.669-1.26v-2.406s1.073.537 1.337 1.128c.273.61-1.415-1.392-1.415-1.392s0-.801.887-.801c.855 0 2.747 2.083 3.657 5.881.482 1.915.482 2.397 1.205 3.198.528.578 2.22 1.979 3.525 2.988.537.405.996.746 1.283.942 1.014.669 3.557 1.819 6.941 1.819 1.019 0 1.815-.396 1.815-.396z" stroke="#000" stroke-width=".437" stroke-linecap="round" stroke-linejoin="round" fill="none"/><path d="M445.667 293.03s-4.08 5.608-8.683 7.796c-1.519.746-3.339 2.67-3.339 3.612 0 2.224 1.128 3.825 2.07 5.39 1.819 0 1.624-1.71 2.293-4.194.664-2.452 2.133-5.258 5.736-6.459 3.612-1.205 4.731-3.289 4.731-3.289l-.637-2.283-2.17-.573" fill="#7e0b00"/><path d="M445.667 293.03s-4.08 5.608-8.683 7.796c-1.519.746-3.339 2.67-3.339 3.612 0 2.224 1.128 3.825 2.07 5.39 1.819 0 1.624-1.71 2.293-4.194.664-2.452 2.133-5.258 5.736-6.459 3.612-1.205 4.731-3.289 4.731-3.289l-.637-2.283-2.17-.573" stroke="#000" stroke-width=".437" stroke-linecap="round" stroke-linejoin="round" fill="none"/><path d="M464.971 320.777c-2.943-4.148-10.576-6.109-10.935-11.135-.541-7.237-1.337-8.41-6.55-15.01-5.213-6.627-15.361-9.616-18.567-13.437-3.207-3.798-4.894-4.726-6.359-6.878-1.228-1.792-2.584-5.085-3.066-9.707-.559-.414-1.151-.787-1.783-1.051l-3.266-4.126s3.252.064 5.39 2.474c2.142 2.397 4.544 2.261 5.745 2.261 1.205 0 5.663-.873 6.145-1.06.455-.218 1.869-.664 2.315-.887.482-.186 1.205-.983 1.61-.983l.537.396s-1.073 2.001-2.67 2.406c-1.61.405-2.675 1.874-2.675 1.874 1.337.127 4.63.587 4.63.587.35-.032.746-.055 1.196-.055 1.519 0 3.12-2.092 3.12-2.092s.405 0 .405 1.337c0 1.333-2.465 2.67-3.612 3.284-1.119.591-2.861 1.201-2.861 3.744 0 3.525 3.744 6.273 6.737 8.474 1.337.987 4.949 2.001 7.16 2.615 2.188.582 2.725 1.392 4.062 5.399 1.337 4.007 2.802 4.753 3.684 4.753.855 0 .855-.405 3.398-.405 2.538 0 3.548 1.665 3.548 2.67 0 4.007-4.885 4.467-4.885 8.683 0 5.486 8.024 7.842 8.024 14.856 0 .537-.482 1.01-.482 1.01" fill="#7e0b00"/><path d="M464.971 320.777c-2.943-4.148-10.576-6.109-10.935-11.135-.541-7.237-1.337-8.41-6.55-15.01-5.213-6.627-15.361-9.616-18.567-13.437-3.207-3.798-4.894-4.726-6.359-6.878-1.228-1.792-2.584-5.085-3.066-9.707-.559-.414-1.151-.787-1.783-1.051l-3.266-4.126s3.252.064 5.39 2.474c2.142 2.397 4.544 2.261 5.745 2.261 1.205 0 5.663-.873 6.145-1.06.455-.218 1.869-.664 2.315-.887.482-.186 1.205-.983 1.61-.983l.537.396s-1.073 2.001-2.67 2.406c-1.61.405-2.675 1.874-2.675 1.874 1.337.127 4.63.587 4.63.587.35-.032.746-.055 1.196-.055 1.519 0 3.12-2.092 3.12-2.092s.405 0 .405 1.337c0 1.333-2.465 2.67-3.612 3.284-1.119.591-2.861 1.201-2.861 3.744 0 3.525 3.744 6.273 6.737 8.474 1.337.987 4.949 2.001 7.16 2.615 2.188.582 2.725 1.392 4.062 5.399 1.337 4.007 2.802 4.753 3.684 4.753.855 0 .855-.405 3.398-.405 2.538 0 3.548 1.665 3.548 2.67 0 4.007-4.885 4.467-4.885 8.683 0 5.486 8.024 7.842 8.024 14.856 0 .537-.482 1.01-.482 1.01h.005zm-47.542-95.216s1.119.459 2.006.723c.855.264 1.337.405 2.001.746.669.328 1.788 1.337 2.452 1.524.669.218 1.683.218 1.683.218m-4.54 24.635s-1.542-.755-1.947-2.333c-1.205-5.072-3.098-8.278-4.194-12.286-.537-1.947-.746-2.224-1.819-2.802-1.073-.614-3.261-2.138-3.261-2.138s-.264-.937-.264-1.333c0 0 .132-.405 1.26-.218l-2.279-.537s.669-.983 1.415-.983c.723 0 1.387.669 1.387.669l-1.597-.942s.35-.264.801-.264c.482 0 1.337.537 2.006 1.337.664.801 2.352 1.683 4.617 4.803 1.26 1.742 1.337 2.061 1.665 3.002.341.932.637 2.434 3.011 5.158 1.792 2.042 1.869 2.802 3.002 3.603 1.146.796 1.333.796 1.333.796m13.841-22.12c0 .482-.086 1.283.523 2.488.596 1.192 2.061 4.135 2.061 5.877 0 1.733-.523 2.584-1.064 3.339-.532.714-1.519 2.402-1.66 2.806-.132.391-.614.578-.878.578s-.855-.041-1.26-.318c-.391-.259-2.265-1.333-2.934-1.815-.669-.45-1.947-2.324-1.947-4.326 0-2.006 1.278-5.081 1.278-6.286 0-2.001-1.014-3.339-1.014-3.339" stroke="#000" stroke-width=".437" stroke-linecap="round" stroke-linejoin="round" fill="none"/><path d="M429.451 224.487c0-.741-.664-2.079-.887-2.265-.182-.218-.983-.746-.983-.746l.259-.455s-.391-.482-.664-.482c-.264 0-1.601.218-1.601 1.283 0 .537.45 1.205.932 1.392.459.214 1.333.082 2.597 1.274h.346m-13.058-2.057c.032-1.083.132-2.497.373-3.548.123-.61.723-1.014 1.333-1.014h.259c.932 0 .855 1.283.855 1.947 0 .664-.983 2.406-2.593 2.406l-.227.209"/><path d="M435.473 266.503c-.864.096-1.474.282-2.101.469-.855.273-7.533 2.006-8.683 2.006-1.114 0-1.728-.669-2.133-1.196-.396-.537-2.397-3.207-4.862-4.226l-7.751-9.757v-3.252l.669.855-.669-1.26v-2.402s1.073.537 1.337 1.124c.273.61-1.415-1.387-1.415-1.387s0-.801.887-.801c.855 0 2.747 2.083 3.657 5.881.482 1.915.482 2.397 1.205 3.198.528.578 2.22 1.974 3.525 2.988.537.4.996.741 1.283.937 1.014.669 3.557 1.819 6.941 1.819 1.019 0 1.815-.396 1.815-.396" stroke="#000" stroke-width=".437" stroke-linecap="round" stroke-linejoin="round" fill="none"/><path d="M419.271 258.247c.023-.287.032-.605.032-.964 0-1.606 1.192-3.875 3.866-5.804 2.665-1.947 4.999-3.871 4.999-7.028 0-1.597.132-5.34.132-6.195 0-1.815-1.492-3.753-2.684-4.717 0 0 .491.041 1.16.041.669 0 1.728 1.392 2.584 2.802.887 1.387 2.224 4.28 2.224 5.799 0 1.547-.264 5.477-.482 6.145-.186.669-1.042 1.096-1.392 2.888-.537 2.861-2.001 6.55-3.207 7.664-1.192 1.151-1.547 1.601-2.079 1.601-.537 0-3.239-1.383-5.154-2.233" fill="#7e0b00"/><path d="M419.271 258.247c.023-.287.032-.605.032-.964 0-1.606 1.192-3.875 3.866-5.804 2.665-1.947 4.999-3.871 4.999-7.028 0-1.597.132-5.34.132-6.195 0-1.815-1.492-3.753-2.684-4.717 0 0 .491.041 1.16.041.669 0 1.728 1.392 2.584 2.802.887 1.387 2.224 4.28 2.224 5.799 0 1.547-.264 5.477-.482 6.145-.186.669-1.042 1.096-1.392 2.888-.537 2.861-2.001 6.55-3.207 7.664-1.192 1.151-1.547 1.601-2.079 1.601-.537 0-3.239-1.383-5.154-2.233z" stroke="#000" stroke-width=".437" stroke-linecap="round" stroke-linejoin="round" fill="none"/><path d="M432.571 324.816c.669-1.542 5.436-6.404 8.629-6.404.409 0 1.533-2.67 1.533-2.888 0-.655-1.083-1.66-1.706-3.38 0 0-.437 3.994-4.303 6.05-3.875 2.088-4.412 4.544-4.412 6.95l.259-.328" fill="#7e0b00"/><path d="M432.571 324.816c.669-1.542 5.436-6.404 8.629-6.404.409 0 1.533-2.67 1.533-2.888 0-.655-1.083-1.66-1.706-3.38 0 0-.437 3.994-4.303 6.05-3.875 2.088-4.412 4.544-4.412 6.95l.259-.328m32.782 13.273c-.25.141-.478.296-.632.414-.405.35-.942.746-1.205.932-.264.218-1.073 0-1.073 0s-1.06 1.205-2.133 1.205c-.61 0-1.41-.405-1.41-.723 0-.35-.055-1.283.873-1.733 0 0-.873.45-.873 1.733 0 0-.405.273-.796.273-.405 0-.855-.887-.855-1.292 0-.396.705-1.656 1.783-1.656 0 0-1.783.277-1.924.591 0 0 0-2.133 3.261-2.133h2.347c.537 0 3.398-4.007 3.398-11.499 0-6.809-11.631-8.333-12.077-14.56-.537-7.237-1.337-8.41-6.55-15.01-5.213-6.627-15.356-9.616-18.563-13.437-3.211-3.798-4.899-4.726-6.364-6.878-1.228-1.792-2.584-5.085-3.066-9.707-.559-.414-1.16-.787-1.797-1.051l-7.751-9.757v-3.252l.669.855-.669-1.26v-2.406s1.073.537 1.337 1.128c.273.61-1.415-1.392-1.415-1.392s0-.796.887-.796c.855 0 2.747 2.079 3.657 5.877.482 1.915.482 2.397 1.205 3.198.528.578 2.22 1.979 3.525 2.988.537.405.996.746 1.283.942 1.014.669 3.557 1.819 6.941 1.819 1.019 0 1.815-.396 1.815-.396" stroke="#000" stroke-width=".437" stroke-linecap="round" stroke-linejoin="round" fill="none"/><path d="M468.323 316.474c.691.623 1.378 1.269 1.61 1.533.441.537 1.383 3.129 1.383 4.412 0 1.26-.882 2.67-1.196 4.403-.132.723-1.742.81-2.597 6.145-.405 2.543-.259 3.07-.35 3.734-.055.669-.446.723-.796.855-.2.086-.628.305-1.023.528 0 0 1.242-2.575 1.242-4.053v-3.543c0-3.525 2.802-4.544 2.802-8.342 0-2.397-1.469-3.603-1.469-4.403 0-.801.45-1.019.45-1.019l-.055-.25" fill="#7e0b00"/><path d="M468.323 316.474c.691.623 1.378 1.269 1.61 1.533.441.537 1.383 3.129 1.383 4.412 0 1.26-.882 2.67-1.196 4.403-.132.723-1.742.81-2.597 6.145-.405 2.543-.259 3.07-.35 3.734-.055.669-.446.723-.796.855-.2.086-.628.305-1.023.528 0 0 1.242-2.575 1.242-4.053v-3.543c0-3.525 2.802-4.544 2.802-8.342 0-2.397-1.469-3.603-1.469-4.403 0-.801.45-1.019.45-1.019l-.055-.25" stroke="#000" stroke-width=".437" stroke-linecap="round" stroke-linejoin="round" fill="none"/><path d="M445.931 241.645s-4.935 1.556-8.201 1.556c-5.417 0-9.479-1.869-9.479-1.869s-.218 4.139-.218 4.399c0 .273 2.943 2.279 9.698 2.279 4.339 0 7.937-1.61 7.937-1.61s-.018-1.41-.127-2.133c-.186-1.547.391-2.62.391-2.62" fill="#e6e6e6"/><path d="M445.931 241.645s-4.935 1.556-8.201 1.556c-5.417 0-9.479-1.869-9.479-1.869s-.218 4.139-.218 4.399c0 .273 2.943 2.279 9.698 2.279 4.339 0 7.937-1.61 7.937-1.61s-.018-1.41-.127-2.133c-.186-1.547.391-2.62.391-2.62z" stroke="#000" stroke-width=".437" stroke-linecap="round" stroke-linejoin="round" fill="none"/><path d="M440.431 245.243c0-.6.487-1.083 1.083-1.083.6 0 1.083.482 1.083 1.083 0 .596-.482 1.078-1.083 1.078-.596 0-1.083-.482-1.083-1.078" fill="#fff"/><path d="M440.431 245.243c0-.6.487-1.083 1.083-1.083.6 0 1.083.482 1.083 1.083 0 .596-.482 1.078-1.083 1.078-.596 0-1.083-.482-1.083-1.078z" stroke="#000" stroke-width=".437" stroke-linecap="round" stroke-linejoin="round" fill="none"/><path d="M435.009 245.561c0-.596.482-1.083 1.083-1.083.591 0 1.078.487 1.078 1.083s-.487 1.083-1.078 1.083c-.6 0-1.083-.487-1.083-1.083" fill="#fff"/><path d="M435.009 245.561c0-.596.482-1.083 1.083-1.083.591 0 1.078.487 1.078 1.083s-.487 1.083-1.078 1.083c-.6 0-1.083-.487-1.083-1.083z" stroke="#000" stroke-width=".437" stroke-linecap="round" stroke-linejoin="round" fill="none"/><path d="M430.01 244.974c0-.6.487-1.083 1.083-1.083.6 0 1.083.482 1.083 1.083 0 .596-.482 1.083-1.083 1.083-.596 0-1.083-.487-1.083-1.083" fill="#fff"/><path d="M430.01 244.974c0-.6.487-1.083 1.083-1.083.6 0 1.083.482 1.083 1.083 0 .596-.482 1.083-1.083 1.083-.596 0-1.083-.487-1.083-1.083z" stroke="#000" stroke-width=".437" stroke-linecap="round" stroke-linejoin="round" fill="none"/><path d="M445.376 245.447c.61 0 1.092-.482 1.092-1.073 0-.614-.482-1.096-1.092-1.096" fill="#fff"/><path d="M445.376 245.447c.61 0 1.092-.482 1.092-1.073 0-.614-.482-1.096-1.092-1.096" stroke="#000" stroke-width=".437" stroke-linecap="round" stroke-linejoin="round" fill="none"/><path d="M428.009 242.686c-.591 0-1.073.482-1.073 1.073 0 .614.482 1.096 1.073 1.096" fill="#fff"/><path d="M428.009 242.686c-.591 0-1.073.482-1.073 1.073 0 .614.482 1.096 1.073 1.096" stroke="#000" stroke-width=".437" stroke-linecap="round" stroke-linejoin="round" fill="none"/><path d="M317.782 251.784l3.589 1.624s1.547-.755 1.951-2.333c1.205-5.072 3.098-8.278 4.189-12.286.537-1.947.746-2.224 1.819-2.802 1.069-.614 3.261-2.138 3.261-2.138s.259-.937.259-1.333c0 0-.127-.405-1.255-.218l2.274-.537s-.664-.983-1.41-.983c-.723 0-1.392.669-1.392.669l1.601-.942s-.355-.264-.796-.264c-.482 0-1.337.537-2.006 1.337-.669.801-2.352 1.683-4.621 4.803-1.255 1.742-1.333 2.061-1.66 3.002-.341.932-.637 2.434-3.011 5.158-1.797 2.042-1.874 2.802-3.002 3.603-1.151.796-1.337.796-1.337.796l1.547 2.843" fill="#be4b00"/><path d="M317.782 251.784l3.589 1.624s1.547-.755 1.951-2.333c1.205-5.072 3.098-8.278 4.189-12.286.537-1.947.746-2.224 1.819-2.802 1.069-.614 3.261-2.138 3.261-2.138s.259-.937.259-1.333c0 0-.127-.405-1.255-.218l2.274-.537s-.664-.983-1.41-.983c-.723 0-1.392.669-1.392.669l1.601-.942s-.355-.264-.796-.264c-.482 0-1.337.537-2.006 1.337-.669.801-2.352 1.683-4.621 4.803-1.255 1.742-1.333 2.061-1.66 3.002-.341.932-.637 2.434-3.011 5.158-1.797 2.042-1.874 2.802-3.002 3.603-1.151.796-1.337.796-1.337.796l1.547 2.843" stroke="#000" stroke-width=".437" stroke-linecap="round" stroke-linejoin="round" fill="none"/><path d="M319.556 253.089l1.815.318s1.547-.755 1.951-2.333c1.205-5.072 3.098-8.278 4.194-12.286l-.987.405c-.669 0-2.133 3.866-2.67 4.994-.537 1.151-.887 1.597-2.006 3.152-1.151 1.524-2.352 4.271-2.352 4.271l.055 1.478" fill="#7e0b00"/><path d="M319.556 253.089l1.815.318s1.547-.755 1.951-2.333c1.205-5.072 3.098-8.278 4.194-12.286l-.987.405c-.669 0-2.133 3.866-2.67 4.994-.537 1.151-.887 1.597-2.006 3.152-1.151 1.524-2.352 4.271-2.352 4.271l.055 1.478" stroke="#000" stroke-width=".437" stroke-linecap="round" stroke-linejoin="round" fill="none"/><path d="M296.736 293.03s4.085 5.608 8.683 7.796c1.524.746 3.339 2.67 3.339 3.612 0 3.825-3.339 5.827-3.339 8.947 0 2.802 4.894 7.141 5.663 7.883.623.61 1.019.796 1.424.796 1.597 0 3.066.482 3.066 1.469 0 0-.801-.182-1.064.086 0 0 1.469 0 1.469 1.597 0 .987-.35 1.469-.801 1.469-.482 0-1.019-.077-1.019-.482 0-.396 0-1.337-.45-1.337 0 0 .45.405.45 1.337 0 .669-.723.669-1.114.669-.405 0-2.543-.528-3.211-2.061-.669-1.542-5.431-6.404-8.624-6.404-.409 0-1.537-2.67-1.537-2.884 0-.932 2.147-2.543 2.147-5.881 0-1.915-4.63-3.603-5.877-3.603-2.279 0-6.55-2.138-6.55-2.138l-.723-5.044 5.904-7.437 2.165 1.61" fill="#be4b00"/><path d="M296.736 293.03s4.085 5.608 8.683 7.796c1.524.746 3.339 2.67 3.339 3.612 0 3.825-3.339 5.827-3.339 8.947 0 2.802 4.894 7.141 5.663 7.883.623.61 1.019.796 1.424.796 1.597 0 3.066.482 3.066 1.469 0 0-.801-.182-1.064.086 0 0 1.469 0 1.469 1.597 0 .987-.35 1.469-.801 1.469-.482 0-1.019-.077-1.019-.482 0-.396 0-1.337-.45-1.337 0 0 .45.405.45 1.337 0 .669-.723.669-1.114.669-.405 0-2.543-.528-3.211-2.061-.669-1.542-5.431-6.404-8.624-6.404-.409 0-1.537-2.67-1.537-2.884 0-.932 2.147-2.543 2.147-5.881 0-1.915-4.63-3.603-5.877-3.603-2.279 0-6.55-2.138-6.55-2.138l-.723-5.044 5.904-7.437 2.165 1.61" stroke="#000" stroke-width=".437" stroke-linecap="round" stroke-linejoin="round" fill="none"/><path d="M313.225 261.104s.801.396 1.819.396c3.384 0 5.922-1.151 6.941-1.819.287-.196.655-.364 1.192-.769-.041-.491-.073-.96-.073-1.628 0-1.606-1.196-3.875-3.866-5.804-2.67-1.947-5.003-3.871-5.003-7.028 0-1.597-.132-5.34-.132-6.195 0-2.352 2.484-4.881 3.612-5.29.932-.314 1.064-.928 2.72-2.188.532-.405.623-.405 1.069-.614.482-.186 3.821-1.465 3.821-3.129 0-1.674-.077.405-.077-.209 0-.591-.273-1.26-.273-1.26s1.073-.923 1.073-1.865c0-.932-.055-3.252-.405-4.808-.132-.614-.723-1.019-1.337-1.019-2.802 0-3.784 2.138-6.732 2.138-2.529 0-2.133-1.119-4.489-1.119-2.529 0-6.564 1.337-7.792 1.869-1.556.669-1.815.723-2.22 1.119-.396.4-4.085 4.858-6.2 6.764-.669.578-1.06 1.728-1.06 3.525 0 1.815.669 1.947.669 3.548 0 1.61-.277 2.406-.277 4.28s.801 1.465.801 3.734c0 2.274-.614 4.467-.614 5.881 0 1.387.482 6.282.482 9.215 0 2.948-.778 4.671-1.019 5.477-1.783 5.927-3.862 15.684-18.558 23.908-1.606.887-3.798 4.194-5.076 8.606-.723 2.484-2.274 6.013-6.6 6.013-4.358 0-7.346-4.458-7.346-8.683 0-2.597.978-4.808.978-5.081 0-.264-.036-1.383-.796-1.383-.719 0-2.188 2.192-2.188 6.013 0 8.278 5.527 12.077 9.889 12.077 4.408 0 7.396-3.261 7.396-3.261-.027-.405.064-1.183.077-1.556.055-2.242.942-6.068.942-6.068s-.887 3.825-.942 6.068c-.132 3.875 2.67 9.702 2.67 11.977 0 .987-.209 1.733-.537 2.051-.341.35-2.802 2.484-3.284 3.02-.45.537-1.387 3.129-1.387 4.412 0 1.255.882 2.67 1.201 4.399.132.723 1.742.81 2.597 6.15.405 2.543.259 3.07.35 3.734.055.669.446.723.796.855.318.141 1.26.623 1.656.942.405.35.937.746 1.205.932.259.214 1.069 0 1.069 0s1.06 1.205 2.133 1.205c.614 0 1.41-.405 1.41-.723 0-.35.055-1.283-.873-1.733 0 0 .873.45.873 1.733 0 0 .405.268.801.268.405 0 .855-.882.855-1.292 0-.391-.71-1.651-1.783-1.651 0 0 1.783.273 1.924.591 0 0 0-2.133-3.261-2.133h-2.356c-.532 0-3.393-4.007-3.393-11.499 0-6.809 11.626-8.333 12.077-14.56.537-7.237 1.337-8.41 6.55-15.01 5.213-6.627 15.361-9.616 18.567-13.437 3.207-3.798 4.894-4.731 6.364-6.878 1.224-1.797 2.584-5.09 3.066-9.711.559-.409 1.16-.782 1.797-1.051l7.746-9.752v-3.252l-.669.855.669-1.26v-2.406s-1.069.537-1.337 1.128c-.268.61 1.415-1.392 1.415-1.392s0-.801-.887-.801c-.855 0-2.743 2.083-3.657 5.881-.482 1.915-.482 2.397-1.201 3.198-.528.578-2.224 1.979-3.525 2.988-.537.405-.996.746-1.283.942-1.019.669-3.557 1.819-6.941 1.819-1.019 0-1.819-.396-1.819-.396" fill="#be4b00"/><path d="M313.225 261.104s.801.396 1.819.396c3.384 0 5.922-1.151 6.941-1.819.287-.196.655-.364 1.192-.769-.041-.491-.073-.96-.073-1.628 0-1.606-1.196-3.875-3.866-5.804-2.67-1.947-5.003-3.871-5.003-7.028 0-1.597-.132-5.34-.132-6.195 0-2.352 2.484-4.881 3.612-5.29.932-.314 1.064-.928 2.72-2.188.532-.405.623-.405 1.069-.614.482-.186 3.821-1.465 3.821-3.129 0-1.674-.077.405-.077-.209 0-.591-.273-1.26-.273-1.26s1.073-.923 1.073-1.865c0-.932-.055-3.252-.405-4.808-.132-.614-.723-1.019-1.337-1.019-2.802 0-3.784 2.138-6.732 2.138-2.529 0-2.133-1.119-4.489-1.119-2.529 0-6.564 1.337-7.792 1.869-1.556.669-1.815.723-2.22 1.119-.396.4-4.085 4.858-6.2 6.764-.669.578-1.06 1.728-1.06 3.525 0 1.815.669 1.947.669 3.548 0 1.61-.277 2.406-.277 4.28s.801 1.465.801 3.734c0 2.274-.614 4.467-.614 5.881 0 1.387.482 6.282.482 9.215 0 2.948-.778 4.671-1.019 5.477-1.783 5.927-3.862 15.684-18.558 23.908-1.606.887-3.798 4.194-5.076 8.606-.723 2.484-2.274 6.013-6.6 6.013-4.358 0-7.346-4.458-7.346-8.683 0-2.597.978-4.808.978-5.081 0-.264-.036-1.383-.796-1.383-.719 0-2.188 2.192-2.188 6.013 0 8.278 5.527 12.077 9.889 12.077 4.408 0 7.396-3.261 7.396-3.261-.027-.405.064-1.183.077-1.556.055-2.242.942-6.068.942-6.068s-.887 3.825-.942 6.068c-.132 3.875 2.67 9.702 2.67 11.977 0 .987-.209 1.733-.537 2.051-.341.35-2.802 2.484-3.284 3.02-.45.537-1.387 3.129-1.387 4.412 0 1.255.882 2.67 1.201 4.399.132.723 1.742.81 2.597 6.15.405 2.543.259 3.07.35 3.734.055.669.446.723.796.855.318.141 1.26.623 1.656.942.405.35.937.746 1.205.932.259.214 1.069 0 1.069 0s1.06 1.205 2.133 1.205c.614 0 1.41-.405 1.41-.723 0-.35.055-1.283-.873-1.733 0 0 .873.45.873 1.733 0 0 .405.268.801.268.405 0 .855-.882.855-1.292 0-.391-.71-1.651-1.783-1.651 0 0 1.783.273 1.924.591 0 0 0-2.133-3.261-2.133h-2.356c-.532 0-3.393-4.007-3.393-11.499 0-6.809 11.626-8.333 12.077-14.56.537-7.237 1.337-8.41 6.55-15.01 5.213-6.627 15.361-9.616 18.567-13.437 3.207-3.798 4.894-4.731 6.364-6.878 1.224-1.797 2.584-5.09 3.066-9.711.559-.409 1.16-.782 1.797-1.051l7.746-9.752v-3.252l-.669.855.669-1.26v-2.406s-1.069.537-1.337 1.128c-.268.61 1.415-1.392 1.415-1.392s0-.801-.887-.801c-.855 0-2.743 2.083-3.657 5.881-.482 1.915-.482 2.397-1.201 3.198-.528.578-2.224 1.979-3.525 2.988-.537.405-.996.746-1.283.942-1.019.669-3.557 1.819-6.941 1.819-1.019 0-1.819-.396-1.819-.396z" stroke="#000" stroke-width=".437" stroke-linecap="round" stroke-linejoin="round" fill="none"/><path d="M296.736 293.03s4.085 5.608 8.683 7.796c1.524.746 3.339 2.67 3.339 3.612 0 2.224-1.128 3.825-2.07 5.39-1.815 0-1.619-1.71-2.288-4.194-.669-2.452-2.133-5.258-5.736-6.459-3.616-1.205-4.731-3.289-4.731-3.289l.637-2.283 2.165-.573" fill="#7e0b00"/><path d="M296.736 293.03s4.085 5.608 8.683 7.796c1.524.746 3.339 2.67 3.339 3.612 0 2.224-1.128 3.825-2.07 5.39-1.815 0-1.619-1.71-2.288-4.194-.669-2.452-2.133-5.258-5.736-6.459-3.616-1.205-4.731-3.289-4.731-3.289l.637-2.283 2.165-.573" stroke="#000" stroke-width=".437" stroke-linecap="round" stroke-linejoin="round" fill="none"/><path d="M277.432 320.777c2.948-4.148 10.58-6.109 10.939-11.135.537-7.237 1.337-8.41 6.55-15.01 5.213-6.627 15.361-9.616 18.567-13.437 3.202-3.798 4.89-4.726 6.359-6.878 1.224-1.792 2.584-5.085 3.066-9.707.559-.414 1.151-.787 1.783-1.051l3.266-4.126s-3.252.064-5.39 2.474c-2.142 2.397-4.544 2.261-5.745 2.261-1.205 0-5.663-.873-6.145-1.06-.459-.218-1.874-.664-2.315-.887-.482-.186-1.205-.983-1.61-.983l-.537.396s1.073 2.001 2.67 2.406c1.61.405 2.675 1.874 2.675 1.874-1.337.127-4.635.587-4.635.587-.346-.032-.741-.055-1.192-.055-1.524 0-3.12-2.092-3.12-2.092s-.405 0-.405 1.337c0 1.333 2.465 2.67 3.612 3.284 1.119.591 2.857 1.201 2.857 3.744 0 3.525-3.744 6.273-6.732 8.474-1.337.987-4.949 2.001-7.16 2.615-2.192.582-2.724 1.392-4.062 5.399-1.337 4.007-2.806 4.753-3.684 4.753-.855 0-.855-.405-3.398-.405-2.538 0-3.548 1.665-3.548 2.67 0 4.007 4.885 4.467 4.885 8.683 0 5.486-8.024 7.842-8.024 14.856 0 .537.478 1.01.478 1.01" fill="#7e0b00"/><path d="M277.432 320.777c2.948-4.148 10.58-6.109 10.939-11.135.537-7.237 1.337-8.41 6.55-15.01 5.213-6.627 15.361-9.616 18.567-13.437 3.202-3.798 4.89-4.726 6.359-6.878 1.224-1.792 2.584-5.085 3.066-9.707.559-.414 1.151-.787 1.783-1.051l3.266-4.126s-3.252.064-5.39 2.474c-2.142 2.397-4.544 2.261-5.745 2.261-1.205 0-5.663-.873-6.145-1.06-.459-.218-1.874-.664-2.315-.887-.482-.186-1.205-.983-1.61-.983l-.537.396s1.073 2.001 2.67 2.406c1.61.405 2.675 1.874 2.675 1.874-1.337.127-4.635.587-4.635.587-.346-.032-.741-.055-1.192-.055-1.524 0-3.12-2.092-3.12-2.092s-.405 0-.405 1.337c0 1.333 2.465 2.67 3.612 3.284 1.119.591 2.857 1.201 2.857 3.744 0 3.525-3.744 6.273-6.732 8.474-1.337.987-4.949 2.001-7.16 2.615-2.192.582-2.724 1.392-4.062 5.399-1.337 4.007-2.806 4.753-3.684 4.753-.855 0-.855-.405-3.398-.405-2.538 0-3.548 1.665-3.548 2.67 0 4.007 4.885 4.467 4.885 8.683 0 5.486-8.024 7.842-8.024 14.856 0 .537.478 1.01.478 1.01h-.005zm47.542-95.216s-1.114.459-2.001.723c-.855.264-1.337.405-2.006.746-.669.328-1.783 1.337-2.452 1.524-.669.218-1.683.218-1.683.218m4.54 24.635s1.547-.755 1.951-2.333c1.205-5.072 3.098-8.278 4.194-12.286.537-1.947.746-2.224 1.819-2.802 1.069-.614 3.257-2.138 3.257-2.138s.259-.937.259-1.333c0 0-.127-.405-1.255-.218l2.274-.537s-.664-.983-1.406-.983c-.723 0-1.392.669-1.392.669l1.601-.942s-.355-.264-.801-.264c-.482 0-1.337.537-2.006 1.337-.669.801-2.352 1.683-4.621 4.803-1.255 1.742-1.333 2.061-1.66 3.002-.341.932-.637 2.434-3.011 5.158-1.797 2.042-1.874 2.802-3.002 3.603-1.151.796-1.337.796-1.337.796m-13.837-22.12c0 .482.086 1.283-.528 2.488-.591 1.192-2.056 4.135-2.056 5.877 0 1.733.523 2.584 1.06 3.339.537.714 1.524 2.402 1.665 2.806.132.391.614.578.878.578s.846-.041 1.255-.318c.391-.259 2.265-1.333 2.934-1.815.669-.45 1.947-2.324 1.947-4.326 0-2.006-1.278-5.081-1.278-6.286 0-2.001 1.014-3.339 1.014-3.339" stroke="#000" stroke-width=".437" stroke-linecap="round" stroke-linejoin="round" fill="none"/><path d="M312.952 224.487c0-.741.669-2.079.887-2.265.182-.218.983-.746.983-.746l-.259-.455s.396-.482.669-.482c.259 0 1.597.218 1.597 1.283 0 .537-.45 1.205-.928 1.392-.459.214-1.337.082-2.597 1.274h-.35m13.061-2.057c-.032-1.083-.132-2.497-.373-3.548-.132-.61-.723-1.014-1.337-1.014h-.259c-.932 0-.855 1.283-.855 1.947 0 .664.987 2.406 2.597 2.406l.227.209"/><path d="M306.929 266.503c.864.096 1.478.282 2.106.469.851.273 7.533 2.006 8.679 2.006 1.119 0 1.733-.669 2.138-1.196.391-.537 2.397-3.207 4.862-4.226l7.746-9.757v-3.252l-.669.855.669-1.26v-2.402s-1.069.537-1.337 1.124c-.268.61 1.415-1.387 1.415-1.387s0-.801-.887-.801c-.855 0-2.743 2.083-3.657 5.881-.482 1.915-.482 2.397-1.201 3.198-.528.578-2.224 1.974-3.525 2.988-.537.4-.996.741-1.283.937-1.019.669-3.557 1.819-6.941 1.819-1.019 0-1.819-.396-1.819-.396" stroke="#000" stroke-width=".437" stroke-linecap="round" stroke-linejoin="round" fill="none"/><path d="M323.136 258.247c-.023-.287-.032-.605-.032-.964 0-1.606-1.196-3.875-3.866-5.804-2.67-1.947-5.003-3.871-5.003-7.028 0-1.597-.132-5.34-.132-6.195 0-1.815 1.487-3.753 2.684-4.717 0 0-.496.041-1.16.041-.669 0-1.728 1.392-2.579 2.802-.887 1.387-2.224 4.28-2.224 5.799 0 1.547.264 5.477.482 6.145.186.669 1.042 1.096 1.392 2.888.532 2.861 2.001 6.55 3.207 7.664 1.187 1.151 1.537 1.601 2.074 1.601.537 0 3.243-1.383 5.158-2.233" fill="#7e0b00"/><path d="M323.136 258.247c-.023-.287-.032-.605-.032-.964 0-1.606-1.196-3.875-3.866-5.804-2.67-1.947-5.003-3.871-5.003-7.028 0-1.597-.132-5.34-.132-6.195 0-1.815 1.487-3.753 2.684-4.717 0 0-.496.041-1.16.041-.669 0-1.728 1.392-2.579 2.802-.887 1.387-2.224 4.28-2.224 5.799 0 1.547.264 5.477.482 6.145.186.669 1.042 1.096 1.392 2.888.532 2.861 2.001 6.55 3.207 7.664 1.187 1.151 1.537 1.601 2.074 1.601.537 0 3.243-1.383 5.158-2.233z" stroke="#000" stroke-width=".437" stroke-linecap="round" stroke-linejoin="round" fill="none"/><path d="M309.831 324.816c-.669-1.542-5.431-6.404-8.624-6.404-.409 0-1.537-2.67-1.537-2.888 0-.655 1.087-1.66 1.71-3.38 0 0 .437 3.994 4.303 6.05 3.871 2.088 4.412 4.544 4.412 6.95l-.264-.328" fill="#7e0b00"/><path d="M309.831 324.816c-.669-1.542-5.431-6.404-8.624-6.404-.409 0-1.537-2.67-1.537-2.888 0-.655 1.087-1.66 1.71-3.38 0 0 .437 3.994 4.303 6.05 3.871 2.088 4.412 4.544 4.412 6.95l-.264-.328m-32.781 13.273c.255.141.482.296.637.414.405.35.937.746 1.205.932.259.218 1.069 0 1.069 0s1.06 1.205 2.133 1.205c.614 0 1.41-.405 1.41-.723 0-.35.055-1.283-.873-1.733 0 0 .873.45.873 1.733 0 0 .405.273.801.273.405 0 .855-.887.855-1.292 0-.396-.71-1.656-1.783-1.656 0 0 1.783.277 1.924.591 0 0 0-2.133-3.261-2.133h-2.356c-.532 0-3.389-4.007-3.389-11.499 0-6.809 11.622-8.333 12.072-14.56.537-7.237 1.337-8.41 6.55-15.01 5.213-6.627 15.361-9.616 18.567-13.437 3.207-3.798 4.894-4.726 6.364-6.878 1.224-1.792 2.584-5.085 3.066-9.707.559-.414 1.16-.787 1.797-1.051l7.746-9.757v-3.252l-.669.855.669-1.26v-2.406s-1.069.537-1.337 1.128c-.268.61 1.415-1.392 1.415-1.392s0-.796-.887-.796c-.855 0-2.743 2.079-3.657 5.877-.478 1.915-.478 2.397-1.201 3.198-.528.578-2.224 1.979-3.525 2.988-.537.405-.996.746-1.283.942-1.019.669-3.557 1.819-6.941 1.819-1.019 0-1.819-.396-1.819-.396" stroke="#000" stroke-width=".437" stroke-linecap="round" stroke-linejoin="round" fill="none"/><path d="M274.084 316.474c-.691.623-1.378 1.269-1.61 1.533-.45.537-1.387 3.129-1.387 4.412 0 1.26.882 2.67 1.201 4.403.132.723 1.742.81 2.597 6.145.405 2.543.259 3.07.35 3.734.055.669.446.723.796.855.2.086.628.305 1.019.528 0 0-1.237-2.575-1.237-4.053v-3.543c0-3.525-2.802-4.544-2.802-8.342 0-2.397 1.469-3.603 1.469-4.403 0-.801-.45-1.019-.45-1.019l.055-.25" fill="#7e0b00"/><path d="M274.084 316.474c-.691.623-1.378 1.269-1.61 1.533-.45.537-1.387 3.129-1.387 4.412 0 1.26.882 2.67 1.201 4.403.132.723 1.742.81 2.597 6.145.405 2.543.259 3.07.35 3.734.055.669.446.723.796.855.2.086.628.305 1.019.528 0 0-1.237-2.575-1.237-4.053v-3.543c0-3.525-2.802-4.544-2.802-8.342 0-2.397 1.469-3.603 1.469-4.403 0-.801-.45-1.019-.45-1.019l.055-.25" stroke="#000" stroke-width=".437" stroke-linecap="round" stroke-linejoin="round" fill="none"/><path d="M296.477 241.645s4.935 1.556 8.201 1.556c5.417 0 9.479-1.869 9.479-1.869s.218 4.139.218 4.399c0 .273-2.943 2.279-9.698 2.279-4.339 0-7.942-1.61-7.942-1.61s.023-1.41.132-2.133c.186-1.547-.391-2.62-.391-2.62" fill="#e6e6e6"/><path d="M296.477 241.645s4.935 1.556 8.201 1.556c5.417 0 9.479-1.869 9.479-1.869s.218 4.139.218 4.399c0 .273-2.943 2.279-9.698 2.279-4.339 0-7.942-1.61-7.942-1.61s.023-1.41.132-2.133c.186-1.547-.391-2.62-.391-2.62z" stroke="#000" stroke-width=".437" stroke-linecap="round" stroke-linejoin="round" fill="none"/><path d="M299.811 245.243c0-.6.482-1.083 1.083-1.083.596 0 1.083.482 1.083 1.083 0 .596-.487 1.078-1.083 1.078-.6 0-1.083-.482-1.083-1.078" fill="#fff"/><path d="M299.811 245.243c0-.6.482-1.083 1.083-1.083.596 0 1.083.482 1.083 1.083 0 .596-.487 1.078-1.083 1.078-.6 0-1.083-.482-1.083-1.078z" stroke="#000" stroke-width=".437" stroke-linecap="round" stroke-linejoin="round" fill="none"/><path d="M305.233 245.561c0-.596.487-1.083 1.083-1.083.591 0 1.078.487 1.078 1.083s-.487 1.083-1.078 1.083c-.596 0-1.083-.487-1.083-1.083" fill="#fff"/><path d="M305.233 245.561c0-.596.487-1.083 1.083-1.083.591 0 1.078.487 1.078 1.083s-.487 1.083-1.078 1.083c-.596 0-1.083-.487-1.083-1.083z" stroke="#000" stroke-width=".437" stroke-linecap="round" stroke-linejoin="round" fill="none"/><path d="M310.232 244.974c0-.6.482-1.083 1.078-1.083.6 0 1.083.482 1.083 1.083 0 .596-.482 1.083-1.083 1.083-.596 0-1.078-.487-1.078-1.083" fill="#fff"/><path d="M310.232 244.974c0-.6.482-1.083 1.078-1.083.6 0 1.083.482 1.083 1.083 0 .596-.482 1.083-1.083 1.083-.596 0-1.078-.487-1.078-1.083z" stroke="#000" stroke-width=".437" stroke-linecap="round" stroke-linejoin="round" fill="none"/><path d="M297.032 245.447c-.614 0-1.092-.482-1.092-1.073 0-.614.478-1.096 1.092-1.096" fill="#fff"/><path d="M297.032 245.447c-.614 0-1.092-.482-1.092-1.073 0-.614.478-1.096 1.092-1.096" stroke="#000" stroke-width=".437" stroke-linecap="round" stroke-linejoin="round" fill="none"/><path d="M314.398 242.686c.591 0 1.073.482 1.073 1.073 0 .614-.482 1.096-1.073 1.096" fill="#fff"/><path d="M314.398 242.686c.591 0 1.073.482 1.073 1.073 0 .614-.482 1.096-1.073 1.096" stroke="#000" stroke-width=".437" stroke-linecap="round" stroke-linejoin="round" fill="none"/><path d="M371.201 216.004s1.469 2.079 3.935 2.079c2.484 0 3.953-1.556 3.953-1.556s1.783 2.092 4.189 2.092c2.411 0 3.953-1.61 3.953-1.61s1.669 2.729 4.603 2.729c2.206 0 3.07-.723 3.07-.723s.873 2.802 3.011 2.802c3.666 0 6.282-8.497 10.553-8.497 2.138 0 2.597 1.151 2.597 1.151s-.318-4.271-3.339-4.271c-.855 0-2.061.537-2.061.537s-.259-.942-.537-1.278c0 0-1.465.741-1.947 3.73 0 0-1.524-1.869-2.806-2.001 0 0-.405.537-.314.796 0 0-1.146.091-2.538 1.019 0 0 .182 1.128 1.337 2.279 0 0-.132.801.055 1.192 0 0 1.592-.259 2.393.186 0 0-1.337 2.279-2.584 2.279-1.287 0-2.479-.537-2.665-1.929l-1.073-.391s-1.073 1.246-2.62 1.246c-1.387 0-3.525-.987-3.525-3.471l.132-1.073s1.392 1.874 4.062 1.61l.205-.723s1.665-.077 2.67-1.283c0 0-.205-.851-1.406-1.869l-.186-1.469s-1.469-.591-2.948-.314c0 0 .869-1.023 1.128-2.411 0 0-.796-.482-1.128-.405-.337.055-.205-2.393-1.41-2.615-1.205-.182-2.006 1.738-2.006 1.738s-.723-.268-1.06-.182c-.328.055-.459 2.192-.055 3.061 0 0-.81-.923-2.893-.923l-.132.978s-1.519.218-2.402 1.205c0 0 .669 1.469 1.738 2.265l-.055.887s.928.669 3.93.405c0 0-.328 3.384-3.211 3.384-2.857 0-3.871-2.802-3.871-2.802l-1.073-.264s-.578 2.397-3.339 2.397c-2.716 0-3.525-2.529-3.525-3.252 0-.755.186-1.014.186-1.014s2.279 1.014 3.875.61l.346-1.06s1.601-.755 2.32-1.61c0 0-.182-1.019-2.188-2.079l.273-.723s-1.96-.796-3.48-.127c0 0 .855-1.874.855-2.893l-1.119-.259s-.127-1.624-1.874-2.816c-1.733 1.192-1.865 2.816-1.865 2.816l-1.119.259c0 1.014.855 2.893.855 2.893-1.524-.669-3.484.127-3.484.127l.277.723c-2.006 1.06-2.192 2.079-2.192 2.079.723.855 2.324 1.61 2.324 1.61l.35 1.06c1.592.405 3.871-.61 3.871-.61s.186.259.186 1.014c0 .723-.81 3.252-3.525 3.252-2.761 0-3.343-2.397-3.343-2.397l-1.069.264s-1.014 2.802-3.875 2.802c-2.879 0-3.207-3.384-3.207-3.384 3.002.264 3.93-.405 3.93-.405l-.055-.887c1.073-.796 1.742-2.265 1.742-2.265-.887-.987-2.411-1.205-2.411-1.205l-.132-.978c-2.079 0-2.888.923-2.888.923.405-.869.273-3.007-.055-3.061-.341-.086-1.06.182-1.06.182s-.796-1.924-2.006-1.738c-1.201.218-1.069 2.67-1.41 2.615-.328-.073-1.124.405-1.124.405.259 1.387 1.124 2.411 1.124 2.411-1.478-.277-2.943.314-2.943.314l-.186 1.469c-1.205 1.019-1.415 1.869-1.415 1.869 1.01 1.205 2.675 1.283 2.675 1.283l.205.723c2.675.264 4.066-1.61 4.066-1.61l.127 1.073c0 2.484-2.133 3.471-3.521 3.471-1.547 0-2.62-1.246-2.62-1.246l-1.073.391c-.186 1.392-1.378 1.929-2.67 1.929-1.251 0-2.584-2.279-2.584-2.279.796-.446 2.397-.186 2.397-.186.186-.391.055-1.192.055-1.192 1.151-1.151 1.337-2.279 1.337-2.279-1.392-.928-2.543-1.019-2.543-1.019.086-.259-.318-.796-.318-.796-1.278.132-2.802 2.001-2.802 2.001-.482-2.988-1.947-3.73-1.947-3.73-.277.337-.537 1.278-.537 1.278s-1.205-.537-2.061-.537c-3.016 0-3.334 4.271-3.334 4.271s.455-1.151 2.588-1.151c4.271 0 6.887 8.497 10.557 8.497 2.133 0 3.011-2.802 3.011-2.802s.864.723 3.075.723c2.934 0 4.599-2.729 4.599-2.729s1.547 1.61 3.953 1.61c2.406 0 4.194-2.092 4.194-2.092s1.469 1.556 3.948 1.556c2.465 0 3.93-2.079 3.93-2.079" fill="#efd600"/><path d="M371.201 216.004s1.469 2.079 3.935 2.079c2.484 0 3.953-1.556 3.953-1.556s1.783 2.092 4.189 2.092c2.411 0 3.953-1.61 3.953-1.61s1.669 2.729 4.603 2.729c2.206 0 3.07-.723 3.07-.723s.873 2.802 3.011 2.802c3.666 0 6.282-8.497 10.553-8.497 2.138 0 2.597 1.151 2.597 1.151s-.318-4.271-3.339-4.271c-.855 0-2.061.537-2.061.537s-.259-.942-.537-1.278c0 0-1.465.741-1.947 3.73 0 0-1.524-1.869-2.806-2.001 0 0-.405.537-.314.796 0 0-1.146.091-2.538 1.019 0 0 .182 1.128 1.337 2.279 0 0-.132.801.055 1.192 0 0 1.592-.259 2.393.186 0 0-1.337 2.279-2.584 2.279-1.287 0-2.479-.537-2.665-1.929l-1.073-.391s-1.073 1.246-2.62 1.246c-1.387 0-3.525-.987-3.525-3.471l.132-1.073s1.392 1.874 4.062 1.61l.205-.723s1.665-.077 2.67-1.283c0 0-.205-.851-1.406-1.869l-.186-1.469s-1.469-.591-2.948-.314c0 0 .869-1.023 1.128-2.411 0 0-.796-.482-1.128-.405-.337.055-.205-2.393-1.41-2.615-1.205-.182-2.006 1.738-2.006 1.738s-.723-.268-1.06-.182c-.328.055-.459 2.192-.055 3.061 0 0-.81-.923-2.893-.923l-.132.978s-1.519.218-2.402 1.205c0 0 .669 1.469 1.738 2.265l-.055.887s.928.669 3.93.405c0 0-.328 3.384-3.211 3.384-2.857 0-3.871-2.802-3.871-2.802l-1.073-.264s-.578 2.397-3.339 2.397c-2.716 0-3.525-2.529-3.525-3.252 0-.755.186-1.014.186-1.014s2.279 1.014 3.875.61l.346-1.06s1.601-.755 2.32-1.61c0 0-.182-1.019-2.188-2.079l.273-.723s-1.96-.796-3.48-.127c0 0 .855-1.874.855-2.893l-1.119-.259s-.127-1.624-1.874-2.816c-1.733 1.192-1.865 2.816-1.865 2.816l-1.119.259c0 1.014.855 2.893.855 2.893-1.524-.669-3.484.127-3.484.127l.277.723c-2.006 1.06-2.192 2.079-2.192 2.079.723.855 2.324 1.61 2.324 1.61l.35 1.06c1.592.405 3.871-.61 3.871-.61s.186.259.186 1.014c0 .723-.81 3.252-3.525 3.252-2.761 0-3.343-2.397-3.343-2.397l-1.069.264s-1.014 2.802-3.875 2.802c-2.879 0-3.207-3.384-3.207-3.384 3.002.264 3.93-.405 3.93-.405l-.055-.887c1.073-.796 1.742-2.265 1.742-2.265-.887-.987-2.411-1.205-2.411-1.205l-.132-.978c-2.079 0-2.888.923-2.888.923.405-.869.273-3.007-.055-3.061-.341-.086-1.06.182-1.06.182s-.796-1.924-2.006-1.738c-1.201.218-1.069 2.67-1.41 2.615-.328-.073-1.124.405-1.124.405.259 1.387 1.124 2.411 1.124 2.411-1.478-.277-2.943.314-2.943.314l-.186 1.469c-1.205 1.019-1.415 1.869-1.415 1.869 1.01 1.205 2.675 1.283 2.675 1.283l.205.723c2.675.264 4.066-1.61 4.066-1.61l.127 1.073c0 2.484-2.133 3.471-3.521 3.471-1.547 0-2.62-1.246-2.62-1.246l-1.073.391c-.186 1.392-1.378 1.929-2.67 1.929-1.251 0-2.584-2.279-2.584-2.279.796-.446 2.397-.186 2.397-.186.186-.391.055-1.192.055-1.192 1.151-1.151 1.337-2.279 1.337-2.279-1.392-.928-2.543-1.019-2.543-1.019.086-.259-.318-.796-.318-.796-1.278.132-2.802 2.001-2.802 2.001-.482-2.988-1.947-3.73-1.947-3.73-.277.337-.537 1.278-.537 1.278s-1.205-.537-2.061-.537c-3.016 0-3.334 4.271-3.334 4.271s.455-1.151 2.588-1.151c4.271 0 6.887 8.497 10.557 8.497 2.133 0 3.011-2.802 3.011-2.802s.864.723 3.075.723c2.934 0 4.599-2.729 4.599-2.729s1.547 1.61 3.953 1.61c2.406 0 4.194-2.092 4.194-2.092s1.469 1.556 3.948 1.556c2.465 0 3.93-2.079 3.93-2.079h-.005z" stroke="#000" stroke-width=".437" stroke-linecap="round" stroke-linejoin="round" fill="none"/><path d="M344.992 215.463c0-.796.641-1.442 1.442-1.442.791 0 1.442.646 1.442 1.442 0 .796-.646 1.442-1.442 1.442-.801 0-1.442-.646-1.442-1.442" fill="#fff"/><path d="M344.992 215.463c0-.796.641-1.442 1.442-1.442.791 0 1.442.646 1.442 1.442 0 .796-.646 1.442-1.442 1.442-.801 0-1.442-.646-1.442-1.442z" stroke="#000" stroke-width=".437" stroke-linecap="round" stroke-linejoin="round" fill="none"/><path d="M352.416 211.374c0-.796.646-1.442 1.446-1.442.796 0 1.442.646 1.442 1.442 0 .796-.646 1.446-1.442 1.446-.801 0-1.446-.65-1.446-1.446" fill="#fff"/><path d="M352.416 211.374c0-.796.646-1.442 1.446-1.442.796 0 1.442.646 1.442 1.442 0 .796-.646 1.446-1.442 1.446-.801 0-1.446-.65-1.446-1.446z" stroke="#000" stroke-width=".437" stroke-linecap="round" stroke-linejoin="round" fill="none"/><path d="M361.29 212.393c0-.801.646-1.446 1.442-1.446.791 0 1.442.646 1.442 1.446 0 .796-.646 1.442-1.442 1.442-.796 0-1.442-.646-1.442-1.442" fill="#fff"/><path d="M361.29 212.393c0-.801.646-1.446 1.442-1.446.791 0 1.442.646 1.442 1.446 0 .796-.646 1.442-1.442 1.442-.796 0-1.442-.646-1.442-1.442z" stroke="#000" stroke-width=".437" stroke-linecap="round" stroke-linejoin="round" fill="none"/><path d="M369.837 209.318c0-.796.646-1.442 1.446-1.442.796 0 1.442.646 1.442 1.442 0 .796-.646 1.442-1.442 1.442-.801 0-1.446-.646-1.446-1.442" fill="#fff"/><path d="M369.837 209.318c0-.796.646-1.442 1.446-1.442.796 0 1.442.646 1.442 1.442 0 .796-.646 1.442-1.442 1.442-.801 0-1.446-.646-1.446-1.442z" stroke="#000" stroke-width=".437" stroke-linecap="round" stroke-linejoin="round" fill="none"/><path d="M394.531 215.463c0-.796.646-1.442 1.442-1.442.796 0 1.442.646 1.442 1.442 0 .796-.646 1.442-1.442 1.442-.796 0-1.442-.646-1.442-1.442" fill="#fff"/><path d="M394.531 215.463c0-.796.646-1.442 1.442-1.442.796 0 1.442.646 1.442 1.442 0 .796-.646 1.442-1.442 1.442-.796 0-1.442-.646-1.442-1.442z" stroke="#000" stroke-width=".437" stroke-linecap="round" stroke-linejoin="round" fill="none"/><path d="M387.103 211.374c0-.796.646-1.442 1.442-1.442.796 0 1.442.646 1.442 1.442 0 .796-.646 1.446-1.442 1.446-.796 0-1.442-.65-1.442-1.446" fill="#fff"/><path d="M387.103 211.374c0-.796.646-1.442 1.442-1.442.796 0 1.442.646 1.442 1.442 0 .796-.646 1.446-1.442 1.446-.796 0-1.442-.65-1.442-1.446z" stroke="#000" stroke-width=".437" stroke-linecap="round" stroke-linejoin="round" fill="none"/><path d="M378.233 212.393c0-.801.646-1.446 1.442-1.446.796 0 1.442.646 1.442 1.446 0 .796-.646 1.442-1.442 1.442-.796 0-1.442-.646-1.442-1.442" fill="#fff"/><path d="M378.233 212.393c0-.801.646-1.446 1.442-1.446.796 0 1.442.646 1.442 1.446 0 .796-.646 1.442-1.442 1.442-.796 0-1.442-.646-1.442-1.442z" stroke="#000" stroke-width=".437" stroke-linecap="round" stroke-linejoin="round" fill="none"/><path d="M337.219 215.95c0-.537.314-.81.723-.81.391 0 1.597.942 1.597 1.792 0 .396-.396.878-.801.878s-1.519-1.41-1.519-1.86" fill="#fff"/><path d="M337.219 215.95c0-.537.314-.81.723-.81.391 0 1.597.942 1.597 1.792 0 .396-.396.878-.801.878s-1.519-1.41-1.519-1.86z" stroke="#000" stroke-width=".437" stroke-linecap="round" stroke-linejoin="round" fill="none"/><path d="M405.189 215.95c0-.537-.318-.81-.723-.81-.391 0-1.597.942-1.597 1.792 0 .396.396.878.801.878s1.519-1.41 1.519-1.86" fill="#fff"/><path d="M405.189 215.95c0-.537-.318-.81-.723-.81-.391 0-1.597.942-1.597 1.792 0 .396.396.878.801.878s1.519-1.41 1.519-1.86z" stroke="#000" stroke-width=".437" stroke-linecap="round" stroke-linejoin="round" fill="none"/></g><path font-size="12" fill="#fff" fill-rule="evenodd" d="M0 0h248.031v496.063h-248.031z"/><path font-size="12" fill="#ff0" fill-rule="evenodd" d="M496.063 0h248.031v496.063h-248.031z"/></svg>