<svg width="21cm" height="14cm" xmlns="http://www.w3.org/2000/svg"><path font-size="12" fill="#fff" fill-rule="evenodd" d="M0 0h744.095v496.063h-744.095z"/><path d="M744.095 423.856l-637.404-423.855h-106.691v70.614l639.793 425.449h104.302v-72.207" font-size="12" fill="#09c"/><path d="M367.841 378.509c-74.576 0-72.154-70.167-72.154-70.167v-107.695h144.305v107.695s2.526 70.167-72.151 70.167" font-size="12" fill="#069"/><path d="M367.841 378.509c-74.576 0-72.154-70.167-72.154-70.167v-107.695h144.305v107.695s2.526 70.167-72.151 70.167z" font-size="12" stroke="#000" stroke-width="1.248" fill="none"/><path d="M367.207 132.869s-15.386-7.486-29.94 3.536c0 0-26.19-3.78-28.117 21.308-.077 1.016-.235 2.887.232 3.432.468.545.935 1.561.935 2.258 0 .703.468 1.093.626 1.403.155.313.545.78.623 2.106.077 1.326-.155 1.948 1.093 3.274 1.245 1.326 1.323 5.147 1.323 6.238 0 1.09.78 4.132 1.326 4.757.545.623 1.48 2.181 1.48 3.506 0 1.326.545 4.99.31 5.922-.232.935 1.403 2.106 2.887 2.574 1.48.468 19.881 6.47 46.7 6.002 26.822-.468 36.479-1.895 47.56-5.925 1.713-.623 2.026-2.026 1.871-2.806-.158-.777 0-3.271.468-3.896.468-.623 3.587-5.612 2.961-6.548-.623-.935-.623-2.964 0-3.741.626-.78 2.577-4.531 2.961-6.083.387-1.555.438-3.387 1.153-3.929.718-.542.959-2.3 1.096-2.666.14-.369.661-1.513 1.388-2.035 0 0 1.352-6.339.518-9.455-.828-3.119-5.508-16.53-24.531-13.721 0 0-14.138-10.709-34.927-5.511" font-size="12" fill="#f00"/><path d="M367.207 132.869s-15.386-7.486-29.94 3.536c0 0-26.19-3.78-28.117 21.308-.077 1.016-.235 2.887.232 3.432.468.545.935 1.561.935 2.258 0 .703.468 1.093.626 1.403.155.313.545.78.623 2.106.077 1.326-.155 1.948 1.093 3.274 1.245 1.326 1.323 5.147 1.323 6.238 0 1.09.78 4.132 1.326 4.757.545.623 1.48 2.181 1.48 3.506 0 1.326.545 4.99.31 5.922-.232.935 1.403 2.106 2.887 2.574 1.48.468 19.881 6.47 46.7 6.002 26.822-.468 36.479-1.895 47.56-5.925 1.713-.623 2.026-2.026 1.871-2.806-.158-.777 0-3.271.468-3.896.468-.623 3.587-5.612 2.961-6.548-.623-.935-.623-2.964 0-3.741.626-.78 2.577-4.531 2.961-6.083.387-1.555.438-3.387 1.153-3.929.718-.542.959-2.3 1.096-2.666.14-.369.661-1.513 1.388-2.035 0 0 1.352-6.339.518-9.455-.828-3.119-5.508-16.53-24.531-13.721 0 0-14.138-10.709-34.927-5.511h.006z" font-size="12" stroke="#000" stroke-width="1.871" fill="none"/><path d="M418.681 179.572c-58.421-18.505-103.447-.917-103.447-.917s.417 2.041.935 2.663c.521.623 1.248 2.079 1.248 3.172 0 1.09.104 2.651.104 3.482 0 .828-.637 4.558 2.696 4.513 0 0 40.605-15.928 93.48.819 0 0 1.448-1.299 1.501-3.17.051-1.871.36-3.846 1.09-4.885.727-1.04 2.389-4.287 2.389-5.678m-54.16 97.377h-25.365s-2.496 22.66 17.048 29.523v2.079h4.158v2.702s-7.173 6.443-.938 13.825v2.288h1.043v3.637h1.141v5.922s-.935 21.156-21.674 31.29v1.248h55.374v-1.248c-20.736-10.134-21.674-31.29-21.674-31.29v-5.922h1.141v-3.637h1.04v-2.288c6.238-7.382-.935-13.825-.935-13.825v-2.702h4.158v-2.079c19.544-6.863 17.048-29.523 17.048-29.523h-31.567" font-size="12" fill="#fc0"/><path d="M364.517 276.948h-25.365s-2.496 22.66 17.048 29.523v2.079h4.158v2.702s-7.173 6.443-.938 13.825v2.288h1.043v3.637h1.141v5.922s-.935 21.156-21.674 31.29v1.248h55.374v-1.248c-20.736-10.134-21.674-31.29-21.674-31.29v-5.922h1.141v-3.637h1.04v-2.288c6.238-7.382-.935-13.825-.935-13.825v-2.702h4.158v-2.079c19.544-6.863 17.048-29.523 17.048-29.523h-31.567.003z" font-size="12" stroke="#000" stroke-width="1.248" fill="none"/><path d="M355.366 306.158h24.483m-23.649 1.871h22.818m-18.66 3.119h14.346m-15.285 14.188h16.375m-15.282 1.743h14.296m-14.296 3.536h14.242m-22.973 28.716h31.653m-40.593 7.328h49.586m-51.457 1.09h53.378" font-size="12" stroke="#000" stroke-width=".313" fill="none"/><path d="M367.829 275.61c8.931 0 16.172-7.242 16.172-16.172 0-8.931-7.242-16.172-16.172-16.172-8.931 0-16.172 7.242-16.172 16.172 0 8.931 7.242 16.172 16.172 16.172" font-size="12" fill="#ccc"/><path d="M367.829 275.61c8.931 0 16.172-7.242 16.172-16.172 0-8.931-7.242-16.172-16.172-16.172-8.931 0-16.172 7.242-16.172 16.172 0 8.931 7.242 16.172 16.172 16.172z" font-size="12" stroke="#000" stroke-width="1.248" fill="none"/><path d="M330.197 228.091h-10.083v-10.086h-8.94v10.086h-10.083v8.937h10.083v10.083h8.94v-10.083h10.083v-8.937" font-size="12" fill="#ccc"/><path d="M330.197 228.091h-10.083v-10.086h-8.94v10.086h-10.083v8.937h10.083v10.083h8.94v-10.083h10.083v-8.937" font-size="12" stroke="#000" stroke-width="1.248" fill="none"/><path d="M434.996 228.091h-10.083v-10.086h-8.943v10.086h-10.08v8.937h10.08v10.083h8.943v-10.083h10.083v-8.937" font-size="12" fill="#ccc"/><path d="M434.996 228.091h-10.083v-10.086h-8.943v10.086h-10.08v8.937h10.08v10.083h8.943v-10.083h10.083v-8.937" font-size="12" stroke="#000" stroke-width="1.248" fill="none"/><path d="M381.889 215.419h-10.083v-10.083h-8.94v10.083h-10.083v8.94h10.083v10.083h8.94v-10.083h10.083v-8.94" font-size="12" fill="#ccc"/><path d="M381.889 215.419h-10.083v-10.083h-8.94v10.083h-10.083v8.94h10.083v10.083h8.94v-10.083h10.083v-8.94" font-size="12" stroke="#000" stroke-width="1.248" fill="none"/><path d="M330.197 271.75h-10.083v-10.083h-8.94v10.083h-10.083v8.94h10.083v10.083h8.94v-10.083h10.083v-8.94" font-size="12" fill="#ccc"/><path d="M330.197 271.75h-10.083v-10.083h-8.94v10.083h-10.083v8.94h10.083v10.083h8.94v-10.083h10.083v-8.94" font-size="12" stroke="#000" stroke-width="1.248" fill="none"/><path d="M434.996 271.75h-10.083v-10.083h-8.943v10.083h-10.08v8.94h10.08v10.083h8.943v-10.083h10.083v-8.94" font-size="12" fill="#ccc"/><path d="M434.996 271.75h-10.083v-10.083h-8.943v10.083h-10.08v8.94h10.08v10.083h8.943v-10.083h10.083v-8.94" font-size="12" stroke="#000" stroke-width="1.248" fill="none"/><path d="M330.197 315.84h-10.083v-10.086h-8.94v10.086h-10.083v8.94h10.083v10.08h8.94v-10.08h10.083v-8.94" font-size="12" fill="#ccc"/><path d="M330.197 315.84h-10.083v-10.086h-8.94v10.086h-10.083v8.94h10.083v10.08h8.94v-10.08h10.083v-8.94" font-size="12" stroke="#000" stroke-width="1.248" fill="none"/><path d="M434.996 315.84h-10.083v-10.086h-8.943v10.086h-10.08v8.94h10.08v10.08h8.943v-10.08h10.083v-8.94" font-size="12" fill="#ccc"/><path d="M434.996 315.84h-10.083v-10.086h-8.943v10.086h-10.08v8.94h10.08v10.08h8.943v-10.08h10.083v-8.94" font-size="12" stroke="#000" stroke-width="1.248" fill="none"/><path d="M367.698 111.282c5.359 0 9.705-4.343 9.705-9.702s-4.346-9.702-9.705-9.702-9.702 4.343-9.702 9.702 4.343 9.702 9.702 9.702" font-size="12" fill="#167cff"/><path d="M367.698 111.282c5.359 0 9.705-4.343 9.705-9.702s-4.346-9.702-9.705-9.702-9.702 4.343-9.702 9.702 4.343 9.702 9.702 9.702z" font-size="12" stroke="#000" stroke-width="1.248" fill="none"/><path d="M376.745 99.864h-7.954v-12.863h3.038v-2.574h-3.038v-3.041h-2.574v3.041h-3.041v2.574h3.041v12.863h-7.563v1.716h7.563v.077h2.574v-.077h7.954v-1.716" font-size="12" fill="#fc0"/><path d="M376.745 99.864h-7.954v-12.863h3.038v-2.574h-3.038v-3.041h-2.574v3.041h-3.041v2.574h3.041v12.863h-7.563v1.716h7.563v.077h2.574v-.077h7.954v-1.716" font-size="12" stroke="#000" stroke-width=".623" fill="none"/><path d="M328.848 122.89s7.173-.831 11.329.831c0 0-4.763 5.419-3.741 12.577.521 3.64 1.248 5.511 2.288 7.277 1.04 1.769 2.181 5.407 1.558 8.317h1.352s1.352-5.925-.935-9.252c-2.288-3.324-3.432-7.9-1.144-12.681 2.285-4.781 5.612-6.652 5.612-6.652 3.846 1.558 11.957.101 14.242-1.561 2.285-1.665 3.429-3.95-.831-4.158-4.26-.209-11.537-.104-16.527 3.64 0 0-2.601-3.018-15.594-1.561-12.994 1.457-22.386 7.006-25.261 18.713-1.454 5.925 4.054 18.397 9.148 21.412 0 0-.155-2.026.363-3.482 0 0-8.68-9.72-6.08-18.764 2.598-9.044 12.994-14.969 24.221-14.656" font-size="12" fill="#fc0"/><path d="M328.848 122.89s7.173-.831 11.329.831c0 0-4.763 5.419-3.741 12.577.521 3.64 1.248 5.511 2.288 7.277 1.04 1.769 2.181 5.407 1.558 8.317h1.352s1.352-5.925-.935-9.252c-2.288-3.324-3.432-7.9-1.144-12.681 2.285-4.781 5.612-6.652 5.612-6.652 3.846 1.558 11.957.101 14.242-1.561 2.285-1.665 3.429-3.95-.831-4.158-4.26-.209-11.537-.104-16.527 3.64 0 0-2.601-3.018-15.594-1.561-12.994 1.457-22.386 7.006-25.261 18.713-1.454 5.925 4.054 18.397 9.148 21.412 0 0-.155-2.026.363-3.482 0 0-8.68-9.72-6.08-18.764 2.598-9.044 12.994-14.969 24.221-14.656z" font-size="12" stroke="#000" stroke-width=".81" fill="none"/><path d="M353.269 121.1c2.246-.182 4.045-.572 4.021-.879-.024-.301-1.865-.402-4.111-.22-2.246.182-4.045.575-4.021.879.024.304 1.865.402 4.111.22" font-size="12" fill="#fff"/><path d="M345.089 123.254c2.574-2.416 7.954-4.054 10.995-3.351 3.038.7-.548 1.09-1.561 1.168-1.013.077-3.041.468-6.002 0" font-size="12" stroke="#000" stroke-width=".81" fill="none"/><path d="M406.393 123.668s-7.17-.828-11.329.834c0 0 4.766 5.416 3.741 12.577-.518 3.64-1.245 5.511-2.285 7.277-1.043 1.763-2.184 5.407-1.561 8.317h-1.352s-1.349-5.925.935-9.252c2.288-3.327 3.432-7.9 1.144-12.681-2.285-4.784-5.612-6.655-5.612-6.655-3.846 1.561-11.954.104-14.242-1.558-2.282-1.665-3.429-3.95.831-4.158 4.263-.209 11.54-.104 16.53 3.637 0 0 2.598-3.015 15.591-1.558 12.997 1.454 22.386 7.006 25.261 18.71 1.457 5.925-4.054 18.4-9.148 21.415 0 0 .158-2.026-.363-3.482 0 0 8.68-9.72 6.083-18.764-2.601-9.044-12.994-14.969-24.224-14.659" font-size="12" fill="#fc0"/><path d="M406.393 123.668s-7.17-.828-11.329.834c0 0 4.766 5.416 3.741 12.577-.518 3.64-1.245 5.511-2.285 7.277-1.043 1.763-2.184 5.407-1.561 8.317h-1.352s-1.349-5.925.935-9.252c2.288-3.327 3.432-7.9 1.144-12.681-2.285-4.784-5.612-6.655-5.612-6.655-3.846 1.561-11.954.104-14.242-1.558-2.282-1.665-3.429-3.95.831-4.158 4.263-.209 11.54-.104 16.53 3.637 0 0 2.598-3.015 15.591-1.558 12.997 1.454 22.386 7.006 25.261 18.71 1.457 5.925-4.054 18.4-9.148 21.415 0 0 .158-2.026-.363-3.482 0 0 8.68-9.72 6.083-18.764-2.601-9.044-12.994-14.969-24.224-14.659z" font-size="12" stroke="#000" stroke-width=".81" fill="none"/><path d="M381.973 121.88c-2.243-.182-4.045-.575-4.021-.879.027-.304 1.865-.402 4.111-.22 2.246.182 4.048.575 4.024.879-.027.304-1.868.402-4.114.22" font-size="12" fill="#fff"/><path d="M390.153 124.034c-2.571-2.419-7.951-4.054-10.992-3.354-3.041.703.545 1.093 1.558 1.171 1.016.077 3.041.468 6.005 0" font-size="12" stroke="#000" stroke-width=".81" fill="none"/><path d="M360.969 115.717v27.653c-.313 2.702 3.324 6.548 5.925 7.691 0 0 6.133-2.079 6.548-7.691v-29.214h-2.079v25.261c-.101 2.601-1.766 7.277-4.054 8.007 0 0-4.468-.73-4.677-7.903v-24.632l-1.662.828" font-size="12" fill="#fc0"/><path d="M360.969 115.717v27.653c-.313 2.702 3.324 6.548 5.925 7.691 0 0 6.133-2.079 6.548-7.691v-29.214h-2.079v25.261c-.101 2.601-1.766 7.277-4.054 8.007 0 0-4.468-.73-4.677-7.903v-24.632l-1.662.828" font-size="12" stroke="#000" stroke-width=".81" fill="none"/><path d="M299.792 153.537c1.826 0 3.307-1.48 3.307-3.307 0-1.823-1.48-3.307-3.307-3.307-1.826 0-3.307 1.48-3.307 3.307 0 1.826 1.48 3.307 3.307 3.307" font-size="12" fill="#fff"/><path d="M299.792 153.537c1.826 0 3.307-1.48 3.307-3.307 0-1.823-1.48-3.307-3.307-3.307-1.826 0-3.307 1.48-3.307 3.307 0 1.826 1.48 3.307 3.307 3.307z" font-size="12" stroke="#000" stroke-width="1.248" fill="none"/><path d="M297.725 145.935c1.829 0 3.31-1.48 3.31-3.307 0-1.823-1.48-3.307-3.31-3.307-1.826 0-3.307 1.48-3.307 3.307 0 1.826 1.48 3.307 3.307 3.307" font-size="12" fill="#fff"/><path d="M297.725 145.935c1.829 0 3.31-1.48 3.31-3.307 0-1.823-1.48-3.307-3.31-3.307-1.826 0-3.307 1.48-3.307 3.307 0 1.826 1.48 3.307 3.307 3.307z" font-size="12" stroke="#000" stroke-width="1.248" fill="none"/><path d="M298.818 136.736c1.826 0 3.307-1.48 3.307-3.31 0-1.826-1.48-3.307-3.307-3.307-1.826 0-3.307 1.48-3.307 3.307 0 1.829 1.48 3.31 3.307 3.31" font-size="12" fill="#fff"/><path d="M298.818 136.736c1.826 0 3.307-1.48 3.307-3.31 0-1.826-1.48-3.307-3.307-3.307-1.826 0-3.307 1.48-3.307 3.307 0 1.829 1.48 3.31 3.307 3.31z" font-size="12" stroke="#000" stroke-width="1.248" fill="none"/><path d="M303.963 129.095c1.829 0 3.31-1.48 3.31-3.307 0-1.829-1.48-3.31-3.31-3.31-1.826 0-3.307 1.48-3.307 3.31 0 1.826 1.48 3.307 3.307 3.307" font-size="12" fill="#fff"/><path d="M303.963 129.095c1.829 0 3.31-1.48 3.31-3.307 0-1.829-1.48-3.31-3.31-3.31-1.826 0-3.307 1.48-3.307 3.31 0 1.826 1.48 3.307 3.307 3.307z" font-size="12" stroke="#000" stroke-width="1.248" fill="none"/><path d="M310.045 123.522c1.826 0 3.307-1.48 3.307-3.31 0-1.826-1.48-3.307-3.307-3.307-1.826 0-3.31 1.48-3.31 3.307 0 1.829 1.483 3.31 3.31 3.31" font-size="12" fill="#fff"/><path d="M310.045 123.522c1.826 0 3.307-1.48 3.307-3.31 0-1.826-1.48-3.307-3.307-3.307-1.826 0-3.31 1.48-3.31 3.307 0 1.829 1.483 3.31 3.31 3.31z" font-size="12" stroke="#000" stroke-width="1.248" fill="none"/><path d="M317.88 120.403c1.826 0 3.307-1.48 3.307-3.31 0-1.826-1.48-3.307-3.307-3.307-1.826 0-3.307 1.48-3.307 3.307 0 1.829 1.48 3.31 3.307 3.31" font-size="12" fill="#fff"/><path d="M317.88 120.403c1.826 0 3.307-1.48 3.307-3.31 0-1.826-1.48-3.307-3.307-3.307-1.826 0-3.307 1.48-3.307 3.307 0 1.829 1.48 3.31 3.307 3.31z" font-size="12" stroke="#000" stroke-width="1.248" fill="none"/><path d="M326.066 118.922c1.826 0 3.307-1.483 3.307-3.31 0-1.826-1.48-3.307-3.307-3.307-1.826 0-3.307 1.48-3.307 3.307 0 1.826 1.48 3.31 3.307 3.31" font-size="12" fill="#fff"/><path d="M326.066 118.922c1.826 0 3.307-1.483 3.307-3.31 0-1.826-1.48-3.307-3.307-3.307-1.826 0-3.307 1.48-3.307 3.307 0 1.826 1.48 3.31 3.307 3.31z" font-size="12" stroke="#000" stroke-width="1.248" fill="none"/><path d="M333.864 118.455c1.826 0 3.307-1.483 3.307-3.31 0-1.826-1.48-3.307-3.307-3.307-1.829 0-3.31 1.48-3.31 3.307 0 1.826 1.48 3.31 3.31 3.31" font-size="12" fill="#fff"/><path d="M333.864 118.455c1.826 0 3.307-1.483 3.307-3.31 0-1.826-1.48-3.307-3.307-3.307-1.829 0-3.31 1.48-3.31 3.307 0 1.826 1.48 3.31 3.31 3.31z" font-size="12" stroke="#000" stroke-width="1.248" fill="none"/><path d="M340.879 119.077c1.826 0 3.307-1.48 3.307-3.307 0-1.829-1.48-3.31-3.307-3.31-1.826 0-3.307 1.48-3.307 3.31 0 1.826 1.48 3.307 3.307 3.307" font-size="12" fill="#fff"/><path d="M340.879 119.077c1.826 0 3.307-1.48 3.307-3.307 0-1.829-1.48-3.31-3.307-3.31-1.826 0-3.307 1.48-3.307 3.31 0 1.826 1.48 3.307 3.307 3.307z" font-size="12" stroke="#000" stroke-width="1.248" fill="none"/><path d="M360.883 116.581c1.826 0 3.31-1.48 3.31-3.307 0-1.823-1.483-3.307-3.31-3.307-1.826 0-3.307 1.48-3.307 3.307 0 1.826 1.48 3.307 3.307 3.307" font-size="12" fill="#fff"/><path d="M360.883 116.581c1.826 0 3.31-1.48 3.31-3.307 0-1.823-1.483-3.307-3.31-3.307-1.826 0-3.307 1.48-3.307 3.307 0 1.826 1.48 3.307 3.307 3.307z" font-size="12" stroke="#000" stroke-width="1.248" fill="none"/><path d="M367.275 118.297c1.826 0 3.31-1.48 3.31-3.307 0-1.826-1.483-3.307-3.31-3.307-1.826 0-3.307 1.48-3.307 3.307 0 1.826 1.48 3.307 3.307 3.307" font-size="12" fill="#fff"/><path d="M367.275 118.297c1.826 0 3.31-1.48 3.31-3.307 0-1.826-1.483-3.307-3.31-3.307-1.826 0-3.307 1.48-3.307 3.307 0 1.826 1.48 3.307 3.307 3.307z" font-size="12" stroke="#000" stroke-width="1.248" fill="none"/><path d="M367.275 142.777c1.826 0 3.31-1.48 3.31-3.307 0-1.826-1.483-3.307-3.31-3.307-1.826 0-3.307 1.48-3.307 3.307 0 1.826 1.48 3.307 3.307 3.307" font-size="12" fill="#fff"/><path d="M367.275 142.777c1.826 0 3.31-1.48 3.31-3.307 0-1.826-1.483-3.307-3.31-3.307-1.826 0-3.307 1.48-3.307 3.307 0 1.826 1.48 3.307 3.307 3.307z" font-size="12" stroke="#000" stroke-width="1.248" fill="none"/><path d="M435.652 155.643c1.826 0 3.307-1.48 3.307-3.31 0-1.826-1.48-3.307-3.307-3.307-1.829 0-3.31 1.48-3.31 3.307 0 1.829 1.48 3.31 3.31 3.31" font-size="12" fill="#fff"/><path d="M435.652 155.643c1.826 0 3.307-1.48 3.307-3.31 0-1.826-1.48-3.307-3.307-3.307-1.829 0-3.31 1.48-3.31 3.307 0 1.829 1.48 3.31 3.31 3.31z" font-size="12" stroke="#000" stroke-width="1.248" fill="none"/><path d="M437.365 147.415c1.829 0 3.31-1.48 3.31-3.307 0-1.826-1.48-3.307-3.31-3.307-1.826 0-3.307 1.48-3.307 3.307 0 1.826 1.48 3.307 3.307 3.307" font-size="12" fill="#fff"/><path d="M437.365 147.415c1.829 0 3.31-1.48 3.31-3.307 0-1.826-1.48-3.307-3.31-3.307-1.826 0-3.307 1.48-3.307 3.307 0 1.826 1.48 3.307 3.307 3.307z" font-size="12" stroke="#000" stroke-width="1.248" fill="none"/><path d="M435.962 138.842c1.829 0 3.31-1.48 3.31-3.31 0-1.826-1.48-3.307-3.31-3.307-1.826 0-3.307 1.48-3.307 3.307 0 1.829 1.48 3.31 3.307 3.31" font-size="12" fill="#fff"/><path d="M435.962 138.842c1.829 0 3.31-1.48 3.31-3.31 0-1.826-1.48-3.307-3.31-3.307-1.826 0-3.307 1.48-3.307 3.307 0 1.829 1.48 3.31 3.307 3.31z" font-size="12" stroke="#000" stroke-width="1.248" fill="none"/><path d="M432.375 130.734c1.829 0 3.31-1.483 3.31-3.31 0-1.823-1.48-3.307-3.31-3.307-1.826 0-3.307 1.48-3.307 3.307 0 1.826 1.48 3.31 3.307 3.31" font-size="12" fill="#fff"/><path d="M432.375 130.734c1.829 0 3.31-1.483 3.31-3.31 0-1.823-1.48-3.307-3.31-3.307-1.826 0-3.307 1.48-3.307 3.307 0 1.826 1.48 3.31 3.307 3.31z" font-size="12" stroke="#000" stroke-width="1.248" fill="none"/><path d="M426.295 125.118c1.826 0 3.307-1.48 3.307-3.307 0-1.826-1.48-3.307-3.307-3.307-1.826 0-3.31 1.48-3.31 3.307 0 1.826 1.483 3.307 3.31 3.307" font-size="12" fill="#fff"/><path d="M426.295 125.118c1.826 0 3.307-1.48 3.307-3.307 0-1.826-1.48-3.307-3.307-3.307-1.826 0-3.31 1.48-3.31 3.307 0 1.826 1.483 3.307 3.31 3.307z" font-size="12" stroke="#000" stroke-width="1.248" fill="none"/><path d="M418.967 121.532c1.826 0 3.307-1.48 3.307-3.307 0-1.826-1.48-3.307-3.307-3.307-1.829 0-3.31 1.48-3.31 3.307 0 1.826 1.48 3.307 3.31 3.307" font-size="12" fill="#fff"/><path d="M418.967 121.532c1.826 0 3.307-1.48 3.307-3.307 0-1.826-1.48-3.307-3.307-3.307-1.829 0-3.31 1.48-3.31 3.307 0 1.826 1.48 3.307 3.31 3.307z" font-size="12" stroke="#000" stroke-width="1.248" fill="none"/><path d="M410.623 119.622c1.829 0 3.31-1.48 3.31-3.307 0-1.823-1.48-3.307-3.31-3.307-1.826 0-3.307 1.48-3.307 3.307 0 1.826 1.48 3.307 3.307 3.307" font-size="12" fill="#fff"/><path d="M410.623 119.622c1.829 0 3.31-1.48 3.31-3.307 0-1.823-1.48-3.307-3.31-3.307-1.826 0-3.307 1.48-3.307 3.307 0 1.826 1.48 3.307 3.307 3.307z" font-size="12" stroke="#000" stroke-width="1.248" fill="none"/><path d="M402.983 119c1.829 0 3.31-1.48 3.31-3.31 0-1.823-1.48-3.307-3.31-3.307-1.826 0-3.307 1.48-3.307 3.307 0 1.829 1.48 3.31 3.307 3.31" font-size="12" fill="#fff"/><path d="M402.983 119c1.829 0 3.31-1.48 3.31-3.31 0-1.823-1.48-3.307-3.31-3.307-1.826 0-3.307 1.48-3.307 3.307 0 1.829 1.48 3.31 3.307 3.31z" font-size="12" stroke="#000" stroke-width="1.248" fill="none"/><path d="M396.057 118.088c1.829 0 3.31-1.48 3.31-3.307 0-1.826-1.48-3.307-3.31-3.307-1.826 0-3.307 1.48-3.307 3.307 0 1.826 1.48 3.307 3.307 3.307" font-size="12" fill="#fff"/><path d="M396.057 118.088c1.829 0 3.31-1.48 3.31-3.307 0-1.826-1.48-3.307-3.31-3.307-1.826 0-3.307 1.48-3.307 3.307 0 1.826 1.48 3.307 3.307 3.307z" font-size="12" stroke="#000" stroke-width="1.248" fill="none"/><path d="M400.528 145.157c1.826 0 3.307-1.483 3.307-3.31 0-1.823-1.48-3.307-3.307-3.307-1.826 0-3.307 1.48-3.307 3.307 0 1.826 1.48 3.31 3.307 3.31" font-size="12" fill="#fff"/><path d="M400.528 145.157c1.826 0 3.307-1.483 3.307-3.31 0-1.823-1.48-3.307-3.307-3.307-1.826 0-3.307 1.48-3.307 3.307 0 1.826 1.48 3.31 3.307 3.31z" font-size="12" stroke="#000" stroke-width="1.248" fill="none"/><path d="M402.244 138.762c1.826 0 3.307-1.48 3.307-3.307 0-1.826-1.48-3.307-3.307-3.307-1.829 0-3.31 1.48-3.31 3.307 0 1.826 1.48 3.307 3.31 3.307" font-size="12" fill="#fff"/><path d="M402.244 138.762c1.826 0 3.307-1.48 3.307-3.307 0-1.826-1.48-3.307-3.307-3.307-1.829 0-3.31 1.48-3.31 3.307 0 1.826 1.48 3.307 3.31 3.307z" font-size="12" stroke="#000" stroke-width="1.248" fill="none"/><path d="M374.448 117.597c1.829 0 3.31-1.483 3.31-3.31 0-1.826-1.48-3.307-3.31-3.307-1.826 0-3.307 1.48-3.307 3.307 0 1.826 1.48 3.31 3.307 3.31" font-size="12" fill="#fff"/><path d="M374.448 117.597c1.829 0 3.31-1.483 3.31-3.31 0-1.826-1.48-3.307-3.31-3.307-1.826 0-3.307 1.48-3.307 3.307 0 1.826 1.48 3.31 3.307 3.31z" font-size="12" stroke="#000" stroke-width="1.248" fill="none"/><path d="M358.264 116.7c1.829 0 3.31-1.48 3.31-3.31 0-1.823-1.48-3.304-3.31-3.304-1.826 0-3.307 1.478-3.307 3.304 0 1.829 1.48 3.31 3.307 3.31" font-size="12" fill="#fff"/><path d="M358.264 116.7c1.829 0 3.31-1.48 3.31-3.31 0-1.823-1.48-3.304-3.31-3.304-1.826 0-3.307 1.478-3.307 3.304 0 1.829 1.48 3.31 3.307 3.31z" font-size="12" stroke="#000" stroke-width="1.248" fill="none"/><path d="M354.368 116.542c1.826 0 3.307-1.48 3.307-3.307 0-1.826-1.48-3.307-3.307-3.307-1.826 0-3.307 1.48-3.307 3.307 0 1.826 1.48 3.307 3.307 3.307" font-size="12" fill="#fff"/><path d="M354.368 116.542c1.826 0 3.307-1.48 3.307-3.307 0-1.826-1.48-3.307-3.307-3.307-1.826 0-3.307 1.48-3.307 3.307 0 1.826 1.48 3.307 3.307 3.307z" font-size="12" stroke="#000" stroke-width="1.248" fill="none"/><path d="M333.355 145.235c1.826 0 3.31-1.48 3.31-3.31 0-1.826-1.483-3.307-3.31-3.307-1.826 0-3.307 1.48-3.307 3.307 0 1.829 1.48 3.31 3.307 3.31" font-size="12" fill="#fff"/><path d="M333.355 145.235c1.826 0 3.31-1.48 3.31-3.31 0-1.826-1.483-3.307-3.31-3.307-1.826 0-3.307 1.48-3.307 3.307 0 1.829 1.48 3.31 3.307 3.31z" font-size="12" stroke="#000" stroke-width="1.248" fill="none"/><path d="M332.381 137.32c1.826 0 3.31-1.48 3.31-3.307 0-1.826-1.483-3.307-3.31-3.307-1.826 0-3.307 1.48-3.307 3.307 0 1.826 1.48 3.307 3.307 3.307" font-size="12" fill="#fff"/><path d="M332.381 137.32c1.826 0 3.31-1.48 3.31-3.307 0-1.826-1.483-3.307-3.31-3.307-1.826 0-3.307 1.48-3.307 3.307 0 1.826 1.48 3.307 3.307 3.307z" font-size="12" stroke="#000" stroke-width="1.248" fill="none"/><path d="M334.719 129.679c1.829 0 3.31-1.48 3.31-3.307 0-1.826-1.48-3.307-3.31-3.307-1.826 0-3.307 1.48-3.307 3.307 0 1.826 1.48 3.307 3.307 3.307" font-size="12" fill="#fff"/><path d="M334.719 129.679c1.829 0 3.31-1.48 3.31-3.307 0-1.826-1.48-3.307-3.31-3.307-1.826 0-3.307 1.48-3.307 3.307 0 1.826 1.48 3.307 3.307 3.307z" font-size="12" stroke="#000" stroke-width="1.248" fill="none"/><path d="M349.259 117.284c1.829 0 3.31-1.48 3.31-3.307 0-1.829-1.48-3.31-3.31-3.31-1.826 0-3.307 1.48-3.307 3.31 0 1.826 1.48 3.307 3.307 3.307" font-size="12" fill="#fff"/><path d="M349.259 117.284c1.829 0 3.31-1.48 3.31-3.307 0-1.829-1.48-3.31-3.31-3.31-1.826 0-3.307 1.48-3.307 3.31 0 1.826 1.48 3.307 3.307 3.307z" font-size="12" stroke="#000" stroke-width="1.248" fill="none"/><path d="M343.763 119.545c1.829 0 3.31-1.48 3.31-3.307 0-1.829-1.48-3.31-3.31-3.31-1.826 0-3.307 1.48-3.307 3.31 0 1.826 1.48 3.307 3.307 3.307" font-size="12" fill="#fff"/><path d="M343.763 119.545c1.829 0 3.31-1.48 3.31-3.307 0-1.829-1.48-3.31-3.31-3.31-1.826 0-3.307 1.48-3.307 3.31 0 1.826 1.48 3.307 3.307 3.307z" font-size="12" stroke="#000" stroke-width="1.248" fill="none"/><path d="M338.502 123.989c1.826 0 3.307-1.483 3.307-3.31 0-1.826-1.48-3.307-3.307-3.307-1.829 0-3.31 1.48-3.31 3.307 0 1.826 1.48 3.31 3.31 3.31" font-size="12" fill="#fff"/><path d="M338.502 123.989c1.826 0 3.307-1.483 3.307-3.31 0-1.826-1.48-3.307-3.307-3.307-1.829 0-3.31 1.48-3.31 3.307 0 1.826 1.48 3.31 3.31 3.31z" font-size="12" stroke="#000" stroke-width="1.248" fill="none"/><path d="M367.275 122.041c1.826 0 3.31-1.483 3.31-3.31 0-1.823-1.483-3.307-3.31-3.307-1.826 0-3.307 1.48-3.307 3.307 0 1.826 1.48 3.31 3.307 3.31" font-size="12" fill="#fff"/><path d="M367.275 122.041c1.826 0 3.31-1.483 3.31-3.31 0-1.823-1.483-3.307-3.31-3.307-1.826 0-3.307 1.48-3.307 3.307 0 1.826 1.48 3.31 3.307 3.31z" font-size="12" stroke="#000" stroke-width="1.248" fill="none"/><path d="M367.275 128.276c1.826 0 3.31-1.48 3.31-3.307 0-1.826-1.483-3.307-3.31-3.307-1.826 0-3.307 1.48-3.307 3.307 0 1.826 1.48 3.307 3.307 3.307" font-size="12" fill="#fff"/><path d="M367.275 128.276c1.826 0 3.31-1.48 3.31-3.307 0-1.826-1.483-3.307-3.31-3.307-1.826 0-3.307 1.48-3.307 3.307 0 1.826 1.48 3.307 3.307 3.307z" font-size="12" stroke="#000" stroke-width="1.248" fill="none"/><path d="M367.275 134.981c1.826 0 3.31-1.48 3.31-3.307 0-1.823-1.483-3.307-3.31-3.307-1.826 0-3.307 1.48-3.307 3.307 0 1.826 1.48 3.307 3.307 3.307" font-size="12" fill="#fff"/><path d="M367.275 134.981c1.826 0 3.31-1.48 3.31-3.307 0-1.823-1.483-3.307-3.31-3.307-1.826 0-3.307 1.48-3.307 3.307 0 1.826 1.48 3.307 3.307 3.307z" font-size="12" stroke="#000" stroke-width="1.248" fill="none"/><path d="M378.738 116.739c1.826 0 3.307-1.483 3.307-3.31 0-1.823-1.48-3.307-3.307-3.307-1.829 0-3.31 1.48-3.31 3.307 0 1.826 1.48 3.31 3.31 3.31" font-size="12" fill="#fff"/><path d="M378.738 116.739c1.826 0 3.307-1.483 3.307-3.31 0-1.823-1.48-3.307-3.307-3.307-1.829 0-3.31 1.48-3.31 3.307 0 1.826 1.48 3.31 3.31 3.31z" font-size="12" stroke="#000" stroke-width="1.248" fill="none"/><path d="M383.26 115.803c1.826 0 3.307-1.483 3.307-3.31 0-1.823-1.48-3.307-3.307-3.307-1.829 0-3.31 1.48-3.31 3.307 0 1.826 1.48 3.31 3.31 3.31" font-size="12" fill="#fff"/><path d="M383.26 115.803c1.826 0 3.307-1.483 3.307-3.31 0-1.823-1.48-3.307-3.307-3.307-1.829 0-3.31 1.48-3.31 3.307 0 1.826 1.48 3.31 3.31 3.31z" font-size="12" stroke="#000" stroke-width="1.248" fill="none"/><path d="M388.365 116.623c1.826 0 3.307-1.483 3.307-3.31 0-1.826-1.48-3.307-3.307-3.307-1.826 0-3.307 1.48-3.307 3.307 0 1.826 1.48 3.31 3.307 3.31" font-size="12" fill="#fff"/><path d="M388.365 116.623c1.826 0 3.307-1.483 3.307-3.31 0-1.826-1.48-3.307-3.307-3.307-1.826 0-3.307 1.48-3.307 3.307 0 1.826 1.48 3.31 3.307 3.31z" font-size="12" stroke="#000" stroke-width="1.248" fill="none"/><path d="M401.151 130.653c1.826 0 3.31-1.48 3.31-3.307 0-1.826-1.483-3.307-3.31-3.307-1.826 0-3.307 1.48-3.307 3.307 0 1.826 1.48 3.307 3.307 3.307" font-size="12" fill="#fff"/><path d="M401.151 130.653c1.826 0 3.31-1.48 3.31-3.307 0-1.826-1.483-3.307-3.31-3.307-1.826 0-3.307 1.48-3.307 3.307 0 1.826 1.48 3.307 3.307 3.307z" font-size="12" stroke="#000" stroke-width="1.248" fill="none"/><path d="M393.51 119.584c1.829 0 3.31-1.48 3.31-3.307 0-1.829-1.48-3.31-3.31-3.31-1.826 0-3.307 1.48-3.307 3.31 0 1.826 1.48 3.307 3.307 3.307" font-size="12" fill="#fff"/><path d="M393.51 119.584c1.829 0 3.31-1.48 3.31-3.307 0-1.829-1.48-3.31-3.31-3.31-1.826 0-3.307 1.48-3.307 3.31 0 1.826 1.48 3.307 3.307 3.307z" font-size="12" stroke="#000" stroke-width="1.248" fill="none"/><path d="M398.19 124.106c1.826 0 3.307-1.48 3.307-3.31 0-1.826-1.48-3.307-3.307-3.307-1.829 0-3.31 1.48-3.31 3.307 0 1.829 1.48 3.31 3.31 3.31" font-size="12" fill="#fff"/><path d="M398.19 124.106c1.826 0 3.307-1.48 3.307-3.31 0-1.826-1.48-3.307-3.307-3.307-1.829 0-3.31 1.48-3.31 3.307 0 1.829 1.48 3.31 3.31 3.31z" font-size="12" stroke="#000" stroke-width="1.248" fill="none"/><path d="M367.064 173.638l-8.731 4.367 7.858 4.948 9.315-4.656-8.442-4.659" font-size="12" fill="#fff"/><path d="M367.064 173.638l-8.731 4.367 7.858 4.948 9.315-4.656-8.442-4.659" font-size="12" stroke="#000" stroke-width=".623" fill="none"/><path d="M347.975 174.555l-13.098 2.026s-.158 7.018.468 8.734l13.408-1.874s.626-6.548-.777-8.886" font-size="12" fill="#fff"/><path d="M347.975 174.555l-13.098 2.026s-.158 7.018.468 8.734l13.408-1.874s.626-6.548-.777-8.886z" font-size="12" stroke="#000" stroke-width=".623" fill="none"/><path d="M346.518 177.049s-7.9.727-9.875 1.457l.104 4.781s5.198-.935 9.979-1.352l-.209-4.885" font-size="12" fill="#093"/><path d="M346.518 177.049s-7.9.727-9.875 1.457l.104 4.781s5.198-.935 9.979-1.352l-.209-4.885" font-size="12" stroke="#000" stroke-width=".623" fill="none"/><path d="M385.321 174.931l13.095 2.029s.158 7.015-.468 8.731l-13.408-1.871s-.626-6.551.78-8.889" font-size="12" fill="#fff"/><path d="M385.321 174.931l13.095 2.029s.158 7.015-.468 8.731l-13.408-1.871s-.626-6.551.78-8.889z" font-size="12" stroke="#000" stroke-width=".623" fill="none"/><path d="M386.775 177.427s7.9.727 9.875 1.454l-.104 4.781s-5.198-.935-9.979-1.349l.209-4.885" font-size="12" fill="#093"/><path d="M386.775 177.427s7.9.727 9.875 1.454l-.104 4.781s-5.198-.935-9.979-1.349l.209-4.885m-71.547 3.365s45.946-17.063 104.37 1.442m-102.499 8.38s44.442-16.622 99.25.739m-99.041-11.186l8.94 2.598-6.238 6.655" font-size="12" stroke="#000" stroke-width=".623" fill="none"/><path d="M317.516 188.172l5.094-4.263-5.821-1.144s.792.9.629 1.725c-.161.825.048 2.955.098 3.682" font-size="12" fill="#f00"/><path d="M317.516 188.172l5.094-4.263-5.821-1.144s.792.9.629 1.725c-.161.825.048 2.955.098 3.682zm101.094-6.289l-9.511 1.716 6.393 7.483" font-size="12" stroke="#000" stroke-width=".623" fill="none"/><path d="M415.804 188.434l-3.587-3.744 5.144-.468s-1.403.935-1.403 1.716c0 .78.158 1.871-.155 2.496" font-size="12" fill="#f00"/><path d="M415.804 188.434l-3.587-3.744 5.144-.468s-1.403.935-1.403 1.716c0 .78.158 1.871-.155 2.496zm-86.852-7.608c.81 0 1.469-.527 1.469-1.18 0-.646-.658-1.174-1.469-1.174-.813 0-1.472.527-1.472 1.174 0 .652.658 1.18 1.472 1.18zm25.556-2.913c.813 0 1.472-.527 1.472-1.174 0-.652-.658-1.177-1.472-1.177-.81 0-1.469.524-1.469 1.177 0 .646.658 1.174 1.469 1.174zm0 4.158c.813 0 1.472-.527 1.472-1.177 0-.649-.658-1.174-1.472-1.174-.81 0-1.469.524-1.469 1.174 0 .649.658 1.177 1.469 1.177zm25.156-3.95c.813 0 1.472-.524 1.472-1.177 0-.646-.658-1.174-1.472-1.174-.81 0-1.469.524-1.469 1.174 0 .652.658 1.177 1.469 1.177zm24.948 4.576c.813 0 1.472-.527 1.472-1.18 0-.646-.658-1.174-1.472-1.174-.81 0-1.469.527-1.469 1.174 0 .652.658 1.18 1.469 1.18zm-.414 3.324c.813 0 1.472-.527 1.472-1.174 0-.646-.658-1.18-1.472-1.18-.813 0-1.472.53-1.472 1.18 0 .646.658 1.174 1.472 1.174zm-24.534-3.741c.813 0 1.472-.527 1.472-1.177 0-.646-.658-1.174-1.472-1.174-.81 0-1.469.524-1.469 1.174 0 .649.658 1.177 1.469 1.177zm-49.479 3.741c.81 0 1.469-.527 1.469-1.174 0-.646-.658-1.18-1.469-1.18-.813 0-1.472.53-1.472 1.18 0 .646.658 1.174 1.472 1.174z" font-size="12" stroke="#000" stroke-width=".623" fill="none"/><path d="M314.397 167.382s.209 8.94 6.029 7.691c5.821-1.248 5.198-8.525 5.615-8.94.414-.417 1.037-.417 1.037-.417s.831 7.069 6.235 6.238c5.407-.831 5.198-9.562 4.576-11.019l1.248-.417s2.076 10.188 8.314 8.734c6.238-1.457 5.615-7.9 5.615-7.9h.48s1.391 6.86 6.381 6.443c4.987-.414 6.029-2.079 5.404-8.94l3.327-.623s-1.248 9.979 4.778 9.771c6.032-.209 6.238-4.99 6.655-5.821h.909s.34 7.069 5.329 7.069c4.99 0 6.026-6.029 6.026-8.317l4.873.217s-5.079 9.348 2.407 10.596c7.483 1.245 7.691-6.032 7.691-6.032h1.454s-.209 9.357 3.95 9.565c4.156.209 6.652-1.248 7.066-8.108l2.288.831s-1.984 11.09-9.771 9.145c-4.158-1.037-5.407-5.818-5.198-7.066 0 0-2.907 5.195-8.523 3.533-5.612-1.662-4.99-5.612-4.99-6.86 0 0-3.375 6.199-8.108 4.778-4.156-1.245-5.821-2.702-5.821-5.612 0 0-2.079 4.781-6.238 4.576-4.158-.209-6.235-2.705-6.443-4.99 0 0-.825 4.468-6.446 4.781-3.741.209-5.821-1.659-6.652-4.158 0 0-1.075 4.528-6.443 5.198-3.324.417-6.652-1.454-7.486-4.573 0 0-.828 6.026-6.235 6.86-5.407.831-6.655-2.91-6.655-2.91s-1.037 4.784-5.404 5.821c-4.367 1.04-7.277-.828-8.317-5.195l-.623-6.238 1.662 2.285" font-size="12" fill="#fc0"/><path d="M314.397 167.382s.209 8.94 6.029 7.691c5.821-1.248 5.198-8.525 5.615-8.94.414-.417 1.037-.417 1.037-.417s.831 7.069 6.235 6.238c5.407-.831 5.198-9.562 4.576-11.019l1.248-.417s2.076 10.188 8.314 8.734c6.238-1.457 5.615-7.9 5.615-7.9h.48s1.391 6.86 6.381 6.443c4.987-.414 6.029-2.079 5.404-8.94l3.327-.623s-1.248 9.979 4.778 9.771c6.032-.209 6.238-4.99 6.655-5.821h.909s.34 7.069 5.329 7.069c4.99 0 6.026-6.029 6.026-8.317l4.873.217s-5.079 9.348 2.407 10.596c7.483 1.245 7.691-6.032 7.691-6.032h1.454s-.209 9.357 3.95 9.565c4.156.209 6.652-1.248 7.066-8.108l2.288.831s-1.984 11.09-9.771 9.145c-4.158-1.037-5.407-5.818-5.198-7.066 0 0-2.907 5.195-8.523 3.533-5.612-1.662-4.99-5.612-4.99-6.86 0 0-3.375 6.199-8.108 4.778-4.156-1.245-5.821-2.702-5.821-5.612 0 0-2.079 4.781-6.238 4.576-4.158-.209-6.235-2.705-6.443-4.99 0 0-.825 4.468-6.446 4.781-3.741.209-5.821-1.659-6.652-4.158 0 0-1.075 4.528-6.443 5.198-3.324.417-6.652-1.454-7.486-4.573 0 0-.828 6.026-6.235 6.86-5.407.831-6.655-2.91-6.655-2.91s-1.037 4.784-5.404 5.821c-4.367 1.04-7.277-.828-8.317-5.195l-.623-6.238 1.662 2.285.003.003z" font-size="12" stroke="#000" stroke-width=".81" fill="none"/><path d="M326.456 167.776c1.138 0 2.058-.92 2.058-2.058 0-1.135-.92-2.058-2.058-2.058s-2.058.923-2.058 2.058c0 1.138.92 2.058 2.058 2.058" font-size="12" fill="#fc0"/><path d="M326.456 167.776c1.138 0 2.058-.92 2.058-2.058 0-1.135-.92-2.058-2.058-2.058s-2.058.923-2.058 2.058c0 1.138.92 2.058 2.058 2.058z" font-size="12" stroke="#000" stroke-width=".81" fill="none"/><path d="M353.549 163.438c1.138 0 2.058-.923 2.058-2.058 0-1.138-.92-2.058-2.058-2.058s-2.058.92-2.058 2.058c0 1.135.92 2.058 2.058 2.058" font-size="12" fill="#fc0"/><path d="M353.549 163.438c1.138 0 2.058-.923 2.058-2.058 0-1.138-.92-2.058-2.058-2.058s-2.058.92-2.058 2.058c0 1.135.92 2.058 2.058 2.058z" font-size="12" stroke="#000" stroke-width=".81" fill="none"/><path d="M381.005 164.243c1.138 0 2.058-.923 2.058-2.058 0-1.138-.92-2.058-2.058-2.058s-2.058.92-2.058 2.058c0 1.135.92 2.058 2.058 2.058" font-size="12" fill="#fc0"/><path d="M381.005 164.243c1.138 0 2.058-.923 2.058-2.058 0-1.138-.92-2.058-2.058-2.058s-2.058.92-2.058 2.058c0 1.135.92 2.058 2.058 2.058z" font-size="12" stroke="#000" stroke-width=".81" fill="none"/><path d="M408.252 168.622c1.138 0 2.058-.923 2.058-2.058 0-1.138-.92-2.058-2.058-2.058-1.135 0-2.055.92-2.055 2.058 0 1.135.92 2.058 2.055 2.058" font-size="12" fill="#fc0"/><path d="M408.252 168.622c1.138 0 2.058-.923 2.058-2.058 0-1.138-.92-2.058-2.058-2.058-1.135 0-2.055.92-2.055 2.058 0 1.135.92 2.058 2.055 2.058z" font-size="12" stroke="#000" stroke-width=".81" fill="none"/><path d="M366.063 161.145h-1.871c-.468 1.871-4.444 3.041-4.444 3.041-.468-1.48.545-3.587.545-3.587-4.599-1.171-4.599-2.809-4.599-2.809.7-1.558 4.912-1.79 4.912-1.79-1.093-1.403-.858-3.664-.858-3.664 2.806.158 5.144 2.961 5.144 2.961s-2.806-1.4-2.493-6.393c0 0 1.558-.074 2.493.935 0 0 0-5.377 2.261-5.999h.232c2.261.623 2.261 5.999 2.261 5.999.935-1.01 2.493-.935 2.493-.935.313 4.99-2.493 6.393-2.493 6.393s2.338-2.803 5.144-2.961c0 0 .235 2.258-.858 3.664 0 0 4.212.232 4.912 1.79 0 0 0 1.638-4.599 2.809 0 0 1.013 2.106.545 3.587 0 0-3.977-1.171-4.444-3.041h-4.287" font-size="12" fill="#fc0"/><path d="M366.063 161.145h-1.871c-.468 1.871-4.444 3.041-4.444 3.041-.468-1.48.545-3.587.545-3.587-4.599-1.171-4.599-2.809-4.599-2.809.7-1.558 4.912-1.79 4.912-1.79-1.093-1.403-.858-3.664-.858-3.664 2.806.158 5.144 2.961 5.144 2.961s-2.806-1.4-2.493-6.393c0 0 1.558-.074 2.493.935 0 0 0-5.377 2.261-5.999h.232c2.261.623 2.261 5.999 2.261 5.999.935-1.01 2.493-.935 2.493-.935.313 4.99-2.493 6.393-2.493 6.393s2.338-2.803 5.144-2.961c0 0 .235 2.258-.858 3.664 0 0 4.212.232 4.912 1.79 0 0 0 1.638-4.599 2.809 0 0 1.013 2.106.545 3.587 0 0-3.977-1.171-4.444-3.041h-4.287.003z" font-size="12" stroke="#000" stroke-width=".81" fill="none"/><path d="M367.126 162.208c2.082 0 3.768-1.686 3.768-3.768 0-2.079-1.686-3.765-3.768-3.765-2.079 0-3.765 1.686-3.765 3.765 0 2.082 1.686 3.768 3.765 3.768" font-size="12" fill="#fff"/><path d="M367.126 162.208c2.082 0 3.768-1.686 3.768-3.768 0-2.079-1.686-3.765-3.768-3.765-2.079 0-3.765 1.686-3.765 3.765 0 2.082 1.686 3.768 3.765 3.768z" font-size="12" stroke="#000" stroke-width=".5" fill="none"/><path d="M367.126 160.498c1.138 0 2.061-.92 2.061-2.058 0-1.135-.923-2.055-2.061-2.055-1.135 0-2.055.92-2.055 2.055 0 1.138.92 2.058 2.055 2.058" font-size="12" fill="#fff"/><path d="M367.126 160.498c1.138 0 2.061-.92 2.061-2.058 0-1.135-.923-2.055-2.061-2.055-1.135 0-2.055.92-2.055 2.055 0 1.138.92 2.058 2.055 2.058z" font-size="12" stroke="#000" stroke-width=".313" fill="none"/><path d="M395.693 163.584l1.829.396c.057 1.927 3.703 3.908 3.703 3.908.766-1.349.22-3.619.22-3.619 4.742-.173 5.085-1.772 5.085-1.772-.354-1.674-4.421-2.791-4.421-2.791 1.361-1.141 1.612-3.402 1.612-3.402-2.776-.438-5.657 1.811-5.657 1.811s3.041-.777 3.789-5.722c0 0-1.51-.402-2.633.387 0 0 1.132-5.258-.944-6.342l-.229-.051c-2.341.134-3.476 5.392-3.476 5.392-.7-1.189-2.24-1.442-2.24-1.442-1.358 4.811 1.09 6.777 1.09 6.777s-1.695-3.238-4.406-3.983c0 0-.706 2.16.066 3.762 0 0-4.164-.658-5.18.718 0 0-.343 1.6 3.905 3.715 0 0-1.436 1.844-1.29 3.39 0 0 4.135-.304 4.987-2.035l1.826.393 2.365.509" font-size="12" fill="#fc0"/><path d="M395.693 163.584l1.829.396c.057 1.927 3.703 3.908 3.703 3.908.766-1.349.22-3.619.22-3.619 4.742-.173 5.085-1.772 5.085-1.772-.354-1.674-4.421-2.791-4.421-2.791 1.361-1.141 1.612-3.402 1.612-3.402-2.776-.438-5.657 1.811-5.657 1.811s3.041-.777 3.789-5.722c0 0-1.51-.402-2.633.387 0 0 1.132-5.258-.944-6.342l-.229-.051c-2.341.134-3.476 5.392-3.476 5.392-.7-1.189-2.24-1.442-2.24-1.442-1.358 4.811 1.09 6.777 1.09 6.777s-1.695-3.238-4.406-3.983c0 0-.706 2.16.066 3.762 0 0-4.164-.658-5.18.718 0 0-.343 1.6 3.905 3.715 0 0-1.436 1.844-1.29 3.39 0 0 4.135-.304 4.987-2.035l1.826.393 2.365.509" font-size="12" stroke="#000" stroke-width=".81" fill="none"/><path d="M394.424 164.401c-2.032-.438-3.324-2.443-2.887-4.477.438-2.032 2.443-3.327 4.477-2.887 2.035.438 3.327 2.443 2.889 4.477-.441 2.032-2.446 3.327-4.48 2.887" font-size="12" fill="#fff"/><path d="M394.424 164.401c-2.032-.438-3.324-2.443-2.887-4.477.438-2.032 2.443-3.327 4.477-2.887 2.035.438 3.327 2.443 2.889 4.477-.441 2.032-2.446 3.327-4.48 2.887z" font-size="12" stroke="#000" stroke-width=".5" fill="none"/><path d="M394.788 162.729c-1.114-.238-1.82-1.335-1.579-2.446.238-1.108 1.335-1.817 2.446-1.576 1.111.238 1.817 1.338 1.579 2.446-.241 1.111-1.338 1.817-2.446 1.576" font-size="12" fill="#fff"/><path d="M394.788 162.729c-1.114-.238-1.82-1.335-1.579-2.446.238-1.108 1.335-1.817 2.446-1.576 1.111.238 1.817 1.338 1.579 2.446-.241 1.111-1.338 1.817-2.446 1.576z" font-size="12" stroke="#000" stroke-width=".313" fill="none"/><path d="M337.603 163.218l-1.856.244c-.217 1.918-4.007 3.601-4.007 3.601-.658-1.406.069-3.625.069-3.625-4.713-.554-4.93-2.178-4.93-2.178.492-1.635 4.632-2.425 4.632-2.425-1.266-1.245-1.332-3.518-1.332-3.518 2.803-.211 5.493 2.258 5.493 2.258s-2.967-1.022-3.315-6.008c0 0 1.537-.283 2.598.599 0 0-.709-5.332 1.445-6.25l.232-.027c2.324.316 3.032 5.651 3.032 5.651.795-1.126 2.35-1.257 2.35-1.257.968 4.906-1.629 6.664-1.629 6.664s1.948-3.086 4.71-3.61c0 0 .53 2.207-.366 3.741 0 0 4.203-.325 5.106 1.129 0 0 .214 1.623-4.191 3.39 0 0 1.284 1.951 1.016 3.482 0 0-4.096-.634-4.808-2.428l-1.856.247-2.392.319" font-size="12" fill="#fc0"/><path d="M337.603 163.218l-1.856.244c-.217 1.918-4.007 3.601-4.007 3.601-.658-1.406.069-3.625.069-3.625-4.713-.554-4.93-2.178-4.93-2.178.492-1.635 4.632-2.425 4.632-2.425-1.266-1.245-1.332-3.518-1.332-3.518 2.803-.211 5.493 2.258 5.493 2.258s-2.967-1.022-3.315-6.008c0 0 1.537-.283 2.598.599 0 0-.709-5.332 1.445-6.25l.232-.027c2.324.316 3.032 5.651 3.032 5.651.795-1.126 2.35-1.257 2.35-1.257.968 4.906-1.629 6.664-1.629 6.664s1.948-3.086 4.71-3.61c0 0 .53 2.207-.366 3.741 0 0 4.203-.325 5.106 1.129 0 0 .214 1.623-4.191 3.39 0 0 1.284 1.951 1.016 3.482 0 0-4.096-.634-4.808-2.428l-1.856.247-2.392.319" font-size="12" stroke="#000" stroke-width=".81" fill="none"/><path d="M338.797 164.132c2.064-.274 3.515-2.169 3.238-4.233-.274-2.061-2.169-3.512-4.23-3.235-2.064.274-3.512 2.169-3.238 4.23.274 2.061 2.169 3.512 4.23 3.238" font-size="12" fill="#fff"/><path d="M338.797 164.132c2.064-.274 3.515-2.169 3.238-4.233-.274-2.061-2.169-3.512-4.23-3.235-2.064.274-3.512 2.169-3.238 4.23.274 2.061 2.169 3.512 4.23 3.238z" font-size="12" stroke="#000" stroke-width=".5" fill="none"/><path d="M338.574 162.437c1.126-.149 1.918-1.183 1.766-2.312-.149-1.126-1.183-1.915-2.309-1.769-1.129.152-1.921 1.186-1.769 2.312.149 1.129 1.186 1.918 2.312 1.769" font-size="12" fill="#fff"/><path d="M338.574 162.437c1.126-.149 1.918-1.183 1.766-2.312-.149-1.126-1.183-1.915-2.309-1.769-1.129.152-1.921 1.186-1.769 2.312.149 1.129 1.186 1.918 2.312 1.769z" font-size="12" stroke="#000" stroke-width=".313" fill="none"/><path d="M421.803 171.225s-.944-2.478-3.029-1.588c-2.085.891-1.871 1.215-3.735 1.102 0 0-.727-2.228.191-3.19 0 0-2.979-1.114-3.604-3.73 0 0 1.597-1.853 5.38-1.162 0 0-.119-1.88.399-2.708 0 0 4.063 1.257 4.084 3.524 0 0-1.218-4.447.926-7.677 0 0 1.903.816 1.781 2.842 0 0 .876-4.167 6.509-3.047 0 0-3.053 2.708-3.205 3.947-.152 1.239-2.699 3.351-2.744 4.054-.039.7-.349 1.93-1.096 2.666-.748.736-.822 1.984-.763 2.374.051.396-.128 2.103-1.093 2.592" font-size="12" fill="#fc0"/><path d="M421.803 171.225s-.944-2.478-3.029-1.588c-2.085.891-1.871 1.215-3.735 1.102 0 0-.727-2.228.191-3.19 0 0-2.979-1.114-3.604-3.73 0 0 1.597-1.853 5.38-1.162 0 0-.119-1.88.399-2.708 0 0 4.063 1.257 4.084 3.524 0 0-1.218-4.447.926-7.677 0 0 1.903.816 1.781 2.842 0 0 .876-4.167 6.509-3.047 0 0-3.053 2.708-3.205 3.947-.152 1.239-2.699 3.351-2.744 4.054-.039.7-.349 1.93-1.096 2.666-.748.736-.822 1.984-.763 2.374.051.396-.128 2.103-1.093 2.592z" font-size="12" stroke="#000" stroke-width=".81" fill="none"/><path d="M418.753 166.28c.399-2.041 2.377-3.375 4.418-2.976.581.11 1.099.354 1.54.688-.113.706-.429 1.656-1.049 2.267-.748.736-.822 1.984-.766 2.374.042.31-.069 1.424-.581 2.13-.194-.009-.39-.027-.584-.066-2.038-.396-3.372-2.374-2.979-4.418" font-size="12" fill="#fff"/><path d="M418.753 166.28c.399-2.041 2.377-3.375 4.418-2.976.581.11 1.099.354 1.54.688-.113.706-.429 1.656-1.049 2.267-.748.736-.822 1.984-.766 2.374.042.31-.069 1.424-.581 2.13-.194-.009-.39-.027-.584-.066-2.038-.396-3.372-2.374-2.979-4.418z" font-size="12" stroke="#000" stroke-width=".5" fill="none"/><path d="M420.433 166.608c.214-1.114 1.296-1.844 2.413-1.626.506.098.926.381 1.224.763-.119.185-.253.363-.408.515-.748.736-.822 1.984-.766 2.374.009.08.009.217-.006.378-.265.057-.548.066-.831.009-1.117-.217-1.844-1.296-1.626-2.413" font-size="12" fill="#fff"/><path d="M420.433 166.608c.214-1.114 1.296-1.844 2.413-1.626.506.098.926.381 1.224.763-.119.185-.253.363-.408.515-.748.736-.822 1.984-.766 2.374.009.08.009.217-.006.378-.265.057-.548.066-.831.009-1.117-.217-1.844-1.296-1.626-2.413z" font-size="12" stroke="#000" stroke-width=".313" fill="none"/><path d="M312.658 170.188s1.09-2.416 3.116-1.403c2.029 1.013 1.793 1.326 3.667 1.326 0 0 .855-2.184 0-3.196 0 0 3.038-.935 3.819-3.509 0 0-1.48-1.948-5.302-1.48 0 0 .235-1.874-.232-2.729 0 0-4.132 1.013-4.29 3.274 0 0 1.483-4.367-.468-7.718 0 0-1.948.7-1.948 2.729 0 0-.623-4.212-6.315-3.432 0 0 2.884 2.887 2.964 4.132.077 1.248 2.493 3.509 2.493 4.212 0 .7.235 1.948.935 2.729.703.78.703 2.026.623 2.416-.077.387 0 2.103.938 2.651" font-size="12" fill="#fc0"/><path d="M312.658 170.188s1.09-2.416 3.116-1.403c2.029 1.013 1.793 1.326 3.667 1.326 0 0 .855-2.184 0-3.196 0 0 3.038-.935 3.819-3.509 0 0-1.48-1.948-5.302-1.48 0 0 .235-1.874-.232-2.729 0 0-4.132 1.013-4.29 3.274 0 0 1.483-4.367-.468-7.718 0 0-1.948.7-1.948 2.729 0 0-.623-4.212-6.315-3.432 0 0 2.884 2.887 2.964 4.132.077 1.248 2.493 3.509 2.493 4.212 0 .7.235 1.948.935 2.729.703.78.703 2.026.623 2.416-.077.387 0 2.103.938 2.651z" font-size="12" stroke="#000" stroke-width=".81" fill="none"/><path d="M315.994 165.437c-.274-2.064-2.166-3.512-4.23-3.238-.584.077-1.117.289-1.579.596.071.712.328 1.677.912 2.326.703.78.703 2.026.623 2.416-.06.304-.018 1.424.456 2.157.191.003.387 0 .584-.027 2.061-.274 3.512-2.169 3.235-4.23" font-size="12" fill="#fff"/><path d="M315.994 165.437c-.274-2.064-2.166-3.512-4.23-3.238-.584.077-1.117.289-1.579.596.071.712.328 1.677.912 2.326.703.78.703 2.026.623 2.416-.06.304-.018 1.424.456 2.157.191.003.387 0 .584-.027 2.061-.274 3.512-2.169 3.235-4.23z" font-size="12" stroke="#000" stroke-width=".5" fill="none"/><path d="M314.302 165.661c-.149-1.126-1.186-1.918-2.312-1.769-.515.071-.95.328-1.269.688.11.194.229.378.375.542.703.78.703 2.026.623 2.416-.015.077-.021.211-.018.375.262.074.545.098.831.063 1.126-.152 1.918-1.186 1.769-2.315" font-size="12" fill="#fff"/><path d="M314.302 165.661c-.149-1.126-1.186-1.918-2.312-1.769-.515.071-.95.328-1.269.688.11.194.229.378.375.542.703.78.703 2.026.623 2.416-.015.077-.021.211-.018.375.262.074.545.098.831.063 1.126-.152 1.918-1.186 1.769-2.315z" font-size="12" stroke="#000" stroke-width=".313" fill="none"/><path d="M318.97 192.953s41.853-16.396 94.728.352" font-size="12" stroke="#000" stroke-width="1.871" fill="none"/><path d="M419.599 179.897c-58.424-18.505-104.993-1.04-104.993-1.04" font-size="12" stroke="#000" stroke-width=".623" fill="none"/><path d="M366.998 175.804l-4.68 2.338 4.212 2.651 4.99-2.496-4.522-2.493" font-size="12" fill="#f00"/><path d="M366.998 175.804l-4.68 2.338 4.212 2.651 4.99-2.496-4.522-2.493" font-size="12" stroke="#000" stroke-width=".623" fill="none"/></svg>