<svg width="210mm" height="140mm" xmlns="http://www.w3.org/2000/svg"><g font-size="12" fill-rule="evenodd"><path d="M.054.066h744.051v496.035h-744.051z"/><path d="M62.059.065l681.849 455.133.198 40.9h-62.004l-682.047-454.848v454.848h62.004v-496.033zm558.997.918l-.959 495.115h62.004v-496.033l-61.045.918zm-124.967-.918v496.033h62.004v-496.033h-62.004zm-124.01 0v496.033h62.004v-496.033h-62.004zm-124.008 0h62.004v496.033h-62.004v-496.033zm-124.008 0h62.004v496.033h-62.004v-496.033z" fill="#fdc10e"/><path fill="#fff" d="M.054 248.098h372.047v248.031h-372.047z"/><path fill="#e72223" d="M.054 496.13h186.023v-124.016h-186.023z"/><path d="M186.077 372.114l-176.245.051c.021 8.799 7.179 15.918 15.978 15.888 4.399-.007 82.674 0 160.267.005m0-15.945l-.102 106.584c-8.799-.021-15.917-7.179-15.888-15.977.007-4.4.051-13.013.045-90.606m-130.685.001l.005 31.08c-.03 8.799 7.089 15.957 15.939 15.978 8.85-.021 15.969-7.179 15.939-15.978l.005-31.08m114.742 82.774l-31.08-.005c-8.799.03-15.957-7.089-15.978-15.888v-.101c.021-8.799 7.179-15.918 15.978-15.888l31.079-.005" fill="#fff"/><path d="M186.077 372.114l-176.245-.051c.021-8.799 7.179-15.918 15.978-15.888 4.399.007 82.674 0 160.267-.005m0 15.945l-.102-106.584c-8.799.021-15.917 7.179-15.888 15.977.007 4.4.051 13.013.045 90.606m-130.685-.001l.005-31.08c-.03-8.799 7.089-15.957 15.939-15.978 8.85.021 15.969 7.179 15.939 15.978l.005 31.08m114.742-82.774l-31.08.005c-8.799-.03-15.957 7.089-15.978 15.888v.101c.021 8.799 7.179 15.918 15.978 15.888l31.079.005" fill="#e72223"/><path fill="#e72223" d="M372.101 248.098h-186.023v124.016h186.023z"/><path d="M186.078 372.114l176.245-.051c-.021-8.799-7.179-15.918-15.978-15.888-4.399.007-82.674 0-160.267-.005m0 15.945l.102-106.584c8.799.021 15.917 7.179 15.888 15.977-.007 4.4-.051 13.013-.045 90.606m130.685-.001l-.005-31.08c.03-8.799-7.089-15.957-15.939-15.978-8.85.021-15.969 7.179-15.939 15.978l-.005 31.08m-114.742-82.774l31.08.005c8.799-.03 15.957 7.089 15.978 15.888v.101c-.021 8.799-7.179 15.918-15.978 15.888l-31.079.005" fill="#fff"/><path d="M186.078 372.114l176.245.051c-.021 8.799-7.179 15.918-15.978 15.888-4.399-.007-82.674 0-160.267.005m0-15.945l.102 106.584c8.799-.021 15.917-7.179 15.888-15.977-.007-4.4-.051-13.013-.045-90.606m130.685.001l-.005 31.08c.03 8.799-7.089 15.957-15.939 15.978-8.85-.021-15.969-7.179-15.939-15.978l-.005-31.08m-114.742 82.774l31.08-.005c8.799.03 15.957-7.089 15.978-15.888v-.101c-.021-8.799-7.179-15.918-15.978-15.888l-31.079-.005" fill="#e72223"/><path fill="#fff" d="M372.08.081h372.047v248.031h-372.047z"/><path fill="#e72223" d="M372.08 248.113h186.023v-124.016h-186.023z"/><path d="M558.103 124.097l-176.245.051c.021 8.799 7.179 15.918 15.978 15.888 4.399-.007 82.674 0 160.267.005m0-15.945l-.102 106.584c-8.799-.021-15.917-7.179-15.888-15.977.007-4.4.051-13.013.045-90.606m-130.685 0l.005 31.08c-.03 8.799 7.089 15.957 15.939 15.978 8.85-.021 15.969-7.179 15.939-15.978l.005-31.08m114.742 82.775l-31.08-.005c-8.799.03-15.957-7.089-15.978-15.888v-.101c.021-8.799 7.179-15.918 15.978-15.888l31.079-.005" fill="#fff"/><path d="M558.103 124.097l-176.245-.051c.021-8.799 7.179-15.918 15.978-15.888 4.399.007 82.674 0 160.267-.005m0 15.945l-.102-106.584c-8.799.021-15.917 7.179-15.888 15.977.007 4.4.051 13.013.045 90.606m-130.685 0l.005-31.08c-.03-8.799 7.089-15.957 15.939-15.978 8.85.021 15.969 7.179 15.939 15.978l.005 31.08m114.742-82.775l-31.08.005c-8.799-.03-15.957 7.089-15.978 15.888v.101c.021 8.799 7.179 15.918 15.978 15.888l31.079.005" fill="#e72223"/><path fill="#e72223" d="M744.127.081h-186.023v124.016h186.023z"/><path d="M558.104 124.097l176.245-.051c-.021-8.799-7.179-15.918-15.978-15.888-4.399.007-82.674 0-160.267-.005m0 15.945l.102-106.584c8.799.021 15.917 7.179 15.888 15.977-.007 4.4-.051 13.013-.045 90.606m130.685 0l-.005-31.08c.03-8.799-7.089-15.957-15.939-15.978-8.85.021-15.969 7.179-15.939 15.978l-.005 31.08m-114.742-82.775l31.08.005c8.799-.03 15.957 7.089 15.978 15.888v.101c-.021 8.799-7.179 15.918-15.978 15.888l-31.079.005" fill="#fff"/><path d="M558.104 124.097l176.245.051c-.021 8.799-7.179 15.918-15.978 15.888-4.399-.007-82.674 0-160.267.005m0-15.945l.102 106.584c8.799-.021 15.917-7.179 15.888-15.977-.007-4.4-.051-13.013-.045-90.606m130.685 0l-.005 31.08c.03 8.799-7.089 15.957-15.939 15.978-8.85-.021-15.969-7.179-15.939-15.978l-.005-31.08m-114.742 82.775l31.08-.005c8.799.03 15.957-7.089 15.978-15.888v-.101c-.021-8.799-7.179-15.918-15.978-15.888l-31.079-.005" fill="#e72223"/></g></svg>