<svg xmlns="http://www.w3.org/2000/svg" width="48" height="36" viewBox="0 0 48 36"><g transform="matrix(1.67 0 0 1.67 -109.604 -45.25)"><linearGradient id="a" gradientUnits="userSpaceOnUse" x1="45.145" y1="122.064" x2="55.145" y2="106.974" gradientTransform="matrix(1.67 0 0 -1.67 3.313 233.676)"><stop offset="0" stop-color="#236B0D"/><stop offset="1" stop-color="#081B04"/></linearGradient><path fill="url(#a)" d="M92.844 27.406c-.135.025-.263.079-.375.156l-17.438 11.626-7.437-5.594c-.374-.28-.894-.258-1.243.053-.349.311-.43.825-.194 1.229l8 13c.154.269.427.449.734.485.308.037.615-.074.828-.298l18-19c.301-.305.369-.77.169-1.149-.2-.379-.622-.585-1.044-.508z"/><linearGradient id="b" gradientUnits="userSpaceOnUse" x1="46.105" y1="120.589" x2="49.141" y2="111.303" gradientTransform="matrix(1.67 0 0 -1.67 3.313 233.662)"><stop offset="0" stop-color="#2EDC32"/><stop offset="1" stop-color="#11661D"/></linearGradient><path fill="url(#b)" d="M92.968 27.956l-.187.063-17.781 11.844-7.75-5.813c-.147-.164-.399-.178-.562-.031-.164.147-.178.399-.031.563l8 13c.065.104.175.173.297.185.122.012.244-.033.328-.123l18-19c.128-.116.167-.301.095-.458s-.237-.251-.409-.23z"/><linearGradient id="c" gradientUnits="userSpaceOnUse" x1="44.234" y1="121.219" x2="56.288" y2="109.433" gradientTransform="matrix(1.67 0 0 -1.67 3.313 233.662)"><stop offset="0" stop-color="#97FF82"/><stop offset="1" stop-color="#CEFF24" stop-opacity="0"/></linearGradient><path fill="url(#c)" d="M92.906 28.456l-17.906 11.938-7.906-5.938 7.937 12.875 17.875-18.875z"/></g></svg>