<?xml version="1.0" encoding="utf-8"?>
<!-- Generator: Adobe Illustrator 16.0.0, SVG Export Plug-In . SVG Version: 6.00 Build 0)  -->
<!DOCTYPE svg PUBLIC "-//W3C//DTD SVG 1.1//EN" "http://www.w3.org/Graphics/SVG/1.1/DTD/svg11.dtd">
<svg version="1.1" id="Layer_1" xmlns="http://www.w3.org/2000/svg" xmlns:xlink="http://www.w3.org/1999/xlink" x="0px" y="0px"
	 width="512px" height="512px" viewBox="0 0 512 512" enable-background="new 0 0 512 512" xml:space="preserve">
<path id="forbidden-4-icon" fill="#FFFFFF" d="M373.38,138.62c64.87,64.87,64.882,169.878,0,234.76
	c-64.874,64.872-169.878,64.88-234.76,0c-64.87-64.87-64.882-169.878,0-234.76C203.492,73.749,308.498,73.739,373.38,138.62z
	 M256,50C142.229,50,50,142.229,50,256c0,113.771,92.229,206,206,206c113.771,0,206-92.229,206-206C462,142.229,369.771,50,256,50z
	 M371.906,225.5H142.094v65h229.812V225.5z"/>
</svg>
