<?xml version="1.0" encoding="utf-8"?>

<!-- The icon can be used freely in both personal and commercial projects with no attribution required, but always appreciated. 
You may NOT sub-license, resell, rent, redistribute or otherwise transfer the icon without express written permission from iconmonstr.com -->

<!DOCTYPE svg PUBLIC "-//W3C//DTD SVG 1.1//EN" "http://www.w3.org/Graphics/SVG/1.1/DTD/svg11.dtd">
<svg version="1.1" xmlns="http://www.w3.org/2000/svg" xmlns:xlink="http://www.w3.org/1999/xlink" x="0px" y="0px"
	 width="512px" height="512px" viewBox="0 0 512 512" enable-background="new 0 0 512 512" xml:space="preserve">
<path id="network-6-icon" d="M225.741,122.262c-10.096-4.89-19.027-8.84-27.496-12.287C211.636,74.43,230.974,51,256.001,51
	c24.381,0,43.363,22.232,56.707,56.239c-8.562,3.61-17.355,7.632-27.344,12.62C275.138,93.088,263.472,81,256.001,81
	C248.31,81,236.177,93.811,225.741,122.262z M256.001,431c-7.471,0-19.135-12.088-29.361-38.86
	c-10.084,5.036-18.803,9.016-27.346,12.621C212.64,438.767,231.62,461,256.001,461c25.029,0,44.365-23.43,57.758-58.974
	c-8.439-3.436-17.34-7.367-27.496-12.288C275.827,418.19,263.692,431,256.001,431z M174.112,393.154
	c-33.35,12.045-83.111,23.78-102.887-5.42c-9.77-14.427-13.416-42.163,24.695-92.376c10.111-13.322,21.816-26.408,33.689-38.419
	c26.635-26.545,56.641-52.096,95.738-78.552c-18.822-10.192-39.367-19.936-59.412-27.187c-20.52-7.424-38.586-11.535-52.428-11.535
	c-8.842,0-15.404,1.843-17.553,4.93c-2.285,3.281-2.398,13.373,7.744,31.476c1.201-0.132,2.418-0.206,3.652-0.206
	c18.225,0,33,14.775,33,33c0,18.227-14.775,33-33,33s-33-14.773-33-33c0-5.902,1.559-11.439,4.273-16.233
	c-19.311-33.481-15.328-53.631-7.291-65.177c5.648-8.115,17.551-17.789,42.174-17.789c43.723,0,102.635,28.356,140.564,50.322
	c38.51-23.28,99.422-53.988,144.42-53.988c24.723,0,36.639,9.932,42.281,18.264c9.77,14.428,13.416,42.164-24.693,92.377
	C362.44,287.316,255.792,363.653,174.112,393.154z M392.185,198.504c26.182-34.497,26.984-52.643,23.75-57.418
	c-2.189-3.232-8.545-5.086-17.441-5.086c-33.951,0-85.664,24.93-115.436,41.803c21.982,14.287,42.518,29.346,61.24,44.701
	c-7.084,7.058-14.51,13.981-22.102,20.68c-20.783-16.807-43.885-33.264-67.832-48.011c-27.5,17.708-55.186,38.509-80.055,60.672
	c18.705,16.243,40.973,33.296,64.725,49.076c-9.086,5.654-18.26,11.073-28.729,16.744c-0.004-0.003-0.006-0.005-0.01-0.007
	c-0.078-0.055-0.154-0.109-0.232-0.164c-19.885-13.853-39.51-29.054-57.662-44.965c-49.02,49.168-62.828,84.795-56.336,94.383
	c2.189,3.233,8.549,5.088,17.443,5.088c40.871,0,105.748-34.459,144.129-59.173C304.759,286.485,358.495,242.895,392.185,198.504z
	 M433.524,319.63c2.441-4.605,3.83-9.855,3.83-15.432c0-18.225-14.775-33-33-33s-33,14.775-33,33c0,18.227,14.775,33,33,33
	c1.521,0,3.016-0.112,4.48-0.312c9.611,17.505,9.453,27.295,7.209,30.519c-2.148,3.086-8.709,4.929-17.551,4.929
	c-27.856,0-66.664-16.141-91.65-28.324c-8.357,5.839-18.73,12.77-28.846,19.122c33.494,17.717,82.752,39.202,120.496,39.202
	c24.621,0,36.523-9.674,42.172-17.788C448.683,373.03,452.663,352.955,433.524,319.63z"/>
</svg>
