<?xml version="1.0" encoding="utf-8"?>

<!-- License Agreement at http://iconmonstr.com/license/ -->

<!DOCTYPE svg PUBLIC "-//W3C//DTD SVG 1.1//EN" "http://www.w3.org/Graphics/SVG/1.1/DTD/svg11.dtd">
<svg version="1.1" xmlns="http://www.w3.org/2000/svg" xmlns:xlink="http://www.w3.org/1999/xlink" x="0px" y="0px"
	 width="512px" height="512px" viewBox="0 0 512 512" enable-background="new 0 0 512 512" xml:space="preserve">
<path id="magic-icon" d="M138.676,91.794l-47.407,47.408L414.067,462l47.407-47.407L138.676,91.794z M175.679,195.31l-56.107-56.108
	l19.104-19.104l56.107,56.109L175.679,195.31z M200.9,94.609c21.15,6.46,37.705,23.015,44.165,44.165
	c6.46-21.152,23.013-37.706,44.162-44.165c-21.149-6.46-37.702-23.013-44.163-44.163C238.605,71.595,222.051,88.151,200.9,94.609z
	 M109.098,214c-8.567,28.052-30.523,50.004-58.572,58.572c28.049,8.568,50.005,30.522,58.572,58.572
	c8.567-28.05,30.521-50.003,58.572-58.572C139.619,264.005,117.665,242.052,109.098,214L109.098,214z M273.072,159.653
	c14.961,4.57,26.67,16.279,31.239,31.24c4.569-14.961,16.276-26.67,31.239-31.24c-14.963-4.568-26.67-16.277-31.239-31.24
	C299.742,143.374,288.033,155.085,273.072,159.653z M349.077,50c-5.213,17.067-18.572,30.427-35.643,35.64
	c17.07,5.215,30.429,18.574,35.643,35.643c5.213-17.07,18.572-30.43,35.641-35.642C367.648,80.429,354.29,67.069,349.077,50
	L349.077,50z"/>
</svg>
