<svg xmlns="http://www.w3.org/2000/svg" width="512" height="512" viewBox="0 0 512 512"><path d="M235.328 50.334l-163.715 94.522v197.226l205.357 119.584 163.417-95.143v-197.224l-205.059-118.965zm161.862 128.588l-44.827 24.826-159.416-94.303 42.345-24.448 161.898 93.925zm-136.19 238.764l-159.743-92.846v-145.86l159.743 92.467v146.239zm15.504-171.926l-159.478-92.482 46.102-26.617 158.804 93.941-45.428 25.158zm133.955 103.515l-119.459 69.549v-146.799l119.459-66.158v143.408zm-89.329 21.362l-.1-29.369 5.85-3.406v29.426l-5.75 3.349zm61.96-36.075l-4.84 2.818v-29.426l5.75-3.348v29.42l-.91.536zm-23.033 13.411l-5.75 3.348v-29.426l5.75-3.348v29.426zm9.787-5.698l-5.851 3.406v-29.426l5.851-3.406v29.426zm-19.406 11.297l-5.756 3.352v-29.426l5.756-3.352v29.426zm-13.772 8.018l-5.75 3.348v-29.426l5.75-3.348v29.426z"/></svg>