<svg xmlns="http://www.w3.org/2000/svg" width="512" height="512" viewBox="0 0 512 512"><path d="M50.984 393.104c14.959-29.754 31.564-70.595 30.713-99.07-20.152-24.301-31.537-55.616-31.537-87.512 0-89.926 87.239-155.675 184.909-155.675 97.062 0 184.909 65.255 184.909 155.675 0 94.153-103.73 182.084-246.055 147.132-25.848 15.979-82.846 32.136-122.939 39.45zm389.45.805c27.171-32.763 29.944-81.761-.181-118.854-31.004 69.842-107.466 122.041-205.609 121.406 28.479 33.433 80.275 53.367 143.192 37.915 17.544 10.847 56.231 21.812 83.444 26.777-10.153-20.195-21.424-47.916-20.846-67.244z"/></svg>