<svg xmlns="http://www.w3.org/2000/svg" width="512" height="512" viewBox="0 0 512 512"><path d="M153.98 150.183l-28.898-17.59 115.924-67.715 31.05 17.221-118.076 68.084zm222.559 23.72l29.287 16.078 30.406-16.836-51.369-28.488-8.324 29.246zm-96.494 84.955l-180.875-107.086-49.17 67.87 180.938 107.352 49.107-68.136zm181.955-67.605v178.225l-150.152 87.42v-182.403l150.152-83.242zm-98.008 159.971l-5.879 3.424.1 29.52 5.779-3.367v-29.577zm9.838-5.727l-5.779 3.365v29.576l5.779-3.365v-29.576zm13.842-8.059l-5.785 3.369v29.576l5.785-3.369v-29.576zm9.668-5.628l-5.779 3.365v29.576l5.779-3.365v-29.576zm9.838-5.727l-5.881 3.424v29.576l5.881-3.424v-29.576zm14.228-8.285l-5.779 3.365v29.578l4.865-2.834.914-.537v-29.572zm-330.072-38.569v65.682l190.359 110.85v-146.672l-42.715 57.738-147.644-87.598zm243.067-142.232l16.059 27.062 22.244-86.865-86.902-22.092 16.061 27.061s-64.82 52.984-17.338 139.949c-7.394-69.572 49.876-85.115 49.876-85.115z"/></svg>