<?xml version="1.0" encoding="utf-8"?>

<!-- The icon can be used freely in both personal and commercial projects with no attribution required, but always appreciated. 
You may NOT sub-license, resell, rent, redistribute or otherwise transfer the icon without express written permission from iconmonstr.com -->

<!DOCTYPE svg PUBLIC "-//W3C//DTD SVG 1.1//EN" "http://www.w3.org/Graphics/SVG/1.1/DTD/svg11.dtd">
<svg version="1.1" xmlns="http://www.w3.org/2000/svg" xmlns:xlink="http://www.w3.org/1999/xlink" x="0px" y="0px"
	 width="512px" height="512px" viewBox="0 0 512 512" enable-background="new 0 0 512 512" xml:space="preserve">
<path id="bug-icon" d="M172.769,74.168C172.769,60.821,183.59,50,196.937,50c15.931,0,27.49,15.162,23.331,30.495
	c-1.564,5.773-0.724,11.933,2.332,17.075c6.774,11.4,18.315,18.42,33.4,18.499c14.877-0.079,26.57-7.004,33.4-18.499
	c3.056-5.142,3.896-11.302,2.332-17.075C287.579,65.182,299.111,50,315.063,50c13.347,0,24.168,10.821,24.168,24.168
	c0,11.587-8.134,21.189-18.88,23.59c-5.439,1.215-10.136,4.621-12.983,9.412c-10.979,18.477,4.957,34.719,17.915,51.213
	c-39.593,20.71-98.974,20.71-138.566,0c13.159-16.749,28.975-32.598,17.916-51.213c-2.849-4.791-7.544-8.196-12.984-9.412
	C180.901,95.357,172.769,85.755,172.769,74.168z M400.63,315.266h40.343c9.836,0,17.809-7.973,17.809-17.808
	s-7.973-17.808-17.809-17.808h-40.595c-9.723,0-19.215-6.741-20.739-18.062c-1.55-11.623,4.837-19.687,12.922-22.875l37.71-14.872
	c9.15-3.608,13.642-13.95,10.033-23.1c-3.607-9.149-13.949-13.641-23.098-10.033l-38.775,15.292
	c-5.547,2.188-12.407,0.623-15.645-6.893c-3.787-8.79-8.079-17.002-12.831-24.455c-34.622,15.589-64.285,23.388-93.953,23.388
	c-29.661,0-59.326-7.794-93.957-23.388c-4.64,7.278-8.842,15.279-12.563,23.836c-3.838,8.827-10.927,9.478-15.911,7.512
	l-38.775-15.292c-9.149-3.608-19.491,0.884-23.099,10.033c-3.608,9.15,0.883,19.492,10.033,23.1l37.71,14.872
	c8.381,3.305,14.437,11.917,13.058,21.869c-1.796,13.012-11.537,19.067-20.875,19.067H71.027c-9.836,0-17.809,7.973-17.809,17.808
	s7.973,17.808,17.809,17.808h40.342c9.674,0,19.582,6.384,21.368,18.135c1.907,12.495-3.848,21.092-12.688,25.093l-40.897,18.501
	c-8.961,4.054-12.938,14.604-8.885,23.564c4.056,8.97,14.615,12.934,23.564,8.885l43.265-19.572
	c5.189-2.349,11.631-1.826,15.223,4.444C169.971,425.152,205.459,456.28,256,462c49.553-5.608,84.635-35.64,102.625-65.875
	c4.407-7.409,10.606-8.822,16.279-6.254l43.265,19.572c8.938,4.046,19.504,0.094,23.565-8.885
	c4.053-8.961,0.075-19.511-8.886-23.564l-40.897-18.501c-8.37-3.788-14.653-12.662-12.899-23.735
	C381.24,320.96,391.198,315.266,400.63,315.266z"/>
</svg>
