<svg xmlns="http://www.w3.org/2000/svg" width="512" height="512" viewBox="0 0 512 512"><path d="M140.869 256c17.686 7.75 30.25 24.5 30.25 54v34.457c0 24.955 22.379 32.912 41.548 33.494v36.861c-52.265 0-83.112-17.9-83.112-66.234v-38.383c0-24.547-19.499-35.537-39.353-35.537v-37.316c19.854 0 39.353-10.989 39.353-35.536v-38.384c0-48.333 30.848-66.234 83.112-66.234v36.861c-19.169.582-41.548 8.539-41.548 33.495v34.456c0 29.5-12.564 46.25-30.25 54zm200.012-54v-34.456c0-24.956-22.379-32.913-41.548-33.495v-36.861c52.265 0 83.112 17.901 83.112 66.234v38.384c0 24.547 19.499 35.536 39.353 35.536v37.316c-19.854 0-39.353 10.99-39.353 35.537v38.383c0 48.334-30.848 66.234-83.112 66.234v-36.861c19.169-.582 41.548-8.539 41.548-33.494v-34.457c0-29.5 12.564-46.25 30.25-54-17.686-7.75-30.25-24.5-30.25-54z"/></svg>