<svg xmlns="http://www.w3.org/2000/svg" width="512" height="512" viewBox="0 0 512 512"><path d="M256 50c-113.701 0-206 92.217-206 206 0 113.736 92.251 206 206 206 113.689 0 206-92.207 206-206 0-113.694-92.213-206-206-206zm74.953 280.953c-41.387 41.388-108.452 41.458-149.906 0-41.395-41.395-41.441-108.465 0-149.906 41.416-41.416 108.48-41.428 149.906 0 41.391 41.388 41.447 108.464 0 149.906zm5.305-237.278l-24.811 43.557c-34.916-16.342-75.943-16.355-110.895.001l-24.811-43.558c49.429-24.494 109.42-25.322 160.517 0zm-242.703 82.313l43.562 24.814c-16.287 34.993-16.457 76.8 1.078 112.647l-43.523 24.791c-25.47-49.832-26.614-110.601-1.117-162.252zm83.465 242.961l24.828-43.587c34.195 15.547 74.063 15.566 108.305-.001l24.828 43.588c-48.953 23.776-107.765 24.38-157.961 0zm196.786-105.499c17.503-35.786 17.394-77.589 1.077-112.647l43.562-24.814c24.663 49.961 25.206 110.75-1.117 162.253l-43.522-24.792z"/></svg>