<?xml version="1.0" encoding="utf-8"?>
<!-- Generator: Adobe Illustrator 16.0.0, SVG Export Plug-In . SVG Version: 6.00 Build 0)  -->
<!DOCTYPE svg PUBLIC "-//W3C//DTD SVG 1.1//EN" "http://www.w3.org/Graphics/SVG/1.1/DTD/svg11.dtd">
<svg version="1.1" id="Layer_1" xmlns="http://www.w3.org/2000/svg" xmlns:xlink="http://www.w3.org/1999/xlink" x="0px" y="0px"
	 width="99.646px" height="69.568px" viewBox="0 0 99.646 69.568" enable-background="new 0 0 99.646 69.568" xml:space="preserve">
<g>
</g>
<g>
	<path d="M26.43,46.145c0,2.688,0.128,5.312,0.512,7.423h-5.12l-0.448-3.904h-0.192c-1.728,2.432-5.056,4.608-9.472,4.608
		c-6.271,0-9.471-4.416-9.471-8.896c0-7.487,6.656-11.583,18.623-11.519v-0.64c0-2.56-0.704-7.167-7.039-7.167
		c-2.88,0-5.888,0.896-8.063,2.304l-1.28-3.711c2.56-1.664,6.271-2.752,10.175-2.752c9.472,0,11.775,6.463,11.775,12.671V46.145z
		 M20.99,37.762c-6.144-0.128-13.119,0.96-13.119,6.975c0,3.648,2.432,5.376,5.312,5.376c4.032,0,6.591-2.56,7.487-5.184
		c0.192-0.576,0.32-1.216,0.32-1.792V37.762z"/>
	<path d="M34.175,32.706c0-3.968-0.128-7.167-0.256-10.111h5.056l0.256,5.312h0.128c2.304-3.776,5.951-6.016,11.007-6.016
		c7.488,0,13.119,6.335,13.119,15.743c0,11.135-6.783,16.639-14.079,16.639c-4.096,0-7.679-1.792-9.535-4.864h-0.128v16.831h-5.567
		V32.706z M39.743,40.961c0,0.832,0.128,1.6,0.256,2.304c1.024,3.904,4.416,6.591,8.448,6.591c5.951,0,9.407-4.863,9.407-11.967
		c0-6.208-3.264-11.52-9.215-11.52c-3.84,0-7.424,2.752-8.512,6.976c-0.192,0.704-0.384,1.536-0.384,2.304V40.961z"/>
	<path d="M69.247,32.706c0-3.968-0.128-7.167-0.256-10.111h5.056l0.256,5.312h0.128c2.304-3.776,5.951-6.016,11.007-6.016
		c7.488,0,13.119,6.335,13.119,15.743c0,11.135-6.783,16.639-14.079,16.639c-4.096,0-7.679-1.792-9.535-4.864h-0.128v16.831h-5.567
		V32.706z M74.814,40.961c0,0.832,0.128,1.6,0.256,2.304c1.024,3.904,4.416,6.591,8.448,6.591c5.951,0,9.407-4.863,9.407-11.967
		c0-6.208-3.264-11.52-9.215-11.52c-3.84,0-7.424,2.752-8.512,6.976c-0.192,0.704-0.384,1.536-0.384,2.304V40.961z"/>
</g>
<g>
</g>
<g>
</g>
<g>
</g>
<g>
</g>
<g>
</g>
<g>
</g>
</svg>
