<?xml version="1.0" encoding="utf-8"?>
<!-- Generator: Adobe Illustrator 16.0.0, SVG Export Plug-In . SVG Version: 6.00 Build 0)  -->
<!DOCTYPE svg PUBLIC "-//W3C//DTD SVG 1.1//EN" "http://www.w3.org/Graphics/SVG/1.1/DTD/svg11.dtd">
<svg version="1.1" id="Layer_1" xmlns="http://www.w3.org/2000/svg" xmlns:xlink="http://www.w3.org/1999/xlink" x="0px" y="0px"
	 width="134px" height="63.25px" viewBox="0 0 134 63.25" enable-background="new 0 0 134 63.25" xml:space="preserve">
<g enable-background="new    ">
	<path fill="#FFFFFF" d="M8.943,6.073c0.064,1.92-1.344,3.455-3.584,3.455c-1.984,0-3.392-1.535-3.392-3.455
		c0-1.984,1.472-3.521,3.52-3.521C7.599,2.553,8.943,4.089,8.943,6.073z M2.672,45.75V14.776h5.631V45.75H2.672z"/>
	<path fill="#FFFFFF" d="M44.077,41.271c0,7.104-1.408,11.455-4.416,14.143c-3.008,2.816-7.359,3.712-11.263,3.712
		c-3.712,0-7.808-0.896-10.303-2.56l1.408-4.288c2.048,1.28,5.248,2.432,9.087,2.432c5.76,0,9.983-3.008,9.983-10.814v-3.456h-0.128
		c-1.728,2.88-5.056,5.184-9.855,5.184c-7.679,0-13.183-6.527-13.183-15.103c0-10.496,6.848-16.447,13.951-16.447
		c5.375,0,8.319,2.815,9.663,5.376h0.128l0.256-4.672h4.928c-0.128,2.239-0.256,4.735-0.256,8.512V41.271z M38.51,26.999
		c0-0.96-0.064-1.792-0.32-2.56c-1.024-3.264-3.776-5.951-7.872-5.951c-5.375,0-9.215,4.543-9.215,11.711
		c0,6.079,3.072,11.135,9.151,11.135c3.456,0,6.591-2.176,7.807-5.759c0.32-0.96,0.448-2.048,0.448-3.008V26.999z"/>
	<path fill="#FFFFFF" d="M75.182,38.326c0,2.688,0.127,5.312,0.512,7.424h-5.12l-0.448-3.903h-0.191
		c-1.729,2.432-5.056,4.607-9.472,4.607c-6.271,0-9.471-4.416-9.471-8.896c0-7.487,6.656-11.583,18.623-11.52v-0.64
		c0-2.56-0.703-7.167-7.039-7.167c-2.88,0-5.888,0.896-8.063,2.304l-1.28-3.712c2.56-1.664,6.271-2.752,10.175-2.752
		c9.471,0,11.776,6.464,11.776,12.671V38.326z M69.741,29.943c-6.144-0.128-13.119,0.96-13.119,6.976
		c0,3.647,2.432,5.375,5.312,5.375c4.032,0,6.591-2.56,7.488-5.184c0.191-0.575,0.319-1.216,0.319-1.792V29.943z"/>
	<path fill="#FFFFFF" d="M84.271,24.439c0-3.647-0.064-6.783-0.257-9.663h4.928l0.192,6.079h0.257
		c1.407-4.159,4.799-6.783,8.574-6.783c0.641,0,1.088,0.064,1.601,0.192v5.312c-0.576-0.128-1.152-0.192-1.92-0.192
		c-3.968,0-6.784,3.008-7.552,7.231c-0.128,0.769-0.256,1.664-0.256,2.624V45.75h-5.567V24.439z"/>
	<path fill="#FFFFFF" d="M132.588,30.007c0,11.455-7.936,16.447-15.422,16.447c-8.384,0-14.848-6.144-14.848-15.935
		c0-10.367,6.783-16.447,15.359-16.447C126.572,14.072,132.588,20.536,132.588,30.007z M108.014,30.327
		c0,6.783,3.904,11.903,9.408,11.903c5.375,0,9.406-5.056,9.406-12.031c0-5.248-2.623-11.903-9.279-11.903
		C110.895,18.296,108.014,24.439,108.014,30.327z"/>
</g>
</svg>
