<svg xmlns="http://www.w3.org/2000/svg" width="512" height="512" viewBox="0 0 512 512"><path opacity=".2" d="M256 90.002c91.74 0 166 74.241 166 165.998 0 91.739-74.245 165.998-166 165.998-91.738 0-166-74.242-166-165.998 0-91.741 74.243-165.998 166-165.998m0-40c-113.771 0-206 92.226-206 205.998 0 113.77 92.229 205.998 206 205.998 113.77 0 206-92.229 206-205.998 0-113.772-92.23-205.998-206-205.998zm-3.434 321.807c-28.21 9.912-51.466-1.455-46.801-28.547 4.667-27.099 31.436-85.109 35.255-96.08 3.816-10.97-3.502-13.977-11.346-9.513-4.524 2.61-11.248 7.841-17.02 12.925-1.601-3.223-3.852-6.906-5.542-10.433 9.419-9.439 25.164-22.094 43.803-26.681 22.271-5.497 59.492 3.29 43.494 45.858-11.425 30.34-19.503 51.276-24.595 66.868-5.088 15.599.955 18.868 9.863 12.791 6.959-4.751 14.372-11.214 19.807-16.226 2.515 4.086 3.318 5.389 5.806 10.084-9.433 9.668-34.108 32.295-52.724 38.954zm58.45-187.682c-12.795 10.891-31.76 10.655-42.369-.532-10.607-11.181-8.838-29.076 3.955-39.969 12.793-10.89 31.762-10.654 42.369.525 10.606 11.186 8.838 29.08-3.955 39.976z"/></svg>